%MOIN*%
%OFA0B0*%
%FSLAX46Y46*%
%IPPOS*%
%LPD*%
%ADD10C,0.0039370078740157488*%
%ADD11C,0.066929133858267723*%
%ADD12O,0.076771653543307089X0.066929133858267723*%
%ADD13C,0.16929133858267717*%
%ADD14R,0.05X0.05*%
%ADD15C,0.05*%
%ADD16C,0.12000000000000001*%
%ADD27C,0.0039370078740157488*%
%ADD28C,0.066929133858267723*%
%ADD29O,0.076771653543307089X0.066929133858267723*%
%ADD30C,0.16929133858267717*%
%ADD31R,0.05X0.05*%
%ADD32C,0.05*%
%ADD33C,0.12000000000000001*%
%ADD34C,0.0039370078740157488*%
%ADD35C,0.066929133858267723*%
%ADD36O,0.076771653543307089X0.066929133858267723*%
%ADD37C,0.16929133858267717*%
%ADD38R,0.05X0.05*%
%ADD39C,0.05*%
%ADD40C,0.12000000000000001*%
%ADD41C,0.0039370078740157488*%
%ADD42C,0.066929133858267723*%
%ADD43O,0.076771653543307089X0.066929133858267723*%
%ADD44C,0.16929133858267717*%
%ADD45R,0.05X0.05*%
%ADD46C,0.05*%
%ADD47C,0.12000000000000001*%
%ADD48C,0.0039370078740157488*%
%ADD49C,0.066929133858267723*%
%ADD50O,0.076771653543307089X0.066929133858267723*%
%ADD51C,0.16929133858267717*%
%ADD52R,0.05X0.05*%
%ADD53C,0.05*%
%ADD54C,0.12000000000000001*%
%ADD55C,0.0039370078740157488*%
%ADD56C,0.066929133858267723*%
%ADD57O,0.076771653543307089X0.066929133858267723*%
%ADD58C,0.16929133858267717*%
%ADD59R,0.05X0.05*%
%ADD60C,0.05*%
%ADD61C,0.12000000000000001*%
%ADD62C,0.0039370078740157488*%
%ADD63C,0.066929133858267723*%
%ADD64O,0.076771653543307089X0.066929133858267723*%
%ADD65C,0.16929133858267717*%
%ADD66R,0.05X0.05*%
%ADD67C,0.05*%
%ADD68C,0.12000000000000001*%
%ADD69C,0.0039370078740157488*%
%ADD70C,0.066929133858267723*%
%ADD71O,0.076771653543307089X0.066929133858267723*%
%ADD72C,0.16929133858267717*%
%ADD73R,0.05X0.05*%
%ADD74C,0.05*%
%ADD75C,0.12000000000000001*%
%ADD76C,0.0039370078740157488*%
%ADD77C,0.066929133858267723*%
%ADD78O,0.076771653543307089X0.066929133858267723*%
%ADD79C,0.16929133858267717*%
%ADD80R,0.05X0.05*%
%ADD81C,0.05*%
%ADD82C,0.12000000000000001*%
%ADD83C,0.0039370078740157488*%
%ADD84C,0.066929133858267723*%
%ADD85O,0.076771653543307089X0.066929133858267723*%
%ADD86C,0.16929133858267717*%
%ADD87R,0.05X0.05*%
%ADD88C,0.05*%
%ADD89C,0.12000000000000001*%
%ADD90C,0.0039370078740157488*%
%ADD91C,0.066929133858267723*%
%ADD92O,0.066929133858267723X0.076771653543307089*%
%ADD93C,0.16929133858267717*%
%ADD94R,0.05X0.05*%
%ADD95C,0.05*%
%ADD96C,0.12000000000000001*%
%ADD97C,0.0039370078740157488*%
%ADD98C,0.066929133858267723*%
%ADD99O,0.066929133858267723X0.076771653543307089*%
%ADD100C,0.16929133858267717*%
%ADD101R,0.05X0.05*%
%ADD102C,0.05*%
%ADD103C,0.12000000000000001*%
G01*
D10*
X0001456692Y0000708661D02*
G75*
G02X0001535433Y0000629921J-0000078740D01*
G01*
X0001535433Y0000078740D02*
G75*
G02X0001456692Y0000000000I-0000078740D01*
G01*
X0000078740Y0000000000D02*
G75*
G02X0000000000Y0000078740J0000078740D01*
G01*
X0000000000Y0000629921D02*
G75*
G02X0000078740Y0000708661I0000078740D01*
G01*
X0001535433Y0000078740D02*
X0001535433Y0000629921D01*
X0000078740Y0000000000D02*
X0001456692Y0000000000D01*
X0000000000Y0000629921D02*
X0000000000Y0000078740D01*
X0001456692Y0000708661D02*
X0000078740Y0000708661D01*
G36*
X0000186988Y0000535385D02*
X0000187943Y0000535243D01*
X0000188880Y0000535009D01*
X0000189790Y0000534683D01*
X0000190663Y0000534270D01*
X0000191491Y0000533774D01*
X0000192267Y0000533198D01*
X0000192983Y0000532550D01*
X0000193632Y0000531834D01*
X0000194207Y0000531058D01*
X0000194703Y0000530230D01*
X0000195116Y0000529357D01*
X0000195442Y0000528447D01*
X0000195677Y0000527510D01*
X0000195818Y0000526555D01*
X0000195866Y0000525590D01*
X0000195866Y0000478346D01*
X0000195818Y0000477381D01*
X0000195677Y0000476426D01*
X0000195442Y0000475489D01*
X0000195116Y0000474579D01*
X0000194703Y0000473706D01*
X0000194207Y0000472878D01*
X0000193632Y0000472102D01*
X0000192983Y0000471386D01*
X0000192267Y0000470738D01*
X0000191491Y0000470162D01*
X0000190663Y0000469666D01*
X0000189790Y0000469253D01*
X0000188880Y0000468927D01*
X0000187943Y0000468693D01*
X0000186988Y0000468551D01*
X0000186023Y0000468503D01*
X0000128937Y0000468503D01*
X0000127972Y0000468551D01*
X0000127016Y0000468693D01*
X0000126079Y0000468927D01*
X0000125170Y0000469253D01*
X0000124297Y0000469666D01*
X0000123468Y0000470162D01*
X0000122692Y0000470738D01*
X0000121977Y0000471386D01*
X0000121328Y0000472102D01*
X0000120753Y0000472878D01*
X0000120256Y0000473706D01*
X0000119843Y0000474579D01*
X0000119518Y0000475489D01*
X0000119283Y0000476426D01*
X0000119141Y0000477381D01*
X0000119094Y0000478346D01*
X0000119094Y0000525590D01*
X0000119141Y0000526555D01*
X0000119283Y0000527510D01*
X0000119518Y0000528447D01*
X0000119843Y0000529357D01*
X0000120256Y0000530230D01*
X0000120753Y0000531058D01*
X0000121328Y0000531834D01*
X0000121977Y0000532550D01*
X0000122692Y0000533198D01*
X0000123468Y0000533774D01*
X0000124297Y0000534270D01*
X0000125170Y0000534683D01*
X0000126079Y0000535009D01*
X0000127016Y0000535243D01*
X0000127972Y0000535385D01*
X0000128937Y0000535433D01*
X0000186023Y0000535433D01*
X0000186988Y0000535385D01*
X0000186988Y0000535385D01*
G37*
D11*
X0000157480Y0000501968D03*
D12*
X0000157480Y0000403543D03*
X0000157480Y0000305118D03*
X0000157480Y0000206692D03*
D13*
X0000748031Y0000137795D03*
X0000748031Y0000570866D03*
D14*
X0001118582Y0000279330D03*
D15*
X0001193582Y0000279330D03*
X0001118582Y0000354330D03*
X0001193582Y0000354330D03*
X0001118582Y0000429330D03*
X0001193582Y0000429330D03*
D16*
X0001228582Y0000104330D03*
X0001438582Y0000604330D03*
X0001438582Y0000104330D03*
X0001228582Y0000604330D03*
G04 next file*
G04 #@! TF.GenerationSoftware,KiCad,Pcbnew,(6.0.0-rc1-dev-1-g01c5bdfb8)*
G04 #@! TF.CreationDate,2019-01-03T14:47:18+01:00*
G04 #@! TF.ProjectId,nunchuk_breakout,6E756E6368756B5F627265616B6F7574,rev?*
G04 #@! TF.SameCoordinates,Original*
G04 #@! TF.FileFunction,Soldermask,Bot*
G04 #@! TF.FilePolarity,Negative*
G04 Gerber Fmt 4.6, Leading zero omitted, Abs format (unit mm)*
G04 Created by KiCad (PCBNEW (6.0.0-rc1-dev-1-g01c5bdfb8)) date Thu Jan  3 14:47:18 2019*
G01*
G04 APERTURE LIST*
G04 APERTURE END LIST*
D27*
X0003858267Y0001496062D02*
G75*
G02X0003937007Y0001417322J-0000078740D01*
G01*
X0003937007Y0000866141D02*
G75*
G02X0003858267Y0000787401I-0000078740D01*
G01*
X0002480314Y0000787401D02*
G75*
G02X0002401574Y0000866141J0000078740D01*
G01*
X0002401574Y0001417322D02*
G75*
G02X0002480314Y0001496062I0000078740D01*
G01*
X0003937007Y0000866141D02*
X0003937007Y0001417322D01*
X0002480314Y0000787401D02*
X0003858267Y0000787401D01*
X0002401574Y0001417322D02*
X0002401574Y0000866141D01*
X0003858267Y0001496062D02*
X0002480314Y0001496062D01*
G04 #@! TO.C,J1*
G36*
X0002588563Y0001322787D02*
X0002589518Y0001322645D01*
X0002590455Y0001322410D01*
X0002591365Y0001322085D01*
X0002592238Y0001321672D01*
X0002593066Y0001321175D01*
X0002593842Y0001320600D01*
X0002594558Y0001319951D01*
X0002595206Y0001319236D01*
X0002595782Y0001318460D01*
X0002596278Y0001317631D01*
X0002596691Y0001316758D01*
X0002597017Y0001315849D01*
X0002597251Y0001314912D01*
X0002597393Y0001313956D01*
X0002597440Y0001312992D01*
X0002597440Y0001265748D01*
X0002597393Y0001264783D01*
X0002597251Y0001263827D01*
X0002597017Y0001262890D01*
X0002596691Y0001261981D01*
X0002596278Y0001261108D01*
X0002595782Y0001260279D01*
X0002595206Y0001259503D01*
X0002594558Y0001258788D01*
X0002593842Y0001258139D01*
X0002593066Y0001257564D01*
X0002592238Y0001257067D01*
X0002591365Y0001256654D01*
X0002590455Y0001256329D01*
X0002589518Y0001256094D01*
X0002588563Y0001255952D01*
X0002587598Y0001255905D01*
X0002530511Y0001255905D01*
X0002529547Y0001255952D01*
X0002528591Y0001256094D01*
X0002527654Y0001256329D01*
X0002526745Y0001256654D01*
X0002525872Y0001257067D01*
X0002525043Y0001257564D01*
X0002524267Y0001258139D01*
X0002523552Y0001258788D01*
X0002522903Y0001259503D01*
X0002522328Y0001260279D01*
X0002521831Y0001261108D01*
X0002521418Y0001261981D01*
X0002521093Y0001262890D01*
X0002520858Y0001263827D01*
X0002520716Y0001264783D01*
X0002520669Y0001265748D01*
X0002520669Y0001312992D01*
X0002520716Y0001313956D01*
X0002520858Y0001314912D01*
X0002521093Y0001315849D01*
X0002521418Y0001316758D01*
X0002521831Y0001317631D01*
X0002522328Y0001318460D01*
X0002522903Y0001319236D01*
X0002523552Y0001319951D01*
X0002524267Y0001320600D01*
X0002525043Y0001321175D01*
X0002525872Y0001321672D01*
X0002526745Y0001322085D01*
X0002527654Y0001322410D01*
X0002528591Y0001322645D01*
X0002529547Y0001322787D01*
X0002530511Y0001322834D01*
X0002587598Y0001322834D01*
X0002588563Y0001322787D01*
X0002588563Y0001322787D01*
G37*
D28*
X0002559055Y0001289370D03*
D29*
X0002559055Y0001190944D03*
X0002559055Y0001092519D03*
X0002559055Y0000994094D03*
G04 #@! TD*
D30*
G04 #@! TO.C,H2*
X0003149606Y0000925196D03*
G04 #@! TD*
G04 #@! TO.C,H1*
X0003149606Y0001358267D03*
G04 #@! TD*
D31*
G04 #@! TO.C,P1*
X0003520157Y0001066732D03*
D32*
X0003595157Y0001066732D03*
X0003520157Y0001141732D03*
X0003595157Y0001141732D03*
X0003520157Y0001216732D03*
X0003595157Y0001216732D03*
D33*
X0003630157Y0000891732D03*
X0003840157Y0001391732D03*
X0003840157Y0000891732D03*
X0003630157Y0001391732D03*
G04 #@! TD*
G04 next file*
G04 #@! TF.GenerationSoftware,KiCad,Pcbnew,(6.0.0-rc1-dev-1-g01c5bdfb8)*
G04 #@! TF.CreationDate,2019-01-03T14:47:18+01:00*
G04 #@! TF.ProjectId,nunchuk_breakout,6E756E6368756B5F627265616B6F7574,rev?*
G04 #@! TF.SameCoordinates,Original*
G04 #@! TF.FileFunction,Soldermask,Bot*
G04 #@! TF.FilePolarity,Negative*
G04 Gerber Fmt 4.6, Leading zero omitted, Abs format (unit mm)*
G04 Created by KiCad (PCBNEW (6.0.0-rc1-dev-1-g01c5bdfb8)) date Thu Jan  3 14:47:18 2019*
G01*
G04 APERTURE LIST*
G04 APERTURE END LIST*
D34*
X0003858267Y0002283464D02*
G75*
G02X0003937007Y0002204724J-0000078740D01*
G01*
X0003937007Y0001653543D02*
G75*
G02X0003858267Y0001574803I-0000078740D01*
G01*
X0002480314Y0001574803D02*
G75*
G02X0002401574Y0001653543J0000078740D01*
G01*
X0002401574Y0002204724D02*
G75*
G02X0002480314Y0002283464I0000078740D01*
G01*
X0003937007Y0001653543D02*
X0003937007Y0002204724D01*
X0002480314Y0001574803D02*
X0003858267Y0001574803D01*
X0002401574Y0002204724D02*
X0002401574Y0001653543D01*
X0003858267Y0002283464D02*
X0002480314Y0002283464D01*
G04 #@! TO.C,J1*
G36*
X0002588563Y0002110188D02*
X0002589518Y0002110047D01*
X0002590455Y0002109812D01*
X0002591365Y0002109486D01*
X0002592238Y0002109074D01*
X0002593066Y0002108577D01*
X0002593842Y0002108002D01*
X0002594558Y0002107353D01*
X0002595206Y0002106637D01*
X0002595782Y0002105861D01*
X0002596278Y0002105033D01*
X0002596691Y0002104160D01*
X0002597017Y0002103250D01*
X0002597251Y0002102313D01*
X0002597393Y0002101358D01*
X0002597440Y0002100393D01*
X0002597440Y0002053149D01*
X0002597393Y0002052184D01*
X0002597251Y0002051229D01*
X0002597017Y0002050292D01*
X0002596691Y0002049382D01*
X0002596278Y0002048509D01*
X0002595782Y0002047681D01*
X0002595206Y0002046905D01*
X0002594558Y0002046189D01*
X0002593842Y0002045541D01*
X0002593066Y0002044965D01*
X0002592238Y0002044469D01*
X0002591365Y0002044056D01*
X0002590455Y0002043730D01*
X0002589518Y0002043496D01*
X0002588563Y0002043354D01*
X0002587598Y0002043307D01*
X0002530511Y0002043307D01*
X0002529547Y0002043354D01*
X0002528591Y0002043496D01*
X0002527654Y0002043730D01*
X0002526745Y0002044056D01*
X0002525872Y0002044469D01*
X0002525043Y0002044965D01*
X0002524267Y0002045541D01*
X0002523552Y0002046189D01*
X0002522903Y0002046905D01*
X0002522328Y0002047681D01*
X0002521831Y0002048509D01*
X0002521418Y0002049382D01*
X0002521093Y0002050292D01*
X0002520858Y0002051229D01*
X0002520716Y0002052184D01*
X0002520669Y0002053149D01*
X0002520669Y0002100393D01*
X0002520716Y0002101358D01*
X0002520858Y0002102313D01*
X0002521093Y0002103250D01*
X0002521418Y0002104160D01*
X0002521831Y0002105033D01*
X0002522328Y0002105861D01*
X0002522903Y0002106637D01*
X0002523552Y0002107353D01*
X0002524267Y0002108002D01*
X0002525043Y0002108577D01*
X0002525872Y0002109074D01*
X0002526745Y0002109486D01*
X0002527654Y0002109812D01*
X0002528591Y0002110047D01*
X0002529547Y0002110188D01*
X0002530511Y0002110236D01*
X0002587598Y0002110236D01*
X0002588563Y0002110188D01*
X0002588563Y0002110188D01*
G37*
D35*
X0002559055Y0002076771D03*
D36*
X0002559055Y0001978346D03*
X0002559055Y0001879921D03*
X0002559055Y0001781496D03*
G04 #@! TD*
D37*
G04 #@! TO.C,H2*
X0003149606Y0001712598D03*
G04 #@! TD*
G04 #@! TO.C,H1*
X0003149606Y0002145669D03*
G04 #@! TD*
D38*
G04 #@! TO.C,P1*
X0003520157Y0001854133D03*
D39*
X0003595157Y0001854133D03*
X0003520157Y0001929133D03*
X0003595157Y0001929133D03*
X0003520157Y0002004133D03*
X0003595157Y0002004133D03*
D40*
X0003630157Y0001679133D03*
X0003840157Y0002179133D03*
X0003840157Y0001679133D03*
X0003630157Y0002179133D03*
G04 #@! TD*
G04 next file*
G04 #@! TF.GenerationSoftware,KiCad,Pcbnew,(6.0.0-rc1-dev-1-g01c5bdfb8)*
G04 #@! TF.CreationDate,2019-01-03T14:47:18+01:00*
G04 #@! TF.ProjectId,nunchuk_breakout,6E756E6368756B5F627265616B6F7574,rev?*
G04 #@! TF.SameCoordinates,Original*
G04 #@! TF.FileFunction,Soldermask,Bot*
G04 #@! TF.FilePolarity,Negative*
G04 Gerber Fmt 4.6, Leading zero omitted, Abs format (unit mm)*
G04 Created by KiCad (PCBNEW (6.0.0-rc1-dev-1-g01c5bdfb8)) date Thu Jan  3 14:47:18 2019*
G01*
G04 APERTURE LIST*
G04 APERTURE END LIST*
D41*
X0001456692Y0001496062D02*
G75*
G02X0001535433Y0001417322J-0000078740D01*
G01*
X0001535433Y0000866141D02*
G75*
G02X0001456692Y0000787401I-0000078740D01*
G01*
X0000078740Y0000787401D02*
G75*
G02X0000000000Y0000866141J0000078740D01*
G01*
X0000000000Y0001417322D02*
G75*
G02X0000078740Y0001496062I0000078740D01*
G01*
X0001535433Y0000866141D02*
X0001535433Y0001417322D01*
X0000078740Y0000787401D02*
X0001456692Y0000787401D01*
X0000000000Y0001417322D02*
X0000000000Y0000866141D01*
X0001456692Y0001496062D02*
X0000078740Y0001496062D01*
G04 #@! TO.C,J1*
G36*
X0000186988Y0001322787D02*
X0000187943Y0001322645D01*
X0000188880Y0001322410D01*
X0000189790Y0001322085D01*
X0000190663Y0001321672D01*
X0000191491Y0001321175D01*
X0000192267Y0001320600D01*
X0000192983Y0001319951D01*
X0000193632Y0001319236D01*
X0000194207Y0001318460D01*
X0000194703Y0001317631D01*
X0000195116Y0001316758D01*
X0000195442Y0001315849D01*
X0000195677Y0001314912D01*
X0000195818Y0001313956D01*
X0000195866Y0001312992D01*
X0000195866Y0001265748D01*
X0000195818Y0001264783D01*
X0000195677Y0001263827D01*
X0000195442Y0001262890D01*
X0000195116Y0001261981D01*
X0000194703Y0001261108D01*
X0000194207Y0001260279D01*
X0000193632Y0001259503D01*
X0000192983Y0001258788D01*
X0000192267Y0001258139D01*
X0000191491Y0001257564D01*
X0000190663Y0001257067D01*
X0000189790Y0001256654D01*
X0000188880Y0001256329D01*
X0000187943Y0001256094D01*
X0000186988Y0001255952D01*
X0000186023Y0001255905D01*
X0000128937Y0001255905D01*
X0000127972Y0001255952D01*
X0000127016Y0001256094D01*
X0000126079Y0001256329D01*
X0000125170Y0001256654D01*
X0000124297Y0001257067D01*
X0000123468Y0001257564D01*
X0000122692Y0001258139D01*
X0000121977Y0001258788D01*
X0000121328Y0001259503D01*
X0000120753Y0001260279D01*
X0000120256Y0001261108D01*
X0000119843Y0001261981D01*
X0000119518Y0001262890D01*
X0000119283Y0001263827D01*
X0000119141Y0001264783D01*
X0000119094Y0001265748D01*
X0000119094Y0001312992D01*
X0000119141Y0001313956D01*
X0000119283Y0001314912D01*
X0000119518Y0001315849D01*
X0000119843Y0001316758D01*
X0000120256Y0001317631D01*
X0000120753Y0001318460D01*
X0000121328Y0001319236D01*
X0000121977Y0001319951D01*
X0000122692Y0001320600D01*
X0000123468Y0001321175D01*
X0000124297Y0001321672D01*
X0000125170Y0001322085D01*
X0000126079Y0001322410D01*
X0000127016Y0001322645D01*
X0000127972Y0001322787D01*
X0000128937Y0001322834D01*
X0000186023Y0001322834D01*
X0000186988Y0001322787D01*
X0000186988Y0001322787D01*
G37*
D42*
X0000157480Y0001289370D03*
D43*
X0000157480Y0001190944D03*
X0000157480Y0001092519D03*
X0000157480Y0000994094D03*
G04 #@! TD*
D44*
G04 #@! TO.C,H2*
X0000748031Y0000925196D03*
G04 #@! TD*
G04 #@! TO.C,H1*
X0000748031Y0001358267D03*
G04 #@! TD*
D45*
G04 #@! TO.C,P1*
X0001118582Y0001066732D03*
D46*
X0001193582Y0001066732D03*
X0001118582Y0001141732D03*
X0001193582Y0001141732D03*
X0001118582Y0001216732D03*
X0001193582Y0001216732D03*
D47*
X0001228582Y0000891732D03*
X0001438582Y0001391732D03*
X0001438582Y0000891732D03*
X0001228582Y0001391732D03*
G04 #@! TD*
G04 next file*
G04 #@! TF.GenerationSoftware,KiCad,Pcbnew,(6.0.0-rc1-dev-1-g01c5bdfb8)*
G04 #@! TF.CreationDate,2019-01-03T14:47:18+01:00*
G04 #@! TF.ProjectId,nunchuk_breakout,6E756E6368756B5F627265616B6F7574,rev?*
G04 #@! TF.SameCoordinates,Original*
G04 #@! TF.FileFunction,Soldermask,Bot*
G04 #@! TF.FilePolarity,Negative*
G04 Gerber Fmt 4.6, Leading zero omitted, Abs format (unit mm)*
G04 Created by KiCad (PCBNEW (6.0.0-rc1-dev-1-g01c5bdfb8)) date Thu Jan  3 14:47:18 2019*
G01*
G04 APERTURE LIST*
G04 APERTURE END LIST*
D48*
X0001456692Y0002283464D02*
G75*
G02X0001535433Y0002204724J-0000078740D01*
G01*
X0001535433Y0001653543D02*
G75*
G02X0001456692Y0001574803I-0000078740D01*
G01*
X0000078740Y0001574803D02*
G75*
G02X0000000000Y0001653543J0000078740D01*
G01*
X0000000000Y0002204724D02*
G75*
G02X0000078740Y0002283464I0000078740D01*
G01*
X0001535433Y0001653543D02*
X0001535433Y0002204724D01*
X0000078740Y0001574803D02*
X0001456692Y0001574803D01*
X0000000000Y0002204724D02*
X0000000000Y0001653543D01*
X0001456692Y0002283464D02*
X0000078740Y0002283464D01*
G04 #@! TO.C,J1*
G36*
X0000186988Y0002110188D02*
X0000187943Y0002110047D01*
X0000188880Y0002109812D01*
X0000189790Y0002109486D01*
X0000190663Y0002109074D01*
X0000191491Y0002108577D01*
X0000192267Y0002108002D01*
X0000192983Y0002107353D01*
X0000193632Y0002106637D01*
X0000194207Y0002105861D01*
X0000194703Y0002105033D01*
X0000195116Y0002104160D01*
X0000195442Y0002103250D01*
X0000195677Y0002102313D01*
X0000195818Y0002101358D01*
X0000195866Y0002100393D01*
X0000195866Y0002053149D01*
X0000195818Y0002052184D01*
X0000195677Y0002051229D01*
X0000195442Y0002050292D01*
X0000195116Y0002049382D01*
X0000194703Y0002048509D01*
X0000194207Y0002047681D01*
X0000193632Y0002046905D01*
X0000192983Y0002046189D01*
X0000192267Y0002045541D01*
X0000191491Y0002044965D01*
X0000190663Y0002044469D01*
X0000189790Y0002044056D01*
X0000188880Y0002043730D01*
X0000187943Y0002043496D01*
X0000186988Y0002043354D01*
X0000186023Y0002043307D01*
X0000128937Y0002043307D01*
X0000127972Y0002043354D01*
X0000127016Y0002043496D01*
X0000126079Y0002043730D01*
X0000125170Y0002044056D01*
X0000124297Y0002044469D01*
X0000123468Y0002044965D01*
X0000122692Y0002045541D01*
X0000121977Y0002046189D01*
X0000121328Y0002046905D01*
X0000120753Y0002047681D01*
X0000120256Y0002048509D01*
X0000119843Y0002049382D01*
X0000119518Y0002050292D01*
X0000119283Y0002051229D01*
X0000119141Y0002052184D01*
X0000119094Y0002053149D01*
X0000119094Y0002100393D01*
X0000119141Y0002101358D01*
X0000119283Y0002102313D01*
X0000119518Y0002103250D01*
X0000119843Y0002104160D01*
X0000120256Y0002105033D01*
X0000120753Y0002105861D01*
X0000121328Y0002106637D01*
X0000121977Y0002107353D01*
X0000122692Y0002108002D01*
X0000123468Y0002108577D01*
X0000124297Y0002109074D01*
X0000125170Y0002109486D01*
X0000126079Y0002109812D01*
X0000127016Y0002110047D01*
X0000127972Y0002110188D01*
X0000128937Y0002110236D01*
X0000186023Y0002110236D01*
X0000186988Y0002110188D01*
X0000186988Y0002110188D01*
G37*
D49*
X0000157480Y0002076771D03*
D50*
X0000157480Y0001978346D03*
X0000157480Y0001879921D03*
X0000157480Y0001781496D03*
G04 #@! TD*
D51*
G04 #@! TO.C,H2*
X0000748031Y0001712598D03*
G04 #@! TD*
G04 #@! TO.C,H1*
X0000748031Y0002145669D03*
G04 #@! TD*
D52*
G04 #@! TO.C,P1*
X0001118582Y0001854133D03*
D53*
X0001193582Y0001854133D03*
X0001118582Y0001929133D03*
X0001193582Y0001929133D03*
X0001118582Y0002004133D03*
X0001193582Y0002004133D03*
D54*
X0001228582Y0001679133D03*
X0001438582Y0002179133D03*
X0001438582Y0001679133D03*
X0001228582Y0002179133D03*
G04 #@! TD*
G04 next file*
G04 #@! TF.GenerationSoftware,KiCad,Pcbnew,(6.0.0-rc1-dev-1-g01c5bdfb8)*
G04 #@! TF.CreationDate,2019-01-03T14:47:18+01:00*
G04 #@! TF.ProjectId,nunchuk_breakout,6E756E6368756B5F627265616B6F7574,rev?*
G04 #@! TF.SameCoordinates,Original*
G04 #@! TF.FileFunction,Soldermask,Bot*
G04 #@! TF.FilePolarity,Negative*
G04 Gerber Fmt 4.6, Leading zero omitted, Abs format (unit mm)*
G04 Created by KiCad (PCBNEW (6.0.0-rc1-dev-1-g01c5bdfb8)) date Thu Jan  3 14:47:18 2019*
G01*
G04 APERTURE LIST*
G04 APERTURE END LIST*
D55*
X0003858267Y0000708661D02*
G75*
G02X0003937007Y0000629921J-0000078740D01*
G01*
X0003937007Y0000078740D02*
G75*
G02X0003858267Y0000000000I-0000078740D01*
G01*
X0002480314Y0000000000D02*
G75*
G02X0002401574Y0000078740J0000078740D01*
G01*
X0002401574Y0000629921D02*
G75*
G02X0002480314Y0000708661I0000078740D01*
G01*
X0003937007Y0000078740D02*
X0003937007Y0000629921D01*
X0002480314Y0000000000D02*
X0003858267Y0000000000D01*
X0002401574Y0000629921D02*
X0002401574Y0000078740D01*
X0003858267Y0000708661D02*
X0002480314Y0000708661D01*
G04 #@! TO.C,J1*
G36*
X0002588563Y0000535385D02*
X0002589518Y0000535243D01*
X0002590455Y0000535009D01*
X0002591365Y0000534683D01*
X0002592238Y0000534270D01*
X0002593066Y0000533774D01*
X0002593842Y0000533198D01*
X0002594558Y0000532550D01*
X0002595206Y0000531834D01*
X0002595782Y0000531058D01*
X0002596278Y0000530230D01*
X0002596691Y0000529357D01*
X0002597017Y0000528447D01*
X0002597251Y0000527510D01*
X0002597393Y0000526555D01*
X0002597440Y0000525590D01*
X0002597440Y0000478346D01*
X0002597393Y0000477381D01*
X0002597251Y0000476426D01*
X0002597017Y0000475489D01*
X0002596691Y0000474579D01*
X0002596278Y0000473706D01*
X0002595782Y0000472878D01*
X0002595206Y0000472102D01*
X0002594558Y0000471386D01*
X0002593842Y0000470738D01*
X0002593066Y0000470162D01*
X0002592238Y0000469666D01*
X0002591365Y0000469253D01*
X0002590455Y0000468927D01*
X0002589518Y0000468693D01*
X0002588563Y0000468551D01*
X0002587598Y0000468503D01*
X0002530511Y0000468503D01*
X0002529547Y0000468551D01*
X0002528591Y0000468693D01*
X0002527654Y0000468927D01*
X0002526745Y0000469253D01*
X0002525872Y0000469666D01*
X0002525043Y0000470162D01*
X0002524267Y0000470738D01*
X0002523552Y0000471386D01*
X0002522903Y0000472102D01*
X0002522328Y0000472878D01*
X0002521831Y0000473706D01*
X0002521418Y0000474579D01*
X0002521093Y0000475489D01*
X0002520858Y0000476426D01*
X0002520716Y0000477381D01*
X0002520669Y0000478346D01*
X0002520669Y0000525590D01*
X0002520716Y0000526555D01*
X0002520858Y0000527510D01*
X0002521093Y0000528447D01*
X0002521418Y0000529357D01*
X0002521831Y0000530230D01*
X0002522328Y0000531058D01*
X0002522903Y0000531834D01*
X0002523552Y0000532550D01*
X0002524267Y0000533198D01*
X0002525043Y0000533774D01*
X0002525872Y0000534270D01*
X0002526745Y0000534683D01*
X0002527654Y0000535009D01*
X0002528591Y0000535243D01*
X0002529547Y0000535385D01*
X0002530511Y0000535433D01*
X0002587598Y0000535433D01*
X0002588563Y0000535385D01*
X0002588563Y0000535385D01*
G37*
D56*
X0002559055Y0000501968D03*
D57*
X0002559055Y0000403543D03*
X0002559055Y0000305118D03*
X0002559055Y0000206692D03*
G04 #@! TD*
D58*
G04 #@! TO.C,H2*
X0003149606Y0000137795D03*
G04 #@! TD*
G04 #@! TO.C,H1*
X0003149606Y0000570866D03*
G04 #@! TD*
D59*
G04 #@! TO.C,P1*
X0003520157Y0000279330D03*
D60*
X0003595157Y0000279330D03*
X0003520157Y0000354330D03*
X0003595157Y0000354330D03*
X0003520157Y0000429330D03*
X0003595157Y0000429330D03*
D61*
X0003630157Y0000104330D03*
X0003840157Y0000604330D03*
X0003840157Y0000104330D03*
X0003630157Y0000604330D03*
G04 #@! TD*
G04 next file*
G04 #@! TF.GenerationSoftware,KiCad,Pcbnew,(6.0.0-rc1-dev-1-g01c5bdfb8)*
G04 #@! TF.CreationDate,2019-01-03T14:47:18+01:00*
G04 #@! TF.ProjectId,nunchuk_breakout,6E756E6368756B5F627265616B6F7574,rev?*
G04 #@! TF.SameCoordinates,Original*
G04 #@! TF.FileFunction,Soldermask,Bot*
G04 #@! TF.FilePolarity,Negative*
G04 Gerber Fmt 4.6, Leading zero omitted, Abs format (unit mm)*
G04 Created by KiCad (PCBNEW (6.0.0-rc1-dev-1-g01c5bdfb8)) date Thu Jan  3 14:47:18 2019*
G01*
G04 APERTURE LIST*
G04 APERTURE END LIST*
D62*
X0001456692Y0003070866D02*
G75*
G02X0001535433Y0002992125J-0000078740D01*
G01*
X0001535433Y0002440944D02*
G75*
G02X0001456692Y0002362204I-0000078740D01*
G01*
X0000078740Y0002362204D02*
G75*
G02X0000000000Y0002440944J0000078740D01*
G01*
X0000000000Y0002992125D02*
G75*
G02X0000078740Y0003070866I0000078740D01*
G01*
X0001535433Y0002440944D02*
X0001535433Y0002992125D01*
X0000078740Y0002362204D02*
X0001456692Y0002362204D01*
X0000000000Y0002992125D02*
X0000000000Y0002440944D01*
X0001456692Y0003070866D02*
X0000078740Y0003070866D01*
G04 #@! TO.C,J1*
G36*
X0000186988Y0002897590D02*
X0000187943Y0002897448D01*
X0000188880Y0002897213D01*
X0000189790Y0002896888D01*
X0000190663Y0002896475D01*
X0000191491Y0002895979D01*
X0000192267Y0002895403D01*
X0000192983Y0002894755D01*
X0000193632Y0002894039D01*
X0000194207Y0002893263D01*
X0000194703Y0002892435D01*
X0000195116Y0002891561D01*
X0000195442Y0002890652D01*
X0000195677Y0002889715D01*
X0000195818Y0002888760D01*
X0000195866Y0002887795D01*
X0000195866Y0002840551D01*
X0000195818Y0002839586D01*
X0000195677Y0002838630D01*
X0000195442Y0002837694D01*
X0000195116Y0002836784D01*
X0000194703Y0002835911D01*
X0000194207Y0002835082D01*
X0000193632Y0002834307D01*
X0000192983Y0002833591D01*
X0000192267Y0002832942D01*
X0000191491Y0002832367D01*
X0000190663Y0002831870D01*
X0000189790Y0002831457D01*
X0000188880Y0002831132D01*
X0000187943Y0002830897D01*
X0000186988Y0002830756D01*
X0000186023Y0002830708D01*
X0000128937Y0002830708D01*
X0000127972Y0002830756D01*
X0000127016Y0002830897D01*
X0000126079Y0002831132D01*
X0000125170Y0002831457D01*
X0000124297Y0002831870D01*
X0000123468Y0002832367D01*
X0000122692Y0002832942D01*
X0000121977Y0002833591D01*
X0000121328Y0002834307D01*
X0000120753Y0002835082D01*
X0000120256Y0002835911D01*
X0000119843Y0002836784D01*
X0000119518Y0002837694D01*
X0000119283Y0002838630D01*
X0000119141Y0002839586D01*
X0000119094Y0002840551D01*
X0000119094Y0002887795D01*
X0000119141Y0002888760D01*
X0000119283Y0002889715D01*
X0000119518Y0002890652D01*
X0000119843Y0002891561D01*
X0000120256Y0002892435D01*
X0000120753Y0002893263D01*
X0000121328Y0002894039D01*
X0000121977Y0002894755D01*
X0000122692Y0002895403D01*
X0000123468Y0002895979D01*
X0000124297Y0002896475D01*
X0000125170Y0002896888D01*
X0000126079Y0002897213D01*
X0000127016Y0002897448D01*
X0000127972Y0002897590D01*
X0000128937Y0002897637D01*
X0000186023Y0002897637D01*
X0000186988Y0002897590D01*
X0000186988Y0002897590D01*
G37*
D63*
X0000157480Y0002864173D03*
D64*
X0000157480Y0002765748D03*
X0000157480Y0002667322D03*
X0000157480Y0002568897D03*
G04 #@! TD*
D65*
G04 #@! TO.C,H2*
X0000748031Y0002500000D03*
G04 #@! TD*
G04 #@! TO.C,H1*
X0000748031Y0002933070D03*
G04 #@! TD*
D66*
G04 #@! TO.C,P1*
X0001118582Y0002641535D03*
D67*
X0001193582Y0002641535D03*
X0001118582Y0002716535D03*
X0001193582Y0002716535D03*
X0001118582Y0002791535D03*
X0001193582Y0002791535D03*
D68*
X0001228582Y0002466535D03*
X0001438582Y0002966535D03*
X0001438582Y0002466535D03*
X0001228582Y0002966535D03*
G04 #@! TD*
G04 next file*
G04 #@! TF.GenerationSoftware,KiCad,Pcbnew,(6.0.0-rc1-dev-1-g01c5bdfb8)*
G04 #@! TF.CreationDate,2019-01-03T14:47:18+01:00*
G04 #@! TF.ProjectId,nunchuk_breakout,6E756E6368756B5F627265616B6F7574,rev?*
G04 #@! TF.SameCoordinates,Original*
G04 #@! TF.FileFunction,Soldermask,Bot*
G04 #@! TF.FilePolarity,Negative*
G04 Gerber Fmt 4.6, Leading zero omitted, Abs format (unit mm)*
G04 Created by KiCad (PCBNEW (6.0.0-rc1-dev-1-g01c5bdfb8)) date Thu Jan  3 14:47:18 2019*
G01*
G04 APERTURE LIST*
G04 APERTURE END LIST*
D69*
X0003858267Y0003070866D02*
G75*
G02X0003937007Y0002992125J-0000078740D01*
G01*
X0003937007Y0002440944D02*
G75*
G02X0003858267Y0002362204I-0000078740D01*
G01*
X0002480314Y0002362204D02*
G75*
G02X0002401574Y0002440944J0000078740D01*
G01*
X0002401574Y0002992125D02*
G75*
G02X0002480314Y0003070866I0000078740D01*
G01*
X0003937007Y0002440944D02*
X0003937007Y0002992125D01*
X0002480314Y0002362204D02*
X0003858267Y0002362204D01*
X0002401574Y0002992125D02*
X0002401574Y0002440944D01*
X0003858267Y0003070866D02*
X0002480314Y0003070866D01*
G04 #@! TO.C,J1*
G36*
X0002588563Y0002897590D02*
X0002589518Y0002897448D01*
X0002590455Y0002897213D01*
X0002591365Y0002896888D01*
X0002592238Y0002896475D01*
X0002593066Y0002895979D01*
X0002593842Y0002895403D01*
X0002594558Y0002894755D01*
X0002595206Y0002894039D01*
X0002595782Y0002893263D01*
X0002596278Y0002892435D01*
X0002596691Y0002891561D01*
X0002597017Y0002890652D01*
X0002597251Y0002889715D01*
X0002597393Y0002888760D01*
X0002597440Y0002887795D01*
X0002597440Y0002840551D01*
X0002597393Y0002839586D01*
X0002597251Y0002838630D01*
X0002597017Y0002837694D01*
X0002596691Y0002836784D01*
X0002596278Y0002835911D01*
X0002595782Y0002835082D01*
X0002595206Y0002834307D01*
X0002594558Y0002833591D01*
X0002593842Y0002832942D01*
X0002593066Y0002832367D01*
X0002592238Y0002831870D01*
X0002591365Y0002831457D01*
X0002590455Y0002831132D01*
X0002589518Y0002830897D01*
X0002588563Y0002830756D01*
X0002587598Y0002830708D01*
X0002530511Y0002830708D01*
X0002529547Y0002830756D01*
X0002528591Y0002830897D01*
X0002527654Y0002831132D01*
X0002526745Y0002831457D01*
X0002525872Y0002831870D01*
X0002525043Y0002832367D01*
X0002524267Y0002832942D01*
X0002523552Y0002833591D01*
X0002522903Y0002834307D01*
X0002522328Y0002835082D01*
X0002521831Y0002835911D01*
X0002521418Y0002836784D01*
X0002521093Y0002837694D01*
X0002520858Y0002838630D01*
X0002520716Y0002839586D01*
X0002520669Y0002840551D01*
X0002520669Y0002887795D01*
X0002520716Y0002888760D01*
X0002520858Y0002889715D01*
X0002521093Y0002890652D01*
X0002521418Y0002891561D01*
X0002521831Y0002892435D01*
X0002522328Y0002893263D01*
X0002522903Y0002894039D01*
X0002523552Y0002894755D01*
X0002524267Y0002895403D01*
X0002525043Y0002895979D01*
X0002525872Y0002896475D01*
X0002526745Y0002896888D01*
X0002527654Y0002897213D01*
X0002528591Y0002897448D01*
X0002529547Y0002897590D01*
X0002530511Y0002897637D01*
X0002587598Y0002897637D01*
X0002588563Y0002897590D01*
X0002588563Y0002897590D01*
G37*
D70*
X0002559055Y0002864173D03*
D71*
X0002559055Y0002765748D03*
X0002559055Y0002667322D03*
X0002559055Y0002568897D03*
G04 #@! TD*
D72*
G04 #@! TO.C,H2*
X0003149606Y0002500000D03*
G04 #@! TD*
G04 #@! TO.C,H1*
X0003149606Y0002933070D03*
G04 #@! TD*
D73*
G04 #@! TO.C,P1*
X0003520157Y0002641535D03*
D74*
X0003595157Y0002641535D03*
X0003520157Y0002716535D03*
X0003595157Y0002716535D03*
X0003520157Y0002791535D03*
X0003595157Y0002791535D03*
D75*
X0003630157Y0002466535D03*
X0003840157Y0002966535D03*
X0003840157Y0002466535D03*
X0003630157Y0002966535D03*
G04 #@! TD*
G04 next file*
G04 #@! TF.GenerationSoftware,KiCad,Pcbnew,(6.0.0-rc1-dev-1-g01c5bdfb8)*
G04 #@! TF.CreationDate,2019-01-03T14:47:18+01:00*
G04 #@! TF.ProjectId,nunchuk_breakout,6E756E6368756B5F627265616B6F7574,rev?*
G04 #@! TF.SameCoordinates,Original*
G04 #@! TF.FileFunction,Soldermask,Bot*
G04 #@! TF.FilePolarity,Negative*
G04 Gerber Fmt 4.6, Leading zero omitted, Abs format (unit mm)*
G04 Created by KiCad (PCBNEW (6.0.0-rc1-dev-1-g01c5bdfb8)) date Thu Jan  3 14:47:18 2019*
G01*
G04 APERTURE LIST*
G04 APERTURE END LIST*
D76*
X0001456692Y0003858267D02*
G75*
G02X0001535433Y0003779527J-0000078740D01*
G01*
X0001535433Y0003228346D02*
G75*
G02X0001456692Y0003149606I-0000078740D01*
G01*
X0000078740Y0003149606D02*
G75*
G02X0000000000Y0003228346J0000078740D01*
G01*
X0000000000Y0003779527D02*
G75*
G02X0000078740Y0003858267I0000078740D01*
G01*
X0001535433Y0003228346D02*
X0001535433Y0003779527D01*
X0000078740Y0003149606D02*
X0001456692Y0003149606D01*
X0000000000Y0003779527D02*
X0000000000Y0003228346D01*
X0001456692Y0003858267D02*
X0000078740Y0003858267D01*
G04 #@! TO.C,J1*
G36*
X0000186988Y0003684991D02*
X0000187943Y0003684850D01*
X0000188880Y0003684615D01*
X0000189790Y0003684290D01*
X0000190663Y0003683877D01*
X0000191491Y0003683380D01*
X0000192267Y0003682805D01*
X0000192983Y0003682156D01*
X0000193632Y0003681440D01*
X0000194207Y0003680665D01*
X0000194703Y0003679836D01*
X0000195116Y0003678963D01*
X0000195442Y0003678053D01*
X0000195677Y0003677117D01*
X0000195818Y0003676161D01*
X0000195866Y0003675196D01*
X0000195866Y0003627952D01*
X0000195818Y0003626988D01*
X0000195677Y0003626032D01*
X0000195442Y0003625095D01*
X0000195116Y0003624186D01*
X0000194703Y0003623313D01*
X0000194207Y0003622484D01*
X0000193632Y0003621708D01*
X0000192983Y0003620993D01*
X0000192267Y0003620344D01*
X0000191491Y0003619769D01*
X0000190663Y0003619272D01*
X0000189790Y0003618859D01*
X0000188880Y0003618534D01*
X0000187943Y0003618299D01*
X0000186988Y0003618157D01*
X0000186023Y0003618110D01*
X0000128937Y0003618110D01*
X0000127972Y0003618157D01*
X0000127016Y0003618299D01*
X0000126079Y0003618534D01*
X0000125170Y0003618859D01*
X0000124297Y0003619272D01*
X0000123468Y0003619769D01*
X0000122692Y0003620344D01*
X0000121977Y0003620993D01*
X0000121328Y0003621708D01*
X0000120753Y0003622484D01*
X0000120256Y0003623313D01*
X0000119843Y0003624186D01*
X0000119518Y0003625095D01*
X0000119283Y0003626032D01*
X0000119141Y0003626988D01*
X0000119094Y0003627952D01*
X0000119094Y0003675196D01*
X0000119141Y0003676161D01*
X0000119283Y0003677117D01*
X0000119518Y0003678053D01*
X0000119843Y0003678963D01*
X0000120256Y0003679836D01*
X0000120753Y0003680665D01*
X0000121328Y0003681440D01*
X0000121977Y0003682156D01*
X0000122692Y0003682805D01*
X0000123468Y0003683380D01*
X0000124297Y0003683877D01*
X0000125170Y0003684290D01*
X0000126079Y0003684615D01*
X0000127016Y0003684850D01*
X0000127972Y0003684991D01*
X0000128937Y0003685039D01*
X0000186023Y0003685039D01*
X0000186988Y0003684991D01*
X0000186988Y0003684991D01*
G37*
D77*
X0000157480Y0003651574D03*
D78*
X0000157480Y0003553149D03*
X0000157480Y0003454724D03*
X0000157480Y0003356299D03*
G04 #@! TD*
D79*
G04 #@! TO.C,H2*
X0000748031Y0003287401D03*
G04 #@! TD*
G04 #@! TO.C,H1*
X0000748031Y0003720472D03*
G04 #@! TD*
D80*
G04 #@! TO.C,P1*
X0001118582Y0003428937D03*
D81*
X0001193582Y0003428937D03*
X0001118582Y0003503937D03*
X0001193582Y0003503937D03*
X0001118582Y0003578937D03*
X0001193582Y0003578937D03*
D82*
X0001228582Y0003253937D03*
X0001438582Y0003753937D03*
X0001438582Y0003253937D03*
X0001228582Y0003753937D03*
G04 #@! TD*
G04 next file*
G04 #@! TF.GenerationSoftware,KiCad,Pcbnew,(6.0.0-rc1-dev-1-g01c5bdfb8)*
G04 #@! TF.CreationDate,2019-01-03T14:47:18+01:00*
G04 #@! TF.ProjectId,nunchuk_breakout,6E756E6368756B5F627265616B6F7574,rev?*
G04 #@! TF.SameCoordinates,Original*
G04 #@! TF.FileFunction,Soldermask,Bot*
G04 #@! TF.FilePolarity,Negative*
G04 Gerber Fmt 4.6, Leading zero omitted, Abs format (unit mm)*
G04 Created by KiCad (PCBNEW (6.0.0-rc1-dev-1-g01c5bdfb8)) date Thu Jan  3 14:47:18 2019*
G01*
G04 APERTURE LIST*
G04 APERTURE END LIST*
D83*
X0003858267Y0003858267D02*
G75*
G02X0003937007Y0003779527J-0000078740D01*
G01*
X0003937007Y0003228346D02*
G75*
G02X0003858267Y0003149606I-0000078740D01*
G01*
X0002480314Y0003149606D02*
G75*
G02X0002401574Y0003228346J0000078740D01*
G01*
X0002401574Y0003779527D02*
G75*
G02X0002480314Y0003858267I0000078740D01*
G01*
X0003937007Y0003228346D02*
X0003937007Y0003779527D01*
X0002480314Y0003149606D02*
X0003858267Y0003149606D01*
X0002401574Y0003779527D02*
X0002401574Y0003228346D01*
X0003858267Y0003858267D02*
X0002480314Y0003858267D01*
G04 #@! TO.C,J1*
G36*
X0002588563Y0003684991D02*
X0002589518Y0003684850D01*
X0002590455Y0003684615D01*
X0002591365Y0003684290D01*
X0002592238Y0003683877D01*
X0002593066Y0003683380D01*
X0002593842Y0003682805D01*
X0002594558Y0003682156D01*
X0002595206Y0003681440D01*
X0002595782Y0003680665D01*
X0002596278Y0003679836D01*
X0002596691Y0003678963D01*
X0002597017Y0003678053D01*
X0002597251Y0003677117D01*
X0002597393Y0003676161D01*
X0002597440Y0003675196D01*
X0002597440Y0003627952D01*
X0002597393Y0003626988D01*
X0002597251Y0003626032D01*
X0002597017Y0003625095D01*
X0002596691Y0003624186D01*
X0002596278Y0003623313D01*
X0002595782Y0003622484D01*
X0002595206Y0003621708D01*
X0002594558Y0003620993D01*
X0002593842Y0003620344D01*
X0002593066Y0003619769D01*
X0002592238Y0003619272D01*
X0002591365Y0003618859D01*
X0002590455Y0003618534D01*
X0002589518Y0003618299D01*
X0002588563Y0003618157D01*
X0002587598Y0003618110D01*
X0002530511Y0003618110D01*
X0002529547Y0003618157D01*
X0002528591Y0003618299D01*
X0002527654Y0003618534D01*
X0002526745Y0003618859D01*
X0002525872Y0003619272D01*
X0002525043Y0003619769D01*
X0002524267Y0003620344D01*
X0002523552Y0003620993D01*
X0002522903Y0003621708D01*
X0002522328Y0003622484D01*
X0002521831Y0003623313D01*
X0002521418Y0003624186D01*
X0002521093Y0003625095D01*
X0002520858Y0003626032D01*
X0002520716Y0003626988D01*
X0002520669Y0003627952D01*
X0002520669Y0003675196D01*
X0002520716Y0003676161D01*
X0002520858Y0003677117D01*
X0002521093Y0003678053D01*
X0002521418Y0003678963D01*
X0002521831Y0003679836D01*
X0002522328Y0003680665D01*
X0002522903Y0003681440D01*
X0002523552Y0003682156D01*
X0002524267Y0003682805D01*
X0002525043Y0003683380D01*
X0002525872Y0003683877D01*
X0002526745Y0003684290D01*
X0002527654Y0003684615D01*
X0002528591Y0003684850D01*
X0002529547Y0003684991D01*
X0002530511Y0003685039D01*
X0002587598Y0003685039D01*
X0002588563Y0003684991D01*
X0002588563Y0003684991D01*
G37*
D84*
X0002559055Y0003651574D03*
D85*
X0002559055Y0003553149D03*
X0002559055Y0003454724D03*
X0002559055Y0003356299D03*
G04 #@! TD*
D86*
G04 #@! TO.C,H2*
X0003149606Y0003287401D03*
G04 #@! TD*
G04 #@! TO.C,H1*
X0003149606Y0003720472D03*
G04 #@! TD*
D87*
G04 #@! TO.C,P1*
X0003520157Y0003428937D03*
D88*
X0003595157Y0003428937D03*
X0003520157Y0003503937D03*
X0003595157Y0003503937D03*
X0003520157Y0003578937D03*
X0003595157Y0003578937D03*
D89*
X0003630157Y0003253937D03*
X0003840157Y0003753937D03*
X0003840157Y0003253937D03*
X0003630157Y0003753937D03*
G04 #@! TD*
G04 next file*
G04 #@! TF.GenerationSoftware,KiCad,Pcbnew,(6.0.0-rc1-dev-1-g01c5bdfb8)*
G04 #@! TF.CreationDate,2019-01-03T14:47:18+01:00*
G04 #@! TF.ProjectId,nunchuk_breakout,6E756E6368756B5F627265616B6F7574,rev?*
G04 #@! TF.SameCoordinates,Original*
G04 #@! TF.FileFunction,Soldermask,Bot*
G04 #@! TF.FilePolarity,Negative*
G04 Gerber Fmt 4.6, Leading zero omitted, Abs format (unit mm)*
G04 Created by KiCad (PCBNEW (6.0.0-rc1-dev-1-g01c5bdfb8)) date Thu Jan  3 14:47:18 2019*
G01*
G04 APERTURE LIST*
G04 APERTURE END LIST*
D90*
X0002322834Y0002086614D02*
G75*
G02X0002244094Y0002007874I-0000078740D01*
G01*
X0001692913Y0002007874D02*
G75*
G02X0001614173Y0002086614J0000078740D01*
G01*
X0001614173Y0003464566D02*
G75*
G02X0001692913Y0003543307I0000078740D01*
G01*
X0002244094Y0003543307D02*
G75*
G02X0002322834Y0003464566J-0000078740D01*
G01*
X0001692913Y0002007874D02*
X0002244094Y0002007874D01*
X0001614173Y0003464566D02*
X0001614173Y0002086614D01*
X0002244094Y0003543307D02*
X0001692913Y0003543307D01*
X0002322834Y0002086614D02*
X0002322834Y0003464566D01*
G04 #@! TO.C,J1*
G36*
X0002149558Y0003356318D02*
X0002149417Y0003355363D01*
X0002149182Y0003354426D01*
X0002148857Y0003353516D01*
X0002148444Y0003352643D01*
X0002147947Y0003351815D01*
X0002147372Y0003351039D01*
X0002146723Y0003350323D01*
X0002146007Y0003349675D01*
X0002145232Y0003349099D01*
X0002144403Y0003348603D01*
X0002143530Y0003348190D01*
X0002142620Y0003347864D01*
X0002141683Y0003347630D01*
X0002140728Y0003347488D01*
X0002139763Y0003347440D01*
X0002092519Y0003347440D01*
X0002091554Y0003347488D01*
X0002090599Y0003347630D01*
X0002089662Y0003347864D01*
X0002088753Y0003348190D01*
X0002087879Y0003348603D01*
X0002087051Y0003349099D01*
X0002086275Y0003349675D01*
X0002085559Y0003350323D01*
X0002084911Y0003351039D01*
X0002084335Y0003351815D01*
X0002083839Y0003352643D01*
X0002083426Y0003353516D01*
X0002083100Y0003354426D01*
X0002082866Y0003355363D01*
X0002082724Y0003356318D01*
X0002082677Y0003357283D01*
X0002082677Y0003414370D01*
X0002082724Y0003415334D01*
X0002082866Y0003416290D01*
X0002083100Y0003417227D01*
X0002083426Y0003418136D01*
X0002083839Y0003419009D01*
X0002084335Y0003419838D01*
X0002084911Y0003420614D01*
X0002085559Y0003421329D01*
X0002086275Y0003421978D01*
X0002087051Y0003422553D01*
X0002087879Y0003423050D01*
X0002088753Y0003423463D01*
X0002089662Y0003423788D01*
X0002090599Y0003424023D01*
X0002091554Y0003424165D01*
X0002092519Y0003424212D01*
X0002139763Y0003424212D01*
X0002140728Y0003424165D01*
X0002141683Y0003424023D01*
X0002142620Y0003423788D01*
X0002143530Y0003423463D01*
X0002144403Y0003423050D01*
X0002145232Y0003422553D01*
X0002146007Y0003421978D01*
X0002146723Y0003421329D01*
X0002147372Y0003420614D01*
X0002147947Y0003419838D01*
X0002148444Y0003419009D01*
X0002148857Y0003418136D01*
X0002149182Y0003417227D01*
X0002149417Y0003416290D01*
X0002149558Y0003415334D01*
X0002149606Y0003414370D01*
X0002149606Y0003357283D01*
X0002149558Y0003356318D01*
X0002149558Y0003356318D01*
G37*
D91*
X0002116141Y0003385826D03*
D92*
X0002017716Y0003385826D03*
X0001919291Y0003385826D03*
X0001820866Y0003385826D03*
G04 #@! TD*
D93*
G04 #@! TO.C,H2*
X0001751968Y0002795275D03*
G04 #@! TD*
G04 #@! TO.C,H1*
X0002185039Y0002795275D03*
G04 #@! TD*
D94*
G04 #@! TO.C,P1*
X0001893503Y0002424724D03*
D95*
X0001893503Y0002349724D03*
X0001968503Y0002424724D03*
X0001968503Y0002349724D03*
X0002043503Y0002424724D03*
X0002043503Y0002349724D03*
D96*
X0001718503Y0002314724D03*
X0002218503Y0002104724D03*
X0001718503Y0002104724D03*
X0002218503Y0002314724D03*
G04 #@! TD*
G04 next file*
G04 #@! TF.GenerationSoftware,KiCad,Pcbnew,(6.0.0-rc1-dev-1-g01c5bdfb8)*
G04 #@! TF.CreationDate,2019-01-03T14:47:18+01:00*
G04 #@! TF.ProjectId,nunchuk_breakout,6E756E6368756B5F627265616B6F7574,rev?*
G04 #@! TF.SameCoordinates,Original*
G04 #@! TF.FileFunction,Soldermask,Bot*
G04 #@! TF.FilePolarity,Negative*
G04 Gerber Fmt 4.6, Leading zero omitted, Abs format (unit mm)*
G04 Created by KiCad (PCBNEW (6.0.0-rc1-dev-1-g01c5bdfb8)) date Thu Jan  3 14:47:18 2019*
G01*
G04 APERTURE LIST*
G04 APERTURE END LIST*
D97*
X0002322834Y0000393700D02*
G75*
G02X0002244094Y0000314960I-0000078740D01*
G01*
X0001692913Y0000314960D02*
G75*
G02X0001614173Y0000393700J0000078740D01*
G01*
X0001614173Y0001771653D02*
G75*
G02X0001692913Y0001850393I0000078740D01*
G01*
X0002244094Y0001850393D02*
G75*
G02X0002322834Y0001771653J-0000078740D01*
G01*
X0001692913Y0000314960D02*
X0002244094Y0000314960D01*
X0001614173Y0001771653D02*
X0001614173Y0000393700D01*
X0002244094Y0001850393D02*
X0001692913Y0001850393D01*
X0002322834Y0000393700D02*
X0002322834Y0001771653D01*
G04 #@! TO.C,J1*
G36*
X0002149558Y0001663405D02*
X0002149417Y0001662449D01*
X0002149182Y0001661512D01*
X0002148857Y0001660603D01*
X0002148444Y0001659730D01*
X0002147947Y0001658901D01*
X0002147372Y0001658126D01*
X0002146723Y0001657410D01*
X0002146007Y0001656761D01*
X0002145232Y0001656186D01*
X0002144403Y0001655689D01*
X0002143530Y0001655276D01*
X0002142620Y0001654951D01*
X0002141683Y0001654716D01*
X0002140728Y0001654574D01*
X0002139763Y0001654527D01*
X0002092519Y0001654527D01*
X0002091554Y0001654574D01*
X0002090599Y0001654716D01*
X0002089662Y0001654951D01*
X0002088753Y0001655276D01*
X0002087879Y0001655689D01*
X0002087051Y0001656186D01*
X0002086275Y0001656761D01*
X0002085559Y0001657410D01*
X0002084911Y0001658126D01*
X0002084335Y0001658901D01*
X0002083839Y0001659730D01*
X0002083426Y0001660603D01*
X0002083100Y0001661512D01*
X0002082866Y0001662449D01*
X0002082724Y0001663405D01*
X0002082677Y0001664370D01*
X0002082677Y0001721456D01*
X0002082724Y0001722421D01*
X0002082866Y0001723376D01*
X0002083100Y0001724313D01*
X0002083426Y0001725223D01*
X0002083839Y0001726096D01*
X0002084335Y0001726924D01*
X0002084911Y0001727700D01*
X0002085559Y0001728416D01*
X0002086275Y0001729065D01*
X0002087051Y0001729640D01*
X0002087879Y0001730137D01*
X0002088753Y0001730549D01*
X0002089662Y0001730875D01*
X0002090599Y0001731110D01*
X0002091554Y0001731251D01*
X0002092519Y0001731299D01*
X0002139763Y0001731299D01*
X0002140728Y0001731251D01*
X0002141683Y0001731110D01*
X0002142620Y0001730875D01*
X0002143530Y0001730549D01*
X0002144403Y0001730137D01*
X0002145232Y0001729640D01*
X0002146007Y0001729065D01*
X0002146723Y0001728416D01*
X0002147372Y0001727700D01*
X0002147947Y0001726924D01*
X0002148444Y0001726096D01*
X0002148857Y0001725223D01*
X0002149182Y0001724313D01*
X0002149417Y0001723376D01*
X0002149558Y0001722421D01*
X0002149606Y0001721456D01*
X0002149606Y0001664370D01*
X0002149558Y0001663405D01*
X0002149558Y0001663405D01*
G37*
D98*
X0002116141Y0001692913D03*
D99*
X0002017716Y0001692913D03*
X0001919291Y0001692913D03*
X0001820866Y0001692913D03*
G04 #@! TD*
D100*
G04 #@! TO.C,H2*
X0001751968Y0001102362D03*
G04 #@! TD*
G04 #@! TO.C,H1*
X0002185039Y0001102362D03*
G04 #@! TD*
D101*
G04 #@! TO.C,P1*
X0001893503Y0000731810D03*
D102*
X0001893503Y0000656811D03*
X0001968503Y0000731810D03*
X0001968503Y0000656811D03*
X0002043503Y0000731810D03*
X0002043503Y0000656811D03*
D103*
X0001718503Y0000621810D03*
X0002218503Y0000411811D03*
X0001718503Y0000411811D03*
X0002218503Y0000621810D03*
G04 #@! TD*
M02*