%
M48
METRIC,000.000
T01C0.50
%
T01
X062089Y078051
X061295Y077459
X060832Y076584
X060789Y081594
X061177Y080681
X061923Y080027
X062877Y079758
X059250Y076469
X059250Y077469
X059250Y078469
X059250Y079469
X059250Y080469
X059250Y081469
X060789Y021594
X061177Y020681
X061923Y020027
X062877Y019758
X062089Y018051
X061295Y017459
X060832Y016584
X059250Y016469
X059250Y017469
X059250Y018469
X059250Y019469
X059250Y020469
X059250Y021469
X039195Y016465
X038783Y017366
X038023Y018003
X037967Y019971
X038743Y020586
X039181Y021475
X040750Y021592
X040750Y020592
X040750Y019592
X040750Y018592
X040750Y017592
X040750Y016592
X039195Y076465
X038783Y077366
X038023Y078003
X037967Y079971
X038743Y080586
X039181Y081475
X040750Y081592
X040750Y080592
X040750Y079592
X040750Y078592
X040750Y077592
X040750Y076592
X039195Y056465
X038783Y057366
X038023Y058003
X037967Y059971
X038743Y060586
X039181Y061475
X040750Y061592
X040750Y060592
X040750Y059592
X040750Y058592
X040750Y057592
X040750Y056592
X062089Y058051
X061295Y057459
X060832Y056584
X060789Y061594
X061177Y060681
X061923Y060027
X062877Y059758
X059250Y056469
X059250Y057469
X059250Y058469
X059250Y059469
X059250Y060469
X059250Y061469
X039195Y036465
X038783Y037366
X038023Y038003
X037967Y039971
X038743Y040586
X039181Y041475
X040750Y041592
X040750Y040592
X040750Y039592
X040750Y038592
X040750Y037592
X040750Y036592
X062089Y038051
X061295Y037459
X060832Y036584
X060789Y041594
X061177Y040681
X061923Y040027
X062877Y039758
X059250Y036469
X059250Y037469
X059250Y038469
X059250Y039469
X059250Y040469
X059250Y041469
X097061Y038250
X096061Y038250
X095061Y038250
X094061Y038250
X093061Y038250
X092061Y038250
X092877Y039750
X093877Y039750
X094877Y039750
X095877Y039750
X096877Y039750
X097877Y039750
X092877Y019750
X093877Y019750
X094877Y019750
X095877Y019750
X096877Y019750
X097877Y019750
X097061Y018250
X096061Y018250
X095061Y018250
X094061Y018250
X093061Y018250
X092061Y018250
X096061Y078250
X095061Y078250
X094061Y078250
X093061Y078250
X092061Y078250
X091061Y078250
X091877Y079750
X092877Y079750
X093877Y079750
X094877Y079750
X095877Y079750
X096877Y079750
X097061Y058250
X096061Y058250
X095061Y058250
X094061Y058250
X093061Y058250
X092061Y058250
X092877Y059750
X093877Y059750
X094877Y059750
X095877Y059750
X096877Y059750
X097877Y059750
X006061Y058250
X005061Y058250
X004061Y058250
X003061Y058250
X002061Y058250
X001877Y059758
X002877Y059750
X003877Y059750
X004877Y059750
X005877Y059750
X006877Y059750
X006061Y078250
X005061Y078250
X004061Y078250
X003061Y078250
X002061Y078250
X001877Y079758
X002877Y079750
X003877Y079750
X004877Y079750
X005877Y079750
X006877Y079750
X006061Y038250
X005061Y038250
X004061Y038250
X003061Y038250
X002061Y038250
X001877Y039758
X002877Y039750
X003877Y039750
X004877Y039750
X005877Y039750
X006877Y039750
X006061Y018250
X005061Y018250
X004061Y018250
X003061Y018250
X002061Y018250
X001877Y019758
X002877Y019750
X003877Y019750
X004877Y019750
X005877Y019750
X006877Y019750
X045877Y050750
X046877Y050750
X047877Y050750
X048877Y050750
X049877Y050750
X050877Y050750
X051877Y050750
X052877Y050750
X053877Y050750
X054061Y047250
X053061Y047250
X052061Y047250
X051061Y047250
X050061Y047250
X049061Y047250
X048061Y047250
X047061Y047250
X046061Y047250
M30