%
M48
METRIC,000.000
T01C0.40
T02C0.64
T03C0.95
T04C1.91
T10C4.30
%
T01
X006499Y010000
X010499Y015500
X010499Y007001
X023999Y013501
X023999Y004499
X067499Y030000
X071499Y035500
X071499Y027001
X084999Y033501
X084999Y024499
X067499Y050000
X071499Y055500
X071499Y047001
X084999Y053501
X084999Y044499
X006499Y030000
X010499Y035500
X010499Y027001
X023999Y033501
X023999Y024499
X006499Y050000
X010499Y055500
X010499Y047001
X023999Y053501
X023999Y044499
X067499Y010000
X071499Y015500
X071499Y007001
X084999Y013501
X084999Y004499
X006499Y070000
X010499Y075500
X010499Y067001
X023999Y073501
X023999Y064498
X067499Y070000
X071499Y075500
X071499Y067001
X084999Y073501
X084999Y064498
X006499Y090000
X010499Y095500
X010499Y087001
X023999Y093501
X023999Y084499
X067499Y090000
X071499Y095500
X071499Y087001
X084999Y093501
X084999Y084499
X051000Y083500
X056500Y079500
X048001Y079500
X054501Y066000
X045499Y066000
X051000Y040500
X056500Y036500
X048001Y036500
X054501Y023000
X045499Y023000
T02
X028411Y010905
X028411Y009000
X028411Y007095
X030316Y010905
X030316Y009000
X030316Y007095
X089411Y030905
X089411Y029000
X089411Y027095
X091316Y030905
X091316Y029000
X091316Y027095
X089411Y050905
X089411Y049000
X089411Y047095
X091316Y050905
X091316Y049000
X091316Y047095
X028411Y030905
X028411Y029000
X028411Y027095
X030316Y030905
X030316Y029000
X030316Y027095
X028411Y050905
X028411Y049000
X028411Y047095
X030316Y050905
X030316Y049000
X030316Y047095
X089411Y010905
X089411Y009000
X089411Y007095
X091316Y010905
X091316Y009000
X091316Y007095
X028411Y070905
X028411Y069000
X028411Y067095
X030316Y070905
X030316Y069000
X030316Y067095
X089411Y070905
X089411Y069000
X089411Y067095
X091316Y070905
X091316Y069000
X091316Y067095
X028411Y090905
X028411Y089000
X028411Y087095
X030316Y090905
X030316Y089000
X030316Y087095
X089411Y090905
X089411Y089000
X089411Y087095
X091316Y090905
X091316Y089000
X091316Y087095
X051905Y061588
X050000Y061588
X048095Y061588
X051905Y059683
X050000Y059683
X048095Y059683
X051905Y018588
X050000Y018588
X048095Y018588
X051905Y016683
X050000Y016683
X048095Y016683
T03
X003999Y012749
X003999Y010249
X003999Y007750
X003999Y005251
X064998Y032749
X064998Y030249
X064998Y027750
X064998Y025251
X064998Y052749
X064998Y050249
X064998Y047750
X064998Y045251
X003999Y032749
X003999Y030249
X003999Y027750
X003999Y025251
X003999Y052749
X003999Y050249
X003999Y047750
X003999Y045251
X064998Y012749
X064998Y010249
X064998Y007750
X064998Y005251
X003999Y072749
X003999Y070249
X003999Y067750
X003999Y065251
X064998Y072749
X064998Y070249
X064998Y067750
X064998Y065251
X003999Y092749
X003999Y090249
X003999Y087750
X003999Y085251
X064998Y092749
X064998Y090249
X064998Y087750
X064998Y085251
X053749Y086000
X051249Y086000
X048750Y086000
X046251Y086000
X053749Y043000
X051249Y043000
X048750Y043000
X046251Y043000
T04
X031205Y015350
X031205Y002650
X036539Y015350
X036539Y002650
X092205Y035350
X092205Y022650
X097539Y035350
X097539Y022650
X092205Y055350
X092205Y042650
X097539Y055350
X097539Y042650
X031205Y035350
X031205Y022650
X036539Y035350
X036539Y022650
X031205Y055350
X031205Y042650
X036539Y055350
X036539Y042650
X092205Y015350
X092205Y002650
X097539Y015350
X097539Y002650
X031205Y075350
X031205Y062650
X036539Y075350
X036539Y062650
X092205Y075350
X092205Y062650
X097539Y075350
X097539Y062650
X031205Y095350
X031205Y082650
X036539Y095350
X036539Y082650
X092205Y095350
X092205Y082650
X097539Y095350
X097539Y082650
X056350Y058794
X043650Y058794
X056350Y053460
X043650Y053460
X056350Y015794
X043650Y015794
X056350Y010460
X043650Y010460
T10
X019001Y014499
X019001Y003501
X080001Y034499
X080001Y023501
X080001Y054499
X080001Y043501
X019001Y034499
X019001Y023501
X019001Y054499
X019001Y043501
X080001Y014499
X080001Y003501
X019001Y074499
X019001Y063501
X080001Y074499
X080001Y063501
X019001Y094499
X019001Y083501
X080001Y094499
X080001Y083501
X055499Y070998
X044501Y070998
X055499Y027998
X044501Y027998
M30