%MOIN*%
%OFA0B0*%
%FSLAX44Y44*%
%IPPOS*%
%LPD*%
%ADD10C,0*%
D10*
X00016141Y00029988D02*
X00016141Y00029988D01*
X00016141Y00024341D01*
X00016141Y00024337D01*
X00016141Y00024333D01*
X00016141Y00024330D01*
X00016141Y00024326D01*
X00016141Y00024322D01*
X00016141Y00024318D01*
X00016140Y00024314D01*
X00016140Y00024310D01*
X00016140Y00024306D01*
X00016139Y00024302D01*
X00016139Y00024298D01*
X00016138Y00024294D01*
X00016138Y00024290D01*
X00016137Y00024286D01*
X00016137Y00024282D01*
X00016136Y00024278D01*
X00016136Y00024275D01*
X00016135Y00024271D01*
X00016134Y00024267D01*
X00016133Y00024263D01*
X00016127Y00024230D01*
X00016110Y00024173D01*
X00016086Y00024119D01*
X00016053Y00024069D01*
X00016014Y00024025D01*
X00015968Y00023987D01*
X00015917Y00023957D01*
X00015862Y00023934D01*
X00015804Y00023920D01*
X00015745Y00023915D01*
X00015686Y00023919D01*
X00015628Y00023931D01*
X00015573Y00023953D01*
X00015521Y00023982D01*
X00015474Y00024019D01*
X00015434Y00024062D01*
X00015400Y00024111D01*
X00015374Y00024165D01*
X00015357Y00024221D01*
X00015348Y00024280D01*
X00015348Y00024339D01*
X00015354Y00024409D01*
X00015354Y00029921D01*
X00015348Y00029990D01*
X00015348Y00030050D01*
X00015357Y00030108D01*
X00015374Y00030165D01*
X00015400Y00030219D01*
X00015434Y00030268D01*
X00015474Y00030311D01*
X00015521Y00030348D01*
X00015573Y00030377D01*
X00015628Y00030398D01*
X00015686Y00030411D01*
X00015745Y00030415D01*
X00015804Y00030410D01*
X00015862Y00030396D01*
X00015917Y00030373D01*
X00015968Y00030343D01*
X00016014Y00030305D01*
X00016053Y00030261D01*
X00016086Y00030211D01*
X00016110Y00030157D01*
X00016127Y00030100D01*
X00016133Y00030067D01*
X00016134Y00030063D01*
X00016135Y00030059D01*
X00016136Y00030055D01*
X00016136Y00030051D01*
X00016137Y00030047D01*
X00016137Y00030043D01*
X00016138Y00030040D01*
X00016138Y00030036D01*
X00016139Y00030032D01*
X00016139Y00030028D01*
X00016140Y00030024D01*
X00016140Y00030020D01*
X00016140Y00030016D01*
X00016141Y00030012D01*
X00016141Y00030008D01*
X00016141Y00030004D01*
X00016141Y00030000D01*
X00016141Y00029996D01*
X00016141Y00029992D01*
X00016141Y00029988D01*
X00024733Y00014955D02*
X00024733Y00014955D01*
X00024701Y00014953D01*
X00024668Y00014955D01*
X00024636Y00014959D01*
X00024604Y00014966D01*
X00024573Y00014975D01*
X00024543Y00014987D01*
X00024514Y00015001D01*
X00024486Y00015018D01*
X00024460Y00015037D01*
X00024435Y00015058D01*
X00024412Y00015081D01*
X00024391Y00015106D01*
X00024372Y00015132D01*
X00024356Y00015160D01*
X00024342Y00015189D01*
X00024330Y00015219D01*
X00024321Y00015250D01*
X00024314Y00015282D01*
X00024310Y00015314D01*
X00024309Y00015347D01*
X00024309Y00015360D01*
X00024310Y00015393D01*
X00024314Y00015425D01*
X00024320Y00015457D01*
X00024330Y00015488D01*
X00024341Y00015518D01*
X00024356Y00015547D01*
X00024372Y00015575D01*
X00024391Y00015602D01*
X00024412Y00015627D01*
X00024435Y00015650D01*
X00024460Y00015671D01*
X00024486Y00015690D01*
X00024514Y00015706D01*
X00024543Y00015721D01*
X00024573Y00015732D01*
X00024604Y00015742D01*
X00024636Y00015749D01*
X00024668Y00015753D01*
X00024701Y00015754D01*
X00024733Y00015753D01*
X00024803Y00015748D01*
X00036271Y00015748D01*
X00036271Y00015748D01*
X00036332Y00015743D01*
X00036392Y00015728D01*
X00036450Y00015705D01*
X00036502Y00015672D01*
X00036549Y00015632D01*
X00036589Y00015585D01*
X00036622Y00015533D01*
X00036645Y00015475D01*
X00036660Y00015415D01*
X00036665Y00015354D01*
X00036660Y00015292D01*
X00036645Y00015232D01*
X00036622Y00015175D01*
X00036589Y00015122D01*
X00036549Y00015075D01*
X00036502Y00015035D01*
X00036450Y00015003D01*
X00036392Y00014979D01*
X00036332Y00014965D01*
X00036271Y00014960D01*
X00024803Y00014960D01*
X00024733Y00014955D01*
X00014636Y00015753D02*
X00014636Y00015753D01*
X00014668Y00015754D01*
X00014701Y00015753D01*
X00014733Y00015749D01*
X00014765Y00015742D01*
X00014796Y00015732D01*
X00014826Y00015721D01*
X00014855Y00015706D01*
X00014883Y00015690D01*
X00014909Y00015671D01*
X00014934Y00015650D01*
X00014957Y00015627D01*
X00014978Y00015602D01*
X00014997Y00015575D01*
X00015013Y00015547D01*
X00015028Y00015518D01*
X00015039Y00015488D01*
X00015049Y00015457D01*
X00015055Y00015425D01*
X00015059Y00015393D01*
X00015061Y00015360D01*
X00015061Y00015347D01*
X00015059Y00015314D01*
X00015055Y00015282D01*
X00015048Y00015250D01*
X00015039Y00015219D01*
X00015027Y00015189D01*
X00015013Y00015160D01*
X00014997Y00015132D01*
X00014978Y00015106D01*
X00014957Y00015081D01*
X00014934Y00015058D01*
X00014909Y00015037D01*
X00014883Y00015018D01*
X00014855Y00015001D01*
X00014826Y00014987D01*
X00014796Y00014975D01*
X00014765Y00014966D01*
X00014733Y00014959D01*
X00014701Y00014955D01*
X00014668Y00014953D01*
X00014636Y00014955D01*
X00014566Y00014960D01*
X00002688Y00014960D01*
X00002626Y00014965D01*
X00002566Y00014979D01*
X00002509Y00015003D01*
X00002456Y00015035D01*
X00002409Y00015075D01*
X00002369Y00015122D01*
X00002337Y00015175D01*
X00002313Y00015232D01*
X00002299Y00015292D01*
X00002294Y00015354D01*
X00002299Y00015415D01*
X00002313Y00015475D01*
X00002337Y00015533D01*
X00002369Y00015585D01*
X00002409Y00015632D01*
X00002456Y00015672D01*
X00002509Y00015705D01*
X00002566Y00015728D01*
X00002626Y00015743D01*
X00002688Y00015748D01*
X00002688Y00015748D01*
X00014566Y00015748D01*
X00014636Y00015753D01*
X00024733Y00022829D02*
X00024733Y00022829D01*
X00024701Y00022827D01*
X00024668Y00022829D01*
X00024636Y00022833D01*
X00024604Y00022840D01*
X00024573Y00022849D01*
X00024543Y00022861D01*
X00024514Y00022875D01*
X00024486Y00022892D01*
X00024460Y00022911D01*
X00024435Y00022932D01*
X00024412Y00022955D01*
X00024391Y00022980D01*
X00024372Y00023006D01*
X00024356Y00023034D01*
X00024342Y00023063D01*
X00024330Y00023093D01*
X00024321Y00023125D01*
X00024314Y00023156D01*
X00024310Y00023188D01*
X00024309Y00023221D01*
X00024309Y00023234D01*
X00024310Y00023267D01*
X00024314Y00023299D01*
X00024320Y00023331D01*
X00024330Y00023362D01*
X00024341Y00023392D01*
X00024356Y00023421D01*
X00024372Y00023449D01*
X00024391Y00023476D01*
X00024412Y00023501D01*
X00024435Y00023524D01*
X00024460Y00023545D01*
X00024486Y00023564D01*
X00024514Y00023580D01*
X00024543Y00023595D01*
X00024573Y00023606D01*
X00024604Y00023616D01*
X00024636Y00023623D01*
X00024668Y00023627D01*
X00024701Y00023628D01*
X00024733Y00023627D01*
X00024803Y00023622D01*
X00036271Y00023622D01*
X00036271Y00023622D01*
X00036332Y00023617D01*
X00036392Y00023602D01*
X00036450Y00023579D01*
X00036502Y00023546D01*
X00036549Y00023506D01*
X00036589Y00023459D01*
X00036622Y00023407D01*
X00036645Y00023350D01*
X00036660Y00023289D01*
X00036665Y00023228D01*
X00036660Y00023166D01*
X00036645Y00023106D01*
X00036622Y00023049D01*
X00036589Y00022996D01*
X00036549Y00022949D01*
X00036502Y00022909D01*
X00036450Y00022877D01*
X00036392Y00022853D01*
X00036332Y00022839D01*
X00036271Y00022834D01*
X00024803Y00022834D01*
X00024733Y00022829D01*
X00023228Y00022114D02*
X00023228Y00022114D01*
X00023228Y00022118D01*
X00023228Y00022122D01*
X00023228Y00022126D01*
X00023228Y00022130D01*
X00023228Y00022134D01*
X00023229Y00022138D01*
X00023229Y00022142D01*
X00023229Y00022146D01*
X00023229Y00022150D01*
X00023230Y00022154D01*
X00023230Y00022158D01*
X00023231Y00022162D01*
X00023231Y00022166D01*
X00023232Y00022169D01*
X00023232Y00022173D01*
X00023233Y00022177D01*
X00023234Y00022181D01*
X00023234Y00022185D01*
X00023235Y00022189D01*
X00023236Y00022193D01*
X00023242Y00022226D01*
X00023259Y00022283D01*
X00023283Y00022337D01*
X00023316Y00022387D01*
X00023355Y00022431D01*
X00023401Y00022469D01*
X00023452Y00022499D01*
X00023507Y00022522D01*
X00023565Y00022536D01*
X00023624Y00022541D01*
X00023683Y00022537D01*
X00023741Y00022524D01*
X00023796Y00022503D01*
X00023848Y00022474D01*
X00023895Y00022437D01*
X00023935Y00022394D01*
X00023969Y00022345D01*
X00023995Y00022291D01*
X00024012Y00022234D01*
X00024021Y00022176D01*
X00024021Y00022116D01*
X00024015Y00022047D01*
X00024015Y00016535D01*
X00024021Y00016465D01*
X00024021Y00016406D01*
X00024012Y00016347D01*
X00023995Y00016291D01*
X00023969Y00016237D01*
X00023935Y00016188D01*
X00023895Y00016145D01*
X00023848Y00016108D01*
X00023796Y00016079D01*
X00023741Y00016057D01*
X00023683Y00016045D01*
X00023624Y00016041D01*
X00023565Y00016046D01*
X00023507Y00016060D01*
X00023452Y00016083D01*
X00023401Y00016113D01*
X00023355Y00016151D01*
X00023316Y00016195D01*
X00023283Y00016245D01*
X00023259Y00016299D01*
X00023242Y00016356D01*
X00023236Y00016389D01*
X00023235Y00016393D01*
X00023234Y00016397D01*
X00023234Y00016401D01*
X00023233Y00016404D01*
X00023232Y00016408D01*
X00023232Y00016412D01*
X00023231Y00016416D01*
X00023231Y00016420D01*
X00023230Y00016424D01*
X00023230Y00016428D01*
X00023229Y00016432D01*
X00023229Y00016436D01*
X00023229Y00016440D01*
X00023229Y00016444D01*
X00023228Y00016448D01*
X00023228Y00016452D01*
X00023228Y00016456D01*
X00023228Y00016459D01*
X00023228Y00016463D01*
X00023228Y00016467D01*
X00023228Y00017716D01*
X00023218Y00017839D01*
X00023189Y00017959D01*
X00023142Y00018074D01*
X00023077Y00018179D01*
X00022997Y00018273D01*
X00022903Y00018353D01*
X00022798Y00018418D01*
X00022684Y00018465D01*
X00022564Y00018494D01*
X00022440Y00018503D01*
X00021489Y00018503D01*
X00021458Y00018505D01*
X00021427Y00018508D01*
X00021397Y00018514D01*
X00021367Y00018523D01*
X00021338Y00018533D01*
X00021310Y00018546D01*
X00021283Y00018561D01*
X00021257Y00018579D01*
X00021233Y00018598D01*
X00021210Y00018619D01*
X00021189Y00018641D01*
X00021170Y00018666D01*
X00021153Y00018691D01*
X00021138Y00018718D01*
X00021125Y00018746D01*
X00021114Y00018775D01*
X00021106Y00018805D01*
X00021100Y00018836D01*
X00021096Y00018866D01*
X00021095Y00018897D01*
X00021095Y00019685D01*
X00021096Y00019715D01*
X00021100Y00019746D01*
X00021106Y00019776D01*
X00021114Y00019806D01*
X00021125Y00019835D01*
X00021138Y00019863D01*
X00021153Y00019890D01*
X00021170Y00019916D01*
X00021189Y00019940D01*
X00021210Y00019963D01*
X00021233Y00019984D01*
X00021257Y00020003D01*
X00021283Y00020020D01*
X00021310Y00020035D01*
X00021338Y00020048D01*
X00021367Y00020059D01*
X00021397Y00020067D01*
X00021427Y00020073D01*
X00021458Y00020077D01*
X00021489Y00020078D01*
X00022440Y00020078D01*
X00022564Y00020088D01*
X00022684Y00020117D01*
X00022798Y00020164D01*
X00022903Y00020229D01*
X00022997Y00020309D01*
X00023077Y00020403D01*
X00023142Y00020508D01*
X00023189Y00020622D01*
X00023218Y00020742D01*
X00023228Y00020866D01*
X00023228Y00022114D01*
X00015348Y00022116D02*
X00015348Y00022116D01*
X00015348Y00022176D01*
X00015357Y00022234D01*
X00015374Y00022291D01*
X00015400Y00022345D01*
X00015434Y00022394D01*
X00015474Y00022437D01*
X00015521Y00022474D01*
X00015573Y00022503D01*
X00015628Y00022524D01*
X00015686Y00022537D01*
X00015745Y00022541D01*
X00015804Y00022536D01*
X00015862Y00022522D01*
X00015917Y00022499D01*
X00015968Y00022469D01*
X00016014Y00022431D01*
X00016053Y00022387D01*
X00016086Y00022337D01*
X00016110Y00022283D01*
X00016127Y00022226D01*
X00016133Y00022193D01*
X00016134Y00022189D01*
X00016135Y00022185D01*
X00016136Y00022181D01*
X00016136Y00022177D01*
X00016137Y00022173D01*
X00016137Y00022169D01*
X00016138Y00022166D01*
X00016138Y00022162D01*
X00016139Y00022158D01*
X00016139Y00022154D01*
X00016140Y00022150D01*
X00016140Y00022146D01*
X00016140Y00022142D01*
X00016141Y00022138D01*
X00016141Y00022134D01*
X00016141Y00022130D01*
X00016141Y00022126D01*
X00016141Y00022122D01*
X00016141Y00022118D01*
X00016141Y00022114D01*
X00016141Y00020866D01*
X00016151Y00020742D01*
X00016180Y00020622D01*
X00016227Y00020508D01*
X00016292Y00020403D01*
X00016372Y00020309D01*
X00016466Y00020229D01*
X00016571Y00020164D01*
X00016685Y00020117D01*
X00016805Y00020088D01*
X00016929Y00020078D01*
X00017880Y00020078D01*
X00017911Y00020077D01*
X00017942Y00020073D01*
X00017972Y00020067D01*
X00018002Y00020059D01*
X00018031Y00020048D01*
X00018059Y00020035D01*
X00018086Y00020020D01*
X00018112Y00020003D01*
X00018136Y00019984D01*
X00018159Y00019963D01*
X00018180Y00019940D01*
X00018199Y00019916D01*
X00018216Y00019890D01*
X00018231Y00019863D01*
X00018244Y00019835D01*
X00018255Y00019806D01*
X00018263Y00019776D01*
X00018269Y00019746D01*
X00018273Y00019715D01*
X00018274Y00019685D01*
X00018274Y00018897D01*
X00018273Y00018866D01*
X00018269Y00018836D01*
X00018263Y00018805D01*
X00018255Y00018775D01*
X00018244Y00018746D01*
X00018231Y00018718D01*
X00018216Y00018691D01*
X00018199Y00018666D01*
X00018180Y00018641D01*
X00018159Y00018619D01*
X00018136Y00018598D01*
X00018112Y00018579D01*
X00018086Y00018561D01*
X00018059Y00018546D01*
X00018031Y00018533D01*
X00018002Y00018523D01*
X00017972Y00018514D01*
X00017942Y00018508D01*
X00017911Y00018505D01*
X00017880Y00018503D01*
X00016929Y00018503D01*
X00016805Y00018494D01*
X00016685Y00018465D01*
X00016571Y00018418D01*
X00016466Y00018353D01*
X00016372Y00018273D01*
X00016292Y00018179D01*
X00016227Y00018074D01*
X00016180Y00017959D01*
X00016151Y00017839D01*
X00016141Y00017716D01*
X00016141Y00016467D01*
X00016141Y00016463D01*
X00016141Y00016459D01*
X00016141Y00016456D01*
X00016141Y00016452D01*
X00016141Y00016448D01*
X00016141Y00016444D01*
X00016140Y00016440D01*
X00016140Y00016436D01*
X00016140Y00016432D01*
X00016139Y00016428D01*
X00016139Y00016424D01*
X00016138Y00016420D01*
X00016138Y00016416D01*
X00016137Y00016412D01*
X00016137Y00016408D01*
X00016136Y00016404D01*
X00016136Y00016401D01*
X00016135Y00016397D01*
X00016134Y00016393D01*
X00016133Y00016389D01*
X00016127Y00016356D01*
X00016110Y00016299D01*
X00016086Y00016245D01*
X00016053Y00016195D01*
X00016014Y00016151D01*
X00015968Y00016113D01*
X00015917Y00016083D01*
X00015862Y00016060D01*
X00015804Y00016046D01*
X00015745Y00016041D01*
X00015686Y00016045D01*
X00015628Y00016057D01*
X00015573Y00016079D01*
X00015521Y00016108D01*
X00015474Y00016145D01*
X00015434Y00016188D01*
X00015400Y00016237D01*
X00015374Y00016291D01*
X00015357Y00016347D01*
X00015348Y00016406D01*
X00015348Y00016465D01*
X00015354Y00016535D01*
X00015354Y00022047D01*
X00015348Y00022116D01*
X00014636Y00023627D02*
X00014636Y00023627D01*
X00014668Y00023628D01*
X00014701Y00023627D01*
X00014733Y00023623D01*
X00014765Y00023616D01*
X00014796Y00023606D01*
X00014826Y00023595D01*
X00014855Y00023580D01*
X00014883Y00023564D01*
X00014909Y00023545D01*
X00014934Y00023524D01*
X00014957Y00023501D01*
X00014978Y00023476D01*
X00014997Y00023449D01*
X00015013Y00023421D01*
X00015028Y00023392D01*
X00015039Y00023362D01*
X00015049Y00023331D01*
X00015055Y00023299D01*
X00015059Y00023267D01*
X00015061Y00023234D01*
X00015061Y00023221D01*
X00015059Y00023188D01*
X00015055Y00023156D01*
X00015048Y00023125D01*
X00015039Y00023093D01*
X00015027Y00023063D01*
X00015013Y00023034D01*
X00014997Y00023006D01*
X00014978Y00022980D01*
X00014957Y00022955D01*
X00014934Y00022932D01*
X00014909Y00022911D01*
X00014883Y00022892D01*
X00014855Y00022875D01*
X00014826Y00022861D01*
X00014796Y00022849D01*
X00014765Y00022840D01*
X00014733Y00022833D01*
X00014701Y00022829D01*
X00014668Y00022827D01*
X00014636Y00022829D01*
X00014566Y00022834D01*
X00002688Y00022834D01*
X00002626Y00022839D01*
X00002566Y00022853D01*
X00002509Y00022877D01*
X00002456Y00022909D01*
X00002409Y00022949D01*
X00002369Y00022996D01*
X00002337Y00023049D01*
X00002313Y00023106D01*
X00002299Y00023166D01*
X00002294Y00023228D01*
X00002299Y00023289D01*
X00002313Y00023350D01*
X00002337Y00023407D01*
X00002369Y00023459D01*
X00002409Y00023506D01*
X00002456Y00023546D01*
X00002509Y00023579D01*
X00002566Y00023602D01*
X00002626Y00023617D01*
X00002688Y00023622D01*
X00002688Y00023622D01*
X00014566Y00023622D01*
X00014636Y00023627D01*
X00014636Y00031501D02*
X00014636Y00031501D01*
X00014668Y00031502D01*
X00014701Y00031501D01*
X00014733Y00031497D01*
X00014765Y00031490D01*
X00014796Y00031480D01*
X00014826Y00031469D01*
X00014855Y00031454D01*
X00014883Y00031438D01*
X00014909Y00031419D01*
X00014934Y00031398D01*
X00014957Y00031375D01*
X00014978Y00031350D01*
X00014997Y00031323D01*
X00015013Y00031295D01*
X00015028Y00031266D01*
X00015039Y00031236D01*
X00015049Y00031205D01*
X00015055Y00031173D01*
X00015059Y00031141D01*
X00015061Y00031108D01*
X00015061Y00031095D01*
X00015059Y00031062D01*
X00015055Y00031030D01*
X00015048Y00030999D01*
X00015039Y00030967D01*
X00015027Y00030937D01*
X00015013Y00030908D01*
X00014997Y00030880D01*
X00014978Y00030854D01*
X00014957Y00030829D01*
X00014934Y00030806D01*
X00014909Y00030785D01*
X00014883Y00030766D01*
X00014855Y00030749D01*
X00014826Y00030735D01*
X00014796Y00030723D01*
X00014765Y00030714D01*
X00014733Y00030707D01*
X00014701Y00030703D01*
X00014668Y00030701D01*
X00014636Y00030703D01*
X00014566Y00030708D01*
X00002688Y00030708D01*
X00002626Y00030713D01*
X00002566Y00030727D01*
X00002509Y00030751D01*
X00002456Y00030783D01*
X00002409Y00030823D01*
X00002369Y00030870D01*
X00002337Y00030923D01*
X00002313Y00030980D01*
X00002299Y00031040D01*
X00002294Y00031102D01*
X00002299Y00031163D01*
X00002313Y00031224D01*
X00002337Y00031281D01*
X00002369Y00031333D01*
X00002409Y00031380D01*
X00002456Y00031420D01*
X00002509Y00031453D01*
X00002566Y00031476D01*
X00002626Y00031491D01*
X00002688Y00031496D01*
X00002688Y00031496D01*
X00014566Y00031496D01*
X00014636Y00031501D01*
X00014636Y00007879D02*
X00014636Y00007879D01*
X00014668Y00007880D01*
X00014701Y00007879D01*
X00014733Y00007875D01*
X00014765Y00007868D01*
X00014796Y00007858D01*
X00014826Y00007847D01*
X00014855Y00007832D01*
X00014883Y00007815D01*
X00014909Y00007797D01*
X00014934Y00007776D01*
X00014957Y00007752D01*
X00014978Y00007728D01*
X00014997Y00007701D01*
X00015013Y00007673D01*
X00015028Y00007644D01*
X00015039Y00007614D01*
X00015049Y00007583D01*
X00015055Y00007551D01*
X00015059Y00007519D01*
X00015061Y00007486D01*
X00015061Y00007473D01*
X00015059Y00007440D01*
X00015055Y00007408D01*
X00015048Y00007376D01*
X00015039Y00007345D01*
X00015027Y00007315D01*
X00015013Y00007286D01*
X00014997Y00007258D01*
X00014978Y00007232D01*
X00014957Y00007207D01*
X00014934Y00007184D01*
X00014909Y00007163D01*
X00014883Y00007144D01*
X00014855Y00007127D01*
X00014826Y00007113D01*
X00014796Y00007101D01*
X00014765Y00007092D01*
X00014733Y00007085D01*
X00014701Y00007081D01*
X00014668Y00007079D01*
X00014636Y00007081D01*
X00014566Y00007086D01*
X00002688Y00007086D01*
X00002626Y00007091D01*
X00002566Y00007105D01*
X00002509Y00007129D01*
X00002456Y00007161D01*
X00002409Y00007201D01*
X00002369Y00007248D01*
X00002337Y00007301D01*
X00002313Y00007358D01*
X00002299Y00007418D01*
X00002294Y00007480D01*
X00002299Y00007541D01*
X00002313Y00007601D01*
X00002337Y00007659D01*
X00002369Y00007711D01*
X00002409Y00007758D01*
X00002456Y00007798D01*
X00002509Y00007831D01*
X00002566Y00007854D01*
X00002626Y00007869D01*
X00002688Y00007874D01*
X00002688Y00007874D01*
X00014566Y00007874D01*
X00014636Y00007879D01*
X00016141Y00008593D02*
X00016141Y00008593D01*
X00016141Y00008589D01*
X00016141Y00008585D01*
X00016141Y00008582D01*
X00016141Y00008578D01*
X00016141Y00008574D01*
X00016141Y00008570D01*
X00016140Y00008566D01*
X00016140Y00008562D01*
X00016140Y00008558D01*
X00016139Y00008554D01*
X00016139Y00008550D01*
X00016138Y00008546D01*
X00016138Y00008542D01*
X00016137Y00008538D01*
X00016137Y00008534D01*
X00016136Y00008530D01*
X00016136Y00008527D01*
X00016135Y00008523D01*
X00016134Y00008519D01*
X00016133Y00008515D01*
X00016127Y00008482D01*
X00016110Y00008425D01*
X00016086Y00008371D01*
X00016053Y00008321D01*
X00016014Y00008277D01*
X00015968Y00008239D01*
X00015917Y00008208D01*
X00015862Y00008186D01*
X00015804Y00008172D01*
X00015745Y00008167D01*
X00015686Y00008171D01*
X00015628Y00008183D01*
X00015573Y00008205D01*
X00015521Y00008234D01*
X00015474Y00008271D01*
X00015434Y00008314D01*
X00015400Y00008363D01*
X00015374Y00008417D01*
X00015357Y00008473D01*
X00015348Y00008532D01*
X00015348Y00008591D01*
X00015354Y00008661D01*
X00015354Y00014173D01*
X00015348Y00014242D01*
X00015348Y00014302D01*
X00015357Y00014360D01*
X00015374Y00014417D01*
X00015400Y00014471D01*
X00015434Y00014520D01*
X00015474Y00014563D01*
X00015521Y00014600D01*
X00015573Y00014629D01*
X00015628Y00014650D01*
X00015686Y00014663D01*
X00015745Y00014667D01*
X00015804Y00014662D01*
X00015862Y00014648D01*
X00015917Y00014625D01*
X00015968Y00014595D01*
X00016014Y00014557D01*
X00016053Y00014513D01*
X00016086Y00014463D01*
X00016110Y00014409D01*
X00016127Y00014352D01*
X00016133Y00014319D01*
X00016134Y00014315D01*
X00016135Y00014311D01*
X00016136Y00014307D01*
X00016136Y00014303D01*
X00016137Y00014299D01*
X00016137Y00014295D01*
X00016138Y00014292D01*
X00016138Y00014288D01*
X00016139Y00014284D01*
X00016139Y00014280D01*
X00016140Y00014276D01*
X00016140Y00014272D01*
X00016140Y00014268D01*
X00016141Y00014264D01*
X00016141Y00014260D01*
X00016141Y00014256D01*
X00016141Y00014252D01*
X00016141Y00014248D01*
X00016141Y00014244D01*
X00016141Y00014240D01*
X00016141Y00008593D01*
X00024733Y00007081D02*
X00024733Y00007081D01*
X00024701Y00007079D01*
X00024668Y00007081D01*
X00024636Y00007085D01*
X00024604Y00007092D01*
X00024573Y00007101D01*
X00024543Y00007113D01*
X00024514Y00007127D01*
X00024486Y00007144D01*
X00024460Y00007163D01*
X00024435Y00007184D01*
X00024412Y00007207D01*
X00024391Y00007232D01*
X00024372Y00007258D01*
X00024356Y00007286D01*
X00024342Y00007315D01*
X00024330Y00007345D01*
X00024321Y00007376D01*
X00024314Y00007408D01*
X00024310Y00007440D01*
X00024309Y00007473D01*
X00024309Y00007486D01*
X00024310Y00007519D01*
X00024314Y00007551D01*
X00024320Y00007583D01*
X00024330Y00007614D01*
X00024341Y00007644D01*
X00024356Y00007673D01*
X00024372Y00007701D01*
X00024391Y00007728D01*
X00024412Y00007752D01*
X00024435Y00007776D01*
X00024460Y00007797D01*
X00024486Y00007815D01*
X00024514Y00007832D01*
X00024543Y00007847D01*
X00024573Y00007858D01*
X00024604Y00007868D01*
X00024636Y00007875D01*
X00024668Y00007879D01*
X00024701Y00007880D01*
X00024733Y00007879D01*
X00024803Y00007874D01*
X00036271Y00007874D01*
X00036271Y00007874D01*
X00036332Y00007869D01*
X00036392Y00007854D01*
X00036450Y00007831D01*
X00036502Y00007798D01*
X00036549Y00007758D01*
X00036589Y00007711D01*
X00036622Y00007659D01*
X00036645Y00007601D01*
X00036660Y00007541D01*
X00036665Y00007480D01*
X00036660Y00007418D01*
X00036645Y00007358D01*
X00036622Y00007301D01*
X00036589Y00007248D01*
X00036549Y00007201D01*
X00036502Y00007161D01*
X00036450Y00007129D01*
X00036392Y00007105D01*
X00036332Y00007091D01*
X00036271Y00007086D01*
X00024803Y00007086D01*
X00024733Y00007081D01*
X00024021Y00008591D02*
X00024021Y00008591D01*
X00024021Y00008532D01*
X00024012Y00008473D01*
X00023995Y00008417D01*
X00023969Y00008363D01*
X00023935Y00008314D01*
X00023895Y00008271D01*
X00023848Y00008234D01*
X00023796Y00008205D01*
X00023741Y00008183D01*
X00023683Y00008171D01*
X00023624Y00008167D01*
X00023565Y00008172D01*
X00023507Y00008186D01*
X00023452Y00008208D01*
X00023401Y00008239D01*
X00023355Y00008277D01*
X00023316Y00008321D01*
X00023283Y00008371D01*
X00023259Y00008425D01*
X00023242Y00008482D01*
X00023236Y00008515D01*
X00023235Y00008519D01*
X00023234Y00008523D01*
X00023234Y00008527D01*
X00023233Y00008530D01*
X00023232Y00008534D01*
X00023232Y00008538D01*
X00023231Y00008542D01*
X00023231Y00008546D01*
X00023230Y00008550D01*
X00023230Y00008554D01*
X00023229Y00008558D01*
X00023229Y00008562D01*
X00023229Y00008566D01*
X00023229Y00008570D01*
X00023228Y00008574D01*
X00023228Y00008578D01*
X00023228Y00008582D01*
X00023228Y00008585D01*
X00023228Y00008589D01*
X00023228Y00008593D01*
X00023228Y00014240D01*
X00023228Y00014244D01*
X00023228Y00014248D01*
X00023228Y00014252D01*
X00023228Y00014256D01*
X00023228Y00014260D01*
X00023229Y00014264D01*
X00023229Y00014268D01*
X00023229Y00014272D01*
X00023229Y00014276D01*
X00023230Y00014280D01*
X00023230Y00014284D01*
X00023231Y00014288D01*
X00023231Y00014292D01*
X00023232Y00014295D01*
X00023232Y00014299D01*
X00023233Y00014303D01*
X00023234Y00014307D01*
X00023234Y00014311D01*
X00023235Y00014315D01*
X00023236Y00014319D01*
X00023242Y00014352D01*
X00023259Y00014409D01*
X00023283Y00014463D01*
X00023316Y00014513D01*
X00023355Y00014557D01*
X00023401Y00014595D01*
X00023452Y00014625D01*
X00023507Y00014648D01*
X00023565Y00014662D01*
X00023624Y00014667D01*
X00023683Y00014663D01*
X00023741Y00014650D01*
X00023796Y00014629D01*
X00023848Y00014600D01*
X00023895Y00014563D01*
X00023935Y00014520D01*
X00023969Y00014471D01*
X00023995Y00014417D01*
X00024012Y00014360D01*
X00024021Y00014302D01*
X00024021Y00014242D01*
X00024015Y00014173D01*
X00024015Y00008661D01*
X00024021Y00008591D01*
X00024733Y00030703D02*
X00024733Y00030703D01*
X00024701Y00030701D01*
X00024668Y00030703D01*
X00024636Y00030707D01*
X00024604Y00030714D01*
X00024573Y00030723D01*
X00024543Y00030735D01*
X00024514Y00030749D01*
X00024486Y00030766D01*
X00024460Y00030785D01*
X00024435Y00030806D01*
X00024412Y00030829D01*
X00024391Y00030854D01*
X00024372Y00030880D01*
X00024356Y00030908D01*
X00024342Y00030937D01*
X00024330Y00030967D01*
X00024321Y00030999D01*
X00024314Y00031030D01*
X00024310Y00031062D01*
X00024309Y00031095D01*
X00024309Y00031108D01*
X00024310Y00031141D01*
X00024314Y00031173D01*
X00024320Y00031205D01*
X00024330Y00031236D01*
X00024341Y00031266D01*
X00024356Y00031295D01*
X00024372Y00031323D01*
X00024391Y00031350D01*
X00024412Y00031375D01*
X00024435Y00031398D01*
X00024460Y00031419D01*
X00024486Y00031438D01*
X00024514Y00031454D01*
X00024543Y00031469D01*
X00024573Y00031480D01*
X00024604Y00031490D01*
X00024636Y00031497D01*
X00024668Y00031501D01*
X00024701Y00031502D01*
X00024733Y00031501D01*
X00024803Y00031496D01*
X00035877Y00031496D01*
X00035877Y00031496D01*
X00035939Y00031491D01*
X00035999Y00031476D01*
X00036056Y00031453D01*
X00036109Y00031420D01*
X00036156Y00031380D01*
X00036196Y00031333D01*
X00036228Y00031281D01*
X00036252Y00031224D01*
X00036266Y00031163D01*
X00036271Y00031102D01*
X00036266Y00031040D01*
X00036252Y00030980D01*
X00036228Y00030923D01*
X00036196Y00030870D01*
X00036156Y00030823D01*
X00036109Y00030783D01*
X00036056Y00030751D01*
X00035999Y00030727D01*
X00035939Y00030713D01*
X00035877Y00030708D01*
X00024803Y00030708D01*
X00024733Y00030703D01*
X00023228Y00029988D02*
X00023228Y00029988D01*
X00023228Y00029992D01*
X00023228Y00029996D01*
X00023228Y00030000D01*
X00023228Y00030004D01*
X00023228Y00030008D01*
X00023229Y00030012D01*
X00023229Y00030016D01*
X00023229Y00030020D01*
X00023229Y00030024D01*
X00023230Y00030028D01*
X00023230Y00030032D01*
X00023231Y00030036D01*
X00023231Y00030040D01*
X00023232Y00030043D01*
X00023232Y00030047D01*
X00023233Y00030051D01*
X00023234Y00030055D01*
X00023234Y00030059D01*
X00023235Y00030063D01*
X00023236Y00030067D01*
X00023242Y00030100D01*
X00023259Y00030157D01*
X00023283Y00030211D01*
X00023316Y00030261D01*
X00023355Y00030305D01*
X00023401Y00030343D01*
X00023452Y00030373D01*
X00023507Y00030396D01*
X00023565Y00030410D01*
X00023624Y00030415D01*
X00023683Y00030411D01*
X00023741Y00030398D01*
X00023796Y00030377D01*
X00023848Y00030348D01*
X00023895Y00030311D01*
X00023935Y00030268D01*
X00023969Y00030219D01*
X00023995Y00030165D01*
X00024012Y00030108D01*
X00024021Y00030050D01*
X00024021Y00029990D01*
X00024015Y00029921D01*
X00024015Y00024409D01*
X00024021Y00024339D01*
X00024021Y00024280D01*
X00024012Y00024221D01*
X00023995Y00024165D01*
X00023969Y00024111D01*
X00023935Y00024062D01*
X00023895Y00024019D01*
X00023848Y00023982D01*
X00023796Y00023953D01*
X00023741Y00023931D01*
X00023683Y00023919D01*
X00023624Y00023915D01*
X00023565Y00023920D01*
X00023507Y00023934D01*
X00023452Y00023957D01*
X00023401Y00023987D01*
X00023355Y00024025D01*
X00023316Y00024069D01*
X00023283Y00024119D01*
X00023259Y00024173D01*
X00023242Y00024230D01*
X00023236Y00024263D01*
X00023235Y00024267D01*
X00023234Y00024271D01*
X00023234Y00024275D01*
X00023233Y00024278D01*
X00023232Y00024282D01*
X00023232Y00024286D01*
X00023231Y00024290D01*
X00023231Y00024294D01*
X00023230Y00024298D01*
X00023230Y00024302D01*
X00023229Y00024306D01*
X00023229Y00024310D01*
X00023229Y00024314D01*
X00023229Y00024318D01*
X00023228Y00024322D01*
X00023228Y00024326D01*
X00023228Y00024330D01*
X00023228Y00024333D01*
X00023228Y00024337D01*
X00023228Y00024341D01*
X00023228Y00029988D01*
X00024021Y00032213D02*
X00024021Y00032213D01*
X00024021Y00032154D01*
X00024012Y00032095D01*
X00023995Y00032039D01*
X00023969Y00031985D01*
X00023935Y00031936D01*
X00023895Y00031893D01*
X00023848Y00031856D01*
X00023796Y00031827D01*
X00023741Y00031805D01*
X00023683Y00031793D01*
X00023624Y00031789D01*
X00023565Y00031794D01*
X00023507Y00031808D01*
X00023452Y00031831D01*
X00023401Y00031861D01*
X00023355Y00031899D01*
X00023316Y00031943D01*
X00023283Y00031993D01*
X00023259Y00032047D01*
X00023242Y00032104D01*
X00023236Y00032137D01*
X00023235Y00032141D01*
X00023234Y00032145D01*
X00023234Y00032149D01*
X00023233Y00032152D01*
X00023232Y00032156D01*
X00023232Y00032160D01*
X00023231Y00032164D01*
X00023231Y00032168D01*
X00023230Y00032172D01*
X00023230Y00032176D01*
X00023229Y00032180D01*
X00023229Y00032184D01*
X00023229Y00032188D01*
X00023229Y00032192D01*
X00023228Y00032196D01*
X00023228Y00032200D01*
X00023228Y00032204D01*
X00023228Y00032208D01*
X00023228Y00032211D01*
X00023228Y00032215D01*
X00023228Y00034645D01*
X00023218Y00034768D01*
X00023189Y00034888D01*
X00023142Y00035003D01*
X00023077Y00035108D01*
X00022997Y00035202D01*
X00022903Y00035282D01*
X00022798Y00035347D01*
X00022684Y00035394D01*
X00022564Y00035423D01*
X00022440Y00035433D01*
X00016929Y00035433D01*
X00016805Y00035423D01*
X00016685Y00035394D01*
X00016571Y00035347D01*
X00016466Y00035282D01*
X00016372Y00035202D01*
X00016292Y00035108D01*
X00016227Y00035003D01*
X00016180Y00034888D01*
X00016151Y00034768D01*
X00016141Y00034645D01*
X00016141Y00032215D01*
X00016141Y00032211D01*
X00016141Y00032208D01*
X00016141Y00032204D01*
X00016141Y00032200D01*
X00016141Y00032196D01*
X00016141Y00032192D01*
X00016140Y00032188D01*
X00016140Y00032184D01*
X00016140Y00032180D01*
X00016139Y00032176D01*
X00016139Y00032172D01*
X00016138Y00032168D01*
X00016138Y00032164D01*
X00016137Y00032160D01*
X00016137Y00032156D01*
X00016136Y00032152D01*
X00016136Y00032149D01*
X00016135Y00032145D01*
X00016134Y00032141D01*
X00016133Y00032137D01*
X00016127Y00032104D01*
X00016110Y00032047D01*
X00016086Y00031993D01*
X00016053Y00031943D01*
X00016014Y00031899D01*
X00015968Y00031861D01*
X00015917Y00031831D01*
X00015862Y00031808D01*
X00015804Y00031794D01*
X00015745Y00031789D01*
X00015686Y00031793D01*
X00015628Y00031805D01*
X00015573Y00031827D01*
X00015521Y00031856D01*
X00015474Y00031893D01*
X00015434Y00031936D01*
X00015400Y00031985D01*
X00015374Y00032039D01*
X00015357Y00032095D01*
X00015348Y00032154D01*
X00015348Y00032213D01*
X00015354Y00032283D01*
X00015354Y00037795D01*
X00015344Y00037918D01*
X00015315Y00038038D01*
X00015268Y00038152D01*
X00015203Y00038258D01*
X00015123Y00038352D01*
X00015029Y00038432D01*
X00014924Y00038496D01*
X00014810Y00038544D01*
X00014690Y00038572D01*
X00014566Y00038582D01*
X00000787Y00038582D01*
X00000664Y00038572D01*
X00000544Y00038544D01*
X00000429Y00038496D01*
X00000324Y00038432D01*
X00000230Y00038352D01*
X00000150Y00038258D01*
X00000085Y00038152D01*
X00000038Y00038038D01*
X00000009Y00037918D01*
X00000000Y00037795D01*
X00000000Y00032283D01*
X00000009Y00032160D01*
X00000038Y00032040D01*
X00000085Y00031925D01*
X00000150Y00031820D01*
X00000230Y00031726D01*
X00000324Y00031646D01*
X00000429Y00031581D01*
X00000485Y00031558D01*
X00000485Y00031558D01*
X00000506Y00031549D01*
X00000527Y00031538D01*
X00000547Y00031526D01*
X00000566Y00031513D01*
X00000584Y00031499D01*
X00000602Y00031484D01*
X00000618Y00031468D01*
X00000634Y00031450D01*
X00000648Y00031432D01*
X00000662Y00031413D01*
X00000674Y00031394D01*
X00000685Y00031373D01*
X00000695Y00031352D01*
X00000704Y00031331D01*
X00000711Y00031309D01*
X00000717Y00031287D01*
X00000722Y00031264D01*
X00000725Y00031241D01*
X00000727Y00031218D01*
X00000728Y00031195D01*
X00000728Y00031009D01*
X00000727Y00030986D01*
X00000725Y00030963D01*
X00000722Y00030940D01*
X00000717Y00030917D01*
X00000711Y00030895D01*
X00000704Y00030873D01*
X00000695Y00030851D01*
X00000685Y00030830D01*
X00000674Y00030810D01*
X00000662Y00030790D01*
X00000648Y00030771D01*
X00000634Y00030753D01*
X00000618Y00030736D01*
X00000602Y00030720D01*
X00000584Y00030705D01*
X00000566Y00030691D01*
X00000547Y00030678D01*
X00000527Y00030666D01*
X00000506Y00030655D01*
X00000485Y00030645D01*
X00000485Y00030645D01*
X00000429Y00030622D01*
X00000324Y00030558D01*
X00000230Y00030478D01*
X00000150Y00030384D01*
X00000085Y00030278D01*
X00000038Y00030164D01*
X00000009Y00030044D01*
X00000000Y00029921D01*
X00000000Y00024409D01*
X00000009Y00024286D01*
X00000038Y00024166D01*
X00000085Y00024051D01*
X00000150Y00023946D01*
X00000230Y00023852D01*
X00000324Y00023772D01*
X00000429Y00023707D01*
X00000485Y00023684D01*
X00000485Y00023684D01*
X00000506Y00023675D01*
X00000527Y00023664D01*
X00000547Y00023652D01*
X00000566Y00023639D01*
X00000584Y00023625D01*
X00000602Y00023610D01*
X00000618Y00023593D01*
X00000634Y00023576D01*
X00000648Y00023558D01*
X00000662Y00023539D01*
X00000674Y00023520D01*
X00000685Y00023499D01*
X00000695Y00023478D01*
X00000704Y00023457D01*
X00000711Y00023435D01*
X00000717Y00023413D01*
X00000722Y00023390D01*
X00000725Y00023367D01*
X00000727Y00023344D01*
X00000728Y00023321D01*
X00000728Y00023135D01*
X00000727Y00023112D01*
X00000725Y00023089D01*
X00000722Y00023066D01*
X00000717Y00023043D01*
X00000711Y00023021D01*
X00000704Y00022999D01*
X00000695Y00022977D01*
X00000685Y00022956D01*
X00000674Y00022936D01*
X00000662Y00022916D01*
X00000648Y00022897D01*
X00000634Y00022879D01*
X00000618Y00022862D01*
X00000602Y00022846D01*
X00000584Y00022831D01*
X00000566Y00022817D01*
X00000547Y00022803D01*
X00000527Y00022792D01*
X00000506Y00022781D01*
X00000485Y00022771D01*
X00000485Y00022771D01*
X00000429Y00022748D01*
X00000324Y00022684D01*
X00000230Y00022604D01*
X00000150Y00022510D01*
X00000085Y00022404D01*
X00000038Y00022290D01*
X00000009Y00022170D01*
X00000000Y00022047D01*
X00000000Y00016535D01*
X00000009Y00016412D01*
X00000038Y00016292D01*
X00000085Y00016177D01*
X00000150Y00016072D01*
X00000230Y00015978D01*
X00000324Y00015898D01*
X00000429Y00015833D01*
X00000485Y00015810D01*
X00000485Y00015810D01*
X00000506Y00015801D01*
X00000527Y00015790D01*
X00000547Y00015778D01*
X00000566Y00015765D01*
X00000584Y00015751D01*
X00000602Y00015736D01*
X00000618Y00015719D01*
X00000634Y00015702D01*
X00000648Y00015684D01*
X00000662Y00015665D01*
X00000674Y00015646D01*
X00000685Y00015625D01*
X00000695Y00015604D01*
X00000704Y00015583D01*
X00000711Y00015561D01*
X00000717Y00015538D01*
X00000722Y00015516D01*
X00000725Y00015493D01*
X00000727Y00015470D01*
X00000728Y00015447D01*
X00000728Y00015261D01*
X00000727Y00015238D01*
X00000725Y00015215D01*
X00000722Y00015192D01*
X00000717Y00015169D01*
X00000711Y00015147D01*
X00000704Y00015125D01*
X00000695Y00015103D01*
X00000685Y00015082D01*
X00000674Y00015062D01*
X00000662Y00015042D01*
X00000648Y00015023D01*
X00000634Y00015005D01*
X00000618Y00014988D01*
X00000602Y00014972D01*
X00000584Y00014957D01*
X00000566Y00014943D01*
X00000547Y00014929D01*
X00000527Y00014918D01*
X00000506Y00014907D01*
X00000485Y00014897D01*
X00000485Y00014897D01*
X00000429Y00014874D01*
X00000324Y00014810D01*
X00000230Y00014730D01*
X00000150Y00014636D01*
X00000085Y00014530D01*
X00000038Y00014416D01*
X00000009Y00014296D01*
X00000000Y00014173D01*
X00000000Y00008661D01*
X00000009Y00008538D01*
X00000038Y00008418D01*
X00000085Y00008303D01*
X00000150Y00008198D01*
X00000230Y00008104D01*
X00000324Y00008024D01*
X00000429Y00007959D01*
X00000485Y00007936D01*
X00000485Y00007936D01*
X00000506Y00007927D01*
X00000527Y00007916D01*
X00000547Y00007904D01*
X00000566Y00007891D01*
X00000584Y00007877D01*
X00000602Y00007862D01*
X00000618Y00007845D01*
X00000634Y00007828D01*
X00000648Y00007810D01*
X00000662Y00007791D01*
X00000674Y00007772D01*
X00000685Y00007751D01*
X00000695Y00007730D01*
X00000704Y00007709D01*
X00000711Y00007687D01*
X00000717Y00007664D01*
X00000722Y00007642D01*
X00000725Y00007619D01*
X00000727Y00007596D01*
X00000728Y00007573D01*
X00000728Y00007387D01*
X00000727Y00007364D01*
X00000725Y00007341D01*
X00000722Y00007318D01*
X00000717Y00007295D01*
X00000711Y00007273D01*
X00000704Y00007251D01*
X00000695Y00007229D01*
X00000685Y00007208D01*
X00000674Y00007188D01*
X00000662Y00007168D01*
X00000648Y00007149D01*
X00000634Y00007131D01*
X00000618Y00007114D01*
X00000602Y00007098D01*
X00000584Y00007083D01*
X00000566Y00007069D01*
X00000547Y00007055D01*
X00000527Y00007044D01*
X00000506Y00007033D01*
X00000485Y00007023D01*
X00000485Y00007023D01*
X00000429Y00007000D01*
X00000324Y00006936D01*
X00000230Y00006855D01*
X00000150Y00006762D01*
X00000085Y00006656D01*
X00000038Y00006542D01*
X00000009Y00006422D01*
X00000000Y00006299D01*
X00000000Y00000787D01*
X00000009Y00000664D01*
X00000038Y00000544D01*
X00000085Y00000429D01*
X00000150Y00000324D01*
X00000230Y00000230D01*
X00000324Y00000150D01*
X00000429Y00000085D01*
X00000544Y00000038D01*
X00000664Y00000009D01*
X00000787Y00000000D01*
X00014566Y00000000D01*
X00014690Y00000009D01*
X00014810Y00000038D01*
X00014924Y00000085D01*
X00015029Y00000150D01*
X00015123Y00000230D01*
X00015203Y00000324D01*
X00015268Y00000429D01*
X00015315Y00000544D01*
X00015344Y00000664D01*
X00015354Y00000787D01*
X00015354Y00006299D01*
X00015348Y00006368D01*
X00015348Y00006428D01*
X00015357Y00006486D01*
X00015374Y00006543D01*
X00015400Y00006597D01*
X00015434Y00006646D01*
X00015474Y00006689D01*
X00015521Y00006726D01*
X00015573Y00006755D01*
X00015628Y00006776D01*
X00015686Y00006789D01*
X00015745Y00006793D01*
X00015804Y00006788D01*
X00015862Y00006774D01*
X00015917Y00006751D01*
X00015968Y00006721D01*
X00016014Y00006683D01*
X00016053Y00006639D01*
X00016086Y00006589D01*
X00016110Y00006535D01*
X00016127Y00006478D01*
X00016133Y00006445D01*
X00016134Y00006441D01*
X00016135Y00006437D01*
X00016136Y00006433D01*
X00016136Y00006429D01*
X00016137Y00006425D01*
X00016137Y00006421D01*
X00016138Y00006417D01*
X00016138Y00006414D01*
X00016139Y00006410D01*
X00016139Y00006406D01*
X00016140Y00006402D01*
X00016140Y00006398D01*
X00016140Y00006394D01*
X00016141Y00006390D01*
X00016141Y00006386D01*
X00016141Y00006382D01*
X00016141Y00006378D01*
X00016141Y00006374D01*
X00016141Y00006370D01*
X00016141Y00006366D01*
X00016141Y00003937D01*
X00016151Y00003813D01*
X00016180Y00003693D01*
X00016227Y00003579D01*
X00016292Y00003474D01*
X00016372Y00003380D01*
X00016466Y00003299D01*
X00016571Y00003235D01*
X00016685Y00003188D01*
X00016805Y00003159D01*
X00016929Y00003149D01*
X00022440Y00003149D01*
X00022564Y00003159D01*
X00022684Y00003188D01*
X00022798Y00003235D01*
X00022903Y00003299D01*
X00022997Y00003380D01*
X00023077Y00003474D01*
X00023142Y00003579D01*
X00023189Y00003693D01*
X00023218Y00003813D01*
X00023228Y00003937D01*
X00023228Y00006366D01*
X00023228Y00006370D01*
X00023228Y00006374D01*
X00023228Y00006378D01*
X00023228Y00006382D01*
X00023228Y00006386D01*
X00023229Y00006390D01*
X00023229Y00006394D01*
X00023229Y00006398D01*
X00023229Y00006402D01*
X00023230Y00006406D01*
X00023230Y00006410D01*
X00023231Y00006414D01*
X00023231Y00006417D01*
X00023232Y00006421D01*
X00023232Y00006425D01*
X00023233Y00006429D01*
X00023234Y00006433D01*
X00023234Y00006437D01*
X00023235Y00006441D01*
X00023236Y00006445D01*
X00023242Y00006478D01*
X00023259Y00006535D01*
X00023283Y00006589D01*
X00023316Y00006639D01*
X00023355Y00006683D01*
X00023401Y00006721D01*
X00023452Y00006751D01*
X00023507Y00006774D01*
X00023565Y00006788D01*
X00023624Y00006793D01*
X00023683Y00006789D01*
X00023741Y00006776D01*
X00023796Y00006755D01*
X00023848Y00006726D01*
X00023895Y00006689D01*
X00023935Y00006646D01*
X00023969Y00006597D01*
X00023995Y00006543D01*
X00024012Y00006486D01*
X00024021Y00006428D01*
X00024021Y00006368D01*
X00024015Y00006299D01*
X00024015Y00000787D01*
X00024025Y00000664D01*
X00024054Y00000544D01*
X00024101Y00000429D01*
X00024166Y00000324D01*
X00024246Y00000230D01*
X00024340Y00000150D01*
X00024445Y00000085D01*
X00024559Y00000038D01*
X00024679Y00000009D01*
X00024803Y00000000D01*
X00038582Y00000000D01*
X00038705Y00000009D01*
X00038825Y00000038D01*
X00038940Y00000085D01*
X00039045Y00000150D01*
X00039139Y00000230D01*
X00039219Y00000324D01*
X00039284Y00000429D01*
X00039331Y00000544D01*
X00039360Y00000664D01*
X00039370Y00000787D01*
X00039370Y00006299D01*
X00039360Y00006422D01*
X00039331Y00006542D01*
X00039284Y00006656D01*
X00039219Y00006762D01*
X00039139Y00006855D01*
X00039045Y00006936D01*
X00038940Y00007000D01*
X00038825Y00007048D01*
X00038705Y00007076D01*
X00038582Y00007086D01*
X00038531Y00007086D01*
X00038470Y00007091D01*
X00038410Y00007105D01*
X00038353Y00007129D01*
X00038300Y00007161D01*
X00038253Y00007201D01*
X00038213Y00007248D01*
X00038181Y00007301D01*
X00038157Y00007358D01*
X00038142Y00007418D01*
X00038138Y00007480D01*
X00038142Y00007541D01*
X00038157Y00007601D01*
X00038181Y00007659D01*
X00038213Y00007711D01*
X00038253Y00007758D01*
X00038300Y00007798D01*
X00038353Y00007831D01*
X00038410Y00007854D01*
X00038470Y00007869D01*
X00038531Y00007874D01*
X00038531Y00007874D01*
X00038582Y00007874D01*
X00038705Y00007883D01*
X00038825Y00007912D01*
X00038940Y00007959D01*
X00039045Y00008024D01*
X00039139Y00008104D01*
X00039219Y00008198D01*
X00039284Y00008303D01*
X00039331Y00008418D01*
X00039360Y00008538D01*
X00039370Y00008661D01*
X00039370Y00014173D01*
X00039360Y00014296D01*
X00039331Y00014416D01*
X00039284Y00014530D01*
X00039219Y00014636D01*
X00039139Y00014730D01*
X00039045Y00014810D01*
X00038940Y00014874D01*
X00038825Y00014922D01*
X00038705Y00014950D01*
X00038582Y00014960D01*
X00038531Y00014960D01*
X00038470Y00014965D01*
X00038410Y00014979D01*
X00038353Y00015003D01*
X00038300Y00015035D01*
X00038253Y00015075D01*
X00038213Y00015122D01*
X00038181Y00015175D01*
X00038157Y00015232D01*
X00038142Y00015292D01*
X00038138Y00015354D01*
X00038142Y00015415D01*
X00038157Y00015475D01*
X00038181Y00015533D01*
X00038213Y00015585D01*
X00038253Y00015632D01*
X00038300Y00015672D01*
X00038353Y00015705D01*
X00038410Y00015728D01*
X00038470Y00015743D01*
X00038531Y00015748D01*
X00038531Y00015748D01*
X00038582Y00015748D01*
X00038705Y00015757D01*
X00038825Y00015786D01*
X00038940Y00015833D01*
X00039045Y00015898D01*
X00039139Y00015978D01*
X00039219Y00016072D01*
X00039284Y00016177D01*
X00039331Y00016292D01*
X00039360Y00016412D01*
X00039370Y00016535D01*
X00039370Y00022047D01*
X00039360Y00022170D01*
X00039331Y00022290D01*
X00039284Y00022404D01*
X00039219Y00022510D01*
X00039139Y00022604D01*
X00039045Y00022684D01*
X00038940Y00022748D01*
X00038825Y00022796D01*
X00038705Y00022824D01*
X00038582Y00022834D01*
X00038531Y00022834D01*
X00038470Y00022839D01*
X00038410Y00022853D01*
X00038353Y00022877D01*
X00038300Y00022909D01*
X00038253Y00022949D01*
X00038213Y00022996D01*
X00038181Y00023049D01*
X00038157Y00023106D01*
X00038142Y00023166D01*
X00038138Y00023228D01*
X00038142Y00023289D01*
X00038157Y00023350D01*
X00038181Y00023407D01*
X00038213Y00023459D01*
X00038253Y00023506D01*
X00038300Y00023546D01*
X00038353Y00023579D01*
X00038410Y00023602D01*
X00038470Y00023617D01*
X00038531Y00023622D01*
X00038531Y00023622D01*
X00038582Y00023622D01*
X00038705Y00023631D01*
X00038825Y00023660D01*
X00038940Y00023707D01*
X00039045Y00023772D01*
X00039139Y00023852D01*
X00039219Y00023946D01*
X00039284Y00024051D01*
X00039331Y00024166D01*
X00039360Y00024286D01*
X00039370Y00024409D01*
X00039370Y00029921D01*
X00039360Y00030044D01*
X00039331Y00030164D01*
X00039284Y00030278D01*
X00039219Y00030384D01*
X00039139Y00030478D01*
X00039045Y00030558D01*
X00038940Y00030622D01*
X00038825Y00030670D01*
X00038705Y00030698D01*
X00038582Y00030708D01*
X00038138Y00030708D01*
X00038076Y00030713D01*
X00038016Y00030727D01*
X00037959Y00030751D01*
X00037906Y00030783D01*
X00037859Y00030823D01*
X00037819Y00030870D01*
X00037787Y00030923D01*
X00037763Y00030980D01*
X00037749Y00031040D01*
X00037744Y00031102D01*
X00037749Y00031163D01*
X00037763Y00031224D01*
X00037787Y00031281D01*
X00037819Y00031333D01*
X00037859Y00031380D01*
X00037906Y00031420D01*
X00037959Y00031453D01*
X00038016Y00031476D01*
X00038076Y00031491D01*
X00038138Y00031496D01*
X00038138Y00031496D01*
X00038582Y00031496D01*
X00038705Y00031505D01*
X00038825Y00031534D01*
X00038940Y00031581D01*
X00039045Y00031646D01*
X00039139Y00031726D01*
X00039219Y00031820D01*
X00039284Y00031925D01*
X00039331Y00032040D01*
X00039360Y00032160D01*
X00039370Y00032283D01*
X00039370Y00037795D01*
X00039360Y00037918D01*
X00039331Y00038038D01*
X00039284Y00038152D01*
X00039219Y00038258D01*
X00039139Y00038352D01*
X00039045Y00038432D01*
X00038940Y00038496D01*
X00038825Y00038544D01*
X00038705Y00038572D01*
X00038582Y00038582D01*
X00024803Y00038582D01*
X00024679Y00038572D01*
X00024559Y00038544D01*
X00024445Y00038496D01*
X00024340Y00038432D01*
X00024246Y00038352D01*
X00024166Y00038258D01*
X00024101Y00038152D01*
X00024054Y00038038D01*
X00024025Y00037918D01*
X00024015Y00037795D01*
X00024015Y00032283D01*
X00024021Y00032213D01*
M02*