G04 #@! TF.GenerationSoftware,KiCad,Pcbnew,(6.0.0-rc1-dev-1-g01c5bdfb8)*
G04 #@! TF.CreationDate,2019-01-02T15:25:24+01:00*
G04 #@! TF.ProjectId,nunchuk_breakout,6E756E6368756B5F627265616B6F7574,rev?*
G04 #@! TF.SameCoordinates,Original*
G04 #@! TF.FileFunction,Copper,L2,Bot,Signal*
G04 #@! TF.FilePolarity,Positive*
%FSLAX46Y46*%
G04 Gerber Fmt 4.6, Leading zero omitted, Abs format (unit mm)*
G04 Created by KiCad (PCBNEW (6.0.0-rc1-dev-1-g01c5bdfb8)) date Wed Jan  2 15:25:24 2019*
%MOMM*%
%LPD*%
G01*
G04 APERTURE LIST*
G04 #@! TA.AperFunction,NonConductor*
%ADD10C,0.100000*%
G04 #@! TD*
G04 #@! TA.AperFunction,Conductor*
%ADD11C,0.100000*%
G04 #@! TD*
G04 #@! TA.AperFunction,ComponentPad*
%ADD12C,1.700000*%
G04 #@! TD*
G04 #@! TA.AperFunction,ComponentPad*
%ADD13O,1.950000X1.700000*%
G04 #@! TD*
G04 #@! TA.AperFunction,ComponentPad*
%ADD14R,1.270000X1.270000*%
G04 #@! TD*
G04 #@! TA.AperFunction,ComponentPad*
%ADD15C,1.270000*%
G04 #@! TD*
G04 #@! TA.AperFunction,ComponentPad*
%ADD16C,3.048000*%
G04 #@! TD*
G04 #@! TA.AperFunction,ViaPad*
%ADD17C,0.800000*%
G04 #@! TD*
G04 #@! TA.AperFunction,Conductor*
%ADD18C,0.250000*%
G04 #@! TD*
G04 #@! TA.AperFunction,Conductor*
%ADD19C,0.200000*%
G04 #@! TD*
G04 APERTURE END LIST*
D10*
X133000000Y-91000000D02*
G75*
G02X135000000Y-93000000I0J-2000000D01*
G01*
X135000000Y-107000000D02*
G75*
G02X133000000Y-109000000I-2000000J0D01*
G01*
X98000000Y-109000000D02*
G75*
G02X96000000Y-107000000I0J2000000D01*
G01*
X96000000Y-93000000D02*
G75*
G02X98000000Y-91000000I2000000J0D01*
G01*
X135000000Y-107000000D02*
X135000000Y-93000000D01*
X98000000Y-109000000D02*
X133000000Y-109000000D01*
X96000000Y-93000000D02*
X96000000Y-107000000D01*
X133000000Y-91000000D02*
X98000000Y-91000000D01*
D11*
G04 #@! TO.N,VDD*
G04 #@! TO.C,J2*
G36*
X100749504Y-95401204D02*
X100773773Y-95404804D01*
X100797571Y-95410765D01*
X100820671Y-95419030D01*
X100842849Y-95429520D01*
X100863893Y-95442133D01*
X100883598Y-95456747D01*
X100901777Y-95473223D01*
X100918253Y-95491402D01*
X100932867Y-95511107D01*
X100945480Y-95532151D01*
X100955970Y-95554329D01*
X100964235Y-95577429D01*
X100970196Y-95601227D01*
X100973796Y-95625496D01*
X100975000Y-95650000D01*
X100975000Y-96850000D01*
X100973796Y-96874504D01*
X100970196Y-96898773D01*
X100964235Y-96922571D01*
X100955970Y-96945671D01*
X100945480Y-96967849D01*
X100932867Y-96988893D01*
X100918253Y-97008598D01*
X100901777Y-97026777D01*
X100883598Y-97043253D01*
X100863893Y-97057867D01*
X100842849Y-97070480D01*
X100820671Y-97080970D01*
X100797571Y-97089235D01*
X100773773Y-97095196D01*
X100749504Y-97098796D01*
X100725000Y-97100000D01*
X99275000Y-97100000D01*
X99250496Y-97098796D01*
X99226227Y-97095196D01*
X99202429Y-97089235D01*
X99179329Y-97080970D01*
X99157151Y-97070480D01*
X99136107Y-97057867D01*
X99116402Y-97043253D01*
X99098223Y-97026777D01*
X99081747Y-97008598D01*
X99067133Y-96988893D01*
X99054520Y-96967849D01*
X99044030Y-96945671D01*
X99035765Y-96922571D01*
X99029804Y-96898773D01*
X99026204Y-96874504D01*
X99025000Y-96850000D01*
X99025000Y-95650000D01*
X99026204Y-95625496D01*
X99029804Y-95601227D01*
X99035765Y-95577429D01*
X99044030Y-95554329D01*
X99054520Y-95532151D01*
X99067133Y-95511107D01*
X99081747Y-95491402D01*
X99098223Y-95473223D01*
X99116402Y-95456747D01*
X99136107Y-95442133D01*
X99157151Y-95429520D01*
X99179329Y-95419030D01*
X99202429Y-95410765D01*
X99226227Y-95404804D01*
X99250496Y-95401204D01*
X99275000Y-95400000D01*
X100725000Y-95400000D01*
X100749504Y-95401204D01*
X100749504Y-95401204D01*
G37*
D12*
G04 #@! TD*
G04 #@! TO.P,J2,1*
G04 #@! TO.N,VDD*
X100000000Y-96250000D03*
D13*
G04 #@! TO.P,J2,2*
G04 #@! TO.N,SCL*
X100000000Y-98750000D03*
G04 #@! TO.P,J2,3*
G04 #@! TO.N,SDA*
X100000000Y-101250000D03*
G04 #@! TO.P,J2,4*
G04 #@! TO.N,GND*
X100000000Y-103750000D03*
G04 #@! TD*
D14*
G04 #@! TO.P,P1,1*
G04 #@! TO.N,VCC*
X124412000Y-101905000D03*
D15*
G04 #@! TO.P,P1,2*
G04 #@! TO.N,SCL*
X126317000Y-101905000D03*
G04 #@! TO.P,P1,3*
G04 #@! TO.N,Net-(P1-Pad3)*
X124412000Y-100000000D03*
G04 #@! TO.P,P1,4*
G04 #@! TO.N,Net-(P1-Pad4)*
X126317000Y-100000000D03*
G04 #@! TO.P,P1,5*
G04 #@! TO.N,SDA*
X124412000Y-98095000D03*
G04 #@! TO.P,P1,6*
G04 #@! TO.N,GND*
X126317000Y-98095000D03*
D16*
G04 #@! TO.P,P1,*
G04 #@! TO.N,*
X127206000Y-106350000D03*
X132540000Y-93650000D03*
X132540000Y-106350000D03*
X127206000Y-93650000D03*
G04 #@! TD*
D17*
G04 #@! TO.N,SDA*
X102500000Y-99000000D03*
G04 #@! TO.N,GND*
X106500000Y-95000000D03*
X106500000Y-93000000D03*
X106500000Y-102000000D03*
X120000000Y-104500000D03*
X120000000Y-95500000D03*
G04 #@! TD*
D18*
G04 #@! TO.N,SDA*
X123507000Y-99000000D02*
X124412000Y-98095000D01*
X102500000Y-99000000D02*
X123507000Y-99000000D01*
G04 #@! TO.N,SCL*
X100125000Y-98750000D02*
X104240001Y-102865001D01*
X125356999Y-102865001D02*
X125682001Y-102539999D01*
X100000000Y-98750000D02*
X100125000Y-98750000D01*
X125682001Y-102539999D02*
X126317000Y-101905000D01*
X104240001Y-102865001D02*
X125356999Y-102865001D01*
G04 #@! TD*
D19*
G04 #@! TO.N,GND*
G36*
X133320162Y-91383071D02*
X133628130Y-91476052D01*
X133912169Y-91627079D01*
X134161464Y-91830400D01*
X134366521Y-92078271D01*
X134519527Y-92361250D01*
X134614654Y-92668560D01*
X134650001Y-93004859D01*
X134650000Y-106982878D01*
X134616929Y-107320164D01*
X134523949Y-107628126D01*
X134372924Y-107912164D01*
X134169602Y-108161462D01*
X133921729Y-108366521D01*
X133638750Y-108519527D01*
X133331445Y-108614654D01*
X132995151Y-108650000D01*
X98017122Y-108650000D01*
X97679836Y-108616929D01*
X97371874Y-108523949D01*
X97087836Y-108372924D01*
X96838538Y-108169602D01*
X96633479Y-107921729D01*
X96480473Y-107638750D01*
X96385346Y-107331445D01*
X96350000Y-106995151D01*
X96350000Y-104219977D01*
X98825418Y-104219977D01*
X98860415Y-104270828D01*
X98981518Y-104458756D01*
X99136957Y-104619447D01*
X99320759Y-104746726D01*
X99525860Y-104835701D01*
X99700000Y-104801952D01*
X99700000Y-104050000D01*
X100300000Y-104050000D01*
X100300000Y-104801952D01*
X100474140Y-104835701D01*
X100679241Y-104746726D01*
X100863043Y-104619447D01*
X101018482Y-104458756D01*
X101139585Y-104270828D01*
X101174582Y-104219977D01*
X101157291Y-104050000D01*
X100300000Y-104050000D01*
X99700000Y-104050000D01*
X98842709Y-104050000D01*
X98825418Y-104219977D01*
X96350000Y-104219977D01*
X96350000Y-103280023D01*
X98825418Y-103280023D01*
X98842709Y-103450000D01*
X99700000Y-103450000D01*
X99700000Y-102698048D01*
X100300000Y-102698048D01*
X100300000Y-103450000D01*
X101157291Y-103450000D01*
X101174582Y-103280023D01*
X101139585Y-103229172D01*
X101018482Y-103041244D01*
X100863043Y-102880553D01*
X100679241Y-102753274D01*
X100474140Y-102664299D01*
X100300000Y-102698048D01*
X99700000Y-102698048D01*
X99525860Y-102664299D01*
X99320759Y-102753274D01*
X99136957Y-102880553D01*
X98981518Y-103041244D01*
X98860415Y-103229172D01*
X98825418Y-103280023D01*
X96350000Y-103280023D01*
X96350000Y-101250000D01*
X98719436Y-101250000D01*
X98741640Y-101475439D01*
X98807398Y-101692215D01*
X98914184Y-101891997D01*
X99057893Y-102067107D01*
X99233003Y-102210816D01*
X99432785Y-102317602D01*
X99649561Y-102383360D01*
X99818508Y-102400000D01*
X100181492Y-102400000D01*
X100350439Y-102383360D01*
X100567215Y-102317602D01*
X100766997Y-102210816D01*
X100942107Y-102067107D01*
X101085816Y-101891997D01*
X101192602Y-101692215D01*
X101258360Y-101475439D01*
X101280564Y-101250000D01*
X101258360Y-101024561D01*
X101192602Y-100807785D01*
X101085816Y-100608003D01*
X100942107Y-100432893D01*
X100766997Y-100289184D01*
X100567215Y-100182398D01*
X100350439Y-100116640D01*
X100181492Y-100100000D01*
X99818508Y-100100000D01*
X99649561Y-100116640D01*
X99432785Y-100182398D01*
X99233003Y-100289184D01*
X99057893Y-100432893D01*
X98914184Y-100608003D01*
X98807398Y-100807785D01*
X98741640Y-101024561D01*
X98719436Y-101250000D01*
X96350000Y-101250000D01*
X96350000Y-98750000D01*
X98719436Y-98750000D01*
X98741640Y-98975439D01*
X98807398Y-99192215D01*
X98914184Y-99391997D01*
X99057893Y-99567107D01*
X99233003Y-99710816D01*
X99432785Y-99817602D01*
X99649561Y-99883360D01*
X99818508Y-99900000D01*
X100181492Y-99900000D01*
X100350439Y-99883360D01*
X100567215Y-99817602D01*
X100583081Y-99809121D01*
X103924722Y-103150763D01*
X103938027Y-103166975D01*
X104002741Y-103220085D01*
X104076574Y-103259549D01*
X104132384Y-103276479D01*
X104156686Y-103283851D01*
X104165099Y-103284680D01*
X104219127Y-103290001D01*
X104219133Y-103290001D01*
X104240000Y-103292056D01*
X104260867Y-103290001D01*
X113933251Y-103290001D01*
X113839490Y-103328838D01*
X113438216Y-103596960D01*
X113096960Y-103938216D01*
X112828838Y-104339490D01*
X112644152Y-104785361D01*
X112550000Y-105258696D01*
X112550000Y-105741304D01*
X112644152Y-106214639D01*
X112828838Y-106660510D01*
X113096960Y-107061784D01*
X113438216Y-107403040D01*
X113839490Y-107671162D01*
X114285361Y-107855848D01*
X114758696Y-107950000D01*
X115241304Y-107950000D01*
X115714639Y-107855848D01*
X116160510Y-107671162D01*
X116561784Y-107403040D01*
X116903040Y-107061784D01*
X117171162Y-106660510D01*
X117355848Y-106214639D01*
X117364657Y-106170352D01*
X125382000Y-106170352D01*
X125382000Y-106529648D01*
X125452095Y-106882041D01*
X125589592Y-107213988D01*
X125789206Y-107512733D01*
X126043267Y-107766794D01*
X126342012Y-107966408D01*
X126673959Y-108103905D01*
X127026352Y-108174000D01*
X127385648Y-108174000D01*
X127738041Y-108103905D01*
X128069988Y-107966408D01*
X128368733Y-107766794D01*
X128622794Y-107512733D01*
X128822408Y-107213988D01*
X128959905Y-106882041D01*
X129030000Y-106529648D01*
X129030000Y-106170352D01*
X130716000Y-106170352D01*
X130716000Y-106529648D01*
X130786095Y-106882041D01*
X130923592Y-107213988D01*
X131123206Y-107512733D01*
X131377267Y-107766794D01*
X131676012Y-107966408D01*
X132007959Y-108103905D01*
X132360352Y-108174000D01*
X132719648Y-108174000D01*
X133072041Y-108103905D01*
X133403988Y-107966408D01*
X133702733Y-107766794D01*
X133956794Y-107512733D01*
X134156408Y-107213988D01*
X134293905Y-106882041D01*
X134364000Y-106529648D01*
X134364000Y-106170352D01*
X134293905Y-105817959D01*
X134156408Y-105486012D01*
X133956794Y-105187267D01*
X133702733Y-104933206D01*
X133403988Y-104733592D01*
X133072041Y-104596095D01*
X132719648Y-104526000D01*
X132360352Y-104526000D01*
X132007959Y-104596095D01*
X131676012Y-104733592D01*
X131377267Y-104933206D01*
X131123206Y-105187267D01*
X130923592Y-105486012D01*
X130786095Y-105817959D01*
X130716000Y-106170352D01*
X129030000Y-106170352D01*
X128959905Y-105817959D01*
X128822408Y-105486012D01*
X128622794Y-105187267D01*
X128368733Y-104933206D01*
X128069988Y-104733592D01*
X127738041Y-104596095D01*
X127385648Y-104526000D01*
X127026352Y-104526000D01*
X126673959Y-104596095D01*
X126342012Y-104733592D01*
X126043267Y-104933206D01*
X125789206Y-105187267D01*
X125589592Y-105486012D01*
X125452095Y-105817959D01*
X125382000Y-106170352D01*
X117364657Y-106170352D01*
X117450000Y-105741304D01*
X117450000Y-105258696D01*
X117355848Y-104785361D01*
X117171162Y-104339490D01*
X116903040Y-103938216D01*
X116561784Y-103596960D01*
X116160510Y-103328838D01*
X116066749Y-103290001D01*
X125336132Y-103290001D01*
X125356999Y-103292056D01*
X125377866Y-103290001D01*
X125377873Y-103290001D01*
X125440313Y-103283851D01*
X125520426Y-103259549D01*
X125594259Y-103220085D01*
X125658973Y-103166975D01*
X125672282Y-103150758D01*
X125997281Y-102825760D01*
X125997285Y-102825755D01*
X126026382Y-102796658D01*
X126044271Y-102804068D01*
X126224911Y-102840000D01*
X126409089Y-102840000D01*
X126589729Y-102804068D01*
X126759889Y-102733586D01*
X126913028Y-102631262D01*
X127043262Y-102501028D01*
X127145586Y-102347889D01*
X127216068Y-102177729D01*
X127252000Y-101997089D01*
X127252000Y-101812911D01*
X127216068Y-101632271D01*
X127145586Y-101462111D01*
X127043262Y-101308972D01*
X126913028Y-101178738D01*
X126759889Y-101076414D01*
X126589729Y-101005932D01*
X126409089Y-100970000D01*
X126224911Y-100970000D01*
X126044271Y-101005932D01*
X125874111Y-101076414D01*
X125720972Y-101178738D01*
X125590738Y-101308972D01*
X125488414Y-101462111D01*
X125417932Y-101632271D01*
X125382000Y-101812911D01*
X125382000Y-101997089D01*
X125417932Y-102177729D01*
X125425342Y-102195618D01*
X125396245Y-102224715D01*
X125396240Y-102224719D01*
X125348451Y-102272508D01*
X125348451Y-101270000D01*
X125342659Y-101211190D01*
X125325504Y-101154640D01*
X125297647Y-101102523D01*
X125260158Y-101056842D01*
X125214477Y-101019353D01*
X125162360Y-100991496D01*
X125105810Y-100974341D01*
X125047000Y-100968549D01*
X123777000Y-100968549D01*
X123718190Y-100974341D01*
X123661640Y-100991496D01*
X123609523Y-101019353D01*
X123563842Y-101056842D01*
X123526353Y-101102523D01*
X123498496Y-101154640D01*
X123481341Y-101211190D01*
X123475549Y-101270000D01*
X123475549Y-102440001D01*
X104416042Y-102440001D01*
X101184121Y-99208081D01*
X101192602Y-99192215D01*
X101258360Y-98975439D01*
X101262731Y-98931056D01*
X101800000Y-98931056D01*
X101800000Y-99068944D01*
X101826901Y-99204182D01*
X101879668Y-99331574D01*
X101956274Y-99446224D01*
X102053776Y-99543726D01*
X102168426Y-99620332D01*
X102295818Y-99673099D01*
X102431056Y-99700000D01*
X102568944Y-99700000D01*
X102704182Y-99673099D01*
X102831574Y-99620332D01*
X102946224Y-99543726D01*
X103043726Y-99446224D01*
X103057907Y-99425000D01*
X123486133Y-99425000D01*
X123507000Y-99427055D01*
X123527867Y-99425000D01*
X123527874Y-99425000D01*
X123590314Y-99418850D01*
X123670427Y-99394548D01*
X123723564Y-99366146D01*
X123685738Y-99403972D01*
X123583414Y-99557111D01*
X123512932Y-99727271D01*
X123477000Y-99907911D01*
X123477000Y-100092089D01*
X123512932Y-100272729D01*
X123583414Y-100442889D01*
X123685738Y-100596028D01*
X123815972Y-100726262D01*
X123969111Y-100828586D01*
X124139271Y-100899068D01*
X124319911Y-100935000D01*
X124504089Y-100935000D01*
X124684729Y-100899068D01*
X124854889Y-100828586D01*
X125008028Y-100726262D01*
X125138262Y-100596028D01*
X125240586Y-100442889D01*
X125311068Y-100272729D01*
X125347000Y-100092089D01*
X125347000Y-99907911D01*
X125382000Y-99907911D01*
X125382000Y-100092089D01*
X125417932Y-100272729D01*
X125488414Y-100442889D01*
X125590738Y-100596028D01*
X125720972Y-100726262D01*
X125874111Y-100828586D01*
X126044271Y-100899068D01*
X126224911Y-100935000D01*
X126409089Y-100935000D01*
X126589729Y-100899068D01*
X126759889Y-100828586D01*
X126913028Y-100726262D01*
X127043262Y-100596028D01*
X127145586Y-100442889D01*
X127216068Y-100272729D01*
X127252000Y-100092089D01*
X127252000Y-99907911D01*
X127216068Y-99727271D01*
X127145586Y-99557111D01*
X127043262Y-99403972D01*
X126913028Y-99273738D01*
X126759889Y-99171414D01*
X126589729Y-99100932D01*
X126409089Y-99065000D01*
X126224911Y-99065000D01*
X126044271Y-99100932D01*
X125874111Y-99171414D01*
X125720972Y-99273738D01*
X125590738Y-99403972D01*
X125488414Y-99557111D01*
X125417932Y-99727271D01*
X125382000Y-99907911D01*
X125347000Y-99907911D01*
X125311068Y-99727271D01*
X125240586Y-99557111D01*
X125138262Y-99403972D01*
X125008028Y-99273738D01*
X124854889Y-99171414D01*
X124684729Y-99100932D01*
X124504089Y-99065000D01*
X124319911Y-99065000D01*
X124139271Y-99100932D01*
X123969111Y-99171414D01*
X123871213Y-99236827D01*
X124121382Y-98986658D01*
X124139271Y-98994068D01*
X124319911Y-99030000D01*
X124504089Y-99030000D01*
X124684729Y-98994068D01*
X124854889Y-98923586D01*
X124919437Y-98880456D01*
X125955808Y-98880456D01*
X126036376Y-98991635D01*
X126216693Y-99029154D01*
X126400865Y-99030773D01*
X126581814Y-98996431D01*
X126597624Y-98991635D01*
X126678192Y-98880456D01*
X126317000Y-98519264D01*
X125955808Y-98880456D01*
X124919437Y-98880456D01*
X125008028Y-98821262D01*
X125138262Y-98691028D01*
X125240586Y-98537889D01*
X125311068Y-98367729D01*
X125347000Y-98187089D01*
X125347000Y-98178865D01*
X125381227Y-98178865D01*
X125415569Y-98359814D01*
X125420365Y-98375624D01*
X125531544Y-98456192D01*
X125892736Y-98095000D01*
X126741264Y-98095000D01*
X127102456Y-98456192D01*
X127213635Y-98375624D01*
X127251154Y-98195307D01*
X127252773Y-98011135D01*
X127218431Y-97830186D01*
X127213635Y-97814376D01*
X127102456Y-97733808D01*
X126741264Y-98095000D01*
X125892736Y-98095000D01*
X125531544Y-97733808D01*
X125420365Y-97814376D01*
X125382846Y-97994693D01*
X125381227Y-98178865D01*
X125347000Y-98178865D01*
X125347000Y-98002911D01*
X125311068Y-97822271D01*
X125240586Y-97652111D01*
X125138262Y-97498972D01*
X125008028Y-97368738D01*
X124919438Y-97309544D01*
X125955808Y-97309544D01*
X126317000Y-97670736D01*
X126678192Y-97309544D01*
X126597624Y-97198365D01*
X126417307Y-97160846D01*
X126233135Y-97159227D01*
X126052186Y-97193569D01*
X126036376Y-97198365D01*
X125955808Y-97309544D01*
X124919438Y-97309544D01*
X124854889Y-97266414D01*
X124684729Y-97195932D01*
X124504089Y-97160000D01*
X124319911Y-97160000D01*
X124139271Y-97195932D01*
X123969111Y-97266414D01*
X123815972Y-97368738D01*
X123685738Y-97498972D01*
X123583414Y-97652111D01*
X123512932Y-97822271D01*
X123477000Y-98002911D01*
X123477000Y-98187089D01*
X123512932Y-98367729D01*
X123520342Y-98385618D01*
X123330960Y-98575000D01*
X103057907Y-98575000D01*
X103043726Y-98553776D01*
X102946224Y-98456274D01*
X102831574Y-98379668D01*
X102704182Y-98326901D01*
X102568944Y-98300000D01*
X102431056Y-98300000D01*
X102295818Y-98326901D01*
X102168426Y-98379668D01*
X102053776Y-98456274D01*
X101956274Y-98553776D01*
X101879668Y-98668426D01*
X101826901Y-98795818D01*
X101800000Y-98931056D01*
X101262731Y-98931056D01*
X101280564Y-98750000D01*
X101258360Y-98524561D01*
X101192602Y-98307785D01*
X101085816Y-98108003D01*
X100942107Y-97932893D01*
X100766997Y-97789184D01*
X100567215Y-97682398D01*
X100350439Y-97616640D01*
X100181492Y-97600000D01*
X99818508Y-97600000D01*
X99649561Y-97616640D01*
X99432785Y-97682398D01*
X99233003Y-97789184D01*
X99057893Y-97932893D01*
X98914184Y-98108003D01*
X98807398Y-98307785D01*
X98741640Y-98524561D01*
X98719436Y-98750000D01*
X96350000Y-98750000D01*
X96350000Y-95650000D01*
X98723549Y-95650000D01*
X98723549Y-96850000D01*
X98734145Y-96957583D01*
X98765526Y-97061031D01*
X98816485Y-97156370D01*
X98885065Y-97239935D01*
X98968630Y-97308515D01*
X99063969Y-97359474D01*
X99167417Y-97390855D01*
X99275000Y-97401451D01*
X100725000Y-97401451D01*
X100832583Y-97390855D01*
X100936031Y-97359474D01*
X101031370Y-97308515D01*
X101114935Y-97239935D01*
X101183515Y-97156370D01*
X101234474Y-97061031D01*
X101265855Y-96957583D01*
X101276451Y-96850000D01*
X101276451Y-95650000D01*
X101265855Y-95542417D01*
X101234474Y-95438969D01*
X101183515Y-95343630D01*
X101114935Y-95260065D01*
X101031370Y-95191485D01*
X100936031Y-95140526D01*
X100832583Y-95109145D01*
X100725000Y-95098549D01*
X99275000Y-95098549D01*
X99167417Y-95109145D01*
X99063969Y-95140526D01*
X98968630Y-95191485D01*
X98885065Y-95260065D01*
X98816485Y-95343630D01*
X98765526Y-95438969D01*
X98734145Y-95542417D01*
X98723549Y-95650000D01*
X96350000Y-95650000D01*
X96350000Y-94258696D01*
X112550000Y-94258696D01*
X112550000Y-94741304D01*
X112644152Y-95214639D01*
X112828838Y-95660510D01*
X113096960Y-96061784D01*
X113438216Y-96403040D01*
X113839490Y-96671162D01*
X114285361Y-96855848D01*
X114758696Y-96950000D01*
X115241304Y-96950000D01*
X115714639Y-96855848D01*
X116160510Y-96671162D01*
X116561784Y-96403040D01*
X116903040Y-96061784D01*
X117171162Y-95660510D01*
X117355848Y-95214639D01*
X117450000Y-94741304D01*
X117450000Y-94258696D01*
X117355848Y-93785361D01*
X117225367Y-93470352D01*
X125382000Y-93470352D01*
X125382000Y-93829648D01*
X125452095Y-94182041D01*
X125589592Y-94513988D01*
X125789206Y-94812733D01*
X126043267Y-95066794D01*
X126342012Y-95266408D01*
X126673959Y-95403905D01*
X127026352Y-95474000D01*
X127385648Y-95474000D01*
X127738041Y-95403905D01*
X128069988Y-95266408D01*
X128368733Y-95066794D01*
X128622794Y-94812733D01*
X128822408Y-94513988D01*
X128959905Y-94182041D01*
X129030000Y-93829648D01*
X129030000Y-93470352D01*
X130716000Y-93470352D01*
X130716000Y-93829648D01*
X130786095Y-94182041D01*
X130923592Y-94513988D01*
X131123206Y-94812733D01*
X131377267Y-95066794D01*
X131676012Y-95266408D01*
X132007959Y-95403905D01*
X132360352Y-95474000D01*
X132719648Y-95474000D01*
X133072041Y-95403905D01*
X133403988Y-95266408D01*
X133702733Y-95066794D01*
X133956794Y-94812733D01*
X134156408Y-94513988D01*
X134293905Y-94182041D01*
X134364000Y-93829648D01*
X134364000Y-93470352D01*
X134293905Y-93117959D01*
X134156408Y-92786012D01*
X133956794Y-92487267D01*
X133702733Y-92233206D01*
X133403988Y-92033592D01*
X133072041Y-91896095D01*
X132719648Y-91826000D01*
X132360352Y-91826000D01*
X132007959Y-91896095D01*
X131676012Y-92033592D01*
X131377267Y-92233206D01*
X131123206Y-92487267D01*
X130923592Y-92786012D01*
X130786095Y-93117959D01*
X130716000Y-93470352D01*
X129030000Y-93470352D01*
X128959905Y-93117959D01*
X128822408Y-92786012D01*
X128622794Y-92487267D01*
X128368733Y-92233206D01*
X128069988Y-92033592D01*
X127738041Y-91896095D01*
X127385648Y-91826000D01*
X127026352Y-91826000D01*
X126673959Y-91896095D01*
X126342012Y-92033592D01*
X126043267Y-92233206D01*
X125789206Y-92487267D01*
X125589592Y-92786012D01*
X125452095Y-93117959D01*
X125382000Y-93470352D01*
X117225367Y-93470352D01*
X117171162Y-93339490D01*
X116903040Y-92938216D01*
X116561784Y-92596960D01*
X116160510Y-92328838D01*
X115714639Y-92144152D01*
X115241304Y-92050000D01*
X114758696Y-92050000D01*
X114285361Y-92144152D01*
X113839490Y-92328838D01*
X113438216Y-92596960D01*
X113096960Y-92938216D01*
X112828838Y-93339490D01*
X112644152Y-93785361D01*
X112550000Y-94258696D01*
X96350000Y-94258696D01*
X96350000Y-93017122D01*
X96383071Y-92679838D01*
X96476052Y-92371870D01*
X96627079Y-92087831D01*
X96830400Y-91838536D01*
X97078271Y-91633479D01*
X97361250Y-91480473D01*
X97668560Y-91385346D01*
X98004849Y-91350000D01*
X132982878Y-91350000D01*
X133320162Y-91383071D01*
X133320162Y-91383071D01*
G37*
X133320162Y-91383071D02*
X133628130Y-91476052D01*
X133912169Y-91627079D01*
X134161464Y-91830400D01*
X134366521Y-92078271D01*
X134519527Y-92361250D01*
X134614654Y-92668560D01*
X134650001Y-93004859D01*
X134650000Y-106982878D01*
X134616929Y-107320164D01*
X134523949Y-107628126D01*
X134372924Y-107912164D01*
X134169602Y-108161462D01*
X133921729Y-108366521D01*
X133638750Y-108519527D01*
X133331445Y-108614654D01*
X132995151Y-108650000D01*
X98017122Y-108650000D01*
X97679836Y-108616929D01*
X97371874Y-108523949D01*
X97087836Y-108372924D01*
X96838538Y-108169602D01*
X96633479Y-107921729D01*
X96480473Y-107638750D01*
X96385346Y-107331445D01*
X96350000Y-106995151D01*
X96350000Y-104219977D01*
X98825418Y-104219977D01*
X98860415Y-104270828D01*
X98981518Y-104458756D01*
X99136957Y-104619447D01*
X99320759Y-104746726D01*
X99525860Y-104835701D01*
X99700000Y-104801952D01*
X99700000Y-104050000D01*
X100300000Y-104050000D01*
X100300000Y-104801952D01*
X100474140Y-104835701D01*
X100679241Y-104746726D01*
X100863043Y-104619447D01*
X101018482Y-104458756D01*
X101139585Y-104270828D01*
X101174582Y-104219977D01*
X101157291Y-104050000D01*
X100300000Y-104050000D01*
X99700000Y-104050000D01*
X98842709Y-104050000D01*
X98825418Y-104219977D01*
X96350000Y-104219977D01*
X96350000Y-103280023D01*
X98825418Y-103280023D01*
X98842709Y-103450000D01*
X99700000Y-103450000D01*
X99700000Y-102698048D01*
X100300000Y-102698048D01*
X100300000Y-103450000D01*
X101157291Y-103450000D01*
X101174582Y-103280023D01*
X101139585Y-103229172D01*
X101018482Y-103041244D01*
X100863043Y-102880553D01*
X100679241Y-102753274D01*
X100474140Y-102664299D01*
X100300000Y-102698048D01*
X99700000Y-102698048D01*
X99525860Y-102664299D01*
X99320759Y-102753274D01*
X99136957Y-102880553D01*
X98981518Y-103041244D01*
X98860415Y-103229172D01*
X98825418Y-103280023D01*
X96350000Y-103280023D01*
X96350000Y-101250000D01*
X98719436Y-101250000D01*
X98741640Y-101475439D01*
X98807398Y-101692215D01*
X98914184Y-101891997D01*
X99057893Y-102067107D01*
X99233003Y-102210816D01*
X99432785Y-102317602D01*
X99649561Y-102383360D01*
X99818508Y-102400000D01*
X100181492Y-102400000D01*
X100350439Y-102383360D01*
X100567215Y-102317602D01*
X100766997Y-102210816D01*
X100942107Y-102067107D01*
X101085816Y-101891997D01*
X101192602Y-101692215D01*
X101258360Y-101475439D01*
X101280564Y-101250000D01*
X101258360Y-101024561D01*
X101192602Y-100807785D01*
X101085816Y-100608003D01*
X100942107Y-100432893D01*
X100766997Y-100289184D01*
X100567215Y-100182398D01*
X100350439Y-100116640D01*
X100181492Y-100100000D01*
X99818508Y-100100000D01*
X99649561Y-100116640D01*
X99432785Y-100182398D01*
X99233003Y-100289184D01*
X99057893Y-100432893D01*
X98914184Y-100608003D01*
X98807398Y-100807785D01*
X98741640Y-101024561D01*
X98719436Y-101250000D01*
X96350000Y-101250000D01*
X96350000Y-98750000D01*
X98719436Y-98750000D01*
X98741640Y-98975439D01*
X98807398Y-99192215D01*
X98914184Y-99391997D01*
X99057893Y-99567107D01*
X99233003Y-99710816D01*
X99432785Y-99817602D01*
X99649561Y-99883360D01*
X99818508Y-99900000D01*
X100181492Y-99900000D01*
X100350439Y-99883360D01*
X100567215Y-99817602D01*
X100583081Y-99809121D01*
X103924722Y-103150763D01*
X103938027Y-103166975D01*
X104002741Y-103220085D01*
X104076574Y-103259549D01*
X104132384Y-103276479D01*
X104156686Y-103283851D01*
X104165099Y-103284680D01*
X104219127Y-103290001D01*
X104219133Y-103290001D01*
X104240000Y-103292056D01*
X104260867Y-103290001D01*
X113933251Y-103290001D01*
X113839490Y-103328838D01*
X113438216Y-103596960D01*
X113096960Y-103938216D01*
X112828838Y-104339490D01*
X112644152Y-104785361D01*
X112550000Y-105258696D01*
X112550000Y-105741304D01*
X112644152Y-106214639D01*
X112828838Y-106660510D01*
X113096960Y-107061784D01*
X113438216Y-107403040D01*
X113839490Y-107671162D01*
X114285361Y-107855848D01*
X114758696Y-107950000D01*
X115241304Y-107950000D01*
X115714639Y-107855848D01*
X116160510Y-107671162D01*
X116561784Y-107403040D01*
X116903040Y-107061784D01*
X117171162Y-106660510D01*
X117355848Y-106214639D01*
X117364657Y-106170352D01*
X125382000Y-106170352D01*
X125382000Y-106529648D01*
X125452095Y-106882041D01*
X125589592Y-107213988D01*
X125789206Y-107512733D01*
X126043267Y-107766794D01*
X126342012Y-107966408D01*
X126673959Y-108103905D01*
X127026352Y-108174000D01*
X127385648Y-108174000D01*
X127738041Y-108103905D01*
X128069988Y-107966408D01*
X128368733Y-107766794D01*
X128622794Y-107512733D01*
X128822408Y-107213988D01*
X128959905Y-106882041D01*
X129030000Y-106529648D01*
X129030000Y-106170352D01*
X130716000Y-106170352D01*
X130716000Y-106529648D01*
X130786095Y-106882041D01*
X130923592Y-107213988D01*
X131123206Y-107512733D01*
X131377267Y-107766794D01*
X131676012Y-107966408D01*
X132007959Y-108103905D01*
X132360352Y-108174000D01*
X132719648Y-108174000D01*
X133072041Y-108103905D01*
X133403988Y-107966408D01*
X133702733Y-107766794D01*
X133956794Y-107512733D01*
X134156408Y-107213988D01*
X134293905Y-106882041D01*
X134364000Y-106529648D01*
X134364000Y-106170352D01*
X134293905Y-105817959D01*
X134156408Y-105486012D01*
X133956794Y-105187267D01*
X133702733Y-104933206D01*
X133403988Y-104733592D01*
X133072041Y-104596095D01*
X132719648Y-104526000D01*
X132360352Y-104526000D01*
X132007959Y-104596095D01*
X131676012Y-104733592D01*
X131377267Y-104933206D01*
X131123206Y-105187267D01*
X130923592Y-105486012D01*
X130786095Y-105817959D01*
X130716000Y-106170352D01*
X129030000Y-106170352D01*
X128959905Y-105817959D01*
X128822408Y-105486012D01*
X128622794Y-105187267D01*
X128368733Y-104933206D01*
X128069988Y-104733592D01*
X127738041Y-104596095D01*
X127385648Y-104526000D01*
X127026352Y-104526000D01*
X126673959Y-104596095D01*
X126342012Y-104733592D01*
X126043267Y-104933206D01*
X125789206Y-105187267D01*
X125589592Y-105486012D01*
X125452095Y-105817959D01*
X125382000Y-106170352D01*
X117364657Y-106170352D01*
X117450000Y-105741304D01*
X117450000Y-105258696D01*
X117355848Y-104785361D01*
X117171162Y-104339490D01*
X116903040Y-103938216D01*
X116561784Y-103596960D01*
X116160510Y-103328838D01*
X116066749Y-103290001D01*
X125336132Y-103290001D01*
X125356999Y-103292056D01*
X125377866Y-103290001D01*
X125377873Y-103290001D01*
X125440313Y-103283851D01*
X125520426Y-103259549D01*
X125594259Y-103220085D01*
X125658973Y-103166975D01*
X125672282Y-103150758D01*
X125997281Y-102825760D01*
X125997285Y-102825755D01*
X126026382Y-102796658D01*
X126044271Y-102804068D01*
X126224911Y-102840000D01*
X126409089Y-102840000D01*
X126589729Y-102804068D01*
X126759889Y-102733586D01*
X126913028Y-102631262D01*
X127043262Y-102501028D01*
X127145586Y-102347889D01*
X127216068Y-102177729D01*
X127252000Y-101997089D01*
X127252000Y-101812911D01*
X127216068Y-101632271D01*
X127145586Y-101462111D01*
X127043262Y-101308972D01*
X126913028Y-101178738D01*
X126759889Y-101076414D01*
X126589729Y-101005932D01*
X126409089Y-100970000D01*
X126224911Y-100970000D01*
X126044271Y-101005932D01*
X125874111Y-101076414D01*
X125720972Y-101178738D01*
X125590738Y-101308972D01*
X125488414Y-101462111D01*
X125417932Y-101632271D01*
X125382000Y-101812911D01*
X125382000Y-101997089D01*
X125417932Y-102177729D01*
X125425342Y-102195618D01*
X125396245Y-102224715D01*
X125396240Y-102224719D01*
X125348451Y-102272508D01*
X125348451Y-101270000D01*
X125342659Y-101211190D01*
X125325504Y-101154640D01*
X125297647Y-101102523D01*
X125260158Y-101056842D01*
X125214477Y-101019353D01*
X125162360Y-100991496D01*
X125105810Y-100974341D01*
X125047000Y-100968549D01*
X123777000Y-100968549D01*
X123718190Y-100974341D01*
X123661640Y-100991496D01*
X123609523Y-101019353D01*
X123563842Y-101056842D01*
X123526353Y-101102523D01*
X123498496Y-101154640D01*
X123481341Y-101211190D01*
X123475549Y-101270000D01*
X123475549Y-102440001D01*
X104416042Y-102440001D01*
X101184121Y-99208081D01*
X101192602Y-99192215D01*
X101258360Y-98975439D01*
X101262731Y-98931056D01*
X101800000Y-98931056D01*
X101800000Y-99068944D01*
X101826901Y-99204182D01*
X101879668Y-99331574D01*
X101956274Y-99446224D01*
X102053776Y-99543726D01*
X102168426Y-99620332D01*
X102295818Y-99673099D01*
X102431056Y-99700000D01*
X102568944Y-99700000D01*
X102704182Y-99673099D01*
X102831574Y-99620332D01*
X102946224Y-99543726D01*
X103043726Y-99446224D01*
X103057907Y-99425000D01*
X123486133Y-99425000D01*
X123507000Y-99427055D01*
X123527867Y-99425000D01*
X123527874Y-99425000D01*
X123590314Y-99418850D01*
X123670427Y-99394548D01*
X123723564Y-99366146D01*
X123685738Y-99403972D01*
X123583414Y-99557111D01*
X123512932Y-99727271D01*
X123477000Y-99907911D01*
X123477000Y-100092089D01*
X123512932Y-100272729D01*
X123583414Y-100442889D01*
X123685738Y-100596028D01*
X123815972Y-100726262D01*
X123969111Y-100828586D01*
X124139271Y-100899068D01*
X124319911Y-100935000D01*
X124504089Y-100935000D01*
X124684729Y-100899068D01*
X124854889Y-100828586D01*
X125008028Y-100726262D01*
X125138262Y-100596028D01*
X125240586Y-100442889D01*
X125311068Y-100272729D01*
X125347000Y-100092089D01*
X125347000Y-99907911D01*
X125382000Y-99907911D01*
X125382000Y-100092089D01*
X125417932Y-100272729D01*
X125488414Y-100442889D01*
X125590738Y-100596028D01*
X125720972Y-100726262D01*
X125874111Y-100828586D01*
X126044271Y-100899068D01*
X126224911Y-100935000D01*
X126409089Y-100935000D01*
X126589729Y-100899068D01*
X126759889Y-100828586D01*
X126913028Y-100726262D01*
X127043262Y-100596028D01*
X127145586Y-100442889D01*
X127216068Y-100272729D01*
X127252000Y-100092089D01*
X127252000Y-99907911D01*
X127216068Y-99727271D01*
X127145586Y-99557111D01*
X127043262Y-99403972D01*
X126913028Y-99273738D01*
X126759889Y-99171414D01*
X126589729Y-99100932D01*
X126409089Y-99065000D01*
X126224911Y-99065000D01*
X126044271Y-99100932D01*
X125874111Y-99171414D01*
X125720972Y-99273738D01*
X125590738Y-99403972D01*
X125488414Y-99557111D01*
X125417932Y-99727271D01*
X125382000Y-99907911D01*
X125347000Y-99907911D01*
X125311068Y-99727271D01*
X125240586Y-99557111D01*
X125138262Y-99403972D01*
X125008028Y-99273738D01*
X124854889Y-99171414D01*
X124684729Y-99100932D01*
X124504089Y-99065000D01*
X124319911Y-99065000D01*
X124139271Y-99100932D01*
X123969111Y-99171414D01*
X123871213Y-99236827D01*
X124121382Y-98986658D01*
X124139271Y-98994068D01*
X124319911Y-99030000D01*
X124504089Y-99030000D01*
X124684729Y-98994068D01*
X124854889Y-98923586D01*
X124919437Y-98880456D01*
X125955808Y-98880456D01*
X126036376Y-98991635D01*
X126216693Y-99029154D01*
X126400865Y-99030773D01*
X126581814Y-98996431D01*
X126597624Y-98991635D01*
X126678192Y-98880456D01*
X126317000Y-98519264D01*
X125955808Y-98880456D01*
X124919437Y-98880456D01*
X125008028Y-98821262D01*
X125138262Y-98691028D01*
X125240586Y-98537889D01*
X125311068Y-98367729D01*
X125347000Y-98187089D01*
X125347000Y-98178865D01*
X125381227Y-98178865D01*
X125415569Y-98359814D01*
X125420365Y-98375624D01*
X125531544Y-98456192D01*
X125892736Y-98095000D01*
X126741264Y-98095000D01*
X127102456Y-98456192D01*
X127213635Y-98375624D01*
X127251154Y-98195307D01*
X127252773Y-98011135D01*
X127218431Y-97830186D01*
X127213635Y-97814376D01*
X127102456Y-97733808D01*
X126741264Y-98095000D01*
X125892736Y-98095000D01*
X125531544Y-97733808D01*
X125420365Y-97814376D01*
X125382846Y-97994693D01*
X125381227Y-98178865D01*
X125347000Y-98178865D01*
X125347000Y-98002911D01*
X125311068Y-97822271D01*
X125240586Y-97652111D01*
X125138262Y-97498972D01*
X125008028Y-97368738D01*
X124919438Y-97309544D01*
X125955808Y-97309544D01*
X126317000Y-97670736D01*
X126678192Y-97309544D01*
X126597624Y-97198365D01*
X126417307Y-97160846D01*
X126233135Y-97159227D01*
X126052186Y-97193569D01*
X126036376Y-97198365D01*
X125955808Y-97309544D01*
X124919438Y-97309544D01*
X124854889Y-97266414D01*
X124684729Y-97195932D01*
X124504089Y-97160000D01*
X124319911Y-97160000D01*
X124139271Y-97195932D01*
X123969111Y-97266414D01*
X123815972Y-97368738D01*
X123685738Y-97498972D01*
X123583414Y-97652111D01*
X123512932Y-97822271D01*
X123477000Y-98002911D01*
X123477000Y-98187089D01*
X123512932Y-98367729D01*
X123520342Y-98385618D01*
X123330960Y-98575000D01*
X103057907Y-98575000D01*
X103043726Y-98553776D01*
X102946224Y-98456274D01*
X102831574Y-98379668D01*
X102704182Y-98326901D01*
X102568944Y-98300000D01*
X102431056Y-98300000D01*
X102295818Y-98326901D01*
X102168426Y-98379668D01*
X102053776Y-98456274D01*
X101956274Y-98553776D01*
X101879668Y-98668426D01*
X101826901Y-98795818D01*
X101800000Y-98931056D01*
X101262731Y-98931056D01*
X101280564Y-98750000D01*
X101258360Y-98524561D01*
X101192602Y-98307785D01*
X101085816Y-98108003D01*
X100942107Y-97932893D01*
X100766997Y-97789184D01*
X100567215Y-97682398D01*
X100350439Y-97616640D01*
X100181492Y-97600000D01*
X99818508Y-97600000D01*
X99649561Y-97616640D01*
X99432785Y-97682398D01*
X99233003Y-97789184D01*
X99057893Y-97932893D01*
X98914184Y-98108003D01*
X98807398Y-98307785D01*
X98741640Y-98524561D01*
X98719436Y-98750000D01*
X96350000Y-98750000D01*
X96350000Y-95650000D01*
X98723549Y-95650000D01*
X98723549Y-96850000D01*
X98734145Y-96957583D01*
X98765526Y-97061031D01*
X98816485Y-97156370D01*
X98885065Y-97239935D01*
X98968630Y-97308515D01*
X99063969Y-97359474D01*
X99167417Y-97390855D01*
X99275000Y-97401451D01*
X100725000Y-97401451D01*
X100832583Y-97390855D01*
X100936031Y-97359474D01*
X101031370Y-97308515D01*
X101114935Y-97239935D01*
X101183515Y-97156370D01*
X101234474Y-97061031D01*
X101265855Y-96957583D01*
X101276451Y-96850000D01*
X101276451Y-95650000D01*
X101265855Y-95542417D01*
X101234474Y-95438969D01*
X101183515Y-95343630D01*
X101114935Y-95260065D01*
X101031370Y-95191485D01*
X100936031Y-95140526D01*
X100832583Y-95109145D01*
X100725000Y-95098549D01*
X99275000Y-95098549D01*
X99167417Y-95109145D01*
X99063969Y-95140526D01*
X98968630Y-95191485D01*
X98885065Y-95260065D01*
X98816485Y-95343630D01*
X98765526Y-95438969D01*
X98734145Y-95542417D01*
X98723549Y-95650000D01*
X96350000Y-95650000D01*
X96350000Y-94258696D01*
X112550000Y-94258696D01*
X112550000Y-94741304D01*
X112644152Y-95214639D01*
X112828838Y-95660510D01*
X113096960Y-96061784D01*
X113438216Y-96403040D01*
X113839490Y-96671162D01*
X114285361Y-96855848D01*
X114758696Y-96950000D01*
X115241304Y-96950000D01*
X115714639Y-96855848D01*
X116160510Y-96671162D01*
X116561784Y-96403040D01*
X116903040Y-96061784D01*
X117171162Y-95660510D01*
X117355848Y-95214639D01*
X117450000Y-94741304D01*
X117450000Y-94258696D01*
X117355848Y-93785361D01*
X117225367Y-93470352D01*
X125382000Y-93470352D01*
X125382000Y-93829648D01*
X125452095Y-94182041D01*
X125589592Y-94513988D01*
X125789206Y-94812733D01*
X126043267Y-95066794D01*
X126342012Y-95266408D01*
X126673959Y-95403905D01*
X127026352Y-95474000D01*
X127385648Y-95474000D01*
X127738041Y-95403905D01*
X128069988Y-95266408D01*
X128368733Y-95066794D01*
X128622794Y-94812733D01*
X128822408Y-94513988D01*
X128959905Y-94182041D01*
X129030000Y-93829648D01*
X129030000Y-93470352D01*
X130716000Y-93470352D01*
X130716000Y-93829648D01*
X130786095Y-94182041D01*
X130923592Y-94513988D01*
X131123206Y-94812733D01*
X131377267Y-95066794D01*
X131676012Y-95266408D01*
X132007959Y-95403905D01*
X132360352Y-95474000D01*
X132719648Y-95474000D01*
X133072041Y-95403905D01*
X133403988Y-95266408D01*
X133702733Y-95066794D01*
X133956794Y-94812733D01*
X134156408Y-94513988D01*
X134293905Y-94182041D01*
X134364000Y-93829648D01*
X134364000Y-93470352D01*
X134293905Y-93117959D01*
X134156408Y-92786012D01*
X133956794Y-92487267D01*
X133702733Y-92233206D01*
X133403988Y-92033592D01*
X133072041Y-91896095D01*
X132719648Y-91826000D01*
X132360352Y-91826000D01*
X132007959Y-91896095D01*
X131676012Y-92033592D01*
X131377267Y-92233206D01*
X131123206Y-92487267D01*
X130923592Y-92786012D01*
X130786095Y-93117959D01*
X130716000Y-93470352D01*
X129030000Y-93470352D01*
X128959905Y-93117959D01*
X128822408Y-92786012D01*
X128622794Y-92487267D01*
X128368733Y-92233206D01*
X128069988Y-92033592D01*
X127738041Y-91896095D01*
X127385648Y-91826000D01*
X127026352Y-91826000D01*
X126673959Y-91896095D01*
X126342012Y-92033592D01*
X126043267Y-92233206D01*
X125789206Y-92487267D01*
X125589592Y-92786012D01*
X125452095Y-93117959D01*
X125382000Y-93470352D01*
X117225367Y-93470352D01*
X117171162Y-93339490D01*
X116903040Y-92938216D01*
X116561784Y-92596960D01*
X116160510Y-92328838D01*
X115714639Y-92144152D01*
X115241304Y-92050000D01*
X114758696Y-92050000D01*
X114285361Y-92144152D01*
X113839490Y-92328838D01*
X113438216Y-92596960D01*
X113096960Y-92938216D01*
X112828838Y-93339490D01*
X112644152Y-93785361D01*
X112550000Y-94258696D01*
X96350000Y-94258696D01*
X96350000Y-93017122D01*
X96383071Y-92679838D01*
X96476052Y-92371870D01*
X96627079Y-92087831D01*
X96830400Y-91838536D01*
X97078271Y-91633479D01*
X97361250Y-91480473D01*
X97668560Y-91385346D01*
X98004849Y-91350000D01*
X132982878Y-91350000D01*
X133320162Y-91383071D01*
G04 #@! TD*
M02*
