G04 #@! TF.GenerationSoftware,KiCad,Pcbnew,(6.0.0-rc1-dev-1-g01c5bdfb8)*
G04 #@! TF.CreationDate,2019-01-02T15:25:24+01:00*
G04 #@! TF.ProjectId,nunchuk_breakout,6E756E6368756B5F627265616B6F7574,rev?*
G04 #@! TF.SameCoordinates,Original*
G04 #@! TF.FileFunction,Copper,L1,Top,Signal*
G04 #@! TF.FilePolarity,Positive*
%FSLAX46Y46*%
G04 Gerber Fmt 4.6, Leading zero omitted, Abs format (unit mm)*
G04 Created by KiCad (PCBNEW (6.0.0-rc1-dev-1-g01c5bdfb8)) date Wed Jan  2 15:25:24 2019*
%MOMM*%
%LPD*%
G01*
G04 APERTURE LIST*
G04 #@! TA.AperFunction,NonConductor*
%ADD10C,0.100000*%
G04 #@! TD*
G04 #@! TA.AperFunction,Conductor*
%ADD11C,0.100000*%
G04 #@! TD*
G04 #@! TA.AperFunction,ComponentPad*
%ADD12C,1.700000*%
G04 #@! TD*
G04 #@! TA.AperFunction,ComponentPad*
%ADD13O,1.950000X1.700000*%
G04 #@! TD*
G04 #@! TA.AperFunction,SMDPad,CuDef*
%ADD14R,1.000000X2.500000*%
G04 #@! TD*
G04 #@! TA.AperFunction,SMDPad,CuDef*
%ADD15R,2.000000X4.000000*%
G04 #@! TD*
G04 #@! TA.AperFunction,SMDPad,CuDef*
%ADD16C,0.750000*%
G04 #@! TD*
G04 #@! TA.AperFunction,SMDPad,CuDef*
%ADD17C,0.875000*%
G04 #@! TD*
G04 #@! TA.AperFunction,SMDPad,CuDef*
%ADD18C,0.975000*%
G04 #@! TD*
G04 #@! TA.AperFunction,ComponentPad*
%ADD19R,1.270000X1.270000*%
G04 #@! TD*
G04 #@! TA.AperFunction,ComponentPad*
%ADD20C,1.270000*%
G04 #@! TD*
G04 #@! TA.AperFunction,ComponentPad*
%ADD21C,3.048000*%
G04 #@! TD*
G04 #@! TA.AperFunction,ViaPad*
%ADD22C,0.800000*%
G04 #@! TD*
G04 #@! TA.AperFunction,Conductor*
%ADD23C,0.250000*%
G04 #@! TD*
G04 #@! TA.AperFunction,Conductor*
%ADD24C,0.254000*%
G04 #@! TD*
G04 #@! TA.AperFunction,Conductor*
%ADD25C,0.200000*%
G04 #@! TD*
G04 APERTURE END LIST*
D10*
X133000000Y-91000000D02*
G75*
G02X135000000Y-93000000I0J-2000000D01*
G01*
X135000000Y-107000000D02*
G75*
G02X133000000Y-109000000I-2000000J0D01*
G01*
X98000000Y-109000000D02*
G75*
G02X96000000Y-107000000I0J2000000D01*
G01*
X96000000Y-93000000D02*
G75*
G02X98000000Y-91000000I2000000J0D01*
G01*
X135000000Y-107000000D02*
X135000000Y-93000000D01*
X98000000Y-109000000D02*
X133000000Y-109000000D01*
X96000000Y-93000000D02*
X96000000Y-107000000D01*
X133000000Y-91000000D02*
X98000000Y-91000000D01*
D11*
G04 #@! TO.N,VDD*
G04 #@! TO.C,J2*
G36*
X100749504Y-95401204D02*
X100773773Y-95404804D01*
X100797571Y-95410765D01*
X100820671Y-95419030D01*
X100842849Y-95429520D01*
X100863893Y-95442133D01*
X100883598Y-95456747D01*
X100901777Y-95473223D01*
X100918253Y-95491402D01*
X100932867Y-95511107D01*
X100945480Y-95532151D01*
X100955970Y-95554329D01*
X100964235Y-95577429D01*
X100970196Y-95601227D01*
X100973796Y-95625496D01*
X100975000Y-95650000D01*
X100975000Y-96850000D01*
X100973796Y-96874504D01*
X100970196Y-96898773D01*
X100964235Y-96922571D01*
X100955970Y-96945671D01*
X100945480Y-96967849D01*
X100932867Y-96988893D01*
X100918253Y-97008598D01*
X100901777Y-97026777D01*
X100883598Y-97043253D01*
X100863893Y-97057867D01*
X100842849Y-97070480D01*
X100820671Y-97080970D01*
X100797571Y-97089235D01*
X100773773Y-97095196D01*
X100749504Y-97098796D01*
X100725000Y-97100000D01*
X99275000Y-97100000D01*
X99250496Y-97098796D01*
X99226227Y-97095196D01*
X99202429Y-97089235D01*
X99179329Y-97080970D01*
X99157151Y-97070480D01*
X99136107Y-97057867D01*
X99116402Y-97043253D01*
X99098223Y-97026777D01*
X99081747Y-97008598D01*
X99067133Y-96988893D01*
X99054520Y-96967849D01*
X99044030Y-96945671D01*
X99035765Y-96922571D01*
X99029804Y-96898773D01*
X99026204Y-96874504D01*
X99025000Y-96850000D01*
X99025000Y-95650000D01*
X99026204Y-95625496D01*
X99029804Y-95601227D01*
X99035765Y-95577429D01*
X99044030Y-95554329D01*
X99054520Y-95532151D01*
X99067133Y-95511107D01*
X99081747Y-95491402D01*
X99098223Y-95473223D01*
X99116402Y-95456747D01*
X99136107Y-95442133D01*
X99157151Y-95429520D01*
X99179329Y-95419030D01*
X99202429Y-95410765D01*
X99226227Y-95404804D01*
X99250496Y-95401204D01*
X99275000Y-95400000D01*
X100725000Y-95400000D01*
X100749504Y-95401204D01*
X100749504Y-95401204D01*
G37*
D12*
G04 #@! TD*
G04 #@! TO.P,J2,1*
G04 #@! TO.N,VDD*
X100000000Y-96250000D03*
D13*
G04 #@! TO.P,J2,2*
G04 #@! TO.N,SCL*
X100000000Y-98750000D03*
G04 #@! TO.P,J2,3*
G04 #@! TO.N,SDA*
X100000000Y-101250000D03*
G04 #@! TO.P,J2,4*
G04 #@! TO.N,GND*
X100000000Y-103750000D03*
G04 #@! TD*
D14*
G04 #@! TO.P,U1,1*
G04 #@! TO.N,VDD*
X105000000Y-97980000D03*
G04 #@! TO.P,U1,2*
G04 #@! TO.N,GND*
X106500000Y-97980000D03*
G04 #@! TO.P,U1,3*
G04 #@! TO.N,VCC*
X108000000Y-97980000D03*
D15*
G04 #@! TO.P,U1,2*
G04 #@! TO.N,GND*
X106500000Y-94020000D03*
D16*
X106500000Y-96370000D03*
D11*
G04 #@! TD*
G04 #@! TO.N,GND*
G04 #@! TO.C,U1*
G36*
X107500000Y-95995000D02*
X107000000Y-96745000D01*
X106000000Y-96745000D01*
X105500000Y-95995000D01*
X107500000Y-95995000D01*
X107500000Y-95995000D01*
G37*
G04 #@! TO.N,GND*
G04 #@! TO.C,C8*
G36*
X121777691Y-95276053D02*
X121798926Y-95279203D01*
X121819750Y-95284419D01*
X121839962Y-95291651D01*
X121859368Y-95300830D01*
X121877781Y-95311866D01*
X121895024Y-95324654D01*
X121910930Y-95339070D01*
X121925346Y-95354976D01*
X121938134Y-95372219D01*
X121949170Y-95390632D01*
X121958349Y-95410038D01*
X121965581Y-95430250D01*
X121970797Y-95451074D01*
X121973947Y-95472309D01*
X121975000Y-95493750D01*
X121975000Y-95931250D01*
X121973947Y-95952691D01*
X121970797Y-95973926D01*
X121965581Y-95994750D01*
X121958349Y-96014962D01*
X121949170Y-96034368D01*
X121938134Y-96052781D01*
X121925346Y-96070024D01*
X121910930Y-96085930D01*
X121895024Y-96100346D01*
X121877781Y-96113134D01*
X121859368Y-96124170D01*
X121839962Y-96133349D01*
X121819750Y-96140581D01*
X121798926Y-96145797D01*
X121777691Y-96148947D01*
X121756250Y-96150000D01*
X121243750Y-96150000D01*
X121222309Y-96148947D01*
X121201074Y-96145797D01*
X121180250Y-96140581D01*
X121160038Y-96133349D01*
X121140632Y-96124170D01*
X121122219Y-96113134D01*
X121104976Y-96100346D01*
X121089070Y-96085930D01*
X121074654Y-96070024D01*
X121061866Y-96052781D01*
X121050830Y-96034368D01*
X121041651Y-96014962D01*
X121034419Y-95994750D01*
X121029203Y-95973926D01*
X121026053Y-95952691D01*
X121025000Y-95931250D01*
X121025000Y-95493750D01*
X121026053Y-95472309D01*
X121029203Y-95451074D01*
X121034419Y-95430250D01*
X121041651Y-95410038D01*
X121050830Y-95390632D01*
X121061866Y-95372219D01*
X121074654Y-95354976D01*
X121089070Y-95339070D01*
X121104976Y-95324654D01*
X121122219Y-95311866D01*
X121140632Y-95300830D01*
X121160038Y-95291651D01*
X121180250Y-95284419D01*
X121201074Y-95279203D01*
X121222309Y-95276053D01*
X121243750Y-95275000D01*
X121756250Y-95275000D01*
X121777691Y-95276053D01*
X121777691Y-95276053D01*
G37*
D17*
G04 #@! TD*
G04 #@! TO.P,C8,2*
G04 #@! TO.N,GND*
X121500000Y-95712500D03*
D11*
G04 #@! TO.N,SDA*
G04 #@! TO.C,C8*
G36*
X121777691Y-96851053D02*
X121798926Y-96854203D01*
X121819750Y-96859419D01*
X121839962Y-96866651D01*
X121859368Y-96875830D01*
X121877781Y-96886866D01*
X121895024Y-96899654D01*
X121910930Y-96914070D01*
X121925346Y-96929976D01*
X121938134Y-96947219D01*
X121949170Y-96965632D01*
X121958349Y-96985038D01*
X121965581Y-97005250D01*
X121970797Y-97026074D01*
X121973947Y-97047309D01*
X121975000Y-97068750D01*
X121975000Y-97506250D01*
X121973947Y-97527691D01*
X121970797Y-97548926D01*
X121965581Y-97569750D01*
X121958349Y-97589962D01*
X121949170Y-97609368D01*
X121938134Y-97627781D01*
X121925346Y-97645024D01*
X121910930Y-97660930D01*
X121895024Y-97675346D01*
X121877781Y-97688134D01*
X121859368Y-97699170D01*
X121839962Y-97708349D01*
X121819750Y-97715581D01*
X121798926Y-97720797D01*
X121777691Y-97723947D01*
X121756250Y-97725000D01*
X121243750Y-97725000D01*
X121222309Y-97723947D01*
X121201074Y-97720797D01*
X121180250Y-97715581D01*
X121160038Y-97708349D01*
X121140632Y-97699170D01*
X121122219Y-97688134D01*
X121104976Y-97675346D01*
X121089070Y-97660930D01*
X121074654Y-97645024D01*
X121061866Y-97627781D01*
X121050830Y-97609368D01*
X121041651Y-97589962D01*
X121034419Y-97569750D01*
X121029203Y-97548926D01*
X121026053Y-97527691D01*
X121025000Y-97506250D01*
X121025000Y-97068750D01*
X121026053Y-97047309D01*
X121029203Y-97026074D01*
X121034419Y-97005250D01*
X121041651Y-96985038D01*
X121050830Y-96965632D01*
X121061866Y-96947219D01*
X121074654Y-96929976D01*
X121089070Y-96914070D01*
X121104976Y-96899654D01*
X121122219Y-96886866D01*
X121140632Y-96875830D01*
X121160038Y-96866651D01*
X121180250Y-96859419D01*
X121201074Y-96854203D01*
X121222309Y-96851053D01*
X121243750Y-96850000D01*
X121756250Y-96850000D01*
X121777691Y-96851053D01*
X121777691Y-96851053D01*
G37*
D17*
G04 #@! TD*
G04 #@! TO.P,C8,1*
G04 #@! TO.N,SDA*
X121500000Y-97287500D03*
D11*
G04 #@! TO.N,GND*
G04 #@! TO.C,C7*
G36*
X121777691Y-103851053D02*
X121798926Y-103854203D01*
X121819750Y-103859419D01*
X121839962Y-103866651D01*
X121859368Y-103875830D01*
X121877781Y-103886866D01*
X121895024Y-103899654D01*
X121910930Y-103914070D01*
X121925346Y-103929976D01*
X121938134Y-103947219D01*
X121949170Y-103965632D01*
X121958349Y-103985038D01*
X121965581Y-104005250D01*
X121970797Y-104026074D01*
X121973947Y-104047309D01*
X121975000Y-104068750D01*
X121975000Y-104506250D01*
X121973947Y-104527691D01*
X121970797Y-104548926D01*
X121965581Y-104569750D01*
X121958349Y-104589962D01*
X121949170Y-104609368D01*
X121938134Y-104627781D01*
X121925346Y-104645024D01*
X121910930Y-104660930D01*
X121895024Y-104675346D01*
X121877781Y-104688134D01*
X121859368Y-104699170D01*
X121839962Y-104708349D01*
X121819750Y-104715581D01*
X121798926Y-104720797D01*
X121777691Y-104723947D01*
X121756250Y-104725000D01*
X121243750Y-104725000D01*
X121222309Y-104723947D01*
X121201074Y-104720797D01*
X121180250Y-104715581D01*
X121160038Y-104708349D01*
X121140632Y-104699170D01*
X121122219Y-104688134D01*
X121104976Y-104675346D01*
X121089070Y-104660930D01*
X121074654Y-104645024D01*
X121061866Y-104627781D01*
X121050830Y-104609368D01*
X121041651Y-104589962D01*
X121034419Y-104569750D01*
X121029203Y-104548926D01*
X121026053Y-104527691D01*
X121025000Y-104506250D01*
X121025000Y-104068750D01*
X121026053Y-104047309D01*
X121029203Y-104026074D01*
X121034419Y-104005250D01*
X121041651Y-103985038D01*
X121050830Y-103965632D01*
X121061866Y-103947219D01*
X121074654Y-103929976D01*
X121089070Y-103914070D01*
X121104976Y-103899654D01*
X121122219Y-103886866D01*
X121140632Y-103875830D01*
X121160038Y-103866651D01*
X121180250Y-103859419D01*
X121201074Y-103854203D01*
X121222309Y-103851053D01*
X121243750Y-103850000D01*
X121756250Y-103850000D01*
X121777691Y-103851053D01*
X121777691Y-103851053D01*
G37*
D17*
G04 #@! TD*
G04 #@! TO.P,C7,1*
G04 #@! TO.N,GND*
X121500000Y-104287500D03*
D11*
G04 #@! TO.N,SCL*
G04 #@! TO.C,C7*
G36*
X121777691Y-102276053D02*
X121798926Y-102279203D01*
X121819750Y-102284419D01*
X121839962Y-102291651D01*
X121859368Y-102300830D01*
X121877781Y-102311866D01*
X121895024Y-102324654D01*
X121910930Y-102339070D01*
X121925346Y-102354976D01*
X121938134Y-102372219D01*
X121949170Y-102390632D01*
X121958349Y-102410038D01*
X121965581Y-102430250D01*
X121970797Y-102451074D01*
X121973947Y-102472309D01*
X121975000Y-102493750D01*
X121975000Y-102931250D01*
X121973947Y-102952691D01*
X121970797Y-102973926D01*
X121965581Y-102994750D01*
X121958349Y-103014962D01*
X121949170Y-103034368D01*
X121938134Y-103052781D01*
X121925346Y-103070024D01*
X121910930Y-103085930D01*
X121895024Y-103100346D01*
X121877781Y-103113134D01*
X121859368Y-103124170D01*
X121839962Y-103133349D01*
X121819750Y-103140581D01*
X121798926Y-103145797D01*
X121777691Y-103148947D01*
X121756250Y-103150000D01*
X121243750Y-103150000D01*
X121222309Y-103148947D01*
X121201074Y-103145797D01*
X121180250Y-103140581D01*
X121160038Y-103133349D01*
X121140632Y-103124170D01*
X121122219Y-103113134D01*
X121104976Y-103100346D01*
X121089070Y-103085930D01*
X121074654Y-103070024D01*
X121061866Y-103052781D01*
X121050830Y-103034368D01*
X121041651Y-103014962D01*
X121034419Y-102994750D01*
X121029203Y-102973926D01*
X121026053Y-102952691D01*
X121025000Y-102931250D01*
X121025000Y-102493750D01*
X121026053Y-102472309D01*
X121029203Y-102451074D01*
X121034419Y-102430250D01*
X121041651Y-102410038D01*
X121050830Y-102390632D01*
X121061866Y-102372219D01*
X121074654Y-102354976D01*
X121089070Y-102339070D01*
X121104976Y-102324654D01*
X121122219Y-102311866D01*
X121140632Y-102300830D01*
X121160038Y-102291651D01*
X121180250Y-102284419D01*
X121201074Y-102279203D01*
X121222309Y-102276053D01*
X121243750Y-102275000D01*
X121756250Y-102275000D01*
X121777691Y-102276053D01*
X121777691Y-102276053D01*
G37*
D17*
G04 #@! TD*
G04 #@! TO.P,C7,2*
G04 #@! TO.N,SCL*
X121500000Y-102712500D03*
D11*
G04 #@! TO.N,GND*
G04 #@! TO.C,C4*
G36*
X107452691Y-100026053D02*
X107473926Y-100029203D01*
X107494750Y-100034419D01*
X107514962Y-100041651D01*
X107534368Y-100050830D01*
X107552781Y-100061866D01*
X107570024Y-100074654D01*
X107585930Y-100089070D01*
X107600346Y-100104976D01*
X107613134Y-100122219D01*
X107624170Y-100140632D01*
X107633349Y-100160038D01*
X107640581Y-100180250D01*
X107645797Y-100201074D01*
X107648947Y-100222309D01*
X107650000Y-100243750D01*
X107650000Y-100756250D01*
X107648947Y-100777691D01*
X107645797Y-100798926D01*
X107640581Y-100819750D01*
X107633349Y-100839962D01*
X107624170Y-100859368D01*
X107613134Y-100877781D01*
X107600346Y-100895024D01*
X107585930Y-100910930D01*
X107570024Y-100925346D01*
X107552781Y-100938134D01*
X107534368Y-100949170D01*
X107514962Y-100958349D01*
X107494750Y-100965581D01*
X107473926Y-100970797D01*
X107452691Y-100973947D01*
X107431250Y-100975000D01*
X106993750Y-100975000D01*
X106972309Y-100973947D01*
X106951074Y-100970797D01*
X106930250Y-100965581D01*
X106910038Y-100958349D01*
X106890632Y-100949170D01*
X106872219Y-100938134D01*
X106854976Y-100925346D01*
X106839070Y-100910930D01*
X106824654Y-100895024D01*
X106811866Y-100877781D01*
X106800830Y-100859368D01*
X106791651Y-100839962D01*
X106784419Y-100819750D01*
X106779203Y-100798926D01*
X106776053Y-100777691D01*
X106775000Y-100756250D01*
X106775000Y-100243750D01*
X106776053Y-100222309D01*
X106779203Y-100201074D01*
X106784419Y-100180250D01*
X106791651Y-100160038D01*
X106800830Y-100140632D01*
X106811866Y-100122219D01*
X106824654Y-100104976D01*
X106839070Y-100089070D01*
X106854976Y-100074654D01*
X106872219Y-100061866D01*
X106890632Y-100050830D01*
X106910038Y-100041651D01*
X106930250Y-100034419D01*
X106951074Y-100029203D01*
X106972309Y-100026053D01*
X106993750Y-100025000D01*
X107431250Y-100025000D01*
X107452691Y-100026053D01*
X107452691Y-100026053D01*
G37*
D17*
G04 #@! TD*
G04 #@! TO.P,C4,2*
G04 #@! TO.N,GND*
X107212500Y-100500000D03*
D11*
G04 #@! TO.N,VCC*
G04 #@! TO.C,C4*
G36*
X109027691Y-100026053D02*
X109048926Y-100029203D01*
X109069750Y-100034419D01*
X109089962Y-100041651D01*
X109109368Y-100050830D01*
X109127781Y-100061866D01*
X109145024Y-100074654D01*
X109160930Y-100089070D01*
X109175346Y-100104976D01*
X109188134Y-100122219D01*
X109199170Y-100140632D01*
X109208349Y-100160038D01*
X109215581Y-100180250D01*
X109220797Y-100201074D01*
X109223947Y-100222309D01*
X109225000Y-100243750D01*
X109225000Y-100756250D01*
X109223947Y-100777691D01*
X109220797Y-100798926D01*
X109215581Y-100819750D01*
X109208349Y-100839962D01*
X109199170Y-100859368D01*
X109188134Y-100877781D01*
X109175346Y-100895024D01*
X109160930Y-100910930D01*
X109145024Y-100925346D01*
X109127781Y-100938134D01*
X109109368Y-100949170D01*
X109089962Y-100958349D01*
X109069750Y-100965581D01*
X109048926Y-100970797D01*
X109027691Y-100973947D01*
X109006250Y-100975000D01*
X108568750Y-100975000D01*
X108547309Y-100973947D01*
X108526074Y-100970797D01*
X108505250Y-100965581D01*
X108485038Y-100958349D01*
X108465632Y-100949170D01*
X108447219Y-100938134D01*
X108429976Y-100925346D01*
X108414070Y-100910930D01*
X108399654Y-100895024D01*
X108386866Y-100877781D01*
X108375830Y-100859368D01*
X108366651Y-100839962D01*
X108359419Y-100819750D01*
X108354203Y-100798926D01*
X108351053Y-100777691D01*
X108350000Y-100756250D01*
X108350000Y-100243750D01*
X108351053Y-100222309D01*
X108354203Y-100201074D01*
X108359419Y-100180250D01*
X108366651Y-100160038D01*
X108375830Y-100140632D01*
X108386866Y-100122219D01*
X108399654Y-100104976D01*
X108414070Y-100089070D01*
X108429976Y-100074654D01*
X108447219Y-100061866D01*
X108465632Y-100050830D01*
X108485038Y-100041651D01*
X108505250Y-100034419D01*
X108526074Y-100029203D01*
X108547309Y-100026053D01*
X108568750Y-100025000D01*
X109006250Y-100025000D01*
X109027691Y-100026053D01*
X109027691Y-100026053D01*
G37*
D17*
G04 #@! TD*
G04 #@! TO.P,C4,1*
G04 #@! TO.N,VCC*
X108787500Y-100500000D03*
D11*
G04 #@! TO.N,VDD*
G04 #@! TO.C,C3*
G36*
X104452691Y-100026053D02*
X104473926Y-100029203D01*
X104494750Y-100034419D01*
X104514962Y-100041651D01*
X104534368Y-100050830D01*
X104552781Y-100061866D01*
X104570024Y-100074654D01*
X104585930Y-100089070D01*
X104600346Y-100104976D01*
X104613134Y-100122219D01*
X104624170Y-100140632D01*
X104633349Y-100160038D01*
X104640581Y-100180250D01*
X104645797Y-100201074D01*
X104648947Y-100222309D01*
X104650000Y-100243750D01*
X104650000Y-100756250D01*
X104648947Y-100777691D01*
X104645797Y-100798926D01*
X104640581Y-100819750D01*
X104633349Y-100839962D01*
X104624170Y-100859368D01*
X104613134Y-100877781D01*
X104600346Y-100895024D01*
X104585930Y-100910930D01*
X104570024Y-100925346D01*
X104552781Y-100938134D01*
X104534368Y-100949170D01*
X104514962Y-100958349D01*
X104494750Y-100965581D01*
X104473926Y-100970797D01*
X104452691Y-100973947D01*
X104431250Y-100975000D01*
X103993750Y-100975000D01*
X103972309Y-100973947D01*
X103951074Y-100970797D01*
X103930250Y-100965581D01*
X103910038Y-100958349D01*
X103890632Y-100949170D01*
X103872219Y-100938134D01*
X103854976Y-100925346D01*
X103839070Y-100910930D01*
X103824654Y-100895024D01*
X103811866Y-100877781D01*
X103800830Y-100859368D01*
X103791651Y-100839962D01*
X103784419Y-100819750D01*
X103779203Y-100798926D01*
X103776053Y-100777691D01*
X103775000Y-100756250D01*
X103775000Y-100243750D01*
X103776053Y-100222309D01*
X103779203Y-100201074D01*
X103784419Y-100180250D01*
X103791651Y-100160038D01*
X103800830Y-100140632D01*
X103811866Y-100122219D01*
X103824654Y-100104976D01*
X103839070Y-100089070D01*
X103854976Y-100074654D01*
X103872219Y-100061866D01*
X103890632Y-100050830D01*
X103910038Y-100041651D01*
X103930250Y-100034419D01*
X103951074Y-100029203D01*
X103972309Y-100026053D01*
X103993750Y-100025000D01*
X104431250Y-100025000D01*
X104452691Y-100026053D01*
X104452691Y-100026053D01*
G37*
D17*
G04 #@! TD*
G04 #@! TO.P,C3,1*
G04 #@! TO.N,VDD*
X104212500Y-100500000D03*
D11*
G04 #@! TO.N,GND*
G04 #@! TO.C,C3*
G36*
X106027691Y-100026053D02*
X106048926Y-100029203D01*
X106069750Y-100034419D01*
X106089962Y-100041651D01*
X106109368Y-100050830D01*
X106127781Y-100061866D01*
X106145024Y-100074654D01*
X106160930Y-100089070D01*
X106175346Y-100104976D01*
X106188134Y-100122219D01*
X106199170Y-100140632D01*
X106208349Y-100160038D01*
X106215581Y-100180250D01*
X106220797Y-100201074D01*
X106223947Y-100222309D01*
X106225000Y-100243750D01*
X106225000Y-100756250D01*
X106223947Y-100777691D01*
X106220797Y-100798926D01*
X106215581Y-100819750D01*
X106208349Y-100839962D01*
X106199170Y-100859368D01*
X106188134Y-100877781D01*
X106175346Y-100895024D01*
X106160930Y-100910930D01*
X106145024Y-100925346D01*
X106127781Y-100938134D01*
X106109368Y-100949170D01*
X106089962Y-100958349D01*
X106069750Y-100965581D01*
X106048926Y-100970797D01*
X106027691Y-100973947D01*
X106006250Y-100975000D01*
X105568750Y-100975000D01*
X105547309Y-100973947D01*
X105526074Y-100970797D01*
X105505250Y-100965581D01*
X105485038Y-100958349D01*
X105465632Y-100949170D01*
X105447219Y-100938134D01*
X105429976Y-100925346D01*
X105414070Y-100910930D01*
X105399654Y-100895024D01*
X105386866Y-100877781D01*
X105375830Y-100859368D01*
X105366651Y-100839962D01*
X105359419Y-100819750D01*
X105354203Y-100798926D01*
X105351053Y-100777691D01*
X105350000Y-100756250D01*
X105350000Y-100243750D01*
X105351053Y-100222309D01*
X105354203Y-100201074D01*
X105359419Y-100180250D01*
X105366651Y-100160038D01*
X105375830Y-100140632D01*
X105386866Y-100122219D01*
X105399654Y-100104976D01*
X105414070Y-100089070D01*
X105429976Y-100074654D01*
X105447219Y-100061866D01*
X105465632Y-100050830D01*
X105485038Y-100041651D01*
X105505250Y-100034419D01*
X105526074Y-100029203D01*
X105547309Y-100026053D01*
X105568750Y-100025000D01*
X106006250Y-100025000D01*
X106027691Y-100026053D01*
X106027691Y-100026053D01*
G37*
D17*
G04 #@! TD*
G04 #@! TO.P,C3,2*
G04 #@! TO.N,GND*
X105787500Y-100500000D03*
D11*
G04 #@! TO.N,GND*
G04 #@! TO.C,D3*
G36*
X104830142Y-102801174D02*
X104853803Y-102804684D01*
X104877007Y-102810496D01*
X104899529Y-102818554D01*
X104921153Y-102828782D01*
X104941670Y-102841079D01*
X104960883Y-102855329D01*
X104978607Y-102871393D01*
X104994671Y-102889117D01*
X105008921Y-102908330D01*
X105021218Y-102928847D01*
X105031446Y-102950471D01*
X105039504Y-102972993D01*
X105045316Y-102996197D01*
X105048826Y-103019858D01*
X105050000Y-103043750D01*
X105050000Y-103956250D01*
X105048826Y-103980142D01*
X105045316Y-104003803D01*
X105039504Y-104027007D01*
X105031446Y-104049529D01*
X105021218Y-104071153D01*
X105008921Y-104091670D01*
X104994671Y-104110883D01*
X104978607Y-104128607D01*
X104960883Y-104144671D01*
X104941670Y-104158921D01*
X104921153Y-104171218D01*
X104899529Y-104181446D01*
X104877007Y-104189504D01*
X104853803Y-104195316D01*
X104830142Y-104198826D01*
X104806250Y-104200000D01*
X104318750Y-104200000D01*
X104294858Y-104198826D01*
X104271197Y-104195316D01*
X104247993Y-104189504D01*
X104225471Y-104181446D01*
X104203847Y-104171218D01*
X104183330Y-104158921D01*
X104164117Y-104144671D01*
X104146393Y-104128607D01*
X104130329Y-104110883D01*
X104116079Y-104091670D01*
X104103782Y-104071153D01*
X104093554Y-104049529D01*
X104085496Y-104027007D01*
X104079684Y-104003803D01*
X104076174Y-103980142D01*
X104075000Y-103956250D01*
X104075000Y-103043750D01*
X104076174Y-103019858D01*
X104079684Y-102996197D01*
X104085496Y-102972993D01*
X104093554Y-102950471D01*
X104103782Y-102928847D01*
X104116079Y-102908330D01*
X104130329Y-102889117D01*
X104146393Y-102871393D01*
X104164117Y-102855329D01*
X104183330Y-102841079D01*
X104203847Y-102828782D01*
X104225471Y-102818554D01*
X104247993Y-102810496D01*
X104271197Y-102804684D01*
X104294858Y-102801174D01*
X104318750Y-102800000D01*
X104806250Y-102800000D01*
X104830142Y-102801174D01*
X104830142Y-102801174D01*
G37*
D18*
G04 #@! TD*
G04 #@! TO.P,D3,1*
G04 #@! TO.N,GND*
X104562500Y-103500000D03*
D11*
G04 #@! TO.N,Net-(D3-Pad2)*
G04 #@! TO.C,D3*
G36*
X106705142Y-102801174D02*
X106728803Y-102804684D01*
X106752007Y-102810496D01*
X106774529Y-102818554D01*
X106796153Y-102828782D01*
X106816670Y-102841079D01*
X106835883Y-102855329D01*
X106853607Y-102871393D01*
X106869671Y-102889117D01*
X106883921Y-102908330D01*
X106896218Y-102928847D01*
X106906446Y-102950471D01*
X106914504Y-102972993D01*
X106920316Y-102996197D01*
X106923826Y-103019858D01*
X106925000Y-103043750D01*
X106925000Y-103956250D01*
X106923826Y-103980142D01*
X106920316Y-104003803D01*
X106914504Y-104027007D01*
X106906446Y-104049529D01*
X106896218Y-104071153D01*
X106883921Y-104091670D01*
X106869671Y-104110883D01*
X106853607Y-104128607D01*
X106835883Y-104144671D01*
X106816670Y-104158921D01*
X106796153Y-104171218D01*
X106774529Y-104181446D01*
X106752007Y-104189504D01*
X106728803Y-104195316D01*
X106705142Y-104198826D01*
X106681250Y-104200000D01*
X106193750Y-104200000D01*
X106169858Y-104198826D01*
X106146197Y-104195316D01*
X106122993Y-104189504D01*
X106100471Y-104181446D01*
X106078847Y-104171218D01*
X106058330Y-104158921D01*
X106039117Y-104144671D01*
X106021393Y-104128607D01*
X106005329Y-104110883D01*
X105991079Y-104091670D01*
X105978782Y-104071153D01*
X105968554Y-104049529D01*
X105960496Y-104027007D01*
X105954684Y-104003803D01*
X105951174Y-103980142D01*
X105950000Y-103956250D01*
X105950000Y-103043750D01*
X105951174Y-103019858D01*
X105954684Y-102996197D01*
X105960496Y-102972993D01*
X105968554Y-102950471D01*
X105978782Y-102928847D01*
X105991079Y-102908330D01*
X106005329Y-102889117D01*
X106021393Y-102871393D01*
X106039117Y-102855329D01*
X106058330Y-102841079D01*
X106078847Y-102828782D01*
X106100471Y-102818554D01*
X106122993Y-102810496D01*
X106146197Y-102804684D01*
X106169858Y-102801174D01*
X106193750Y-102800000D01*
X106681250Y-102800000D01*
X106705142Y-102801174D01*
X106705142Y-102801174D01*
G37*
D18*
G04 #@! TD*
G04 #@! TO.P,D3,2*
G04 #@! TO.N,Net-(D3-Pad2)*
X106437500Y-103500000D03*
D11*
G04 #@! TO.N,VCC*
G04 #@! TO.C,R5*
G36*
X120277691Y-100563554D02*
X120298926Y-100566704D01*
X120319750Y-100571920D01*
X120339962Y-100579152D01*
X120359368Y-100588331D01*
X120377781Y-100599367D01*
X120395024Y-100612155D01*
X120410930Y-100626571D01*
X120425346Y-100642477D01*
X120438134Y-100659720D01*
X120449170Y-100678133D01*
X120458349Y-100697539D01*
X120465581Y-100717751D01*
X120470797Y-100738575D01*
X120473947Y-100759810D01*
X120475000Y-100781251D01*
X120475000Y-101218751D01*
X120473947Y-101240192D01*
X120470797Y-101261427D01*
X120465581Y-101282251D01*
X120458349Y-101302463D01*
X120449170Y-101321869D01*
X120438134Y-101340282D01*
X120425346Y-101357525D01*
X120410930Y-101373431D01*
X120395024Y-101387847D01*
X120377781Y-101400635D01*
X120359368Y-101411671D01*
X120339962Y-101420850D01*
X120319750Y-101428082D01*
X120298926Y-101433298D01*
X120277691Y-101436448D01*
X120256250Y-101437501D01*
X119743750Y-101437501D01*
X119722309Y-101436448D01*
X119701074Y-101433298D01*
X119680250Y-101428082D01*
X119660038Y-101420850D01*
X119640632Y-101411671D01*
X119622219Y-101400635D01*
X119604976Y-101387847D01*
X119589070Y-101373431D01*
X119574654Y-101357525D01*
X119561866Y-101340282D01*
X119550830Y-101321869D01*
X119541651Y-101302463D01*
X119534419Y-101282251D01*
X119529203Y-101261427D01*
X119526053Y-101240192D01*
X119525000Y-101218751D01*
X119525000Y-100781251D01*
X119526053Y-100759810D01*
X119529203Y-100738575D01*
X119534419Y-100717751D01*
X119541651Y-100697539D01*
X119550830Y-100678133D01*
X119561866Y-100659720D01*
X119574654Y-100642477D01*
X119589070Y-100626571D01*
X119604976Y-100612155D01*
X119622219Y-100599367D01*
X119640632Y-100588331D01*
X119660038Y-100579152D01*
X119680250Y-100571920D01*
X119701074Y-100566704D01*
X119722309Y-100563554D01*
X119743750Y-100562501D01*
X120256250Y-100562501D01*
X120277691Y-100563554D01*
X120277691Y-100563554D01*
G37*
D17*
G04 #@! TD*
G04 #@! TO.P,R5,1*
G04 #@! TO.N,VCC*
X120000000Y-101000001D03*
D11*
G04 #@! TO.N,SCL*
G04 #@! TO.C,R5*
G36*
X120277691Y-102138554D02*
X120298926Y-102141704D01*
X120319750Y-102146920D01*
X120339962Y-102154152D01*
X120359368Y-102163331D01*
X120377781Y-102174367D01*
X120395024Y-102187155D01*
X120410930Y-102201571D01*
X120425346Y-102217477D01*
X120438134Y-102234720D01*
X120449170Y-102253133D01*
X120458349Y-102272539D01*
X120465581Y-102292751D01*
X120470797Y-102313575D01*
X120473947Y-102334810D01*
X120475000Y-102356251D01*
X120475000Y-102793751D01*
X120473947Y-102815192D01*
X120470797Y-102836427D01*
X120465581Y-102857251D01*
X120458349Y-102877463D01*
X120449170Y-102896869D01*
X120438134Y-102915282D01*
X120425346Y-102932525D01*
X120410930Y-102948431D01*
X120395024Y-102962847D01*
X120377781Y-102975635D01*
X120359368Y-102986671D01*
X120339962Y-102995850D01*
X120319750Y-103003082D01*
X120298926Y-103008298D01*
X120277691Y-103011448D01*
X120256250Y-103012501D01*
X119743750Y-103012501D01*
X119722309Y-103011448D01*
X119701074Y-103008298D01*
X119680250Y-103003082D01*
X119660038Y-102995850D01*
X119640632Y-102986671D01*
X119622219Y-102975635D01*
X119604976Y-102962847D01*
X119589070Y-102948431D01*
X119574654Y-102932525D01*
X119561866Y-102915282D01*
X119550830Y-102896869D01*
X119541651Y-102877463D01*
X119534419Y-102857251D01*
X119529203Y-102836427D01*
X119526053Y-102815192D01*
X119525000Y-102793751D01*
X119525000Y-102356251D01*
X119526053Y-102334810D01*
X119529203Y-102313575D01*
X119534419Y-102292751D01*
X119541651Y-102272539D01*
X119550830Y-102253133D01*
X119561866Y-102234720D01*
X119574654Y-102217477D01*
X119589070Y-102201571D01*
X119604976Y-102187155D01*
X119622219Y-102174367D01*
X119640632Y-102163331D01*
X119660038Y-102154152D01*
X119680250Y-102146920D01*
X119701074Y-102141704D01*
X119722309Y-102138554D01*
X119743750Y-102137501D01*
X120256250Y-102137501D01*
X120277691Y-102138554D01*
X120277691Y-102138554D01*
G37*
D17*
G04 #@! TD*
G04 #@! TO.P,R5,2*
G04 #@! TO.N,SCL*
X120000000Y-102575001D03*
D11*
G04 #@! TO.N,SDA*
G04 #@! TO.C,R4*
G36*
X120277691Y-96776053D02*
X120298926Y-96779203D01*
X120319750Y-96784419D01*
X120339962Y-96791651D01*
X120359368Y-96800830D01*
X120377781Y-96811866D01*
X120395024Y-96824654D01*
X120410930Y-96839070D01*
X120425346Y-96854976D01*
X120438134Y-96872219D01*
X120449170Y-96890632D01*
X120458349Y-96910038D01*
X120465581Y-96930250D01*
X120470797Y-96951074D01*
X120473947Y-96972309D01*
X120475000Y-96993750D01*
X120475000Y-97431250D01*
X120473947Y-97452691D01*
X120470797Y-97473926D01*
X120465581Y-97494750D01*
X120458349Y-97514962D01*
X120449170Y-97534368D01*
X120438134Y-97552781D01*
X120425346Y-97570024D01*
X120410930Y-97585930D01*
X120395024Y-97600346D01*
X120377781Y-97613134D01*
X120359368Y-97624170D01*
X120339962Y-97633349D01*
X120319750Y-97640581D01*
X120298926Y-97645797D01*
X120277691Y-97648947D01*
X120256250Y-97650000D01*
X119743750Y-97650000D01*
X119722309Y-97648947D01*
X119701074Y-97645797D01*
X119680250Y-97640581D01*
X119660038Y-97633349D01*
X119640632Y-97624170D01*
X119622219Y-97613134D01*
X119604976Y-97600346D01*
X119589070Y-97585930D01*
X119574654Y-97570024D01*
X119561866Y-97552781D01*
X119550830Y-97534368D01*
X119541651Y-97514962D01*
X119534419Y-97494750D01*
X119529203Y-97473926D01*
X119526053Y-97452691D01*
X119525000Y-97431250D01*
X119525000Y-96993750D01*
X119526053Y-96972309D01*
X119529203Y-96951074D01*
X119534419Y-96930250D01*
X119541651Y-96910038D01*
X119550830Y-96890632D01*
X119561866Y-96872219D01*
X119574654Y-96854976D01*
X119589070Y-96839070D01*
X119604976Y-96824654D01*
X119622219Y-96811866D01*
X119640632Y-96800830D01*
X119660038Y-96791651D01*
X119680250Y-96784419D01*
X119701074Y-96779203D01*
X119722309Y-96776053D01*
X119743750Y-96775000D01*
X120256250Y-96775000D01*
X120277691Y-96776053D01*
X120277691Y-96776053D01*
G37*
D17*
G04 #@! TD*
G04 #@! TO.P,R4,2*
G04 #@! TO.N,SDA*
X120000000Y-97212500D03*
D11*
G04 #@! TO.N,VCC*
G04 #@! TO.C,R4*
G36*
X120277691Y-98351053D02*
X120298926Y-98354203D01*
X120319750Y-98359419D01*
X120339962Y-98366651D01*
X120359368Y-98375830D01*
X120377781Y-98386866D01*
X120395024Y-98399654D01*
X120410930Y-98414070D01*
X120425346Y-98429976D01*
X120438134Y-98447219D01*
X120449170Y-98465632D01*
X120458349Y-98485038D01*
X120465581Y-98505250D01*
X120470797Y-98526074D01*
X120473947Y-98547309D01*
X120475000Y-98568750D01*
X120475000Y-99006250D01*
X120473947Y-99027691D01*
X120470797Y-99048926D01*
X120465581Y-99069750D01*
X120458349Y-99089962D01*
X120449170Y-99109368D01*
X120438134Y-99127781D01*
X120425346Y-99145024D01*
X120410930Y-99160930D01*
X120395024Y-99175346D01*
X120377781Y-99188134D01*
X120359368Y-99199170D01*
X120339962Y-99208349D01*
X120319750Y-99215581D01*
X120298926Y-99220797D01*
X120277691Y-99223947D01*
X120256250Y-99225000D01*
X119743750Y-99225000D01*
X119722309Y-99223947D01*
X119701074Y-99220797D01*
X119680250Y-99215581D01*
X119660038Y-99208349D01*
X119640632Y-99199170D01*
X119622219Y-99188134D01*
X119604976Y-99175346D01*
X119589070Y-99160930D01*
X119574654Y-99145024D01*
X119561866Y-99127781D01*
X119550830Y-99109368D01*
X119541651Y-99089962D01*
X119534419Y-99069750D01*
X119529203Y-99048926D01*
X119526053Y-99027691D01*
X119525000Y-99006250D01*
X119525000Y-98568750D01*
X119526053Y-98547309D01*
X119529203Y-98526074D01*
X119534419Y-98505250D01*
X119541651Y-98485038D01*
X119550830Y-98465632D01*
X119561866Y-98447219D01*
X119574654Y-98429976D01*
X119589070Y-98414070D01*
X119604976Y-98399654D01*
X119622219Y-98386866D01*
X119640632Y-98375830D01*
X119660038Y-98366651D01*
X119680250Y-98359419D01*
X119701074Y-98354203D01*
X119722309Y-98351053D01*
X119743750Y-98350000D01*
X120256250Y-98350000D01*
X120277691Y-98351053D01*
X120277691Y-98351053D01*
G37*
D17*
G04 #@! TD*
G04 #@! TO.P,R4,1*
G04 #@! TO.N,VCC*
X120000000Y-98787500D03*
D11*
G04 #@! TO.N,Net-(D3-Pad2)*
G04 #@! TO.C,R3*
G36*
X108452691Y-102026053D02*
X108473926Y-102029203D01*
X108494750Y-102034419D01*
X108514962Y-102041651D01*
X108534368Y-102050830D01*
X108552781Y-102061866D01*
X108570024Y-102074654D01*
X108585930Y-102089070D01*
X108600346Y-102104976D01*
X108613134Y-102122219D01*
X108624170Y-102140632D01*
X108633349Y-102160038D01*
X108640581Y-102180250D01*
X108645797Y-102201074D01*
X108648947Y-102222309D01*
X108650000Y-102243750D01*
X108650000Y-102756250D01*
X108648947Y-102777691D01*
X108645797Y-102798926D01*
X108640581Y-102819750D01*
X108633349Y-102839962D01*
X108624170Y-102859368D01*
X108613134Y-102877781D01*
X108600346Y-102895024D01*
X108585930Y-102910930D01*
X108570024Y-102925346D01*
X108552781Y-102938134D01*
X108534368Y-102949170D01*
X108514962Y-102958349D01*
X108494750Y-102965581D01*
X108473926Y-102970797D01*
X108452691Y-102973947D01*
X108431250Y-102975000D01*
X107993750Y-102975000D01*
X107972309Y-102973947D01*
X107951074Y-102970797D01*
X107930250Y-102965581D01*
X107910038Y-102958349D01*
X107890632Y-102949170D01*
X107872219Y-102938134D01*
X107854976Y-102925346D01*
X107839070Y-102910930D01*
X107824654Y-102895024D01*
X107811866Y-102877781D01*
X107800830Y-102859368D01*
X107791651Y-102839962D01*
X107784419Y-102819750D01*
X107779203Y-102798926D01*
X107776053Y-102777691D01*
X107775000Y-102756250D01*
X107775000Y-102243750D01*
X107776053Y-102222309D01*
X107779203Y-102201074D01*
X107784419Y-102180250D01*
X107791651Y-102160038D01*
X107800830Y-102140632D01*
X107811866Y-102122219D01*
X107824654Y-102104976D01*
X107839070Y-102089070D01*
X107854976Y-102074654D01*
X107872219Y-102061866D01*
X107890632Y-102050830D01*
X107910038Y-102041651D01*
X107930250Y-102034419D01*
X107951074Y-102029203D01*
X107972309Y-102026053D01*
X107993750Y-102025000D01*
X108431250Y-102025000D01*
X108452691Y-102026053D01*
X108452691Y-102026053D01*
G37*
D17*
G04 #@! TD*
G04 #@! TO.P,R3,1*
G04 #@! TO.N,Net-(D3-Pad2)*
X108212500Y-102500000D03*
D11*
G04 #@! TO.N,VCC*
G04 #@! TO.C,R3*
G36*
X110027691Y-102026053D02*
X110048926Y-102029203D01*
X110069750Y-102034419D01*
X110089962Y-102041651D01*
X110109368Y-102050830D01*
X110127781Y-102061866D01*
X110145024Y-102074654D01*
X110160930Y-102089070D01*
X110175346Y-102104976D01*
X110188134Y-102122219D01*
X110199170Y-102140632D01*
X110208349Y-102160038D01*
X110215581Y-102180250D01*
X110220797Y-102201074D01*
X110223947Y-102222309D01*
X110225000Y-102243750D01*
X110225000Y-102756250D01*
X110223947Y-102777691D01*
X110220797Y-102798926D01*
X110215581Y-102819750D01*
X110208349Y-102839962D01*
X110199170Y-102859368D01*
X110188134Y-102877781D01*
X110175346Y-102895024D01*
X110160930Y-102910930D01*
X110145024Y-102925346D01*
X110127781Y-102938134D01*
X110109368Y-102949170D01*
X110089962Y-102958349D01*
X110069750Y-102965581D01*
X110048926Y-102970797D01*
X110027691Y-102973947D01*
X110006250Y-102975000D01*
X109568750Y-102975000D01*
X109547309Y-102973947D01*
X109526074Y-102970797D01*
X109505250Y-102965581D01*
X109485038Y-102958349D01*
X109465632Y-102949170D01*
X109447219Y-102938134D01*
X109429976Y-102925346D01*
X109414070Y-102910930D01*
X109399654Y-102895024D01*
X109386866Y-102877781D01*
X109375830Y-102859368D01*
X109366651Y-102839962D01*
X109359419Y-102819750D01*
X109354203Y-102798926D01*
X109351053Y-102777691D01*
X109350000Y-102756250D01*
X109350000Y-102243750D01*
X109351053Y-102222309D01*
X109354203Y-102201074D01*
X109359419Y-102180250D01*
X109366651Y-102160038D01*
X109375830Y-102140632D01*
X109386866Y-102122219D01*
X109399654Y-102104976D01*
X109414070Y-102089070D01*
X109429976Y-102074654D01*
X109447219Y-102061866D01*
X109465632Y-102050830D01*
X109485038Y-102041651D01*
X109505250Y-102034419D01*
X109526074Y-102029203D01*
X109547309Y-102026053D01*
X109568750Y-102025000D01*
X110006250Y-102025000D01*
X110027691Y-102026053D01*
X110027691Y-102026053D01*
G37*
D17*
G04 #@! TD*
G04 #@! TO.P,R3,2*
G04 #@! TO.N,VCC*
X109787500Y-102500000D03*
D19*
G04 #@! TO.P,P1,1*
G04 #@! TO.N,VCC*
X124412000Y-101905000D03*
D20*
G04 #@! TO.P,P1,2*
G04 #@! TO.N,SCL*
X126317000Y-101905000D03*
G04 #@! TO.P,P1,3*
G04 #@! TO.N,Net-(P1-Pad3)*
X124412000Y-100000000D03*
G04 #@! TO.P,P1,4*
G04 #@! TO.N,Net-(P1-Pad4)*
X126317000Y-100000000D03*
G04 #@! TO.P,P1,5*
G04 #@! TO.N,SDA*
X124412000Y-98095000D03*
G04 #@! TO.P,P1,6*
G04 #@! TO.N,GND*
X126317000Y-98095000D03*
D21*
G04 #@! TO.P,P1,*
G04 #@! TO.N,*
X127206000Y-106350000D03*
X132540000Y-93650000D03*
X132540000Y-106350000D03*
X127206000Y-93650000D03*
G04 #@! TD*
D22*
G04 #@! TO.N,SDA*
X102500000Y-99000000D03*
G04 #@! TO.N,GND*
X106500000Y-95000000D03*
X106500000Y-93000000D03*
X106500000Y-102000000D03*
X120000000Y-104500000D03*
X120000000Y-95500000D03*
G04 #@! TD*
D23*
G04 #@! TO.N,SDA*
X102375000Y-99000000D02*
X102500000Y-99000000D01*
X100000000Y-101250000D02*
X100125000Y-101250000D01*
X100125000Y-101250000D02*
X102375000Y-99000000D01*
X121425000Y-97212500D02*
X121500000Y-97287500D01*
X120000000Y-97212500D02*
X121425000Y-97212500D01*
X123604500Y-97287500D02*
X124412000Y-98095000D01*
X121500000Y-97287500D02*
X123604500Y-97287500D01*
G04 #@! TO.N,SCL*
X121362501Y-102575001D02*
X121500000Y-102712500D01*
X120000000Y-102575001D02*
X121362501Y-102575001D01*
X125047888Y-103174112D02*
X121961612Y-103174112D01*
X126317000Y-101905000D02*
X125047888Y-103174112D01*
X121961612Y-103174112D02*
X121500000Y-102712500D01*
G04 #@! TO.N,Net-(D3-Pad2)*
X107212500Y-103500000D02*
X108212500Y-102500000D01*
X106437500Y-103500000D02*
X107212500Y-103500000D01*
G04 #@! TD*
D24*
G04 #@! TO.N,VDD*
G36*
X105257322Y-96436928D02*
X105250000Y-96444250D01*
X105250000Y-97707000D01*
X105293000Y-97707000D01*
X105293000Y-98253000D01*
X105250000Y-98253000D01*
X105250000Y-99515750D01*
X105277322Y-99543072D01*
X104982922Y-99837472D01*
X104945942Y-99782126D01*
X104892873Y-99729058D01*
X104830471Y-99687362D01*
X104761133Y-99658642D01*
X104687525Y-99644000D01*
X104526500Y-99644000D01*
X104431250Y-99739250D01*
X104431250Y-100262500D01*
X104505500Y-100262500D01*
X104505500Y-100737500D01*
X104431250Y-100737500D01*
X104431250Y-101260750D01*
X104526500Y-101356000D01*
X104687525Y-101356000D01*
X104761133Y-101341358D01*
X104830471Y-101312638D01*
X104873000Y-101284221D01*
X104873000Y-101373000D01*
X103127000Y-101373000D01*
X103127000Y-100832750D01*
X103394000Y-100832750D01*
X103394000Y-101012525D01*
X103408642Y-101086134D01*
X103437362Y-101155471D01*
X103479058Y-101217874D01*
X103532127Y-101270942D01*
X103594529Y-101312638D01*
X103663867Y-101341358D01*
X103737475Y-101356000D01*
X103898500Y-101356000D01*
X103993750Y-101260750D01*
X103993750Y-100737500D01*
X103489250Y-100737500D01*
X103394000Y-100832750D01*
X103127000Y-100832750D01*
X103127000Y-99987475D01*
X103394000Y-99987475D01*
X103394000Y-100167250D01*
X103489250Y-100262500D01*
X103993750Y-100262500D01*
X103993750Y-99739250D01*
X103898500Y-99644000D01*
X103737475Y-99644000D01*
X103663867Y-99658642D01*
X103594529Y-99687362D01*
X103532127Y-99729058D01*
X103479058Y-99782126D01*
X103437362Y-99844529D01*
X103408642Y-99913866D01*
X103394000Y-99987475D01*
X103127000Y-99987475D01*
X103127000Y-99467391D01*
X103192113Y-99369942D01*
X103250987Y-99227809D01*
X103281000Y-99076922D01*
X103281000Y-98923078D01*
X103250987Y-98772191D01*
X103192113Y-98630058D01*
X103127000Y-98532609D01*
X103127000Y-98348250D01*
X104119000Y-98348250D01*
X104119000Y-99267525D01*
X104133642Y-99341134D01*
X104162362Y-99410471D01*
X104204058Y-99472874D01*
X104257127Y-99525942D01*
X104319529Y-99567638D01*
X104388867Y-99596358D01*
X104462475Y-99611000D01*
X104654750Y-99611000D01*
X104750000Y-99515750D01*
X104750000Y-98253000D01*
X104214250Y-98253000D01*
X104119000Y-98348250D01*
X103127000Y-98348250D01*
X103127000Y-98000000D01*
X103124560Y-97975224D01*
X103117333Y-97951399D01*
X103105597Y-97929443D01*
X103089803Y-97910197D01*
X102589803Y-97410197D01*
X102570557Y-97394403D01*
X102548601Y-97382667D01*
X102524776Y-97375440D01*
X102500000Y-97373000D01*
X101240816Y-97373000D01*
X101270942Y-97342873D01*
X101312638Y-97280471D01*
X101341358Y-97211133D01*
X101356000Y-97137525D01*
X101356000Y-96692475D01*
X104119000Y-96692475D01*
X104119000Y-97611750D01*
X104214250Y-97707000D01*
X104750000Y-97707000D01*
X104750000Y-96444250D01*
X104654750Y-96349000D01*
X104462475Y-96349000D01*
X104388867Y-96363642D01*
X104319529Y-96392362D01*
X104257127Y-96434058D01*
X104204058Y-96487126D01*
X104162362Y-96549529D01*
X104133642Y-96618866D01*
X104119000Y-96692475D01*
X101356000Y-96692475D01*
X101356000Y-96618250D01*
X101260750Y-96523000D01*
X100273000Y-96523000D01*
X100273000Y-96543000D01*
X99727000Y-96543000D01*
X99727000Y-96523000D01*
X98739250Y-96523000D01*
X98644000Y-96618250D01*
X98644000Y-96964394D01*
X98627000Y-96947394D01*
X98627000Y-95362475D01*
X98644000Y-95362475D01*
X98644000Y-95881750D01*
X98739250Y-95977000D01*
X99727000Y-95977000D01*
X99727000Y-95114250D01*
X100273000Y-95114250D01*
X100273000Y-95977000D01*
X101260750Y-95977000D01*
X101356000Y-95881750D01*
X101356000Y-95362475D01*
X101341358Y-95288867D01*
X101312638Y-95219529D01*
X101270942Y-95157127D01*
X101217874Y-95104058D01*
X101155471Y-95062362D01*
X101086134Y-95033642D01*
X101012525Y-95019000D01*
X100368250Y-95019000D01*
X100273000Y-95114250D01*
X99727000Y-95114250D01*
X99631750Y-95019000D01*
X98987475Y-95019000D01*
X98913866Y-95033642D01*
X98844529Y-95062362D01*
X98782126Y-95104058D01*
X98729058Y-95157127D01*
X98687362Y-95219529D01*
X98658642Y-95288867D01*
X98644000Y-95362475D01*
X98627000Y-95362475D01*
X98627000Y-95052606D01*
X99052606Y-94627000D01*
X103447394Y-94627000D01*
X105257322Y-96436928D01*
X105257322Y-96436928D01*
G37*
X105257322Y-96436928D02*
X105250000Y-96444250D01*
X105250000Y-97707000D01*
X105293000Y-97707000D01*
X105293000Y-98253000D01*
X105250000Y-98253000D01*
X105250000Y-99515750D01*
X105277322Y-99543072D01*
X104982922Y-99837472D01*
X104945942Y-99782126D01*
X104892873Y-99729058D01*
X104830471Y-99687362D01*
X104761133Y-99658642D01*
X104687525Y-99644000D01*
X104526500Y-99644000D01*
X104431250Y-99739250D01*
X104431250Y-100262500D01*
X104505500Y-100262500D01*
X104505500Y-100737500D01*
X104431250Y-100737500D01*
X104431250Y-101260750D01*
X104526500Y-101356000D01*
X104687525Y-101356000D01*
X104761133Y-101341358D01*
X104830471Y-101312638D01*
X104873000Y-101284221D01*
X104873000Y-101373000D01*
X103127000Y-101373000D01*
X103127000Y-100832750D01*
X103394000Y-100832750D01*
X103394000Y-101012525D01*
X103408642Y-101086134D01*
X103437362Y-101155471D01*
X103479058Y-101217874D01*
X103532127Y-101270942D01*
X103594529Y-101312638D01*
X103663867Y-101341358D01*
X103737475Y-101356000D01*
X103898500Y-101356000D01*
X103993750Y-101260750D01*
X103993750Y-100737500D01*
X103489250Y-100737500D01*
X103394000Y-100832750D01*
X103127000Y-100832750D01*
X103127000Y-99987475D01*
X103394000Y-99987475D01*
X103394000Y-100167250D01*
X103489250Y-100262500D01*
X103993750Y-100262500D01*
X103993750Y-99739250D01*
X103898500Y-99644000D01*
X103737475Y-99644000D01*
X103663867Y-99658642D01*
X103594529Y-99687362D01*
X103532127Y-99729058D01*
X103479058Y-99782126D01*
X103437362Y-99844529D01*
X103408642Y-99913866D01*
X103394000Y-99987475D01*
X103127000Y-99987475D01*
X103127000Y-99467391D01*
X103192113Y-99369942D01*
X103250987Y-99227809D01*
X103281000Y-99076922D01*
X103281000Y-98923078D01*
X103250987Y-98772191D01*
X103192113Y-98630058D01*
X103127000Y-98532609D01*
X103127000Y-98348250D01*
X104119000Y-98348250D01*
X104119000Y-99267525D01*
X104133642Y-99341134D01*
X104162362Y-99410471D01*
X104204058Y-99472874D01*
X104257127Y-99525942D01*
X104319529Y-99567638D01*
X104388867Y-99596358D01*
X104462475Y-99611000D01*
X104654750Y-99611000D01*
X104750000Y-99515750D01*
X104750000Y-98253000D01*
X104214250Y-98253000D01*
X104119000Y-98348250D01*
X103127000Y-98348250D01*
X103127000Y-98000000D01*
X103124560Y-97975224D01*
X103117333Y-97951399D01*
X103105597Y-97929443D01*
X103089803Y-97910197D01*
X102589803Y-97410197D01*
X102570557Y-97394403D01*
X102548601Y-97382667D01*
X102524776Y-97375440D01*
X102500000Y-97373000D01*
X101240816Y-97373000D01*
X101270942Y-97342873D01*
X101312638Y-97280471D01*
X101341358Y-97211133D01*
X101356000Y-97137525D01*
X101356000Y-96692475D01*
X104119000Y-96692475D01*
X104119000Y-97611750D01*
X104214250Y-97707000D01*
X104750000Y-97707000D01*
X104750000Y-96444250D01*
X104654750Y-96349000D01*
X104462475Y-96349000D01*
X104388867Y-96363642D01*
X104319529Y-96392362D01*
X104257127Y-96434058D01*
X104204058Y-96487126D01*
X104162362Y-96549529D01*
X104133642Y-96618866D01*
X104119000Y-96692475D01*
X101356000Y-96692475D01*
X101356000Y-96618250D01*
X101260750Y-96523000D01*
X100273000Y-96523000D01*
X100273000Y-96543000D01*
X99727000Y-96543000D01*
X99727000Y-96523000D01*
X98739250Y-96523000D01*
X98644000Y-96618250D01*
X98644000Y-96964394D01*
X98627000Y-96947394D01*
X98627000Y-95362475D01*
X98644000Y-95362475D01*
X98644000Y-95881750D01*
X98739250Y-95977000D01*
X99727000Y-95977000D01*
X99727000Y-95114250D01*
X100273000Y-95114250D01*
X100273000Y-95977000D01*
X101260750Y-95977000D01*
X101356000Y-95881750D01*
X101356000Y-95362475D01*
X101341358Y-95288867D01*
X101312638Y-95219529D01*
X101270942Y-95157127D01*
X101217874Y-95104058D01*
X101155471Y-95062362D01*
X101086134Y-95033642D01*
X101012525Y-95019000D01*
X100368250Y-95019000D01*
X100273000Y-95114250D01*
X99727000Y-95114250D01*
X99631750Y-95019000D01*
X98987475Y-95019000D01*
X98913866Y-95033642D01*
X98844529Y-95062362D01*
X98782126Y-95104058D01*
X98729058Y-95157127D01*
X98687362Y-95219529D01*
X98658642Y-95288867D01*
X98644000Y-95362475D01*
X98627000Y-95362475D01*
X98627000Y-95052606D01*
X99052606Y-94627000D01*
X103447394Y-94627000D01*
X105257322Y-96436928D01*
G04 #@! TO.N,VCC*
G36*
X114410197Y-98089803D02*
X114429443Y-98105597D01*
X114451399Y-98117333D01*
X114475224Y-98124560D01*
X114500000Y-98127000D01*
X119215779Y-98127000D01*
X119187362Y-98169529D01*
X119158642Y-98238867D01*
X119144000Y-98312475D01*
X119144000Y-98473500D01*
X119239250Y-98568750D01*
X119762500Y-98568750D01*
X119762500Y-98494500D01*
X120237500Y-98494500D01*
X120237500Y-98568750D01*
X120293000Y-98568750D01*
X120293000Y-99006250D01*
X120237500Y-99006250D01*
X120237500Y-99510750D01*
X120332750Y-99606000D01*
X120512525Y-99606000D01*
X120586134Y-99591358D01*
X120655471Y-99562638D01*
X120717874Y-99520942D01*
X120770942Y-99467873D01*
X120812638Y-99405471D01*
X120841358Y-99336133D01*
X120856000Y-99262525D01*
X120856000Y-99101500D01*
X120815002Y-99060502D01*
X120856000Y-99060502D01*
X120856000Y-99035606D01*
X122910197Y-101089803D01*
X122929443Y-101105597D01*
X122951399Y-101117333D01*
X122975224Y-101124560D01*
X123000000Y-101127000D01*
X123423841Y-101127000D01*
X123410642Y-101158867D01*
X123396000Y-101232475D01*
X123396000Y-101536750D01*
X123491250Y-101632000D01*
X124139000Y-101632000D01*
X124139000Y-101612000D01*
X124685000Y-101612000D01*
X124685000Y-101632000D01*
X124705000Y-101632000D01*
X124705000Y-102178000D01*
X124685000Y-102178000D01*
X124685000Y-102198000D01*
X124139000Y-102198000D01*
X124139000Y-102178000D01*
X123491250Y-102178000D01*
X123396000Y-102273250D01*
X123396000Y-102577525D01*
X123410642Y-102651133D01*
X123417675Y-102668112D01*
X122357843Y-102668112D01*
X122357843Y-102493750D01*
X122346284Y-102376385D01*
X122312049Y-102263530D01*
X122256456Y-102159523D01*
X122181640Y-102068360D01*
X122090477Y-101993544D01*
X121986470Y-101937951D01*
X121873615Y-101903716D01*
X121756250Y-101892157D01*
X121566355Y-101892157D01*
X121548601Y-101882667D01*
X121524776Y-101875440D01*
X121500000Y-101873000D01*
X120611137Y-101873000D01*
X120590477Y-101856045D01*
X120518146Y-101817383D01*
X120586134Y-101803859D01*
X120655471Y-101775139D01*
X120717874Y-101733443D01*
X120770942Y-101680374D01*
X120812638Y-101617972D01*
X120841358Y-101548634D01*
X120856000Y-101475026D01*
X120856000Y-101314001D01*
X120760750Y-101218751D01*
X120237500Y-101218751D01*
X120237500Y-101293001D01*
X119762500Y-101293001D01*
X119762500Y-101218751D01*
X119239250Y-101218751D01*
X119144000Y-101314001D01*
X119144000Y-101475026D01*
X119158642Y-101548634D01*
X119187362Y-101617972D01*
X119229058Y-101680374D01*
X119282126Y-101733443D01*
X119344529Y-101775139D01*
X119413866Y-101803859D01*
X119481854Y-101817383D01*
X119409523Y-101856045D01*
X119388863Y-101873000D01*
X114500000Y-101873000D01*
X114475224Y-101875440D01*
X114451399Y-101882667D01*
X114429443Y-101894403D01*
X114410197Y-101910197D01*
X112447394Y-103873000D01*
X109552606Y-103873000D01*
X109127000Y-103447394D01*
X109127000Y-103284221D01*
X109169529Y-103312638D01*
X109238867Y-103341358D01*
X109312475Y-103356000D01*
X109473500Y-103356000D01*
X109568750Y-103260750D01*
X109568750Y-102737500D01*
X110006250Y-102737500D01*
X110006250Y-103260750D01*
X110101500Y-103356000D01*
X110262525Y-103356000D01*
X110336133Y-103341358D01*
X110405471Y-103312638D01*
X110467873Y-103270942D01*
X110520942Y-103217874D01*
X110562638Y-103155471D01*
X110591358Y-103086134D01*
X110606000Y-103012525D01*
X110606000Y-102832750D01*
X110510750Y-102737500D01*
X110006250Y-102737500D01*
X109568750Y-102737500D01*
X109494500Y-102737500D01*
X109494500Y-102262500D01*
X109568750Y-102262500D01*
X109568750Y-101739250D01*
X110006250Y-101739250D01*
X110006250Y-102262500D01*
X110510750Y-102262500D01*
X110606000Y-102167250D01*
X110606000Y-101987475D01*
X110591358Y-101913866D01*
X110562638Y-101844529D01*
X110520942Y-101782126D01*
X110467873Y-101729058D01*
X110405471Y-101687362D01*
X110336133Y-101658642D01*
X110262525Y-101644000D01*
X110101500Y-101644000D01*
X110006250Y-101739250D01*
X109568750Y-101739250D01*
X109473500Y-101644000D01*
X109312475Y-101644000D01*
X109238867Y-101658642D01*
X109169529Y-101687362D01*
X109107127Y-101729058D01*
X109054058Y-101782126D01*
X109017078Y-101837472D01*
X108504553Y-101324947D01*
X108568750Y-101260750D01*
X108568750Y-100737500D01*
X109006250Y-100737500D01*
X109006250Y-101260750D01*
X109101500Y-101356000D01*
X109262525Y-101356000D01*
X109336133Y-101341358D01*
X109405471Y-101312638D01*
X109467873Y-101270942D01*
X109520942Y-101217874D01*
X109562638Y-101155471D01*
X109591358Y-101086134D01*
X109606000Y-101012525D01*
X109606000Y-100832750D01*
X109510750Y-100737500D01*
X109006250Y-100737500D01*
X108568750Y-100737500D01*
X108494500Y-100737500D01*
X108494500Y-100524976D01*
X119144000Y-100524976D01*
X119144000Y-100686001D01*
X119239250Y-100781251D01*
X119762500Y-100781251D01*
X119762500Y-100276751D01*
X120237500Y-100276751D01*
X120237500Y-100781251D01*
X120760750Y-100781251D01*
X120856000Y-100686001D01*
X120856000Y-100524976D01*
X120841358Y-100451368D01*
X120812638Y-100382030D01*
X120770942Y-100319628D01*
X120717874Y-100266559D01*
X120655471Y-100224863D01*
X120586134Y-100196143D01*
X120512525Y-100181501D01*
X120332750Y-100181501D01*
X120237500Y-100276751D01*
X119762500Y-100276751D01*
X119667250Y-100181501D01*
X119487475Y-100181501D01*
X119413866Y-100196143D01*
X119344529Y-100224863D01*
X119282126Y-100266559D01*
X119229058Y-100319628D01*
X119187362Y-100382030D01*
X119158642Y-100451368D01*
X119144000Y-100524976D01*
X108494500Y-100524976D01*
X108494500Y-100262500D01*
X108568750Y-100262500D01*
X108568750Y-99739250D01*
X109006250Y-99739250D01*
X109006250Y-100262500D01*
X109510750Y-100262500D01*
X109606000Y-100167250D01*
X109606000Y-99987475D01*
X109591358Y-99913866D01*
X109562638Y-99844529D01*
X109520942Y-99782126D01*
X109467873Y-99729058D01*
X109405471Y-99687362D01*
X109336133Y-99658642D01*
X109262525Y-99644000D01*
X109101500Y-99644000D01*
X109006250Y-99739250D01*
X108568750Y-99739250D01*
X108473500Y-99644000D01*
X108312475Y-99644000D01*
X108238867Y-99658642D01*
X108169529Y-99687362D01*
X108107127Y-99729058D01*
X108054058Y-99782126D01*
X108017078Y-99837472D01*
X107722678Y-99543072D01*
X107750000Y-99515750D01*
X107750000Y-98253000D01*
X108250000Y-98253000D01*
X108250000Y-99515750D01*
X108345250Y-99611000D01*
X108537525Y-99611000D01*
X108611133Y-99596358D01*
X108680471Y-99567638D01*
X108742873Y-99525942D01*
X108795942Y-99472874D01*
X108837638Y-99410471D01*
X108866358Y-99341134D01*
X108881000Y-99267525D01*
X108881000Y-99101500D01*
X119144000Y-99101500D01*
X119144000Y-99262525D01*
X119158642Y-99336133D01*
X119187362Y-99405471D01*
X119229058Y-99467873D01*
X119282126Y-99520942D01*
X119344529Y-99562638D01*
X119413866Y-99591358D01*
X119487475Y-99606000D01*
X119667250Y-99606000D01*
X119762500Y-99510750D01*
X119762500Y-99006250D01*
X119239250Y-99006250D01*
X119144000Y-99101500D01*
X108881000Y-99101500D01*
X108881000Y-98348250D01*
X108785750Y-98253000D01*
X108250000Y-98253000D01*
X107750000Y-98253000D01*
X107707000Y-98253000D01*
X107707000Y-97707000D01*
X107750000Y-97707000D01*
X107750000Y-96444250D01*
X108250000Y-96444250D01*
X108250000Y-97707000D01*
X108785750Y-97707000D01*
X108881000Y-97611750D01*
X108881000Y-96692475D01*
X108866358Y-96618866D01*
X108837638Y-96549529D01*
X108795942Y-96487126D01*
X108742873Y-96434058D01*
X108680471Y-96392362D01*
X108611133Y-96363642D01*
X108537525Y-96349000D01*
X108345250Y-96349000D01*
X108250000Y-96444250D01*
X107750000Y-96444250D01*
X107742678Y-96436928D01*
X108052606Y-96127000D01*
X112447394Y-96127000D01*
X114410197Y-98089803D01*
X114410197Y-98089803D01*
G37*
X114410197Y-98089803D02*
X114429443Y-98105597D01*
X114451399Y-98117333D01*
X114475224Y-98124560D01*
X114500000Y-98127000D01*
X119215779Y-98127000D01*
X119187362Y-98169529D01*
X119158642Y-98238867D01*
X119144000Y-98312475D01*
X119144000Y-98473500D01*
X119239250Y-98568750D01*
X119762500Y-98568750D01*
X119762500Y-98494500D01*
X120237500Y-98494500D01*
X120237500Y-98568750D01*
X120293000Y-98568750D01*
X120293000Y-99006250D01*
X120237500Y-99006250D01*
X120237500Y-99510750D01*
X120332750Y-99606000D01*
X120512525Y-99606000D01*
X120586134Y-99591358D01*
X120655471Y-99562638D01*
X120717874Y-99520942D01*
X120770942Y-99467873D01*
X120812638Y-99405471D01*
X120841358Y-99336133D01*
X120856000Y-99262525D01*
X120856000Y-99101500D01*
X120815002Y-99060502D01*
X120856000Y-99060502D01*
X120856000Y-99035606D01*
X122910197Y-101089803D01*
X122929443Y-101105597D01*
X122951399Y-101117333D01*
X122975224Y-101124560D01*
X123000000Y-101127000D01*
X123423841Y-101127000D01*
X123410642Y-101158867D01*
X123396000Y-101232475D01*
X123396000Y-101536750D01*
X123491250Y-101632000D01*
X124139000Y-101632000D01*
X124139000Y-101612000D01*
X124685000Y-101612000D01*
X124685000Y-101632000D01*
X124705000Y-101632000D01*
X124705000Y-102178000D01*
X124685000Y-102178000D01*
X124685000Y-102198000D01*
X124139000Y-102198000D01*
X124139000Y-102178000D01*
X123491250Y-102178000D01*
X123396000Y-102273250D01*
X123396000Y-102577525D01*
X123410642Y-102651133D01*
X123417675Y-102668112D01*
X122357843Y-102668112D01*
X122357843Y-102493750D01*
X122346284Y-102376385D01*
X122312049Y-102263530D01*
X122256456Y-102159523D01*
X122181640Y-102068360D01*
X122090477Y-101993544D01*
X121986470Y-101937951D01*
X121873615Y-101903716D01*
X121756250Y-101892157D01*
X121566355Y-101892157D01*
X121548601Y-101882667D01*
X121524776Y-101875440D01*
X121500000Y-101873000D01*
X120611137Y-101873000D01*
X120590477Y-101856045D01*
X120518146Y-101817383D01*
X120586134Y-101803859D01*
X120655471Y-101775139D01*
X120717874Y-101733443D01*
X120770942Y-101680374D01*
X120812638Y-101617972D01*
X120841358Y-101548634D01*
X120856000Y-101475026D01*
X120856000Y-101314001D01*
X120760750Y-101218751D01*
X120237500Y-101218751D01*
X120237500Y-101293001D01*
X119762500Y-101293001D01*
X119762500Y-101218751D01*
X119239250Y-101218751D01*
X119144000Y-101314001D01*
X119144000Y-101475026D01*
X119158642Y-101548634D01*
X119187362Y-101617972D01*
X119229058Y-101680374D01*
X119282126Y-101733443D01*
X119344529Y-101775139D01*
X119413866Y-101803859D01*
X119481854Y-101817383D01*
X119409523Y-101856045D01*
X119388863Y-101873000D01*
X114500000Y-101873000D01*
X114475224Y-101875440D01*
X114451399Y-101882667D01*
X114429443Y-101894403D01*
X114410197Y-101910197D01*
X112447394Y-103873000D01*
X109552606Y-103873000D01*
X109127000Y-103447394D01*
X109127000Y-103284221D01*
X109169529Y-103312638D01*
X109238867Y-103341358D01*
X109312475Y-103356000D01*
X109473500Y-103356000D01*
X109568750Y-103260750D01*
X109568750Y-102737500D01*
X110006250Y-102737500D01*
X110006250Y-103260750D01*
X110101500Y-103356000D01*
X110262525Y-103356000D01*
X110336133Y-103341358D01*
X110405471Y-103312638D01*
X110467873Y-103270942D01*
X110520942Y-103217874D01*
X110562638Y-103155471D01*
X110591358Y-103086134D01*
X110606000Y-103012525D01*
X110606000Y-102832750D01*
X110510750Y-102737500D01*
X110006250Y-102737500D01*
X109568750Y-102737500D01*
X109494500Y-102737500D01*
X109494500Y-102262500D01*
X109568750Y-102262500D01*
X109568750Y-101739250D01*
X110006250Y-101739250D01*
X110006250Y-102262500D01*
X110510750Y-102262500D01*
X110606000Y-102167250D01*
X110606000Y-101987475D01*
X110591358Y-101913866D01*
X110562638Y-101844529D01*
X110520942Y-101782126D01*
X110467873Y-101729058D01*
X110405471Y-101687362D01*
X110336133Y-101658642D01*
X110262525Y-101644000D01*
X110101500Y-101644000D01*
X110006250Y-101739250D01*
X109568750Y-101739250D01*
X109473500Y-101644000D01*
X109312475Y-101644000D01*
X109238867Y-101658642D01*
X109169529Y-101687362D01*
X109107127Y-101729058D01*
X109054058Y-101782126D01*
X109017078Y-101837472D01*
X108504553Y-101324947D01*
X108568750Y-101260750D01*
X108568750Y-100737500D01*
X109006250Y-100737500D01*
X109006250Y-101260750D01*
X109101500Y-101356000D01*
X109262525Y-101356000D01*
X109336133Y-101341358D01*
X109405471Y-101312638D01*
X109467873Y-101270942D01*
X109520942Y-101217874D01*
X109562638Y-101155471D01*
X109591358Y-101086134D01*
X109606000Y-101012525D01*
X109606000Y-100832750D01*
X109510750Y-100737500D01*
X109006250Y-100737500D01*
X108568750Y-100737500D01*
X108494500Y-100737500D01*
X108494500Y-100524976D01*
X119144000Y-100524976D01*
X119144000Y-100686001D01*
X119239250Y-100781251D01*
X119762500Y-100781251D01*
X119762500Y-100276751D01*
X120237500Y-100276751D01*
X120237500Y-100781251D01*
X120760750Y-100781251D01*
X120856000Y-100686001D01*
X120856000Y-100524976D01*
X120841358Y-100451368D01*
X120812638Y-100382030D01*
X120770942Y-100319628D01*
X120717874Y-100266559D01*
X120655471Y-100224863D01*
X120586134Y-100196143D01*
X120512525Y-100181501D01*
X120332750Y-100181501D01*
X120237500Y-100276751D01*
X119762500Y-100276751D01*
X119667250Y-100181501D01*
X119487475Y-100181501D01*
X119413866Y-100196143D01*
X119344529Y-100224863D01*
X119282126Y-100266559D01*
X119229058Y-100319628D01*
X119187362Y-100382030D01*
X119158642Y-100451368D01*
X119144000Y-100524976D01*
X108494500Y-100524976D01*
X108494500Y-100262500D01*
X108568750Y-100262500D01*
X108568750Y-99739250D01*
X109006250Y-99739250D01*
X109006250Y-100262500D01*
X109510750Y-100262500D01*
X109606000Y-100167250D01*
X109606000Y-99987475D01*
X109591358Y-99913866D01*
X109562638Y-99844529D01*
X109520942Y-99782126D01*
X109467873Y-99729058D01*
X109405471Y-99687362D01*
X109336133Y-99658642D01*
X109262525Y-99644000D01*
X109101500Y-99644000D01*
X109006250Y-99739250D01*
X108568750Y-99739250D01*
X108473500Y-99644000D01*
X108312475Y-99644000D01*
X108238867Y-99658642D01*
X108169529Y-99687362D01*
X108107127Y-99729058D01*
X108054058Y-99782126D01*
X108017078Y-99837472D01*
X107722678Y-99543072D01*
X107750000Y-99515750D01*
X107750000Y-98253000D01*
X108250000Y-98253000D01*
X108250000Y-99515750D01*
X108345250Y-99611000D01*
X108537525Y-99611000D01*
X108611133Y-99596358D01*
X108680471Y-99567638D01*
X108742873Y-99525942D01*
X108795942Y-99472874D01*
X108837638Y-99410471D01*
X108866358Y-99341134D01*
X108881000Y-99267525D01*
X108881000Y-99101500D01*
X119144000Y-99101500D01*
X119144000Y-99262525D01*
X119158642Y-99336133D01*
X119187362Y-99405471D01*
X119229058Y-99467873D01*
X119282126Y-99520942D01*
X119344529Y-99562638D01*
X119413866Y-99591358D01*
X119487475Y-99606000D01*
X119667250Y-99606000D01*
X119762500Y-99510750D01*
X119762500Y-99006250D01*
X119239250Y-99006250D01*
X119144000Y-99101500D01*
X108881000Y-99101500D01*
X108881000Y-98348250D01*
X108785750Y-98253000D01*
X108250000Y-98253000D01*
X107750000Y-98253000D01*
X107707000Y-98253000D01*
X107707000Y-97707000D01*
X107750000Y-97707000D01*
X107750000Y-96444250D01*
X108250000Y-96444250D01*
X108250000Y-97707000D01*
X108785750Y-97707000D01*
X108881000Y-97611750D01*
X108881000Y-96692475D01*
X108866358Y-96618866D01*
X108837638Y-96549529D01*
X108795942Y-96487126D01*
X108742873Y-96434058D01*
X108680471Y-96392362D01*
X108611133Y-96363642D01*
X108537525Y-96349000D01*
X108345250Y-96349000D01*
X108250000Y-96444250D01*
X107750000Y-96444250D01*
X107742678Y-96436928D01*
X108052606Y-96127000D01*
X112447394Y-96127000D01*
X114410197Y-98089803D01*
D25*
G04 #@! TO.N,GND*
G36*
X133320162Y-91383071D02*
X133628130Y-91476052D01*
X133912169Y-91627079D01*
X134161464Y-91830400D01*
X134366521Y-92078271D01*
X134519527Y-92361250D01*
X134614654Y-92668560D01*
X134650001Y-93004859D01*
X134650000Y-106982878D01*
X134616929Y-107320164D01*
X134523949Y-107628126D01*
X134372924Y-107912164D01*
X134169602Y-108161462D01*
X133921729Y-108366521D01*
X133638750Y-108519527D01*
X133331445Y-108614654D01*
X132995151Y-108650000D01*
X98017122Y-108650000D01*
X97679836Y-108616929D01*
X97371874Y-108523949D01*
X97087836Y-108372924D01*
X96838538Y-108169602D01*
X96633479Y-107921729D01*
X96480473Y-107638750D01*
X96385346Y-107331445D01*
X96350000Y-106995151D01*
X96350000Y-105258696D01*
X112550000Y-105258696D01*
X112550000Y-105741304D01*
X112644152Y-106214639D01*
X112828838Y-106660510D01*
X113096960Y-107061784D01*
X113438216Y-107403040D01*
X113839490Y-107671162D01*
X114285361Y-107855848D01*
X114758696Y-107950000D01*
X115241304Y-107950000D01*
X115714639Y-107855848D01*
X116160510Y-107671162D01*
X116561784Y-107403040D01*
X116903040Y-107061784D01*
X117171162Y-106660510D01*
X117355848Y-106214639D01*
X117364657Y-106170352D01*
X125382000Y-106170352D01*
X125382000Y-106529648D01*
X125452095Y-106882041D01*
X125589592Y-107213988D01*
X125789206Y-107512733D01*
X126043267Y-107766794D01*
X126342012Y-107966408D01*
X126673959Y-108103905D01*
X127026352Y-108174000D01*
X127385648Y-108174000D01*
X127738041Y-108103905D01*
X128069988Y-107966408D01*
X128368733Y-107766794D01*
X128622794Y-107512733D01*
X128822408Y-107213988D01*
X128959905Y-106882041D01*
X129030000Y-106529648D01*
X129030000Y-106170352D01*
X130716000Y-106170352D01*
X130716000Y-106529648D01*
X130786095Y-106882041D01*
X130923592Y-107213988D01*
X131123206Y-107512733D01*
X131377267Y-107766794D01*
X131676012Y-107966408D01*
X132007959Y-108103905D01*
X132360352Y-108174000D01*
X132719648Y-108174000D01*
X133072041Y-108103905D01*
X133403988Y-107966408D01*
X133702733Y-107766794D01*
X133956794Y-107512733D01*
X134156408Y-107213988D01*
X134293905Y-106882041D01*
X134364000Y-106529648D01*
X134364000Y-106170352D01*
X134293905Y-105817959D01*
X134156408Y-105486012D01*
X133956794Y-105187267D01*
X133702733Y-104933206D01*
X133403988Y-104733592D01*
X133072041Y-104596095D01*
X132719648Y-104526000D01*
X132360352Y-104526000D01*
X132007959Y-104596095D01*
X131676012Y-104733592D01*
X131377267Y-104933206D01*
X131123206Y-105187267D01*
X130923592Y-105486012D01*
X130786095Y-105817959D01*
X130716000Y-106170352D01*
X129030000Y-106170352D01*
X128959905Y-105817959D01*
X128822408Y-105486012D01*
X128622794Y-105187267D01*
X128368733Y-104933206D01*
X128069988Y-104733592D01*
X127738041Y-104596095D01*
X127385648Y-104526000D01*
X127026352Y-104526000D01*
X126673959Y-104596095D01*
X126342012Y-104733592D01*
X126043267Y-104933206D01*
X125789206Y-105187267D01*
X125589592Y-105486012D01*
X125452095Y-105817959D01*
X125382000Y-106170352D01*
X117364657Y-106170352D01*
X117450000Y-105741304D01*
X117450000Y-105258696D01*
X117355848Y-104785361D01*
X117273374Y-104586250D01*
X120705000Y-104586250D01*
X120705000Y-104756517D01*
X120717297Y-104818340D01*
X120741420Y-104876577D01*
X120776440Y-104928988D01*
X120821012Y-104973560D01*
X120873423Y-105008580D01*
X120931659Y-105032702D01*
X120993483Y-105045000D01*
X121182500Y-105045000D01*
X121262500Y-104965000D01*
X121262500Y-104506250D01*
X121737500Y-104506250D01*
X121737500Y-104965000D01*
X121817500Y-105045000D01*
X122006517Y-105045000D01*
X122068341Y-105032702D01*
X122126577Y-105008580D01*
X122178988Y-104973560D01*
X122223560Y-104928988D01*
X122258580Y-104876577D01*
X122282703Y-104818340D01*
X122295000Y-104756517D01*
X122295000Y-104586250D01*
X122215000Y-104506250D01*
X121737500Y-104506250D01*
X121262500Y-104506250D01*
X120785000Y-104506250D01*
X120705000Y-104586250D01*
X117273374Y-104586250D01*
X117171162Y-104339490D01*
X116903040Y-103938216D01*
X116783307Y-103818483D01*
X120705000Y-103818483D01*
X120705000Y-103988750D01*
X120785000Y-104068750D01*
X121262500Y-104068750D01*
X121262500Y-103610000D01*
X121182500Y-103530000D01*
X120993483Y-103530000D01*
X120931659Y-103542298D01*
X120873423Y-103566420D01*
X120821012Y-103601440D01*
X120776440Y-103646012D01*
X120741420Y-103698423D01*
X120717297Y-103756660D01*
X120705000Y-103818483D01*
X116783307Y-103818483D01*
X116561784Y-103596960D01*
X116160510Y-103328838D01*
X115714639Y-103144152D01*
X115241304Y-103050000D01*
X114758696Y-103050000D01*
X114285361Y-103144152D01*
X113839490Y-103328838D01*
X113438216Y-103596960D01*
X113096960Y-103938216D01*
X112828838Y-104339490D01*
X112644152Y-104785361D01*
X112550000Y-105258696D01*
X96350000Y-105258696D01*
X96350000Y-104223216D01*
X98804968Y-104223216D01*
X98843910Y-104282819D01*
X98967670Y-104473737D01*
X99126298Y-104636842D01*
X99313698Y-104765866D01*
X99522669Y-104855851D01*
X99700000Y-104817353D01*
X99700000Y-104050000D01*
X100300000Y-104050000D01*
X100300000Y-104817353D01*
X100477331Y-104855851D01*
X100686302Y-104765866D01*
X100873702Y-104636842D01*
X101032330Y-104473737D01*
X101156090Y-104282819D01*
X101195032Y-104223216D01*
X101172903Y-104050000D01*
X100300000Y-104050000D01*
X99700000Y-104050000D01*
X98827097Y-104050000D01*
X98804968Y-104223216D01*
X96350000Y-104223216D01*
X96350000Y-103880000D01*
X103755000Y-103880000D01*
X103755000Y-104231517D01*
X103767298Y-104293341D01*
X103791420Y-104351577D01*
X103826440Y-104403988D01*
X103871012Y-104448560D01*
X103923423Y-104483580D01*
X103981660Y-104507703D01*
X104043483Y-104520000D01*
X104238750Y-104520000D01*
X104318750Y-104440000D01*
X104318750Y-103800000D01*
X104806250Y-103800000D01*
X104806250Y-104440000D01*
X104886250Y-104520000D01*
X105081517Y-104520000D01*
X105143340Y-104507703D01*
X105201577Y-104483580D01*
X105253988Y-104448560D01*
X105298560Y-104403988D01*
X105333580Y-104351577D01*
X105357702Y-104293341D01*
X105370000Y-104231517D01*
X105370000Y-103880000D01*
X105290000Y-103800000D01*
X104806250Y-103800000D01*
X104318750Y-103800000D01*
X103835000Y-103800000D01*
X103755000Y-103880000D01*
X96350000Y-103880000D01*
X96350000Y-103276784D01*
X98804968Y-103276784D01*
X98827097Y-103450000D01*
X99700000Y-103450000D01*
X99700000Y-102682647D01*
X100300000Y-102682647D01*
X100300000Y-103450000D01*
X101172903Y-103450000D01*
X101195032Y-103276784D01*
X101156090Y-103217181D01*
X101032330Y-103026263D01*
X100873702Y-102863158D01*
X100736192Y-102768483D01*
X103755000Y-102768483D01*
X103755000Y-103120000D01*
X103835000Y-103200000D01*
X104318750Y-103200000D01*
X104318750Y-102560000D01*
X104806250Y-102560000D01*
X104806250Y-103200000D01*
X105290000Y-103200000D01*
X105370000Y-103120000D01*
X105370000Y-103043750D01*
X105648549Y-103043750D01*
X105648549Y-103956250D01*
X105659025Y-104062613D01*
X105690050Y-104164889D01*
X105740432Y-104259147D01*
X105808235Y-104341765D01*
X105890853Y-104409568D01*
X105985111Y-104459950D01*
X106087387Y-104490975D01*
X106193750Y-104501451D01*
X106681250Y-104501451D01*
X106787613Y-104490975D01*
X106889889Y-104459950D01*
X106984147Y-104409568D01*
X107066765Y-104341765D01*
X107134568Y-104259147D01*
X107184950Y-104164889D01*
X107215975Y-104062613D01*
X107226451Y-103956250D01*
X107226451Y-103925681D01*
X107233367Y-103925000D01*
X107233374Y-103925000D01*
X107295814Y-103918850D01*
X107375927Y-103894548D01*
X107449760Y-103855084D01*
X107514474Y-103801974D01*
X107527784Y-103785756D01*
X108037089Y-103276451D01*
X108431250Y-103276451D01*
X108532736Y-103266455D01*
X108630322Y-103236853D01*
X108646000Y-103228473D01*
X108646000Y-103500000D01*
X108672947Y-103635470D01*
X108749684Y-103750316D01*
X109249684Y-104250316D01*
X109364530Y-104327053D01*
X109500000Y-104354000D01*
X112500000Y-104354000D01*
X112635470Y-104327053D01*
X112750316Y-104250316D01*
X114646632Y-102354000D01*
X119223771Y-102354000D01*
X119223549Y-102356251D01*
X119223549Y-102793751D01*
X119233545Y-102895237D01*
X119263147Y-102992823D01*
X119311219Y-103082759D01*
X119375912Y-103161589D01*
X119454742Y-103226282D01*
X119544678Y-103274354D01*
X119642264Y-103303956D01*
X119743750Y-103313952D01*
X120256250Y-103313952D01*
X120357736Y-103303956D01*
X120455322Y-103274354D01*
X120545258Y-103226282D01*
X120624088Y-103161589D01*
X120688781Y-103082759D01*
X120730740Y-103004259D01*
X120733545Y-103032736D01*
X120763147Y-103130322D01*
X120811219Y-103220258D01*
X120875912Y-103299088D01*
X120954742Y-103363781D01*
X121044678Y-103411853D01*
X121142264Y-103441455D01*
X121243750Y-103451451D01*
X121637910Y-103451451D01*
X121646333Y-103459874D01*
X121659638Y-103476086D01*
X121724352Y-103529196D01*
X121785578Y-103561922D01*
X121737500Y-103610000D01*
X121737500Y-104068750D01*
X122215000Y-104068750D01*
X122295000Y-103988750D01*
X122295000Y-103818483D01*
X122282703Y-103756660D01*
X122258580Y-103698423D01*
X122223560Y-103646012D01*
X122178988Y-103601440D01*
X122175504Y-103599112D01*
X125027021Y-103599112D01*
X125047888Y-103601167D01*
X125068755Y-103599112D01*
X125068762Y-103599112D01*
X125131202Y-103592962D01*
X125211315Y-103568660D01*
X125285148Y-103529196D01*
X125349862Y-103476086D01*
X125363171Y-103459869D01*
X125469040Y-103354000D01*
X125500000Y-103354000D01*
X125635470Y-103327053D01*
X125750316Y-103250316D01*
X125827053Y-103135470D01*
X125854000Y-103000000D01*
X125854000Y-102969040D01*
X126026382Y-102796658D01*
X126044271Y-102804068D01*
X126224911Y-102840000D01*
X126409089Y-102840000D01*
X126589729Y-102804068D01*
X126759889Y-102733586D01*
X126913028Y-102631262D01*
X127043262Y-102501028D01*
X127145586Y-102347889D01*
X127216068Y-102177729D01*
X127252000Y-101997089D01*
X127252000Y-101812911D01*
X127216068Y-101632271D01*
X127145586Y-101462111D01*
X127043262Y-101308972D01*
X126913028Y-101178738D01*
X126759889Y-101076414D01*
X126589729Y-101005932D01*
X126409089Y-100970000D01*
X126224911Y-100970000D01*
X126044271Y-101005932D01*
X125874111Y-101076414D01*
X125854000Y-101089852D01*
X125854000Y-101000000D01*
X125827053Y-100864530D01*
X125750316Y-100749684D01*
X125635470Y-100672947D01*
X125500000Y-100646000D01*
X125088290Y-100646000D01*
X125138262Y-100596028D01*
X125240586Y-100442889D01*
X125311068Y-100272729D01*
X125347000Y-100092089D01*
X125347000Y-99907911D01*
X125382000Y-99907911D01*
X125382000Y-100092089D01*
X125417932Y-100272729D01*
X125488414Y-100442889D01*
X125590738Y-100596028D01*
X125720972Y-100726262D01*
X125874111Y-100828586D01*
X126044271Y-100899068D01*
X126224911Y-100935000D01*
X126409089Y-100935000D01*
X126589729Y-100899068D01*
X126759889Y-100828586D01*
X126913028Y-100726262D01*
X127043262Y-100596028D01*
X127145586Y-100442889D01*
X127216068Y-100272729D01*
X127252000Y-100092089D01*
X127252000Y-99907911D01*
X127216068Y-99727271D01*
X127145586Y-99557111D01*
X127043262Y-99403972D01*
X126913028Y-99273738D01*
X126759889Y-99171414D01*
X126589729Y-99100932D01*
X126409089Y-99065000D01*
X126224911Y-99065000D01*
X126044271Y-99100932D01*
X125874111Y-99171414D01*
X125720972Y-99273738D01*
X125590738Y-99403972D01*
X125488414Y-99557111D01*
X125417932Y-99727271D01*
X125382000Y-99907911D01*
X125347000Y-99907911D01*
X125311068Y-99727271D01*
X125240586Y-99557111D01*
X125138262Y-99403972D01*
X125008028Y-99273738D01*
X124854889Y-99171414D01*
X124684729Y-99100932D01*
X124504089Y-99065000D01*
X124319911Y-99065000D01*
X124139271Y-99100932D01*
X123969111Y-99171414D01*
X123815972Y-99273738D01*
X123685738Y-99403972D01*
X123583414Y-99557111D01*
X123512932Y-99727271D01*
X123477000Y-99907911D01*
X123477000Y-100092089D01*
X123512932Y-100272729D01*
X123583414Y-100442889D01*
X123685738Y-100596028D01*
X123735710Y-100646000D01*
X123146632Y-100646000D01*
X120422455Y-97921823D01*
X120455322Y-97911853D01*
X120545258Y-97863781D01*
X120624088Y-97799088D01*
X120688781Y-97720258D01*
X120733016Y-97637500D01*
X120742574Y-97637500D01*
X120763147Y-97705322D01*
X120811219Y-97795258D01*
X120875912Y-97874088D01*
X120954742Y-97938781D01*
X121044678Y-97986853D01*
X121142264Y-98016455D01*
X121243750Y-98026451D01*
X121756250Y-98026451D01*
X121857736Y-98016455D01*
X121955322Y-97986853D01*
X122045258Y-97938781D01*
X122124088Y-97874088D01*
X122188781Y-97795258D01*
X122233016Y-97712500D01*
X123428460Y-97712500D01*
X123520342Y-97804382D01*
X123512932Y-97822271D01*
X123477000Y-98002911D01*
X123477000Y-98187089D01*
X123512932Y-98367729D01*
X123583414Y-98537889D01*
X123685738Y-98691028D01*
X123815972Y-98821262D01*
X123969111Y-98923586D01*
X124139271Y-98994068D01*
X124319911Y-99030000D01*
X124504089Y-99030000D01*
X124684729Y-98994068D01*
X124854889Y-98923586D01*
X124902421Y-98891826D01*
X125944438Y-98891826D01*
X126023926Y-99008772D01*
X126207826Y-99048391D01*
X126395920Y-99051370D01*
X126580983Y-99017598D01*
X126610074Y-99008772D01*
X126689562Y-98891826D01*
X126317000Y-98519264D01*
X125944438Y-98891826D01*
X124902421Y-98891826D01*
X125008028Y-98821262D01*
X125138262Y-98691028D01*
X125240586Y-98537889D01*
X125311068Y-98367729D01*
X125347000Y-98187089D01*
X125347000Y-98173920D01*
X125360630Y-98173920D01*
X125394402Y-98358983D01*
X125403228Y-98388074D01*
X125520174Y-98467562D01*
X125892736Y-98095000D01*
X126741264Y-98095000D01*
X127113826Y-98467562D01*
X127230772Y-98388074D01*
X127270391Y-98204174D01*
X127273370Y-98016080D01*
X127239598Y-97831017D01*
X127230772Y-97801926D01*
X127113826Y-97722438D01*
X126741264Y-98095000D01*
X125892736Y-98095000D01*
X125520174Y-97722438D01*
X125403228Y-97801926D01*
X125363609Y-97985826D01*
X125360630Y-98173920D01*
X125347000Y-98173920D01*
X125347000Y-98002911D01*
X125311068Y-97822271D01*
X125240586Y-97652111D01*
X125138262Y-97498972D01*
X125008028Y-97368738D01*
X124902422Y-97298174D01*
X125944438Y-97298174D01*
X126317000Y-97670736D01*
X126689562Y-97298174D01*
X126610074Y-97181228D01*
X126426174Y-97141609D01*
X126238080Y-97138630D01*
X126053017Y-97172402D01*
X126023926Y-97181228D01*
X125944438Y-97298174D01*
X124902422Y-97298174D01*
X124854889Y-97266414D01*
X124684729Y-97195932D01*
X124504089Y-97160000D01*
X124319911Y-97160000D01*
X124139271Y-97195932D01*
X124121382Y-97203342D01*
X123919783Y-97001743D01*
X123906474Y-96985526D01*
X123841760Y-96932416D01*
X123767927Y-96892952D01*
X123687814Y-96868650D01*
X123625374Y-96862500D01*
X123625367Y-96862500D01*
X123604500Y-96860445D01*
X123583633Y-96862500D01*
X122233016Y-96862500D01*
X122188781Y-96779742D01*
X122124088Y-96700912D01*
X122045258Y-96636219D01*
X121955322Y-96588147D01*
X121857736Y-96558545D01*
X121756250Y-96548549D01*
X121243750Y-96548549D01*
X121142264Y-96558545D01*
X121044678Y-96588147D01*
X120954742Y-96636219D01*
X120875912Y-96700912D01*
X120811219Y-96779742D01*
X120807072Y-96787500D01*
X120733016Y-96787500D01*
X120688781Y-96704742D01*
X120624088Y-96625912D01*
X120545258Y-96561219D01*
X120455322Y-96513147D01*
X120357736Y-96483545D01*
X120256250Y-96473549D01*
X119743750Y-96473549D01*
X119642264Y-96483545D01*
X119544678Y-96513147D01*
X119454742Y-96561219D01*
X119375912Y-96625912D01*
X119311219Y-96704742D01*
X119263147Y-96794678D01*
X119233545Y-96892264D01*
X119223549Y-96993750D01*
X119223549Y-97431250D01*
X119233545Y-97532736D01*
X119263147Y-97630322D01*
X119271527Y-97646000D01*
X114646632Y-97646000D01*
X112750316Y-95749684D01*
X112635470Y-95672947D01*
X112500000Y-95646000D01*
X108000000Y-95646000D01*
X107864530Y-95672947D01*
X107820000Y-95702701D01*
X107820000Y-94400000D01*
X107740000Y-94320000D01*
X106800000Y-94320000D01*
X106800000Y-96260000D01*
X106820000Y-96280000D01*
X106820000Y-96420000D01*
X106750000Y-96490000D01*
X106750000Y-97680000D01*
X106820000Y-97680000D01*
X106820000Y-98280000D01*
X106750000Y-98280000D01*
X106750000Y-99470000D01*
X106830000Y-99550000D01*
X107031517Y-99550000D01*
X107093340Y-99537703D01*
X107148920Y-99514681D01*
X107172947Y-99635470D01*
X107249684Y-99750316D01*
X107431250Y-99931882D01*
X107431250Y-100262500D01*
X107532500Y-100262500D01*
X107532500Y-100737500D01*
X107431250Y-100737500D01*
X107431250Y-101215000D01*
X107511250Y-101295000D01*
X107681517Y-101295000D01*
X107743340Y-101282703D01*
X107770727Y-101271359D01*
X108222917Y-101723549D01*
X107993750Y-101723549D01*
X107892264Y-101733545D01*
X107794678Y-101763147D01*
X107704742Y-101811219D01*
X107625912Y-101875912D01*
X107561219Y-101954742D01*
X107513147Y-102044678D01*
X107483545Y-102142264D01*
X107473549Y-102243750D01*
X107473549Y-102637911D01*
X107206223Y-102905237D01*
X107184950Y-102835111D01*
X107134568Y-102740853D01*
X107066765Y-102658235D01*
X106984147Y-102590432D01*
X106889889Y-102540050D01*
X106787613Y-102509025D01*
X106681250Y-102498549D01*
X106193750Y-102498549D01*
X106087387Y-102509025D01*
X105985111Y-102540050D01*
X105890853Y-102590432D01*
X105808235Y-102658235D01*
X105740432Y-102740853D01*
X105690050Y-102835111D01*
X105659025Y-102937387D01*
X105648549Y-103043750D01*
X105370000Y-103043750D01*
X105370000Y-102768483D01*
X105357702Y-102706659D01*
X105333580Y-102648423D01*
X105298560Y-102596012D01*
X105253988Y-102551440D01*
X105201577Y-102516420D01*
X105143340Y-102492297D01*
X105081517Y-102480000D01*
X104886250Y-102480000D01*
X104806250Y-102560000D01*
X104318750Y-102560000D01*
X104238750Y-102480000D01*
X104043483Y-102480000D01*
X103981660Y-102492297D01*
X103923423Y-102516420D01*
X103871012Y-102551440D01*
X103826440Y-102596012D01*
X103791420Y-102648423D01*
X103767298Y-102706659D01*
X103755000Y-102768483D01*
X100736192Y-102768483D01*
X100686302Y-102734134D01*
X100477331Y-102644149D01*
X100300000Y-102682647D01*
X99700000Y-102682647D01*
X99522669Y-102644149D01*
X99313698Y-102734134D01*
X99126298Y-102863158D01*
X98967670Y-103026263D01*
X98843910Y-103217181D01*
X98804968Y-103276784D01*
X96350000Y-103276784D01*
X96350000Y-95000000D01*
X98146000Y-95000000D01*
X98146000Y-97000000D01*
X98172947Y-97135470D01*
X98249684Y-97250316D01*
X98749684Y-97750316D01*
X98864530Y-97827053D01*
X99000000Y-97854000D01*
X99154024Y-97854000D01*
X99057893Y-97932893D01*
X98914184Y-98108003D01*
X98807398Y-98307785D01*
X98741640Y-98524561D01*
X98719436Y-98750000D01*
X98741640Y-98975439D01*
X98807398Y-99192215D01*
X98914184Y-99391997D01*
X99057893Y-99567107D01*
X99233003Y-99710816D01*
X99432785Y-99817602D01*
X99649561Y-99883360D01*
X99818508Y-99900000D01*
X100181492Y-99900000D01*
X100350439Y-99883360D01*
X100567215Y-99817602D01*
X100766997Y-99710816D01*
X100942107Y-99567107D01*
X101085816Y-99391997D01*
X101192602Y-99192215D01*
X101258360Y-98975439D01*
X101280564Y-98750000D01*
X101258360Y-98524561D01*
X101192602Y-98307785D01*
X101085816Y-98108003D01*
X100942107Y-97932893D01*
X100845976Y-97854000D01*
X102353368Y-97854000D01*
X102646000Y-98146632D01*
X102646000Y-98315328D01*
X102568944Y-98300000D01*
X102431056Y-98300000D01*
X102295818Y-98326901D01*
X102168426Y-98379668D01*
X102053776Y-98456274D01*
X101956274Y-98553776D01*
X101879668Y-98668426D01*
X101826901Y-98795818D01*
X101800000Y-98931056D01*
X101800000Y-98973960D01*
X100583081Y-100190879D01*
X100567215Y-100182398D01*
X100350439Y-100116640D01*
X100181492Y-100100000D01*
X99818508Y-100100000D01*
X99649561Y-100116640D01*
X99432785Y-100182398D01*
X99233003Y-100289184D01*
X99057893Y-100432893D01*
X98914184Y-100608003D01*
X98807398Y-100807785D01*
X98741640Y-101024561D01*
X98719436Y-101250000D01*
X98741640Y-101475439D01*
X98807398Y-101692215D01*
X98914184Y-101891997D01*
X99057893Y-102067107D01*
X99233003Y-102210816D01*
X99432785Y-102317602D01*
X99649561Y-102383360D01*
X99818508Y-102400000D01*
X100181492Y-102400000D01*
X100350439Y-102383360D01*
X100567215Y-102317602D01*
X100766997Y-102210816D01*
X100942107Y-102067107D01*
X101085816Y-101891997D01*
X101192602Y-101692215D01*
X101258360Y-101475439D01*
X101280564Y-101250000D01*
X101258360Y-101024561D01*
X101192602Y-100807785D01*
X101184121Y-100791919D01*
X102301759Y-99674281D01*
X102431056Y-99700000D01*
X102568944Y-99700000D01*
X102646000Y-99684672D01*
X102646000Y-101500000D01*
X102672947Y-101635470D01*
X102749684Y-101750316D01*
X102864530Y-101827053D01*
X103000000Y-101854000D01*
X105000000Y-101854000D01*
X105135470Y-101827053D01*
X105250316Y-101750316D01*
X105327053Y-101635470D01*
X105354000Y-101500000D01*
X105354000Y-101295000D01*
X105488750Y-101295000D01*
X105568750Y-101215000D01*
X105568750Y-100737500D01*
X106006250Y-100737500D01*
X106006250Y-101215000D01*
X106086250Y-101295000D01*
X106256517Y-101295000D01*
X106318340Y-101282703D01*
X106376577Y-101258580D01*
X106428988Y-101223560D01*
X106473560Y-101178988D01*
X106500000Y-101139418D01*
X106526440Y-101178988D01*
X106571012Y-101223560D01*
X106623423Y-101258580D01*
X106681660Y-101282703D01*
X106743483Y-101295000D01*
X106913750Y-101295000D01*
X106993750Y-101215000D01*
X106993750Y-100737500D01*
X106535000Y-100737500D01*
X106500000Y-100772500D01*
X106465000Y-100737500D01*
X106006250Y-100737500D01*
X105568750Y-100737500D01*
X105467500Y-100737500D01*
X105467500Y-100262500D01*
X105568750Y-100262500D01*
X105568750Y-99931882D01*
X105715632Y-99785000D01*
X106006250Y-99785000D01*
X106006250Y-100262500D01*
X106465000Y-100262500D01*
X106500000Y-100227500D01*
X106535000Y-100262500D01*
X106993750Y-100262500D01*
X106993750Y-99785000D01*
X106913750Y-99705000D01*
X106743483Y-99705000D01*
X106681660Y-99717297D01*
X106623423Y-99741420D01*
X106571012Y-99776440D01*
X106526440Y-99821012D01*
X106500000Y-99860582D01*
X106473560Y-99821012D01*
X106428988Y-99776440D01*
X106376577Y-99741420D01*
X106318340Y-99717297D01*
X106256517Y-99705000D01*
X106086250Y-99705000D01*
X106006250Y-99785000D01*
X105715632Y-99785000D01*
X105750316Y-99750316D01*
X105827053Y-99635470D01*
X105851080Y-99514681D01*
X105906660Y-99537703D01*
X105968483Y-99550000D01*
X106170000Y-99550000D01*
X106250000Y-99470000D01*
X106250000Y-98280000D01*
X106180000Y-98280000D01*
X106180000Y-97680000D01*
X106250000Y-97680000D01*
X106250000Y-96490000D01*
X106180000Y-96420000D01*
X106180000Y-96280000D01*
X106200000Y-96260000D01*
X106200000Y-94320000D01*
X105260000Y-94320000D01*
X105180000Y-94400000D01*
X105180000Y-95679368D01*
X103759328Y-94258696D01*
X112550000Y-94258696D01*
X112550000Y-94741304D01*
X112644152Y-95214639D01*
X112828838Y-95660510D01*
X113096960Y-96061784D01*
X113438216Y-96403040D01*
X113839490Y-96671162D01*
X114285361Y-96855848D01*
X114758696Y-96950000D01*
X115241304Y-96950000D01*
X115714639Y-96855848D01*
X116160510Y-96671162D01*
X116561784Y-96403040D01*
X116903040Y-96061784D01*
X116936805Y-96011250D01*
X120705000Y-96011250D01*
X120705000Y-96181517D01*
X120717297Y-96243340D01*
X120741420Y-96301577D01*
X120776440Y-96353988D01*
X120821012Y-96398560D01*
X120873423Y-96433580D01*
X120931659Y-96457702D01*
X120993483Y-96470000D01*
X121182500Y-96470000D01*
X121262500Y-96390000D01*
X121262500Y-95931250D01*
X121737500Y-95931250D01*
X121737500Y-96390000D01*
X121817500Y-96470000D01*
X122006517Y-96470000D01*
X122068341Y-96457702D01*
X122126577Y-96433580D01*
X122178988Y-96398560D01*
X122223560Y-96353988D01*
X122258580Y-96301577D01*
X122282703Y-96243340D01*
X122295000Y-96181517D01*
X122295000Y-96011250D01*
X122215000Y-95931250D01*
X121737500Y-95931250D01*
X121262500Y-95931250D01*
X120785000Y-95931250D01*
X120705000Y-96011250D01*
X116936805Y-96011250D01*
X117171162Y-95660510D01*
X117343900Y-95243483D01*
X120705000Y-95243483D01*
X120705000Y-95413750D01*
X120785000Y-95493750D01*
X121262500Y-95493750D01*
X121262500Y-95035000D01*
X121737500Y-95035000D01*
X121737500Y-95493750D01*
X122215000Y-95493750D01*
X122295000Y-95413750D01*
X122295000Y-95243483D01*
X122282703Y-95181660D01*
X122258580Y-95123423D01*
X122223560Y-95071012D01*
X122178988Y-95026440D01*
X122126577Y-94991420D01*
X122068341Y-94967298D01*
X122006517Y-94955000D01*
X121817500Y-94955000D01*
X121737500Y-95035000D01*
X121262500Y-95035000D01*
X121182500Y-94955000D01*
X120993483Y-94955000D01*
X120931659Y-94967298D01*
X120873423Y-94991420D01*
X120821012Y-95026440D01*
X120776440Y-95071012D01*
X120741420Y-95123423D01*
X120717297Y-95181660D01*
X120705000Y-95243483D01*
X117343900Y-95243483D01*
X117355848Y-95214639D01*
X117450000Y-94741304D01*
X117450000Y-94258696D01*
X117355848Y-93785361D01*
X117225367Y-93470352D01*
X125382000Y-93470352D01*
X125382000Y-93829648D01*
X125452095Y-94182041D01*
X125589592Y-94513988D01*
X125789206Y-94812733D01*
X126043267Y-95066794D01*
X126342012Y-95266408D01*
X126673959Y-95403905D01*
X127026352Y-95474000D01*
X127385648Y-95474000D01*
X127738041Y-95403905D01*
X128069988Y-95266408D01*
X128368733Y-95066794D01*
X128622794Y-94812733D01*
X128822408Y-94513988D01*
X128959905Y-94182041D01*
X129030000Y-93829648D01*
X129030000Y-93470352D01*
X130716000Y-93470352D01*
X130716000Y-93829648D01*
X130786095Y-94182041D01*
X130923592Y-94513988D01*
X131123206Y-94812733D01*
X131377267Y-95066794D01*
X131676012Y-95266408D01*
X132007959Y-95403905D01*
X132360352Y-95474000D01*
X132719648Y-95474000D01*
X133072041Y-95403905D01*
X133403988Y-95266408D01*
X133702733Y-95066794D01*
X133956794Y-94812733D01*
X134156408Y-94513988D01*
X134293905Y-94182041D01*
X134364000Y-93829648D01*
X134364000Y-93470352D01*
X134293905Y-93117959D01*
X134156408Y-92786012D01*
X133956794Y-92487267D01*
X133702733Y-92233206D01*
X133403988Y-92033592D01*
X133072041Y-91896095D01*
X132719648Y-91826000D01*
X132360352Y-91826000D01*
X132007959Y-91896095D01*
X131676012Y-92033592D01*
X131377267Y-92233206D01*
X131123206Y-92487267D01*
X130923592Y-92786012D01*
X130786095Y-93117959D01*
X130716000Y-93470352D01*
X129030000Y-93470352D01*
X128959905Y-93117959D01*
X128822408Y-92786012D01*
X128622794Y-92487267D01*
X128368733Y-92233206D01*
X128069988Y-92033592D01*
X127738041Y-91896095D01*
X127385648Y-91826000D01*
X127026352Y-91826000D01*
X126673959Y-91896095D01*
X126342012Y-92033592D01*
X126043267Y-92233206D01*
X125789206Y-92487267D01*
X125589592Y-92786012D01*
X125452095Y-93117959D01*
X125382000Y-93470352D01*
X117225367Y-93470352D01*
X117171162Y-93339490D01*
X116903040Y-92938216D01*
X116561784Y-92596960D01*
X116160510Y-92328838D01*
X115714639Y-92144152D01*
X115241304Y-92050000D01*
X114758696Y-92050000D01*
X114285361Y-92144152D01*
X113839490Y-92328838D01*
X113438216Y-92596960D01*
X113096960Y-92938216D01*
X112828838Y-93339490D01*
X112644152Y-93785361D01*
X112550000Y-94258696D01*
X103759328Y-94258696D01*
X103750316Y-94249684D01*
X103635470Y-94172947D01*
X103500000Y-94146000D01*
X99000000Y-94146000D01*
X98864530Y-94172947D01*
X98749684Y-94249684D01*
X98249684Y-94749684D01*
X98172947Y-94864530D01*
X98146000Y-95000000D01*
X96350000Y-95000000D01*
X96350000Y-93017122D01*
X96383071Y-92679838D01*
X96476052Y-92371870D01*
X96627079Y-92087831D01*
X96708105Y-91988483D01*
X105180000Y-91988483D01*
X105180000Y-93640000D01*
X105260000Y-93720000D01*
X106200000Y-93720000D01*
X106200000Y-91780000D01*
X106800000Y-91780000D01*
X106800000Y-93720000D01*
X107740000Y-93720000D01*
X107820000Y-93640000D01*
X107820000Y-91988483D01*
X107807702Y-91926659D01*
X107783580Y-91868423D01*
X107748560Y-91816012D01*
X107703988Y-91771440D01*
X107651577Y-91736420D01*
X107593340Y-91712297D01*
X107531517Y-91700000D01*
X106880000Y-91700000D01*
X106800000Y-91780000D01*
X106200000Y-91780000D01*
X106120000Y-91700000D01*
X105468483Y-91700000D01*
X105406660Y-91712297D01*
X105348423Y-91736420D01*
X105296012Y-91771440D01*
X105251440Y-91816012D01*
X105216420Y-91868423D01*
X105192298Y-91926659D01*
X105180000Y-91988483D01*
X96708105Y-91988483D01*
X96830400Y-91838536D01*
X97078271Y-91633479D01*
X97361250Y-91480473D01*
X97668560Y-91385346D01*
X98004849Y-91350000D01*
X132982878Y-91350000D01*
X133320162Y-91383071D01*
X133320162Y-91383071D01*
G37*
X133320162Y-91383071D02*
X133628130Y-91476052D01*
X133912169Y-91627079D01*
X134161464Y-91830400D01*
X134366521Y-92078271D01*
X134519527Y-92361250D01*
X134614654Y-92668560D01*
X134650001Y-93004859D01*
X134650000Y-106982878D01*
X134616929Y-107320164D01*
X134523949Y-107628126D01*
X134372924Y-107912164D01*
X134169602Y-108161462D01*
X133921729Y-108366521D01*
X133638750Y-108519527D01*
X133331445Y-108614654D01*
X132995151Y-108650000D01*
X98017122Y-108650000D01*
X97679836Y-108616929D01*
X97371874Y-108523949D01*
X97087836Y-108372924D01*
X96838538Y-108169602D01*
X96633479Y-107921729D01*
X96480473Y-107638750D01*
X96385346Y-107331445D01*
X96350000Y-106995151D01*
X96350000Y-105258696D01*
X112550000Y-105258696D01*
X112550000Y-105741304D01*
X112644152Y-106214639D01*
X112828838Y-106660510D01*
X113096960Y-107061784D01*
X113438216Y-107403040D01*
X113839490Y-107671162D01*
X114285361Y-107855848D01*
X114758696Y-107950000D01*
X115241304Y-107950000D01*
X115714639Y-107855848D01*
X116160510Y-107671162D01*
X116561784Y-107403040D01*
X116903040Y-107061784D01*
X117171162Y-106660510D01*
X117355848Y-106214639D01*
X117364657Y-106170352D01*
X125382000Y-106170352D01*
X125382000Y-106529648D01*
X125452095Y-106882041D01*
X125589592Y-107213988D01*
X125789206Y-107512733D01*
X126043267Y-107766794D01*
X126342012Y-107966408D01*
X126673959Y-108103905D01*
X127026352Y-108174000D01*
X127385648Y-108174000D01*
X127738041Y-108103905D01*
X128069988Y-107966408D01*
X128368733Y-107766794D01*
X128622794Y-107512733D01*
X128822408Y-107213988D01*
X128959905Y-106882041D01*
X129030000Y-106529648D01*
X129030000Y-106170352D01*
X130716000Y-106170352D01*
X130716000Y-106529648D01*
X130786095Y-106882041D01*
X130923592Y-107213988D01*
X131123206Y-107512733D01*
X131377267Y-107766794D01*
X131676012Y-107966408D01*
X132007959Y-108103905D01*
X132360352Y-108174000D01*
X132719648Y-108174000D01*
X133072041Y-108103905D01*
X133403988Y-107966408D01*
X133702733Y-107766794D01*
X133956794Y-107512733D01*
X134156408Y-107213988D01*
X134293905Y-106882041D01*
X134364000Y-106529648D01*
X134364000Y-106170352D01*
X134293905Y-105817959D01*
X134156408Y-105486012D01*
X133956794Y-105187267D01*
X133702733Y-104933206D01*
X133403988Y-104733592D01*
X133072041Y-104596095D01*
X132719648Y-104526000D01*
X132360352Y-104526000D01*
X132007959Y-104596095D01*
X131676012Y-104733592D01*
X131377267Y-104933206D01*
X131123206Y-105187267D01*
X130923592Y-105486012D01*
X130786095Y-105817959D01*
X130716000Y-106170352D01*
X129030000Y-106170352D01*
X128959905Y-105817959D01*
X128822408Y-105486012D01*
X128622794Y-105187267D01*
X128368733Y-104933206D01*
X128069988Y-104733592D01*
X127738041Y-104596095D01*
X127385648Y-104526000D01*
X127026352Y-104526000D01*
X126673959Y-104596095D01*
X126342012Y-104733592D01*
X126043267Y-104933206D01*
X125789206Y-105187267D01*
X125589592Y-105486012D01*
X125452095Y-105817959D01*
X125382000Y-106170352D01*
X117364657Y-106170352D01*
X117450000Y-105741304D01*
X117450000Y-105258696D01*
X117355848Y-104785361D01*
X117273374Y-104586250D01*
X120705000Y-104586250D01*
X120705000Y-104756517D01*
X120717297Y-104818340D01*
X120741420Y-104876577D01*
X120776440Y-104928988D01*
X120821012Y-104973560D01*
X120873423Y-105008580D01*
X120931659Y-105032702D01*
X120993483Y-105045000D01*
X121182500Y-105045000D01*
X121262500Y-104965000D01*
X121262500Y-104506250D01*
X121737500Y-104506250D01*
X121737500Y-104965000D01*
X121817500Y-105045000D01*
X122006517Y-105045000D01*
X122068341Y-105032702D01*
X122126577Y-105008580D01*
X122178988Y-104973560D01*
X122223560Y-104928988D01*
X122258580Y-104876577D01*
X122282703Y-104818340D01*
X122295000Y-104756517D01*
X122295000Y-104586250D01*
X122215000Y-104506250D01*
X121737500Y-104506250D01*
X121262500Y-104506250D01*
X120785000Y-104506250D01*
X120705000Y-104586250D01*
X117273374Y-104586250D01*
X117171162Y-104339490D01*
X116903040Y-103938216D01*
X116783307Y-103818483D01*
X120705000Y-103818483D01*
X120705000Y-103988750D01*
X120785000Y-104068750D01*
X121262500Y-104068750D01*
X121262500Y-103610000D01*
X121182500Y-103530000D01*
X120993483Y-103530000D01*
X120931659Y-103542298D01*
X120873423Y-103566420D01*
X120821012Y-103601440D01*
X120776440Y-103646012D01*
X120741420Y-103698423D01*
X120717297Y-103756660D01*
X120705000Y-103818483D01*
X116783307Y-103818483D01*
X116561784Y-103596960D01*
X116160510Y-103328838D01*
X115714639Y-103144152D01*
X115241304Y-103050000D01*
X114758696Y-103050000D01*
X114285361Y-103144152D01*
X113839490Y-103328838D01*
X113438216Y-103596960D01*
X113096960Y-103938216D01*
X112828838Y-104339490D01*
X112644152Y-104785361D01*
X112550000Y-105258696D01*
X96350000Y-105258696D01*
X96350000Y-104223216D01*
X98804968Y-104223216D01*
X98843910Y-104282819D01*
X98967670Y-104473737D01*
X99126298Y-104636842D01*
X99313698Y-104765866D01*
X99522669Y-104855851D01*
X99700000Y-104817353D01*
X99700000Y-104050000D01*
X100300000Y-104050000D01*
X100300000Y-104817353D01*
X100477331Y-104855851D01*
X100686302Y-104765866D01*
X100873702Y-104636842D01*
X101032330Y-104473737D01*
X101156090Y-104282819D01*
X101195032Y-104223216D01*
X101172903Y-104050000D01*
X100300000Y-104050000D01*
X99700000Y-104050000D01*
X98827097Y-104050000D01*
X98804968Y-104223216D01*
X96350000Y-104223216D01*
X96350000Y-103880000D01*
X103755000Y-103880000D01*
X103755000Y-104231517D01*
X103767298Y-104293341D01*
X103791420Y-104351577D01*
X103826440Y-104403988D01*
X103871012Y-104448560D01*
X103923423Y-104483580D01*
X103981660Y-104507703D01*
X104043483Y-104520000D01*
X104238750Y-104520000D01*
X104318750Y-104440000D01*
X104318750Y-103800000D01*
X104806250Y-103800000D01*
X104806250Y-104440000D01*
X104886250Y-104520000D01*
X105081517Y-104520000D01*
X105143340Y-104507703D01*
X105201577Y-104483580D01*
X105253988Y-104448560D01*
X105298560Y-104403988D01*
X105333580Y-104351577D01*
X105357702Y-104293341D01*
X105370000Y-104231517D01*
X105370000Y-103880000D01*
X105290000Y-103800000D01*
X104806250Y-103800000D01*
X104318750Y-103800000D01*
X103835000Y-103800000D01*
X103755000Y-103880000D01*
X96350000Y-103880000D01*
X96350000Y-103276784D01*
X98804968Y-103276784D01*
X98827097Y-103450000D01*
X99700000Y-103450000D01*
X99700000Y-102682647D01*
X100300000Y-102682647D01*
X100300000Y-103450000D01*
X101172903Y-103450000D01*
X101195032Y-103276784D01*
X101156090Y-103217181D01*
X101032330Y-103026263D01*
X100873702Y-102863158D01*
X100736192Y-102768483D01*
X103755000Y-102768483D01*
X103755000Y-103120000D01*
X103835000Y-103200000D01*
X104318750Y-103200000D01*
X104318750Y-102560000D01*
X104806250Y-102560000D01*
X104806250Y-103200000D01*
X105290000Y-103200000D01*
X105370000Y-103120000D01*
X105370000Y-103043750D01*
X105648549Y-103043750D01*
X105648549Y-103956250D01*
X105659025Y-104062613D01*
X105690050Y-104164889D01*
X105740432Y-104259147D01*
X105808235Y-104341765D01*
X105890853Y-104409568D01*
X105985111Y-104459950D01*
X106087387Y-104490975D01*
X106193750Y-104501451D01*
X106681250Y-104501451D01*
X106787613Y-104490975D01*
X106889889Y-104459950D01*
X106984147Y-104409568D01*
X107066765Y-104341765D01*
X107134568Y-104259147D01*
X107184950Y-104164889D01*
X107215975Y-104062613D01*
X107226451Y-103956250D01*
X107226451Y-103925681D01*
X107233367Y-103925000D01*
X107233374Y-103925000D01*
X107295814Y-103918850D01*
X107375927Y-103894548D01*
X107449760Y-103855084D01*
X107514474Y-103801974D01*
X107527784Y-103785756D01*
X108037089Y-103276451D01*
X108431250Y-103276451D01*
X108532736Y-103266455D01*
X108630322Y-103236853D01*
X108646000Y-103228473D01*
X108646000Y-103500000D01*
X108672947Y-103635470D01*
X108749684Y-103750316D01*
X109249684Y-104250316D01*
X109364530Y-104327053D01*
X109500000Y-104354000D01*
X112500000Y-104354000D01*
X112635470Y-104327053D01*
X112750316Y-104250316D01*
X114646632Y-102354000D01*
X119223771Y-102354000D01*
X119223549Y-102356251D01*
X119223549Y-102793751D01*
X119233545Y-102895237D01*
X119263147Y-102992823D01*
X119311219Y-103082759D01*
X119375912Y-103161589D01*
X119454742Y-103226282D01*
X119544678Y-103274354D01*
X119642264Y-103303956D01*
X119743750Y-103313952D01*
X120256250Y-103313952D01*
X120357736Y-103303956D01*
X120455322Y-103274354D01*
X120545258Y-103226282D01*
X120624088Y-103161589D01*
X120688781Y-103082759D01*
X120730740Y-103004259D01*
X120733545Y-103032736D01*
X120763147Y-103130322D01*
X120811219Y-103220258D01*
X120875912Y-103299088D01*
X120954742Y-103363781D01*
X121044678Y-103411853D01*
X121142264Y-103441455D01*
X121243750Y-103451451D01*
X121637910Y-103451451D01*
X121646333Y-103459874D01*
X121659638Y-103476086D01*
X121724352Y-103529196D01*
X121785578Y-103561922D01*
X121737500Y-103610000D01*
X121737500Y-104068750D01*
X122215000Y-104068750D01*
X122295000Y-103988750D01*
X122295000Y-103818483D01*
X122282703Y-103756660D01*
X122258580Y-103698423D01*
X122223560Y-103646012D01*
X122178988Y-103601440D01*
X122175504Y-103599112D01*
X125027021Y-103599112D01*
X125047888Y-103601167D01*
X125068755Y-103599112D01*
X125068762Y-103599112D01*
X125131202Y-103592962D01*
X125211315Y-103568660D01*
X125285148Y-103529196D01*
X125349862Y-103476086D01*
X125363171Y-103459869D01*
X125469040Y-103354000D01*
X125500000Y-103354000D01*
X125635470Y-103327053D01*
X125750316Y-103250316D01*
X125827053Y-103135470D01*
X125854000Y-103000000D01*
X125854000Y-102969040D01*
X126026382Y-102796658D01*
X126044271Y-102804068D01*
X126224911Y-102840000D01*
X126409089Y-102840000D01*
X126589729Y-102804068D01*
X126759889Y-102733586D01*
X126913028Y-102631262D01*
X127043262Y-102501028D01*
X127145586Y-102347889D01*
X127216068Y-102177729D01*
X127252000Y-101997089D01*
X127252000Y-101812911D01*
X127216068Y-101632271D01*
X127145586Y-101462111D01*
X127043262Y-101308972D01*
X126913028Y-101178738D01*
X126759889Y-101076414D01*
X126589729Y-101005932D01*
X126409089Y-100970000D01*
X126224911Y-100970000D01*
X126044271Y-101005932D01*
X125874111Y-101076414D01*
X125854000Y-101089852D01*
X125854000Y-101000000D01*
X125827053Y-100864530D01*
X125750316Y-100749684D01*
X125635470Y-100672947D01*
X125500000Y-100646000D01*
X125088290Y-100646000D01*
X125138262Y-100596028D01*
X125240586Y-100442889D01*
X125311068Y-100272729D01*
X125347000Y-100092089D01*
X125347000Y-99907911D01*
X125382000Y-99907911D01*
X125382000Y-100092089D01*
X125417932Y-100272729D01*
X125488414Y-100442889D01*
X125590738Y-100596028D01*
X125720972Y-100726262D01*
X125874111Y-100828586D01*
X126044271Y-100899068D01*
X126224911Y-100935000D01*
X126409089Y-100935000D01*
X126589729Y-100899068D01*
X126759889Y-100828586D01*
X126913028Y-100726262D01*
X127043262Y-100596028D01*
X127145586Y-100442889D01*
X127216068Y-100272729D01*
X127252000Y-100092089D01*
X127252000Y-99907911D01*
X127216068Y-99727271D01*
X127145586Y-99557111D01*
X127043262Y-99403972D01*
X126913028Y-99273738D01*
X126759889Y-99171414D01*
X126589729Y-99100932D01*
X126409089Y-99065000D01*
X126224911Y-99065000D01*
X126044271Y-99100932D01*
X125874111Y-99171414D01*
X125720972Y-99273738D01*
X125590738Y-99403972D01*
X125488414Y-99557111D01*
X125417932Y-99727271D01*
X125382000Y-99907911D01*
X125347000Y-99907911D01*
X125311068Y-99727271D01*
X125240586Y-99557111D01*
X125138262Y-99403972D01*
X125008028Y-99273738D01*
X124854889Y-99171414D01*
X124684729Y-99100932D01*
X124504089Y-99065000D01*
X124319911Y-99065000D01*
X124139271Y-99100932D01*
X123969111Y-99171414D01*
X123815972Y-99273738D01*
X123685738Y-99403972D01*
X123583414Y-99557111D01*
X123512932Y-99727271D01*
X123477000Y-99907911D01*
X123477000Y-100092089D01*
X123512932Y-100272729D01*
X123583414Y-100442889D01*
X123685738Y-100596028D01*
X123735710Y-100646000D01*
X123146632Y-100646000D01*
X120422455Y-97921823D01*
X120455322Y-97911853D01*
X120545258Y-97863781D01*
X120624088Y-97799088D01*
X120688781Y-97720258D01*
X120733016Y-97637500D01*
X120742574Y-97637500D01*
X120763147Y-97705322D01*
X120811219Y-97795258D01*
X120875912Y-97874088D01*
X120954742Y-97938781D01*
X121044678Y-97986853D01*
X121142264Y-98016455D01*
X121243750Y-98026451D01*
X121756250Y-98026451D01*
X121857736Y-98016455D01*
X121955322Y-97986853D01*
X122045258Y-97938781D01*
X122124088Y-97874088D01*
X122188781Y-97795258D01*
X122233016Y-97712500D01*
X123428460Y-97712500D01*
X123520342Y-97804382D01*
X123512932Y-97822271D01*
X123477000Y-98002911D01*
X123477000Y-98187089D01*
X123512932Y-98367729D01*
X123583414Y-98537889D01*
X123685738Y-98691028D01*
X123815972Y-98821262D01*
X123969111Y-98923586D01*
X124139271Y-98994068D01*
X124319911Y-99030000D01*
X124504089Y-99030000D01*
X124684729Y-98994068D01*
X124854889Y-98923586D01*
X124902421Y-98891826D01*
X125944438Y-98891826D01*
X126023926Y-99008772D01*
X126207826Y-99048391D01*
X126395920Y-99051370D01*
X126580983Y-99017598D01*
X126610074Y-99008772D01*
X126689562Y-98891826D01*
X126317000Y-98519264D01*
X125944438Y-98891826D01*
X124902421Y-98891826D01*
X125008028Y-98821262D01*
X125138262Y-98691028D01*
X125240586Y-98537889D01*
X125311068Y-98367729D01*
X125347000Y-98187089D01*
X125347000Y-98173920D01*
X125360630Y-98173920D01*
X125394402Y-98358983D01*
X125403228Y-98388074D01*
X125520174Y-98467562D01*
X125892736Y-98095000D01*
X126741264Y-98095000D01*
X127113826Y-98467562D01*
X127230772Y-98388074D01*
X127270391Y-98204174D01*
X127273370Y-98016080D01*
X127239598Y-97831017D01*
X127230772Y-97801926D01*
X127113826Y-97722438D01*
X126741264Y-98095000D01*
X125892736Y-98095000D01*
X125520174Y-97722438D01*
X125403228Y-97801926D01*
X125363609Y-97985826D01*
X125360630Y-98173920D01*
X125347000Y-98173920D01*
X125347000Y-98002911D01*
X125311068Y-97822271D01*
X125240586Y-97652111D01*
X125138262Y-97498972D01*
X125008028Y-97368738D01*
X124902422Y-97298174D01*
X125944438Y-97298174D01*
X126317000Y-97670736D01*
X126689562Y-97298174D01*
X126610074Y-97181228D01*
X126426174Y-97141609D01*
X126238080Y-97138630D01*
X126053017Y-97172402D01*
X126023926Y-97181228D01*
X125944438Y-97298174D01*
X124902422Y-97298174D01*
X124854889Y-97266414D01*
X124684729Y-97195932D01*
X124504089Y-97160000D01*
X124319911Y-97160000D01*
X124139271Y-97195932D01*
X124121382Y-97203342D01*
X123919783Y-97001743D01*
X123906474Y-96985526D01*
X123841760Y-96932416D01*
X123767927Y-96892952D01*
X123687814Y-96868650D01*
X123625374Y-96862500D01*
X123625367Y-96862500D01*
X123604500Y-96860445D01*
X123583633Y-96862500D01*
X122233016Y-96862500D01*
X122188781Y-96779742D01*
X122124088Y-96700912D01*
X122045258Y-96636219D01*
X121955322Y-96588147D01*
X121857736Y-96558545D01*
X121756250Y-96548549D01*
X121243750Y-96548549D01*
X121142264Y-96558545D01*
X121044678Y-96588147D01*
X120954742Y-96636219D01*
X120875912Y-96700912D01*
X120811219Y-96779742D01*
X120807072Y-96787500D01*
X120733016Y-96787500D01*
X120688781Y-96704742D01*
X120624088Y-96625912D01*
X120545258Y-96561219D01*
X120455322Y-96513147D01*
X120357736Y-96483545D01*
X120256250Y-96473549D01*
X119743750Y-96473549D01*
X119642264Y-96483545D01*
X119544678Y-96513147D01*
X119454742Y-96561219D01*
X119375912Y-96625912D01*
X119311219Y-96704742D01*
X119263147Y-96794678D01*
X119233545Y-96892264D01*
X119223549Y-96993750D01*
X119223549Y-97431250D01*
X119233545Y-97532736D01*
X119263147Y-97630322D01*
X119271527Y-97646000D01*
X114646632Y-97646000D01*
X112750316Y-95749684D01*
X112635470Y-95672947D01*
X112500000Y-95646000D01*
X108000000Y-95646000D01*
X107864530Y-95672947D01*
X107820000Y-95702701D01*
X107820000Y-94400000D01*
X107740000Y-94320000D01*
X106800000Y-94320000D01*
X106800000Y-96260000D01*
X106820000Y-96280000D01*
X106820000Y-96420000D01*
X106750000Y-96490000D01*
X106750000Y-97680000D01*
X106820000Y-97680000D01*
X106820000Y-98280000D01*
X106750000Y-98280000D01*
X106750000Y-99470000D01*
X106830000Y-99550000D01*
X107031517Y-99550000D01*
X107093340Y-99537703D01*
X107148920Y-99514681D01*
X107172947Y-99635470D01*
X107249684Y-99750316D01*
X107431250Y-99931882D01*
X107431250Y-100262500D01*
X107532500Y-100262500D01*
X107532500Y-100737500D01*
X107431250Y-100737500D01*
X107431250Y-101215000D01*
X107511250Y-101295000D01*
X107681517Y-101295000D01*
X107743340Y-101282703D01*
X107770727Y-101271359D01*
X108222917Y-101723549D01*
X107993750Y-101723549D01*
X107892264Y-101733545D01*
X107794678Y-101763147D01*
X107704742Y-101811219D01*
X107625912Y-101875912D01*
X107561219Y-101954742D01*
X107513147Y-102044678D01*
X107483545Y-102142264D01*
X107473549Y-102243750D01*
X107473549Y-102637911D01*
X107206223Y-102905237D01*
X107184950Y-102835111D01*
X107134568Y-102740853D01*
X107066765Y-102658235D01*
X106984147Y-102590432D01*
X106889889Y-102540050D01*
X106787613Y-102509025D01*
X106681250Y-102498549D01*
X106193750Y-102498549D01*
X106087387Y-102509025D01*
X105985111Y-102540050D01*
X105890853Y-102590432D01*
X105808235Y-102658235D01*
X105740432Y-102740853D01*
X105690050Y-102835111D01*
X105659025Y-102937387D01*
X105648549Y-103043750D01*
X105370000Y-103043750D01*
X105370000Y-102768483D01*
X105357702Y-102706659D01*
X105333580Y-102648423D01*
X105298560Y-102596012D01*
X105253988Y-102551440D01*
X105201577Y-102516420D01*
X105143340Y-102492297D01*
X105081517Y-102480000D01*
X104886250Y-102480000D01*
X104806250Y-102560000D01*
X104318750Y-102560000D01*
X104238750Y-102480000D01*
X104043483Y-102480000D01*
X103981660Y-102492297D01*
X103923423Y-102516420D01*
X103871012Y-102551440D01*
X103826440Y-102596012D01*
X103791420Y-102648423D01*
X103767298Y-102706659D01*
X103755000Y-102768483D01*
X100736192Y-102768483D01*
X100686302Y-102734134D01*
X100477331Y-102644149D01*
X100300000Y-102682647D01*
X99700000Y-102682647D01*
X99522669Y-102644149D01*
X99313698Y-102734134D01*
X99126298Y-102863158D01*
X98967670Y-103026263D01*
X98843910Y-103217181D01*
X98804968Y-103276784D01*
X96350000Y-103276784D01*
X96350000Y-95000000D01*
X98146000Y-95000000D01*
X98146000Y-97000000D01*
X98172947Y-97135470D01*
X98249684Y-97250316D01*
X98749684Y-97750316D01*
X98864530Y-97827053D01*
X99000000Y-97854000D01*
X99154024Y-97854000D01*
X99057893Y-97932893D01*
X98914184Y-98108003D01*
X98807398Y-98307785D01*
X98741640Y-98524561D01*
X98719436Y-98750000D01*
X98741640Y-98975439D01*
X98807398Y-99192215D01*
X98914184Y-99391997D01*
X99057893Y-99567107D01*
X99233003Y-99710816D01*
X99432785Y-99817602D01*
X99649561Y-99883360D01*
X99818508Y-99900000D01*
X100181492Y-99900000D01*
X100350439Y-99883360D01*
X100567215Y-99817602D01*
X100766997Y-99710816D01*
X100942107Y-99567107D01*
X101085816Y-99391997D01*
X101192602Y-99192215D01*
X101258360Y-98975439D01*
X101280564Y-98750000D01*
X101258360Y-98524561D01*
X101192602Y-98307785D01*
X101085816Y-98108003D01*
X100942107Y-97932893D01*
X100845976Y-97854000D01*
X102353368Y-97854000D01*
X102646000Y-98146632D01*
X102646000Y-98315328D01*
X102568944Y-98300000D01*
X102431056Y-98300000D01*
X102295818Y-98326901D01*
X102168426Y-98379668D01*
X102053776Y-98456274D01*
X101956274Y-98553776D01*
X101879668Y-98668426D01*
X101826901Y-98795818D01*
X101800000Y-98931056D01*
X101800000Y-98973960D01*
X100583081Y-100190879D01*
X100567215Y-100182398D01*
X100350439Y-100116640D01*
X100181492Y-100100000D01*
X99818508Y-100100000D01*
X99649561Y-100116640D01*
X99432785Y-100182398D01*
X99233003Y-100289184D01*
X99057893Y-100432893D01*
X98914184Y-100608003D01*
X98807398Y-100807785D01*
X98741640Y-101024561D01*
X98719436Y-101250000D01*
X98741640Y-101475439D01*
X98807398Y-101692215D01*
X98914184Y-101891997D01*
X99057893Y-102067107D01*
X99233003Y-102210816D01*
X99432785Y-102317602D01*
X99649561Y-102383360D01*
X99818508Y-102400000D01*
X100181492Y-102400000D01*
X100350439Y-102383360D01*
X100567215Y-102317602D01*
X100766997Y-102210816D01*
X100942107Y-102067107D01*
X101085816Y-101891997D01*
X101192602Y-101692215D01*
X101258360Y-101475439D01*
X101280564Y-101250000D01*
X101258360Y-101024561D01*
X101192602Y-100807785D01*
X101184121Y-100791919D01*
X102301759Y-99674281D01*
X102431056Y-99700000D01*
X102568944Y-99700000D01*
X102646000Y-99684672D01*
X102646000Y-101500000D01*
X102672947Y-101635470D01*
X102749684Y-101750316D01*
X102864530Y-101827053D01*
X103000000Y-101854000D01*
X105000000Y-101854000D01*
X105135470Y-101827053D01*
X105250316Y-101750316D01*
X105327053Y-101635470D01*
X105354000Y-101500000D01*
X105354000Y-101295000D01*
X105488750Y-101295000D01*
X105568750Y-101215000D01*
X105568750Y-100737500D01*
X106006250Y-100737500D01*
X106006250Y-101215000D01*
X106086250Y-101295000D01*
X106256517Y-101295000D01*
X106318340Y-101282703D01*
X106376577Y-101258580D01*
X106428988Y-101223560D01*
X106473560Y-101178988D01*
X106500000Y-101139418D01*
X106526440Y-101178988D01*
X106571012Y-101223560D01*
X106623423Y-101258580D01*
X106681660Y-101282703D01*
X106743483Y-101295000D01*
X106913750Y-101295000D01*
X106993750Y-101215000D01*
X106993750Y-100737500D01*
X106535000Y-100737500D01*
X106500000Y-100772500D01*
X106465000Y-100737500D01*
X106006250Y-100737500D01*
X105568750Y-100737500D01*
X105467500Y-100737500D01*
X105467500Y-100262500D01*
X105568750Y-100262500D01*
X105568750Y-99931882D01*
X105715632Y-99785000D01*
X106006250Y-99785000D01*
X106006250Y-100262500D01*
X106465000Y-100262500D01*
X106500000Y-100227500D01*
X106535000Y-100262500D01*
X106993750Y-100262500D01*
X106993750Y-99785000D01*
X106913750Y-99705000D01*
X106743483Y-99705000D01*
X106681660Y-99717297D01*
X106623423Y-99741420D01*
X106571012Y-99776440D01*
X106526440Y-99821012D01*
X106500000Y-99860582D01*
X106473560Y-99821012D01*
X106428988Y-99776440D01*
X106376577Y-99741420D01*
X106318340Y-99717297D01*
X106256517Y-99705000D01*
X106086250Y-99705000D01*
X106006250Y-99785000D01*
X105715632Y-99785000D01*
X105750316Y-99750316D01*
X105827053Y-99635470D01*
X105851080Y-99514681D01*
X105906660Y-99537703D01*
X105968483Y-99550000D01*
X106170000Y-99550000D01*
X106250000Y-99470000D01*
X106250000Y-98280000D01*
X106180000Y-98280000D01*
X106180000Y-97680000D01*
X106250000Y-97680000D01*
X106250000Y-96490000D01*
X106180000Y-96420000D01*
X106180000Y-96280000D01*
X106200000Y-96260000D01*
X106200000Y-94320000D01*
X105260000Y-94320000D01*
X105180000Y-94400000D01*
X105180000Y-95679368D01*
X103759328Y-94258696D01*
X112550000Y-94258696D01*
X112550000Y-94741304D01*
X112644152Y-95214639D01*
X112828838Y-95660510D01*
X113096960Y-96061784D01*
X113438216Y-96403040D01*
X113839490Y-96671162D01*
X114285361Y-96855848D01*
X114758696Y-96950000D01*
X115241304Y-96950000D01*
X115714639Y-96855848D01*
X116160510Y-96671162D01*
X116561784Y-96403040D01*
X116903040Y-96061784D01*
X116936805Y-96011250D01*
X120705000Y-96011250D01*
X120705000Y-96181517D01*
X120717297Y-96243340D01*
X120741420Y-96301577D01*
X120776440Y-96353988D01*
X120821012Y-96398560D01*
X120873423Y-96433580D01*
X120931659Y-96457702D01*
X120993483Y-96470000D01*
X121182500Y-96470000D01*
X121262500Y-96390000D01*
X121262500Y-95931250D01*
X121737500Y-95931250D01*
X121737500Y-96390000D01*
X121817500Y-96470000D01*
X122006517Y-96470000D01*
X122068341Y-96457702D01*
X122126577Y-96433580D01*
X122178988Y-96398560D01*
X122223560Y-96353988D01*
X122258580Y-96301577D01*
X122282703Y-96243340D01*
X122295000Y-96181517D01*
X122295000Y-96011250D01*
X122215000Y-95931250D01*
X121737500Y-95931250D01*
X121262500Y-95931250D01*
X120785000Y-95931250D01*
X120705000Y-96011250D01*
X116936805Y-96011250D01*
X117171162Y-95660510D01*
X117343900Y-95243483D01*
X120705000Y-95243483D01*
X120705000Y-95413750D01*
X120785000Y-95493750D01*
X121262500Y-95493750D01*
X121262500Y-95035000D01*
X121737500Y-95035000D01*
X121737500Y-95493750D01*
X122215000Y-95493750D01*
X122295000Y-95413750D01*
X122295000Y-95243483D01*
X122282703Y-95181660D01*
X122258580Y-95123423D01*
X122223560Y-95071012D01*
X122178988Y-95026440D01*
X122126577Y-94991420D01*
X122068341Y-94967298D01*
X122006517Y-94955000D01*
X121817500Y-94955000D01*
X121737500Y-95035000D01*
X121262500Y-95035000D01*
X121182500Y-94955000D01*
X120993483Y-94955000D01*
X120931659Y-94967298D01*
X120873423Y-94991420D01*
X120821012Y-95026440D01*
X120776440Y-95071012D01*
X120741420Y-95123423D01*
X120717297Y-95181660D01*
X120705000Y-95243483D01*
X117343900Y-95243483D01*
X117355848Y-95214639D01*
X117450000Y-94741304D01*
X117450000Y-94258696D01*
X117355848Y-93785361D01*
X117225367Y-93470352D01*
X125382000Y-93470352D01*
X125382000Y-93829648D01*
X125452095Y-94182041D01*
X125589592Y-94513988D01*
X125789206Y-94812733D01*
X126043267Y-95066794D01*
X126342012Y-95266408D01*
X126673959Y-95403905D01*
X127026352Y-95474000D01*
X127385648Y-95474000D01*
X127738041Y-95403905D01*
X128069988Y-95266408D01*
X128368733Y-95066794D01*
X128622794Y-94812733D01*
X128822408Y-94513988D01*
X128959905Y-94182041D01*
X129030000Y-93829648D01*
X129030000Y-93470352D01*
X130716000Y-93470352D01*
X130716000Y-93829648D01*
X130786095Y-94182041D01*
X130923592Y-94513988D01*
X131123206Y-94812733D01*
X131377267Y-95066794D01*
X131676012Y-95266408D01*
X132007959Y-95403905D01*
X132360352Y-95474000D01*
X132719648Y-95474000D01*
X133072041Y-95403905D01*
X133403988Y-95266408D01*
X133702733Y-95066794D01*
X133956794Y-94812733D01*
X134156408Y-94513988D01*
X134293905Y-94182041D01*
X134364000Y-93829648D01*
X134364000Y-93470352D01*
X134293905Y-93117959D01*
X134156408Y-92786012D01*
X133956794Y-92487267D01*
X133702733Y-92233206D01*
X133403988Y-92033592D01*
X133072041Y-91896095D01*
X132719648Y-91826000D01*
X132360352Y-91826000D01*
X132007959Y-91896095D01*
X131676012Y-92033592D01*
X131377267Y-92233206D01*
X131123206Y-92487267D01*
X130923592Y-92786012D01*
X130786095Y-93117959D01*
X130716000Y-93470352D01*
X129030000Y-93470352D01*
X128959905Y-93117959D01*
X128822408Y-92786012D01*
X128622794Y-92487267D01*
X128368733Y-92233206D01*
X128069988Y-92033592D01*
X127738041Y-91896095D01*
X127385648Y-91826000D01*
X127026352Y-91826000D01*
X126673959Y-91896095D01*
X126342012Y-92033592D01*
X126043267Y-92233206D01*
X125789206Y-92487267D01*
X125589592Y-92786012D01*
X125452095Y-93117959D01*
X125382000Y-93470352D01*
X117225367Y-93470352D01*
X117171162Y-93339490D01*
X116903040Y-92938216D01*
X116561784Y-92596960D01*
X116160510Y-92328838D01*
X115714639Y-92144152D01*
X115241304Y-92050000D01*
X114758696Y-92050000D01*
X114285361Y-92144152D01*
X113839490Y-92328838D01*
X113438216Y-92596960D01*
X113096960Y-92938216D01*
X112828838Y-93339490D01*
X112644152Y-93785361D01*
X112550000Y-94258696D01*
X103759328Y-94258696D01*
X103750316Y-94249684D01*
X103635470Y-94172947D01*
X103500000Y-94146000D01*
X99000000Y-94146000D01*
X98864530Y-94172947D01*
X98749684Y-94249684D01*
X98249684Y-94749684D01*
X98172947Y-94864530D01*
X98146000Y-95000000D01*
X96350000Y-95000000D01*
X96350000Y-93017122D01*
X96383071Y-92679838D01*
X96476052Y-92371870D01*
X96627079Y-92087831D01*
X96708105Y-91988483D01*
X105180000Y-91988483D01*
X105180000Y-93640000D01*
X105260000Y-93720000D01*
X106200000Y-93720000D01*
X106200000Y-91780000D01*
X106800000Y-91780000D01*
X106800000Y-93720000D01*
X107740000Y-93720000D01*
X107820000Y-93640000D01*
X107820000Y-91988483D01*
X107807702Y-91926659D01*
X107783580Y-91868423D01*
X107748560Y-91816012D01*
X107703988Y-91771440D01*
X107651577Y-91736420D01*
X107593340Y-91712297D01*
X107531517Y-91700000D01*
X106880000Y-91700000D01*
X106800000Y-91780000D01*
X106200000Y-91780000D01*
X106120000Y-91700000D01*
X105468483Y-91700000D01*
X105406660Y-91712297D01*
X105348423Y-91736420D01*
X105296012Y-91771440D01*
X105251440Y-91816012D01*
X105216420Y-91868423D01*
X105192298Y-91926659D01*
X105180000Y-91988483D01*
X96708105Y-91988483D01*
X96830400Y-91838536D01*
X97078271Y-91633479D01*
X97361250Y-91480473D01*
X97668560Y-91385346D01*
X98004849Y-91350000D01*
X132982878Y-91350000D01*
X133320162Y-91383071D01*
G04 #@! TD*
M02*
