G04 #@! TF.GenerationSoftware,KiCad,Pcbnew,6.0.0-d3dd2cf0fa~116~ubuntu20.04.1*
G04 #@! TF.CreationDate,2022-01-19T00:46:34+01:00*
G04 #@! TF.ProjectId,bobbycar,626f6262-7963-4617-922e-6b696361645f,rev?*
G04 #@! TF.SameCoordinates,Original*
G04 #@! TF.FileFunction,Soldermask,Bot*
G04 #@! TF.FilePolarity,Negative*
%FSLAX46Y46*%
G04 Gerber Fmt 4.6, Leading zero omitted, Abs format (unit mm)*
G04 Created by KiCad (PCBNEW 6.0.0-d3dd2cf0fa~116~ubuntu20.04.1) date 2022-01-19 00:46:34*
%MOMM*%
%LPD*%
G01*
G04 APERTURE LIST*
%ADD10C,1.600000*%
%ADD11O,1.600000X1.600000*%
%ADD12R,0.900000X0.500000*%
%ADD13R,0.800000X0.750000*%
%ADD14O,2.200000X2.200000*%
%ADD15R,2.200000X2.200000*%
%ADD16R,1.700000X1.700000*%
%ADD17O,1.700000X1.700000*%
%ADD18R,1.600000X1.600000*%
%ADD19C,1.750000*%
%ADD20R,1.750000X1.750000*%
%ADD21R,2.400000X2.400000*%
%ADD22C,2.400000*%
%ADD23R,1.800000X1.800000*%
%ADD24C,1.800000*%
%ADD25R,7.000000X1.270000*%
G04 APERTURE END LIST*
D10*
X139018000Y-100965000D03*
X144018000Y-100965000D03*
X126111000Y-96139000D03*
X126111000Y-91139000D03*
X143049000Y-88773000D03*
X138049000Y-88773000D03*
X139001500Y-95885000D03*
X144001500Y-95885000D03*
D11*
X123952000Y-100584000D03*
D10*
X123952000Y-110744000D03*
D12*
X122047000Y-110744000D03*
X122047000Y-109244000D03*
X118237000Y-110720000D03*
X118237000Y-109220000D03*
D13*
X140740000Y-95885000D03*
X142240000Y-95885000D03*
X140740000Y-100965000D03*
X142240000Y-100965000D03*
D14*
X109728000Y-93218000D03*
D15*
X117348000Y-93218000D03*
X117348000Y-96520000D03*
D14*
X109728000Y-96520000D03*
D16*
X141732000Y-105156000D03*
D17*
X141732000Y-107696000D03*
X141732000Y-110236000D03*
D10*
X120142000Y-100584000D03*
D11*
X120142000Y-110744000D03*
D10*
X117602000Y-88646000D03*
D11*
X127762000Y-88646000D03*
X112522000Y-110744000D03*
D10*
X112522000Y-100584000D03*
X116332000Y-100584000D03*
D11*
X116332000Y-110744000D03*
D10*
X129540000Y-99568000D03*
D18*
X127540000Y-99568000D03*
X135318500Y-98552000D03*
D10*
X133318500Y-98552000D03*
D19*
X104521000Y-96019000D03*
X104521000Y-93519000D03*
X104521000Y-91019000D03*
D20*
X104521000Y-88519000D03*
X104521000Y-101981000D03*
D19*
X104521000Y-104481000D03*
X104521000Y-106981000D03*
X104521000Y-109481000D03*
D21*
X149352000Y-106228000D03*
D22*
X149352000Y-109728000D03*
X149352000Y-91948000D03*
D21*
X149352000Y-88448000D03*
X149352000Y-97338000D03*
D22*
X149352000Y-100838000D03*
D23*
X123190000Y-93472000D03*
D24*
X120650000Y-93472000D03*
D25*
X157792800Y-96906000D03*
X157792800Y-100706000D03*
M02*
