%TF.GenerationSoftware,KiCad,Pcbnew,5.0.1*%
%TF.CreationDate,2019-02-24T22:19:24+01:00*%
%TF.ProjectId,bobbycar,626F6262796361722E6B696361645F70,rev?*%
%TF.SameCoordinates,Original*%
%TF.FileFunction,Paste,Top*%
%TF.FilePolarity,Positive*%
%FSLAX46Y46*%
G04 Gerber Fmt 4.6, Leading zero omitted, Abs format (unit mm)*
G04 Created by KiCad (PCBNEW 5.0.1) date So 24 Feb 2019 22:19:24 CET*
%MOMM*%
%LPD*%
G01*
G04 APERTURE LIST*
%ADD10C,0.100000*%
%ADD11R,2.500000X1.000000*%
%ADD12R,4.000000X2.000000*%
%ADD13C,0.750000*%
%ADD14R,1.000000X1.000000*%
%ADD15R,7.000000X1.270000*%
G04 APERTURE END LIST*
D10*
X162306000Y-91440000D02*
X162306000Y-92659200D01*
X158877000Y-92659200D02*
X162306000Y-92659200D01*
X158877000Y-91516200D02*
X158877000Y-92659200D01*
X156972000Y-91516200D02*
X158877000Y-91516200D01*
X156972000Y-92659200D02*
X156972000Y-91516200D01*
X154279600Y-92659200D02*
X156972000Y-92659200D01*
X154279600Y-95605600D02*
X154279600Y-92659200D01*
X161544000Y-95605600D02*
X154279600Y-95605600D01*
X161544000Y-102006400D02*
X161544000Y-95605600D01*
X154279600Y-102006400D02*
X161544000Y-102006400D01*
X154279600Y-104952800D02*
X154279600Y-102006400D01*
X156972000Y-104952800D02*
X154279600Y-104952800D01*
X156972000Y-106095800D02*
X156972000Y-104952800D01*
X158877000Y-106095800D02*
X156972000Y-106095800D01*
X158877000Y-104952800D02*
X158877000Y-106095800D01*
X162306000Y-104952800D02*
X158877000Y-104952800D01*
X162306000Y-106172000D02*
X162306000Y-104952800D01*
X162306000Y-91440000D02*
X156464000Y-85598000D01*
X162306000Y-106172000D02*
X155956000Y-112522000D01*
X100584000Y-85598000D02*
X100584000Y-112522000D01*
X155956000Y-112522000D02*
X100584000Y-112522000D01*
X156464000Y-85598000D02*
X100584000Y-85598000D01*
D11*
X130978000Y-90321000D03*
X130978000Y-91821000D03*
X130978000Y-93321000D03*
D12*
X134938000Y-91821000D03*
D13*
X132588000Y-91821000D03*
D10*
G36*
X132963000Y-92821000D02*
X132213000Y-92321000D01*
X132213000Y-91321000D01*
X132963000Y-90821000D01*
X132963000Y-92821000D01*
X132963000Y-92821000D01*
G37*
D14*
X110490000Y-88646000D03*
X110490000Y-87296000D03*
X110490000Y-89996000D03*
X113792000Y-89996000D03*
X113792000Y-87296000D03*
X113792000Y-88646000D03*
D15*
X157792800Y-96906000D03*
X157792800Y-100706000D03*
M02*
