G04 #@! TF.GenerationSoftware,KiCad,Pcbnew,6.0.0-d3dd2cf0fa~116~ubuntu20.04.1*
G04 #@! TF.CreationDate,2022-01-19T00:46:34+01:00*
G04 #@! TF.ProjectId,bobbycar,626f6262-7963-4617-922e-6b696361645f,rev?*
G04 #@! TF.SameCoordinates,Original*
G04 #@! TF.FileFunction,Profile,NP*
%FSLAX46Y46*%
G04 Gerber Fmt 4.6, Leading zero omitted, Abs format (unit mm)*
G04 Created by KiCad (PCBNEW 6.0.0-d3dd2cf0fa~116~ubuntu20.04.1) date 2022-01-19 00:46:34*
%MOMM*%
%LPD*%
G01*
G04 APERTURE LIST*
G04 #@! TA.AperFunction,Profile*
%ADD10C,0.100000*%
G04 #@! TD*
G04 APERTURE END LIST*
D10*
X162306000Y-91440000D02*
X162306000Y-92659200D01*
X158877000Y-92659200D02*
X162306000Y-92659200D01*
X158877000Y-91516200D02*
X158877000Y-92659200D01*
X156972000Y-91516200D02*
X158877000Y-91516200D01*
X156972000Y-92659200D02*
X156972000Y-91516200D01*
X154279600Y-92659200D02*
X156972000Y-92659200D01*
X154279600Y-95605600D02*
X154279600Y-92659200D01*
X161544000Y-95605600D02*
X154279600Y-95605600D01*
X161544000Y-102006400D02*
X161544000Y-95605600D01*
X154279600Y-102006400D02*
X161544000Y-102006400D01*
X154279600Y-104952800D02*
X154279600Y-102006400D01*
X156972000Y-104952800D02*
X154279600Y-104952800D01*
X156972000Y-106095800D02*
X156972000Y-104952800D01*
X158877000Y-106095800D02*
X156972000Y-106095800D01*
X158877000Y-104952800D02*
X158877000Y-106095800D01*
X162306000Y-104952800D02*
X158877000Y-104952800D01*
X162306000Y-106172000D02*
X162306000Y-104952800D01*
X162306000Y-91440000D02*
X156464000Y-85598000D01*
X162306000Y-106172000D02*
X155956000Y-112522000D01*
X100584000Y-85598000D02*
X100584000Y-112522000D01*
X155956000Y-112522000D02*
X100584000Y-112522000D01*
X156464000Y-85598000D02*
X100584000Y-85598000D01*
M02*
