%TF.GenerationSoftware,KiCad,Pcbnew,5.0.1*%
%TF.CreationDate,2019-02-24T22:19:24+01:00*%
%TF.ProjectId,bobbycar,626F6262796361722E6B696361645F70,rev?*%
%TF.SameCoordinates,Original*%
%TF.FileFunction,Legend,Top*%
%TF.FilePolarity,Positive*%
%FSLAX46Y46*%
G04 Gerber Fmt 4.6, Leading zero omitted, Abs format (unit mm)*
G04 Created by KiCad (PCBNEW 5.0.1) date So 24 Feb 2019 22:19:24 CET*
%MOMM*%
%LPD*%
G01*
G04 APERTURE LIST*
%ADD10C,0.250000*%
%ADD11C,0.300000*%
%ADD12C,0.200000*%
%ADD13C,0.100000*%
%ADD14C,0.120000*%
%ADD15C,0.203200*%
%ADD16C,0.150000*%
%ADD17C,0.152400*%
G04 APERTURE END LIST*
D10*
X140366904Y-101131666D02*
X140843095Y-101131666D01*
X140271666Y-101417380D02*
X140605000Y-100417380D01*
X140938333Y-101417380D01*
X141271666Y-101417380D02*
X141271666Y-100417380D01*
X141509761Y-100417380D01*
X141652619Y-100465000D01*
X141747857Y-100560238D01*
X141795476Y-100655476D01*
X141843095Y-100845952D01*
X141843095Y-100988809D01*
X141795476Y-101179285D01*
X141747857Y-101274523D01*
X141652619Y-101369761D01*
X141509761Y-101417380D01*
X141271666Y-101417380D01*
X142843095Y-101322142D02*
X142795476Y-101369761D01*
X142652619Y-101417380D01*
X142557380Y-101417380D01*
X142414523Y-101369761D01*
X142319285Y-101274523D01*
X142271666Y-101179285D01*
X142224047Y-100988809D01*
X142224047Y-100845952D01*
X142271666Y-100655476D01*
X142319285Y-100560238D01*
X142414523Y-100465000D01*
X142557380Y-100417380D01*
X142652619Y-100417380D01*
X142795476Y-100465000D01*
X142843095Y-100512619D01*
X140366904Y-96051666D02*
X140843095Y-96051666D01*
X140271666Y-96337380D02*
X140605000Y-95337380D01*
X140938333Y-96337380D01*
X141271666Y-96337380D02*
X141271666Y-95337380D01*
X141509761Y-95337380D01*
X141652619Y-95385000D01*
X141747857Y-95480238D01*
X141795476Y-95575476D01*
X141843095Y-95765952D01*
X141843095Y-95908809D01*
X141795476Y-96099285D01*
X141747857Y-96194523D01*
X141652619Y-96289761D01*
X141509761Y-96337380D01*
X141271666Y-96337380D01*
X142843095Y-96242142D02*
X142795476Y-96289761D01*
X142652619Y-96337380D01*
X142557380Y-96337380D01*
X142414523Y-96289761D01*
X142319285Y-96194523D01*
X142271666Y-96099285D01*
X142224047Y-95908809D01*
X142224047Y-95765952D01*
X142271666Y-95575476D01*
X142319285Y-95480238D01*
X142414523Y-95385000D01*
X142557380Y-95337380D01*
X142652619Y-95337380D01*
X142795476Y-95385000D01*
X142843095Y-95432619D01*
D11*
X124202000Y-107521142D02*
X124202000Y-106806857D01*
X124630571Y-107664000D02*
X123130571Y-107164000D01*
X124630571Y-106664000D01*
X124630571Y-106164000D02*
X123130571Y-106164000D01*
X123130571Y-105806857D01*
X123202000Y-105592571D01*
X123344857Y-105449714D01*
X123487714Y-105378285D01*
X123773428Y-105306857D01*
X123987714Y-105306857D01*
X124273428Y-105378285D01*
X124416285Y-105449714D01*
X124559142Y-105592571D01*
X124630571Y-105806857D01*
X124630571Y-106164000D01*
X124487714Y-103806857D02*
X124559142Y-103878285D01*
X124630571Y-104092571D01*
X124630571Y-104235428D01*
X124559142Y-104449714D01*
X124416285Y-104592571D01*
X124273428Y-104664000D01*
X123987714Y-104735428D01*
X123773428Y-104735428D01*
X123487714Y-104664000D01*
X123344857Y-104592571D01*
X123202000Y-104449714D01*
X123130571Y-104235428D01*
X123130571Y-104092571D01*
X123202000Y-103878285D01*
X123273428Y-103806857D01*
X120392000Y-107521142D02*
X120392000Y-106806857D01*
X120820571Y-107664000D02*
X119320571Y-107164000D01*
X120820571Y-106664000D01*
X120820571Y-106164000D02*
X119320571Y-106164000D01*
X119320571Y-105806857D01*
X119392000Y-105592571D01*
X119534857Y-105449714D01*
X119677714Y-105378285D01*
X119963428Y-105306857D01*
X120177714Y-105306857D01*
X120463428Y-105378285D01*
X120606285Y-105449714D01*
X120749142Y-105592571D01*
X120820571Y-105806857D01*
X120820571Y-106164000D01*
X120677714Y-103806857D02*
X120749142Y-103878285D01*
X120820571Y-104092571D01*
X120820571Y-104235428D01*
X120749142Y-104449714D01*
X120606285Y-104592571D01*
X120463428Y-104664000D01*
X120177714Y-104735428D01*
X119963428Y-104735428D01*
X119677714Y-104664000D01*
X119534857Y-104592571D01*
X119392000Y-104449714D01*
X119320571Y-104235428D01*
X119320571Y-104092571D01*
X119392000Y-103878285D01*
X119463428Y-103806857D01*
X117264571Y-106985428D02*
X115764571Y-106985428D01*
X115407428Y-106342571D02*
X115336000Y-106199714D01*
X115336000Y-105985428D01*
X115407428Y-105842571D01*
X115550285Y-105771142D01*
X115693142Y-105771142D01*
X115836000Y-105842571D01*
X116336000Y-106342571D01*
X116336000Y-105771142D01*
X117121714Y-104271142D02*
X117193142Y-104342571D01*
X117264571Y-104556857D01*
X117264571Y-104699714D01*
X117193142Y-104914000D01*
X117050285Y-105056857D01*
X116907428Y-105128285D01*
X116621714Y-105199714D01*
X116407428Y-105199714D01*
X116121714Y-105128285D01*
X115978857Y-105056857D01*
X115836000Y-104914000D01*
X115764571Y-104699714D01*
X115764571Y-104556857D01*
X115836000Y-104342571D01*
X115907428Y-104271142D01*
X113403771Y-106985428D02*
X111903771Y-106985428D01*
X111546628Y-106342571D02*
X111475200Y-106199714D01*
X111475200Y-105985428D01*
X111546628Y-105842571D01*
X111689485Y-105771142D01*
X111832342Y-105771142D01*
X111975200Y-105842571D01*
X112475200Y-106342571D01*
X112475200Y-105771142D01*
X113260914Y-104271142D02*
X113332342Y-104342571D01*
X113403771Y-104556857D01*
X113403771Y-104699714D01*
X113332342Y-104914000D01*
X113189485Y-105056857D01*
X113046628Y-105128285D01*
X112760914Y-105199714D01*
X112546628Y-105199714D01*
X112260914Y-105128285D01*
X112118057Y-105056857D01*
X111975200Y-104914000D01*
X111903771Y-104699714D01*
X111903771Y-104556857D01*
X111975200Y-104342571D01*
X112046628Y-104271142D01*
D12*
X140188904Y-110369333D02*
X139807952Y-110636000D01*
X140188904Y-110826476D02*
X139388904Y-110826476D01*
X139388904Y-110521714D01*
X139427000Y-110445523D01*
X139465095Y-110407428D01*
X139541285Y-110369333D01*
X139655571Y-110369333D01*
X139731761Y-110407428D01*
X139769857Y-110445523D01*
X139807952Y-110521714D01*
X139807952Y-110826476D01*
X139388904Y-110102666D02*
X140188904Y-109569333D01*
X139388904Y-109569333D02*
X140188904Y-110102666D01*
X139388904Y-108305523D02*
X139388904Y-107848380D01*
X140188904Y-108076952D02*
X139388904Y-108076952D01*
X139388904Y-107657904D02*
X140188904Y-107124571D01*
X139388904Y-107124571D02*
X140188904Y-107657904D01*
X139427000Y-105765523D02*
X139388904Y-105841714D01*
X139388904Y-105956000D01*
X139427000Y-106070285D01*
X139503190Y-106146476D01*
X139579380Y-106184571D01*
X139731761Y-106222666D01*
X139846047Y-106222666D01*
X139998428Y-106184571D01*
X140074619Y-106146476D01*
X140150809Y-106070285D01*
X140188904Y-105956000D01*
X140188904Y-105879809D01*
X140150809Y-105765523D01*
X140112714Y-105727428D01*
X139846047Y-105727428D01*
X139846047Y-105879809D01*
X140188904Y-105384571D02*
X139388904Y-105384571D01*
X140188904Y-104927428D01*
X139388904Y-104927428D01*
X140188904Y-104546476D02*
X139388904Y-104546476D01*
X139388904Y-104356000D01*
X139427000Y-104241714D01*
X139503190Y-104165523D01*
X139579380Y-104127428D01*
X139731761Y-104089333D01*
X139846047Y-104089333D01*
X139998428Y-104127428D01*
X140074619Y-104165523D01*
X140150809Y-104241714D01*
X140188904Y-104356000D01*
X140188904Y-104546476D01*
X145522904Y-99910761D02*
X144722904Y-99910761D01*
X145522904Y-99529809D02*
X144722904Y-99529809D01*
X145522904Y-99072666D01*
X144722904Y-99072666D01*
X144799095Y-98120285D02*
X144761000Y-98082190D01*
X144722904Y-98006000D01*
X144722904Y-97815523D01*
X144761000Y-97739333D01*
X144799095Y-97701238D01*
X144875285Y-97663142D01*
X144951476Y-97663142D01*
X145065761Y-97701238D01*
X145522904Y-98158380D01*
X145522904Y-97663142D01*
X144978380Y-109330952D02*
X143978380Y-109330952D01*
X144978380Y-108854761D02*
X143978380Y-108854761D01*
X144978380Y-108283333D01*
X143978380Y-108283333D01*
X144978380Y-106521428D02*
X144978380Y-107092857D01*
X144978380Y-106807142D02*
X143978380Y-106807142D01*
X144121238Y-106902380D01*
X144216476Y-106997619D01*
X144264095Y-107092857D01*
X144978380Y-92146190D02*
X143978380Y-92146190D01*
X143978380Y-91765238D01*
X144026000Y-91670000D01*
X144073619Y-91622380D01*
X144168857Y-91574761D01*
X144311714Y-91574761D01*
X144406952Y-91622380D01*
X144454571Y-91670000D01*
X144502190Y-91765238D01*
X144502190Y-92146190D01*
X144978380Y-91003333D02*
X144930761Y-91098571D01*
X144883142Y-91146190D01*
X144787904Y-91193809D01*
X144502190Y-91193809D01*
X144406952Y-91146190D01*
X144359333Y-91098571D01*
X144311714Y-91003333D01*
X144311714Y-90860476D01*
X144359333Y-90765238D01*
X144406952Y-90717619D01*
X144502190Y-90670000D01*
X144787904Y-90670000D01*
X144883142Y-90717619D01*
X144930761Y-90765238D01*
X144978380Y-90860476D01*
X144978380Y-91003333D01*
X144311714Y-90336666D02*
X144978380Y-90146190D01*
X144502190Y-89955714D01*
X144978380Y-89765238D01*
X144311714Y-89574761D01*
X144930761Y-88812857D02*
X144978380Y-88908095D01*
X144978380Y-89098571D01*
X144930761Y-89193809D01*
X144835523Y-89241428D01*
X144454571Y-89241428D01*
X144359333Y-89193809D01*
X144311714Y-89098571D01*
X144311714Y-88908095D01*
X144359333Y-88812857D01*
X144454571Y-88765238D01*
X144549809Y-88765238D01*
X144645047Y-89241428D01*
X144978380Y-88336666D02*
X144311714Y-88336666D01*
X144502190Y-88336666D02*
X144406952Y-88289047D01*
X144359333Y-88241428D01*
X144311714Y-88146190D01*
X144311714Y-88050952D01*
D10*
X107596857Y-86185714D02*
X107525428Y-86400000D01*
X107525428Y-86757142D01*
X107596857Y-86900000D01*
X107668285Y-86971428D01*
X107811142Y-87042857D01*
X107954000Y-87042857D01*
X108096857Y-86971428D01*
X108168285Y-86900000D01*
X108239714Y-86757142D01*
X108311142Y-86471428D01*
X108382571Y-86328571D01*
X108454000Y-86257142D01*
X108596857Y-86185714D01*
X108739714Y-86185714D01*
X108882571Y-86257142D01*
X108954000Y-86328571D01*
X109025428Y-86471428D01*
X109025428Y-86828571D01*
X108954000Y-87042857D01*
X107525428Y-87900000D02*
X107596857Y-87757142D01*
X107739714Y-87685714D01*
X109025428Y-87685714D01*
X107525428Y-89114285D02*
X108311142Y-89114285D01*
X108454000Y-89042857D01*
X108525428Y-88900000D01*
X108525428Y-88614285D01*
X108454000Y-88471428D01*
X107596857Y-89114285D02*
X107525428Y-88971428D01*
X107525428Y-88614285D01*
X107596857Y-88471428D01*
X107739714Y-88400000D01*
X107882571Y-88400000D01*
X108025428Y-88471428D01*
X108096857Y-88614285D01*
X108096857Y-88971428D01*
X108168285Y-89114285D01*
X108525428Y-89685714D02*
X107525428Y-90042857D01*
X108525428Y-90400000D01*
X107596857Y-91542857D02*
X107525428Y-91400000D01*
X107525428Y-91114285D01*
X107596857Y-90971428D01*
X107739714Y-90900000D01*
X108311142Y-90900000D01*
X108454000Y-90971428D01*
X108525428Y-91114285D01*
X108525428Y-91400000D01*
X108454000Y-91542857D01*
X108311142Y-91614285D01*
X108168285Y-91614285D01*
X108025428Y-90900000D01*
X107652428Y-104882571D02*
X109152428Y-104882571D01*
X108081000Y-105382571D01*
X109152428Y-105882571D01*
X107652428Y-105882571D01*
X107652428Y-107239714D02*
X108438142Y-107239714D01*
X108581000Y-107168285D01*
X108652428Y-107025428D01*
X108652428Y-106739714D01*
X108581000Y-106596857D01*
X107723857Y-107239714D02*
X107652428Y-107096857D01*
X107652428Y-106739714D01*
X107723857Y-106596857D01*
X107866714Y-106525428D01*
X108009571Y-106525428D01*
X108152428Y-106596857D01*
X108223857Y-106739714D01*
X108223857Y-107096857D01*
X108295285Y-107239714D01*
X107723857Y-107882571D02*
X107652428Y-108025428D01*
X107652428Y-108311142D01*
X107723857Y-108454000D01*
X107866714Y-108525428D01*
X107938142Y-108525428D01*
X108081000Y-108454000D01*
X108152428Y-108311142D01*
X108152428Y-108096857D01*
X108223857Y-107954000D01*
X108366714Y-107882571D01*
X108438142Y-107882571D01*
X108581000Y-107954000D01*
X108652428Y-108096857D01*
X108652428Y-108311142D01*
X108581000Y-108454000D01*
X108652428Y-108954000D02*
X108652428Y-109525428D01*
X109152428Y-109168285D02*
X107866714Y-109168285D01*
X107723857Y-109239714D01*
X107652428Y-109382571D01*
X107652428Y-109525428D01*
X107723857Y-110596857D02*
X107652428Y-110454000D01*
X107652428Y-110168285D01*
X107723857Y-110025428D01*
X107866714Y-109954000D01*
X108438142Y-109954000D01*
X108581000Y-110025428D01*
X108652428Y-110168285D01*
X108652428Y-110454000D01*
X108581000Y-110596857D01*
X108438142Y-110668285D01*
X108295285Y-110668285D01*
X108152428Y-109954000D01*
X107652428Y-111311142D02*
X108652428Y-111311142D01*
X108366714Y-111311142D02*
X108509571Y-111382571D01*
X108581000Y-111454000D01*
X108652428Y-111596857D01*
X108652428Y-111739714D01*
D13*
X162306000Y-91440000D02*
X162306000Y-92659200D01*
X158877000Y-92659200D02*
X162306000Y-92659200D01*
X158877000Y-91516200D02*
X158877000Y-92659200D01*
X156972000Y-91516200D02*
X158877000Y-91516200D01*
X156972000Y-92659200D02*
X156972000Y-91516200D01*
X154279600Y-92659200D02*
X156972000Y-92659200D01*
X154279600Y-95605600D02*
X154279600Y-92659200D01*
X161544000Y-95605600D02*
X154279600Y-95605600D01*
X161544000Y-102006400D02*
X161544000Y-95605600D01*
X154279600Y-102006400D02*
X161544000Y-102006400D01*
X154279600Y-104952800D02*
X154279600Y-102006400D01*
X156972000Y-104952800D02*
X154279600Y-104952800D01*
X156972000Y-106095800D02*
X156972000Y-104952800D01*
X158877000Y-106095800D02*
X156972000Y-106095800D01*
X158877000Y-104952800D02*
X158877000Y-106095800D01*
X162306000Y-104952800D02*
X158877000Y-104952800D01*
X162306000Y-106172000D02*
X162306000Y-104952800D01*
X162306000Y-91440000D02*
X156464000Y-85598000D01*
X162306000Y-106172000D02*
X155956000Y-112522000D01*
X100584000Y-85598000D02*
X100584000Y-112522000D01*
X155956000Y-112522000D02*
X100584000Y-112522000D01*
X156464000Y-85598000D02*
X100584000Y-85598000D01*
D14*
X138958000Y-99969000D02*
X138958000Y-99655000D01*
X138958000Y-102275000D02*
X138958000Y-101961000D01*
X144078000Y-99969000D02*
X144078000Y-99655000D01*
X144078000Y-102275000D02*
X144078000Y-101961000D01*
X144078000Y-99655000D02*
X138958000Y-99655000D01*
X144078000Y-102275000D02*
X138958000Y-102275000D01*
X124801000Y-96199000D02*
X124801000Y-91079000D01*
X127421000Y-96199000D02*
X127421000Y-91079000D01*
X124801000Y-96199000D02*
X125115000Y-96199000D01*
X127107000Y-96199000D02*
X127421000Y-96199000D01*
X124801000Y-91079000D02*
X125115000Y-91079000D01*
X127107000Y-91079000D02*
X127421000Y-91079000D01*
X143109000Y-89769000D02*
X143109000Y-90083000D01*
X143109000Y-87463000D02*
X143109000Y-87777000D01*
X137989000Y-89769000D02*
X137989000Y-90083000D01*
X137989000Y-87463000D02*
X137989000Y-87777000D01*
X137989000Y-90083000D02*
X143109000Y-90083000D01*
X137989000Y-87463000D02*
X143109000Y-87463000D01*
X138941500Y-94575000D02*
X144061500Y-94575000D01*
X138941500Y-97195000D02*
X144061500Y-97195000D01*
X138941500Y-94575000D02*
X138941500Y-94889000D01*
X138941500Y-96881000D02*
X138941500Y-97195000D01*
X144061500Y-94575000D02*
X144061500Y-94889000D01*
X144061500Y-96881000D02*
X144061500Y-97195000D01*
X123952000Y-101564000D02*
X123952000Y-102454000D01*
X123952000Y-109764000D02*
X123952000Y-108874000D01*
X122642000Y-102454000D02*
X122642000Y-108874000D01*
X125262000Y-102454000D02*
X122642000Y-102454000D01*
X125262000Y-108874000D02*
X125262000Y-102454000D01*
X122642000Y-108874000D02*
X125262000Y-108874000D01*
X115358000Y-94628000D02*
X115358000Y-91808000D01*
X110878000Y-91808000D02*
X110878000Y-91938000D01*
X116198000Y-91808000D02*
X110878000Y-91808000D01*
X116198000Y-91938000D02*
X116198000Y-91808000D01*
X110878000Y-94628000D02*
X110878000Y-94498000D01*
X116198000Y-94628000D02*
X110878000Y-94628000D01*
X116198000Y-94498000D02*
X116198000Y-94628000D01*
X116198000Y-97800000D02*
X116198000Y-97930000D01*
X116198000Y-97930000D02*
X110878000Y-97930000D01*
X110878000Y-97930000D02*
X110878000Y-97800000D01*
X116198000Y-95240000D02*
X116198000Y-95110000D01*
X116198000Y-95110000D02*
X110878000Y-95110000D01*
X110878000Y-95110000D02*
X110878000Y-95240000D01*
X115358000Y-97930000D02*
X115358000Y-95110000D01*
X134738000Y-93021000D02*
X134738000Y-94221000D01*
X134738000Y-94221000D02*
X132038000Y-94221000D01*
X130738000Y-89421000D02*
X134738000Y-89421000D01*
X134738000Y-89421000D02*
X134738000Y-90621000D01*
X140402000Y-111566000D02*
X143062000Y-111566000D01*
X140402000Y-106426000D02*
X140402000Y-111566000D01*
X143062000Y-106426000D02*
X143062000Y-111566000D01*
X140402000Y-106426000D02*
X143062000Y-106426000D01*
X140402000Y-105156000D02*
X140402000Y-103826000D01*
X140402000Y-103826000D02*
X141732000Y-103826000D01*
X121452000Y-102454000D02*
X118832000Y-102454000D01*
X118832000Y-102454000D02*
X118832000Y-108874000D01*
X118832000Y-108874000D02*
X121452000Y-108874000D01*
X121452000Y-108874000D02*
X121452000Y-102454000D01*
X120142000Y-101564000D02*
X120142000Y-102454000D01*
X120142000Y-109764000D02*
X120142000Y-108874000D01*
X119472000Y-87336000D02*
X119472000Y-89956000D01*
X119472000Y-89956000D02*
X125892000Y-89956000D01*
X125892000Y-89956000D02*
X125892000Y-87336000D01*
X125892000Y-87336000D02*
X119472000Y-87336000D01*
X118582000Y-88646000D02*
X119472000Y-88646000D01*
X126782000Y-88646000D02*
X125892000Y-88646000D01*
X112522000Y-109764000D02*
X112522000Y-108874000D01*
X112522000Y-101564000D02*
X112522000Y-102454000D01*
X113832000Y-108874000D02*
X113832000Y-102454000D01*
X111212000Y-108874000D02*
X113832000Y-108874000D01*
X111212000Y-102454000D02*
X111212000Y-108874000D01*
X113832000Y-102454000D02*
X111212000Y-102454000D01*
X117642000Y-102454000D02*
X115022000Y-102454000D01*
X115022000Y-102454000D02*
X115022000Y-108874000D01*
X115022000Y-108874000D02*
X117642000Y-108874000D01*
X117642000Y-108874000D02*
X117642000Y-102454000D01*
X116332000Y-101564000D02*
X116332000Y-102454000D01*
X116332000Y-109764000D02*
X116332000Y-108874000D01*
X125940000Y-98918000D02*
X125940000Y-100218000D01*
X125340000Y-99568000D02*
X126540000Y-99568000D01*
X131101000Y-99214000D02*
X131101000Y-99922000D01*
X131061000Y-99009000D02*
X131061000Y-100127000D01*
X131021000Y-98861000D02*
X131021000Y-100275000D01*
X130981000Y-98739000D02*
X130981000Y-100397000D01*
X130941000Y-98634000D02*
X130941000Y-100502000D01*
X130901000Y-98540000D02*
X130901000Y-100596000D01*
X130861000Y-98456000D02*
X130861000Y-100680000D01*
X130821000Y-98379000D02*
X130821000Y-100757000D01*
X130781000Y-98307000D02*
X130781000Y-100829000D01*
X130741000Y-98241000D02*
X130741000Y-100895000D01*
X130701000Y-98178000D02*
X130701000Y-100958000D01*
X130661000Y-98120000D02*
X130661000Y-101016000D01*
X130621000Y-98064000D02*
X130621000Y-101072000D01*
X130581000Y-98012000D02*
X130581000Y-101124000D01*
X130541000Y-97962000D02*
X130541000Y-101174000D01*
X130501000Y-100548000D02*
X130501000Y-101222000D01*
X130501000Y-97914000D02*
X130501000Y-98588000D01*
X130461000Y-100548000D02*
X130461000Y-101267000D01*
X130461000Y-97869000D02*
X130461000Y-98588000D01*
X130421000Y-100548000D02*
X130421000Y-101310000D01*
X130421000Y-97826000D02*
X130421000Y-98588000D01*
X130381000Y-100548000D02*
X130381000Y-101351000D01*
X130381000Y-97785000D02*
X130381000Y-98588000D01*
X130341000Y-100548000D02*
X130341000Y-101391000D01*
X130341000Y-97745000D02*
X130341000Y-98588000D01*
X130301000Y-100548000D02*
X130301000Y-101429000D01*
X130301000Y-97707000D02*
X130301000Y-98588000D01*
X130261000Y-100548000D02*
X130261000Y-101465000D01*
X130261000Y-97671000D02*
X130261000Y-98588000D01*
X130221000Y-100548000D02*
X130221000Y-101500000D01*
X130221000Y-97636000D02*
X130221000Y-98588000D01*
X130181000Y-100548000D02*
X130181000Y-101533000D01*
X130181000Y-97603000D02*
X130181000Y-98588000D01*
X130141000Y-100548000D02*
X130141000Y-101565000D01*
X130141000Y-97571000D02*
X130141000Y-98588000D01*
X130101000Y-100548000D02*
X130101000Y-101596000D01*
X130101000Y-97540000D02*
X130101000Y-98588000D01*
X130061000Y-100548000D02*
X130061000Y-101626000D01*
X130061000Y-97510000D02*
X130061000Y-98588000D01*
X130021000Y-100548000D02*
X130021000Y-101654000D01*
X130021000Y-97482000D02*
X130021000Y-98588000D01*
X129981000Y-100548000D02*
X129981000Y-101681000D01*
X129981000Y-97455000D02*
X129981000Y-98588000D01*
X129941000Y-100548000D02*
X129941000Y-101708000D01*
X129941000Y-97428000D02*
X129941000Y-98588000D01*
X129901000Y-100548000D02*
X129901000Y-101733000D01*
X129901000Y-97403000D02*
X129901000Y-98588000D01*
X129861000Y-100548000D02*
X129861000Y-101757000D01*
X129861000Y-97379000D02*
X129861000Y-98588000D01*
X129821000Y-100548000D02*
X129821000Y-101780000D01*
X129821000Y-97356000D02*
X129821000Y-98588000D01*
X129781000Y-100548000D02*
X129781000Y-101802000D01*
X129781000Y-97334000D02*
X129781000Y-98588000D01*
X129741000Y-100548000D02*
X129741000Y-101824000D01*
X129741000Y-97312000D02*
X129741000Y-98588000D01*
X129701000Y-100548000D02*
X129701000Y-101844000D01*
X129701000Y-97292000D02*
X129701000Y-98588000D01*
X129661000Y-100548000D02*
X129661000Y-101864000D01*
X129661000Y-97272000D02*
X129661000Y-98588000D01*
X129621000Y-100548000D02*
X129621000Y-101883000D01*
X129621000Y-97253000D02*
X129621000Y-98588000D01*
X129581000Y-100548000D02*
X129581000Y-101901000D01*
X129581000Y-97235000D02*
X129581000Y-98588000D01*
X129541000Y-100548000D02*
X129541000Y-101918000D01*
X129541000Y-97218000D02*
X129541000Y-98588000D01*
X129501000Y-100548000D02*
X129501000Y-101934000D01*
X129501000Y-97202000D02*
X129501000Y-98588000D01*
X129461000Y-100548000D02*
X129461000Y-101950000D01*
X129461000Y-97186000D02*
X129461000Y-98588000D01*
X129421000Y-100548000D02*
X129421000Y-101964000D01*
X129421000Y-97172000D02*
X129421000Y-98588000D01*
X129381000Y-100548000D02*
X129381000Y-101978000D01*
X129381000Y-97158000D02*
X129381000Y-98588000D01*
X129341000Y-100548000D02*
X129341000Y-101992000D01*
X129341000Y-97144000D02*
X129341000Y-98588000D01*
X129301000Y-100548000D02*
X129301000Y-102004000D01*
X129301000Y-97132000D02*
X129301000Y-98588000D01*
X129261000Y-100548000D02*
X129261000Y-102016000D01*
X129261000Y-97120000D02*
X129261000Y-98588000D01*
X129220000Y-100548000D02*
X129220000Y-102028000D01*
X129220000Y-97108000D02*
X129220000Y-98588000D01*
X129180000Y-100548000D02*
X129180000Y-102038000D01*
X129180000Y-97098000D02*
X129180000Y-98588000D01*
X129140000Y-100548000D02*
X129140000Y-102048000D01*
X129140000Y-97088000D02*
X129140000Y-98588000D01*
X129100000Y-100548000D02*
X129100000Y-102057000D01*
X129100000Y-97079000D02*
X129100000Y-98588000D01*
X129060000Y-100548000D02*
X129060000Y-102066000D01*
X129060000Y-97070000D02*
X129060000Y-98588000D01*
X129020000Y-100548000D02*
X129020000Y-102074000D01*
X129020000Y-97062000D02*
X129020000Y-98588000D01*
X128980000Y-100548000D02*
X128980000Y-102081000D01*
X128980000Y-97055000D02*
X128980000Y-98588000D01*
X128940000Y-100548000D02*
X128940000Y-102087000D01*
X128940000Y-97049000D02*
X128940000Y-98588000D01*
X128900000Y-100548000D02*
X128900000Y-102093000D01*
X128900000Y-97043000D02*
X128900000Y-98588000D01*
X128860000Y-100548000D02*
X128860000Y-102099000D01*
X128860000Y-97037000D02*
X128860000Y-98588000D01*
X128820000Y-100548000D02*
X128820000Y-102103000D01*
X128820000Y-97033000D02*
X128820000Y-98588000D01*
X128780000Y-100548000D02*
X128780000Y-102107000D01*
X128780000Y-97029000D02*
X128780000Y-98588000D01*
X128740000Y-100548000D02*
X128740000Y-102111000D01*
X128740000Y-97025000D02*
X128740000Y-98588000D01*
X128700000Y-100548000D02*
X128700000Y-102114000D01*
X128700000Y-97022000D02*
X128700000Y-98588000D01*
X128660000Y-100548000D02*
X128660000Y-102116000D01*
X128660000Y-97020000D02*
X128660000Y-98588000D01*
X128620000Y-100548000D02*
X128620000Y-102117000D01*
X128620000Y-97019000D02*
X128620000Y-98588000D01*
X128580000Y-100548000D02*
X128580000Y-102118000D01*
X128580000Y-97018000D02*
X128580000Y-98588000D01*
X128540000Y-97018000D02*
X128540000Y-102118000D01*
X130845722Y-100747723D02*
G75*
G03X130845580Y-98388000I-2305722J1179723D01*
G01*
X130845722Y-100747723D02*
G75*
G02X126234420Y-100748000I-2305722J1179723D01*
G01*
X130845722Y-98388277D02*
G75*
G03X126234420Y-98388000I-2305722J-1179723D01*
G01*
X132012778Y-99731723D02*
G75*
G03X136624080Y-99732000I2305722J1179723D01*
G01*
X132012778Y-97372277D02*
G75*
G02X136624080Y-97372000I2305722J-1179723D01*
G01*
X132012778Y-97372277D02*
G75*
G03X132012920Y-99732000I2305722J-1179723D01*
G01*
X134318500Y-101102000D02*
X134318500Y-96002000D01*
X134278500Y-101102000D02*
X134278500Y-99532000D01*
X134278500Y-97572000D02*
X134278500Y-96002000D01*
X134238500Y-101101000D02*
X134238500Y-99532000D01*
X134238500Y-97572000D02*
X134238500Y-96003000D01*
X134198500Y-101100000D02*
X134198500Y-99532000D01*
X134198500Y-97572000D02*
X134198500Y-96004000D01*
X134158500Y-101098000D02*
X134158500Y-99532000D01*
X134158500Y-97572000D02*
X134158500Y-96006000D01*
X134118500Y-101095000D02*
X134118500Y-99532000D01*
X134118500Y-97572000D02*
X134118500Y-96009000D01*
X134078500Y-101091000D02*
X134078500Y-99532000D01*
X134078500Y-97572000D02*
X134078500Y-96013000D01*
X134038500Y-101087000D02*
X134038500Y-99532000D01*
X134038500Y-97572000D02*
X134038500Y-96017000D01*
X133998500Y-101083000D02*
X133998500Y-99532000D01*
X133998500Y-97572000D02*
X133998500Y-96021000D01*
X133958500Y-101077000D02*
X133958500Y-99532000D01*
X133958500Y-97572000D02*
X133958500Y-96027000D01*
X133918500Y-101071000D02*
X133918500Y-99532000D01*
X133918500Y-97572000D02*
X133918500Y-96033000D01*
X133878500Y-101065000D02*
X133878500Y-99532000D01*
X133878500Y-97572000D02*
X133878500Y-96039000D01*
X133838500Y-101058000D02*
X133838500Y-99532000D01*
X133838500Y-97572000D02*
X133838500Y-96046000D01*
X133798500Y-101050000D02*
X133798500Y-99532000D01*
X133798500Y-97572000D02*
X133798500Y-96054000D01*
X133758500Y-101041000D02*
X133758500Y-99532000D01*
X133758500Y-97572000D02*
X133758500Y-96063000D01*
X133718500Y-101032000D02*
X133718500Y-99532000D01*
X133718500Y-97572000D02*
X133718500Y-96072000D01*
X133678500Y-101022000D02*
X133678500Y-99532000D01*
X133678500Y-97572000D02*
X133678500Y-96082000D01*
X133638500Y-101012000D02*
X133638500Y-99532000D01*
X133638500Y-97572000D02*
X133638500Y-96092000D01*
X133597500Y-101000000D02*
X133597500Y-99532000D01*
X133597500Y-97572000D02*
X133597500Y-96104000D01*
X133557500Y-100988000D02*
X133557500Y-99532000D01*
X133557500Y-97572000D02*
X133557500Y-96116000D01*
X133517500Y-100976000D02*
X133517500Y-99532000D01*
X133517500Y-97572000D02*
X133517500Y-96128000D01*
X133477500Y-100962000D02*
X133477500Y-99532000D01*
X133477500Y-97572000D02*
X133477500Y-96142000D01*
X133437500Y-100948000D02*
X133437500Y-99532000D01*
X133437500Y-97572000D02*
X133437500Y-96156000D01*
X133397500Y-100934000D02*
X133397500Y-99532000D01*
X133397500Y-97572000D02*
X133397500Y-96170000D01*
X133357500Y-100918000D02*
X133357500Y-99532000D01*
X133357500Y-97572000D02*
X133357500Y-96186000D01*
X133317500Y-100902000D02*
X133317500Y-99532000D01*
X133317500Y-97572000D02*
X133317500Y-96202000D01*
X133277500Y-100885000D02*
X133277500Y-99532000D01*
X133277500Y-97572000D02*
X133277500Y-96219000D01*
X133237500Y-100867000D02*
X133237500Y-99532000D01*
X133237500Y-97572000D02*
X133237500Y-96237000D01*
X133197500Y-100848000D02*
X133197500Y-99532000D01*
X133197500Y-97572000D02*
X133197500Y-96256000D01*
X133157500Y-100828000D02*
X133157500Y-99532000D01*
X133157500Y-97572000D02*
X133157500Y-96276000D01*
X133117500Y-100808000D02*
X133117500Y-99532000D01*
X133117500Y-97572000D02*
X133117500Y-96296000D01*
X133077500Y-100786000D02*
X133077500Y-99532000D01*
X133077500Y-97572000D02*
X133077500Y-96318000D01*
X133037500Y-100764000D02*
X133037500Y-99532000D01*
X133037500Y-97572000D02*
X133037500Y-96340000D01*
X132997500Y-100741000D02*
X132997500Y-99532000D01*
X132997500Y-97572000D02*
X132997500Y-96363000D01*
X132957500Y-100717000D02*
X132957500Y-99532000D01*
X132957500Y-97572000D02*
X132957500Y-96387000D01*
X132917500Y-100692000D02*
X132917500Y-99532000D01*
X132917500Y-97572000D02*
X132917500Y-96412000D01*
X132877500Y-100665000D02*
X132877500Y-99532000D01*
X132877500Y-97572000D02*
X132877500Y-96439000D01*
X132837500Y-100638000D02*
X132837500Y-99532000D01*
X132837500Y-97572000D02*
X132837500Y-96466000D01*
X132797500Y-100610000D02*
X132797500Y-99532000D01*
X132797500Y-97572000D02*
X132797500Y-96494000D01*
X132757500Y-100580000D02*
X132757500Y-99532000D01*
X132757500Y-97572000D02*
X132757500Y-96524000D01*
X132717500Y-100549000D02*
X132717500Y-99532000D01*
X132717500Y-97572000D02*
X132717500Y-96555000D01*
X132677500Y-100517000D02*
X132677500Y-99532000D01*
X132677500Y-97572000D02*
X132677500Y-96587000D01*
X132637500Y-100484000D02*
X132637500Y-99532000D01*
X132637500Y-97572000D02*
X132637500Y-96620000D01*
X132597500Y-100449000D02*
X132597500Y-99532000D01*
X132597500Y-97572000D02*
X132597500Y-96655000D01*
X132557500Y-100413000D02*
X132557500Y-99532000D01*
X132557500Y-97572000D02*
X132557500Y-96691000D01*
X132517500Y-100375000D02*
X132517500Y-99532000D01*
X132517500Y-97572000D02*
X132517500Y-96729000D01*
X132477500Y-100335000D02*
X132477500Y-99532000D01*
X132477500Y-97572000D02*
X132477500Y-96769000D01*
X132437500Y-100294000D02*
X132437500Y-99532000D01*
X132437500Y-97572000D02*
X132437500Y-96810000D01*
X132397500Y-100251000D02*
X132397500Y-99532000D01*
X132397500Y-97572000D02*
X132397500Y-96853000D01*
X132357500Y-100206000D02*
X132357500Y-99532000D01*
X132357500Y-97572000D02*
X132357500Y-96898000D01*
X132317500Y-100158000D02*
X132317500Y-96946000D01*
X132277500Y-100108000D02*
X132277500Y-96996000D01*
X132237500Y-100056000D02*
X132237500Y-97048000D01*
X132197500Y-100000000D02*
X132197500Y-97104000D01*
X132157500Y-99942000D02*
X132157500Y-97162000D01*
X132117500Y-99879000D02*
X132117500Y-97225000D01*
X132077500Y-99813000D02*
X132077500Y-97291000D01*
X132037500Y-99741000D02*
X132037500Y-97363000D01*
X131997500Y-99664000D02*
X131997500Y-97440000D01*
X131957500Y-99580000D02*
X131957500Y-97524000D01*
X131917500Y-99486000D02*
X131917500Y-97618000D01*
X131877500Y-99381000D02*
X131877500Y-97723000D01*
X131837500Y-99259000D02*
X131837500Y-97845000D01*
X131797500Y-99111000D02*
X131797500Y-97993000D01*
X131757500Y-98906000D02*
X131757500Y-98198000D01*
X137518500Y-98552000D02*
X136318500Y-98552000D01*
X136918500Y-99202000D02*
X136918500Y-97902000D01*
X107271000Y-85669000D02*
X104771000Y-85669000D01*
X107271000Y-88169000D02*
X107271000Y-85669000D01*
X101771000Y-97819000D02*
X101771000Y-92269000D01*
X104721000Y-97819000D02*
X101771000Y-97819000D01*
X104721000Y-98569000D02*
X104721000Y-97819000D01*
X101771000Y-86719000D02*
X101771000Y-92269000D01*
X104721000Y-86719000D02*
X101771000Y-86719000D01*
X104721000Y-85969000D02*
X104721000Y-86719000D01*
X106971000Y-98569000D02*
X106971000Y-96769000D01*
X106221000Y-98569000D02*
X106971000Y-98569000D01*
X106221000Y-96769000D02*
X106221000Y-98569000D01*
X106971000Y-96769000D02*
X106221000Y-96769000D01*
X106971000Y-87769000D02*
X106971000Y-85969000D01*
X106221000Y-87769000D02*
X106971000Y-87769000D01*
X106221000Y-85969000D02*
X106221000Y-87769000D01*
X106971000Y-85969000D02*
X106221000Y-85969000D01*
X106971000Y-95269000D02*
X106971000Y-89269000D01*
X106221000Y-95269000D02*
X106971000Y-95269000D01*
X106221000Y-89269000D02*
X106221000Y-95269000D01*
X106971000Y-89269000D02*
X106221000Y-89269000D01*
X106971000Y-98569000D02*
X106971000Y-85969000D01*
X101021000Y-98569000D02*
X106971000Y-98569000D01*
X101021000Y-85969000D02*
X101021000Y-98569000D01*
X106971000Y-85969000D02*
X101021000Y-85969000D01*
X106971000Y-99431000D02*
X101021000Y-99431000D01*
X101021000Y-99431000D02*
X101021000Y-112031000D01*
X101021000Y-112031000D02*
X106971000Y-112031000D01*
X106971000Y-112031000D02*
X106971000Y-99431000D01*
X106971000Y-102731000D02*
X106221000Y-102731000D01*
X106221000Y-102731000D02*
X106221000Y-108731000D01*
X106221000Y-108731000D02*
X106971000Y-108731000D01*
X106971000Y-108731000D02*
X106971000Y-102731000D01*
X106971000Y-99431000D02*
X106221000Y-99431000D01*
X106221000Y-99431000D02*
X106221000Y-101231000D01*
X106221000Y-101231000D02*
X106971000Y-101231000D01*
X106971000Y-101231000D02*
X106971000Y-99431000D01*
X106971000Y-110231000D02*
X106221000Y-110231000D01*
X106221000Y-110231000D02*
X106221000Y-112031000D01*
X106221000Y-112031000D02*
X106971000Y-112031000D01*
X106971000Y-112031000D02*
X106971000Y-110231000D01*
X104721000Y-99431000D02*
X104721000Y-100181000D01*
X104721000Y-100181000D02*
X101771000Y-100181000D01*
X101771000Y-100181000D02*
X101771000Y-105731000D01*
X104721000Y-112031000D02*
X104721000Y-111281000D01*
X104721000Y-111281000D02*
X101771000Y-111281000D01*
X101771000Y-111281000D02*
X101771000Y-105731000D01*
X107271000Y-101631000D02*
X107271000Y-99131000D01*
X107271000Y-99131000D02*
X104771000Y-99131000D01*
X147252000Y-104378000D02*
X147252000Y-111578000D01*
X146152000Y-104378000D02*
X146152000Y-111578000D01*
X145652000Y-104378000D02*
X152852000Y-104378000D01*
X152852000Y-104378000D02*
X152852000Y-111578000D01*
X152852000Y-111578000D02*
X145652000Y-111578000D01*
X146152000Y-107978000D02*
X145752000Y-107978000D01*
X147502000Y-104138000D02*
X145412000Y-104138000D01*
X145412000Y-104138000D02*
X145412000Y-106228000D01*
X145412000Y-86358000D02*
X145412000Y-88448000D01*
X147502000Y-86358000D02*
X145412000Y-86358000D01*
X146152000Y-90198000D02*
X145752000Y-90198000D01*
X152852000Y-93798000D02*
X145652000Y-93798000D01*
X152852000Y-86598000D02*
X152852000Y-93798000D01*
X145652000Y-86598000D02*
X152852000Y-86598000D01*
X146152000Y-86598000D02*
X146152000Y-93798000D01*
X147252000Y-86598000D02*
X147252000Y-93798000D01*
X147252000Y-95488000D02*
X147252000Y-102688000D01*
X146152000Y-95488000D02*
X146152000Y-102688000D01*
X145652000Y-95488000D02*
X152852000Y-95488000D01*
X152852000Y-95488000D02*
X152852000Y-102688000D01*
X152852000Y-102688000D02*
X145652000Y-102688000D01*
X146152000Y-99088000D02*
X145752000Y-99088000D01*
X147502000Y-95248000D02*
X145412000Y-95248000D01*
X145412000Y-95248000D02*
X145412000Y-97338000D01*
X120247665Y-94550608D02*
G75*
G03X123480000Y-94707516I1672335J1078608D01*
G01*
X120247665Y-92393392D02*
G75*
G02X123480000Y-92236484I1672335J-1078608D01*
G01*
X120878870Y-94551837D02*
G75*
G03X122960961Y-94552000I1041130J1079837D01*
G01*
X120878870Y-92392163D02*
G75*
G02X122960961Y-92392000I1041130J-1079837D01*
G01*
X123480000Y-94708000D02*
X123480000Y-94552000D01*
X123480000Y-92392000D02*
X123480000Y-92236000D01*
D15*
X110490000Y-90616000D02*
G75*
G03X111506000Y-89600000I0J1016000D01*
G01*
X109474000Y-89600000D02*
G75*
G03X110490000Y-90616000I1016000J0D01*
G01*
X110490000Y-86676000D02*
G75*
G03X109474000Y-87692000I0J-1016000D01*
G01*
X111506000Y-87692000D02*
G75*
G03X110490000Y-86676000I-1016000J0D01*
G01*
X109474000Y-89600000D02*
X111506000Y-89600000D01*
X111506000Y-87692000D02*
X109474000Y-87692000D01*
X109490000Y-88246000D02*
X109490000Y-89046000D01*
X111490000Y-88246000D02*
X109490000Y-88246000D01*
X111490000Y-89046000D02*
X111490000Y-88246000D01*
X109490000Y-89046000D02*
X111490000Y-89046000D01*
X112792000Y-89046000D02*
X114792000Y-89046000D01*
X114792000Y-89046000D02*
X114792000Y-88246000D01*
X114792000Y-88246000D02*
X112792000Y-88246000D01*
X112792000Y-88246000D02*
X112792000Y-89046000D01*
X114808000Y-87692000D02*
X112776000Y-87692000D01*
X112776000Y-89600000D02*
X114808000Y-89600000D01*
X114808000Y-87692000D02*
G75*
G03X113792000Y-86676000I-1016000J0D01*
G01*
X113792000Y-86676000D02*
G75*
G03X112776000Y-87692000I0J-1016000D01*
G01*
X112776000Y-89600000D02*
G75*
G03X113792000Y-90616000I1016000J0D01*
G01*
X113792000Y-90616000D02*
G75*
G03X114808000Y-89600000I0J1016000D01*
G01*
D16*
X158897800Y-104943800D02*
X162292800Y-104943800D01*
X158897800Y-92668200D02*
X162292800Y-92668200D01*
X158897800Y-104943800D02*
X158897800Y-106093800D01*
X158897800Y-92668200D02*
X158897800Y-91518200D01*
X156992800Y-106093800D02*
X158897800Y-106093800D01*
X156992800Y-91518200D02*
X158897800Y-91518200D01*
X156992800Y-104943800D02*
X156992800Y-106093800D01*
X156992800Y-92668200D02*
X156992800Y-91518200D01*
X154292800Y-104943800D02*
X156992800Y-104943800D01*
X154292800Y-92668200D02*
X156992800Y-92668200D01*
X154292800Y-102056000D02*
X154292800Y-104943800D01*
X154292800Y-95556000D02*
X154292800Y-92668200D01*
X154292800Y-95556000D02*
X161542800Y-95556000D01*
X161542800Y-102056000D02*
X154292800Y-102056000D01*
X161542800Y-95556000D02*
X161542800Y-102056000D01*
X126468142Y-93892666D02*
X126515761Y-93940285D01*
X126563380Y-94083142D01*
X126563380Y-94178380D01*
X126515761Y-94321238D01*
X126420523Y-94416476D01*
X126325285Y-94464095D01*
X126134809Y-94511714D01*
X125991952Y-94511714D01*
X125801476Y-94464095D01*
X125706238Y-94416476D01*
X125611000Y-94321238D01*
X125563380Y-94178380D01*
X125563380Y-94083142D01*
X125611000Y-93940285D01*
X125658619Y-93892666D01*
X125563380Y-93559333D02*
X125563380Y-92940285D01*
X125944333Y-93273619D01*
X125944333Y-93130761D01*
X125991952Y-93035523D01*
X126039571Y-92987904D01*
X126134809Y-92940285D01*
X126372904Y-92940285D01*
X126468142Y-92987904D01*
X126515761Y-93035523D01*
X126563380Y-93130761D01*
X126563380Y-93416476D01*
X126515761Y-93511714D01*
X126468142Y-93559333D01*
X140382333Y-86570142D02*
X140334714Y-86617761D01*
X140191857Y-86665380D01*
X140096619Y-86665380D01*
X139953761Y-86617761D01*
X139858523Y-86522523D01*
X139810904Y-86427285D01*
X139763285Y-86236809D01*
X139763285Y-86093952D01*
X139810904Y-85903476D01*
X139858523Y-85808238D01*
X139953761Y-85713000D01*
X140096619Y-85665380D01*
X140191857Y-85665380D01*
X140334714Y-85713000D01*
X140382333Y-85760619D01*
X141239476Y-85998714D02*
X141239476Y-86665380D01*
X141001380Y-85617761D02*
X140763285Y-86332047D01*
X141382333Y-86332047D01*
X112749104Y-93670380D02*
X112749104Y-92670380D01*
X112987200Y-92670380D01*
X113130057Y-92718000D01*
X113225295Y-92813238D01*
X113272914Y-92908476D01*
X113320533Y-93098952D01*
X113320533Y-93241809D01*
X113272914Y-93432285D01*
X113225295Y-93527523D01*
X113130057Y-93622761D01*
X112987200Y-93670380D01*
X112749104Y-93670380D01*
X114272914Y-93670380D02*
X113701485Y-93670380D01*
X113987200Y-93670380D02*
X113987200Y-92670380D01*
X113891961Y-92813238D01*
X113796723Y-92908476D01*
X113701485Y-92956095D01*
X112799904Y-96972380D02*
X112799904Y-95972380D01*
X113038000Y-95972380D01*
X113180857Y-96020000D01*
X113276095Y-96115238D01*
X113323714Y-96210476D01*
X113371333Y-96400952D01*
X113371333Y-96543809D01*
X113323714Y-96734285D01*
X113276095Y-96829523D01*
X113180857Y-96924761D01*
X113038000Y-96972380D01*
X112799904Y-96972380D01*
X113752285Y-96067619D02*
X113799904Y-96020000D01*
X113895142Y-95972380D01*
X114133238Y-95972380D01*
X114228476Y-96020000D01*
X114276095Y-96067619D01*
X114323714Y-96162857D01*
X114323714Y-96258095D01*
X114276095Y-96400952D01*
X113704666Y-96972380D01*
X114323714Y-96972380D01*
X132646095Y-87973380D02*
X132646095Y-88782904D01*
X132693714Y-88878142D01*
X132741333Y-88925761D01*
X132836571Y-88973380D01*
X133027047Y-88973380D01*
X133122285Y-88925761D01*
X133169904Y-88878142D01*
X133217523Y-88782904D01*
X133217523Y-87973380D01*
X134217523Y-88973380D02*
X133646095Y-88973380D01*
X133931809Y-88973380D02*
X133931809Y-87973380D01*
X133836571Y-88116238D01*
X133741333Y-88211476D01*
X133646095Y-88259095D01*
X139660571Y-102576380D02*
X139660571Y-103385904D01*
X139708190Y-103481142D01*
X139755809Y-103528761D01*
X139851047Y-103576380D01*
X140041523Y-103576380D01*
X140136761Y-103528761D01*
X140184380Y-103481142D01*
X140232000Y-103385904D01*
X140232000Y-102576380D01*
X140660571Y-103290666D02*
X141136761Y-103290666D01*
X140565333Y-103576380D02*
X140898666Y-102576380D01*
X141232000Y-103576380D01*
X142136761Y-103576380D02*
X141803428Y-103100190D01*
X141565333Y-103576380D02*
X141565333Y-102576380D01*
X141946285Y-102576380D01*
X142041523Y-102624000D01*
X142089142Y-102671619D01*
X142136761Y-102766857D01*
X142136761Y-102909714D01*
X142089142Y-103004952D01*
X142041523Y-103052571D01*
X141946285Y-103100190D01*
X141565333Y-103100190D01*
X142422476Y-102576380D02*
X142993904Y-102576380D01*
X142708190Y-103576380D02*
X142708190Y-102576380D01*
X143851047Y-103576380D02*
X143279619Y-103576380D01*
X143565333Y-103576380D02*
X143565333Y-102576380D01*
X143470095Y-102719238D01*
X143374857Y-102814476D01*
X143279619Y-102862095D01*
X122515333Y-89098380D02*
X122182000Y-88622190D01*
X121943904Y-89098380D02*
X121943904Y-88098380D01*
X122324857Y-88098380D01*
X122420095Y-88146000D01*
X122467714Y-88193619D01*
X122515333Y-88288857D01*
X122515333Y-88431714D01*
X122467714Y-88526952D01*
X122420095Y-88574571D01*
X122324857Y-88622190D01*
X121943904Y-88622190D01*
X122848666Y-88098380D02*
X123467714Y-88098380D01*
X123134380Y-88479333D01*
X123277238Y-88479333D01*
X123372476Y-88526952D01*
X123420095Y-88574571D01*
X123467714Y-88669809D01*
X123467714Y-88907904D01*
X123420095Y-89003142D01*
X123372476Y-89050761D01*
X123277238Y-89098380D01*
X122991523Y-89098380D01*
X122896285Y-89050761D01*
X122848666Y-89003142D01*
X128389333Y-96623142D02*
X128341714Y-96670761D01*
X128198857Y-96718380D01*
X128103619Y-96718380D01*
X127960761Y-96670761D01*
X127865523Y-96575523D01*
X127817904Y-96480285D01*
X127770285Y-96289809D01*
X127770285Y-96146952D01*
X127817904Y-95956476D01*
X127865523Y-95861238D01*
X127960761Y-95766000D01*
X128103619Y-95718380D01*
X128198857Y-95718380D01*
X128341714Y-95766000D01*
X128389333Y-95813619D01*
X129294095Y-95718380D02*
X128817904Y-95718380D01*
X128770285Y-96194571D01*
X128817904Y-96146952D01*
X128913142Y-96099333D01*
X129151238Y-96099333D01*
X129246476Y-96146952D01*
X129294095Y-96194571D01*
X129341714Y-96289809D01*
X129341714Y-96527904D01*
X129294095Y-96623142D01*
X129246476Y-96670761D01*
X129151238Y-96718380D01*
X128913142Y-96718380D01*
X128817904Y-96670761D01*
X128770285Y-96623142D01*
X134262833Y-102338142D02*
X134215214Y-102385761D01*
X134072357Y-102433380D01*
X133977119Y-102433380D01*
X133834261Y-102385761D01*
X133739023Y-102290523D01*
X133691404Y-102195285D01*
X133643785Y-102004809D01*
X133643785Y-101861952D01*
X133691404Y-101671476D01*
X133739023Y-101576238D01*
X133834261Y-101481000D01*
X133977119Y-101433380D01*
X134072357Y-101433380D01*
X134215214Y-101481000D01*
X134262833Y-101528619D01*
X135119976Y-101433380D02*
X134929500Y-101433380D01*
X134834261Y-101481000D01*
X134786642Y-101528619D01*
X134691404Y-101671476D01*
X134643785Y-101861952D01*
X134643785Y-102242904D01*
X134691404Y-102338142D01*
X134739023Y-102385761D01*
X134834261Y-102433380D01*
X135024738Y-102433380D01*
X135119976Y-102385761D01*
X135167595Y-102338142D01*
X135215214Y-102242904D01*
X135215214Y-102004809D01*
X135167595Y-101909571D01*
X135119976Y-101861952D01*
X135024738Y-101814333D01*
X134834261Y-101814333D01*
X134739023Y-101861952D01*
X134691404Y-101909571D01*
X134643785Y-102004809D01*
X101941380Y-88852333D02*
X102655666Y-88852333D01*
X102798523Y-88899952D01*
X102893761Y-88995190D01*
X102941380Y-89138047D01*
X102941380Y-89233285D01*
X102941380Y-87852333D02*
X102941380Y-88423761D01*
X102941380Y-88138047D02*
X101941380Y-88138047D01*
X102084238Y-88233285D01*
X102179476Y-88328523D01*
X102227095Y-88423761D01*
X101941380Y-102314333D02*
X102655666Y-102314333D01*
X102798523Y-102361952D01*
X102893761Y-102457190D01*
X102941380Y-102600047D01*
X102941380Y-102695285D01*
X102036619Y-101885761D02*
X101989000Y-101838142D01*
X101941380Y-101742904D01*
X101941380Y-101504809D01*
X101989000Y-101409571D01*
X102036619Y-101361952D01*
X102131857Y-101314333D01*
X102227095Y-101314333D01*
X102369952Y-101361952D01*
X102941380Y-101933380D01*
X102941380Y-101314333D01*
X151344380Y-108283333D02*
X152058666Y-108283333D01*
X152201523Y-108330952D01*
X152296761Y-108426190D01*
X152344380Y-108569047D01*
X152344380Y-108664285D01*
X151677714Y-107378571D02*
X152344380Y-107378571D01*
X151296761Y-107616666D02*
X152011047Y-107854761D01*
X152011047Y-107235714D01*
X151090380Y-90503333D02*
X151804666Y-90503333D01*
X151947523Y-90550952D01*
X152042761Y-90646190D01*
X152090380Y-90789047D01*
X152090380Y-90884285D01*
X151090380Y-89550952D02*
X151090380Y-90027142D01*
X151566571Y-90074761D01*
X151518952Y-90027142D01*
X151471333Y-89931904D01*
X151471333Y-89693809D01*
X151518952Y-89598571D01*
X151566571Y-89550952D01*
X151661809Y-89503333D01*
X151899904Y-89503333D01*
X151995142Y-89550952D01*
X152042761Y-89598571D01*
X152090380Y-89693809D01*
X152090380Y-89931904D01*
X152042761Y-90027142D01*
X151995142Y-90074761D01*
X151344380Y-99393333D02*
X152058666Y-99393333D01*
X152201523Y-99440952D01*
X152296761Y-99536190D01*
X152344380Y-99679047D01*
X152344380Y-99774285D01*
X151344380Y-99012380D02*
X151344380Y-98393333D01*
X151725333Y-98726666D01*
X151725333Y-98583809D01*
X151772952Y-98488571D01*
X151820571Y-98440952D01*
X151915809Y-98393333D01*
X152153904Y-98393333D01*
X152249142Y-98440952D01*
X152296761Y-98488571D01*
X152344380Y-98583809D01*
X152344380Y-98869523D01*
X152296761Y-98964761D01*
X152249142Y-99012380D01*
X121181904Y-96884380D02*
X121181904Y-95884380D01*
X121420000Y-95884380D01*
X121562857Y-95932000D01*
X121658095Y-96027238D01*
X121705714Y-96122476D01*
X121753333Y-96312952D01*
X121753333Y-96455809D01*
X121705714Y-96646285D01*
X121658095Y-96741523D01*
X121562857Y-96836761D01*
X121420000Y-96884380D01*
X121181904Y-96884380D01*
X122086666Y-95884380D02*
X122705714Y-95884380D01*
X122372380Y-96265333D01*
X122515238Y-96265333D01*
X122610476Y-96312952D01*
X122658095Y-96360571D01*
X122705714Y-96455809D01*
X122705714Y-96693904D01*
X122658095Y-96789142D01*
X122610476Y-96836761D01*
X122515238Y-96884380D01*
X122229523Y-96884380D01*
X122134285Y-96836761D01*
X122086666Y-96789142D01*
D17*
X109601000Y-90895714D02*
X109601000Y-91440000D01*
X109564714Y-91548857D01*
X109492142Y-91621428D01*
X109383285Y-91657714D01*
X109310714Y-91657714D01*
X109963857Y-91657714D02*
X109963857Y-90895714D01*
X110254142Y-90895714D01*
X110326714Y-90932000D01*
X110363000Y-90968285D01*
X110399285Y-91040857D01*
X110399285Y-91149714D01*
X110363000Y-91222285D01*
X110326714Y-91258571D01*
X110254142Y-91294857D01*
X109963857Y-91294857D01*
X111125000Y-91657714D02*
X110689571Y-91657714D01*
X110907285Y-91657714D02*
X110907285Y-90895714D01*
X110834714Y-91004571D01*
X110762142Y-91077142D01*
X110689571Y-91113428D01*
X113157000Y-90895714D02*
X113157000Y-91440000D01*
X113120714Y-91548857D01*
X113048142Y-91621428D01*
X112939285Y-91657714D01*
X112866714Y-91657714D01*
X113519857Y-91657714D02*
X113519857Y-90895714D01*
X113810142Y-90895714D01*
X113882714Y-90932000D01*
X113919000Y-90968285D01*
X113955285Y-91040857D01*
X113955285Y-91149714D01*
X113919000Y-91222285D01*
X113882714Y-91258571D01*
X113810142Y-91294857D01*
X113519857Y-91294857D01*
X114245571Y-90968285D02*
X114281857Y-90932000D01*
X114354428Y-90895714D01*
X114535857Y-90895714D01*
X114608428Y-90932000D01*
X114644714Y-90968285D01*
X114681000Y-91040857D01*
X114681000Y-91113428D01*
X114644714Y-91222285D01*
X114209285Y-91657714D01*
X114681000Y-91657714D01*
M02*
