G04 #@! TF.GenerationSoftware,KiCad,Pcbnew,6.0.0-d3dd2cf0fa~116~ubuntu20.04.1*
G04 #@! TF.CreationDate,2022-01-19T00:46:33+01:00*
G04 #@! TF.ProjectId,bobbycar,626f6262-7963-4617-922e-6b696361645f,rev?*
G04 #@! TF.SameCoordinates,Original*
G04 #@! TF.FileFunction,Copper,L1,Top*
G04 #@! TF.FilePolarity,Positive*
%FSLAX46Y46*%
G04 Gerber Fmt 4.6, Leading zero omitted, Abs format (unit mm)*
G04 Created by KiCad (PCBNEW 6.0.0-d3dd2cf0fa~116~ubuntu20.04.1) date 2022-01-19 00:46:33*
%MOMM*%
%LPD*%
G01*
G04 APERTURE LIST*
G04 Aperture macros list*
%AMOutline4P*
0 Free polygon, 4 corners , with rotation*
0 The origin of the aperture is its center*
0 number of corners: always 4*
0 $1 to $8 corner X, Y*
0 $9 Rotation angle, in degrees counterclockwise*
0 create outline with 4 corners*
4,1,4,$1,$2,$3,$4,$5,$6,$7,$8,$1,$2,$9*%
G04 Aperture macros list end*
G04 #@! TA.AperFunction,ComponentPad*
%ADD10C,1.600000*%
G04 #@! TD*
G04 #@! TA.AperFunction,ComponentPad*
%ADD11O,1.600000X1.600000*%
G04 #@! TD*
G04 #@! TA.AperFunction,ComponentPad*
%ADD12O,2.200000X2.200000*%
G04 #@! TD*
G04 #@! TA.AperFunction,ComponentPad*
%ADD13R,2.200000X2.200000*%
G04 #@! TD*
G04 #@! TA.AperFunction,SMDPad,CuDef*
%ADD14R,2.500000X1.000000*%
G04 #@! TD*
G04 #@! TA.AperFunction,SMDPad,CuDef*
%ADD15R,4.000000X2.000000*%
G04 #@! TD*
G04 #@! TA.AperFunction,SMDPad,CuDef*
%ADD16Outline4P,-1.000000X-0.375000X1.000000X-0.375000X0.500000X0.375000X-0.500000X0.375000X90.000000*%
G04 #@! TD*
G04 #@! TA.AperFunction,ComponentPad*
%ADD17R,1.700000X1.700000*%
G04 #@! TD*
G04 #@! TA.AperFunction,ComponentPad*
%ADD18O,1.700000X1.700000*%
G04 #@! TD*
G04 #@! TA.AperFunction,ComponentPad*
%ADD19R,1.600000X1.600000*%
G04 #@! TD*
G04 #@! TA.AperFunction,ComponentPad*
%ADD20C,1.750000*%
G04 #@! TD*
G04 #@! TA.AperFunction,ComponentPad*
%ADD21R,1.750000X1.750000*%
G04 #@! TD*
G04 #@! TA.AperFunction,ComponentPad*
%ADD22R,2.400000X2.400000*%
G04 #@! TD*
G04 #@! TA.AperFunction,ComponentPad*
%ADD23C,2.400000*%
G04 #@! TD*
G04 #@! TA.AperFunction,ComponentPad*
%ADD24R,1.800000X1.800000*%
G04 #@! TD*
G04 #@! TA.AperFunction,ComponentPad*
%ADD25C,1.800000*%
G04 #@! TD*
G04 #@! TA.AperFunction,SMDPad,CuDef*
%ADD26R,1.000000X1.000000*%
G04 #@! TD*
G04 #@! TA.AperFunction,SMDPad,CuDef*
%ADD27R,7.000000X1.270000*%
G04 #@! TD*
G04 #@! TA.AperFunction,ViaPad*
%ADD28C,0.800000*%
G04 #@! TD*
G04 #@! TA.AperFunction,Conductor*
%ADD29C,0.800000*%
G04 #@! TD*
G04 #@! TA.AperFunction,Conductor*
%ADD30C,0.700000*%
G04 #@! TD*
G04 APERTURE END LIST*
D10*
X139018000Y-100965000D03*
X144018000Y-100965000D03*
X126111000Y-96139000D03*
X126111000Y-91139000D03*
X143049000Y-88773000D03*
X138049000Y-88773000D03*
X139001500Y-95885000D03*
X144001500Y-95885000D03*
D11*
X123952000Y-100584000D03*
D10*
X123952000Y-110744000D03*
D12*
X109728000Y-93218000D03*
D13*
X117348000Y-93218000D03*
X117348000Y-96520000D03*
D12*
X109728000Y-96520000D03*
D14*
X130978000Y-90321000D03*
X130978000Y-91821000D03*
X130978000Y-93321000D03*
D15*
X134938000Y-91821000D03*
D16*
X132588000Y-91821000D03*
D17*
X141732000Y-105156000D03*
D18*
X141732000Y-107696000D03*
X141732000Y-110236000D03*
D10*
X120142000Y-100584000D03*
D11*
X120142000Y-110744000D03*
D10*
X117602000Y-88646000D03*
D11*
X127762000Y-88646000D03*
X112522000Y-110744000D03*
D10*
X112522000Y-100584000D03*
X116332000Y-100584000D03*
D11*
X116332000Y-110744000D03*
D10*
X129540000Y-99568000D03*
D19*
X127540000Y-99568000D03*
X135318500Y-98552000D03*
D10*
X133318500Y-98552000D03*
D20*
X104521000Y-96019000D03*
X104521000Y-93519000D03*
X104521000Y-91019000D03*
D21*
X104521000Y-88519000D03*
X104521000Y-101981000D03*
D20*
X104521000Y-104481000D03*
X104521000Y-106981000D03*
X104521000Y-109481000D03*
D22*
X149352000Y-106228000D03*
D23*
X149352000Y-109728000D03*
X149352000Y-91948000D03*
D22*
X149352000Y-88448000D03*
X149352000Y-97338000D03*
D23*
X149352000Y-100838000D03*
D24*
X123190000Y-93472000D03*
D25*
X120650000Y-93472000D03*
D26*
X110490000Y-88646000D03*
X110490000Y-87296000D03*
X110490000Y-89996000D03*
X113792000Y-89996000D03*
X113792000Y-87296000D03*
X113792000Y-88646000D03*
D27*
X157792800Y-96906000D03*
X157792800Y-100706000D03*
D28*
X152654000Y-95631000D03*
X109347000Y-106045000D03*
X110998000Y-103886000D03*
X155448000Y-98806000D03*
X159385000Y-98806000D03*
X154051000Y-106299000D03*
X117094000Y-109474000D03*
X112268000Y-88900000D03*
X111506000Y-91186000D03*
X146812000Y-108966000D03*
X137541000Y-92646500D03*
X137541000Y-91821000D03*
X137541000Y-90995500D03*
X153924000Y-90805000D03*
X106045000Y-105664000D03*
X106172000Y-103251000D03*
X108585000Y-98425000D03*
X112268000Y-102616000D03*
X137541000Y-101092000D03*
D29*
X116332000Y-100584000D02*
X117732001Y-101984001D01*
X117732001Y-101984001D02*
X133486499Y-101984001D01*
X133486499Y-101984001D02*
X135318500Y-100152000D01*
X135318500Y-100152000D02*
X135318500Y-98552000D01*
X112522000Y-100584000D02*
X116332000Y-100584000D01*
X108752000Y-106640000D02*
X108411000Y-106981000D01*
X108411000Y-106981000D02*
X104521000Y-106981000D01*
X143309001Y-101673999D02*
X143309001Y-108785999D01*
X143309001Y-108785999D02*
X141859000Y-110236000D01*
X144018000Y-100965000D02*
X143309001Y-101673999D01*
X108752000Y-106974000D02*
X108752000Y-106640000D01*
X108752000Y-106640000D02*
X109347000Y-106045000D01*
D30*
X113792000Y-87296000D02*
X110490000Y-87296000D01*
D29*
X141859000Y-110236000D02*
X148844000Y-110236000D01*
X148844000Y-110236000D02*
X149352000Y-109728000D01*
X123952000Y-110744000D02*
X141351000Y-110744000D01*
X141351000Y-110744000D02*
X141859000Y-110236000D01*
X114892001Y-95546999D02*
X114892001Y-87665999D01*
X111006613Y-99449613D02*
X110998000Y-99441000D01*
X110998000Y-103886000D02*
X110998000Y-99458226D01*
X114892001Y-95546999D02*
X111006613Y-99449613D01*
X110998000Y-99458226D02*
X111006613Y-99449613D01*
X114522002Y-87296000D02*
X114892001Y-87665999D01*
X113792000Y-87296000D02*
X114522002Y-87296000D01*
X112522000Y-110744000D02*
X108752000Y-106974000D01*
X104521000Y-93519000D02*
X106854000Y-91186000D01*
X106854000Y-91186000D02*
X111506000Y-91186000D01*
D30*
X113792000Y-88646000D02*
X112522000Y-88646000D01*
X112522000Y-88646000D02*
X112268000Y-88900000D01*
D29*
X105395999Y-90144001D02*
X107691999Y-90144001D01*
X107691999Y-90144001D02*
X109190000Y-88646000D01*
X109190000Y-88646000D02*
X110490000Y-88646000D01*
X104521000Y-91019000D02*
X105395999Y-90144001D01*
X105395999Y-90144001D02*
X105737435Y-90144001D01*
X104521000Y-101981000D02*
X104521000Y-100171366D01*
X104521000Y-100171366D02*
X108172366Y-96520000D01*
X108172366Y-96520000D02*
X109728000Y-96520000D01*
D30*
X109347000Y-96520000D02*
X109728000Y-96520000D01*
D29*
X104521000Y-104481000D02*
X109926984Y-104481000D01*
X109926984Y-104481000D02*
X109997992Y-104409992D01*
X110062000Y-104474000D02*
X110015000Y-104521000D01*
X113792000Y-89996000D02*
X113792000Y-95232774D01*
X113792000Y-95232774D02*
X109997992Y-99026782D01*
X109997992Y-99026782D02*
X109997992Y-104409992D01*
X109997992Y-104409992D02*
X110062000Y-104474000D01*
D30*
X110490000Y-89996000D02*
X113792000Y-89996000D01*
D29*
X138684000Y-108712000D02*
X140843000Y-108712000D01*
X140843000Y-108712000D02*
X141859000Y-107696000D01*
X122174000Y-108712000D02*
X138684000Y-108712000D01*
X120142000Y-110744000D02*
X122174000Y-108712000D01*
X138684000Y-108712000D02*
X138699990Y-108727990D01*
X158267400Y-96906000D02*
X153284000Y-96906000D01*
X153284000Y-96906000D02*
X149352000Y-100838000D01*
X110062000Y-104474000D02*
X116332000Y-110744000D01*
X120142000Y-110744000D02*
X116332000Y-110744000D01*
X149484000Y-100706000D02*
X149352000Y-100838000D01*
D30*
X120650000Y-93472000D02*
X120650000Y-91694000D01*
X120650000Y-91694000D02*
X117602000Y-88646000D01*
G04 #@! TA.AperFunction,Conductor*
G36*
X152923931Y-85872002D02*
G01*
X152944905Y-85888905D01*
X153125095Y-86069095D01*
X153159121Y-86131407D01*
X153162000Y-86158190D01*
X153162000Y-96164741D01*
X153141998Y-96232862D01*
X153082379Y-96281895D01*
X153077279Y-96283914D01*
X153066056Y-96287756D01*
X153022002Y-96300555D01*
X153003703Y-96311377D01*
X152985954Y-96320072D01*
X152966186Y-96327899D01*
X152959770Y-96332560D01*
X152959769Y-96332561D01*
X152929075Y-96354862D01*
X152919151Y-96361381D01*
X152886488Y-96380697D01*
X152886483Y-96380701D01*
X152879665Y-96384733D01*
X152864639Y-96399759D01*
X152849605Y-96412600D01*
X152832403Y-96425098D01*
X152804361Y-96458995D01*
X152803154Y-96460454D01*
X152795164Y-96469234D01*
X151021095Y-98243302D01*
X150958783Y-98277328D01*
X150887967Y-98272263D01*
X150831132Y-98229716D01*
X150806321Y-98163196D01*
X150806000Y-98154207D01*
X150806000Y-97506115D01*
X150801525Y-97490876D01*
X150800135Y-97489671D01*
X150792452Y-97488000D01*
X149520115Y-97488000D01*
X149504876Y-97492475D01*
X149503671Y-97493865D01*
X149502000Y-97501548D01*
X149502000Y-98773884D01*
X149506475Y-98789123D01*
X149507865Y-98790328D01*
X149515548Y-98791999D01*
X150168208Y-98791999D01*
X150236329Y-98812001D01*
X150282822Y-98865657D01*
X150292926Y-98935931D01*
X150263432Y-99000511D01*
X150257303Y-99007094D01*
X149864219Y-99400178D01*
X149801907Y-99434204D01*
X149734699Y-99429959D01*
X149734693Y-99429983D01*
X149734573Y-99429951D01*
X149733065Y-99429856D01*
X149729694Y-99428662D01*
X149729691Y-99428661D01*
X149724819Y-99426936D01*
X149676046Y-99418248D01*
X149494438Y-99385898D01*
X149494434Y-99385898D01*
X149489350Y-99384992D01*
X149405548Y-99383968D01*
X149255360Y-99382133D01*
X149255358Y-99382133D01*
X149250191Y-99382070D01*
X149091680Y-99406326D01*
X149018876Y-99417466D01*
X149018874Y-99417467D01*
X149013767Y-99418248D01*
X148926866Y-99446652D01*
X148791340Y-99490949D01*
X148791338Y-99490950D01*
X148786427Y-99492555D01*
X148699253Y-99537935D01*
X148587755Y-99595977D01*
X148574275Y-99602994D01*
X148570142Y-99606097D01*
X148570139Y-99606099D01*
X148400640Y-99733363D01*
X148383010Y-99746600D01*
X148337843Y-99793864D01*
X148225982Y-99910920D01*
X148217767Y-99919516D01*
X148214853Y-99923788D01*
X148214852Y-99923789D01*
X148136196Y-100039095D01*
X148082985Y-100117099D01*
X147982284Y-100334042D01*
X147918366Y-100564520D01*
X147917817Y-100569654D01*
X147917817Y-100569656D01*
X147914231Y-100603216D01*
X147892951Y-100802342D01*
X147893248Y-100807494D01*
X147893248Y-100807498D01*
X147900212Y-100928272D01*
X147906719Y-101041121D01*
X147907856Y-101046167D01*
X147907857Y-101046173D01*
X147916629Y-101085096D01*
X147959301Y-101274446D01*
X148049284Y-101496049D01*
X148051989Y-101500464D01*
X148051990Y-101500465D01*
X148076909Y-101541129D01*
X148174254Y-101699980D01*
X148330852Y-101880762D01*
X148514874Y-102033540D01*
X148519326Y-102036142D01*
X148519331Y-102036145D01*
X148716919Y-102151606D01*
X148721377Y-102154211D01*
X148944817Y-102239534D01*
X148949883Y-102240565D01*
X148949884Y-102240565D01*
X149004729Y-102251723D01*
X149179191Y-102287218D01*
X149313499Y-102292143D01*
X149413043Y-102295794D01*
X149413048Y-102295794D01*
X149418207Y-102295983D01*
X149423327Y-102295327D01*
X149423329Y-102295327D01*
X149650316Y-102266249D01*
X149650317Y-102266249D01*
X149655444Y-102265592D01*
X149660394Y-102264107D01*
X149879577Y-102198349D01*
X149879582Y-102198347D01*
X149884532Y-102196862D01*
X150099319Y-102091639D01*
X150103524Y-102088639D01*
X150103530Y-102088636D01*
X150289832Y-101955748D01*
X150289834Y-101955746D01*
X150294036Y-101952749D01*
X150463454Y-101783921D01*
X150603023Y-101589690D01*
X150609894Y-101575789D01*
X150706701Y-101379914D01*
X150706702Y-101379912D01*
X150708995Y-101375272D01*
X150778524Y-101146425D01*
X150801948Y-100968505D01*
X150809306Y-100912617D01*
X150809306Y-100912613D01*
X150809743Y-100909296D01*
X150809941Y-100901179D01*
X150811403Y-100841365D01*
X150811403Y-100841361D01*
X150811485Y-100838000D01*
X150803814Y-100744696D01*
X150792311Y-100604779D01*
X150792310Y-100604773D01*
X150791887Y-100599628D01*
X150772480Y-100522366D01*
X150753898Y-100448386D01*
X150756702Y-100377445D01*
X150787007Y-100328596D01*
X152946905Y-98168698D01*
X153009217Y-98134672D01*
X153080032Y-98139737D01*
X153136868Y-98182284D01*
X153161679Y-98248804D01*
X153162000Y-98257793D01*
X153162000Y-107389810D01*
X153141998Y-107457931D01*
X153125095Y-107478905D01*
X152690905Y-107913095D01*
X152628593Y-107947121D01*
X152601810Y-107950000D01*
X145340190Y-107950000D01*
X145272069Y-107929998D01*
X145251095Y-107913095D01*
X144816905Y-107478905D01*
X144799389Y-107446828D01*
X147898001Y-107446828D01*
X147899209Y-107459088D01*
X147910315Y-107514931D01*
X147919633Y-107537427D01*
X147961983Y-107600808D01*
X147979192Y-107618017D01*
X148042575Y-107660368D01*
X148065066Y-107669684D01*
X148120915Y-107680793D01*
X148133170Y-107682000D01*
X149183885Y-107682000D01*
X149199124Y-107677525D01*
X149200329Y-107676135D01*
X149202000Y-107668452D01*
X149202000Y-107663884D01*
X149502000Y-107663884D01*
X149506475Y-107679123D01*
X149507865Y-107680328D01*
X149515548Y-107681999D01*
X150570828Y-107681999D01*
X150583088Y-107680791D01*
X150638931Y-107669685D01*
X150661427Y-107660367D01*
X150724808Y-107618017D01*
X150742017Y-107600808D01*
X150784368Y-107537425D01*
X150793684Y-107514934D01*
X150804793Y-107459085D01*
X150806000Y-107446830D01*
X150806000Y-106396115D01*
X150801525Y-106380876D01*
X150800135Y-106379671D01*
X150792452Y-106378000D01*
X149520115Y-106378000D01*
X149504876Y-106382475D01*
X149503671Y-106383865D01*
X149502000Y-106391548D01*
X149502000Y-107663884D01*
X149202000Y-107663884D01*
X149202000Y-106396115D01*
X149197525Y-106380876D01*
X149196135Y-106379671D01*
X149188452Y-106378000D01*
X147916116Y-106378000D01*
X147900877Y-106382475D01*
X147899672Y-106383865D01*
X147898001Y-106391548D01*
X147898001Y-107446828D01*
X144799389Y-107446828D01*
X144782879Y-107416593D01*
X144780000Y-107389810D01*
X144780000Y-106059885D01*
X147898000Y-106059885D01*
X147902475Y-106075124D01*
X147903865Y-106076329D01*
X147911548Y-106078000D01*
X149183885Y-106078000D01*
X149199124Y-106073525D01*
X149200329Y-106072135D01*
X149202000Y-106064452D01*
X149202000Y-106059885D01*
X149502000Y-106059885D01*
X149506475Y-106075124D01*
X149507865Y-106076329D01*
X149515548Y-106078000D01*
X150787884Y-106078000D01*
X150803123Y-106073525D01*
X150804328Y-106072135D01*
X150805999Y-106064452D01*
X150805999Y-105009172D01*
X150804791Y-104996912D01*
X150793685Y-104941069D01*
X150784367Y-104918573D01*
X150742017Y-104855192D01*
X150724808Y-104837983D01*
X150661425Y-104795632D01*
X150638934Y-104786316D01*
X150583085Y-104775207D01*
X150570830Y-104774000D01*
X149520115Y-104774000D01*
X149504876Y-104778475D01*
X149503671Y-104779865D01*
X149502000Y-104787548D01*
X149502000Y-106059885D01*
X149202000Y-106059885D01*
X149202000Y-104792116D01*
X149197525Y-104776877D01*
X149196135Y-104775672D01*
X149188452Y-104774001D01*
X148133172Y-104774001D01*
X148120912Y-104775209D01*
X148065069Y-104786315D01*
X148042573Y-104795633D01*
X147979192Y-104837983D01*
X147961983Y-104855192D01*
X147919632Y-104918575D01*
X147910316Y-104941066D01*
X147899207Y-104996915D01*
X147898000Y-105009170D01*
X147898000Y-106059885D01*
X144780000Y-106059885D01*
X144780000Y-101742957D01*
X144800002Y-101674836D01*
X144810614Y-101660632D01*
X144883848Y-101575789D01*
X144951552Y-101456609D01*
X144982950Y-101401340D01*
X144982952Y-101401336D01*
X144985995Y-101395979D01*
X145026423Y-101274446D01*
X145049325Y-101205601D01*
X145049326Y-101205598D01*
X145051270Y-101199753D01*
X145077189Y-100994586D01*
X145077602Y-100965000D01*
X145057422Y-100759189D01*
X144997651Y-100561217D01*
X144900565Y-100378625D01*
X144896674Y-100373855D01*
X144896672Y-100373851D01*
X144773758Y-100223143D01*
X144773755Y-100223140D01*
X144769863Y-100218368D01*
X144757531Y-100208166D01*
X144615271Y-100090478D01*
X144615266Y-100090475D01*
X144610522Y-100086550D01*
X144605103Y-100083620D01*
X144605100Y-100083618D01*
X144434032Y-99991122D01*
X144434027Y-99991120D01*
X144428612Y-99988192D01*
X144231063Y-99927040D01*
X144224938Y-99926396D01*
X144224937Y-99926396D01*
X144031526Y-99906068D01*
X144031524Y-99906068D01*
X144025397Y-99905424D01*
X143911611Y-99915779D01*
X143825591Y-99923607D01*
X143825590Y-99923607D01*
X143819450Y-99924166D01*
X143621066Y-99982554D01*
X143615601Y-99985411D01*
X143469747Y-100061662D01*
X143411372Y-100076000D01*
X139622894Y-100076000D01*
X139562966Y-100060836D01*
X139434035Y-99991124D01*
X139434033Y-99991123D01*
X139428612Y-99988192D01*
X139231063Y-99927040D01*
X139224938Y-99926396D01*
X139224937Y-99926396D01*
X139031526Y-99906068D01*
X139031524Y-99906068D01*
X139025397Y-99905424D01*
X138911611Y-99915779D01*
X138825591Y-99923607D01*
X138825590Y-99923607D01*
X138819450Y-99924166D01*
X138621066Y-99982554D01*
X138615601Y-99985411D01*
X138469747Y-100061662D01*
X138411372Y-100076000D01*
X132894190Y-100076000D01*
X132826069Y-100055998D01*
X132805095Y-100039095D01*
X132370905Y-99604905D01*
X132336879Y-99542593D01*
X132334000Y-99515810D01*
X132334000Y-99368872D01*
X132354002Y-99300751D01*
X132407658Y-99254258D01*
X132477932Y-99244154D01*
X132542512Y-99273648D01*
X132550638Y-99281346D01*
X132552456Y-99283228D01*
X132556286Y-99288061D01*
X132560980Y-99292056D01*
X132560981Y-99292057D01*
X132709079Y-99418098D01*
X132713771Y-99422091D01*
X132894289Y-99522980D01*
X133090966Y-99586884D01*
X133296309Y-99611370D01*
X133302444Y-99610898D01*
X133302446Y-99610898D01*
X133496356Y-99595977D01*
X133496360Y-99595976D01*
X133502498Y-99595504D01*
X133701678Y-99539892D01*
X133707182Y-99537112D01*
X133707184Y-99537111D01*
X133880762Y-99449431D01*
X133880764Y-99449430D01*
X133886263Y-99446652D01*
X134049222Y-99319334D01*
X134053251Y-99314666D01*
X134054626Y-99313357D01*
X134117751Y-99280863D01*
X134188422Y-99287656D01*
X134244202Y-99331577D01*
X134265099Y-99380022D01*
X134276815Y-99438931D01*
X134286133Y-99461427D01*
X134328483Y-99524808D01*
X134345692Y-99542017D01*
X134409075Y-99584368D01*
X134431566Y-99593684D01*
X134487415Y-99604793D01*
X134499670Y-99606000D01*
X135150385Y-99606000D01*
X135165624Y-99601525D01*
X135166829Y-99600135D01*
X135168500Y-99592452D01*
X135168500Y-99587884D01*
X135468500Y-99587884D01*
X135472975Y-99603123D01*
X135474365Y-99604328D01*
X135482048Y-99605999D01*
X136137328Y-99605999D01*
X136149588Y-99604791D01*
X136205431Y-99593685D01*
X136227927Y-99584367D01*
X136291308Y-99542017D01*
X136308517Y-99524808D01*
X136350868Y-99461425D01*
X136360184Y-99438934D01*
X136371293Y-99383085D01*
X136372500Y-99370830D01*
X136372500Y-98720115D01*
X136368025Y-98704876D01*
X136366635Y-98703671D01*
X136358952Y-98702000D01*
X135486615Y-98702000D01*
X135471376Y-98706475D01*
X135470171Y-98707865D01*
X135468500Y-98715548D01*
X135468500Y-99587884D01*
X135168500Y-99587884D01*
X135168500Y-98556828D01*
X147898001Y-98556828D01*
X147899209Y-98569088D01*
X147910315Y-98624931D01*
X147919633Y-98647427D01*
X147961983Y-98710808D01*
X147979192Y-98728017D01*
X148042575Y-98770368D01*
X148065066Y-98779684D01*
X148120915Y-98790793D01*
X148133170Y-98792000D01*
X149183885Y-98792000D01*
X149199124Y-98787525D01*
X149200329Y-98786135D01*
X149202000Y-98778452D01*
X149202000Y-97506115D01*
X149197525Y-97490876D01*
X149196135Y-97489671D01*
X149188452Y-97488000D01*
X147916116Y-97488000D01*
X147900877Y-97492475D01*
X147899672Y-97493865D01*
X147898001Y-97501548D01*
X147898001Y-98556828D01*
X135168500Y-98556828D01*
X135168500Y-98383885D01*
X135468500Y-98383885D01*
X135472975Y-98399124D01*
X135474365Y-98400329D01*
X135482048Y-98402000D01*
X136354384Y-98402000D01*
X136369623Y-98397525D01*
X136370828Y-98396135D01*
X136372499Y-98388452D01*
X136372499Y-97733172D01*
X136371291Y-97720912D01*
X136360185Y-97665069D01*
X136350867Y-97642573D01*
X136308517Y-97579192D01*
X136291308Y-97561983D01*
X136227925Y-97519632D01*
X136205434Y-97510316D01*
X136149585Y-97499207D01*
X136137330Y-97498000D01*
X135486615Y-97498000D01*
X135471376Y-97502475D01*
X135470171Y-97503865D01*
X135468500Y-97511548D01*
X135468500Y-98383885D01*
X135168500Y-98383885D01*
X135168500Y-97516116D01*
X135164025Y-97500877D01*
X135162635Y-97499672D01*
X135154952Y-97498001D01*
X134499672Y-97498001D01*
X134487412Y-97499209D01*
X134431569Y-97510315D01*
X134409073Y-97519633D01*
X134345692Y-97561983D01*
X134328483Y-97579192D01*
X134286132Y-97642575D01*
X134276816Y-97665067D01*
X134264874Y-97725102D01*
X134231967Y-97788012D01*
X134170272Y-97823144D01*
X134099377Y-97819344D01*
X134060980Y-97797606D01*
X134053097Y-97791084D01*
X133968273Y-97720912D01*
X133915771Y-97677478D01*
X133915766Y-97677475D01*
X133911022Y-97673550D01*
X133905603Y-97670620D01*
X133905600Y-97670618D01*
X133734532Y-97578122D01*
X133734527Y-97578120D01*
X133729112Y-97575192D01*
X133531563Y-97514040D01*
X133525438Y-97513396D01*
X133525437Y-97513396D01*
X133332026Y-97493068D01*
X133332024Y-97493068D01*
X133325897Y-97492424D01*
X133200177Y-97503865D01*
X133126091Y-97510607D01*
X133126090Y-97510607D01*
X133119950Y-97511166D01*
X132921566Y-97569554D01*
X132916101Y-97572411D01*
X132743761Y-97662508D01*
X132743757Y-97662511D01*
X132738301Y-97665363D01*
X132577135Y-97794943D01*
X132573176Y-97799661D01*
X132573171Y-97799666D01*
X132556522Y-97819508D01*
X132497413Y-97858835D01*
X132426425Y-97859962D01*
X132366097Y-97822532D01*
X132335583Y-97758427D01*
X132334000Y-97738518D01*
X132334000Y-97169885D01*
X147898000Y-97169885D01*
X147902475Y-97185124D01*
X147903865Y-97186329D01*
X147911548Y-97188000D01*
X149183885Y-97188000D01*
X149199124Y-97183525D01*
X149200329Y-97182135D01*
X149202000Y-97174452D01*
X149202000Y-97169885D01*
X149502000Y-97169885D01*
X149506475Y-97185124D01*
X149507865Y-97186329D01*
X149515548Y-97188000D01*
X150787884Y-97188000D01*
X150803123Y-97183525D01*
X150804328Y-97182135D01*
X150805999Y-97174452D01*
X150805999Y-96119172D01*
X150804791Y-96106912D01*
X150793685Y-96051069D01*
X150784367Y-96028573D01*
X150742017Y-95965192D01*
X150724808Y-95947983D01*
X150661425Y-95905632D01*
X150638934Y-95896316D01*
X150583085Y-95885207D01*
X150570830Y-95884000D01*
X149520115Y-95884000D01*
X149504876Y-95888475D01*
X149503671Y-95889865D01*
X149502000Y-95897548D01*
X149502000Y-97169885D01*
X149202000Y-97169885D01*
X149202000Y-95902116D01*
X149197525Y-95886877D01*
X149196135Y-95885672D01*
X149188452Y-95884001D01*
X148133172Y-95884001D01*
X148120912Y-95885209D01*
X148065069Y-95896315D01*
X148042573Y-95905633D01*
X147979192Y-95947983D01*
X147961983Y-95965192D01*
X147919632Y-96028575D01*
X147910316Y-96051066D01*
X147899207Y-96106915D01*
X147898000Y-96119170D01*
X147898000Y-97169885D01*
X132334000Y-97169885D01*
X132334000Y-95870206D01*
X137942001Y-95870206D01*
X137959306Y-96076278D01*
X138016307Y-96275066D01*
X138019125Y-96280548D01*
X138019126Y-96280552D01*
X138108014Y-96453509D01*
X138108017Y-96453513D01*
X138110834Y-96458995D01*
X138239286Y-96621061D01*
X138396771Y-96755091D01*
X138577289Y-96855980D01*
X138773966Y-96919884D01*
X138979309Y-96944370D01*
X138985444Y-96943898D01*
X138985446Y-96943898D01*
X139179356Y-96928977D01*
X139179360Y-96928976D01*
X139185498Y-96928504D01*
X139384678Y-96872892D01*
X139390182Y-96870112D01*
X139390184Y-96870111D01*
X139563762Y-96782431D01*
X139563764Y-96782430D01*
X139569263Y-96779652D01*
X139732222Y-96652334D01*
X139736248Y-96647670D01*
X139736251Y-96647667D01*
X139863319Y-96500457D01*
X139863320Y-96500455D01*
X139867348Y-96495789D01*
X139945420Y-96358358D01*
X139966450Y-96321340D01*
X139966452Y-96321336D01*
X139969495Y-96315979D01*
X140034770Y-96119753D01*
X140060689Y-95914586D01*
X140061102Y-95885000D01*
X140059651Y-95870206D01*
X142942001Y-95870206D01*
X142959306Y-96076278D01*
X143016307Y-96275066D01*
X143019125Y-96280548D01*
X143019126Y-96280552D01*
X143108014Y-96453509D01*
X143108017Y-96453513D01*
X143110834Y-96458995D01*
X143239286Y-96621061D01*
X143396771Y-96755091D01*
X143577289Y-96855980D01*
X143773966Y-96919884D01*
X143979309Y-96944370D01*
X143985444Y-96943898D01*
X143985446Y-96943898D01*
X144179356Y-96928977D01*
X144179360Y-96928976D01*
X144185498Y-96928504D01*
X144384678Y-96872892D01*
X144390182Y-96870112D01*
X144390184Y-96870111D01*
X144563762Y-96782431D01*
X144563764Y-96782430D01*
X144569263Y-96779652D01*
X144732222Y-96652334D01*
X144736248Y-96647670D01*
X144736251Y-96647667D01*
X144863319Y-96500457D01*
X144863320Y-96500455D01*
X144867348Y-96495789D01*
X144945420Y-96358358D01*
X144966450Y-96321340D01*
X144966452Y-96321336D01*
X144969495Y-96315979D01*
X145034770Y-96119753D01*
X145060689Y-95914586D01*
X145061102Y-95885000D01*
X145040922Y-95679189D01*
X144981151Y-95481217D01*
X144884065Y-95298625D01*
X144880174Y-95293855D01*
X144880172Y-95293851D01*
X144757258Y-95143143D01*
X144757255Y-95143140D01*
X144753363Y-95138368D01*
X144746466Y-95132662D01*
X144598771Y-95010478D01*
X144598766Y-95010475D01*
X144594022Y-95006550D01*
X144588603Y-95003620D01*
X144588600Y-95003618D01*
X144417532Y-94911122D01*
X144417527Y-94911120D01*
X144412112Y-94908192D01*
X144214563Y-94847040D01*
X144208438Y-94846396D01*
X144208437Y-94846396D01*
X144015026Y-94826068D01*
X144015024Y-94826068D01*
X144008897Y-94825424D01*
X143882729Y-94836906D01*
X143809091Y-94843607D01*
X143809090Y-94843607D01*
X143802950Y-94844166D01*
X143604566Y-94902554D01*
X143599101Y-94905411D01*
X143426761Y-94995508D01*
X143426757Y-94995511D01*
X143421301Y-94998363D01*
X143260135Y-95127943D01*
X143127208Y-95286360D01*
X143027582Y-95467578D01*
X142965053Y-95664696D01*
X142942001Y-95870206D01*
X140059651Y-95870206D01*
X140040922Y-95679189D01*
X139981151Y-95481217D01*
X139884065Y-95298625D01*
X139880174Y-95293855D01*
X139880172Y-95293851D01*
X139757258Y-95143143D01*
X139757255Y-95143140D01*
X139753363Y-95138368D01*
X139746466Y-95132662D01*
X139598771Y-95010478D01*
X139598766Y-95010475D01*
X139594022Y-95006550D01*
X139588603Y-95003620D01*
X139588600Y-95003618D01*
X139417532Y-94911122D01*
X139417527Y-94911120D01*
X139412112Y-94908192D01*
X139214563Y-94847040D01*
X139208438Y-94846396D01*
X139208437Y-94846396D01*
X139015026Y-94826068D01*
X139015024Y-94826068D01*
X139008897Y-94825424D01*
X138882729Y-94836906D01*
X138809091Y-94843607D01*
X138809090Y-94843607D01*
X138802950Y-94844166D01*
X138604566Y-94902554D01*
X138599101Y-94905411D01*
X138426761Y-94995508D01*
X138426757Y-94995511D01*
X138421301Y-94998363D01*
X138260135Y-95127943D01*
X138127208Y-95286360D01*
X138027582Y-95467578D01*
X137965053Y-95664696D01*
X137942001Y-95870206D01*
X132334000Y-95870206D01*
X132334000Y-94995667D01*
X132354002Y-94927546D01*
X132359200Y-94920067D01*
X132550200Y-94665400D01*
X132607074Y-94622905D01*
X132651000Y-94615000D01*
X136726810Y-94615000D01*
X136753957Y-94613545D01*
X136755628Y-94613365D01*
X136755645Y-94613364D01*
X136769599Y-94611864D01*
X136780740Y-94610666D01*
X136875325Y-94581050D01*
X136880757Y-94578084D01*
X136880759Y-94578083D01*
X136933689Y-94549180D01*
X136933691Y-94549179D01*
X136937637Y-94547024D01*
X136943366Y-94542735D01*
X136991908Y-94506397D01*
X136991912Y-94506393D01*
X136995510Y-94503700D01*
X137175700Y-94323510D01*
X137178682Y-94320191D01*
X137192723Y-94304559D01*
X137193865Y-94303288D01*
X137210768Y-94282314D01*
X137256709Y-94194491D01*
X137262481Y-94174835D01*
X137275441Y-94130694D01*
X137276711Y-94126370D01*
X137278851Y-94111490D01*
X137286358Y-94059273D01*
X137287000Y-94054810D01*
X137287000Y-93534500D01*
X137307002Y-93466379D01*
X137360658Y-93419886D01*
X137413000Y-93408500D01*
X137922000Y-93408500D01*
X137952649Y-93402403D01*
X138007033Y-93391586D01*
X138007035Y-93391585D01*
X138019202Y-93389165D01*
X138029517Y-93382273D01*
X138029519Y-93382272D01*
X138096459Y-93337544D01*
X138096463Y-93337541D01*
X138101605Y-93334105D01*
X138355605Y-93080105D01*
X138359041Y-93074963D01*
X138359044Y-93074959D01*
X138403772Y-93008019D01*
X138403773Y-93008017D01*
X138410665Y-92997702D01*
X138413950Y-92981190D01*
X138428793Y-92906567D01*
X138430000Y-92900500D01*
X138430000Y-91912342D01*
X147892951Y-91912342D01*
X147893248Y-91917494D01*
X147893248Y-91917498D01*
X147901723Y-92064482D01*
X147906719Y-92151121D01*
X147907856Y-92156167D01*
X147907857Y-92156173D01*
X147913791Y-92182504D01*
X147959301Y-92384446D01*
X148049284Y-92606049D01*
X148174254Y-92809980D01*
X148330852Y-92990762D01*
X148514874Y-93143540D01*
X148519326Y-93146142D01*
X148519331Y-93146145D01*
X148636526Y-93214628D01*
X148721377Y-93264211D01*
X148944817Y-93349534D01*
X148949883Y-93350565D01*
X148949884Y-93350565D01*
X149004729Y-93361723D01*
X149179191Y-93397218D01*
X149313499Y-93402143D01*
X149413043Y-93405794D01*
X149413048Y-93405794D01*
X149418207Y-93405983D01*
X149423327Y-93405327D01*
X149423329Y-93405327D01*
X149650316Y-93376249D01*
X149650317Y-93376249D01*
X149655444Y-93375592D01*
X149726264Y-93354345D01*
X149879577Y-93308349D01*
X149879582Y-93308347D01*
X149884532Y-93306862D01*
X150099319Y-93201639D01*
X150103524Y-93198639D01*
X150103530Y-93198636D01*
X150289832Y-93065748D01*
X150289834Y-93065746D01*
X150294036Y-93062749D01*
X150463454Y-92893921D01*
X150603023Y-92699690D01*
X150633752Y-92637516D01*
X150706701Y-92489914D01*
X150706702Y-92489912D01*
X150708995Y-92485272D01*
X150778524Y-92256425D01*
X150796814Y-92117502D01*
X150809306Y-92022617D01*
X150809306Y-92022613D01*
X150809743Y-92019296D01*
X150811485Y-91948000D01*
X150791887Y-91709628D01*
X150733620Y-91477658D01*
X150638249Y-91258319D01*
X150508335Y-91057502D01*
X150479470Y-91025779D01*
X150350844Y-90884422D01*
X150350842Y-90884421D01*
X150347366Y-90880600D01*
X150343315Y-90877401D01*
X150343311Y-90877397D01*
X150163725Y-90735569D01*
X150159667Y-90732364D01*
X150042087Y-90667456D01*
X149954808Y-90619275D01*
X149954805Y-90619274D01*
X149950277Y-90616774D01*
X149724819Y-90536936D01*
X149685056Y-90529853D01*
X149494438Y-90495898D01*
X149494434Y-90495898D01*
X149489350Y-90494992D01*
X149405548Y-90493968D01*
X149255360Y-90492133D01*
X149255358Y-90492133D01*
X149250191Y-90492070D01*
X149091680Y-90516326D01*
X149018876Y-90527466D01*
X149018874Y-90527467D01*
X149013767Y-90528248D01*
X148981906Y-90538662D01*
X148791340Y-90600949D01*
X148791338Y-90600950D01*
X148786427Y-90602555D01*
X148574275Y-90712994D01*
X148570142Y-90716097D01*
X148570139Y-90716099D01*
X148443494Y-90811187D01*
X148383010Y-90856600D01*
X148217767Y-91029516D01*
X148214853Y-91033788D01*
X148214852Y-91033789D01*
X148176991Y-91089291D01*
X148082985Y-91227099D01*
X148051034Y-91295933D01*
X147998846Y-91408363D01*
X147982284Y-91444042D01*
X147918366Y-91674520D01*
X147917817Y-91679654D01*
X147917817Y-91679656D01*
X147914614Y-91709628D01*
X147892951Y-91912342D01*
X138430000Y-91912342D01*
X138430000Y-90805000D01*
X138415552Y-90732364D01*
X138413086Y-90719967D01*
X138413085Y-90719965D01*
X138410665Y-90707798D01*
X138403773Y-90697483D01*
X138403772Y-90697481D01*
X138359044Y-90630541D01*
X138359041Y-90630537D01*
X138355605Y-90625395D01*
X138101605Y-90371395D01*
X138096463Y-90367959D01*
X138096459Y-90367956D01*
X138029519Y-90323228D01*
X138029517Y-90323227D01*
X138019202Y-90316335D01*
X138007035Y-90313915D01*
X138007033Y-90313914D01*
X137952649Y-90303097D01*
X137922000Y-90297000D01*
X137160000Y-90297000D01*
X137129351Y-90303097D01*
X137074967Y-90313914D01*
X137074965Y-90313915D01*
X137062798Y-90316335D01*
X137052483Y-90323227D01*
X137052481Y-90323228D01*
X136985541Y-90367956D01*
X136985537Y-90367959D01*
X136980395Y-90371395D01*
X136822195Y-90529595D01*
X136759883Y-90563621D01*
X136733100Y-90566500D01*
X133458191Y-90566501D01*
X133007899Y-90566501D01*
X132999340Y-90566082D01*
X132988366Y-90562756D01*
X132963087Y-90565253D01*
X132956623Y-90565891D01*
X132944239Y-90566501D01*
X132912934Y-90566501D01*
X132877182Y-90573612D01*
X132850874Y-90578844D01*
X132850872Y-90578845D01*
X132838699Y-90581266D01*
X132828379Y-90588161D01*
X132828378Y-90588162D01*
X132806838Y-90602555D01*
X132754516Y-90637516D01*
X132747623Y-90647832D01*
X132738845Y-90656610D01*
X132738629Y-90656394D01*
X132713601Y-90681396D01*
X132677891Y-90705203D01*
X132610118Y-90726346D01*
X132541671Y-90707492D01*
X132494282Y-90654626D01*
X132482000Y-90600364D01*
X132482000Y-90489115D01*
X132477525Y-90473876D01*
X132476135Y-90472671D01*
X132468452Y-90471000D01*
X129492116Y-90471000D01*
X129476877Y-90475475D01*
X129464374Y-90489904D01*
X129444414Y-90526458D01*
X129382101Y-90560483D01*
X129311286Y-90555419D01*
X129258522Y-90518026D01*
X128980098Y-90183917D01*
X128980097Y-90183916D01*
X128968500Y-90170000D01*
X127052190Y-90170000D01*
X126993901Y-90152885D01*
X129474000Y-90152885D01*
X129478475Y-90168124D01*
X129479865Y-90169329D01*
X129487548Y-90171000D01*
X130809885Y-90171000D01*
X130825124Y-90166525D01*
X130826329Y-90165135D01*
X130828000Y-90157452D01*
X130828000Y-90152885D01*
X131128000Y-90152885D01*
X131132475Y-90168124D01*
X131133865Y-90169329D01*
X131141548Y-90171000D01*
X132463884Y-90171000D01*
X132479123Y-90166525D01*
X132480328Y-90165135D01*
X132481999Y-90157452D01*
X132481999Y-89802172D01*
X132480791Y-89789912D01*
X132469685Y-89734069D01*
X132460367Y-89711573D01*
X132418017Y-89648192D01*
X132400808Y-89630983D01*
X132382811Y-89618958D01*
X137421305Y-89618958D01*
X137428137Y-89628704D01*
X137439860Y-89638681D01*
X137449940Y-89645687D01*
X137619612Y-89740514D01*
X137630851Y-89745424D01*
X137815715Y-89805490D01*
X137827689Y-89808123D01*
X138020708Y-89831139D01*
X138032957Y-89831396D01*
X138226769Y-89816483D01*
X138238849Y-89814352D01*
X138426061Y-89762081D01*
X138437494Y-89757647D01*
X138611000Y-89670003D01*
X138621344Y-89663438D01*
X138666557Y-89628115D01*
X138675025Y-89616303D01*
X138668488Y-89604620D01*
X138061812Y-88997944D01*
X138047868Y-88990330D01*
X138046035Y-88990461D01*
X138039420Y-88994712D01*
X137428681Y-89605451D01*
X137421305Y-89618958D01*
X132382811Y-89618958D01*
X132337425Y-89588632D01*
X132314934Y-89579316D01*
X132259085Y-89568207D01*
X132246830Y-89567000D01*
X131146115Y-89567000D01*
X131130876Y-89571475D01*
X131129671Y-89572865D01*
X131128000Y-89580548D01*
X131128000Y-90152885D01*
X130828000Y-90152885D01*
X130828000Y-89585116D01*
X130823525Y-89569877D01*
X130822135Y-89568672D01*
X130814452Y-89567001D01*
X129709172Y-89567001D01*
X129696912Y-89568209D01*
X129641069Y-89579315D01*
X129618573Y-89588633D01*
X129555192Y-89630983D01*
X129537983Y-89648192D01*
X129495632Y-89711575D01*
X129486316Y-89734066D01*
X129475207Y-89789915D01*
X129474000Y-89802170D01*
X129474000Y-90152885D01*
X126993901Y-90152885D01*
X126984069Y-90149998D01*
X126963095Y-90133095D01*
X126528905Y-89698905D01*
X126494879Y-89636593D01*
X126492000Y-89609810D01*
X126492000Y-88937551D01*
X126512002Y-88869430D01*
X126565658Y-88822937D01*
X126635932Y-88812833D01*
X126700512Y-88842327D01*
X126739119Y-88902820D01*
X126775576Y-89029959D01*
X126780092Y-89041364D01*
X126868935Y-89214235D01*
X126875587Y-89224556D01*
X126996318Y-89376883D01*
X127004841Y-89385708D01*
X127152865Y-89511686D01*
X127162934Y-89518684D01*
X127332612Y-89613514D01*
X127343851Y-89618424D01*
X127528716Y-89678491D01*
X127540688Y-89681123D01*
X127594011Y-89687481D01*
X127608418Y-89685054D01*
X127611658Y-89673504D01*
X127912000Y-89673504D01*
X127916354Y-89688332D01*
X127927951Y-89690392D01*
X127939770Y-89689482D01*
X127951846Y-89687353D01*
X128139061Y-89635081D01*
X128150494Y-89630647D01*
X128323998Y-89543004D01*
X128334348Y-89536436D01*
X128487519Y-89416764D01*
X128496405Y-89408303D01*
X128623409Y-89261167D01*
X128630483Y-89251138D01*
X128726489Y-89082138D01*
X128731483Y-89070922D01*
X128792834Y-88886494D01*
X128795554Y-88874522D01*
X128803203Y-88813974D01*
X128800900Y-88799695D01*
X128787907Y-88796000D01*
X127930115Y-88796000D01*
X127914876Y-88800475D01*
X127913671Y-88801865D01*
X127912000Y-88809548D01*
X127912000Y-89673504D01*
X127611658Y-89673504D01*
X127612000Y-89672286D01*
X127612000Y-88764357D01*
X136990519Y-88764357D01*
X137006783Y-88958049D01*
X137008997Y-88970108D01*
X137062576Y-89156959D01*
X137067092Y-89168364D01*
X137155935Y-89341235D01*
X137162587Y-89351556D01*
X137193659Y-89390761D01*
X137205649Y-89399230D01*
X137217094Y-89392774D01*
X137824056Y-88785812D01*
X137830434Y-88774132D01*
X138266330Y-88774132D01*
X138266461Y-88775965D01*
X138270712Y-88782580D01*
X138881794Y-89393662D01*
X138895420Y-89401103D01*
X138904988Y-89394446D01*
X138910410Y-89388166D01*
X138917482Y-89378140D01*
X139013489Y-89209138D01*
X139018483Y-89197922D01*
X139079834Y-89013494D01*
X139082554Y-89001523D01*
X139107244Y-88806075D01*
X139107736Y-88799048D01*
X139108051Y-88776523D01*
X139107756Y-88769494D01*
X139106649Y-88758206D01*
X141989501Y-88758206D01*
X141994088Y-88812833D01*
X142004562Y-88937551D01*
X142006806Y-88964278D01*
X142063807Y-89163066D01*
X142066625Y-89168548D01*
X142066626Y-89168552D01*
X142155514Y-89341509D01*
X142155517Y-89341513D01*
X142158334Y-89346995D01*
X142286786Y-89509061D01*
X142291479Y-89513055D01*
X142291480Y-89513056D01*
X142399068Y-89604620D01*
X142444271Y-89643091D01*
X142624789Y-89743980D01*
X142821466Y-89807884D01*
X143026809Y-89832370D01*
X143032944Y-89831898D01*
X143032946Y-89831898D01*
X143226856Y-89816977D01*
X143226860Y-89816976D01*
X143232998Y-89816504D01*
X143432178Y-89760892D01*
X143437682Y-89758112D01*
X143437684Y-89758111D01*
X143611262Y-89670431D01*
X143611264Y-89670430D01*
X143616763Y-89667652D01*
X143617818Y-89666828D01*
X147898001Y-89666828D01*
X147899209Y-89679088D01*
X147910315Y-89734931D01*
X147919633Y-89757427D01*
X147961983Y-89820808D01*
X147979192Y-89838017D01*
X148042575Y-89880368D01*
X148065066Y-89889684D01*
X148120915Y-89900793D01*
X148133170Y-89902000D01*
X149183885Y-89902000D01*
X149199124Y-89897525D01*
X149200329Y-89896135D01*
X149202000Y-89888452D01*
X149202000Y-89883884D01*
X149502000Y-89883884D01*
X149506475Y-89899123D01*
X149507865Y-89900328D01*
X149515548Y-89901999D01*
X150570828Y-89901999D01*
X150583088Y-89900791D01*
X150638931Y-89889685D01*
X150661427Y-89880367D01*
X150724808Y-89838017D01*
X150742017Y-89820808D01*
X150784368Y-89757425D01*
X150793684Y-89734934D01*
X150804793Y-89679085D01*
X150806000Y-89666830D01*
X150806000Y-88616115D01*
X150801525Y-88600876D01*
X150800135Y-88599671D01*
X150792452Y-88598000D01*
X149520115Y-88598000D01*
X149504876Y-88602475D01*
X149503671Y-88603865D01*
X149502000Y-88611548D01*
X149502000Y-89883884D01*
X149202000Y-89883884D01*
X149202000Y-88616115D01*
X149197525Y-88600876D01*
X149196135Y-88599671D01*
X149188452Y-88598000D01*
X147916116Y-88598000D01*
X147900877Y-88602475D01*
X147899672Y-88603865D01*
X147898001Y-88611548D01*
X147898001Y-89666828D01*
X143617818Y-89666828D01*
X143779722Y-89540334D01*
X143783748Y-89535670D01*
X143783751Y-89535667D01*
X143910819Y-89388457D01*
X143910820Y-89388455D01*
X143914848Y-89383789D01*
X143965921Y-89293884D01*
X144013950Y-89209340D01*
X144013952Y-89209336D01*
X144016995Y-89203979D01*
X144082270Y-89007753D01*
X144108189Y-88802586D01*
X144108602Y-88773000D01*
X144088422Y-88567189D01*
X144028651Y-88369217D01*
X143981152Y-88279885D01*
X147898000Y-88279885D01*
X147902475Y-88295124D01*
X147903865Y-88296329D01*
X147911548Y-88298000D01*
X149183885Y-88298000D01*
X149199124Y-88293525D01*
X149200329Y-88292135D01*
X149202000Y-88284452D01*
X149202000Y-88279885D01*
X149502000Y-88279885D01*
X149506475Y-88295124D01*
X149507865Y-88296329D01*
X149515548Y-88298000D01*
X150787884Y-88298000D01*
X150803123Y-88293525D01*
X150804328Y-88292135D01*
X150805999Y-88284452D01*
X150805999Y-87229172D01*
X150804791Y-87216912D01*
X150793685Y-87161069D01*
X150784367Y-87138573D01*
X150742017Y-87075192D01*
X150724808Y-87057983D01*
X150661425Y-87015632D01*
X150638934Y-87006316D01*
X150583085Y-86995207D01*
X150570830Y-86994000D01*
X149520115Y-86994000D01*
X149504876Y-86998475D01*
X149503671Y-86999865D01*
X149502000Y-87007548D01*
X149502000Y-88279885D01*
X149202000Y-88279885D01*
X149202000Y-87012116D01*
X149197525Y-86996877D01*
X149196135Y-86995672D01*
X149188452Y-86994001D01*
X148133172Y-86994001D01*
X148120912Y-86995209D01*
X148065069Y-87006315D01*
X148042573Y-87015633D01*
X147979192Y-87057983D01*
X147961983Y-87075192D01*
X147919632Y-87138575D01*
X147910316Y-87161066D01*
X147899207Y-87216915D01*
X147898000Y-87229170D01*
X147898000Y-88279885D01*
X143981152Y-88279885D01*
X143980108Y-88277921D01*
X143934459Y-88192067D01*
X143934457Y-88192064D01*
X143931565Y-88186625D01*
X143927674Y-88181855D01*
X143927672Y-88181851D01*
X143804758Y-88031143D01*
X143804755Y-88031140D01*
X143800863Y-88026368D01*
X143793966Y-88020662D01*
X143646271Y-87898478D01*
X143646266Y-87898475D01*
X143641522Y-87894550D01*
X143636103Y-87891620D01*
X143636100Y-87891618D01*
X143465032Y-87799122D01*
X143465027Y-87799120D01*
X143459612Y-87796192D01*
X143262063Y-87735040D01*
X143255938Y-87734396D01*
X143255937Y-87734396D01*
X143062526Y-87714068D01*
X143062524Y-87714068D01*
X143056397Y-87713424D01*
X142930229Y-87724906D01*
X142856591Y-87731607D01*
X142856590Y-87731607D01*
X142850450Y-87732166D01*
X142652066Y-87790554D01*
X142646601Y-87793411D01*
X142474261Y-87883508D01*
X142474257Y-87883511D01*
X142468801Y-87886363D01*
X142307635Y-88015943D01*
X142174708Y-88174360D01*
X142075082Y-88355578D01*
X142012553Y-88552696D01*
X142011867Y-88558813D01*
X142011866Y-88558817D01*
X142005439Y-88616115D01*
X141989501Y-88758206D01*
X139106649Y-88758206D01*
X139088531Y-88573419D01*
X139086148Y-88561384D01*
X139029968Y-88375308D01*
X139025294Y-88363967D01*
X138934043Y-88192349D01*
X138927249Y-88182124D01*
X138904899Y-88154720D01*
X138892557Y-88146258D01*
X138881582Y-88152550D01*
X138273944Y-88760188D01*
X138266330Y-88774132D01*
X137830434Y-88774132D01*
X137831670Y-88771868D01*
X137831539Y-88770035D01*
X137827288Y-88763420D01*
X137216856Y-88152988D01*
X137203471Y-88145679D01*
X137193545Y-88152688D01*
X137179080Y-88169927D01*
X137172156Y-88180037D01*
X137078510Y-88350381D01*
X137073682Y-88361645D01*
X137014906Y-88546931D01*
X137012358Y-88558920D01*
X136990690Y-88752088D01*
X136990519Y-88764357D01*
X127612000Y-88764357D01*
X127612000Y-88477885D01*
X127912000Y-88477885D01*
X127916475Y-88493124D01*
X127917865Y-88494329D01*
X127925548Y-88496000D01*
X128788278Y-88496000D01*
X128802705Y-88491764D01*
X128804766Y-88479411D01*
X128801531Y-88446420D01*
X128799148Y-88434383D01*
X128742968Y-88248308D01*
X128738294Y-88236967D01*
X128647043Y-88065349D01*
X128640249Y-88055124D01*
X128537845Y-87929565D01*
X137422532Y-87929565D01*
X137428906Y-87940774D01*
X138036188Y-88548056D01*
X138050132Y-88555670D01*
X138051965Y-88555539D01*
X138058580Y-88551288D01*
X138668741Y-87941127D01*
X138675983Y-87927865D01*
X138668794Y-87917760D01*
X138645990Y-87898894D01*
X138635819Y-87892034D01*
X138464838Y-87799585D01*
X138453531Y-87794833D01*
X138267849Y-87737354D01*
X138255836Y-87734888D01*
X138062522Y-87714570D01*
X138050254Y-87714485D01*
X137856683Y-87732101D01*
X137844634Y-87734399D01*
X137658163Y-87789281D01*
X137646795Y-87793874D01*
X137474535Y-87883929D01*
X137464273Y-87890645D01*
X137431001Y-87917396D01*
X137422532Y-87929565D01*
X128537845Y-87929565D01*
X128517395Y-87904491D01*
X128508766Y-87895801D01*
X128358986Y-87771891D01*
X128348820Y-87765035D01*
X128177838Y-87672585D01*
X128166531Y-87667833D01*
X127980849Y-87610354D01*
X127968835Y-87607888D01*
X127930015Y-87603808D01*
X127915365Y-87606487D01*
X127912000Y-87618808D01*
X127912000Y-88477885D01*
X127612000Y-88477885D01*
X127612000Y-87619365D01*
X127607724Y-87604803D01*
X127595621Y-87602741D01*
X127569683Y-87605101D01*
X127557634Y-87607399D01*
X127371163Y-87662281D01*
X127359795Y-87666874D01*
X127187536Y-87756929D01*
X127177275Y-87763643D01*
X127025787Y-87885443D01*
X127017031Y-87894017D01*
X126892080Y-88042926D01*
X126885156Y-88053037D01*
X126791510Y-88223381D01*
X126786682Y-88234645D01*
X126738102Y-88387789D01*
X126698439Y-88446673D01*
X126633236Y-88474765D01*
X126563197Y-88463148D01*
X126510557Y-88415508D01*
X126492000Y-88349690D01*
X126492000Y-86158190D01*
X126512002Y-86090069D01*
X126528905Y-86069095D01*
X126709095Y-85888905D01*
X126771407Y-85854879D01*
X126798190Y-85852000D01*
X152855810Y-85852000D01*
X152923931Y-85872002D01*
G37*
G04 #@! TD.AperFunction*
G04 #@! TA.AperFunction,Conductor*
G36*
X119141931Y-91333002D02*
G01*
X119162905Y-91349905D01*
X119343095Y-91530095D01*
X119377121Y-91592407D01*
X119380000Y-91619190D01*
X119380000Y-92964000D01*
X119493142Y-93077142D01*
X119527168Y-93139454D01*
X119524380Y-93203599D01*
X119515891Y-93230938D01*
X119490951Y-93441649D01*
X119504829Y-93653377D01*
X119557058Y-93859031D01*
X119645890Y-94051723D01*
X119768350Y-94225000D01*
X119920337Y-94373059D01*
X119925133Y-94376264D01*
X119925136Y-94376266D01*
X120049145Y-94459126D01*
X120096760Y-94490941D01*
X120102063Y-94493219D01*
X120102066Y-94493221D01*
X120285429Y-94572000D01*
X120291711Y-94574699D01*
X120367750Y-94591905D01*
X120493025Y-94620252D01*
X120493030Y-94620253D01*
X120498662Y-94621527D01*
X120504433Y-94621754D01*
X120504435Y-94621754D01*
X120569911Y-94624326D01*
X120710681Y-94629857D01*
X120818974Y-94614155D01*
X120914953Y-94600239D01*
X120914958Y-94600238D01*
X120920667Y-94599410D01*
X120926131Y-94597555D01*
X120926136Y-94597554D01*
X121050070Y-94555484D01*
X121121589Y-94531207D01*
X121193489Y-94490941D01*
X121301670Y-94430357D01*
X121301674Y-94430354D01*
X121306717Y-94427530D01*
X121469852Y-94291852D01*
X121605530Y-94128717D01*
X121608354Y-94123674D01*
X121608357Y-94123670D01*
X121706383Y-93948632D01*
X121706384Y-93948630D01*
X121709207Y-93943589D01*
X121777410Y-93742667D01*
X121784804Y-93691669D01*
X121814373Y-93627124D01*
X121874145Y-93588811D01*
X121945141Y-93588895D01*
X122004822Y-93627349D01*
X122034239Y-93691965D01*
X122035500Y-93709749D01*
X122035501Y-94051723D01*
X122035501Y-94397066D01*
X122050266Y-94471301D01*
X122057161Y-94481620D01*
X122057162Y-94481622D01*
X122074799Y-94508017D01*
X122106516Y-94555484D01*
X122190699Y-94611734D01*
X122264933Y-94626500D01*
X123189850Y-94626500D01*
X124115066Y-94626499D01*
X124150818Y-94619388D01*
X124177126Y-94614156D01*
X124177128Y-94614155D01*
X124189301Y-94611734D01*
X124199621Y-94604839D01*
X124199622Y-94604838D01*
X124263168Y-94562377D01*
X124273484Y-94555484D01*
X124329734Y-94471301D01*
X124344500Y-94397067D01*
X124344499Y-93839828D01*
X129474001Y-93839828D01*
X129475209Y-93852088D01*
X129486315Y-93907931D01*
X129495633Y-93930427D01*
X129537983Y-93993808D01*
X129555192Y-94011017D01*
X129618575Y-94053368D01*
X129641066Y-94062684D01*
X129696915Y-94073793D01*
X129709170Y-94075000D01*
X130809885Y-94075000D01*
X130825124Y-94070525D01*
X130826329Y-94069135D01*
X130828000Y-94061452D01*
X130828000Y-94056884D01*
X131128000Y-94056884D01*
X131132475Y-94072123D01*
X131133865Y-94073328D01*
X131141548Y-94074999D01*
X132246828Y-94074999D01*
X132259088Y-94073791D01*
X132314931Y-94062685D01*
X132337427Y-94053367D01*
X132400808Y-94011017D01*
X132418017Y-93993808D01*
X132460368Y-93930425D01*
X132469684Y-93907934D01*
X132480793Y-93852085D01*
X132482000Y-93839830D01*
X132482000Y-93489115D01*
X132477525Y-93473876D01*
X132476135Y-93472671D01*
X132468452Y-93471000D01*
X131146115Y-93471000D01*
X131130876Y-93475475D01*
X131129671Y-93476865D01*
X131128000Y-93484548D01*
X131128000Y-94056884D01*
X130828000Y-94056884D01*
X130828000Y-93489115D01*
X130823525Y-93473876D01*
X130822135Y-93472671D01*
X130814452Y-93471000D01*
X129492116Y-93471000D01*
X129476877Y-93475475D01*
X129475672Y-93476865D01*
X129474001Y-93484548D01*
X129474001Y-93839828D01*
X124344499Y-93839828D01*
X124344499Y-93343999D01*
X124364501Y-93275879D01*
X124418157Y-93229386D01*
X124470499Y-93218000D01*
X129032000Y-93218000D01*
X129258905Y-92991095D01*
X129321217Y-92957069D01*
X129392032Y-92962134D01*
X129448868Y-93004681D01*
X129473679Y-93071201D01*
X129474000Y-93080190D01*
X129474000Y-93152885D01*
X129478475Y-93168124D01*
X129479865Y-93169329D01*
X129487548Y-93171000D01*
X132463884Y-93171000D01*
X132479123Y-93166525D01*
X132480328Y-93165135D01*
X132481999Y-93157452D01*
X132481999Y-93041636D01*
X132502001Y-92973515D01*
X132555657Y-92927022D01*
X132625931Y-92916918D01*
X132677890Y-92936798D01*
X132708297Y-92957069D01*
X132713601Y-92960605D01*
X132738628Y-92985607D01*
X132738845Y-92985390D01*
X132747623Y-92994168D01*
X132754516Y-93004484D01*
X132764832Y-93011377D01*
X132764834Y-93011379D01*
X132828380Y-93053839D01*
X132838699Y-93060734D01*
X132912933Y-93075500D01*
X132944559Y-93075500D01*
X132956745Y-93076091D01*
X132976421Y-93078003D01*
X132976422Y-93078003D01*
X132988772Y-93079203D01*
X132999585Y-93075908D01*
X133007769Y-93075500D01*
X133421747Y-93075500D01*
X136669599Y-93075499D01*
X136737720Y-93095501D01*
X136758694Y-93112404D01*
X136980395Y-93334105D01*
X136985544Y-93337546D01*
X136986935Y-93338687D01*
X137026903Y-93397364D01*
X137033000Y-93436085D01*
X137033000Y-94054810D01*
X137012998Y-94122931D01*
X136996095Y-94143905D01*
X136815905Y-94324095D01*
X136753593Y-94358121D01*
X136726810Y-94361000D01*
X132461000Y-94361000D01*
X132080000Y-94869000D01*
X132080000Y-100389567D01*
X132059998Y-100457688D01*
X132023892Y-100494405D01*
X131730743Y-100689838D01*
X131660851Y-100711000D01*
X130145010Y-100711000D01*
X130076889Y-100690998D01*
X130030396Y-100637342D01*
X130020292Y-100567068D01*
X130049786Y-100502488D01*
X130088197Y-100472535D01*
X130107763Y-100462652D01*
X130270722Y-100335334D01*
X130274748Y-100330670D01*
X130274751Y-100330667D01*
X130401819Y-100183457D01*
X130401820Y-100183455D01*
X130405848Y-100178789D01*
X130507995Y-99998979D01*
X130563062Y-99833439D01*
X130571325Y-99808601D01*
X130571326Y-99808598D01*
X130573270Y-99802753D01*
X130599189Y-99597586D01*
X130599602Y-99568000D01*
X130579422Y-99362189D01*
X130519651Y-99164217D01*
X130422565Y-98981625D01*
X130418674Y-98976855D01*
X130418672Y-98976851D01*
X130295758Y-98826143D01*
X130295755Y-98826140D01*
X130291863Y-98821368D01*
X130287114Y-98817439D01*
X130137271Y-98693478D01*
X130137266Y-98693475D01*
X130132522Y-98689550D01*
X130127103Y-98686620D01*
X130127100Y-98686618D01*
X129956032Y-98594122D01*
X129956027Y-98594120D01*
X129950612Y-98591192D01*
X129753063Y-98530040D01*
X129746938Y-98529396D01*
X129746937Y-98529396D01*
X129553526Y-98509068D01*
X129553524Y-98509068D01*
X129547397Y-98508424D01*
X129421677Y-98519865D01*
X129347591Y-98526607D01*
X129347590Y-98526607D01*
X129341450Y-98527166D01*
X129143066Y-98585554D01*
X129137601Y-98588411D01*
X128965261Y-98678508D01*
X128965257Y-98678511D01*
X128959801Y-98681363D01*
X128798635Y-98810943D01*
X128797473Y-98809498D01*
X128742473Y-98838788D01*
X128671714Y-98832983D01*
X128615326Y-98789843D01*
X128593400Y-98739973D01*
X128581685Y-98681069D01*
X128572367Y-98658573D01*
X128530017Y-98595192D01*
X128512808Y-98577983D01*
X128449425Y-98535632D01*
X128426934Y-98526316D01*
X128371085Y-98515207D01*
X128358830Y-98514000D01*
X127708115Y-98514000D01*
X127692876Y-98518475D01*
X127691671Y-98519865D01*
X127690000Y-98527548D01*
X127690000Y-99592000D01*
X127669998Y-99660121D01*
X127616342Y-99706614D01*
X127564000Y-99718000D01*
X126504116Y-99718000D01*
X126488877Y-99722475D01*
X126487672Y-99723865D01*
X126486001Y-99731548D01*
X126486001Y-100386828D01*
X126487209Y-100399088D01*
X126498315Y-100454931D01*
X126507633Y-100477426D01*
X126532738Y-100514999D01*
X126553952Y-100582752D01*
X126535169Y-100651219D01*
X126482351Y-100698661D01*
X126427972Y-100711000D01*
X125137558Y-100711000D01*
X125069437Y-100690998D01*
X125022944Y-100637342D01*
X125011668Y-100590274D01*
X125011553Y-100587526D01*
X125011602Y-100584000D01*
X124991422Y-100378189D01*
X124931651Y-100180217D01*
X124883108Y-100088921D01*
X124837459Y-100003067D01*
X124837457Y-100003064D01*
X124834565Y-99997625D01*
X124830674Y-99992855D01*
X124830672Y-99992851D01*
X124707758Y-99842143D01*
X124707755Y-99842140D01*
X124703863Y-99837368D01*
X124696966Y-99831662D01*
X124549271Y-99709478D01*
X124549266Y-99709475D01*
X124544522Y-99705550D01*
X124539103Y-99702620D01*
X124539100Y-99702618D01*
X124368032Y-99610122D01*
X124368027Y-99610120D01*
X124362612Y-99607192D01*
X124165063Y-99546040D01*
X124158938Y-99545396D01*
X124158937Y-99545396D01*
X123965526Y-99525068D01*
X123965524Y-99525068D01*
X123959397Y-99524424D01*
X123837864Y-99535484D01*
X123759591Y-99542607D01*
X123759590Y-99542607D01*
X123753450Y-99543166D01*
X123555066Y-99601554D01*
X123549601Y-99604411D01*
X123377261Y-99694508D01*
X123377257Y-99694511D01*
X123371801Y-99697363D01*
X123210635Y-99826943D01*
X123077708Y-99985360D01*
X122978082Y-100166578D01*
X122915553Y-100363696D01*
X122914867Y-100369813D01*
X122914866Y-100369817D01*
X122900891Y-100494405D01*
X122892501Y-100569206D01*
X122893017Y-100575349D01*
X122892931Y-100581507D01*
X122891503Y-100581487D01*
X122878712Y-100644009D01*
X122829136Y-100694830D01*
X122767384Y-100711000D01*
X121327558Y-100711000D01*
X121259437Y-100690998D01*
X121212944Y-100637342D01*
X121201668Y-100590274D01*
X121201553Y-100587526D01*
X121201602Y-100584000D01*
X121181422Y-100378189D01*
X121121651Y-100180217D01*
X121073108Y-100088921D01*
X121027459Y-100003067D01*
X121027457Y-100003064D01*
X121024565Y-99997625D01*
X121020674Y-99992855D01*
X121020672Y-99992851D01*
X120897758Y-99842143D01*
X120897755Y-99842140D01*
X120893863Y-99837368D01*
X120886966Y-99831662D01*
X120739271Y-99709478D01*
X120739266Y-99709475D01*
X120734522Y-99705550D01*
X120729103Y-99702620D01*
X120729100Y-99702618D01*
X120558032Y-99610122D01*
X120558027Y-99610120D01*
X120552612Y-99607192D01*
X120355063Y-99546040D01*
X120348938Y-99545396D01*
X120348937Y-99545396D01*
X120155526Y-99525068D01*
X120155524Y-99525068D01*
X120149397Y-99524424D01*
X120027864Y-99535484D01*
X119949591Y-99542607D01*
X119949590Y-99542607D01*
X119943450Y-99543166D01*
X119745066Y-99601554D01*
X119739601Y-99604411D01*
X119567261Y-99694508D01*
X119567257Y-99694511D01*
X119561801Y-99697363D01*
X119400635Y-99826943D01*
X119267708Y-99985360D01*
X119168082Y-100166578D01*
X119105553Y-100363696D01*
X119104867Y-100369813D01*
X119104866Y-100369817D01*
X119090891Y-100494405D01*
X119082501Y-100569206D01*
X119083017Y-100575349D01*
X119082931Y-100581507D01*
X119081503Y-100581487D01*
X119068712Y-100644009D01*
X119019136Y-100694830D01*
X118957384Y-100711000D01*
X117517558Y-100711000D01*
X117449437Y-100690998D01*
X117402944Y-100637342D01*
X117391668Y-100590274D01*
X117391553Y-100587526D01*
X117391602Y-100584000D01*
X117371422Y-100378189D01*
X117311651Y-100180217D01*
X117263108Y-100088921D01*
X117217459Y-100003067D01*
X117217457Y-100003064D01*
X117214565Y-99997625D01*
X117210674Y-99992855D01*
X117210672Y-99992851D01*
X117087758Y-99842143D01*
X117087755Y-99842140D01*
X117083863Y-99837368D01*
X117076966Y-99831662D01*
X116929271Y-99709478D01*
X116929266Y-99709475D01*
X116924522Y-99705550D01*
X116919103Y-99702620D01*
X116919100Y-99702618D01*
X116748032Y-99610122D01*
X116748027Y-99610120D01*
X116742612Y-99607192D01*
X116545063Y-99546040D01*
X116538938Y-99545396D01*
X116538937Y-99545396D01*
X116345526Y-99525068D01*
X116345524Y-99525068D01*
X116339397Y-99524424D01*
X116215417Y-99535707D01*
X116145766Y-99521960D01*
X116094602Y-99472739D01*
X116078000Y-99410225D01*
X116078000Y-99399885D01*
X126486000Y-99399885D01*
X126490475Y-99415124D01*
X126491865Y-99416329D01*
X126499548Y-99418000D01*
X127371885Y-99418000D01*
X127387124Y-99413525D01*
X127388329Y-99412135D01*
X127390000Y-99404452D01*
X127390000Y-98532116D01*
X127385525Y-98516877D01*
X127384135Y-98515672D01*
X127376452Y-98514001D01*
X126721172Y-98514001D01*
X126708912Y-98515209D01*
X126653069Y-98526315D01*
X126630573Y-98535633D01*
X126567192Y-98577983D01*
X126549983Y-98595192D01*
X126507632Y-98658575D01*
X126498316Y-98681066D01*
X126487207Y-98736915D01*
X126486000Y-98749170D01*
X126486000Y-99399885D01*
X116078000Y-99399885D01*
X116078000Y-97998130D01*
X116098002Y-97930009D01*
X116151658Y-97883516D01*
X116216352Y-97872737D01*
X116229173Y-97874000D01*
X117179885Y-97874000D01*
X117195124Y-97869525D01*
X117196329Y-97868135D01*
X117198000Y-97860452D01*
X117198000Y-97855884D01*
X117498000Y-97855884D01*
X117502475Y-97871123D01*
X117503865Y-97872328D01*
X117511548Y-97873999D01*
X118466828Y-97873999D01*
X118479088Y-97872791D01*
X118534931Y-97861685D01*
X118557427Y-97852367D01*
X118620808Y-97810017D01*
X118638017Y-97792808D01*
X118680368Y-97729425D01*
X118689684Y-97706934D01*
X118700793Y-97651085D01*
X118702000Y-97638830D01*
X118702000Y-96984958D01*
X125483305Y-96984958D01*
X125490137Y-96994704D01*
X125501860Y-97004681D01*
X125511940Y-97011687D01*
X125681612Y-97106514D01*
X125692851Y-97111424D01*
X125877715Y-97171490D01*
X125889689Y-97174123D01*
X126082708Y-97197139D01*
X126094957Y-97197396D01*
X126288769Y-97182483D01*
X126300849Y-97180352D01*
X126488061Y-97128081D01*
X126499494Y-97123647D01*
X126673000Y-97036003D01*
X126683344Y-97029438D01*
X126728557Y-96994115D01*
X126737025Y-96982303D01*
X126730488Y-96970620D01*
X126123812Y-96363944D01*
X126109868Y-96356330D01*
X126108035Y-96356461D01*
X126101420Y-96360712D01*
X125490681Y-96971451D01*
X125483305Y-96984958D01*
X118702000Y-96984958D01*
X118702000Y-96688115D01*
X118697525Y-96672876D01*
X118696135Y-96671671D01*
X118688452Y-96670000D01*
X117516115Y-96670000D01*
X117500876Y-96674475D01*
X117499671Y-96675865D01*
X117498000Y-96683548D01*
X117498000Y-97855884D01*
X117198000Y-97855884D01*
X117198000Y-96351885D01*
X117498000Y-96351885D01*
X117502475Y-96367124D01*
X117503865Y-96368329D01*
X117511548Y-96370000D01*
X118683884Y-96370000D01*
X118699123Y-96365525D01*
X118700328Y-96364135D01*
X118701999Y-96356452D01*
X118701999Y-96130357D01*
X125052519Y-96130357D01*
X125068783Y-96324049D01*
X125070997Y-96336108D01*
X125124576Y-96522959D01*
X125129092Y-96534364D01*
X125217935Y-96707235D01*
X125224587Y-96717556D01*
X125255659Y-96756761D01*
X125267649Y-96765230D01*
X125279094Y-96758774D01*
X125886056Y-96151812D01*
X125892434Y-96140132D01*
X126328330Y-96140132D01*
X126328461Y-96141965D01*
X126332712Y-96148580D01*
X126943794Y-96759662D01*
X126957420Y-96767103D01*
X126966988Y-96760446D01*
X126972410Y-96754166D01*
X126979482Y-96744140D01*
X127075489Y-96575138D01*
X127080483Y-96563922D01*
X127141834Y-96379494D01*
X127144554Y-96367523D01*
X127169244Y-96172075D01*
X127169736Y-96165048D01*
X127170051Y-96142523D01*
X127169756Y-96135494D01*
X127150531Y-95939419D01*
X127148148Y-95927384D01*
X127091968Y-95741308D01*
X127087294Y-95729967D01*
X126996043Y-95558349D01*
X126989249Y-95548124D01*
X126966899Y-95520720D01*
X126954557Y-95512258D01*
X126943582Y-95518550D01*
X126335944Y-96126188D01*
X126328330Y-96140132D01*
X125892434Y-96140132D01*
X125893670Y-96137868D01*
X125893539Y-96136035D01*
X125889288Y-96129420D01*
X125278856Y-95518988D01*
X125265471Y-95511679D01*
X125255545Y-95518688D01*
X125241080Y-95535927D01*
X125234156Y-95546037D01*
X125140510Y-95716381D01*
X125135682Y-95727645D01*
X125076906Y-95912931D01*
X125074358Y-95924920D01*
X125052690Y-96118088D01*
X125052519Y-96130357D01*
X118701999Y-96130357D01*
X118701999Y-95401172D01*
X118700791Y-95388912D01*
X118689685Y-95333069D01*
X118680367Y-95310573D01*
X118670339Y-95295565D01*
X125484532Y-95295565D01*
X125490906Y-95306774D01*
X126098188Y-95914056D01*
X126112132Y-95921670D01*
X126113965Y-95921539D01*
X126120580Y-95917288D01*
X126730741Y-95307127D01*
X126737983Y-95293865D01*
X126730794Y-95283760D01*
X126707990Y-95264894D01*
X126697819Y-95258034D01*
X126526838Y-95165585D01*
X126515531Y-95160833D01*
X126329849Y-95103354D01*
X126317836Y-95100888D01*
X126124522Y-95080570D01*
X126112254Y-95080485D01*
X125918683Y-95098101D01*
X125906634Y-95100399D01*
X125720163Y-95155281D01*
X125708795Y-95159874D01*
X125536535Y-95249929D01*
X125526273Y-95256645D01*
X125493001Y-95283396D01*
X125484532Y-95295565D01*
X118670339Y-95295565D01*
X118638017Y-95247192D01*
X118620808Y-95229983D01*
X118557425Y-95187632D01*
X118534934Y-95178316D01*
X118479085Y-95167207D01*
X118466830Y-95166000D01*
X117516115Y-95166000D01*
X117500876Y-95170475D01*
X117499671Y-95171865D01*
X117498000Y-95179548D01*
X117498000Y-96351885D01*
X117198000Y-96351885D01*
X117198000Y-95184116D01*
X117193525Y-95168877D01*
X117192135Y-95167672D01*
X117184452Y-95166001D01*
X116229174Y-95166001D01*
X116216352Y-95167264D01*
X116146598Y-95154036D01*
X116095069Y-95105197D01*
X116078000Y-95041871D01*
X116078000Y-94696130D01*
X116098002Y-94628009D01*
X116151658Y-94581516D01*
X116216352Y-94570737D01*
X116229173Y-94572000D01*
X117179885Y-94572000D01*
X117195124Y-94567525D01*
X117196329Y-94566135D01*
X117198000Y-94558452D01*
X117198000Y-94553884D01*
X117498000Y-94553884D01*
X117502475Y-94569123D01*
X117503865Y-94570328D01*
X117511548Y-94571999D01*
X118466828Y-94571999D01*
X118479088Y-94570791D01*
X118534931Y-94559685D01*
X118557427Y-94550367D01*
X118620808Y-94508017D01*
X118638017Y-94490808D01*
X118680368Y-94427425D01*
X118689684Y-94404934D01*
X118700793Y-94349085D01*
X118702000Y-94336830D01*
X118702000Y-93386115D01*
X118697525Y-93370876D01*
X118696135Y-93369671D01*
X118688452Y-93368000D01*
X117516115Y-93368000D01*
X117500876Y-93372475D01*
X117499671Y-93373865D01*
X117498000Y-93381548D01*
X117498000Y-94553884D01*
X117198000Y-94553884D01*
X117198000Y-93049885D01*
X117498000Y-93049885D01*
X117502475Y-93065124D01*
X117503865Y-93066329D01*
X117511548Y-93068000D01*
X118683884Y-93068000D01*
X118699123Y-93063525D01*
X118700328Y-93062135D01*
X118701999Y-93054452D01*
X118701999Y-92099172D01*
X118700791Y-92086912D01*
X118689685Y-92031069D01*
X118680367Y-92008573D01*
X118638017Y-91945192D01*
X118620808Y-91927983D01*
X118557425Y-91885632D01*
X118534934Y-91876316D01*
X118479085Y-91865207D01*
X118466830Y-91864000D01*
X117516115Y-91864000D01*
X117500876Y-91868475D01*
X117499671Y-91869865D01*
X117498000Y-91877548D01*
X117498000Y-93049885D01*
X117198000Y-93049885D01*
X117198000Y-91882116D01*
X117193525Y-91866877D01*
X117192135Y-91865672D01*
X117184452Y-91864001D01*
X116229174Y-91864001D01*
X116216352Y-91865264D01*
X116146598Y-91852036D01*
X116095069Y-91803197D01*
X116078000Y-91739871D01*
X116078000Y-91619190D01*
X116098002Y-91551069D01*
X116114905Y-91530095D01*
X116295095Y-91349905D01*
X116357407Y-91315879D01*
X116384190Y-91313000D01*
X119073810Y-91313000D01*
X119141931Y-91333002D01*
G37*
G04 #@! TD.AperFunction*
G04 #@! TA.AperFunction,Conductor*
G36*
X126217539Y-85872002D02*
G01*
X126264032Y-85925658D01*
X126274136Y-85995932D01*
X126268069Y-86018444D01*
X126268291Y-86018509D01*
X126248289Y-86086630D01*
X126238000Y-86158190D01*
X126238000Y-88349690D01*
X126247531Y-88418617D01*
X126266088Y-88484435D01*
X126281023Y-88524275D01*
X126286296Y-88531373D01*
X126286296Y-88531374D01*
X126311659Y-88565519D01*
X126336222Y-88632131D01*
X126320872Y-88701449D01*
X126317716Y-88706437D01*
X126314227Y-88710053D01*
X126310052Y-88718035D01*
X126310051Y-88718036D01*
X126300635Y-88736037D01*
X126268291Y-88797870D01*
X126248289Y-88865991D01*
X126247648Y-88870450D01*
X126247647Y-88870454D01*
X126244392Y-88893096D01*
X126238000Y-88937551D01*
X126238000Y-89609810D01*
X126239455Y-89636957D01*
X126242334Y-89663740D01*
X126271950Y-89758325D01*
X126305976Y-89820637D01*
X126308671Y-89824237D01*
X126346603Y-89874908D01*
X126346607Y-89874912D01*
X126349300Y-89878510D01*
X126352486Y-89881696D01*
X126355424Y-89885086D01*
X126353888Y-89886417D01*
X126383920Y-89941416D01*
X126378855Y-90012231D01*
X126336308Y-90069067D01*
X126269788Y-90093878D01*
X126247628Y-90093509D01*
X126124522Y-90080570D01*
X126112254Y-90080485D01*
X125918683Y-90098101D01*
X125906634Y-90100399D01*
X125720163Y-90155281D01*
X125708795Y-90159874D01*
X125536535Y-90249929D01*
X125526273Y-90256645D01*
X125493001Y-90283396D01*
X125484532Y-90295565D01*
X125490906Y-90306774D01*
X126943794Y-91759662D01*
X126957420Y-91767103D01*
X126966988Y-91760446D01*
X126972410Y-91754166D01*
X126979482Y-91744140D01*
X127075489Y-91575138D01*
X127080483Y-91563922D01*
X127141834Y-91379494D01*
X127144554Y-91367523D01*
X127169244Y-91172075D01*
X127169736Y-91165048D01*
X127170051Y-91142523D01*
X127169756Y-91135494D01*
X127150531Y-90939419D01*
X127148148Y-90927384D01*
X127091968Y-90741308D01*
X127087294Y-90729967D01*
X127023056Y-90609154D01*
X127008736Y-90539616D01*
X127034283Y-90473376D01*
X127091588Y-90431463D01*
X127134307Y-90424000D01*
X128790518Y-90424000D01*
X128858639Y-90444002D01*
X128887313Y-90469337D01*
X129063394Y-90680633D01*
X129111657Y-90725262D01*
X129134299Y-90741308D01*
X129162449Y-90761258D01*
X129162458Y-90761264D01*
X129164421Y-90762655D01*
X129166490Y-90763896D01*
X129166493Y-90763898D01*
X129172338Y-90767404D01*
X129197594Y-90782553D01*
X129250897Y-90797176D01*
X129287204Y-90807136D01*
X129287208Y-90807137D01*
X129293169Y-90808772D01*
X129363984Y-90813836D01*
X129366802Y-90813786D01*
X129367037Y-90813792D01*
X129434598Y-90835609D01*
X129479639Y-90890490D01*
X129482837Y-90900864D01*
X129485844Y-90908124D01*
X129488266Y-90920301D01*
X129542488Y-91001449D01*
X129563702Y-91069199D01*
X129542487Y-91141451D01*
X129495632Y-91211574D01*
X129486316Y-91234066D01*
X129475207Y-91289915D01*
X129474000Y-91302170D01*
X129474000Y-91652885D01*
X129478475Y-91668124D01*
X129479865Y-91669329D01*
X129487548Y-91671000D01*
X136906000Y-91671000D01*
X136906000Y-91971000D01*
X129492116Y-91971000D01*
X129476877Y-91975475D01*
X129475672Y-91976865D01*
X129474001Y-91984548D01*
X129474001Y-92339828D01*
X129475209Y-92352088D01*
X129486315Y-92407931D01*
X129495633Y-92430427D01*
X129542487Y-92500549D01*
X129563702Y-92568302D01*
X129542486Y-92640553D01*
X129540200Y-92643976D01*
X129533053Y-92654672D01*
X129478575Y-92700198D01*
X129410175Y-92708480D01*
X129410153Y-92708781D01*
X129408603Y-92708670D01*
X129408602Y-92708670D01*
X129339338Y-92703716D01*
X129336531Y-92703766D01*
X129336525Y-92703766D01*
X129303068Y-92704364D01*
X129303067Y-92704364D01*
X129294062Y-92704525D01*
X129239216Y-92721699D01*
X129205386Y-92732292D01*
X129205384Y-92732293D01*
X129199485Y-92734140D01*
X129194062Y-92737101D01*
X129194058Y-92737103D01*
X129141121Y-92766010D01*
X129137173Y-92768166D01*
X129133573Y-92770861D01*
X129082902Y-92808793D01*
X129082898Y-92808797D01*
X129079300Y-92811490D01*
X128963695Y-92927095D01*
X128901383Y-92961121D01*
X128874600Y-92964000D01*
X124470499Y-92964000D01*
X124470499Y-92962359D01*
X124407693Y-92947544D01*
X124358374Y-92896473D01*
X124343999Y-92838027D01*
X124343999Y-92553172D01*
X124342791Y-92540912D01*
X124331685Y-92485069D01*
X124322367Y-92462573D01*
X124280017Y-92399192D01*
X124262808Y-92381983D01*
X124199425Y-92339632D01*
X124176934Y-92330316D01*
X124121085Y-92319207D01*
X124108830Y-92318000D01*
X123358115Y-92318000D01*
X123342876Y-92322475D01*
X123341671Y-92323865D01*
X123340000Y-92331548D01*
X123340000Y-93496000D01*
X123319998Y-93564121D01*
X123266342Y-93610614D01*
X123214000Y-93622000D01*
X123166000Y-93622000D01*
X123097879Y-93601998D01*
X123051386Y-93548342D01*
X123040000Y-93496000D01*
X123040000Y-92336116D01*
X123035525Y-92320877D01*
X123034135Y-92319672D01*
X123026452Y-92318001D01*
X122271172Y-92318001D01*
X122258912Y-92319209D01*
X122203069Y-92330315D01*
X122180573Y-92339633D01*
X122117192Y-92381983D01*
X122099983Y-92399192D01*
X122057632Y-92462575D01*
X122048316Y-92485066D01*
X122037207Y-92540915D01*
X122036000Y-92553170D01*
X122036000Y-93208853D01*
X122015998Y-93276974D01*
X121962342Y-93323467D01*
X121909863Y-93334853D01*
X121906181Y-93334849D01*
X121838084Y-93314773D01*
X121791650Y-93261067D01*
X121785051Y-93243050D01*
X121734005Y-93062053D01*
X121734003Y-93062047D01*
X121732436Y-93056492D01*
X121723034Y-93037425D01*
X121641145Y-92871372D01*
X121638590Y-92866191D01*
X121633064Y-92858790D01*
X121515089Y-92700803D01*
X121515088Y-92700802D01*
X121511636Y-92696179D01*
X121498696Y-92684217D01*
X121360066Y-92556069D01*
X121360063Y-92556067D01*
X121355826Y-92552150D01*
X121313265Y-92525296D01*
X121266326Y-92472029D01*
X121254500Y-92418734D01*
X121254500Y-91984958D01*
X125483305Y-91984958D01*
X125490137Y-91994704D01*
X125501860Y-92004681D01*
X125511940Y-92011687D01*
X125681612Y-92106514D01*
X125692851Y-92111424D01*
X125877715Y-92171490D01*
X125889689Y-92174123D01*
X126082708Y-92197139D01*
X126094957Y-92197396D01*
X126288769Y-92182483D01*
X126300849Y-92180352D01*
X126488061Y-92128081D01*
X126499494Y-92123647D01*
X126673000Y-92036003D01*
X126683344Y-92029438D01*
X126728557Y-91994115D01*
X126737025Y-91982303D01*
X126730488Y-91970620D01*
X126123812Y-91363944D01*
X126109868Y-91356330D01*
X126108035Y-91356461D01*
X126101420Y-91360712D01*
X125490681Y-91971451D01*
X125483305Y-91984958D01*
X121254500Y-91984958D01*
X121254500Y-91741878D01*
X121255578Y-91725432D01*
X121255968Y-91722468D01*
X121259716Y-91694000D01*
X121238941Y-91536194D01*
X121205420Y-91455269D01*
X121181554Y-91397650D01*
X121181191Y-91396773D01*
X121181190Y-91396772D01*
X121178030Y-91389142D01*
X121164174Y-91371084D01*
X121086160Y-91269416D01*
X121081134Y-91262866D01*
X121055982Y-91243566D01*
X121043591Y-91232699D01*
X120941249Y-91130357D01*
X125052519Y-91130357D01*
X125068783Y-91324049D01*
X125070997Y-91336108D01*
X125124576Y-91522959D01*
X125129092Y-91534364D01*
X125217935Y-91707235D01*
X125224587Y-91717556D01*
X125255659Y-91756761D01*
X125267649Y-91765230D01*
X125279094Y-91758774D01*
X125886056Y-91151812D01*
X125893670Y-91137868D01*
X125893539Y-91136035D01*
X125889288Y-91129420D01*
X125278856Y-90518988D01*
X125265471Y-90511679D01*
X125255545Y-90518688D01*
X125241080Y-90535927D01*
X125234156Y-90546037D01*
X125140510Y-90716381D01*
X125135682Y-90727645D01*
X125076906Y-90912931D01*
X125074358Y-90924920D01*
X125052690Y-91118088D01*
X125052519Y-91130357D01*
X120941249Y-91130357D01*
X118685241Y-88874349D01*
X118651215Y-88812037D01*
X118649329Y-88769462D01*
X118653552Y-88736037D01*
X118661189Y-88675586D01*
X118661602Y-88646000D01*
X118641422Y-88440189D01*
X118581651Y-88242217D01*
X118510825Y-88109012D01*
X118487459Y-88065067D01*
X118487457Y-88065064D01*
X118484565Y-88059625D01*
X118480674Y-88054855D01*
X118480672Y-88054851D01*
X118357758Y-87904143D01*
X118357755Y-87904140D01*
X118353863Y-87899368D01*
X118346966Y-87893662D01*
X118199271Y-87771478D01*
X118199266Y-87771475D01*
X118194522Y-87767550D01*
X118189103Y-87764620D01*
X118189100Y-87764618D01*
X118018032Y-87672122D01*
X118018027Y-87672120D01*
X118012612Y-87669192D01*
X117815063Y-87608040D01*
X117808938Y-87607396D01*
X117808937Y-87607396D01*
X117615526Y-87587068D01*
X117615524Y-87587068D01*
X117609397Y-87586424D01*
X117483229Y-87597906D01*
X117409591Y-87604607D01*
X117409590Y-87604607D01*
X117403450Y-87605166D01*
X117205066Y-87663554D01*
X117199601Y-87666411D01*
X117027261Y-87756508D01*
X117027257Y-87756511D01*
X117021801Y-87759363D01*
X116860635Y-87888943D01*
X116727708Y-88047360D01*
X116628082Y-88228578D01*
X116565553Y-88425696D01*
X116564867Y-88431813D01*
X116564866Y-88431817D01*
X116543188Y-88625081D01*
X116542501Y-88631206D01*
X116543568Y-88643908D01*
X116559254Y-88830701D01*
X116559806Y-88837278D01*
X116616807Y-89036066D01*
X116619625Y-89041548D01*
X116619626Y-89041552D01*
X116708514Y-89214509D01*
X116708517Y-89214513D01*
X116711334Y-89219995D01*
X116839786Y-89382061D01*
X116844479Y-89386055D01*
X116844480Y-89386056D01*
X116874013Y-89411190D01*
X116997271Y-89516091D01*
X117177789Y-89616980D01*
X117374466Y-89680884D01*
X117579809Y-89705370D01*
X117585944Y-89704898D01*
X117585946Y-89704898D01*
X117732501Y-89693621D01*
X117801956Y-89708338D01*
X117831263Y-89730155D01*
X118945013Y-90843905D01*
X118979039Y-90906217D01*
X118973974Y-90977032D01*
X118931427Y-91033868D01*
X118864907Y-91058679D01*
X118855918Y-91059000D01*
X116384190Y-91059000D01*
X116357043Y-91060455D01*
X116355372Y-91060635D01*
X116355355Y-91060636D01*
X116341401Y-91062136D01*
X116330260Y-91063334D01*
X116235675Y-91092950D01*
X116230243Y-91095916D01*
X116230241Y-91095917D01*
X116182668Y-91121895D01*
X116173363Y-91126976D01*
X116169763Y-91129671D01*
X116119092Y-91167603D01*
X116119088Y-91167607D01*
X116115490Y-91170300D01*
X115935300Y-91350490D01*
X115934174Y-91351743D01*
X115934165Y-91351753D01*
X115926118Y-91360712D01*
X115917135Y-91370712D01*
X115900232Y-91391686D01*
X115854291Y-91479509D01*
X115834289Y-91547630D01*
X115833648Y-91552089D01*
X115833647Y-91552093D01*
X115831754Y-91565260D01*
X115824000Y-91619190D01*
X115824000Y-91739871D01*
X115832753Y-91805975D01*
X115837088Y-91822059D01*
X115847900Y-91862169D01*
X115849822Y-91869301D01*
X115863092Y-91906651D01*
X115920340Y-91987550D01*
X115954178Y-92019621D01*
X115989859Y-92080998D01*
X115993500Y-92111070D01*
X115993501Y-94324927D01*
X115973499Y-94393048D01*
X115950013Y-94420152D01*
X115931668Y-94436048D01*
X115900227Y-94468632D01*
X115854291Y-94556449D01*
X115834289Y-94624570D01*
X115824000Y-94696130D01*
X115824000Y-95041871D01*
X115832753Y-95107975D01*
X115833833Y-95111981D01*
X115847917Y-95164232D01*
X115849822Y-95171301D01*
X115863092Y-95208651D01*
X115920340Y-95289550D01*
X115954178Y-95321621D01*
X115989859Y-95382998D01*
X115993500Y-95413070D01*
X115993501Y-97626927D01*
X115973499Y-97695048D01*
X115950013Y-97722152D01*
X115939367Y-97731377D01*
X115931668Y-97738048D01*
X115900227Y-97770632D01*
X115854291Y-97858449D01*
X115834289Y-97926570D01*
X115833648Y-97931029D01*
X115833647Y-97931033D01*
X115829145Y-97962350D01*
X115824000Y-97998130D01*
X115824000Y-99410225D01*
X115832510Y-99475421D01*
X115833556Y-99479359D01*
X115833558Y-99479370D01*
X115848575Y-99535916D01*
X115846727Y-99606889D01*
X115806802Y-99665596D01*
X115785175Y-99679915D01*
X115751801Y-99697363D01*
X115590635Y-99826943D01*
X115543507Y-99883108D01*
X115542347Y-99884491D01*
X115483238Y-99923817D01*
X115445825Y-99929500D01*
X113408833Y-99929500D01*
X113340712Y-99909498D01*
X113311190Y-99883135D01*
X113277762Y-99842148D01*
X113277759Y-99842145D01*
X113273863Y-99837368D01*
X113264091Y-99829284D01*
X113119271Y-99709478D01*
X113119266Y-99709475D01*
X113114522Y-99705550D01*
X113109103Y-99702620D01*
X113109100Y-99702618D01*
X112938032Y-99610122D01*
X112938027Y-99610120D01*
X112932612Y-99607192D01*
X112735063Y-99546040D01*
X112728938Y-99545396D01*
X112728937Y-99545396D01*
X112535526Y-99525068D01*
X112535524Y-99525068D01*
X112529397Y-99524424D01*
X112403229Y-99535906D01*
X112329591Y-99542607D01*
X112329590Y-99542607D01*
X112323450Y-99543166D01*
X112125066Y-99601554D01*
X112119606Y-99604408D01*
X112115859Y-99605922D01*
X112045206Y-99612891D01*
X111982000Y-99580555D01*
X111946310Y-99519182D01*
X111949467Y-99448255D01*
X111979372Y-99400198D01*
X113731500Y-97640301D01*
X115298411Y-96066444D01*
X115306299Y-96059250D01*
X115312511Y-96055308D01*
X115339463Y-96026607D01*
X115361312Y-96003340D01*
X115363870Y-96000695D01*
X115382078Y-95982407D01*
X115382091Y-95982393D01*
X115384877Y-95979594D01*
X115387298Y-95976458D01*
X115388291Y-95975327D01*
X115394895Y-95967578D01*
X115420287Y-95940538D01*
X115425711Y-95934762D01*
X115429526Y-95927822D01*
X115429530Y-95927817D01*
X115436371Y-95915372D01*
X115447057Y-95899065D01*
X115460575Y-95881558D01*
X115467482Y-95865500D01*
X115478360Y-95840210D01*
X115483693Y-95829294D01*
X115501554Y-95796805D01*
X115501555Y-95796802D01*
X115505376Y-95789852D01*
X115510881Y-95768413D01*
X115517172Y-95749974D01*
X115522782Y-95736932D01*
X115522784Y-95736925D01*
X115525914Y-95729648D01*
X115532856Y-95685180D01*
X115535307Y-95673278D01*
X115544530Y-95637359D01*
X115544530Y-95637358D01*
X115546501Y-95629682D01*
X115546501Y-95607554D01*
X115548009Y-95588119D01*
X115550198Y-95574094D01*
X115551421Y-95566263D01*
X115547087Y-95521470D01*
X115546501Y-95509335D01*
X115546501Y-87747521D01*
X115547054Y-87735780D01*
X115548775Y-87728083D01*
X115546563Y-87657693D01*
X115546501Y-87653735D01*
X115546501Y-87624821D01*
X115545952Y-87620473D01*
X115545023Y-87608660D01*
X115543830Y-87570718D01*
X115543830Y-87570717D01*
X115543581Y-87562799D01*
X115537650Y-87542384D01*
X115533641Y-87523025D01*
X115531971Y-87509804D01*
X115531971Y-87509802D01*
X115530977Y-87501938D01*
X115528058Y-87494565D01*
X115514089Y-87459282D01*
X115510244Y-87448053D01*
X115499657Y-87411613D01*
X115497446Y-87404001D01*
X115486623Y-87385699D01*
X115477928Y-87367951D01*
X115473021Y-87355557D01*
X115473021Y-87355556D01*
X115470102Y-87348185D01*
X115443138Y-87311072D01*
X115436620Y-87301150D01*
X115417304Y-87268487D01*
X115417300Y-87268482D01*
X115413268Y-87261664D01*
X115398242Y-87246638D01*
X115385401Y-87231604D01*
X115377562Y-87220815D01*
X115372903Y-87214402D01*
X115366799Y-87209352D01*
X115366797Y-87209350D01*
X115337542Y-87185148D01*
X115328764Y-87177159D01*
X115042456Y-86890851D01*
X115034537Y-86882149D01*
X115030311Y-86875490D01*
X114978962Y-86827272D01*
X114976152Y-86824548D01*
X114955686Y-86804081D01*
X114952228Y-86801399D01*
X114943206Y-86793693D01*
X114915543Y-86767716D01*
X114909765Y-86762290D01*
X114891135Y-86752048D01*
X114874618Y-86741198D01*
X114864084Y-86733027D01*
X114864083Y-86733026D01*
X114857818Y-86728167D01*
X114815716Y-86709948D01*
X114805056Y-86704726D01*
X114790455Y-86696699D01*
X114764855Y-86682625D01*
X114744260Y-86677337D01*
X114725574Y-86670940D01*
X114706053Y-86662492D01*
X114698223Y-86661252D01*
X114698220Y-86661251D01*
X114675310Y-86657623D01*
X114660731Y-86655314D01*
X114649123Y-86652910D01*
X114618598Y-86645072D01*
X114612362Y-86643471D01*
X114612361Y-86643471D01*
X114604685Y-86641500D01*
X114583428Y-86641500D01*
X114563718Y-86639949D01*
X114550554Y-86637864D01*
X114550553Y-86637864D01*
X114542724Y-86636624D01*
X114542355Y-86636659D01*
X114478090Y-86615577D01*
X114476827Y-86614526D01*
X114475484Y-86612516D01*
X114391301Y-86556266D01*
X114317067Y-86541500D01*
X113792085Y-86541500D01*
X113266934Y-86541501D01*
X113231182Y-86548612D01*
X113204874Y-86553844D01*
X113204872Y-86553845D01*
X113192699Y-86556266D01*
X113182379Y-86563161D01*
X113182378Y-86563162D01*
X113121985Y-86603516D01*
X113108516Y-86612516D01*
X113093156Y-86635504D01*
X113038679Y-86681030D01*
X112988392Y-86691500D01*
X111293608Y-86691500D01*
X111225487Y-86671498D01*
X111188845Y-86635505D01*
X111173484Y-86612516D01*
X111089301Y-86556266D01*
X111015067Y-86541500D01*
X110490085Y-86541500D01*
X109964934Y-86541501D01*
X109929182Y-86548612D01*
X109902874Y-86553844D01*
X109902872Y-86553845D01*
X109890699Y-86556266D01*
X109880379Y-86563161D01*
X109880378Y-86563162D01*
X109819985Y-86603516D01*
X109806516Y-86612516D01*
X109750266Y-86696699D01*
X109735500Y-86770933D01*
X109735501Y-87821066D01*
X109736709Y-87827138D01*
X109739450Y-87840921D01*
X109733121Y-87911635D01*
X109689566Y-87967701D01*
X109615871Y-87991500D01*
X109271521Y-87991500D01*
X109259780Y-87990947D01*
X109252083Y-87989226D01*
X109244157Y-87989475D01*
X109244156Y-87989475D01*
X109181693Y-87991438D01*
X109177735Y-87991500D01*
X109148822Y-87991500D01*
X109144903Y-87991995D01*
X109144901Y-87991995D01*
X109144475Y-87992049D01*
X109132661Y-87992978D01*
X109104807Y-87993854D01*
X109086800Y-87994420D01*
X109079184Y-87996633D01*
X109079182Y-87996633D01*
X109066384Y-88000351D01*
X109047025Y-88004360D01*
X109033805Y-88006030D01*
X109033803Y-88006031D01*
X109025939Y-88007024D01*
X109018567Y-88009943D01*
X109018566Y-88009943D01*
X108983280Y-88023913D01*
X108972051Y-88027758D01*
X108959275Y-88031470D01*
X108928001Y-88040556D01*
X108921176Y-88044592D01*
X108921172Y-88044594D01*
X108909703Y-88051376D01*
X108891953Y-88060072D01*
X108879559Y-88064979D01*
X108879554Y-88064982D01*
X108872186Y-88067899D01*
X108865770Y-88072560D01*
X108865767Y-88072562D01*
X108835066Y-88094867D01*
X108825145Y-88101384D01*
X108792491Y-88120695D01*
X108792488Y-88120697D01*
X108785664Y-88124733D01*
X108770635Y-88139762D01*
X108755602Y-88152602D01*
X108738403Y-88165098D01*
X108709148Y-88200462D01*
X108701169Y-88209228D01*
X107457801Y-89452596D01*
X107395489Y-89486622D01*
X107368706Y-89489501D01*
X105776500Y-89489501D01*
X105708379Y-89469499D01*
X105661886Y-89415843D01*
X105650500Y-89363501D01*
X105650499Y-87625123D01*
X105650499Y-87618934D01*
X105635734Y-87544699D01*
X105627826Y-87532863D01*
X105586377Y-87470832D01*
X105579484Y-87460516D01*
X105495301Y-87404266D01*
X105421067Y-87389500D01*
X104521146Y-87389500D01*
X103620934Y-87389501D01*
X103585182Y-87396612D01*
X103558874Y-87401844D01*
X103558872Y-87401845D01*
X103546699Y-87404266D01*
X103536379Y-87411161D01*
X103536378Y-87411162D01*
X103481168Y-87448053D01*
X103462516Y-87460516D01*
X103406266Y-87544699D01*
X103391500Y-87618933D01*
X103391501Y-89419066D01*
X103397869Y-89451083D01*
X103403048Y-89477120D01*
X103406266Y-89493301D01*
X103462516Y-89577484D01*
X103546699Y-89633734D01*
X103620933Y-89648500D01*
X103634313Y-89648500D01*
X104349434Y-89648499D01*
X104417553Y-89668501D01*
X104464046Y-89722157D01*
X104474150Y-89792430D01*
X104444657Y-89857011D01*
X104384930Y-89895395D01*
X104370770Y-89898679D01*
X104233101Y-89922335D01*
X104233098Y-89922336D01*
X104227411Y-89923313D01*
X104032654Y-89995162D01*
X103854252Y-90101300D01*
X103849909Y-90105109D01*
X103702525Y-90234362D01*
X103702522Y-90234365D01*
X103698180Y-90238173D01*
X103569663Y-90401195D01*
X103566974Y-90406306D01*
X103566972Y-90406309D01*
X103531558Y-90473621D01*
X103473007Y-90584907D01*
X103411449Y-90783158D01*
X103387050Y-90989306D01*
X103400627Y-91196450D01*
X103451725Y-91397650D01*
X103538634Y-91586169D01*
X103658442Y-91755694D01*
X103710057Y-91805975D01*
X103802325Y-91895859D01*
X103807137Y-91900547D01*
X103811933Y-91903752D01*
X103811936Y-91903754D01*
X103923501Y-91978299D01*
X103979740Y-92015877D01*
X104026585Y-92036003D01*
X104165167Y-92095542D01*
X104165170Y-92095543D01*
X104170470Y-92097820D01*
X104176100Y-92099094D01*
X104363027Y-92141392D01*
X104372939Y-92143635D01*
X104378708Y-92143862D01*
X104378711Y-92143862D01*
X104381337Y-92143965D01*
X104382519Y-92144363D01*
X104384440Y-92144616D01*
X104384390Y-92144993D01*
X104448619Y-92166628D01*
X104492968Y-92222069D01*
X104500304Y-92292685D01*
X104468297Y-92356058D01*
X104407109Y-92392065D01*
X104397733Y-92394046D01*
X104316929Y-92407931D01*
X104233101Y-92422335D01*
X104233098Y-92422336D01*
X104227411Y-92423313D01*
X104032654Y-92495162D01*
X103854252Y-92601300D01*
X103816757Y-92634183D01*
X103702525Y-92734362D01*
X103702522Y-92734365D01*
X103698180Y-92738173D01*
X103569663Y-92901195D01*
X103566974Y-92906306D01*
X103566972Y-92906309D01*
X103517986Y-92999416D01*
X103473007Y-93084907D01*
X103411449Y-93283158D01*
X103387050Y-93489306D01*
X103400627Y-93696450D01*
X103451725Y-93897650D01*
X103538634Y-94086169D01*
X103658442Y-94255694D01*
X103662576Y-94259721D01*
X103791638Y-94385448D01*
X103807137Y-94400547D01*
X103811933Y-94403752D01*
X103811936Y-94403754D01*
X103874505Y-94445561D01*
X103979740Y-94515877D01*
X103985043Y-94518155D01*
X103985048Y-94518158D01*
X104165167Y-94595542D01*
X104165170Y-94595543D01*
X104170470Y-94597820D01*
X104176100Y-94599094D01*
X104308409Y-94629033D01*
X104372939Y-94643635D01*
X104378708Y-94643862D01*
X104378711Y-94643862D01*
X104382841Y-94644024D01*
X104383733Y-94644059D01*
X104451016Y-94666720D01*
X104495367Y-94722159D01*
X104502705Y-94792775D01*
X104470699Y-94856149D01*
X104409513Y-94892158D01*
X104400125Y-94894142D01*
X104233231Y-94922820D01*
X104222123Y-94925797D01*
X104038290Y-94993616D01*
X104027908Y-94998568D01*
X103859508Y-95098756D01*
X103850208Y-95105512D01*
X103847545Y-95107847D01*
X103839148Y-95121085D01*
X103844982Y-95130850D01*
X104508188Y-95794056D01*
X104522132Y-95801670D01*
X104523965Y-95801539D01*
X104530580Y-95797288D01*
X105196686Y-95131182D01*
X105203446Y-95118802D01*
X105197416Y-95110747D01*
X105040634Y-95011825D01*
X105030387Y-95006604D01*
X104848396Y-94933997D01*
X104837359Y-94930728D01*
X104639518Y-94891374D01*
X104639875Y-94889581D01*
X104581926Y-94865732D01*
X104541303Y-94807506D01*
X104538607Y-94736561D01*
X104574696Y-94675420D01*
X104642684Y-94642749D01*
X104713278Y-94632513D01*
X104780091Y-94622826D01*
X104780095Y-94622825D01*
X104785806Y-94621997D01*
X104982377Y-94555270D01*
X105163497Y-94453838D01*
X105323099Y-94321099D01*
X105455838Y-94161497D01*
X105557270Y-93980377D01*
X105623997Y-93783806D01*
X105624825Y-93778097D01*
X105624826Y-93778092D01*
X105647104Y-93624439D01*
X105653784Y-93578367D01*
X105655339Y-93519000D01*
X105647629Y-93435088D01*
X105643180Y-93386671D01*
X105656865Y-93317006D01*
X105679556Y-93286047D01*
X107088197Y-91877405D01*
X107150509Y-91843380D01*
X107177292Y-91840500D01*
X108929113Y-91840500D01*
X108997234Y-91860502D01*
X109043727Y-91914158D01*
X109053831Y-91984432D01*
X109024337Y-92049012D01*
X109003192Y-92067166D01*
X109003745Y-92067903D01*
X108853978Y-92180352D01*
X108825630Y-92201636D01*
X108764184Y-92265935D01*
X108693571Y-92339828D01*
X108671748Y-92362664D01*
X108644475Y-92402645D01*
X108560809Y-92525296D01*
X108546233Y-92546663D01*
X108544060Y-92551345D01*
X108544058Y-92551348D01*
X108461238Y-92729770D01*
X108452455Y-92748691D01*
X108392932Y-92963322D01*
X108369264Y-93184793D01*
X108369561Y-93189946D01*
X108369561Y-93189949D01*
X108379040Y-93354345D01*
X108382085Y-93407156D01*
X108383222Y-93412202D01*
X108383223Y-93412208D01*
X108407290Y-93519000D01*
X108431052Y-93624439D01*
X108432994Y-93629221D01*
X108432995Y-93629225D01*
X108495764Y-93783806D01*
X108514849Y-93830807D01*
X108631226Y-94020717D01*
X108777058Y-94189070D01*
X108948428Y-94331344D01*
X109140734Y-94443718D01*
X109145559Y-94445560D01*
X109145560Y-94445561D01*
X109205977Y-94468632D01*
X109348811Y-94523175D01*
X109353879Y-94524206D01*
X109353882Y-94524207D01*
X109460778Y-94545955D01*
X109567072Y-94567581D01*
X109572247Y-94567771D01*
X109572249Y-94567771D01*
X109784491Y-94575554D01*
X109784495Y-94575554D01*
X109789655Y-94575743D01*
X109794775Y-94575087D01*
X109794777Y-94575087D01*
X109893928Y-94562385D01*
X110010582Y-94547441D01*
X110015531Y-94545956D01*
X110015537Y-94545955D01*
X110218969Y-94484922D01*
X110218968Y-94484922D01*
X110223919Y-94483437D01*
X110423939Y-94385448D01*
X110428144Y-94382448D01*
X110428150Y-94382445D01*
X110601065Y-94259106D01*
X110601067Y-94259104D01*
X110605269Y-94256107D01*
X110763039Y-94098887D01*
X110796931Y-94051722D01*
X110889994Y-93922210D01*
X110893012Y-93918010D01*
X110936111Y-93830807D01*
X110989404Y-93722976D01*
X110989405Y-93722974D01*
X110991698Y-93718334D01*
X111056447Y-93505220D01*
X111059297Y-93483571D01*
X111085082Y-93287716D01*
X111085082Y-93287710D01*
X111085519Y-93284394D01*
X111087142Y-93218000D01*
X111068892Y-92996017D01*
X111014631Y-92779995D01*
X110956816Y-92647029D01*
X110927877Y-92580473D01*
X110927875Y-92580470D01*
X110925817Y-92575736D01*
X110911220Y-92553172D01*
X110807645Y-92393070D01*
X110807640Y-92393064D01*
X110804834Y-92388726D01*
X110798699Y-92381983D01*
X110658411Y-92227808D01*
X110658409Y-92227806D01*
X110654933Y-92223986D01*
X110650882Y-92220787D01*
X110650878Y-92220783D01*
X110484196Y-92089147D01*
X110480138Y-92085942D01*
X110463592Y-92076808D01*
X110413621Y-92026375D01*
X110398850Y-91956932D01*
X110423967Y-91890527D01*
X110480998Y-91848243D01*
X110524486Y-91840500D01*
X111497878Y-91840500D01*
X111499857Y-91840516D01*
X111567319Y-91841576D01*
X111567322Y-91841576D01*
X111574916Y-91841695D01*
X111614563Y-91832614D01*
X111626892Y-91830429D01*
X111648839Y-91827657D01*
X111662201Y-91825969D01*
X111662202Y-91825969D01*
X111670061Y-91824976D01*
X111677425Y-91822060D01*
X111677430Y-91822059D01*
X111691539Y-91816472D01*
X111709797Y-91810803D01*
X111721928Y-91808025D01*
X111721931Y-91808024D01*
X111729332Y-91806329D01*
X111736113Y-91802919D01*
X111736120Y-91802916D01*
X111769365Y-91786195D01*
X111779580Y-91781614D01*
X111823814Y-91764101D01*
X111830227Y-91759442D01*
X111830232Y-91759439D01*
X111839187Y-91752933D01*
X111856627Y-91742308D01*
X111864068Y-91738565D01*
X111864071Y-91738563D01*
X111870855Y-91735151D01*
X111908076Y-91703361D01*
X111915846Y-91697236D01*
X111951182Y-91671563D01*
X111951183Y-91671562D01*
X111957597Y-91666902D01*
X111965415Y-91657452D01*
X111967095Y-91655422D01*
X111982343Y-91639932D01*
X111985539Y-91637202D01*
X111985542Y-91637199D01*
X111991314Y-91632269D01*
X112022304Y-91589141D01*
X112027542Y-91582353D01*
X112057952Y-91545594D01*
X112063005Y-91539486D01*
X112067603Y-91529716D01*
X112079279Y-91509853D01*
X112083755Y-91503624D01*
X112091062Y-91485448D01*
X112105121Y-91450476D01*
X112108020Y-91443825D01*
X112130037Y-91397037D01*
X112130039Y-91397032D01*
X112133414Y-91389859D01*
X112134900Y-91382067D01*
X112136207Y-91378045D01*
X112138249Y-91371084D01*
X112138042Y-91371028D01*
X112140008Y-91363690D01*
X112142842Y-91356641D01*
X112147481Y-91324049D01*
X112151506Y-91295762D01*
X112152481Y-91289905D01*
X112162915Y-91235208D01*
X112164400Y-91227423D01*
X112163902Y-91219513D01*
X112164295Y-91213274D01*
X112164335Y-91207109D01*
X112164579Y-91203907D01*
X112165162Y-91199807D01*
X112165307Y-91186000D01*
X112164812Y-91181906D01*
X112164811Y-91181895D01*
X112158425Y-91129121D01*
X112157761Y-91121895D01*
X112154515Y-91070295D01*
X112154515Y-91070293D01*
X112154017Y-91062384D01*
X112151568Y-91054848D01*
X112150785Y-91050741D01*
X112149208Y-91043598D01*
X112149000Y-91043649D01*
X112147188Y-91036273D01*
X112146276Y-91028733D01*
X112142599Y-91019000D01*
X112124540Y-90971210D01*
X112122573Y-90965609D01*
X112105366Y-90912652D01*
X112105365Y-90912649D01*
X112102916Y-90905113D01*
X112098668Y-90898419D01*
X112097709Y-90896381D01*
X112095805Y-90893083D01*
X112092965Y-90887650D01*
X112090280Y-90880546D01*
X112053022Y-90826335D01*
X112050505Y-90822525D01*
X112032409Y-90794012D01*
X112012798Y-90725780D01*
X112033189Y-90657774D01*
X112087110Y-90611589D01*
X112138796Y-90600500D01*
X112988392Y-90600500D01*
X113056513Y-90620502D01*
X113093155Y-90656495D01*
X113108516Y-90679483D01*
X113107251Y-90680329D01*
X113134621Y-90730452D01*
X113137500Y-90757235D01*
X113137500Y-94909482D01*
X113117498Y-94977603D01*
X113100595Y-94998577D01*
X111283207Y-96815965D01*
X111220895Y-96849991D01*
X111150080Y-96844926D01*
X111093244Y-96802379D01*
X111068433Y-96735859D01*
X111069190Y-96710424D01*
X111071581Y-96692268D01*
X111085519Y-96586394D01*
X111085659Y-96580673D01*
X111087060Y-96523364D01*
X111087060Y-96523360D01*
X111087142Y-96520000D01*
X111068892Y-96298017D01*
X111014631Y-96081995D01*
X110950613Y-95934762D01*
X110927877Y-95882473D01*
X110927875Y-95882470D01*
X110925817Y-95877736D01*
X110921222Y-95870633D01*
X110807645Y-95695070D01*
X110807640Y-95695064D01*
X110804834Y-95690726D01*
X110785012Y-95668941D01*
X110658411Y-95529808D01*
X110658409Y-95529806D01*
X110654933Y-95525986D01*
X110650882Y-95522787D01*
X110650878Y-95522783D01*
X110523866Y-95422476D01*
X110480138Y-95387942D01*
X110390373Y-95338389D01*
X110289675Y-95282800D01*
X110289672Y-95282799D01*
X110285144Y-95280299D01*
X110109600Y-95218136D01*
X110080059Y-95207675D01*
X110080056Y-95207674D01*
X110075187Y-95205950D01*
X110070098Y-95205043D01*
X110070096Y-95205043D01*
X109860996Y-95167796D01*
X109860990Y-95167795D01*
X109855907Y-95166890D01*
X109782094Y-95165988D01*
X109638361Y-95164232D01*
X109638359Y-95164232D01*
X109633191Y-95164169D01*
X109413022Y-95197859D01*
X109201311Y-95267057D01*
X109196723Y-95269445D01*
X109196719Y-95269447D01*
X109038905Y-95351600D01*
X109003745Y-95369903D01*
X108999612Y-95373006D01*
X108999609Y-95373008D01*
X108829765Y-95500531D01*
X108825630Y-95503636D01*
X108773322Y-95558373D01*
X108705178Y-95629682D01*
X108671748Y-95664664D01*
X108668833Y-95668938D01*
X108668830Y-95668941D01*
X108572262Y-95810504D01*
X108517351Y-95855507D01*
X108468174Y-95865500D01*
X108253887Y-95865500D01*
X108242146Y-95864947D01*
X108234449Y-95863226D01*
X108226523Y-95863475D01*
X108226522Y-95863475D01*
X108164059Y-95865438D01*
X108160101Y-95865500D01*
X108131188Y-95865500D01*
X108127269Y-95865995D01*
X108127267Y-95865995D01*
X108126841Y-95866049D01*
X108115027Y-95866978D01*
X108087173Y-95867854D01*
X108069166Y-95868420D01*
X108061550Y-95870633D01*
X108061548Y-95870633D01*
X108048750Y-95874351D01*
X108029391Y-95878360D01*
X108016171Y-95880030D01*
X108016169Y-95880031D01*
X108008305Y-95881024D01*
X108000933Y-95883943D01*
X108000932Y-95883943D01*
X107965646Y-95897913D01*
X107954417Y-95901758D01*
X107939845Y-95905992D01*
X107910367Y-95914556D01*
X107903542Y-95918592D01*
X107903538Y-95918594D01*
X107892069Y-95925376D01*
X107874319Y-95934072D01*
X107861925Y-95938979D01*
X107861920Y-95938982D01*
X107854552Y-95941899D01*
X107848136Y-95946560D01*
X107848133Y-95946562D01*
X107817432Y-95968867D01*
X107807511Y-95975384D01*
X107774857Y-95994695D01*
X107774854Y-95994697D01*
X107768030Y-95998733D01*
X107753001Y-96013762D01*
X107737968Y-96026602D01*
X107720769Y-96039098D01*
X107691514Y-96074462D01*
X107683535Y-96083228D01*
X104115852Y-99650911D01*
X104107148Y-99658831D01*
X104100490Y-99663057D01*
X104095065Y-99668834D01*
X104052273Y-99714403D01*
X104049518Y-99717245D01*
X104029081Y-99737682D01*
X104026402Y-99741136D01*
X104018694Y-99750161D01*
X103987290Y-99783603D01*
X103983473Y-99790546D01*
X103977051Y-99802228D01*
X103966198Y-99818750D01*
X103953167Y-99835550D01*
X103950018Y-99842828D01*
X103934948Y-99877652D01*
X103929726Y-99888312D01*
X103907625Y-99928513D01*
X103902337Y-99949108D01*
X103895940Y-99967794D01*
X103887492Y-99987315D01*
X103886252Y-99995145D01*
X103886251Y-99995148D01*
X103880315Y-100032632D01*
X103877910Y-100044245D01*
X103866500Y-100088683D01*
X103866500Y-100109940D01*
X103864949Y-100129650D01*
X103861624Y-100150644D01*
X103862569Y-100160636D01*
X103865941Y-100196314D01*
X103866500Y-100208171D01*
X103866500Y-100725501D01*
X103846498Y-100793622D01*
X103792842Y-100840115D01*
X103740500Y-100851501D01*
X103620934Y-100851501D01*
X103585182Y-100858612D01*
X103558874Y-100863844D01*
X103558872Y-100863845D01*
X103546699Y-100866266D01*
X103536379Y-100873161D01*
X103536378Y-100873162D01*
X103479866Y-100910923D01*
X103462516Y-100922516D01*
X103406266Y-101006699D01*
X103391500Y-101080933D01*
X103391501Y-102881066D01*
X103406266Y-102955301D01*
X103462516Y-103039484D01*
X103546699Y-103095734D01*
X103620933Y-103110500D01*
X104349431Y-103110500D01*
X104417552Y-103130502D01*
X104464045Y-103184158D01*
X104474149Y-103254432D01*
X104444655Y-103319012D01*
X104384929Y-103357396D01*
X104370776Y-103360678D01*
X104288395Y-103374834D01*
X104233101Y-103384335D01*
X104233098Y-103384336D01*
X104227411Y-103385313D01*
X104032654Y-103457162D01*
X103854252Y-103563300D01*
X103849909Y-103567109D01*
X103702525Y-103696362D01*
X103702522Y-103696365D01*
X103698180Y-103700173D01*
X103569663Y-103863195D01*
X103566974Y-103868306D01*
X103566972Y-103868309D01*
X103528472Y-103941486D01*
X103473007Y-104046907D01*
X103411449Y-104245158D01*
X103387050Y-104451306D01*
X103400627Y-104658450D01*
X103451725Y-104859650D01*
X103538634Y-105048169D01*
X103658442Y-105217694D01*
X103662576Y-105221721D01*
X103762998Y-105319548D01*
X103807137Y-105362547D01*
X103811933Y-105365752D01*
X103811936Y-105365754D01*
X103953787Y-105460536D01*
X103979740Y-105477877D01*
X103985043Y-105480155D01*
X103985048Y-105480158D01*
X104165167Y-105557542D01*
X104165170Y-105557543D01*
X104170470Y-105559820D01*
X104176100Y-105561094D01*
X104364998Y-105603838D01*
X104372939Y-105605635D01*
X104378708Y-105605862D01*
X104378711Y-105605862D01*
X104381337Y-105605965D01*
X104382519Y-105606363D01*
X104384440Y-105606616D01*
X104384390Y-105606993D01*
X104448619Y-105628628D01*
X104492968Y-105684069D01*
X104500304Y-105754685D01*
X104468297Y-105818058D01*
X104407109Y-105854065D01*
X104397733Y-105856046D01*
X104311793Y-105870813D01*
X104233101Y-105884335D01*
X104233098Y-105884336D01*
X104227411Y-105885313D01*
X104032654Y-105957162D01*
X103854252Y-106063300D01*
X103829517Y-106084992D01*
X103702525Y-106196362D01*
X103702522Y-106196365D01*
X103698180Y-106200173D01*
X103569663Y-106363195D01*
X103566974Y-106368306D01*
X103566972Y-106368309D01*
X103560392Y-106380816D01*
X103473007Y-106546907D01*
X103411449Y-106745158D01*
X103387050Y-106951306D01*
X103400627Y-107158450D01*
X103451725Y-107359650D01*
X103538634Y-107548169D01*
X103658442Y-107717694D01*
X103807137Y-107862547D01*
X103811933Y-107865752D01*
X103811936Y-107865754D01*
X103881368Y-107912147D01*
X103979740Y-107977877D01*
X103985043Y-107980155D01*
X103985048Y-107980158D01*
X104165167Y-108057542D01*
X104165170Y-108057543D01*
X104170470Y-108059820D01*
X104176100Y-108061094D01*
X104367234Y-108104344D01*
X104372939Y-108105635D01*
X104378708Y-108105862D01*
X104378711Y-108105862D01*
X104382841Y-108106024D01*
X104383733Y-108106059D01*
X104451016Y-108128720D01*
X104495367Y-108184159D01*
X104502705Y-108254775D01*
X104470699Y-108318149D01*
X104409513Y-108354158D01*
X104400125Y-108356142D01*
X104233231Y-108384820D01*
X104222123Y-108387797D01*
X104038290Y-108455616D01*
X104027908Y-108460568D01*
X103859508Y-108560756D01*
X103850208Y-108567512D01*
X103847545Y-108569847D01*
X103839148Y-108583085D01*
X103844982Y-108592850D01*
X104508188Y-109256056D01*
X104522132Y-109263670D01*
X104523965Y-109263539D01*
X104530580Y-109259288D01*
X105196686Y-108593182D01*
X105203446Y-108580802D01*
X105197416Y-108572747D01*
X105040634Y-108473825D01*
X105030387Y-108468604D01*
X104848396Y-108395997D01*
X104837359Y-108392728D01*
X104639518Y-108353374D01*
X104639875Y-108351581D01*
X104581926Y-108327732D01*
X104541303Y-108269506D01*
X104538607Y-108198561D01*
X104574696Y-108137420D01*
X104642684Y-108104749D01*
X104729941Y-108092097D01*
X104780091Y-108084826D01*
X104780095Y-108084825D01*
X104785806Y-108083997D01*
X104809533Y-108075943D01*
X104884091Y-108050634D01*
X104982377Y-108017270D01*
X105163497Y-107915838D01*
X105212457Y-107875119D01*
X105318661Y-107786790D01*
X105323099Y-107783099D01*
X105374146Y-107721721D01*
X105408071Y-107680931D01*
X105467008Y-107641347D01*
X105504945Y-107635500D01*
X108329479Y-107635500D01*
X108341220Y-107636053D01*
X108348917Y-107637774D01*
X108356843Y-107637525D01*
X108356844Y-107637525D01*
X108419307Y-107635562D01*
X108423265Y-107635500D01*
X108435707Y-107635500D01*
X108503828Y-107655502D01*
X108524802Y-107672405D01*
X111431634Y-110579237D01*
X111465660Y-110641549D01*
X111467754Y-110682375D01*
X111462501Y-110729206D01*
X111463743Y-110744000D01*
X111478486Y-110919554D01*
X111479806Y-110935278D01*
X111536807Y-111134066D01*
X111539625Y-111139548D01*
X111539626Y-111139552D01*
X111628514Y-111312509D01*
X111628517Y-111312513D01*
X111631334Y-111317995D01*
X111759786Y-111480061D01*
X111917271Y-111614091D01*
X112097789Y-111714980D01*
X112294466Y-111778884D01*
X112499809Y-111803370D01*
X112505944Y-111802898D01*
X112505946Y-111802898D01*
X112699856Y-111787977D01*
X112699860Y-111787976D01*
X112705998Y-111787504D01*
X112905178Y-111731892D01*
X112910682Y-111729112D01*
X112910684Y-111729111D01*
X113084262Y-111641431D01*
X113084264Y-111641430D01*
X113089763Y-111638652D01*
X113252722Y-111511334D01*
X113256748Y-111506670D01*
X113256751Y-111506667D01*
X113383819Y-111359457D01*
X113383820Y-111359455D01*
X113387848Y-111354789D01*
X113447755Y-111249334D01*
X113486950Y-111180340D01*
X113486952Y-111180336D01*
X113489995Y-111174979D01*
X113540208Y-111024031D01*
X113553325Y-110984601D01*
X113553326Y-110984598D01*
X113555270Y-110978753D01*
X113581189Y-110773586D01*
X113581602Y-110744000D01*
X113561422Y-110538189D01*
X113501651Y-110340217D01*
X113404565Y-110157625D01*
X113400674Y-110152855D01*
X113400672Y-110152851D01*
X113277758Y-110002143D01*
X113277755Y-110002140D01*
X113273863Y-109997368D01*
X113266966Y-109991662D01*
X113119271Y-109869478D01*
X113119266Y-109869475D01*
X113114522Y-109865550D01*
X113109103Y-109862620D01*
X113109100Y-109862618D01*
X112938032Y-109770122D01*
X112938027Y-109770120D01*
X112932612Y-109767192D01*
X112735063Y-109706040D01*
X112728938Y-109705396D01*
X112728937Y-109705396D01*
X112535526Y-109685068D01*
X112535524Y-109685068D01*
X112529397Y-109684424D01*
X112458598Y-109690867D01*
X112388945Y-109677121D01*
X112358084Y-109654481D01*
X109599698Y-106896095D01*
X109565672Y-106833783D01*
X109570737Y-106762968D01*
X109599698Y-106717905D01*
X109787824Y-106529779D01*
X109795089Y-106523063D01*
X109826534Y-106496207D01*
X109826540Y-106496200D01*
X109832314Y-106491269D01*
X109870691Y-106437863D01*
X109873453Y-106434165D01*
X109909973Y-106387082D01*
X109909974Y-106387080D01*
X109914833Y-106380816D01*
X109917980Y-106373542D01*
X109919031Y-106371766D01*
X109920842Y-106368070D01*
X109924755Y-106362624D01*
X109950941Y-106297484D01*
X109952208Y-106294448D01*
X109977359Y-106236329D01*
X109977360Y-106236326D01*
X109980508Y-106229051D01*
X109981749Y-106221214D01*
X109982133Y-106219891D01*
X109983842Y-106215641D01*
X109985324Y-106205225D01*
X109994422Y-106141301D01*
X109994716Y-106139344D01*
X110005136Y-106073551D01*
X110006376Y-106065722D01*
X110005898Y-106060663D01*
X110006162Y-106058807D01*
X110006307Y-106045000D01*
X109997869Y-105975267D01*
X109997517Y-105971998D01*
X109996394Y-105960115D01*
X109990814Y-105901090D01*
X109988126Y-105893626D01*
X109987826Y-105892284D01*
X109987276Y-105887733D01*
X109960729Y-105817480D01*
X109960045Y-105815625D01*
X109937484Y-105752959D01*
X109934799Y-105745501D01*
X109931941Y-105741296D01*
X109931280Y-105739546D01*
X109884158Y-105670983D01*
X109883788Y-105670441D01*
X109846307Y-105615289D01*
X109846306Y-105615288D01*
X109841850Y-105608731D01*
X109835906Y-105603491D01*
X109835901Y-105603485D01*
X109785736Y-105559259D01*
X109785242Y-105558822D01*
X109723275Y-105503611D01*
X109721620Y-105502735D01*
X109717807Y-105499373D01*
X109651356Y-105465515D01*
X109649702Y-105464656D01*
X109583274Y-105429484D01*
X109578841Y-105428370D01*
X109577526Y-105427897D01*
X109570466Y-105424300D01*
X109500970Y-105408766D01*
X109497768Y-105408006D01*
X109437005Y-105392743D01*
X109436999Y-105392742D01*
X109429633Y-105390892D01*
X109422927Y-105390857D01*
X109418875Y-105390150D01*
X109416821Y-105389956D01*
X109409083Y-105388226D01*
X109401159Y-105388475D01*
X109401158Y-105388475D01*
X109384832Y-105388988D01*
X109341593Y-105390347D01*
X109336994Y-105390407D01*
X109271221Y-105390062D01*
X109263836Y-105391835D01*
X109257748Y-105392539D01*
X109253941Y-105392819D01*
X109251718Y-105393171D01*
X109243800Y-105393420D01*
X109182688Y-105411174D01*
X109177022Y-105412677D01*
X109117184Y-105427043D01*
X109110435Y-105430527D01*
X109103311Y-105433176D01*
X109103236Y-105432975D01*
X109096476Y-105435672D01*
X109092614Y-105437343D01*
X109085001Y-105439555D01*
X109033657Y-105469920D01*
X109027325Y-105473422D01*
X108983167Y-105496214D01*
X108983164Y-105496216D01*
X108976414Y-105499700D01*
X108970689Y-105504694D01*
X108970641Y-105504736D01*
X108951956Y-105518237D01*
X108949489Y-105519696D01*
X108949486Y-105519698D01*
X108942664Y-105523733D01*
X108903331Y-105563066D01*
X108897066Y-105568920D01*
X108857039Y-105603838D01*
X108850258Y-105613487D01*
X108836265Y-105630132D01*
X108346852Y-106119545D01*
X108338148Y-106127465D01*
X108331490Y-106131691D01*
X108326065Y-106137468D01*
X108283273Y-106183037D01*
X108280518Y-106185879D01*
X108176802Y-106289595D01*
X108114490Y-106323621D01*
X108087707Y-106326500D01*
X105505192Y-106326500D01*
X105437071Y-106306498D01*
X105404234Y-106275888D01*
X105367439Y-106226613D01*
X105367435Y-106226609D01*
X105363978Y-106221979D01*
X105211542Y-106081068D01*
X105035979Y-105970297D01*
X104843170Y-105893373D01*
X104837502Y-105892246D01*
X104837500Y-105892245D01*
X104639571Y-105852875D01*
X104640039Y-105850524D01*
X104583954Y-105827448D01*
X104543325Y-105769227D01*
X104540622Y-105698281D01*
X104576705Y-105637137D01*
X104644702Y-105604456D01*
X104780092Y-105584826D01*
X104780097Y-105584825D01*
X104785806Y-105583997D01*
X104830222Y-105568920D01*
X104946817Y-105529341D01*
X104982377Y-105517270D01*
X105163497Y-105415838D01*
X105323099Y-105283099D01*
X105338419Y-105264679D01*
X105408071Y-105180931D01*
X105467008Y-105141347D01*
X105504945Y-105135500D01*
X109745707Y-105135500D01*
X109813828Y-105155502D01*
X109834802Y-105172405D01*
X115241634Y-110579237D01*
X115275660Y-110641549D01*
X115277754Y-110682375D01*
X115272501Y-110729206D01*
X115273743Y-110744000D01*
X115288486Y-110919554D01*
X115289806Y-110935278D01*
X115346807Y-111134066D01*
X115349625Y-111139548D01*
X115349626Y-111139552D01*
X115438514Y-111312509D01*
X115438517Y-111312513D01*
X115441334Y-111317995D01*
X115569786Y-111480061D01*
X115727271Y-111614091D01*
X115907789Y-111714980D01*
X116104466Y-111778884D01*
X116309809Y-111803370D01*
X116315944Y-111802898D01*
X116315946Y-111802898D01*
X116509856Y-111787977D01*
X116509860Y-111787976D01*
X116515998Y-111787504D01*
X116715178Y-111731892D01*
X116720682Y-111729112D01*
X116720684Y-111729111D01*
X116894262Y-111641431D01*
X116894264Y-111641430D01*
X116899763Y-111638652D01*
X117062722Y-111511334D01*
X117066748Y-111506670D01*
X117066751Y-111506667D01*
X117122424Y-111442169D01*
X117182077Y-111403672D01*
X117217805Y-111398500D01*
X119254231Y-111398500D01*
X119322352Y-111418502D01*
X119352976Y-111446235D01*
X119379786Y-111480061D01*
X119537271Y-111614091D01*
X119717789Y-111714980D01*
X119914466Y-111778884D01*
X120119809Y-111803370D01*
X120125944Y-111802898D01*
X120125946Y-111802898D01*
X120319856Y-111787977D01*
X120319860Y-111787976D01*
X120325998Y-111787504D01*
X120525178Y-111731892D01*
X120530682Y-111729112D01*
X120530684Y-111729111D01*
X120704262Y-111641431D01*
X120704264Y-111641430D01*
X120709763Y-111638652D01*
X120872722Y-111511334D01*
X120876748Y-111506670D01*
X120876751Y-111506667D01*
X121003819Y-111359457D01*
X121003820Y-111359455D01*
X121007848Y-111354789D01*
X121067755Y-111249334D01*
X121106950Y-111180340D01*
X121106952Y-111180336D01*
X121109995Y-111174979D01*
X121160208Y-111024031D01*
X121173325Y-110984601D01*
X121173326Y-110984598D01*
X121175270Y-110978753D01*
X121201189Y-110773586D01*
X121201602Y-110744000D01*
X121195448Y-110681241D01*
X121208707Y-110611495D01*
X121231752Y-110579851D01*
X122408198Y-109403405D01*
X122470510Y-109369379D01*
X122497293Y-109366500D01*
X138537608Y-109366500D01*
X138557318Y-109368051D01*
X138679268Y-109387366D01*
X138687160Y-109386620D01*
X138836010Y-109372550D01*
X138836012Y-109372550D01*
X138843899Y-109371804D01*
X138850515Y-109369422D01*
X138876986Y-109366500D01*
X140751145Y-109366500D01*
X140819266Y-109386502D01*
X140865759Y-109440158D01*
X140875863Y-109510432D01*
X140850095Y-109570505D01*
X140801720Y-109631869D01*
X140799031Y-109636980D01*
X140799029Y-109636983D01*
X140763035Y-109705396D01*
X140707203Y-109811515D01*
X140648409Y-110000864D01*
X140609106Y-110059989D01*
X140544076Y-110088480D01*
X140528076Y-110089500D01*
X124838833Y-110089500D01*
X124770712Y-110069498D01*
X124741190Y-110043135D01*
X124707762Y-110002148D01*
X124707757Y-110002143D01*
X124703863Y-109997368D01*
X124696966Y-109991662D01*
X124549271Y-109869478D01*
X124549266Y-109869475D01*
X124544522Y-109865550D01*
X124539103Y-109862620D01*
X124539100Y-109862618D01*
X124368032Y-109770122D01*
X124368027Y-109770120D01*
X124362612Y-109767192D01*
X124165063Y-109706040D01*
X124158938Y-109705396D01*
X124158937Y-109705396D01*
X123965526Y-109685068D01*
X123965524Y-109685068D01*
X123959397Y-109684424D01*
X123833229Y-109695906D01*
X123759591Y-109702607D01*
X123759590Y-109702607D01*
X123753450Y-109703166D01*
X123555066Y-109761554D01*
X123549601Y-109764411D01*
X123377261Y-109854508D01*
X123377257Y-109854511D01*
X123371801Y-109857363D01*
X123210635Y-109986943D01*
X123077708Y-110145360D01*
X122978082Y-110326578D01*
X122915553Y-110523696D01*
X122914867Y-110529813D01*
X122914866Y-110529817D01*
X122904530Y-110621967D01*
X122892501Y-110729206D01*
X122893743Y-110744000D01*
X122908486Y-110919554D01*
X122909806Y-110935278D01*
X122966807Y-111134066D01*
X122969625Y-111139548D01*
X122969626Y-111139552D01*
X123058514Y-111312509D01*
X123058517Y-111312513D01*
X123061334Y-111317995D01*
X123189786Y-111480061D01*
X123347271Y-111614091D01*
X123527789Y-111714980D01*
X123724466Y-111778884D01*
X123929809Y-111803370D01*
X123935944Y-111802898D01*
X123935946Y-111802898D01*
X124129856Y-111787977D01*
X124129860Y-111787976D01*
X124135998Y-111787504D01*
X124335178Y-111731892D01*
X124340682Y-111729112D01*
X124340684Y-111729111D01*
X124514262Y-111641431D01*
X124514264Y-111641430D01*
X124519763Y-111638652D01*
X124682722Y-111511334D01*
X124686748Y-111506670D01*
X124686751Y-111506667D01*
X124742424Y-111442169D01*
X124802077Y-111403672D01*
X124837805Y-111398500D01*
X141269479Y-111398500D01*
X141281220Y-111399053D01*
X141288917Y-111400774D01*
X141296843Y-111400525D01*
X141296844Y-111400525D01*
X141359307Y-111398562D01*
X141363265Y-111398500D01*
X141392178Y-111398500D01*
X141396097Y-111398005D01*
X141396099Y-111398005D01*
X141396525Y-111397951D01*
X141408339Y-111397022D01*
X141446281Y-111395829D01*
X141446282Y-111395829D01*
X141454200Y-111395580D01*
X141474615Y-111389649D01*
X141493973Y-111385640D01*
X141497667Y-111385173D01*
X141507195Y-111383970D01*
X141507197Y-111383970D01*
X141515061Y-111382976D01*
X141522434Y-111380057D01*
X141557712Y-111366090D01*
X141568941Y-111362245D01*
X141605392Y-111351655D01*
X141612999Y-111349445D01*
X141614619Y-111348487D01*
X141666251Y-111338848D01*
X141714999Y-111340763D01*
X141790053Y-111343712D01*
X141890499Y-111329148D01*
X141985231Y-111315413D01*
X141985236Y-111315412D01*
X141990945Y-111314584D01*
X141996409Y-111312729D01*
X141996414Y-111312728D01*
X142177693Y-111251192D01*
X142177698Y-111251190D01*
X142183165Y-111249334D01*
X142360276Y-111150147D01*
X142379612Y-111134066D01*
X142511913Y-111024031D01*
X142516345Y-111020345D01*
X142586553Y-110935930D01*
X142645491Y-110896346D01*
X142683427Y-110890500D01*
X148429590Y-110890500D01*
X148497711Y-110910502D01*
X148510072Y-110919554D01*
X148510894Y-110920237D01*
X148510904Y-110920244D01*
X148514874Y-110923540D01*
X148519326Y-110926142D01*
X148519331Y-110926145D01*
X148619367Y-110984601D01*
X148721377Y-111044211D01*
X148944817Y-111129534D01*
X148949883Y-111130565D01*
X148949884Y-111130565D01*
X148967092Y-111134066D01*
X149179191Y-111177218D01*
X149313499Y-111182143D01*
X149413043Y-111185794D01*
X149413048Y-111185794D01*
X149418207Y-111185983D01*
X149423327Y-111185327D01*
X149423329Y-111185327D01*
X149650316Y-111156249D01*
X149650317Y-111156249D01*
X149655444Y-111155592D01*
X149727194Y-111134066D01*
X149879577Y-111088349D01*
X149879582Y-111088347D01*
X149884532Y-111086862D01*
X150099319Y-110981639D01*
X150103524Y-110978639D01*
X150103530Y-110978636D01*
X150289832Y-110845748D01*
X150289834Y-110845746D01*
X150294036Y-110842749D01*
X150463454Y-110673921D01*
X150603023Y-110479690D01*
X150646850Y-110391014D01*
X150706701Y-110269914D01*
X150706702Y-110269912D01*
X150708995Y-110265272D01*
X150762399Y-110089500D01*
X150777022Y-110041369D01*
X150777022Y-110041368D01*
X150778524Y-110036425D01*
X150779199Y-110031299D01*
X150809306Y-109802617D01*
X150809306Y-109802613D01*
X150809743Y-109799296D01*
X150810456Y-109770122D01*
X150811403Y-109731365D01*
X150811403Y-109731361D01*
X150811485Y-109728000D01*
X150791887Y-109489628D01*
X150733620Y-109257658D01*
X150669155Y-109109398D01*
X150640309Y-109043056D01*
X150640307Y-109043053D01*
X150638249Y-109038319D01*
X150508335Y-108837502D01*
X150499430Y-108827715D01*
X150350844Y-108664422D01*
X150350842Y-108664421D01*
X150347366Y-108660600D01*
X150343315Y-108657401D01*
X150343311Y-108657397D01*
X150163725Y-108515569D01*
X150159667Y-108512364D01*
X150029138Y-108440308D01*
X149979168Y-108389876D01*
X149964396Y-108320433D01*
X149989512Y-108254028D01*
X150046543Y-108211743D01*
X150090032Y-108204000D01*
X152601810Y-108204000D01*
X152628957Y-108202545D01*
X152630628Y-108202365D01*
X152630645Y-108202364D01*
X152644599Y-108200864D01*
X152655740Y-108199666D01*
X152750325Y-108170050D01*
X152755757Y-108167084D01*
X152755759Y-108167083D01*
X152808689Y-108138180D01*
X152808691Y-108138179D01*
X152812637Y-108136024D01*
X152846610Y-108110592D01*
X152866908Y-108095397D01*
X152866912Y-108095393D01*
X152870510Y-108092700D01*
X153304700Y-107658510D01*
X153307939Y-107654905D01*
X153321723Y-107639559D01*
X153322865Y-107638288D01*
X153339768Y-107617314D01*
X153365847Y-107567461D01*
X153382840Y-107534976D01*
X153382841Y-107534974D01*
X153385709Y-107529491D01*
X153405711Y-107461370D01*
X153416000Y-107389810D01*
X153416000Y-100537885D01*
X154038800Y-100537885D01*
X154043275Y-100553124D01*
X154044665Y-100554329D01*
X154052348Y-100556000D01*
X157624685Y-100556000D01*
X157639924Y-100551525D01*
X157641129Y-100550135D01*
X157642800Y-100542452D01*
X157642800Y-99835116D01*
X157638325Y-99819877D01*
X157636935Y-99818672D01*
X157629252Y-99817001D01*
X154273972Y-99817001D01*
X154261712Y-99818209D01*
X154205869Y-99829315D01*
X154183373Y-99838633D01*
X154119992Y-99880983D01*
X154102783Y-99898192D01*
X154060432Y-99961575D01*
X154051116Y-99984066D01*
X154040007Y-100039915D01*
X154038800Y-100052170D01*
X154038800Y-100537885D01*
X153416000Y-100537885D01*
X153416000Y-98257793D01*
X153415838Y-98248728D01*
X153415517Y-98239739D01*
X153399664Y-98160039D01*
X153374853Y-98093519D01*
X153373635Y-98090973D01*
X153359202Y-98060806D01*
X153359201Y-98060805D01*
X153355312Y-98052676D01*
X153349292Y-98045974D01*
X153349288Y-98045968D01*
X153296762Y-97987492D01*
X153266121Y-97923448D01*
X153274970Y-97853005D01*
X153301404Y-97814199D01*
X153518198Y-97597405D01*
X153580510Y-97563379D01*
X153607293Y-97560500D01*
X153938442Y-97560500D01*
X154006563Y-97580502D01*
X154051982Y-97634849D01*
X154053066Y-97640301D01*
X154109316Y-97724484D01*
X154193499Y-97780734D01*
X154267733Y-97795500D01*
X154596410Y-97795500D01*
X161164000Y-97795499D01*
X161232121Y-97815501D01*
X161278614Y-97869157D01*
X161290000Y-97921499D01*
X161290000Y-99691000D01*
X161269998Y-99759121D01*
X161216342Y-99805614D01*
X161164000Y-99817000D01*
X157960915Y-99817000D01*
X157945676Y-99821475D01*
X157944471Y-99822865D01*
X157942800Y-99830548D01*
X157942800Y-100730000D01*
X157922798Y-100798121D01*
X157869142Y-100844614D01*
X157816800Y-100856000D01*
X154056916Y-100856000D01*
X154041677Y-100860475D01*
X154040472Y-100861865D01*
X154038801Y-100869548D01*
X154038801Y-101359828D01*
X154040009Y-101372088D01*
X154051115Y-101427931D01*
X154060433Y-101450427D01*
X154102783Y-101513808D01*
X154119992Y-101531017D01*
X154170140Y-101564525D01*
X154215668Y-101619002D01*
X154224516Y-101689445D01*
X154193874Y-101753489D01*
X154170140Y-101774055D01*
X154135126Y-101797451D01*
X154096476Y-101823276D01*
X154040337Y-101907294D01*
X154020624Y-102006400D01*
X154023045Y-102018570D01*
X154023179Y-102019244D01*
X154025600Y-102043825D01*
X154025600Y-104915375D01*
X154023179Y-104939953D01*
X154020624Y-104952800D01*
X154025600Y-104977817D01*
X154040337Y-105051906D01*
X154096476Y-105135924D01*
X154180494Y-105192063D01*
X154279600Y-105211776D01*
X154292447Y-105209221D01*
X154317025Y-105206800D01*
X156592000Y-105206800D01*
X156660121Y-105226802D01*
X156706614Y-105280458D01*
X156718000Y-105332800D01*
X156718000Y-106058375D01*
X156715579Y-106082953D01*
X156713024Y-106095800D01*
X156718000Y-106120817D01*
X156732737Y-106194906D01*
X156739631Y-106205223D01*
X156739631Y-106205224D01*
X156773241Y-106255525D01*
X156788876Y-106278924D01*
X156872894Y-106335063D01*
X156972000Y-106354776D01*
X156984847Y-106352221D01*
X157009425Y-106349800D01*
X158839575Y-106349800D01*
X158864153Y-106352221D01*
X158877000Y-106354776D01*
X158976106Y-106335063D01*
X159060124Y-106278924D01*
X159076688Y-106254135D01*
X159109368Y-106205225D01*
X159116263Y-106194906D01*
X159131000Y-106120817D01*
X159135976Y-106095800D01*
X159133421Y-106082953D01*
X159131000Y-106058375D01*
X159131000Y-105332800D01*
X159151002Y-105264679D01*
X159204658Y-105218186D01*
X159257000Y-105206800D01*
X161926000Y-105206800D01*
X161994121Y-105226802D01*
X162040614Y-105280458D01*
X162052000Y-105332800D01*
X162052000Y-106014599D01*
X162031998Y-106082720D01*
X162015095Y-106103694D01*
X155887695Y-112231095D01*
X155825383Y-112265121D01*
X155798600Y-112268000D01*
X100964000Y-112268000D01*
X100895879Y-112247998D01*
X100849386Y-112194342D01*
X100838000Y-112142000D01*
X100838000Y-110378524D01*
X103840758Y-110378524D01*
X103850641Y-110391014D01*
X103975176Y-110474225D01*
X103985284Y-110479714D01*
X104165318Y-110557063D01*
X104176261Y-110560618D01*
X104367368Y-110603862D01*
X104378778Y-110605364D01*
X104574572Y-110613056D01*
X104586054Y-110612454D01*
X104779975Y-110584338D01*
X104791158Y-110581653D01*
X104976701Y-110518670D01*
X104987216Y-110513988D01*
X105158173Y-110418247D01*
X105167648Y-110411736D01*
X105193003Y-110390649D01*
X105201456Y-110378063D01*
X105195282Y-110367414D01*
X104533812Y-109705944D01*
X104519868Y-109698330D01*
X104518035Y-109698461D01*
X104511420Y-109702712D01*
X103846954Y-110367178D01*
X103840758Y-110378524D01*
X100838000Y-110378524D01*
X100838000Y-109457086D01*
X103387930Y-109457086D01*
X103400744Y-109652602D01*
X103402545Y-109663974D01*
X103450776Y-109853883D01*
X103454617Y-109864730D01*
X103536650Y-110042673D01*
X103542401Y-110052634D01*
X103612622Y-110151996D01*
X103623212Y-110160384D01*
X103636512Y-110153356D01*
X104296056Y-109493812D01*
X104302434Y-109482132D01*
X104738330Y-109482132D01*
X104738461Y-109483965D01*
X104742712Y-109490580D01*
X105406252Y-110154120D01*
X105419561Y-110161387D01*
X105429596Y-110154268D01*
X105451736Y-110127648D01*
X105458247Y-110118173D01*
X105553988Y-109947216D01*
X105558670Y-109936701D01*
X105621653Y-109751158D01*
X105624338Y-109739975D01*
X105652750Y-109544014D01*
X105653380Y-109536632D01*
X105654740Y-109484704D01*
X105654497Y-109477305D01*
X105636380Y-109280129D01*
X105634283Y-109268814D01*
X105581096Y-109080228D01*
X105576974Y-109069489D01*
X105490310Y-108893753D01*
X105484300Y-108883945D01*
X105429255Y-108810231D01*
X105417997Y-108801782D01*
X105405578Y-108808554D01*
X104745944Y-109468188D01*
X104738330Y-109482132D01*
X104302434Y-109482132D01*
X104303670Y-109479868D01*
X104303539Y-109478035D01*
X104299288Y-109471420D01*
X103636347Y-108808479D01*
X103623506Y-108801467D01*
X103612817Y-108809262D01*
X103573661Y-108858931D01*
X103567392Y-108868584D01*
X103476163Y-109041982D01*
X103471758Y-109052616D01*
X103413653Y-109239747D01*
X103411261Y-109250998D01*
X103388231Y-109445585D01*
X103387930Y-109457086D01*
X100838000Y-109457086D01*
X100838000Y-96916524D01*
X103840758Y-96916524D01*
X103850641Y-96929014D01*
X103975176Y-97012225D01*
X103985284Y-97017714D01*
X104165318Y-97095063D01*
X104176261Y-97098618D01*
X104367368Y-97141862D01*
X104378778Y-97143364D01*
X104574572Y-97151056D01*
X104586054Y-97150454D01*
X104779975Y-97122338D01*
X104791158Y-97119653D01*
X104976701Y-97056670D01*
X104987216Y-97051988D01*
X105158173Y-96956247D01*
X105167648Y-96949736D01*
X105193003Y-96928649D01*
X105201456Y-96916063D01*
X105195282Y-96905414D01*
X104533812Y-96243944D01*
X104519868Y-96236330D01*
X104518035Y-96236461D01*
X104511420Y-96240712D01*
X103846954Y-96905178D01*
X103840758Y-96916524D01*
X100838000Y-96916524D01*
X100838000Y-95995086D01*
X103387930Y-95995086D01*
X103400744Y-96190602D01*
X103402545Y-96201974D01*
X103450776Y-96391883D01*
X103454617Y-96402730D01*
X103536650Y-96580673D01*
X103542401Y-96590634D01*
X103612622Y-96689996D01*
X103623212Y-96698384D01*
X103636512Y-96691356D01*
X104296056Y-96031812D01*
X104302434Y-96020132D01*
X104738330Y-96020132D01*
X104738461Y-96021965D01*
X104742712Y-96028580D01*
X105406252Y-96692120D01*
X105419561Y-96699387D01*
X105429596Y-96692268D01*
X105451736Y-96665648D01*
X105458247Y-96656173D01*
X105553988Y-96485216D01*
X105558670Y-96474701D01*
X105621653Y-96289158D01*
X105624338Y-96277975D01*
X105652750Y-96082014D01*
X105653380Y-96074632D01*
X105654740Y-96022704D01*
X105654497Y-96015305D01*
X105636380Y-95818129D01*
X105634283Y-95806814D01*
X105581096Y-95618228D01*
X105576974Y-95607489D01*
X105490310Y-95431753D01*
X105484300Y-95421945D01*
X105429255Y-95348231D01*
X105417997Y-95339782D01*
X105405578Y-95346554D01*
X104745944Y-96006188D01*
X104738330Y-96020132D01*
X104302434Y-96020132D01*
X104303670Y-96017868D01*
X104303539Y-96016035D01*
X104299288Y-96009420D01*
X103636347Y-95346479D01*
X103623506Y-95339467D01*
X103612817Y-95347262D01*
X103573661Y-95396931D01*
X103567392Y-95406584D01*
X103476163Y-95579982D01*
X103471758Y-95590616D01*
X103413653Y-95777747D01*
X103411261Y-95788998D01*
X103388231Y-95983585D01*
X103387930Y-95995086D01*
X100838000Y-95995086D01*
X100838000Y-85978000D01*
X100858002Y-85909879D01*
X100911658Y-85863386D01*
X100964000Y-85852000D01*
X126149418Y-85852000D01*
X126217539Y-85872002D01*
G37*
G04 #@! TD.AperFunction*
G04 #@! TA.AperFunction,Conductor*
G36*
X138019334Y-100350002D02*
G01*
X138065827Y-100403658D01*
X138075931Y-100473932D01*
X138061627Y-100516702D01*
X138047511Y-100542378D01*
X138042682Y-100553645D01*
X137983906Y-100738931D01*
X137981358Y-100750920D01*
X137959690Y-100944088D01*
X137959519Y-100956357D01*
X137975783Y-101150049D01*
X137977997Y-101162108D01*
X138031576Y-101348959D01*
X138036092Y-101360364D01*
X138124935Y-101533235D01*
X138131587Y-101543556D01*
X138162659Y-101582761D01*
X138174649Y-101591230D01*
X138186094Y-101584774D01*
X138928905Y-100841963D01*
X138991217Y-100807937D01*
X139062032Y-100813002D01*
X139107095Y-100841963D01*
X139850794Y-101585662D01*
X139864420Y-101593103D01*
X139873988Y-101586446D01*
X139879410Y-101580166D01*
X139886482Y-101570140D01*
X139982489Y-101401138D01*
X139987483Y-101389922D01*
X140048834Y-101205494D01*
X140051554Y-101193523D01*
X140076244Y-100998075D01*
X140076736Y-100991048D01*
X140077051Y-100968523D01*
X140076756Y-100961494D01*
X140057531Y-100765419D01*
X140055148Y-100753384D01*
X139998968Y-100567308D01*
X139994294Y-100555967D01*
X139972593Y-100515154D01*
X139958273Y-100445617D01*
X139983820Y-100379376D01*
X140041125Y-100337463D01*
X140083844Y-100330000D01*
X142950643Y-100330000D01*
X143018764Y-100350002D01*
X143065257Y-100403658D01*
X143075361Y-100473932D01*
X143061058Y-100516699D01*
X143044082Y-100547578D01*
X142981553Y-100744696D01*
X142980867Y-100750813D01*
X142980866Y-100750817D01*
X142964289Y-100898607D01*
X142958501Y-100950206D01*
X142964268Y-101018874D01*
X142965126Y-101029095D01*
X142950895Y-101098650D01*
X142928663Y-101128734D01*
X142903853Y-101153544D01*
X142895149Y-101161464D01*
X142888491Y-101165690D01*
X142883066Y-101171467D01*
X142840274Y-101217036D01*
X142837519Y-101219878D01*
X142817082Y-101240315D01*
X142814478Y-101243672D01*
X142814403Y-101243769D01*
X142806695Y-101252794D01*
X142775291Y-101286236D01*
X142771474Y-101293179D01*
X142765052Y-101304861D01*
X142754199Y-101321383D01*
X142741168Y-101338183D01*
X142731570Y-101360364D01*
X142722949Y-101380285D01*
X142717727Y-101390945D01*
X142695626Y-101431146D01*
X142690338Y-101451741D01*
X142683941Y-101470427D01*
X142675493Y-101489948D01*
X142674253Y-101497778D01*
X142674252Y-101497781D01*
X142668316Y-101535265D01*
X142665911Y-101546878D01*
X142659938Y-101570140D01*
X142656698Y-101582761D01*
X142654501Y-101591316D01*
X142654501Y-101612573D01*
X142652950Y-101632283D01*
X142651310Y-101642641D01*
X142649625Y-101653277D01*
X142650371Y-101661169D01*
X142653942Y-101698947D01*
X142654501Y-101710804D01*
X142654501Y-103926000D01*
X142634499Y-103994121D01*
X142580843Y-104040614D01*
X142528501Y-104052000D01*
X141900115Y-104052000D01*
X141884876Y-104056475D01*
X141883671Y-104057865D01*
X141882000Y-104065548D01*
X141882000Y-106241884D01*
X141886475Y-106257123D01*
X141887865Y-106258328D01*
X141895548Y-106259999D01*
X142528501Y-106259999D01*
X142596622Y-106280001D01*
X142643115Y-106333657D01*
X142654501Y-106385999D01*
X142654501Y-106756477D01*
X142634499Y-106824598D01*
X142580843Y-106871091D01*
X142510569Y-106881195D01*
X142442972Y-106849001D01*
X142426510Y-106833783D01*
X142407258Y-106815987D01*
X142402375Y-106812906D01*
X142402371Y-106812903D01*
X142240464Y-106710748D01*
X142235581Y-106707667D01*
X142047039Y-106632446D01*
X142041379Y-106631320D01*
X142041375Y-106631319D01*
X141853613Y-106593971D01*
X141853610Y-106593971D01*
X141847946Y-106592844D01*
X141842171Y-106592768D01*
X141842167Y-106592768D01*
X141740793Y-106591441D01*
X141644971Y-106590187D01*
X141639274Y-106591166D01*
X141639273Y-106591166D01*
X141450607Y-106623585D01*
X141444910Y-106624564D01*
X141254463Y-106694824D01*
X141080010Y-106798612D01*
X141075670Y-106802418D01*
X141075666Y-106802421D01*
X140968852Y-106896095D01*
X140927392Y-106932455D01*
X140923817Y-106936990D01*
X140923816Y-106936991D01*
X140894722Y-106973897D01*
X140801720Y-107091869D01*
X140799031Y-107096980D01*
X140799029Y-107096983D01*
X140766690Y-107158450D01*
X140707203Y-107271515D01*
X140647007Y-107465378D01*
X140623148Y-107666964D01*
X140636424Y-107869522D01*
X140643790Y-107898525D01*
X140641172Y-107969471D01*
X140610762Y-108018635D01*
X140608802Y-108020595D01*
X140546490Y-108054621D01*
X140519707Y-108057500D01*
X138745426Y-108057500D01*
X138725716Y-108055949D01*
X138712552Y-108053864D01*
X138712551Y-108053864D01*
X138704722Y-108052624D01*
X138683596Y-108054621D01*
X138659052Y-108056941D01*
X138647195Y-108057500D01*
X122255521Y-108057500D01*
X122243780Y-108056947D01*
X122236083Y-108055226D01*
X122228157Y-108055475D01*
X122228156Y-108055475D01*
X122165693Y-108057438D01*
X122161735Y-108057500D01*
X122132822Y-108057500D01*
X122128903Y-108057995D01*
X122128901Y-108057995D01*
X122128475Y-108058049D01*
X122116661Y-108058978D01*
X122078719Y-108060171D01*
X122078718Y-108060171D01*
X122070800Y-108060420D01*
X122063189Y-108062631D01*
X122063190Y-108062631D01*
X122050385Y-108066351D01*
X122031027Y-108070360D01*
X122027333Y-108070827D01*
X122017805Y-108072030D01*
X122017803Y-108072030D01*
X122009939Y-108073024D01*
X122002567Y-108075943D01*
X122002566Y-108075943D01*
X121967288Y-108089910D01*
X121956058Y-108093755D01*
X121912001Y-108106555D01*
X121905175Y-108110592D01*
X121893702Y-108117377D01*
X121875955Y-108126072D01*
X121856186Y-108133899D01*
X121819076Y-108160861D01*
X121809154Y-108167378D01*
X121776494Y-108186693D01*
X121776490Y-108186696D01*
X121769664Y-108190733D01*
X121754635Y-108205762D01*
X121739602Y-108218602D01*
X121722403Y-108231098D01*
X121693148Y-108266462D01*
X121685169Y-108275228D01*
X120306432Y-109653965D01*
X120244120Y-109687991D01*
X120204168Y-109690180D01*
X120155527Y-109685068D01*
X120155524Y-109685068D01*
X120149397Y-109684424D01*
X120023229Y-109695906D01*
X119949591Y-109702607D01*
X119949590Y-109702607D01*
X119943450Y-109703166D01*
X119745066Y-109761554D01*
X119739601Y-109764411D01*
X119567261Y-109854508D01*
X119567257Y-109854511D01*
X119561801Y-109857363D01*
X119400635Y-109986943D01*
X119353872Y-110042673D01*
X119352347Y-110044491D01*
X119293238Y-110083817D01*
X119255825Y-110089500D01*
X117218833Y-110089500D01*
X117150712Y-110069498D01*
X117121190Y-110043135D01*
X117087762Y-110002148D01*
X117087757Y-110002143D01*
X117083863Y-109997368D01*
X117076966Y-109991662D01*
X116929271Y-109869478D01*
X116929266Y-109869475D01*
X116924522Y-109865550D01*
X116919103Y-109862620D01*
X116919100Y-109862618D01*
X116748032Y-109770122D01*
X116748027Y-109770120D01*
X116742612Y-109767192D01*
X116545063Y-109706040D01*
X116538938Y-109705396D01*
X116538937Y-109705396D01*
X116345526Y-109685068D01*
X116345524Y-109685068D01*
X116339397Y-109684424D01*
X116268598Y-109690867D01*
X116198945Y-109677121D01*
X116168084Y-109654481D01*
X112538431Y-106024828D01*
X140628001Y-106024828D01*
X140629209Y-106037088D01*
X140640315Y-106092931D01*
X140649633Y-106115427D01*
X140691983Y-106178808D01*
X140709192Y-106196017D01*
X140772575Y-106238368D01*
X140795066Y-106247684D01*
X140850915Y-106258793D01*
X140863170Y-106260000D01*
X141563885Y-106260000D01*
X141579124Y-106255525D01*
X141580329Y-106254135D01*
X141582000Y-106246452D01*
X141582000Y-105324115D01*
X141577525Y-105308876D01*
X141576135Y-105307671D01*
X141568452Y-105306000D01*
X140646116Y-105306000D01*
X140630877Y-105310475D01*
X140629672Y-105311865D01*
X140628001Y-105319548D01*
X140628001Y-106024828D01*
X112538431Y-106024828D01*
X111501488Y-104987885D01*
X140628000Y-104987885D01*
X140632475Y-105003124D01*
X140633865Y-105004329D01*
X140641548Y-105006000D01*
X141563885Y-105006000D01*
X141579124Y-105001525D01*
X141580329Y-105000135D01*
X141582000Y-104992452D01*
X141582000Y-104070116D01*
X141577525Y-104054877D01*
X141576135Y-104053672D01*
X141568452Y-104052001D01*
X140863172Y-104052001D01*
X140850912Y-104053209D01*
X140795069Y-104064315D01*
X140772573Y-104073633D01*
X140709192Y-104115983D01*
X140691983Y-104133192D01*
X140649632Y-104196575D01*
X140640316Y-104219066D01*
X140629207Y-104274915D01*
X140628000Y-104287170D01*
X140628000Y-104987885D01*
X111501488Y-104987885D01*
X111211157Y-104697554D01*
X111177131Y-104635242D01*
X111182196Y-104564427D01*
X111224743Y-104507591D01*
X111261315Y-104488626D01*
X111271345Y-104485367D01*
X111271349Y-104485365D01*
X111278887Y-104482916D01*
X111315615Y-104459608D01*
X111326513Y-104453430D01*
X111356066Y-104438566D01*
X111356069Y-104438564D01*
X111362855Y-104435151D01*
X111368630Y-104430218D01*
X111368634Y-104430216D01*
X111381238Y-104419452D01*
X111395549Y-104408881D01*
X111411819Y-104398555D01*
X111418510Y-104394309D01*
X111445507Y-104365560D01*
X111455526Y-104356003D01*
X111477537Y-104337204D01*
X111477541Y-104337200D01*
X111483314Y-104332269D01*
X111499830Y-104309284D01*
X111510296Y-104296566D01*
X111526282Y-104279543D01*
X111531710Y-104273763D01*
X111547436Y-104245158D01*
X111548747Y-104242774D01*
X111556838Y-104229950D01*
X111571324Y-104209790D01*
X111575755Y-104203624D01*
X111587849Y-104173540D01*
X111594338Y-104159843D01*
X111607558Y-104135797D01*
X111607559Y-104135794D01*
X111611375Y-104128853D01*
X111619153Y-104098561D01*
X111624287Y-104082900D01*
X111632008Y-104063694D01*
X111632011Y-104063685D01*
X111634842Y-104056641D01*
X111639991Y-104020464D01*
X111642692Y-104006884D01*
X111650529Y-103976362D01*
X111650530Y-103976357D01*
X111652500Y-103968683D01*
X111652500Y-103941486D01*
X111653757Y-103923733D01*
X111656581Y-103903891D01*
X111656581Y-103903888D01*
X111657162Y-103899807D01*
X111657307Y-103886000D01*
X111653413Y-103853821D01*
X111652500Y-103838684D01*
X111652500Y-101501442D01*
X111672502Y-101433321D01*
X111726158Y-101386828D01*
X111796432Y-101376724D01*
X111860162Y-101405488D01*
X111917271Y-101454091D01*
X112097789Y-101554980D01*
X112294466Y-101618884D01*
X112499809Y-101643370D01*
X112505944Y-101642898D01*
X112505946Y-101642898D01*
X112699856Y-101627977D01*
X112699860Y-101627976D01*
X112705998Y-101627504D01*
X112905178Y-101571892D01*
X112910682Y-101569112D01*
X112910684Y-101569111D01*
X113084262Y-101481431D01*
X113084264Y-101481430D01*
X113089763Y-101478652D01*
X113252722Y-101351334D01*
X113256748Y-101346670D01*
X113256751Y-101346667D01*
X113312424Y-101282169D01*
X113372077Y-101243672D01*
X113407805Y-101238500D01*
X115444231Y-101238500D01*
X115512352Y-101258502D01*
X115542976Y-101286235D01*
X115569786Y-101320061D01*
X115574479Y-101324055D01*
X115574480Y-101324056D01*
X115700311Y-101431146D01*
X115727271Y-101454091D01*
X115907789Y-101554980D01*
X116104466Y-101618884D01*
X116309809Y-101643370D01*
X116315944Y-101642898D01*
X116315946Y-101642898D01*
X116358692Y-101639609D01*
X116396842Y-101636673D01*
X116466296Y-101651390D01*
X116495603Y-101673206D01*
X117211549Y-102389151D01*
X117219466Y-102397852D01*
X117223692Y-102404511D01*
X117229470Y-102409937D01*
X117229471Y-102409938D01*
X117275054Y-102452743D01*
X117277896Y-102455498D01*
X117298317Y-102475919D01*
X117301772Y-102478599D01*
X117310792Y-102486303D01*
X117344238Y-102517711D01*
X117351182Y-102521528D01*
X117351184Y-102521530D01*
X117362867Y-102527953D01*
X117379391Y-102538808D01*
X117389917Y-102546973D01*
X117389923Y-102546976D01*
X117396185Y-102551834D01*
X117437986Y-102569923D01*
X117438289Y-102570054D01*
X117448938Y-102575271D01*
X117489148Y-102597376D01*
X117509743Y-102602664D01*
X117528438Y-102609065D01*
X117538424Y-102613386D01*
X117547950Y-102617508D01*
X117593261Y-102624684D01*
X117604884Y-102627092D01*
X117641641Y-102636530D01*
X117641642Y-102636530D01*
X117649318Y-102638501D01*
X117670575Y-102638501D01*
X117690285Y-102640052D01*
X117711279Y-102643377D01*
X117719171Y-102642631D01*
X117738805Y-102640775D01*
X117756949Y-102639060D01*
X117768806Y-102638501D01*
X133404978Y-102638501D01*
X133416719Y-102639054D01*
X133424416Y-102640775D01*
X133432342Y-102640526D01*
X133432343Y-102640526D01*
X133494806Y-102638563D01*
X133498764Y-102638501D01*
X133527677Y-102638501D01*
X133531596Y-102638006D01*
X133531598Y-102638006D01*
X133532024Y-102637952D01*
X133543838Y-102637023D01*
X133581780Y-102635830D01*
X133581781Y-102635830D01*
X133589699Y-102635581D01*
X133610114Y-102629650D01*
X133629472Y-102625641D01*
X133637049Y-102624684D01*
X133642694Y-102623971D01*
X133642696Y-102623971D01*
X133650560Y-102622977D01*
X133661244Y-102618747D01*
X133693211Y-102606091D01*
X133704440Y-102602246D01*
X133714418Y-102599347D01*
X133748498Y-102589446D01*
X133766797Y-102578624D01*
X133784544Y-102569929D01*
X133804313Y-102562102D01*
X133841426Y-102535138D01*
X133851345Y-102528623D01*
X133884005Y-102509308D01*
X133884009Y-102509305D01*
X133890835Y-102505268D01*
X133905864Y-102490239D01*
X133920898Y-102477398D01*
X133931682Y-102469563D01*
X133938096Y-102464903D01*
X133967351Y-102429539D01*
X133975330Y-102420773D01*
X134585145Y-101810958D01*
X138390305Y-101810958D01*
X138397137Y-101820704D01*
X138408860Y-101830681D01*
X138418940Y-101837687D01*
X138588612Y-101932514D01*
X138599851Y-101937424D01*
X138784715Y-101997490D01*
X138796689Y-102000123D01*
X138989708Y-102023139D01*
X139001957Y-102023396D01*
X139195769Y-102008483D01*
X139207849Y-102006352D01*
X139395061Y-101954081D01*
X139406494Y-101949647D01*
X139580000Y-101862003D01*
X139590344Y-101855438D01*
X139635557Y-101820115D01*
X139644025Y-101808303D01*
X139637488Y-101796620D01*
X139030812Y-101189944D01*
X139016868Y-101182330D01*
X139015035Y-101182461D01*
X139008420Y-101186712D01*
X138397681Y-101797451D01*
X138390305Y-101810958D01*
X134585145Y-101810958D01*
X135723648Y-100672455D01*
X135732352Y-100664535D01*
X135739010Y-100660309D01*
X135787228Y-100608962D01*
X135789982Y-100606121D01*
X135810419Y-100585684D01*
X135813101Y-100582226D01*
X135820807Y-100573204D01*
X135826344Y-100567308D01*
X135852210Y-100539763D01*
X135862451Y-100521134D01*
X135873300Y-100504616D01*
X135886333Y-100487815D01*
X135904554Y-100445709D01*
X135909777Y-100435048D01*
X135913785Y-100427759D01*
X135931631Y-100395297D01*
X135981975Y-100345240D01*
X136042044Y-100330000D01*
X137951213Y-100330000D01*
X138019334Y-100350002D01*
G37*
G04 #@! TD.AperFunction*
G04 #@! TA.AperFunction,Conductor*
G36*
X144437106Y-101963627D02*
G01*
X144496315Y-102002803D01*
X144524945Y-102067771D01*
X144526000Y-102084039D01*
X144526000Y-107389810D01*
X144527455Y-107416957D01*
X144530334Y-107443740D01*
X144559950Y-107538325D01*
X144562913Y-107543751D01*
X144562915Y-107543756D01*
X144565325Y-107548169D01*
X144576459Y-107568559D01*
X144576460Y-107568561D01*
X144593976Y-107600638D01*
X144596669Y-107604236D01*
X144596674Y-107604243D01*
X144622161Y-107638288D01*
X144637300Y-107658510D01*
X145071490Y-108092700D01*
X145072743Y-108093826D01*
X145072753Y-108093835D01*
X145074492Y-108095397D01*
X145091712Y-108110865D01*
X145112686Y-108127768D01*
X145162539Y-108153847D01*
X145182626Y-108164354D01*
X145200509Y-108173709D01*
X145206447Y-108175452D01*
X145206448Y-108175453D01*
X145224278Y-108180688D01*
X145268630Y-108193711D01*
X145273089Y-108194352D01*
X145273093Y-108194353D01*
X145297166Y-108197814D01*
X145340190Y-108204000D01*
X148614509Y-108204000D01*
X148682630Y-108224002D01*
X148729123Y-108277658D01*
X148739227Y-108347932D01*
X148709733Y-108412512D01*
X148672689Y-108441763D01*
X148598574Y-108480345D01*
X148574275Y-108492994D01*
X148570142Y-108496097D01*
X148570139Y-108496099D01*
X148454285Y-108583085D01*
X148383010Y-108636600D01*
X148379438Y-108640338D01*
X148224106Y-108802883D01*
X148217767Y-108809516D01*
X148214853Y-108813788D01*
X148214852Y-108813789D01*
X148177407Y-108868682D01*
X148082985Y-109007099D01*
X148049279Y-109079713D01*
X147985911Y-109216229D01*
X147982284Y-109224042D01*
X147918366Y-109454520D01*
X147917818Y-109459651D01*
X147917815Y-109459665D01*
X147916829Y-109468893D01*
X147889700Y-109534501D01*
X147831406Y-109575028D01*
X147791543Y-109581500D01*
X143743293Y-109581500D01*
X143675172Y-109561498D01*
X143628679Y-109507842D01*
X143618575Y-109437568D01*
X143648069Y-109372988D01*
X143654198Y-109366405D01*
X143714149Y-109306454D01*
X143722853Y-109298534D01*
X143729511Y-109294308D01*
X143777729Y-109242961D01*
X143780483Y-109240120D01*
X143800920Y-109219683D01*
X143803602Y-109216225D01*
X143811308Y-109207203D01*
X143842711Y-109173762D01*
X143852953Y-109155132D01*
X143863803Y-109138615D01*
X143871974Y-109128081D01*
X143871975Y-109128080D01*
X143876834Y-109121815D01*
X143895053Y-109079713D01*
X143900275Y-109069053D01*
X143914567Y-109043056D01*
X143922376Y-109028852D01*
X143927664Y-109008257D01*
X143934061Y-108989571D01*
X143942509Y-108970050D01*
X143949687Y-108924728D01*
X143952091Y-108913120D01*
X143963501Y-108868682D01*
X143963501Y-108847425D01*
X143965052Y-108827715D01*
X143967137Y-108814551D01*
X143967137Y-108814550D01*
X143968377Y-108806721D01*
X143964060Y-108761051D01*
X143963501Y-108749194D01*
X143963501Y-102143533D01*
X143983503Y-102075412D01*
X144037159Y-102028919D01*
X144079832Y-102017905D01*
X144137472Y-102013469D01*
X144195856Y-102008977D01*
X144195860Y-102008976D01*
X144201998Y-102008504D01*
X144366118Y-101962681D01*
X144437106Y-101963627D01*
G37*
G04 #@! TD.AperFunction*
G04 #@! TA.AperFunction,Conductor*
G36*
X108523679Y-97198455D02*
G01*
X108580515Y-97241002D01*
X108587080Y-97250677D01*
X108628525Y-97318311D01*
X108628531Y-97318320D01*
X108631226Y-97322717D01*
X108777058Y-97491070D01*
X108948428Y-97633344D01*
X109140734Y-97745718D01*
X109145559Y-97747560D01*
X109145560Y-97747561D01*
X109218671Y-97775479D01*
X109348811Y-97825175D01*
X109353879Y-97826206D01*
X109353882Y-97826207D01*
X109461173Y-97848035D01*
X109567072Y-97869581D01*
X109572247Y-97869771D01*
X109572249Y-97869771D01*
X109784491Y-97877554D01*
X109784495Y-97877554D01*
X109789655Y-97877743D01*
X109794775Y-97877087D01*
X109794777Y-97877087D01*
X109918792Y-97861200D01*
X109988902Y-97872384D01*
X110041836Y-97919697D01*
X110060787Y-97988118D01*
X110039739Y-98055923D01*
X110023897Y-98075274D01*
X109592844Y-98506327D01*
X109584140Y-98514247D01*
X109577482Y-98518473D01*
X109572057Y-98524250D01*
X109529265Y-98569819D01*
X109526510Y-98572661D01*
X109506073Y-98593098D01*
X109503394Y-98596552D01*
X109495686Y-98605577D01*
X109464282Y-98639019D01*
X109460465Y-98645962D01*
X109454043Y-98657644D01*
X109443190Y-98674166D01*
X109430159Y-98690966D01*
X109427010Y-98698244D01*
X109411940Y-98733068D01*
X109406718Y-98743728D01*
X109384617Y-98783929D01*
X109379329Y-98804524D01*
X109372932Y-98823210D01*
X109364484Y-98842731D01*
X109363244Y-98850561D01*
X109363243Y-98850564D01*
X109357307Y-98888048D01*
X109354902Y-98899661D01*
X109343492Y-98944099D01*
X109343492Y-98965356D01*
X109341941Y-98985066D01*
X109339886Y-98998044D01*
X109338616Y-99006060D01*
X109339362Y-99013952D01*
X109342933Y-99051730D01*
X109343492Y-99063587D01*
X109343492Y-103700500D01*
X109323490Y-103768621D01*
X109269834Y-103815114D01*
X109217492Y-103826500D01*
X105505192Y-103826500D01*
X105437071Y-103806498D01*
X105404234Y-103775888D01*
X105367439Y-103726613D01*
X105367435Y-103726609D01*
X105363978Y-103721979D01*
X105211542Y-103581068D01*
X105035979Y-103470297D01*
X104843170Y-103393373D01*
X104837502Y-103392246D01*
X104837500Y-103392245D01*
X104675785Y-103360078D01*
X104612875Y-103327170D01*
X104577743Y-103265476D01*
X104581543Y-103194581D01*
X104623069Y-103136995D01*
X104689135Y-103111000D01*
X104700357Y-103110499D01*
X105421066Y-103110499D01*
X105456818Y-103103388D01*
X105483126Y-103098156D01*
X105483128Y-103098155D01*
X105495301Y-103095734D01*
X105505621Y-103088839D01*
X105505622Y-103088838D01*
X105569168Y-103046377D01*
X105579484Y-103039484D01*
X105635734Y-102955301D01*
X105650500Y-102881067D01*
X105650499Y-101080934D01*
X105643388Y-101045182D01*
X105638156Y-101018874D01*
X105638155Y-101018872D01*
X105635734Y-101006699D01*
X105625277Y-100991048D01*
X105587223Y-100934098D01*
X105579484Y-100922516D01*
X105495301Y-100866266D01*
X105421067Y-100851500D01*
X105301500Y-100851500D01*
X105233379Y-100831498D01*
X105186886Y-100777842D01*
X105175500Y-100725500D01*
X105175500Y-100494659D01*
X105195502Y-100426538D01*
X105212405Y-100405564D01*
X106795780Y-98822189D01*
X108390552Y-97227416D01*
X108452864Y-97193390D01*
X108523679Y-97198455D01*
G37*
G04 #@! TD.AperFunction*
G04 #@! TA.AperFunction,Conductor*
G36*
X156374721Y-85872002D02*
G01*
X156395695Y-85888905D01*
X162015095Y-91508305D01*
X162049121Y-91570617D01*
X162052000Y-91597400D01*
X162052000Y-92279200D01*
X162031998Y-92347321D01*
X161978342Y-92393814D01*
X161926000Y-92405200D01*
X159257000Y-92405200D01*
X159188879Y-92385198D01*
X159142386Y-92331542D01*
X159131000Y-92279200D01*
X159131000Y-91553625D01*
X159133421Y-91529044D01*
X159133555Y-91528370D01*
X159135976Y-91516200D01*
X159116263Y-91417094D01*
X159060124Y-91333076D01*
X158976106Y-91276937D01*
X158902017Y-91262200D01*
X158889172Y-91259645D01*
X158877000Y-91257224D01*
X158864153Y-91259779D01*
X158839575Y-91262200D01*
X157009425Y-91262200D01*
X156984847Y-91259779D01*
X156972000Y-91257224D01*
X156959828Y-91259645D01*
X156946983Y-91262200D01*
X156872894Y-91276937D01*
X156788876Y-91333076D01*
X156732737Y-91417094D01*
X156713024Y-91516200D01*
X156715445Y-91528370D01*
X156715579Y-91529044D01*
X156718000Y-91553625D01*
X156718000Y-92279200D01*
X156697998Y-92347321D01*
X156644342Y-92393814D01*
X156592000Y-92405200D01*
X154317025Y-92405200D01*
X154292447Y-92402779D01*
X154279600Y-92400224D01*
X154180494Y-92419937D01*
X154096476Y-92476076D01*
X154089583Y-92486392D01*
X154047234Y-92549771D01*
X154047233Y-92549773D01*
X154040337Y-92560094D01*
X154038679Y-92568432D01*
X154020624Y-92659200D01*
X154023045Y-92671370D01*
X154023179Y-92672044D01*
X154025600Y-92696625D01*
X154025600Y-95568175D01*
X154023179Y-95592753D01*
X154020624Y-95605600D01*
X154025600Y-95630617D01*
X154040337Y-95704706D01*
X154047231Y-95715023D01*
X154047231Y-95715024D01*
X154061870Y-95736932D01*
X154096476Y-95788724D01*
X154169692Y-95837645D01*
X154215218Y-95892120D01*
X154224067Y-95962563D01*
X154193426Y-96026607D01*
X154169694Y-96047172D01*
X154109316Y-96087516D01*
X154053066Y-96171699D01*
X154051948Y-96177320D01*
X154010300Y-96229000D01*
X153938441Y-96251500D01*
X153542000Y-96251500D01*
X153473879Y-96231498D01*
X153427386Y-96177842D01*
X153416000Y-96125500D01*
X153416000Y-86158190D01*
X153414545Y-86131043D01*
X153411666Y-86104260D01*
X153383921Y-86015650D01*
X153382654Y-85944665D01*
X153419966Y-85884263D01*
X153484010Y-85853622D01*
X153504164Y-85852000D01*
X156306600Y-85852000D01*
X156374721Y-85872002D01*
G37*
G04 #@! TD.AperFunction*
G04 #@! TA.AperFunction,Conductor*
G36*
X137409653Y-93154860D02*
G01*
X137409649Y-93154860D01*
X137362374Y-93159942D01*
X137362367Y-93159943D01*
X137359010Y-93160304D01*
X137355710Y-93161022D01*
X137355709Y-93161022D01*
X137308322Y-93171330D01*
X137308315Y-93171332D01*
X137306668Y-93171690D01*
X137305024Y-93172141D01*
X137305020Y-93172142D01*
X137296549Y-93174466D01*
X137280445Y-93178884D01*
X137279861Y-93176756D01*
X137267853Y-93178048D01*
X137266243Y-93178927D01*
X137262300Y-93178645D01*
X137220469Y-93183144D01*
X137203879Y-93174466D01*
X137195428Y-93173862D01*
X137164361Y-93154500D01*
X137413000Y-93154500D01*
X137409653Y-93154860D01*
G37*
G04 #@! TD.AperFunction*
G04 #@! TA.AperFunction,Conductor*
G36*
X138176000Y-90805000D02*
G01*
X138176000Y-92900500D01*
X137922000Y-93154500D01*
X137160000Y-93154500D01*
X136906000Y-92900500D01*
X136906000Y-90805000D01*
X137160000Y-90551000D01*
X137922000Y-90551000D01*
X138176000Y-90805000D01*
G37*
G04 #@! TD.AperFunction*
M02*
