G04 #@! TF.GenerationSoftware,KiCad,Pcbnew,6.0.0-d3dd2cf0fa~116~ubuntu20.04.1*
G04 #@! TF.CreationDate,2022-01-19T00:46:34+01:00*
G04 #@! TF.ProjectId,bobbycar,626f6262-7963-4617-922e-6b696361645f,rev?*
G04 #@! TF.SameCoordinates,Original*
G04 #@! TF.FileFunction,Soldermask,Top*
G04 #@! TF.FilePolarity,Negative*
%FSLAX46Y46*%
G04 Gerber Fmt 4.6, Leading zero omitted, Abs format (unit mm)*
G04 Created by KiCad (PCBNEW 6.0.0-d3dd2cf0fa~116~ubuntu20.04.1) date 2022-01-19 00:46:34*
%MOMM*%
%LPD*%
G01*
G04 APERTURE LIST*
G04 Aperture macros list*
%AMOutline4P*
0 Free polygon, 4 corners , with rotation*
0 The origin of the aperture is its center*
0 number of corners: always 4*
0 $1 to $8 corner X, Y*
0 $9 Rotation angle, in degrees counterclockwise*
0 create outline with 4 corners*
4,1,4,$1,$2,$3,$4,$5,$6,$7,$8,$1,$2,$9*%
G04 Aperture macros list end*
%ADD10C,1.600000*%
%ADD11O,1.600000X1.600000*%
%ADD12O,2.200000X2.200000*%
%ADD13R,2.200000X2.200000*%
%ADD14R,2.500000X1.000000*%
%ADD15R,4.000000X2.000000*%
%ADD16Outline4P,-1.000000X-0.375000X1.000000X-0.375000X0.500000X0.375000X-0.500000X0.375000X90.000000*%
%ADD17R,1.700000X1.700000*%
%ADD18O,1.700000X1.700000*%
%ADD19R,1.600000X1.600000*%
%ADD20C,1.750000*%
%ADD21R,1.750000X1.750000*%
%ADD22R,2.400000X2.400000*%
%ADD23C,2.400000*%
%ADD24R,1.800000X1.800000*%
%ADD25C,1.800000*%
%ADD26R,1.000000X1.000000*%
%ADD27R,7.000000X1.270000*%
G04 APERTURE END LIST*
D10*
X139018000Y-100965000D03*
X144018000Y-100965000D03*
X126111000Y-96139000D03*
X126111000Y-91139000D03*
X143049000Y-88773000D03*
X138049000Y-88773000D03*
X139001500Y-95885000D03*
X144001500Y-95885000D03*
D11*
X123952000Y-100584000D03*
D10*
X123952000Y-110744000D03*
D12*
X109728000Y-93218000D03*
D13*
X117348000Y-93218000D03*
X117348000Y-96520000D03*
D12*
X109728000Y-96520000D03*
D14*
X130978000Y-90321000D03*
X130978000Y-91821000D03*
X130978000Y-93321000D03*
D15*
X134938000Y-91821000D03*
D16*
X132588000Y-91821000D03*
D17*
X141732000Y-105156000D03*
D18*
X141732000Y-107696000D03*
X141732000Y-110236000D03*
D10*
X120142000Y-100584000D03*
D11*
X120142000Y-110744000D03*
D10*
X117602000Y-88646000D03*
D11*
X127762000Y-88646000D03*
X112522000Y-110744000D03*
D10*
X112522000Y-100584000D03*
X116332000Y-100584000D03*
D11*
X116332000Y-110744000D03*
D10*
X129540000Y-99568000D03*
D19*
X127540000Y-99568000D03*
X135318500Y-98552000D03*
D10*
X133318500Y-98552000D03*
D20*
X104521000Y-96019000D03*
X104521000Y-93519000D03*
X104521000Y-91019000D03*
D21*
X104521000Y-88519000D03*
X104521000Y-101981000D03*
D20*
X104521000Y-104481000D03*
X104521000Y-106981000D03*
X104521000Y-109481000D03*
D22*
X149352000Y-106228000D03*
D23*
X149352000Y-109728000D03*
X149352000Y-91948000D03*
D22*
X149352000Y-88448000D03*
X149352000Y-97338000D03*
D23*
X149352000Y-100838000D03*
D24*
X123190000Y-93472000D03*
D25*
X120650000Y-93472000D03*
D26*
X110490000Y-88646000D03*
X110490000Y-87296000D03*
X110490000Y-89996000D03*
X113792000Y-89996000D03*
X113792000Y-87296000D03*
X113792000Y-88646000D03*
D27*
X157792800Y-96906000D03*
X157792800Y-100706000D03*
M02*
