M48
; DRILL file {KiCad 6.0.0-d3dd2cf0fa~116~ubuntu20.04.1} date Wed 19 Jan 2022 12:46:35 AM CET
; FORMAT={-:-/ absolute / metric / decimal}
; #@! TF.CreationDate,2022-01-19T00:46:35+01:00
; #@! TF.GenerationSoftware,Kicad,Pcbnew,6.0.0-d3dd2cf0fa~116~ubuntu20.04.1
; #@! TF.FileFunction,Plated,1,2,PTH
FMAT,2
METRIC
; #@! TA.AperFunction,Plated,PTH,ViaDrill
T1C0.400
; #@! TA.AperFunction,Plated,PTH,ComponentDrill
T2C0.800
; #@! TA.AperFunction,Plated,PTH,ComponentDrill
T3C0.900
; #@! TA.AperFunction,Plated,PTH,ComponentDrill
T4C1.000
; #@! TA.AperFunction,Plated,PTH,ComponentDrill
T5C1.100
; #@! TA.AperFunction,Plated,PTH,ComponentDrill
T6C1.200
%
G90
G05
T1
X106.045Y-105.664
X106.172Y-103.251
X108.585Y-98.425
X109.347Y-106.045
X110.998Y-103.886
X111.506Y-91.186
X112.268Y-88.9
X112.268Y-102.616
X117.094Y-109.474
X137.541Y-90.995
X137.541Y-91.821
X137.541Y-92.646
X137.541Y-101.092
X146.812Y-108.966
X152.654Y-95.631
X153.924Y-90.805
X154.051Y-106.299
X155.448Y-98.806
X159.385Y-98.806
T2
X112.522Y-100.584
X112.522Y-110.744
X116.332Y-100.584
X116.332Y-110.744
X117.602Y-88.646
X120.142Y-100.584
X120.142Y-110.744
X123.952Y-100.584
X123.952Y-110.744
X126.111Y-91.139
X126.111Y-96.139
X127.54Y-99.568
X127.762Y-88.646
X129.54Y-99.568
X133.319Y-98.552
X135.319Y-98.552
X138.049Y-88.773
X139.001Y-95.885
X139.018Y-100.965
X143.049Y-88.773
X144.001Y-95.885
X144.018Y-100.965
T3
X120.65Y-93.472
X123.19Y-93.472
T4
X104.521Y-88.519
X104.521Y-91.019
X104.521Y-93.519
X104.521Y-96.019
X104.521Y-101.981
X104.521Y-104.481
X104.521Y-106.981
X104.521Y-109.481
X141.732Y-105.156
X141.732Y-107.696
X141.732Y-110.236
T5
X109.728Y-93.218
X109.728Y-96.52
X117.348Y-93.218
X117.348Y-96.52
T6
X149.352Y-88.448
X149.352Y-91.948
X149.352Y-97.338
X149.352Y-100.838
X149.352Y-106.228
X149.352Y-109.728
T0
M30
