%TF.GenerationSoftware,KiCad,Pcbnew,5.0.1*%
%TF.CreationDate,2019-02-24T22:19:24+01:00*%
%TF.ProjectId,bobbycar,626F6262796361722E6B696361645F70,rev?*%
%TF.SameCoordinates,Original*%
%TF.FileFunction,Soldermask,Top*%
%TF.FilePolarity,Negative*%
%FSLAX46Y46*%
G04 Gerber Fmt 4.6, Leading zero omitted, Abs format (unit mm)*
G04 Created by KiCad (PCBNEW 5.0.1) date So 24 Feb 2019 22:19:24 CET*
%MOMM*%
%LPD*%
G01*
G04 APERTURE LIST*
%ADD10C,0.100000*%
G04 APERTURE END LIST*
D10*
X162306000Y-91440000D02*
X162306000Y-92659200D01*
X158877000Y-92659200D02*
X162306000Y-92659200D01*
X158877000Y-91516200D02*
X158877000Y-92659200D01*
X156972000Y-91516200D02*
X158877000Y-91516200D01*
X156972000Y-92659200D02*
X156972000Y-91516200D01*
X154279600Y-92659200D02*
X156972000Y-92659200D01*
X154279600Y-95605600D02*
X154279600Y-92659200D01*
X161544000Y-95605600D02*
X154279600Y-95605600D01*
X161544000Y-102006400D02*
X161544000Y-95605600D01*
X154279600Y-102006400D02*
X161544000Y-102006400D01*
X154279600Y-104952800D02*
X154279600Y-102006400D01*
X156972000Y-104952800D02*
X154279600Y-104952800D01*
X156972000Y-106095800D02*
X156972000Y-104952800D01*
X158877000Y-106095800D02*
X156972000Y-106095800D01*
X158877000Y-104952800D02*
X158877000Y-106095800D01*
X162306000Y-104952800D02*
X158877000Y-104952800D01*
X162306000Y-106172000D02*
X162306000Y-104952800D01*
X162306000Y-91440000D02*
X156464000Y-85598000D01*
X162306000Y-106172000D02*
X155956000Y-112522000D01*
X100584000Y-85598000D02*
X100584000Y-112522000D01*
X155956000Y-112522000D02*
X100584000Y-112522000D01*
X156464000Y-85598000D02*
X100584000Y-85598000D01*
G36*
X116449649Y-109951717D02*
X116488827Y-109955576D01*
X116552012Y-109974743D01*
X116639629Y-110001321D01*
X116778608Y-110075608D01*
X116900422Y-110175578D01*
X117000392Y-110297392D01*
X117074679Y-110436371D01*
X117074679Y-110436372D01*
X117120424Y-110587173D01*
X117127607Y-110660101D01*
X117135870Y-110744000D01*
X117120424Y-110900826D01*
X117074679Y-111051629D01*
X117000392Y-111190608D01*
X116900422Y-111312422D01*
X116778608Y-111412392D01*
X116639629Y-111486679D01*
X116564227Y-111509552D01*
X116488827Y-111532424D01*
X116449649Y-111536283D01*
X116371295Y-111544000D01*
X116292705Y-111544000D01*
X116214351Y-111536283D01*
X116175173Y-111532424D01*
X116099773Y-111509552D01*
X116024371Y-111486679D01*
X115885392Y-111412392D01*
X115763578Y-111312422D01*
X115663608Y-111190608D01*
X115589321Y-111051629D01*
X115543576Y-110900826D01*
X115528130Y-110744000D01*
X115536393Y-110660101D01*
X115543576Y-110587173D01*
X115589321Y-110436372D01*
X115589321Y-110436371D01*
X115663608Y-110297392D01*
X115763578Y-110175578D01*
X115885392Y-110075608D01*
X116024371Y-110001321D01*
X116111988Y-109974743D01*
X116175173Y-109955576D01*
X116214351Y-109951717D01*
X116292705Y-109944000D01*
X116371295Y-109944000D01*
X116449649Y-109951717D01*
X116449649Y-109951717D01*
G37*
G36*
X120259649Y-109951717D02*
X120298827Y-109955576D01*
X120362012Y-109974743D01*
X120449629Y-110001321D01*
X120588608Y-110075608D01*
X120710422Y-110175578D01*
X120810392Y-110297392D01*
X120884679Y-110436371D01*
X120884679Y-110436372D01*
X120930424Y-110587173D01*
X120937607Y-110660101D01*
X120945870Y-110744000D01*
X120930424Y-110900826D01*
X120884679Y-111051629D01*
X120810392Y-111190608D01*
X120710422Y-111312422D01*
X120588608Y-111412392D01*
X120449629Y-111486679D01*
X120374227Y-111509552D01*
X120298827Y-111532424D01*
X120259649Y-111536283D01*
X120181295Y-111544000D01*
X120102705Y-111544000D01*
X120024351Y-111536283D01*
X119985173Y-111532424D01*
X119909773Y-111509552D01*
X119834371Y-111486679D01*
X119695392Y-111412392D01*
X119573578Y-111312422D01*
X119473608Y-111190608D01*
X119399321Y-111051629D01*
X119353576Y-110900826D01*
X119338130Y-110744000D01*
X119346393Y-110660101D01*
X119353576Y-110587173D01*
X119399321Y-110436372D01*
X119399321Y-110436371D01*
X119473608Y-110297392D01*
X119573578Y-110175578D01*
X119695392Y-110075608D01*
X119834371Y-110001321D01*
X119921988Y-109974743D01*
X119985173Y-109955576D01*
X120024351Y-109951717D01*
X120102705Y-109944000D01*
X120181295Y-109944000D01*
X120259649Y-109951717D01*
X120259649Y-109951717D01*
G37*
G36*
X124185352Y-109974743D02*
X124330941Y-110035048D01*
X124461973Y-110122601D01*
X124573399Y-110234027D01*
X124660952Y-110365059D01*
X124721257Y-110510648D01*
X124752000Y-110665205D01*
X124752000Y-110822795D01*
X124721257Y-110977352D01*
X124660952Y-111122941D01*
X124573399Y-111253973D01*
X124461973Y-111365399D01*
X124330941Y-111452952D01*
X124185352Y-111513257D01*
X124030795Y-111544000D01*
X123873205Y-111544000D01*
X123718648Y-111513257D01*
X123573059Y-111452952D01*
X123442027Y-111365399D01*
X123330601Y-111253973D01*
X123243048Y-111122941D01*
X123182743Y-110977352D01*
X123152000Y-110822795D01*
X123152000Y-110665205D01*
X123182743Y-110510648D01*
X123243048Y-110365059D01*
X123330601Y-110234027D01*
X123442027Y-110122601D01*
X123573059Y-110035048D01*
X123718648Y-109974743D01*
X123873205Y-109944000D01*
X124030795Y-109944000D01*
X124185352Y-109974743D01*
X124185352Y-109974743D01*
G37*
G36*
X112639649Y-109951717D02*
X112678827Y-109955576D01*
X112742012Y-109974743D01*
X112829629Y-110001321D01*
X112968608Y-110075608D01*
X113090422Y-110175578D01*
X113190392Y-110297392D01*
X113264679Y-110436371D01*
X113264679Y-110436372D01*
X113310424Y-110587173D01*
X113317607Y-110660101D01*
X113325870Y-110744000D01*
X113310424Y-110900826D01*
X113264679Y-111051629D01*
X113190392Y-111190608D01*
X113090422Y-111312422D01*
X112968608Y-111412392D01*
X112829629Y-111486679D01*
X112754227Y-111509552D01*
X112678827Y-111532424D01*
X112639649Y-111536283D01*
X112561295Y-111544000D01*
X112482705Y-111544000D01*
X112404351Y-111536283D01*
X112365173Y-111532424D01*
X112289773Y-111509552D01*
X112214371Y-111486679D01*
X112075392Y-111412392D01*
X111953578Y-111312422D01*
X111853608Y-111190608D01*
X111779321Y-111051629D01*
X111733576Y-110900826D01*
X111718130Y-110744000D01*
X111726393Y-110660101D01*
X111733576Y-110587173D01*
X111779321Y-110436372D01*
X111779321Y-110436371D01*
X111853608Y-110297392D01*
X111953578Y-110175578D01*
X112075392Y-110075608D01*
X112214371Y-110001321D01*
X112301988Y-109974743D01*
X112365173Y-109955576D01*
X112404351Y-109951717D01*
X112482705Y-109944000D01*
X112561295Y-109944000D01*
X112639649Y-109951717D01*
X112639649Y-109951717D01*
G37*
G36*
X141898630Y-109398299D02*
X142058855Y-109446903D01*
X142206520Y-109525831D01*
X142335949Y-109632051D01*
X142442169Y-109761480D01*
X142521097Y-109909145D01*
X142569701Y-110069370D01*
X142586112Y-110236000D01*
X142569701Y-110402630D01*
X142521097Y-110562855D01*
X142442169Y-110710520D01*
X142335949Y-110839949D01*
X142206520Y-110946169D01*
X142058855Y-111025097D01*
X141898630Y-111073701D01*
X141773752Y-111086000D01*
X141690248Y-111086000D01*
X141565370Y-111073701D01*
X141405145Y-111025097D01*
X141257480Y-110946169D01*
X141128051Y-110839949D01*
X141021831Y-110710520D01*
X140942903Y-110562855D01*
X140894299Y-110402630D01*
X140877888Y-110236000D01*
X140894299Y-110069370D01*
X140942903Y-109909145D01*
X141021831Y-109761480D01*
X141128051Y-109632051D01*
X141257480Y-109525831D01*
X141405145Y-109446903D01*
X141565370Y-109398299D01*
X141690248Y-109386000D01*
X141773752Y-109386000D01*
X141898630Y-109398299D01*
X141898630Y-109398299D01*
G37*
G36*
X149702026Y-108574115D02*
X149920412Y-108664573D01*
X150116958Y-108795901D01*
X150284099Y-108963042D01*
X150415427Y-109159588D01*
X150505885Y-109377974D01*
X150552000Y-109609809D01*
X150552000Y-109846191D01*
X150505885Y-110078026D01*
X150415427Y-110296412D01*
X150284099Y-110492958D01*
X150116958Y-110660099D01*
X149920412Y-110791427D01*
X149702026Y-110881885D01*
X149470191Y-110928000D01*
X149233809Y-110928000D01*
X149001974Y-110881885D01*
X148783588Y-110791427D01*
X148587042Y-110660099D01*
X148419901Y-110492958D01*
X148288573Y-110296412D01*
X148198115Y-110078026D01*
X148152000Y-109846191D01*
X148152000Y-109609809D01*
X148198115Y-109377974D01*
X148288573Y-109159588D01*
X148419901Y-108963042D01*
X148587042Y-108795901D01*
X148783588Y-108664573D01*
X149001974Y-108574115D01*
X149233809Y-108528000D01*
X149470191Y-108528000D01*
X149702026Y-108574115D01*
X149702026Y-108574115D01*
G37*
G36*
X104776228Y-108639625D02*
X104935467Y-108705584D01*
X105078783Y-108801345D01*
X105200655Y-108923217D01*
X105296416Y-109066533D01*
X105362375Y-109225772D01*
X105396000Y-109394819D01*
X105396000Y-109567181D01*
X105362375Y-109736228D01*
X105296416Y-109895467D01*
X105200655Y-110038783D01*
X105078783Y-110160655D01*
X104935467Y-110256416D01*
X104776228Y-110322375D01*
X104607181Y-110356000D01*
X104434819Y-110356000D01*
X104265772Y-110322375D01*
X104106533Y-110256416D01*
X103963217Y-110160655D01*
X103841345Y-110038783D01*
X103745584Y-109895467D01*
X103679625Y-109736228D01*
X103646000Y-109567181D01*
X103646000Y-109394819D01*
X103679625Y-109225772D01*
X103745584Y-109066533D01*
X103841345Y-108923217D01*
X103963217Y-108801345D01*
X104106533Y-108705584D01*
X104265772Y-108639625D01*
X104434819Y-108606000D01*
X104607181Y-108606000D01*
X104776228Y-108639625D01*
X104776228Y-108639625D01*
G37*
G36*
X141898630Y-106858299D02*
X142058855Y-106906903D01*
X142206520Y-106985831D01*
X142335949Y-107092051D01*
X142442169Y-107221480D01*
X142521097Y-107369145D01*
X142569701Y-107529370D01*
X142586112Y-107696000D01*
X142569701Y-107862630D01*
X142521097Y-108022855D01*
X142442169Y-108170520D01*
X142335949Y-108299949D01*
X142206520Y-108406169D01*
X142058855Y-108485097D01*
X141898630Y-108533701D01*
X141773752Y-108546000D01*
X141690248Y-108546000D01*
X141565370Y-108533701D01*
X141405145Y-108485097D01*
X141257480Y-108406169D01*
X141128051Y-108299949D01*
X141021831Y-108170520D01*
X140942903Y-108022855D01*
X140894299Y-107862630D01*
X140877888Y-107696000D01*
X140894299Y-107529370D01*
X140942903Y-107369145D01*
X141021831Y-107221480D01*
X141128051Y-107092051D01*
X141257480Y-106985831D01*
X141405145Y-106906903D01*
X141565370Y-106858299D01*
X141690248Y-106846000D01*
X141773752Y-106846000D01*
X141898630Y-106858299D01*
X141898630Y-106858299D01*
G37*
G36*
X104776228Y-106139625D02*
X104935467Y-106205584D01*
X105078783Y-106301345D01*
X105200655Y-106423217D01*
X105296416Y-106566533D01*
X105362375Y-106725772D01*
X105396000Y-106894819D01*
X105396000Y-107067181D01*
X105362375Y-107236228D01*
X105296416Y-107395467D01*
X105200655Y-107538783D01*
X105078783Y-107660655D01*
X104935467Y-107756416D01*
X104776228Y-107822375D01*
X104607181Y-107856000D01*
X104434819Y-107856000D01*
X104265772Y-107822375D01*
X104106533Y-107756416D01*
X103963217Y-107660655D01*
X103841345Y-107538783D01*
X103745584Y-107395467D01*
X103679625Y-107236228D01*
X103646000Y-107067181D01*
X103646000Y-106894819D01*
X103679625Y-106725772D01*
X103745584Y-106566533D01*
X103841345Y-106423217D01*
X103963217Y-106301345D01*
X104106533Y-106205584D01*
X104265772Y-106139625D01*
X104434819Y-106106000D01*
X104607181Y-106106000D01*
X104776228Y-106139625D01*
X104776228Y-106139625D01*
G37*
G36*
X150552000Y-107428000D02*
X148152000Y-107428000D01*
X148152000Y-105028000D01*
X150552000Y-105028000D01*
X150552000Y-107428000D01*
X150552000Y-107428000D01*
G37*
G36*
X142582000Y-106006000D02*
X140882000Y-106006000D01*
X140882000Y-104306000D01*
X142582000Y-104306000D01*
X142582000Y-106006000D01*
X142582000Y-106006000D01*
G37*
G36*
X104776228Y-103639625D02*
X104935467Y-103705584D01*
X105078783Y-103801345D01*
X105200655Y-103923217D01*
X105296416Y-104066533D01*
X105362375Y-104225772D01*
X105396000Y-104394819D01*
X105396000Y-104567181D01*
X105362375Y-104736228D01*
X105296416Y-104895467D01*
X105200655Y-105038783D01*
X105078783Y-105160655D01*
X104935467Y-105256416D01*
X104776228Y-105322375D01*
X104607181Y-105356000D01*
X104434819Y-105356000D01*
X104265772Y-105322375D01*
X104106533Y-105256416D01*
X103963217Y-105160655D01*
X103841345Y-105038783D01*
X103745584Y-104895467D01*
X103679625Y-104736228D01*
X103646000Y-104567181D01*
X103646000Y-104394819D01*
X103679625Y-104225772D01*
X103745584Y-104066533D01*
X103841345Y-103923217D01*
X103963217Y-103801345D01*
X104106533Y-103705584D01*
X104265772Y-103639625D01*
X104434819Y-103606000D01*
X104607181Y-103606000D01*
X104776228Y-103639625D01*
X104776228Y-103639625D01*
G37*
G36*
X105396000Y-102856000D02*
X103646000Y-102856000D01*
X103646000Y-101106000D01*
X105396000Y-101106000D01*
X105396000Y-102856000D01*
X105396000Y-102856000D01*
G37*
G36*
X149702026Y-99684115D02*
X149920412Y-99774573D01*
X150116958Y-99905901D01*
X150284099Y-100073042D01*
X150415427Y-100269588D01*
X150505885Y-100487974D01*
X150552000Y-100719809D01*
X150552000Y-100956191D01*
X150505885Y-101188026D01*
X150415427Y-101406412D01*
X150284099Y-101602958D01*
X150116958Y-101770099D01*
X149920412Y-101901427D01*
X149702026Y-101991885D01*
X149470191Y-102038000D01*
X149233809Y-102038000D01*
X149001974Y-101991885D01*
X148783588Y-101901427D01*
X148587042Y-101770099D01*
X148419901Y-101602958D01*
X148288573Y-101406412D01*
X148198115Y-101188026D01*
X148152000Y-100956191D01*
X148152000Y-100719809D01*
X148198115Y-100487974D01*
X148288573Y-100269588D01*
X148419901Y-100073042D01*
X148587042Y-99905901D01*
X148783588Y-99774573D01*
X149001974Y-99684115D01*
X149233809Y-99638000D01*
X149470191Y-99638000D01*
X149702026Y-99684115D01*
X149702026Y-99684115D01*
G37*
G36*
X144251352Y-100195743D02*
X144396941Y-100256048D01*
X144527973Y-100343601D01*
X144639399Y-100455027D01*
X144726952Y-100586059D01*
X144787257Y-100731648D01*
X144818000Y-100886205D01*
X144818000Y-101043795D01*
X144787257Y-101198352D01*
X144726952Y-101343941D01*
X144639399Y-101474973D01*
X144527973Y-101586399D01*
X144396941Y-101673952D01*
X144251352Y-101734257D01*
X144096795Y-101765000D01*
X143939205Y-101765000D01*
X143784648Y-101734257D01*
X143639059Y-101673952D01*
X143508027Y-101586399D01*
X143396601Y-101474973D01*
X143309048Y-101343941D01*
X143248743Y-101198352D01*
X143218000Y-101043795D01*
X143218000Y-100886205D01*
X143248743Y-100731648D01*
X143309048Y-100586059D01*
X143396601Y-100455027D01*
X143508027Y-100343601D01*
X143639059Y-100256048D01*
X143784648Y-100195743D01*
X143939205Y-100165000D01*
X144096795Y-100165000D01*
X144251352Y-100195743D01*
X144251352Y-100195743D01*
G37*
G36*
X139251352Y-100195743D02*
X139396941Y-100256048D01*
X139527973Y-100343601D01*
X139639399Y-100455027D01*
X139726952Y-100586059D01*
X139787257Y-100731648D01*
X139818000Y-100886205D01*
X139818000Y-101043795D01*
X139787257Y-101198352D01*
X139726952Y-101343941D01*
X139639399Y-101474973D01*
X139527973Y-101586399D01*
X139396941Y-101673952D01*
X139251352Y-101734257D01*
X139096795Y-101765000D01*
X138939205Y-101765000D01*
X138784648Y-101734257D01*
X138639059Y-101673952D01*
X138508027Y-101586399D01*
X138396601Y-101474973D01*
X138309048Y-101343941D01*
X138248743Y-101198352D01*
X138218000Y-101043795D01*
X138218000Y-100886205D01*
X138248743Y-100731648D01*
X138309048Y-100586059D01*
X138396601Y-100455027D01*
X138508027Y-100343601D01*
X138639059Y-100256048D01*
X138784648Y-100195743D01*
X138939205Y-100165000D01*
X139096795Y-100165000D01*
X139251352Y-100195743D01*
X139251352Y-100195743D01*
G37*
G36*
X124069649Y-99791717D02*
X124108827Y-99795576D01*
X124172012Y-99814743D01*
X124259629Y-99841321D01*
X124398608Y-99915608D01*
X124520422Y-100015578D01*
X124620392Y-100137392D01*
X124694679Y-100276371D01*
X124740424Y-100427174D01*
X124755870Y-100584000D01*
X124740424Y-100740826D01*
X124694679Y-100891629D01*
X124620392Y-101030608D01*
X124520422Y-101152422D01*
X124398608Y-101252392D01*
X124259629Y-101326679D01*
X124212418Y-101341000D01*
X124108827Y-101372424D01*
X124069649Y-101376283D01*
X123991295Y-101384000D01*
X123912705Y-101384000D01*
X123834351Y-101376283D01*
X123795173Y-101372424D01*
X123691582Y-101341000D01*
X123644371Y-101326679D01*
X123505392Y-101252392D01*
X123383578Y-101152422D01*
X123283608Y-101030608D01*
X123209321Y-100891629D01*
X123163576Y-100740826D01*
X123148130Y-100584000D01*
X123163576Y-100427174D01*
X123209321Y-100276371D01*
X123283608Y-100137392D01*
X123383578Y-100015578D01*
X123505392Y-99915608D01*
X123644371Y-99841321D01*
X123731988Y-99814743D01*
X123795173Y-99795576D01*
X123834351Y-99791717D01*
X123912705Y-99784000D01*
X123991295Y-99784000D01*
X124069649Y-99791717D01*
X124069649Y-99791717D01*
G37*
G36*
X112755352Y-99814743D02*
X112900941Y-99875048D01*
X113031973Y-99962601D01*
X113143399Y-100074027D01*
X113230952Y-100205059D01*
X113291257Y-100350648D01*
X113322000Y-100505205D01*
X113322000Y-100662795D01*
X113291257Y-100817352D01*
X113230952Y-100962941D01*
X113143399Y-101093973D01*
X113031973Y-101205399D01*
X112900941Y-101292952D01*
X112755352Y-101353257D01*
X112600795Y-101384000D01*
X112443205Y-101384000D01*
X112288648Y-101353257D01*
X112143059Y-101292952D01*
X112012027Y-101205399D01*
X111900601Y-101093973D01*
X111813048Y-100962941D01*
X111752743Y-100817352D01*
X111722000Y-100662795D01*
X111722000Y-100505205D01*
X111752743Y-100350648D01*
X111813048Y-100205059D01*
X111900601Y-100074027D01*
X112012027Y-99962601D01*
X112143059Y-99875048D01*
X112288648Y-99814743D01*
X112443205Y-99784000D01*
X112600795Y-99784000D01*
X112755352Y-99814743D01*
X112755352Y-99814743D01*
G37*
G36*
X116565352Y-99814743D02*
X116710941Y-99875048D01*
X116841973Y-99962601D01*
X116953399Y-100074027D01*
X117040952Y-100205059D01*
X117101257Y-100350648D01*
X117132000Y-100505205D01*
X117132000Y-100662795D01*
X117101257Y-100817352D01*
X117040952Y-100962941D01*
X116953399Y-101093973D01*
X116841973Y-101205399D01*
X116710941Y-101292952D01*
X116565352Y-101353257D01*
X116410795Y-101384000D01*
X116253205Y-101384000D01*
X116098648Y-101353257D01*
X115953059Y-101292952D01*
X115822027Y-101205399D01*
X115710601Y-101093973D01*
X115623048Y-100962941D01*
X115562743Y-100817352D01*
X115532000Y-100662795D01*
X115532000Y-100505205D01*
X115562743Y-100350648D01*
X115623048Y-100205059D01*
X115710601Y-100074027D01*
X115822027Y-99962601D01*
X115953059Y-99875048D01*
X116098648Y-99814743D01*
X116253205Y-99784000D01*
X116410795Y-99784000D01*
X116565352Y-99814743D01*
X116565352Y-99814743D01*
G37*
G36*
X120375352Y-99814743D02*
X120520941Y-99875048D01*
X120651973Y-99962601D01*
X120763399Y-100074027D01*
X120850952Y-100205059D01*
X120911257Y-100350648D01*
X120942000Y-100505205D01*
X120942000Y-100662795D01*
X120911257Y-100817352D01*
X120850952Y-100962941D01*
X120763399Y-101093973D01*
X120651973Y-101205399D01*
X120520941Y-101292952D01*
X120375352Y-101353257D01*
X120220795Y-101384000D01*
X120063205Y-101384000D01*
X119908648Y-101353257D01*
X119763059Y-101292952D01*
X119632027Y-101205399D01*
X119520601Y-101093973D01*
X119433048Y-100962941D01*
X119372743Y-100817352D01*
X119342000Y-100662795D01*
X119342000Y-100505205D01*
X119372743Y-100350648D01*
X119433048Y-100205059D01*
X119520601Y-100074027D01*
X119632027Y-99962601D01*
X119763059Y-99875048D01*
X119908648Y-99814743D01*
X120063205Y-99784000D01*
X120220795Y-99784000D01*
X120375352Y-99814743D01*
X120375352Y-99814743D01*
G37*
G36*
X161292800Y-101341000D02*
X154292800Y-101341000D01*
X154292800Y-100071000D01*
X161292800Y-100071000D01*
X161292800Y-101341000D01*
X161292800Y-101341000D01*
G37*
G36*
X129773352Y-98798743D02*
X129918941Y-98859048D01*
X130049973Y-98946601D01*
X130161399Y-99058027D01*
X130248952Y-99189059D01*
X130309257Y-99334648D01*
X130340000Y-99489205D01*
X130340000Y-99646795D01*
X130309257Y-99801352D01*
X130248952Y-99946941D01*
X130161399Y-100077973D01*
X130049973Y-100189399D01*
X129918941Y-100276952D01*
X129773352Y-100337257D01*
X129618795Y-100368000D01*
X129461205Y-100368000D01*
X129306648Y-100337257D01*
X129161059Y-100276952D01*
X129030027Y-100189399D01*
X128918601Y-100077973D01*
X128831048Y-99946941D01*
X128770743Y-99801352D01*
X128740000Y-99646795D01*
X128740000Y-99489205D01*
X128770743Y-99334648D01*
X128831048Y-99189059D01*
X128918601Y-99058027D01*
X129030027Y-98946601D01*
X129161059Y-98859048D01*
X129306648Y-98798743D01*
X129461205Y-98768000D01*
X129618795Y-98768000D01*
X129773352Y-98798743D01*
X129773352Y-98798743D01*
G37*
G36*
X128340000Y-100368000D02*
X126740000Y-100368000D01*
X126740000Y-98768000D01*
X128340000Y-98768000D01*
X128340000Y-100368000D01*
X128340000Y-100368000D01*
G37*
G36*
X136118500Y-99352000D02*
X134518500Y-99352000D01*
X134518500Y-97752000D01*
X136118500Y-97752000D01*
X136118500Y-99352000D01*
X136118500Y-99352000D01*
G37*
G36*
X133551852Y-97782743D02*
X133697441Y-97843048D01*
X133828473Y-97930601D01*
X133939899Y-98042027D01*
X134027452Y-98173059D01*
X134087757Y-98318648D01*
X134118500Y-98473205D01*
X134118500Y-98630795D01*
X134087757Y-98785352D01*
X134027452Y-98930941D01*
X133939899Y-99061973D01*
X133828473Y-99173399D01*
X133697441Y-99260952D01*
X133551852Y-99321257D01*
X133397295Y-99352000D01*
X133239705Y-99352000D01*
X133085148Y-99321257D01*
X132939559Y-99260952D01*
X132808527Y-99173399D01*
X132697101Y-99061973D01*
X132609548Y-98930941D01*
X132549243Y-98785352D01*
X132518500Y-98630795D01*
X132518500Y-98473205D01*
X132549243Y-98318648D01*
X132609548Y-98173059D01*
X132697101Y-98042027D01*
X132808527Y-97930601D01*
X132939559Y-97843048D01*
X133085148Y-97782743D01*
X133239705Y-97752000D01*
X133397295Y-97752000D01*
X133551852Y-97782743D01*
X133551852Y-97782743D01*
G37*
G36*
X150552000Y-98538000D02*
X148152000Y-98538000D01*
X148152000Y-96138000D01*
X150552000Y-96138000D01*
X150552000Y-98538000D01*
X150552000Y-98538000D01*
G37*
G36*
X109943639Y-95435916D02*
X110150986Y-95498815D01*
X110150988Y-95498816D01*
X110342084Y-95600958D01*
X110509581Y-95738419D01*
X110647042Y-95905916D01*
X110729510Y-96060205D01*
X110749185Y-96097014D01*
X110812084Y-96304361D01*
X110833322Y-96520000D01*
X110812084Y-96735639D01*
X110778014Y-96847952D01*
X110749184Y-96942988D01*
X110647042Y-97134084D01*
X110509581Y-97301581D01*
X110342084Y-97439042D01*
X110151332Y-97541000D01*
X110150986Y-97541185D01*
X109943639Y-97604084D01*
X109782038Y-97620000D01*
X109673962Y-97620000D01*
X109512361Y-97604084D01*
X109305014Y-97541185D01*
X109304668Y-97541000D01*
X109113916Y-97439042D01*
X108946419Y-97301581D01*
X108808958Y-97134084D01*
X108706816Y-96942988D01*
X108677987Y-96847952D01*
X108643916Y-96735639D01*
X108622678Y-96520000D01*
X108643916Y-96304361D01*
X108706815Y-96097014D01*
X108726490Y-96060205D01*
X108808958Y-95905916D01*
X108946419Y-95738419D01*
X109113916Y-95600958D01*
X109305012Y-95498816D01*
X109305014Y-95498815D01*
X109512361Y-95435916D01*
X109673962Y-95420000D01*
X109782038Y-95420000D01*
X109943639Y-95435916D01*
X109943639Y-95435916D01*
G37*
G36*
X118448000Y-97620000D02*
X116248000Y-97620000D01*
X116248000Y-95420000D01*
X118448000Y-95420000D01*
X118448000Y-97620000D01*
X118448000Y-97620000D01*
G37*
G36*
X161292800Y-97541000D02*
X154292800Y-97541000D01*
X154292800Y-96271000D01*
X161292800Y-96271000D01*
X161292800Y-97541000D01*
X161292800Y-97541000D01*
G37*
G36*
X126344352Y-95369743D02*
X126489941Y-95430048D01*
X126620973Y-95517601D01*
X126732399Y-95629027D01*
X126819952Y-95760059D01*
X126880257Y-95905648D01*
X126911000Y-96060205D01*
X126911000Y-96217795D01*
X126880257Y-96372352D01*
X126819952Y-96517941D01*
X126732399Y-96648973D01*
X126620973Y-96760399D01*
X126489941Y-96847952D01*
X126344352Y-96908257D01*
X126189795Y-96939000D01*
X126032205Y-96939000D01*
X125877648Y-96908257D01*
X125732059Y-96847952D01*
X125601027Y-96760399D01*
X125489601Y-96648973D01*
X125402048Y-96517941D01*
X125341743Y-96372352D01*
X125311000Y-96217795D01*
X125311000Y-96060205D01*
X125341743Y-95905648D01*
X125402048Y-95760059D01*
X125489601Y-95629027D01*
X125601027Y-95517601D01*
X125732059Y-95430048D01*
X125877648Y-95369743D01*
X126032205Y-95339000D01*
X126189795Y-95339000D01*
X126344352Y-95369743D01*
X126344352Y-95369743D01*
G37*
G36*
X104776228Y-95177625D02*
X104935467Y-95243584D01*
X105078783Y-95339345D01*
X105200655Y-95461217D01*
X105296416Y-95604533D01*
X105362375Y-95763772D01*
X105396000Y-95932819D01*
X105396000Y-96105181D01*
X105362375Y-96274228D01*
X105296416Y-96433467D01*
X105200655Y-96576783D01*
X105078783Y-96698655D01*
X104935467Y-96794416D01*
X104776228Y-96860375D01*
X104607181Y-96894000D01*
X104434819Y-96894000D01*
X104265772Y-96860375D01*
X104106533Y-96794416D01*
X103963217Y-96698655D01*
X103841345Y-96576783D01*
X103745584Y-96433467D01*
X103679625Y-96274228D01*
X103646000Y-96105181D01*
X103646000Y-95932819D01*
X103679625Y-95763772D01*
X103745584Y-95604533D01*
X103841345Y-95461217D01*
X103963217Y-95339345D01*
X104106533Y-95243584D01*
X104265772Y-95177625D01*
X104434819Y-95144000D01*
X104607181Y-95144000D01*
X104776228Y-95177625D01*
X104776228Y-95177625D01*
G37*
G36*
X144234852Y-95115743D02*
X144380441Y-95176048D01*
X144511473Y-95263601D01*
X144622899Y-95375027D01*
X144710452Y-95506059D01*
X144770757Y-95651648D01*
X144801500Y-95806205D01*
X144801500Y-95963795D01*
X144770757Y-96118352D01*
X144710452Y-96263941D01*
X144622899Y-96394973D01*
X144511473Y-96506399D01*
X144380441Y-96593952D01*
X144234852Y-96654257D01*
X144080295Y-96685000D01*
X143922705Y-96685000D01*
X143768148Y-96654257D01*
X143622559Y-96593952D01*
X143491527Y-96506399D01*
X143380101Y-96394973D01*
X143292548Y-96263941D01*
X143232243Y-96118352D01*
X143201500Y-95963795D01*
X143201500Y-95806205D01*
X143232243Y-95651648D01*
X143292548Y-95506059D01*
X143380101Y-95375027D01*
X143491527Y-95263601D01*
X143622559Y-95176048D01*
X143768148Y-95115743D01*
X143922705Y-95085000D01*
X144080295Y-95085000D01*
X144234852Y-95115743D01*
X144234852Y-95115743D01*
G37*
G36*
X139234852Y-95115743D02*
X139380441Y-95176048D01*
X139511473Y-95263601D01*
X139622899Y-95375027D01*
X139710452Y-95506059D01*
X139770757Y-95651648D01*
X139801500Y-95806205D01*
X139801500Y-95963795D01*
X139770757Y-96118352D01*
X139710452Y-96263941D01*
X139622899Y-96394973D01*
X139511473Y-96506399D01*
X139380441Y-96593952D01*
X139234852Y-96654257D01*
X139080295Y-96685000D01*
X138922705Y-96685000D01*
X138768148Y-96654257D01*
X138622559Y-96593952D01*
X138491527Y-96506399D01*
X138380101Y-96394973D01*
X138292548Y-96263941D01*
X138232243Y-96118352D01*
X138201500Y-95963795D01*
X138201500Y-95806205D01*
X138232243Y-95651648D01*
X138292548Y-95506059D01*
X138380101Y-95375027D01*
X138491527Y-95263601D01*
X138622559Y-95176048D01*
X138768148Y-95115743D01*
X138922705Y-95085000D01*
X139080295Y-95085000D01*
X139234852Y-95115743D01*
X139234852Y-95115743D01*
G37*
G36*
X104776228Y-92677625D02*
X104935467Y-92743584D01*
X105078783Y-92839345D01*
X105200655Y-92961217D01*
X105296416Y-93104533D01*
X105362375Y-93263772D01*
X105396000Y-93432819D01*
X105396000Y-93605181D01*
X105362375Y-93774228D01*
X105296416Y-93933467D01*
X105200655Y-94076783D01*
X105078783Y-94198655D01*
X104935467Y-94294416D01*
X104776228Y-94360375D01*
X104607181Y-94394000D01*
X104434819Y-94394000D01*
X104265772Y-94360375D01*
X104106533Y-94294416D01*
X103963217Y-94198655D01*
X103841345Y-94076783D01*
X103745584Y-93933467D01*
X103679625Y-93774228D01*
X103646000Y-93605181D01*
X103646000Y-93432819D01*
X103679625Y-93263772D01*
X103745584Y-93104533D01*
X103841345Y-92961217D01*
X103963217Y-92839345D01*
X104106533Y-92743584D01*
X104265772Y-92677625D01*
X104434819Y-92644000D01*
X104607181Y-92644000D01*
X104776228Y-92677625D01*
X104776228Y-92677625D01*
G37*
G36*
X120912521Y-92606586D02*
X121076309Y-92674429D01*
X121223720Y-92772926D01*
X121349074Y-92898280D01*
X121447571Y-93045691D01*
X121515414Y-93209479D01*
X121550000Y-93383356D01*
X121550000Y-93560644D01*
X121515414Y-93734521D01*
X121447571Y-93898309D01*
X121349074Y-94045720D01*
X121223720Y-94171074D01*
X121076309Y-94269571D01*
X120912521Y-94337414D01*
X120738644Y-94372000D01*
X120561356Y-94372000D01*
X120387479Y-94337414D01*
X120223691Y-94269571D01*
X120076280Y-94171074D01*
X119950926Y-94045720D01*
X119852429Y-93898309D01*
X119784586Y-93734521D01*
X119750000Y-93560644D01*
X119750000Y-93383356D01*
X119784586Y-93209479D01*
X119852429Y-93045691D01*
X119950926Y-92898280D01*
X120076280Y-92772926D01*
X120223691Y-92674429D01*
X120387479Y-92606586D01*
X120561356Y-92572000D01*
X120738644Y-92572000D01*
X120912521Y-92606586D01*
X120912521Y-92606586D01*
G37*
G36*
X124090000Y-94372000D02*
X122290000Y-94372000D01*
X122290000Y-92572000D01*
X124090000Y-92572000D01*
X124090000Y-94372000D01*
X124090000Y-94372000D01*
G37*
G36*
X109943639Y-92133916D02*
X110150986Y-92196815D01*
X110150988Y-92196816D01*
X110342084Y-92298958D01*
X110509581Y-92436419D01*
X110647042Y-92603916D01*
X110749184Y-92795012D01*
X110749185Y-92795014D01*
X110812084Y-93002361D01*
X110833322Y-93218000D01*
X110812084Y-93433639D01*
X110760047Y-93605180D01*
X110749184Y-93640988D01*
X110647042Y-93832084D01*
X110509581Y-93999581D01*
X110342084Y-94137042D01*
X110226809Y-94198657D01*
X110150986Y-94239185D01*
X109943639Y-94302084D01*
X109782038Y-94318000D01*
X109673962Y-94318000D01*
X109512361Y-94302084D01*
X109305014Y-94239185D01*
X109229191Y-94198657D01*
X109113916Y-94137042D01*
X108946419Y-93999581D01*
X108808958Y-93832084D01*
X108706816Y-93640988D01*
X108695954Y-93605180D01*
X108643916Y-93433639D01*
X108622678Y-93218000D01*
X108643916Y-93002361D01*
X108706815Y-92795014D01*
X108706816Y-92795012D01*
X108808958Y-92603916D01*
X108946419Y-92436419D01*
X109113916Y-92298958D01*
X109305012Y-92196816D01*
X109305014Y-92196815D01*
X109512361Y-92133916D01*
X109673962Y-92118000D01*
X109782038Y-92118000D01*
X109943639Y-92133916D01*
X109943639Y-92133916D01*
G37*
G36*
X118448000Y-94318000D02*
X116248000Y-94318000D01*
X116248000Y-92118000D01*
X118448000Y-92118000D01*
X118448000Y-94318000D01*
X118448000Y-94318000D01*
G37*
G36*
X132228000Y-93821000D02*
X129728000Y-93821000D01*
X129728000Y-92821000D01*
X132228000Y-92821000D01*
X132228000Y-93821000D01*
X132228000Y-93821000D01*
G37*
G36*
X149702026Y-90794115D02*
X149920412Y-90884573D01*
X150116958Y-91015901D01*
X150284099Y-91183042D01*
X150415427Y-91379588D01*
X150505885Y-91597974D01*
X150552000Y-91829809D01*
X150552000Y-92066191D01*
X150505885Y-92298026D01*
X150415427Y-92516412D01*
X150284099Y-92712958D01*
X150116958Y-92880099D01*
X149920412Y-93011427D01*
X149702026Y-93101885D01*
X149470191Y-93148000D01*
X149233809Y-93148000D01*
X149001974Y-93101885D01*
X148783588Y-93011427D01*
X148587042Y-92880099D01*
X148419901Y-92712958D01*
X148288573Y-92516412D01*
X148198115Y-92298026D01*
X148152000Y-92066191D01*
X148152000Y-91829809D01*
X148198115Y-91597974D01*
X148288573Y-91379588D01*
X148419901Y-91183042D01*
X148587042Y-91015901D01*
X148783588Y-90884573D01*
X149001974Y-90794115D01*
X149233809Y-90748000D01*
X149470191Y-90748000D01*
X149702026Y-90794115D01*
X149702026Y-90794115D01*
G37*
G36*
X133018554Y-90799934D02*
X133040165Y-90811485D01*
X133063614Y-90818598D01*
X133088000Y-90821000D01*
X136938000Y-90821000D01*
X136938000Y-92821000D01*
X133088000Y-92821000D01*
X133063614Y-92823402D01*
X133040165Y-92830515D01*
X133018554Y-92842066D01*
X133007817Y-92850878D01*
X132994492Y-92841994D01*
X132972869Y-92830465D01*
X132949412Y-92823376D01*
X132927318Y-92821212D01*
X132916934Y-92801785D01*
X132901388Y-92782843D01*
X132882337Y-92767225D01*
X132244490Y-92341994D01*
X132222868Y-92330465D01*
X132199411Y-92323376D01*
X132175153Y-92321000D01*
X129728000Y-92321000D01*
X129728000Y-91321000D01*
X132175153Y-91321000D01*
X132199539Y-91318598D01*
X132222988Y-91311485D01*
X132244490Y-91300006D01*
X132882337Y-90874775D01*
X132901296Y-90859250D01*
X132916861Y-90840324D01*
X132927331Y-90820786D01*
X132949540Y-90818598D01*
X132972989Y-90811485D01*
X132994492Y-90800006D01*
X133007817Y-90791122D01*
X133018554Y-90799934D01*
X133018554Y-90799934D01*
G37*
G36*
X126344352Y-90369743D02*
X126489941Y-90430048D01*
X126620973Y-90517601D01*
X126732399Y-90629027D01*
X126819952Y-90760059D01*
X126880257Y-90905648D01*
X126911000Y-91060205D01*
X126911000Y-91217795D01*
X126880257Y-91372352D01*
X126819952Y-91517941D01*
X126732399Y-91648973D01*
X126620973Y-91760399D01*
X126489941Y-91847952D01*
X126344352Y-91908257D01*
X126189795Y-91939000D01*
X126032205Y-91939000D01*
X125877648Y-91908257D01*
X125732059Y-91847952D01*
X125601027Y-91760399D01*
X125489601Y-91648973D01*
X125402048Y-91517941D01*
X125341743Y-91372352D01*
X125311000Y-91217795D01*
X125311000Y-91060205D01*
X125341743Y-90905648D01*
X125402048Y-90760059D01*
X125489601Y-90629027D01*
X125601027Y-90517601D01*
X125732059Y-90430048D01*
X125877648Y-90369743D01*
X126032205Y-90339000D01*
X126189795Y-90339000D01*
X126344352Y-90369743D01*
X126344352Y-90369743D01*
G37*
G36*
X104776228Y-90177625D02*
X104935467Y-90243584D01*
X105078783Y-90339345D01*
X105200655Y-90461217D01*
X105296416Y-90604533D01*
X105362375Y-90763772D01*
X105396000Y-90932819D01*
X105396000Y-91105181D01*
X105362375Y-91274228D01*
X105296416Y-91433467D01*
X105200655Y-91576783D01*
X105078783Y-91698655D01*
X104935467Y-91794416D01*
X104776228Y-91860375D01*
X104607181Y-91894000D01*
X104434819Y-91894000D01*
X104265772Y-91860375D01*
X104106533Y-91794416D01*
X103963217Y-91698655D01*
X103841345Y-91576783D01*
X103745584Y-91433467D01*
X103679625Y-91274228D01*
X103646000Y-91105181D01*
X103646000Y-90932819D01*
X103679625Y-90763772D01*
X103745584Y-90604533D01*
X103841345Y-90461217D01*
X103963217Y-90339345D01*
X104106533Y-90243584D01*
X104265772Y-90177625D01*
X104434819Y-90144000D01*
X104607181Y-90144000D01*
X104776228Y-90177625D01*
X104776228Y-90177625D01*
G37*
G36*
X132228000Y-90821000D02*
X129728000Y-90821000D01*
X129728000Y-89821000D01*
X132228000Y-89821000D01*
X132228000Y-90821000D01*
X132228000Y-90821000D01*
G37*
G36*
X110990000Y-90496000D02*
X109990000Y-90496000D01*
X109990000Y-89496000D01*
X110990000Y-89496000D01*
X110990000Y-90496000D01*
X110990000Y-90496000D01*
G37*
G36*
X114292000Y-90496000D02*
X113292000Y-90496000D01*
X113292000Y-89496000D01*
X114292000Y-89496000D01*
X114292000Y-90496000D01*
X114292000Y-90496000D01*
G37*
G36*
X150552000Y-89648000D02*
X148152000Y-89648000D01*
X148152000Y-87248000D01*
X150552000Y-87248000D01*
X150552000Y-89648000D01*
X150552000Y-89648000D01*
G37*
G36*
X138282352Y-88003743D02*
X138427941Y-88064048D01*
X138558973Y-88151601D01*
X138670399Y-88263027D01*
X138757952Y-88394059D01*
X138818257Y-88539648D01*
X138849000Y-88694205D01*
X138849000Y-88851795D01*
X138818257Y-89006352D01*
X138757952Y-89151941D01*
X138670399Y-89282973D01*
X138558973Y-89394399D01*
X138427941Y-89481952D01*
X138282352Y-89542257D01*
X138127795Y-89573000D01*
X137970205Y-89573000D01*
X137815648Y-89542257D01*
X137670059Y-89481952D01*
X137539027Y-89394399D01*
X137427601Y-89282973D01*
X137340048Y-89151941D01*
X137279743Y-89006352D01*
X137249000Y-88851795D01*
X137249000Y-88694205D01*
X137279743Y-88539648D01*
X137340048Y-88394059D01*
X137427601Y-88263027D01*
X137539027Y-88151601D01*
X137670059Y-88064048D01*
X137815648Y-88003743D01*
X137970205Y-87973000D01*
X138127795Y-87973000D01*
X138282352Y-88003743D01*
X138282352Y-88003743D01*
G37*
G36*
X143282352Y-88003743D02*
X143427941Y-88064048D01*
X143558973Y-88151601D01*
X143670399Y-88263027D01*
X143757952Y-88394059D01*
X143818257Y-88539648D01*
X143849000Y-88694205D01*
X143849000Y-88851795D01*
X143818257Y-89006352D01*
X143757952Y-89151941D01*
X143670399Y-89282973D01*
X143558973Y-89394399D01*
X143427941Y-89481952D01*
X143282352Y-89542257D01*
X143127795Y-89573000D01*
X142970205Y-89573000D01*
X142815648Y-89542257D01*
X142670059Y-89481952D01*
X142539027Y-89394399D01*
X142427601Y-89282973D01*
X142340048Y-89151941D01*
X142279743Y-89006352D01*
X142249000Y-88851795D01*
X142249000Y-88694205D01*
X142279743Y-88539648D01*
X142340048Y-88394059D01*
X142427601Y-88263027D01*
X142539027Y-88151601D01*
X142670059Y-88064048D01*
X142815648Y-88003743D01*
X142970205Y-87973000D01*
X143127795Y-87973000D01*
X143282352Y-88003743D01*
X143282352Y-88003743D01*
G37*
G36*
X127879649Y-87853717D02*
X127918827Y-87857576D01*
X127982012Y-87876743D01*
X128069629Y-87903321D01*
X128208608Y-87977608D01*
X128330422Y-88077578D01*
X128430392Y-88199392D01*
X128504679Y-88338371D01*
X128550424Y-88489174D01*
X128565870Y-88646000D01*
X128550424Y-88802826D01*
X128504679Y-88953629D01*
X128430392Y-89092608D01*
X128330422Y-89214422D01*
X128208608Y-89314392D01*
X128069629Y-89388679D01*
X127994228Y-89411551D01*
X127918827Y-89434424D01*
X127879649Y-89438283D01*
X127801295Y-89446000D01*
X127722705Y-89446000D01*
X127644351Y-89438283D01*
X127605173Y-89434424D01*
X127529772Y-89411551D01*
X127454371Y-89388679D01*
X127315392Y-89314392D01*
X127193578Y-89214422D01*
X127093608Y-89092608D01*
X127019321Y-88953629D01*
X126973576Y-88802826D01*
X126958130Y-88646000D01*
X126973576Y-88489174D01*
X127019321Y-88338371D01*
X127093608Y-88199392D01*
X127193578Y-88077578D01*
X127315392Y-87977608D01*
X127454371Y-87903321D01*
X127541988Y-87876743D01*
X127605173Y-87857576D01*
X127644351Y-87853717D01*
X127722705Y-87846000D01*
X127801295Y-87846000D01*
X127879649Y-87853717D01*
X127879649Y-87853717D01*
G37*
G36*
X117835352Y-87876743D02*
X117980941Y-87937048D01*
X118111973Y-88024601D01*
X118223399Y-88136027D01*
X118310952Y-88267059D01*
X118371257Y-88412648D01*
X118402000Y-88567205D01*
X118402000Y-88724795D01*
X118371257Y-88879352D01*
X118310952Y-89024941D01*
X118223399Y-89155973D01*
X118111973Y-89267399D01*
X117980941Y-89354952D01*
X117835352Y-89415257D01*
X117680795Y-89446000D01*
X117523205Y-89446000D01*
X117368648Y-89415257D01*
X117223059Y-89354952D01*
X117092027Y-89267399D01*
X116980601Y-89155973D01*
X116893048Y-89024941D01*
X116832743Y-88879352D01*
X116802000Y-88724795D01*
X116802000Y-88567205D01*
X116832743Y-88412648D01*
X116893048Y-88267059D01*
X116980601Y-88136027D01*
X117092027Y-88024601D01*
X117223059Y-87937048D01*
X117368648Y-87876743D01*
X117523205Y-87846000D01*
X117680795Y-87846000D01*
X117835352Y-87876743D01*
X117835352Y-87876743D01*
G37*
G36*
X105396000Y-89394000D02*
X103646000Y-89394000D01*
X103646000Y-87644000D01*
X105396000Y-87644000D01*
X105396000Y-89394000D01*
X105396000Y-89394000D01*
G37*
G36*
X110990000Y-89146000D02*
X109990000Y-89146000D01*
X109990000Y-88146000D01*
X110990000Y-88146000D01*
X110990000Y-89146000D01*
X110990000Y-89146000D01*
G37*
G36*
X114292000Y-89146000D02*
X113292000Y-89146000D01*
X113292000Y-88146000D01*
X114292000Y-88146000D01*
X114292000Y-89146000D01*
X114292000Y-89146000D01*
G37*
G36*
X110990000Y-87796000D02*
X109990000Y-87796000D01*
X109990000Y-86796000D01*
X110990000Y-86796000D01*
X110990000Y-87796000D01*
X110990000Y-87796000D01*
G37*
G36*
X114292000Y-87796000D02*
X113292000Y-87796000D01*
X113292000Y-86796000D01*
X114292000Y-86796000D01*
X114292000Y-87796000D01*
X114292000Y-87796000D01*
G37*
M02*
