M48
;DRILL file {KiCad (5.0.0-rc2-dev-107-g49486b83b)} date Sun Apr 15 19:26:36 2018
;FORMAT={-:-/ absolute / inch / decimal}
FMAT,2
INCH,TZ
T1C0.0157
T2C0.0315
T3C0.0354
T4C0.0394
T5C0.0433
T6C0.0472
%
G90
G05
M72
T1
X4.135Y-4.065
X4.15Y-4.165
X4.29Y-3.875
X4.305Y-4.175
X4.37Y-4.09
X4.39Y-3.59
X4.42Y-3.5
X4.42Y-4.04
X4.61Y-4.31
X5.08Y-3.58
X5.08Y-3.6125
X5.08Y-3.645
X5.415Y-3.98
X5.78Y-4.29
X6.01Y-3.765
X6.06Y-3.575
T2
X5.Y-3.6316
X5.Y-3.73
X4.58Y-3.96
X4.58Y-4.36
X5.51Y-3.52
X5.6084Y-3.52
X4.88Y-3.96
X4.88Y-4.36
X5.2913Y-3.88
X5.37Y-3.88
X4.43Y-3.96
X4.43Y-4.36
X4.63Y-3.49
X5.03Y-3.49
X4.73Y-3.96
X4.73Y-4.36
X5.5066Y-3.975
X5.605Y-3.975
X5.05Y-3.92
X5.1287Y-3.92
X5.51Y-3.775
X5.6084Y-3.775
T3
X4.75Y-3.68
X4.85Y-3.68
T4
X4.08Y-4.0147
X4.08Y-4.1131
X4.08Y-4.2116
X4.08Y-4.31
X5.58Y-4.14
X5.58Y-4.24
X5.58Y-4.34
X4.08Y-3.4847
X4.08Y-3.5831
X4.08Y-3.6816
X4.08Y-3.78
T5
X4.32Y-3.8
X4.62Y-3.8
X4.32Y-3.67
X4.62Y-3.67
T6
X5.88Y-3.4822
X5.88Y-3.62
X5.88Y-4.1822
X5.88Y-4.32
X5.88Y-3.8322
X5.88Y-3.97
T0
M30
