G04 #@! TF.GenerationSoftware,KiCad,Pcbnew,(5.0.0-rc2-dev-107-g49486b83b)*
G04 #@! TF.CreationDate,2018-04-15T19:26:34+02:00*
G04 #@! TF.ProjectId,bobbycar,626F6262796361722E6B696361645F70,rev?*
G04 #@! TF.SameCoordinates,Original*
G04 #@! TF.FileFunction,Copper,L1,Top,Signal*
G04 #@! TF.FilePolarity,Positive*
%FSLAX46Y46*%
G04 Gerber Fmt 4.6, Leading zero omitted, Abs format (unit mm)*
G04 Created by KiCad (PCBNEW (5.0.0-rc2-dev-107-g49486b83b)) date Sun Apr 15 19:26:34 2018*
%MOMM*%
%LPD*%
G01*
G04 APERTURE LIST*
%ADD10O,1.600000X1.600000*%
%ADD11C,1.600000*%
%ADD12O,2.200000X2.200000*%
%ADD13R,2.200000X2.200000*%
%ADD14R,2.500000X1.000000*%
%ADD15R,4.000000X2.000000*%
%ADD16C,0.750000*%
%ADD17C,0.100000*%
%ADD18R,1.700000X1.700000*%
%ADD19O,1.700000X1.700000*%
%ADD20R,1.600000X1.600000*%
%ADD21C,1.750000*%
%ADD22R,1.750000X1.750000*%
%ADD23R,2.400000X2.400000*%
%ADD24C,2.400000*%
%ADD25R,1.800000X1.800000*%
%ADD26C,1.800000*%
%ADD27R,1.000000X1.000000*%
%ADD28R,8.000000X1.270000*%
%ADD29C,0.800000*%
%ADD30C,0.800000*%
%ADD31C,0.700000*%
%ADD32C,0.254000*%
G04 APERTURE END LIST*
D10*
X123952000Y-100584000D03*
D11*
X123952000Y-110744000D03*
D12*
X109728000Y-93218000D03*
D13*
X117348000Y-93218000D03*
X117348000Y-96520000D03*
D12*
X109728000Y-96520000D03*
D14*
X135584000Y-93194000D03*
X135584000Y-91694000D03*
X135584000Y-90194000D03*
D15*
X131624000Y-91694000D03*
D16*
X133974000Y-91694000D03*
D17*
G36*
X133599000Y-90694000D02*
X134349000Y-91194000D01*
X134349000Y-92194000D01*
X133599000Y-92694000D01*
X133599000Y-90694000D01*
X133599000Y-90694000D01*
G37*
D18*
X141732000Y-105156000D03*
D19*
X141732000Y-107696000D03*
X141732000Y-110236000D03*
D11*
X139954000Y-95885000D03*
X142454000Y-95885000D03*
X120142000Y-100584000D03*
D10*
X120142000Y-110744000D03*
D11*
X117602000Y-88646000D03*
D10*
X127762000Y-88646000D03*
X112522000Y-110744000D03*
D11*
X112522000Y-100584000D03*
X116332000Y-100584000D03*
D10*
X116332000Y-110744000D03*
D11*
X130270000Y-99568000D03*
D20*
X128270000Y-99568000D03*
X136398000Y-98552000D03*
D11*
X134398000Y-98552000D03*
X139867000Y-100965000D03*
X142367000Y-100965000D03*
X127000000Y-94742000D03*
X127000000Y-92242000D03*
X142454000Y-89408000D03*
X139954000Y-89408000D03*
D21*
X103632000Y-88512000D03*
X103632000Y-91012000D03*
X103632000Y-93512000D03*
D22*
X103632000Y-96012000D03*
X103632000Y-109474000D03*
D21*
X103632000Y-106974000D03*
X103632000Y-104474000D03*
X103632000Y-101974000D03*
D23*
X149352000Y-106228000D03*
D24*
X149352000Y-109728000D03*
X149352000Y-91948000D03*
D23*
X149352000Y-88448000D03*
X149352000Y-97338000D03*
D24*
X149352000Y-100838000D03*
D25*
X123190000Y-93472000D03*
D26*
X120650000Y-93472000D03*
D27*
X110490000Y-88646000D03*
X110490000Y-87296000D03*
X110490000Y-89996000D03*
X113792000Y-89996000D03*
X113792000Y-87296000D03*
X113792000Y-88646000D03*
D28*
X158242000Y-96906000D03*
X158242000Y-100706000D03*
D29*
X152654000Y-95631000D03*
X109347000Y-106045000D03*
X110998000Y-103886000D03*
X117094000Y-109474000D03*
X146812000Y-108966000D03*
X129032000Y-92583000D03*
X129032000Y-91757500D03*
X129032000Y-90932000D03*
X153924000Y-90805000D03*
X105410000Y-105791000D03*
X105029000Y-103251000D03*
X108966000Y-98425000D03*
X112268000Y-102616000D03*
X137541000Y-101092000D03*
X112268000Y-88900000D03*
X111506000Y-91186000D03*
D30*
X117732001Y-101984001D02*
X130425999Y-101984001D01*
X116332000Y-100584000D02*
X117732001Y-101984001D01*
X130425999Y-101984001D02*
X132842000Y-99568000D01*
X112522000Y-100584000D02*
X116332000Y-100584000D01*
X108752000Y-106974000D02*
X108752000Y-106640000D01*
X108752000Y-106640000D02*
X109347000Y-106045000D01*
D31*
X113792000Y-87296000D02*
X110490000Y-87296000D01*
D30*
X143309001Y-103038371D02*
X143309001Y-108785999D01*
X143309001Y-108785999D02*
X141859000Y-110236000D01*
X141859000Y-110236000D02*
X148844000Y-110236000D01*
X148844000Y-110236000D02*
X149352000Y-109728000D01*
X123952000Y-110744000D02*
X141351000Y-110744000D01*
X141351000Y-110744000D02*
X141859000Y-110236000D01*
X142367000Y-100965000D02*
X142367000Y-102096370D01*
X142367000Y-102096370D02*
X143309001Y-103038371D01*
X114892001Y-95546999D02*
X114892001Y-87665999D01*
X111006613Y-99449613D02*
X110998000Y-99441000D01*
X110998000Y-103886000D02*
X110998000Y-99458226D01*
X114892001Y-95546999D02*
X111006613Y-99449613D01*
X110998000Y-99458226D02*
X111006613Y-99449613D01*
X114522002Y-87296000D02*
X114892001Y-87665999D01*
X113792000Y-87296000D02*
X114522002Y-87296000D01*
X112522000Y-110744000D02*
X108752000Y-106974000D01*
X108752000Y-106974000D02*
X103632000Y-106974000D01*
X113792000Y-89996000D02*
X113792000Y-95232774D01*
X113792000Y-95232774D02*
X109997992Y-99026782D01*
X109997992Y-99026782D02*
X109997992Y-104409992D01*
X109997992Y-104409992D02*
X110062000Y-104474000D01*
X110062000Y-104474000D02*
X103632000Y-104474000D01*
D31*
X110490000Y-89996000D02*
X113792000Y-89996000D01*
D30*
X138684000Y-108712000D02*
X140843000Y-108712000D01*
X140843000Y-108712000D02*
X141859000Y-107696000D01*
X122174000Y-108712000D02*
X138684000Y-108712000D01*
X120142000Y-110744000D02*
X122174000Y-108712000D01*
X138684000Y-108712000D02*
X138699990Y-108727990D01*
X158267400Y-96906000D02*
X153284000Y-96906000D01*
X153284000Y-96906000D02*
X149352000Y-100838000D01*
X110062000Y-104474000D02*
X116332000Y-110744000D01*
X120142000Y-110744000D02*
X116332000Y-110744000D01*
X149484000Y-100706000D02*
X149352000Y-100838000D01*
D31*
X113792000Y-88646000D02*
X112522000Y-88646000D01*
X112522000Y-88646000D02*
X112268000Y-88900000D01*
X106510806Y-91186000D02*
X111506000Y-91186000D01*
X104720999Y-92637001D02*
X105059805Y-92637001D01*
X105059805Y-92637001D02*
X106510806Y-91186000D01*
X103632000Y-93512000D02*
X104506999Y-92637001D01*
X104506999Y-92637001D02*
X104720999Y-92637001D01*
X108782000Y-88646000D02*
X110490000Y-88646000D01*
X103632000Y-91012000D02*
X104869436Y-91012000D01*
X104869436Y-91012000D02*
X107235436Y-88646000D01*
X107235436Y-88646000D02*
X108782000Y-88646000D01*
X120650000Y-93472000D02*
X120650000Y-91694000D01*
X120650000Y-91694000D02*
X117602000Y-88646000D01*
X103632000Y-101974000D02*
X109086000Y-96520000D01*
X109086000Y-96520000D02*
X109728000Y-96520000D01*
D32*
G36*
X153035000Y-86158606D02*
X153035000Y-96159229D01*
X152979269Y-96170315D01*
X152720931Y-96342931D01*
X152677359Y-96408141D01*
X150933000Y-98152500D01*
X150933000Y-97456250D01*
X150837750Y-97361000D01*
X149375000Y-97361000D01*
X149375000Y-98823750D01*
X149470250Y-98919000D01*
X150166500Y-98919000D01*
X149781046Y-99304454D01*
X149666481Y-99257000D01*
X149037519Y-99257000D01*
X148456435Y-99497693D01*
X148011693Y-99942435D01*
X147771000Y-100523519D01*
X147771000Y-101152481D01*
X148011693Y-101733565D01*
X148456435Y-102178307D01*
X149037519Y-102419000D01*
X149666481Y-102419000D01*
X150247565Y-102178307D01*
X150692307Y-101733565D01*
X150933000Y-101152481D01*
X150933000Y-100523519D01*
X150885546Y-100408954D01*
X153035000Y-98259500D01*
X153035000Y-107389394D01*
X152601394Y-107823000D01*
X145340606Y-107823000D01*
X144907000Y-107389394D01*
X144907000Y-106346250D01*
X147771000Y-106346250D01*
X147771000Y-107503786D01*
X147829004Y-107643820D01*
X147936181Y-107750996D01*
X148076215Y-107809000D01*
X149233750Y-107809000D01*
X149329000Y-107713750D01*
X149329000Y-106251000D01*
X149375000Y-106251000D01*
X149375000Y-107713750D01*
X149470250Y-107809000D01*
X150627785Y-107809000D01*
X150767819Y-107750996D01*
X150874996Y-107643820D01*
X150933000Y-107503786D01*
X150933000Y-106346250D01*
X150837750Y-106251000D01*
X149375000Y-106251000D01*
X149329000Y-106251000D01*
X147866250Y-106251000D01*
X147771000Y-106346250D01*
X144907000Y-106346250D01*
X144907000Y-104952214D01*
X147771000Y-104952214D01*
X147771000Y-106109750D01*
X147866250Y-106205000D01*
X149329000Y-106205000D01*
X149329000Y-104742250D01*
X149375000Y-104742250D01*
X149375000Y-106205000D01*
X150837750Y-106205000D01*
X150933000Y-106109750D01*
X150933000Y-104952214D01*
X150874996Y-104812180D01*
X150767819Y-104705004D01*
X150627785Y-104647000D01*
X149470250Y-104647000D01*
X149375000Y-104742250D01*
X149329000Y-104742250D01*
X149233750Y-104647000D01*
X148076215Y-104647000D01*
X147936181Y-104705004D01*
X147829004Y-104812180D01*
X147771000Y-104952214D01*
X144907000Y-104952214D01*
X144907000Y-100584000D01*
X144897333Y-100535399D01*
X144869803Y-100494197D01*
X144361803Y-99986197D01*
X144320601Y-99958667D01*
X144272000Y-99949000D01*
X143000260Y-99949000D01*
X142601915Y-99784000D01*
X142132085Y-99784000D01*
X141733740Y-99949000D01*
X140500260Y-99949000D01*
X140101915Y-99784000D01*
X139632085Y-99784000D01*
X139233740Y-99949000D01*
X132894606Y-99949000D01*
X132461000Y-99515394D01*
X132461000Y-98317085D01*
X133217000Y-98317085D01*
X133217000Y-98786915D01*
X133396797Y-99220983D01*
X133729017Y-99553203D01*
X134163085Y-99733000D01*
X134632915Y-99733000D01*
X135066983Y-99553203D01*
X135217000Y-99403186D01*
X135217000Y-99427785D01*
X135275004Y-99567819D01*
X135382180Y-99674996D01*
X135522214Y-99733000D01*
X136279750Y-99733000D01*
X136375000Y-99637750D01*
X136375000Y-98575000D01*
X136421000Y-98575000D01*
X136421000Y-99637750D01*
X136516250Y-99733000D01*
X137273786Y-99733000D01*
X137413820Y-99674996D01*
X137520996Y-99567819D01*
X137579000Y-99427785D01*
X137579000Y-98670250D01*
X137483750Y-98575000D01*
X136421000Y-98575000D01*
X136375000Y-98575000D01*
X136355000Y-98575000D01*
X136355000Y-98529000D01*
X136375000Y-98529000D01*
X136375000Y-97466250D01*
X136421000Y-97466250D01*
X136421000Y-98529000D01*
X137483750Y-98529000D01*
X137579000Y-98433750D01*
X137579000Y-97676215D01*
X137520996Y-97536181D01*
X137441066Y-97456250D01*
X147771000Y-97456250D01*
X147771000Y-98613786D01*
X147829004Y-98753820D01*
X147936181Y-98860996D01*
X148076215Y-98919000D01*
X149233750Y-98919000D01*
X149329000Y-98823750D01*
X149329000Y-97361000D01*
X147866250Y-97361000D01*
X147771000Y-97456250D01*
X137441066Y-97456250D01*
X137413820Y-97429004D01*
X137273786Y-97371000D01*
X136516250Y-97371000D01*
X136421000Y-97466250D01*
X136375000Y-97466250D01*
X136279750Y-97371000D01*
X135522214Y-97371000D01*
X135382180Y-97429004D01*
X135275004Y-97536181D01*
X135217000Y-97676215D01*
X135217000Y-97700814D01*
X135066983Y-97550797D01*
X134632915Y-97371000D01*
X134163085Y-97371000D01*
X133729017Y-97550797D01*
X133396797Y-97883017D01*
X133217000Y-98317085D01*
X132461000Y-98317085D01*
X132461000Y-95650085D01*
X138773000Y-95650085D01*
X138773000Y-96119915D01*
X138952797Y-96553983D01*
X139285017Y-96886203D01*
X139719085Y-97066000D01*
X140188915Y-97066000D01*
X140622983Y-96886203D01*
X140955203Y-96553983D01*
X141135000Y-96119915D01*
X141135000Y-95650085D01*
X141273000Y-95650085D01*
X141273000Y-96119915D01*
X141452797Y-96553983D01*
X141785017Y-96886203D01*
X142219085Y-97066000D01*
X142688915Y-97066000D01*
X143122983Y-96886203D01*
X143455203Y-96553983D01*
X143635000Y-96119915D01*
X143635000Y-96062214D01*
X147771000Y-96062214D01*
X147771000Y-97219750D01*
X147866250Y-97315000D01*
X149329000Y-97315000D01*
X149329000Y-95852250D01*
X149375000Y-95852250D01*
X149375000Y-97315000D01*
X150837750Y-97315000D01*
X150933000Y-97219750D01*
X150933000Y-96062214D01*
X150874996Y-95922180D01*
X150767819Y-95815004D01*
X150627785Y-95757000D01*
X149470250Y-95757000D01*
X149375000Y-95852250D01*
X149329000Y-95852250D01*
X149233750Y-95757000D01*
X148076215Y-95757000D01*
X147936181Y-95815004D01*
X147829004Y-95922180D01*
X147771000Y-96062214D01*
X143635000Y-96062214D01*
X143635000Y-95650085D01*
X143455203Y-95216017D01*
X143122983Y-94883797D01*
X142688915Y-94704000D01*
X142219085Y-94704000D01*
X141785017Y-94883797D01*
X141452797Y-95216017D01*
X141273000Y-95650085D01*
X141135000Y-95650085D01*
X140955203Y-95216017D01*
X140622983Y-94883797D01*
X140188915Y-94704000D01*
X139719085Y-94704000D01*
X139285017Y-94883797D01*
X138952797Y-95216017D01*
X138773000Y-95650085D01*
X132461000Y-95650085D01*
X132461000Y-94996000D01*
X132651500Y-94742000D01*
X136779000Y-94742000D01*
X136924802Y-94712998D01*
X137048408Y-94630408D01*
X137302408Y-94376408D01*
X137384998Y-94252802D01*
X137414000Y-94107000D01*
X137414000Y-92837000D01*
X137384998Y-92691198D01*
X137302408Y-92567592D01*
X137160000Y-92425184D01*
X137160000Y-92391889D01*
X137192894Y-92342659D01*
X137222464Y-92194000D01*
X137222464Y-91633519D01*
X147771000Y-91633519D01*
X147771000Y-92262481D01*
X148011693Y-92843565D01*
X148456435Y-93288307D01*
X149037519Y-93529000D01*
X149666481Y-93529000D01*
X150247565Y-93288307D01*
X150692307Y-92843565D01*
X150933000Y-92262481D01*
X150933000Y-91633519D01*
X150692307Y-91052435D01*
X150247565Y-90607693D01*
X149666481Y-90367000D01*
X149037519Y-90367000D01*
X148456435Y-90607693D01*
X148011693Y-91052435D01*
X147771000Y-91633519D01*
X137222464Y-91633519D01*
X137222464Y-91194000D01*
X137192894Y-91045341D01*
X137108686Y-90919314D01*
X136982659Y-90835106D01*
X136834000Y-90805536D01*
X136781695Y-90805536D01*
X136779000Y-90805000D01*
X134465814Y-90805000D01*
X134375069Y-90744504D01*
X133928147Y-90208196D01*
X139186331Y-90208196D01*
X139264963Y-90395509D01*
X139695316Y-90584023D01*
X140165051Y-90593498D01*
X140602656Y-90422492D01*
X140643037Y-90395509D01*
X140721669Y-90208196D01*
X139954000Y-89440527D01*
X139186331Y-90208196D01*
X133928147Y-90208196D01*
X133828564Y-90088697D01*
X133790024Y-90057549D01*
X133731000Y-90043000D01*
X127052606Y-90043000D01*
X126619000Y-89609394D01*
X126619000Y-88923328D01*
X126793212Y-89321437D01*
X127125435Y-89640762D01*
X127554569Y-89808643D01*
X127739000Y-89731528D01*
X127739000Y-88669000D01*
X127785000Y-88669000D01*
X127785000Y-89731528D01*
X127969431Y-89808643D01*
X128398565Y-89640762D01*
X128421152Y-89619051D01*
X138768502Y-89619051D01*
X138939508Y-90056656D01*
X138966491Y-90097037D01*
X139153804Y-90175669D01*
X139921473Y-89408000D01*
X139986527Y-89408000D01*
X140754196Y-90175669D01*
X140941509Y-90097037D01*
X141130023Y-89666684D01*
X141139498Y-89196949D01*
X141130173Y-89173085D01*
X141273000Y-89173085D01*
X141273000Y-89642915D01*
X141452797Y-90076983D01*
X141785017Y-90409203D01*
X142219085Y-90589000D01*
X142688915Y-90589000D01*
X143122983Y-90409203D01*
X143455203Y-90076983D01*
X143635000Y-89642915D01*
X143635000Y-89173085D01*
X143455203Y-88739017D01*
X143282436Y-88566250D01*
X147771000Y-88566250D01*
X147771000Y-89723786D01*
X147829004Y-89863820D01*
X147936181Y-89970996D01*
X148076215Y-90029000D01*
X149233750Y-90029000D01*
X149329000Y-89933750D01*
X149329000Y-88471000D01*
X149375000Y-88471000D01*
X149375000Y-89933750D01*
X149470250Y-90029000D01*
X150627785Y-90029000D01*
X150767819Y-89970996D01*
X150874996Y-89863820D01*
X150933000Y-89723786D01*
X150933000Y-88566250D01*
X150837750Y-88471000D01*
X149375000Y-88471000D01*
X149329000Y-88471000D01*
X147866250Y-88471000D01*
X147771000Y-88566250D01*
X143282436Y-88566250D01*
X143122983Y-88406797D01*
X142688915Y-88227000D01*
X142219085Y-88227000D01*
X141785017Y-88406797D01*
X141452797Y-88739017D01*
X141273000Y-89173085D01*
X141130173Y-89173085D01*
X140968492Y-88759344D01*
X140941509Y-88718963D01*
X140754196Y-88640331D01*
X139986527Y-89408000D01*
X139921473Y-89408000D01*
X139153804Y-88640331D01*
X138966491Y-88718963D01*
X138777977Y-89149316D01*
X138768502Y-89619051D01*
X128421152Y-89619051D01*
X128730788Y-89321437D01*
X128915522Y-88899283D01*
X128924641Y-88853431D01*
X128847506Y-88669000D01*
X127785000Y-88669000D01*
X127739000Y-88669000D01*
X127719000Y-88669000D01*
X127719000Y-88623000D01*
X127739000Y-88623000D01*
X127739000Y-87560472D01*
X127785000Y-87560472D01*
X127785000Y-88623000D01*
X128847506Y-88623000D01*
X128853861Y-88607804D01*
X139186331Y-88607804D01*
X139954000Y-89375473D01*
X140721669Y-88607804D01*
X140643037Y-88420491D01*
X140212684Y-88231977D01*
X139742949Y-88222502D01*
X139305344Y-88393508D01*
X139264963Y-88420491D01*
X139186331Y-88607804D01*
X128853861Y-88607804D01*
X128924641Y-88438569D01*
X128915522Y-88392717D01*
X128730788Y-87970563D01*
X128398565Y-87651238D01*
X127969431Y-87483357D01*
X127785000Y-87560472D01*
X127739000Y-87560472D01*
X127554569Y-87483357D01*
X127125435Y-87651238D01*
X126793212Y-87970563D01*
X126619000Y-88368672D01*
X126619000Y-87172214D01*
X147771000Y-87172214D01*
X147771000Y-88329750D01*
X147866250Y-88425000D01*
X149329000Y-88425000D01*
X149329000Y-86962250D01*
X149375000Y-86962250D01*
X149375000Y-88425000D01*
X150837750Y-88425000D01*
X150933000Y-88329750D01*
X150933000Y-87172214D01*
X150874996Y-87032180D01*
X150767819Y-86925004D01*
X150627785Y-86867000D01*
X149470250Y-86867000D01*
X149375000Y-86962250D01*
X149329000Y-86962250D01*
X149233750Y-86867000D01*
X148076215Y-86867000D01*
X147936181Y-86925004D01*
X147829004Y-87032180D01*
X147771000Y-87172214D01*
X126619000Y-87172214D01*
X126619000Y-86158606D01*
X126748606Y-86029000D01*
X152905394Y-86029000D01*
X153035000Y-86158606D01*
X153035000Y-86158606D01*
G37*
X153035000Y-86158606D02*
X153035000Y-96159229D01*
X152979269Y-96170315D01*
X152720931Y-96342931D01*
X152677359Y-96408141D01*
X150933000Y-98152500D01*
X150933000Y-97456250D01*
X150837750Y-97361000D01*
X149375000Y-97361000D01*
X149375000Y-98823750D01*
X149470250Y-98919000D01*
X150166500Y-98919000D01*
X149781046Y-99304454D01*
X149666481Y-99257000D01*
X149037519Y-99257000D01*
X148456435Y-99497693D01*
X148011693Y-99942435D01*
X147771000Y-100523519D01*
X147771000Y-101152481D01*
X148011693Y-101733565D01*
X148456435Y-102178307D01*
X149037519Y-102419000D01*
X149666481Y-102419000D01*
X150247565Y-102178307D01*
X150692307Y-101733565D01*
X150933000Y-101152481D01*
X150933000Y-100523519D01*
X150885546Y-100408954D01*
X153035000Y-98259500D01*
X153035000Y-107389394D01*
X152601394Y-107823000D01*
X145340606Y-107823000D01*
X144907000Y-107389394D01*
X144907000Y-106346250D01*
X147771000Y-106346250D01*
X147771000Y-107503786D01*
X147829004Y-107643820D01*
X147936181Y-107750996D01*
X148076215Y-107809000D01*
X149233750Y-107809000D01*
X149329000Y-107713750D01*
X149329000Y-106251000D01*
X149375000Y-106251000D01*
X149375000Y-107713750D01*
X149470250Y-107809000D01*
X150627785Y-107809000D01*
X150767819Y-107750996D01*
X150874996Y-107643820D01*
X150933000Y-107503786D01*
X150933000Y-106346250D01*
X150837750Y-106251000D01*
X149375000Y-106251000D01*
X149329000Y-106251000D01*
X147866250Y-106251000D01*
X147771000Y-106346250D01*
X144907000Y-106346250D01*
X144907000Y-104952214D01*
X147771000Y-104952214D01*
X147771000Y-106109750D01*
X147866250Y-106205000D01*
X149329000Y-106205000D01*
X149329000Y-104742250D01*
X149375000Y-104742250D01*
X149375000Y-106205000D01*
X150837750Y-106205000D01*
X150933000Y-106109750D01*
X150933000Y-104952214D01*
X150874996Y-104812180D01*
X150767819Y-104705004D01*
X150627785Y-104647000D01*
X149470250Y-104647000D01*
X149375000Y-104742250D01*
X149329000Y-104742250D01*
X149233750Y-104647000D01*
X148076215Y-104647000D01*
X147936181Y-104705004D01*
X147829004Y-104812180D01*
X147771000Y-104952214D01*
X144907000Y-104952214D01*
X144907000Y-100584000D01*
X144897333Y-100535399D01*
X144869803Y-100494197D01*
X144361803Y-99986197D01*
X144320601Y-99958667D01*
X144272000Y-99949000D01*
X143000260Y-99949000D01*
X142601915Y-99784000D01*
X142132085Y-99784000D01*
X141733740Y-99949000D01*
X140500260Y-99949000D01*
X140101915Y-99784000D01*
X139632085Y-99784000D01*
X139233740Y-99949000D01*
X132894606Y-99949000D01*
X132461000Y-99515394D01*
X132461000Y-98317085D01*
X133217000Y-98317085D01*
X133217000Y-98786915D01*
X133396797Y-99220983D01*
X133729017Y-99553203D01*
X134163085Y-99733000D01*
X134632915Y-99733000D01*
X135066983Y-99553203D01*
X135217000Y-99403186D01*
X135217000Y-99427785D01*
X135275004Y-99567819D01*
X135382180Y-99674996D01*
X135522214Y-99733000D01*
X136279750Y-99733000D01*
X136375000Y-99637750D01*
X136375000Y-98575000D01*
X136421000Y-98575000D01*
X136421000Y-99637750D01*
X136516250Y-99733000D01*
X137273786Y-99733000D01*
X137413820Y-99674996D01*
X137520996Y-99567819D01*
X137579000Y-99427785D01*
X137579000Y-98670250D01*
X137483750Y-98575000D01*
X136421000Y-98575000D01*
X136375000Y-98575000D01*
X136355000Y-98575000D01*
X136355000Y-98529000D01*
X136375000Y-98529000D01*
X136375000Y-97466250D01*
X136421000Y-97466250D01*
X136421000Y-98529000D01*
X137483750Y-98529000D01*
X137579000Y-98433750D01*
X137579000Y-97676215D01*
X137520996Y-97536181D01*
X137441066Y-97456250D01*
X147771000Y-97456250D01*
X147771000Y-98613786D01*
X147829004Y-98753820D01*
X147936181Y-98860996D01*
X148076215Y-98919000D01*
X149233750Y-98919000D01*
X149329000Y-98823750D01*
X149329000Y-97361000D01*
X147866250Y-97361000D01*
X147771000Y-97456250D01*
X137441066Y-97456250D01*
X137413820Y-97429004D01*
X137273786Y-97371000D01*
X136516250Y-97371000D01*
X136421000Y-97466250D01*
X136375000Y-97466250D01*
X136279750Y-97371000D01*
X135522214Y-97371000D01*
X135382180Y-97429004D01*
X135275004Y-97536181D01*
X135217000Y-97676215D01*
X135217000Y-97700814D01*
X135066983Y-97550797D01*
X134632915Y-97371000D01*
X134163085Y-97371000D01*
X133729017Y-97550797D01*
X133396797Y-97883017D01*
X133217000Y-98317085D01*
X132461000Y-98317085D01*
X132461000Y-95650085D01*
X138773000Y-95650085D01*
X138773000Y-96119915D01*
X138952797Y-96553983D01*
X139285017Y-96886203D01*
X139719085Y-97066000D01*
X140188915Y-97066000D01*
X140622983Y-96886203D01*
X140955203Y-96553983D01*
X141135000Y-96119915D01*
X141135000Y-95650085D01*
X141273000Y-95650085D01*
X141273000Y-96119915D01*
X141452797Y-96553983D01*
X141785017Y-96886203D01*
X142219085Y-97066000D01*
X142688915Y-97066000D01*
X143122983Y-96886203D01*
X143455203Y-96553983D01*
X143635000Y-96119915D01*
X143635000Y-96062214D01*
X147771000Y-96062214D01*
X147771000Y-97219750D01*
X147866250Y-97315000D01*
X149329000Y-97315000D01*
X149329000Y-95852250D01*
X149375000Y-95852250D01*
X149375000Y-97315000D01*
X150837750Y-97315000D01*
X150933000Y-97219750D01*
X150933000Y-96062214D01*
X150874996Y-95922180D01*
X150767819Y-95815004D01*
X150627785Y-95757000D01*
X149470250Y-95757000D01*
X149375000Y-95852250D01*
X149329000Y-95852250D01*
X149233750Y-95757000D01*
X148076215Y-95757000D01*
X147936181Y-95815004D01*
X147829004Y-95922180D01*
X147771000Y-96062214D01*
X143635000Y-96062214D01*
X143635000Y-95650085D01*
X143455203Y-95216017D01*
X143122983Y-94883797D01*
X142688915Y-94704000D01*
X142219085Y-94704000D01*
X141785017Y-94883797D01*
X141452797Y-95216017D01*
X141273000Y-95650085D01*
X141135000Y-95650085D01*
X140955203Y-95216017D01*
X140622983Y-94883797D01*
X140188915Y-94704000D01*
X139719085Y-94704000D01*
X139285017Y-94883797D01*
X138952797Y-95216017D01*
X138773000Y-95650085D01*
X132461000Y-95650085D01*
X132461000Y-94996000D01*
X132651500Y-94742000D01*
X136779000Y-94742000D01*
X136924802Y-94712998D01*
X137048408Y-94630408D01*
X137302408Y-94376408D01*
X137384998Y-94252802D01*
X137414000Y-94107000D01*
X137414000Y-92837000D01*
X137384998Y-92691198D01*
X137302408Y-92567592D01*
X137160000Y-92425184D01*
X137160000Y-92391889D01*
X137192894Y-92342659D01*
X137222464Y-92194000D01*
X137222464Y-91633519D01*
X147771000Y-91633519D01*
X147771000Y-92262481D01*
X148011693Y-92843565D01*
X148456435Y-93288307D01*
X149037519Y-93529000D01*
X149666481Y-93529000D01*
X150247565Y-93288307D01*
X150692307Y-92843565D01*
X150933000Y-92262481D01*
X150933000Y-91633519D01*
X150692307Y-91052435D01*
X150247565Y-90607693D01*
X149666481Y-90367000D01*
X149037519Y-90367000D01*
X148456435Y-90607693D01*
X148011693Y-91052435D01*
X147771000Y-91633519D01*
X137222464Y-91633519D01*
X137222464Y-91194000D01*
X137192894Y-91045341D01*
X137108686Y-90919314D01*
X136982659Y-90835106D01*
X136834000Y-90805536D01*
X136781695Y-90805536D01*
X136779000Y-90805000D01*
X134465814Y-90805000D01*
X134375069Y-90744504D01*
X133928147Y-90208196D01*
X139186331Y-90208196D01*
X139264963Y-90395509D01*
X139695316Y-90584023D01*
X140165051Y-90593498D01*
X140602656Y-90422492D01*
X140643037Y-90395509D01*
X140721669Y-90208196D01*
X139954000Y-89440527D01*
X139186331Y-90208196D01*
X133928147Y-90208196D01*
X133828564Y-90088697D01*
X133790024Y-90057549D01*
X133731000Y-90043000D01*
X127052606Y-90043000D01*
X126619000Y-89609394D01*
X126619000Y-88923328D01*
X126793212Y-89321437D01*
X127125435Y-89640762D01*
X127554569Y-89808643D01*
X127739000Y-89731528D01*
X127739000Y-88669000D01*
X127785000Y-88669000D01*
X127785000Y-89731528D01*
X127969431Y-89808643D01*
X128398565Y-89640762D01*
X128421152Y-89619051D01*
X138768502Y-89619051D01*
X138939508Y-90056656D01*
X138966491Y-90097037D01*
X139153804Y-90175669D01*
X139921473Y-89408000D01*
X139986527Y-89408000D01*
X140754196Y-90175669D01*
X140941509Y-90097037D01*
X141130023Y-89666684D01*
X141139498Y-89196949D01*
X141130173Y-89173085D01*
X141273000Y-89173085D01*
X141273000Y-89642915D01*
X141452797Y-90076983D01*
X141785017Y-90409203D01*
X142219085Y-90589000D01*
X142688915Y-90589000D01*
X143122983Y-90409203D01*
X143455203Y-90076983D01*
X143635000Y-89642915D01*
X143635000Y-89173085D01*
X143455203Y-88739017D01*
X143282436Y-88566250D01*
X147771000Y-88566250D01*
X147771000Y-89723786D01*
X147829004Y-89863820D01*
X147936181Y-89970996D01*
X148076215Y-90029000D01*
X149233750Y-90029000D01*
X149329000Y-89933750D01*
X149329000Y-88471000D01*
X149375000Y-88471000D01*
X149375000Y-89933750D01*
X149470250Y-90029000D01*
X150627785Y-90029000D01*
X150767819Y-89970996D01*
X150874996Y-89863820D01*
X150933000Y-89723786D01*
X150933000Y-88566250D01*
X150837750Y-88471000D01*
X149375000Y-88471000D01*
X149329000Y-88471000D01*
X147866250Y-88471000D01*
X147771000Y-88566250D01*
X143282436Y-88566250D01*
X143122983Y-88406797D01*
X142688915Y-88227000D01*
X142219085Y-88227000D01*
X141785017Y-88406797D01*
X141452797Y-88739017D01*
X141273000Y-89173085D01*
X141130173Y-89173085D01*
X140968492Y-88759344D01*
X140941509Y-88718963D01*
X140754196Y-88640331D01*
X139986527Y-89408000D01*
X139921473Y-89408000D01*
X139153804Y-88640331D01*
X138966491Y-88718963D01*
X138777977Y-89149316D01*
X138768502Y-89619051D01*
X128421152Y-89619051D01*
X128730788Y-89321437D01*
X128915522Y-88899283D01*
X128924641Y-88853431D01*
X128847506Y-88669000D01*
X127785000Y-88669000D01*
X127739000Y-88669000D01*
X127719000Y-88669000D01*
X127719000Y-88623000D01*
X127739000Y-88623000D01*
X127739000Y-87560472D01*
X127785000Y-87560472D01*
X127785000Y-88623000D01*
X128847506Y-88623000D01*
X128853861Y-88607804D01*
X139186331Y-88607804D01*
X139954000Y-89375473D01*
X140721669Y-88607804D01*
X140643037Y-88420491D01*
X140212684Y-88231977D01*
X139742949Y-88222502D01*
X139305344Y-88393508D01*
X139264963Y-88420491D01*
X139186331Y-88607804D01*
X128853861Y-88607804D01*
X128924641Y-88438569D01*
X128915522Y-88392717D01*
X128730788Y-87970563D01*
X128398565Y-87651238D01*
X127969431Y-87483357D01*
X127785000Y-87560472D01*
X127739000Y-87560472D01*
X127554569Y-87483357D01*
X127125435Y-87651238D01*
X126793212Y-87970563D01*
X126619000Y-88368672D01*
X126619000Y-87172214D01*
X147771000Y-87172214D01*
X147771000Y-88329750D01*
X147866250Y-88425000D01*
X149329000Y-88425000D01*
X149329000Y-86962250D01*
X149375000Y-86962250D01*
X149375000Y-88425000D01*
X150837750Y-88425000D01*
X150933000Y-88329750D01*
X150933000Y-87172214D01*
X150874996Y-87032180D01*
X150767819Y-86925004D01*
X150627785Y-86867000D01*
X149470250Y-86867000D01*
X149375000Y-86962250D01*
X149329000Y-86962250D01*
X149233750Y-86867000D01*
X148076215Y-86867000D01*
X147936181Y-86925004D01*
X147829004Y-87032180D01*
X147771000Y-87172214D01*
X126619000Y-87172214D01*
X126619000Y-86158606D01*
X126748606Y-86029000D01*
X152905394Y-86029000D01*
X153035000Y-86158606D01*
G36*
X119253000Y-91619606D02*
X119253000Y-92964000D01*
X119262667Y-93012601D01*
X119290197Y-93053803D01*
X119393775Y-93157381D01*
X119369000Y-93217193D01*
X119369000Y-93726807D01*
X119564021Y-94197628D01*
X119924372Y-94557979D01*
X120395193Y-94753000D01*
X120904807Y-94753000D01*
X121375628Y-94557979D01*
X121735979Y-94197628D01*
X121901536Y-93797939D01*
X121901536Y-94372000D01*
X121931106Y-94520659D01*
X122015314Y-94646686D01*
X122141341Y-94730894D01*
X122290000Y-94760464D01*
X124090000Y-94760464D01*
X124238659Y-94730894D01*
X124364686Y-94646686D01*
X124448894Y-94520659D01*
X124478464Y-94372000D01*
X124478464Y-93941804D01*
X126232331Y-93941804D01*
X127000000Y-94709473D01*
X127767669Y-93941804D01*
X127689037Y-93754491D01*
X127258684Y-93565977D01*
X126788949Y-93556502D01*
X126351344Y-93727508D01*
X126310963Y-93754491D01*
X126232331Y-93941804D01*
X124478464Y-93941804D01*
X124478464Y-93389046D01*
X126732585Y-93409538D01*
X126765085Y-93423000D01*
X127234915Y-93423000D01*
X127255929Y-93414296D01*
X133602846Y-93471995D01*
X133651532Y-93462770D01*
X133693803Y-93434803D01*
X134418606Y-92710000D01*
X136726394Y-92710000D01*
X136906000Y-92889606D01*
X136906000Y-94054394D01*
X136726394Y-94234000D01*
X132461000Y-94234000D01*
X132412399Y-94243667D01*
X132359400Y-94284800D01*
X131978400Y-94792800D01*
X131956973Y-94837481D01*
X131953000Y-94869000D01*
X131953000Y-99352499D01*
X131414524Y-99890975D01*
X131451000Y-99802915D01*
X131451000Y-99333085D01*
X131271203Y-98899017D01*
X130938983Y-98566797D01*
X130504915Y-98387000D01*
X130035085Y-98387000D01*
X129601017Y-98566797D01*
X129451000Y-98716814D01*
X129451000Y-98692215D01*
X129392996Y-98552181D01*
X129285820Y-98445004D01*
X129145786Y-98387000D01*
X128388250Y-98387000D01*
X128293000Y-98482250D01*
X128293000Y-99545000D01*
X128313000Y-99545000D01*
X128313000Y-99591000D01*
X128293000Y-99591000D01*
X128293000Y-99611000D01*
X128247000Y-99611000D01*
X128247000Y-99591000D01*
X127184250Y-99591000D01*
X127089000Y-99686250D01*
X127089000Y-100443785D01*
X127147004Y-100583819D01*
X127147185Y-100584000D01*
X125156137Y-100584000D01*
X125064478Y-100123197D01*
X124803453Y-99732547D01*
X124412803Y-99471522D01*
X124068318Y-99403000D01*
X123835682Y-99403000D01*
X123491197Y-99471522D01*
X123100547Y-99732547D01*
X122839522Y-100123197D01*
X122747863Y-100584000D01*
X121323000Y-100584000D01*
X121323000Y-100349085D01*
X121143203Y-99915017D01*
X120810983Y-99582797D01*
X120376915Y-99403000D01*
X119907085Y-99403000D01*
X119473017Y-99582797D01*
X119140797Y-99915017D01*
X118961000Y-100349085D01*
X118961000Y-100584000D01*
X117513000Y-100584000D01*
X117513000Y-100349085D01*
X117333203Y-99915017D01*
X117000983Y-99582797D01*
X116566915Y-99403000D01*
X116205000Y-99403000D01*
X116205000Y-98692215D01*
X127089000Y-98692215D01*
X127089000Y-99449750D01*
X127184250Y-99545000D01*
X128247000Y-99545000D01*
X128247000Y-98482250D01*
X128151750Y-98387000D01*
X127394214Y-98387000D01*
X127254180Y-98445004D01*
X127147004Y-98552181D01*
X127089000Y-98692215D01*
X116205000Y-98692215D01*
X116205000Y-98001000D01*
X117229750Y-98001000D01*
X117325000Y-97905750D01*
X117325000Y-96543000D01*
X117371000Y-96543000D01*
X117371000Y-97905750D01*
X117466250Y-98001000D01*
X118523786Y-98001000D01*
X118663820Y-97942996D01*
X118770996Y-97835819D01*
X118829000Y-97695785D01*
X118829000Y-96638250D01*
X118733750Y-96543000D01*
X117371000Y-96543000D01*
X117325000Y-96543000D01*
X117305000Y-96543000D01*
X117305000Y-96497000D01*
X117325000Y-96497000D01*
X117325000Y-95134250D01*
X117371000Y-95134250D01*
X117371000Y-96497000D01*
X118733750Y-96497000D01*
X118829000Y-96401750D01*
X118829000Y-95542196D01*
X126232331Y-95542196D01*
X126310963Y-95729509D01*
X126741316Y-95918023D01*
X127211051Y-95927498D01*
X127648656Y-95756492D01*
X127689037Y-95729509D01*
X127767669Y-95542196D01*
X127000000Y-94774527D01*
X126232331Y-95542196D01*
X118829000Y-95542196D01*
X118829000Y-95344215D01*
X118770996Y-95204181D01*
X118663820Y-95097004D01*
X118523786Y-95039000D01*
X117466250Y-95039000D01*
X117371000Y-95134250D01*
X117325000Y-95134250D01*
X117229750Y-95039000D01*
X116205000Y-95039000D01*
X116205000Y-94953051D01*
X125814502Y-94953051D01*
X125985508Y-95390656D01*
X126012491Y-95431037D01*
X126199804Y-95509669D01*
X126967473Y-94742000D01*
X127032527Y-94742000D01*
X127800196Y-95509669D01*
X127987509Y-95431037D01*
X128176023Y-95000684D01*
X128185498Y-94530949D01*
X128014492Y-94093344D01*
X127987509Y-94052963D01*
X127800196Y-93974331D01*
X127032527Y-94742000D01*
X126967473Y-94742000D01*
X126199804Y-93974331D01*
X126012491Y-94052963D01*
X125823977Y-94483316D01*
X125814502Y-94953051D01*
X116205000Y-94953051D01*
X116205000Y-94699000D01*
X117229750Y-94699000D01*
X117325000Y-94603750D01*
X117325000Y-93241000D01*
X117371000Y-93241000D01*
X117371000Y-94603750D01*
X117466250Y-94699000D01*
X118523786Y-94699000D01*
X118663820Y-94640996D01*
X118770996Y-94533819D01*
X118829000Y-94393785D01*
X118829000Y-93336250D01*
X118733750Y-93241000D01*
X117371000Y-93241000D01*
X117325000Y-93241000D01*
X117305000Y-93241000D01*
X117305000Y-93195000D01*
X117325000Y-93195000D01*
X117325000Y-91832250D01*
X117371000Y-91832250D01*
X117371000Y-93195000D01*
X118733750Y-93195000D01*
X118829000Y-93099750D01*
X118829000Y-92042215D01*
X118770996Y-91902181D01*
X118663820Y-91795004D01*
X118523786Y-91737000D01*
X117466250Y-91737000D01*
X117371000Y-91832250D01*
X117325000Y-91832250D01*
X117229750Y-91737000D01*
X116205000Y-91737000D01*
X116205000Y-91619606D01*
X116384606Y-91440000D01*
X119073394Y-91440000D01*
X119253000Y-91619606D01*
X119253000Y-91619606D01*
G37*
X119253000Y-91619606D02*
X119253000Y-92964000D01*
X119262667Y-93012601D01*
X119290197Y-93053803D01*
X119393775Y-93157381D01*
X119369000Y-93217193D01*
X119369000Y-93726807D01*
X119564021Y-94197628D01*
X119924372Y-94557979D01*
X120395193Y-94753000D01*
X120904807Y-94753000D01*
X121375628Y-94557979D01*
X121735979Y-94197628D01*
X121901536Y-93797939D01*
X121901536Y-94372000D01*
X121931106Y-94520659D01*
X122015314Y-94646686D01*
X122141341Y-94730894D01*
X122290000Y-94760464D01*
X124090000Y-94760464D01*
X124238659Y-94730894D01*
X124364686Y-94646686D01*
X124448894Y-94520659D01*
X124478464Y-94372000D01*
X124478464Y-93941804D01*
X126232331Y-93941804D01*
X127000000Y-94709473D01*
X127767669Y-93941804D01*
X127689037Y-93754491D01*
X127258684Y-93565977D01*
X126788949Y-93556502D01*
X126351344Y-93727508D01*
X126310963Y-93754491D01*
X126232331Y-93941804D01*
X124478464Y-93941804D01*
X124478464Y-93389046D01*
X126732585Y-93409538D01*
X126765085Y-93423000D01*
X127234915Y-93423000D01*
X127255929Y-93414296D01*
X133602846Y-93471995D01*
X133651532Y-93462770D01*
X133693803Y-93434803D01*
X134418606Y-92710000D01*
X136726394Y-92710000D01*
X136906000Y-92889606D01*
X136906000Y-94054394D01*
X136726394Y-94234000D01*
X132461000Y-94234000D01*
X132412399Y-94243667D01*
X132359400Y-94284800D01*
X131978400Y-94792800D01*
X131956973Y-94837481D01*
X131953000Y-94869000D01*
X131953000Y-99352499D01*
X131414524Y-99890975D01*
X131451000Y-99802915D01*
X131451000Y-99333085D01*
X131271203Y-98899017D01*
X130938983Y-98566797D01*
X130504915Y-98387000D01*
X130035085Y-98387000D01*
X129601017Y-98566797D01*
X129451000Y-98716814D01*
X129451000Y-98692215D01*
X129392996Y-98552181D01*
X129285820Y-98445004D01*
X129145786Y-98387000D01*
X128388250Y-98387000D01*
X128293000Y-98482250D01*
X128293000Y-99545000D01*
X128313000Y-99545000D01*
X128313000Y-99591000D01*
X128293000Y-99591000D01*
X128293000Y-99611000D01*
X128247000Y-99611000D01*
X128247000Y-99591000D01*
X127184250Y-99591000D01*
X127089000Y-99686250D01*
X127089000Y-100443785D01*
X127147004Y-100583819D01*
X127147185Y-100584000D01*
X125156137Y-100584000D01*
X125064478Y-100123197D01*
X124803453Y-99732547D01*
X124412803Y-99471522D01*
X124068318Y-99403000D01*
X123835682Y-99403000D01*
X123491197Y-99471522D01*
X123100547Y-99732547D01*
X122839522Y-100123197D01*
X122747863Y-100584000D01*
X121323000Y-100584000D01*
X121323000Y-100349085D01*
X121143203Y-99915017D01*
X120810983Y-99582797D01*
X120376915Y-99403000D01*
X119907085Y-99403000D01*
X119473017Y-99582797D01*
X119140797Y-99915017D01*
X118961000Y-100349085D01*
X118961000Y-100584000D01*
X117513000Y-100584000D01*
X117513000Y-100349085D01*
X117333203Y-99915017D01*
X117000983Y-99582797D01*
X116566915Y-99403000D01*
X116205000Y-99403000D01*
X116205000Y-98692215D01*
X127089000Y-98692215D01*
X127089000Y-99449750D01*
X127184250Y-99545000D01*
X128247000Y-99545000D01*
X128247000Y-98482250D01*
X128151750Y-98387000D01*
X127394214Y-98387000D01*
X127254180Y-98445004D01*
X127147004Y-98552181D01*
X127089000Y-98692215D01*
X116205000Y-98692215D01*
X116205000Y-98001000D01*
X117229750Y-98001000D01*
X117325000Y-97905750D01*
X117325000Y-96543000D01*
X117371000Y-96543000D01*
X117371000Y-97905750D01*
X117466250Y-98001000D01*
X118523786Y-98001000D01*
X118663820Y-97942996D01*
X118770996Y-97835819D01*
X118829000Y-97695785D01*
X118829000Y-96638250D01*
X118733750Y-96543000D01*
X117371000Y-96543000D01*
X117325000Y-96543000D01*
X117305000Y-96543000D01*
X117305000Y-96497000D01*
X117325000Y-96497000D01*
X117325000Y-95134250D01*
X117371000Y-95134250D01*
X117371000Y-96497000D01*
X118733750Y-96497000D01*
X118829000Y-96401750D01*
X118829000Y-95542196D01*
X126232331Y-95542196D01*
X126310963Y-95729509D01*
X126741316Y-95918023D01*
X127211051Y-95927498D01*
X127648656Y-95756492D01*
X127689037Y-95729509D01*
X127767669Y-95542196D01*
X127000000Y-94774527D01*
X126232331Y-95542196D01*
X118829000Y-95542196D01*
X118829000Y-95344215D01*
X118770996Y-95204181D01*
X118663820Y-95097004D01*
X118523786Y-95039000D01*
X117466250Y-95039000D01*
X117371000Y-95134250D01*
X117325000Y-95134250D01*
X117229750Y-95039000D01*
X116205000Y-95039000D01*
X116205000Y-94953051D01*
X125814502Y-94953051D01*
X125985508Y-95390656D01*
X126012491Y-95431037D01*
X126199804Y-95509669D01*
X126967473Y-94742000D01*
X127032527Y-94742000D01*
X127800196Y-95509669D01*
X127987509Y-95431037D01*
X128176023Y-95000684D01*
X128185498Y-94530949D01*
X128014492Y-94093344D01*
X127987509Y-94052963D01*
X127800196Y-93974331D01*
X127032527Y-94742000D01*
X126967473Y-94742000D01*
X126199804Y-93974331D01*
X126012491Y-94052963D01*
X125823977Y-94483316D01*
X125814502Y-94953051D01*
X116205000Y-94953051D01*
X116205000Y-94699000D01*
X117229750Y-94699000D01*
X117325000Y-94603750D01*
X117325000Y-93241000D01*
X117371000Y-93241000D01*
X117371000Y-94603750D01*
X117466250Y-94699000D01*
X118523786Y-94699000D01*
X118663820Y-94640996D01*
X118770996Y-94533819D01*
X118829000Y-94393785D01*
X118829000Y-93336250D01*
X118733750Y-93241000D01*
X117371000Y-93241000D01*
X117325000Y-93241000D01*
X117305000Y-93241000D01*
X117305000Y-93195000D01*
X117325000Y-93195000D01*
X117325000Y-91832250D01*
X117371000Y-91832250D01*
X117371000Y-93195000D01*
X118733750Y-93195000D01*
X118829000Y-93099750D01*
X118829000Y-92042215D01*
X118770996Y-91902181D01*
X118663820Y-91795004D01*
X118523786Y-91737000D01*
X117466250Y-91737000D01*
X117371000Y-91832250D01*
X117325000Y-91832250D01*
X117229750Y-91737000D01*
X116205000Y-91737000D01*
X116205000Y-91619606D01*
X116384606Y-91440000D01*
X119073394Y-91440000D01*
X119253000Y-91619606D01*
G36*
X126111000Y-86106000D02*
X126111000Y-89662000D01*
X126140002Y-89807802D01*
X126222592Y-89931408D01*
X126730592Y-90439408D01*
X126854198Y-90521998D01*
X127000000Y-90551000D01*
X133552550Y-90551000D01*
X134073308Y-91175910D01*
X134220198Y-91283998D01*
X134366000Y-91313000D01*
X136621184Y-91313000D01*
X136652000Y-91343816D01*
X136652000Y-92202000D01*
X134366000Y-92202000D01*
X134220198Y-92231002D01*
X134096592Y-92313592D01*
X133447621Y-92962563D01*
X127995411Y-92912997D01*
X128176023Y-92500684D01*
X128185498Y-92030949D01*
X128014492Y-91593344D01*
X127987509Y-91552963D01*
X127800196Y-91474331D01*
X127032527Y-92242000D01*
X127046669Y-92256142D01*
X127014142Y-92288669D01*
X127000000Y-92274527D01*
X126985858Y-92288669D01*
X126953331Y-92256142D01*
X126967473Y-92242000D01*
X126199804Y-91474331D01*
X126012491Y-91552963D01*
X125823977Y-91983316D01*
X125814502Y-92453051D01*
X125985508Y-92890656D01*
X125988244Y-92894750D01*
X124471000Y-92880957D01*
X124471000Y-92496215D01*
X124412996Y-92356181D01*
X124305820Y-92249004D01*
X124165786Y-92191000D01*
X123308250Y-92191000D01*
X123213000Y-92286250D01*
X123213000Y-92869521D01*
X123167000Y-92869103D01*
X123167000Y-92286250D01*
X123071750Y-92191000D01*
X122214214Y-92191000D01*
X122074180Y-92249004D01*
X121967004Y-92356181D01*
X121909000Y-92496215D01*
X121909000Y-92857666D01*
X121781599Y-92856508D01*
X121735979Y-92746372D01*
X121381000Y-92391393D01*
X121381000Y-91765995D01*
X121395321Y-91694000D01*
X121378248Y-91608167D01*
X121345157Y-91441804D01*
X126232331Y-91441804D01*
X127000000Y-92209473D01*
X127767669Y-91441804D01*
X127689037Y-91254491D01*
X127258684Y-91065977D01*
X126788949Y-91056502D01*
X126351344Y-91227508D01*
X126310963Y-91254491D01*
X126232331Y-91441804D01*
X121345157Y-91441804D01*
X121338587Y-91408778D01*
X121177022Y-91166978D01*
X121115983Y-91126194D01*
X118783000Y-88793211D01*
X118783000Y-88411085D01*
X118603203Y-87977017D01*
X118270983Y-87644797D01*
X117836915Y-87465000D01*
X117367085Y-87465000D01*
X116933017Y-87644797D01*
X116600797Y-87977017D01*
X116421000Y-88411085D01*
X116421000Y-88880915D01*
X116600797Y-89314983D01*
X116933017Y-89647203D01*
X117367085Y-89827000D01*
X117749211Y-89827000D01*
X118854210Y-90932000D01*
X116332000Y-90932000D01*
X116186198Y-90961002D01*
X116062592Y-91043592D01*
X115808592Y-91297592D01*
X115726002Y-91421198D01*
X115697000Y-91567000D01*
X115697000Y-99568721D01*
X115663017Y-99582797D01*
X115442814Y-99803000D01*
X113411186Y-99803000D01*
X113190983Y-99582797D01*
X112756915Y-99403000D01*
X112287085Y-99403000D01*
X112062447Y-99496048D01*
X115390587Y-96153154D01*
X115455070Y-96110068D01*
X115499126Y-96044134D01*
X115499739Y-96043518D01*
X115541751Y-95980341D01*
X115627686Y-95851730D01*
X115627861Y-95850849D01*
X115628358Y-95850102D01*
X115658118Y-95698740D01*
X115673001Y-95623917D01*
X115673001Y-95623042D01*
X115688298Y-95545239D01*
X115673001Y-95469214D01*
X115673001Y-87742917D01*
X115688301Y-87665999D01*
X115627686Y-87361268D01*
X115584075Y-87296000D01*
X115455070Y-87102930D01*
X115389858Y-87059357D01*
X115128643Y-86798142D01*
X115085071Y-86732931D01*
X114826733Y-86560315D01*
X114598920Y-86515000D01*
X114598916Y-86515000D01*
X114539569Y-86503195D01*
X114440659Y-86437106D01*
X114292000Y-86407536D01*
X113292000Y-86407536D01*
X113143341Y-86437106D01*
X113017314Y-86521314D01*
X112988124Y-86565000D01*
X111293876Y-86565000D01*
X111264686Y-86521314D01*
X111138659Y-86437106D01*
X110990000Y-86407536D01*
X109990000Y-86407536D01*
X109841341Y-86437106D01*
X109715314Y-86521314D01*
X109631106Y-86647341D01*
X109601536Y-86796000D01*
X109601536Y-87796000D01*
X109625206Y-87915000D01*
X107307430Y-87915000D01*
X107235435Y-87900679D01*
X107163440Y-87915000D01*
X107163439Y-87915000D01*
X106950214Y-87957413D01*
X106708414Y-88118978D01*
X106667630Y-88180017D01*
X104621949Y-90225697D01*
X104343467Y-89947215D01*
X103896319Y-89762000D01*
X104343467Y-89576785D01*
X104696785Y-89223467D01*
X104888000Y-88761834D01*
X104888000Y-88262166D01*
X104696785Y-87800533D01*
X104343467Y-87447215D01*
X103881834Y-87256000D01*
X103382166Y-87256000D01*
X102920533Y-87447215D01*
X102567215Y-87800533D01*
X102376000Y-88262166D01*
X102376000Y-88761834D01*
X102567215Y-89223467D01*
X102920533Y-89576785D01*
X103367681Y-89762000D01*
X102920533Y-89947215D01*
X102567215Y-90300533D01*
X102376000Y-90762166D01*
X102376000Y-91261834D01*
X102567215Y-91723467D01*
X102920533Y-92076785D01*
X103367681Y-92262000D01*
X102920533Y-92447215D01*
X102567215Y-92800533D01*
X102376000Y-93262166D01*
X102376000Y-93761834D01*
X102567215Y-94223467D01*
X102920533Y-94576785D01*
X103353195Y-94756000D01*
X102681215Y-94756000D01*
X102541181Y-94814004D01*
X102434004Y-94921180D01*
X102376000Y-95061214D01*
X102376000Y-95893750D01*
X102471250Y-95989000D01*
X103609000Y-95989000D01*
X103609000Y-95969000D01*
X103655000Y-95969000D01*
X103655000Y-95989000D01*
X104792750Y-95989000D01*
X104888000Y-95893750D01*
X104888000Y-95061214D01*
X104829996Y-94921180D01*
X104722819Y-94814004D01*
X104582785Y-94756000D01*
X103910805Y-94756000D01*
X104343467Y-94576785D01*
X104696785Y-94223467D01*
X104888000Y-93761834D01*
X104888000Y-93368001D01*
X104987810Y-93368001D01*
X105059805Y-93382322D01*
X105131800Y-93368001D01*
X105131802Y-93368001D01*
X105345027Y-93325588D01*
X105586827Y-93164023D01*
X105627613Y-93102982D01*
X106813596Y-91917000D01*
X109009356Y-91917000D01*
X108660259Y-92150259D01*
X108332929Y-92640143D01*
X108217986Y-93218000D01*
X108332929Y-93795857D01*
X108660259Y-94285741D01*
X109150143Y-94613071D01*
X109582137Y-94699000D01*
X109873863Y-94699000D01*
X110305857Y-94613071D01*
X110795741Y-94285741D01*
X111123071Y-93795857D01*
X111238014Y-93218000D01*
X111123071Y-92640143D01*
X110795741Y-92150259D01*
X110446644Y-91917000D01*
X111229938Y-91917000D01*
X111350649Y-91967000D01*
X111661351Y-91967000D01*
X111948401Y-91848100D01*
X112168100Y-91628401D01*
X112287000Y-91341351D01*
X112287000Y-91030649D01*
X112168100Y-90743599D01*
X112151501Y-90727000D01*
X112988124Y-90727000D01*
X113011000Y-90761237D01*
X113011001Y-94909273D01*
X111197724Y-96722550D01*
X111238014Y-96520000D01*
X111123071Y-95942143D01*
X110795741Y-95452259D01*
X110305857Y-95124929D01*
X109873863Y-95039000D01*
X109582137Y-95039000D01*
X109150143Y-95124929D01*
X108660259Y-95452259D01*
X108332929Y-95942143D01*
X108259149Y-96313061D01*
X103854211Y-100718000D01*
X103382166Y-100718000D01*
X102920533Y-100909215D01*
X102567215Y-101262533D01*
X102376000Y-101724166D01*
X102376000Y-102223834D01*
X102567215Y-102685467D01*
X102920533Y-103038785D01*
X103367681Y-103224000D01*
X102920533Y-103409215D01*
X102567215Y-103762533D01*
X102376000Y-104224166D01*
X102376000Y-104723834D01*
X102567215Y-105185467D01*
X102920533Y-105538785D01*
X103367681Y-105724000D01*
X102920533Y-105909215D01*
X102567215Y-106262533D01*
X102376000Y-106724166D01*
X102376000Y-107223834D01*
X102567215Y-107685467D01*
X102920533Y-108038785D01*
X103353195Y-108218000D01*
X102681215Y-108218000D01*
X102541181Y-108276004D01*
X102434004Y-108383180D01*
X102376000Y-108523214D01*
X102376000Y-109355750D01*
X102471250Y-109451000D01*
X103609000Y-109451000D01*
X103609000Y-109431000D01*
X103655000Y-109431000D01*
X103655000Y-109451000D01*
X104792750Y-109451000D01*
X104888000Y-109355750D01*
X104888000Y-108523214D01*
X104829996Y-108383180D01*
X104722819Y-108276004D01*
X104582785Y-108218000D01*
X103910805Y-108218000D01*
X104343467Y-108038785D01*
X104627252Y-107755000D01*
X108428500Y-107755000D01*
X111334394Y-110660894D01*
X111317863Y-110744000D01*
X111409522Y-111204803D01*
X111670547Y-111595453D01*
X112061197Y-111856478D01*
X112405682Y-111925000D01*
X112638318Y-111925000D01*
X112982803Y-111856478D01*
X113373453Y-111595453D01*
X113634478Y-111204803D01*
X113726137Y-110744000D01*
X113634478Y-110283197D01*
X113373453Y-109892547D01*
X112982803Y-109631522D01*
X112638318Y-109563000D01*
X112445501Y-109563000D01*
X109689500Y-106807000D01*
X109953639Y-106542862D01*
X110009100Y-106487401D01*
X110039115Y-106414938D01*
X110082685Y-106349731D01*
X110097984Y-106272815D01*
X110128000Y-106200351D01*
X110128000Y-106121915D01*
X110143299Y-106045001D01*
X110128000Y-105968087D01*
X110128000Y-105889649D01*
X110097984Y-105817184D01*
X110082685Y-105740270D01*
X110039116Y-105675064D01*
X110009100Y-105602599D01*
X109953638Y-105547137D01*
X109910069Y-105481931D01*
X109844862Y-105438361D01*
X109789401Y-105382900D01*
X109716936Y-105352884D01*
X109651730Y-105309315D01*
X109574816Y-105294016D01*
X109502351Y-105264000D01*
X109423913Y-105264000D01*
X109378667Y-105255000D01*
X109738500Y-105255000D01*
X115144394Y-110660895D01*
X115127863Y-110744000D01*
X115219522Y-111204803D01*
X115480547Y-111595453D01*
X115871197Y-111856478D01*
X116215682Y-111925000D01*
X116448318Y-111925000D01*
X116792803Y-111856478D01*
X117183453Y-111595453D01*
X117230528Y-111525000D01*
X119243472Y-111525000D01*
X119290547Y-111595453D01*
X119681197Y-111856478D01*
X120025682Y-111925000D01*
X120258318Y-111925000D01*
X120602803Y-111856478D01*
X120993453Y-111595453D01*
X121254478Y-111204803D01*
X121346137Y-110744000D01*
X121329606Y-110660894D01*
X122497501Y-109493000D01*
X138542688Y-109493000D01*
X138699989Y-109524289D01*
X138857291Y-109493000D01*
X140747947Y-109493000D01*
X140572424Y-109755688D01*
X140531187Y-109963000D01*
X124841186Y-109963000D01*
X124620983Y-109742797D01*
X124186915Y-109563000D01*
X123717085Y-109563000D01*
X123283017Y-109742797D01*
X122950797Y-110075017D01*
X122771000Y-110509085D01*
X122771000Y-110978915D01*
X122950797Y-111412983D01*
X123283017Y-111745203D01*
X123717085Y-111925000D01*
X124186915Y-111925000D01*
X124620983Y-111745203D01*
X124841186Y-111525000D01*
X141274086Y-111525000D01*
X141351000Y-111540299D01*
X141427914Y-111525000D01*
X141427918Y-111525000D01*
X141655731Y-111479685D01*
X141674715Y-111467000D01*
X141853239Y-111467000D01*
X142212312Y-111395576D01*
X142619501Y-111123501D01*
X142690663Y-111017000D01*
X148405128Y-111017000D01*
X148456435Y-111068307D01*
X149037519Y-111309000D01*
X149666481Y-111309000D01*
X150247565Y-111068307D01*
X150692307Y-110623565D01*
X150933000Y-110042481D01*
X150933000Y-109413519D01*
X150692307Y-108832435D01*
X150247565Y-108387693D01*
X150110696Y-108331000D01*
X152654000Y-108331000D01*
X152799802Y-108301998D01*
X152923408Y-108219408D01*
X153431408Y-107711408D01*
X153513998Y-107587802D01*
X153543000Y-107442000D01*
X153543000Y-97751500D01*
X153607500Y-97687000D01*
X153882577Y-97687000D01*
X153883106Y-97689659D01*
X153967314Y-97815686D01*
X154093341Y-97899894D01*
X154242000Y-97929464D01*
X162078201Y-97929464D01*
X162078200Y-101575400D01*
X154322045Y-101575400D01*
X154279600Y-101566957D01*
X154237155Y-101575400D01*
X154111432Y-101600408D01*
X153968867Y-101695667D01*
X153873608Y-101838232D01*
X153840157Y-102006400D01*
X153848601Y-102048850D01*
X153848600Y-104910354D01*
X153840157Y-104952800D01*
X153873608Y-105120968D01*
X153912384Y-105179000D01*
X153968867Y-105263533D01*
X154111432Y-105358792D01*
X154279600Y-105392243D01*
X154322045Y-105383800D01*
X156541001Y-105383800D01*
X156541000Y-106053354D01*
X156532557Y-106095800D01*
X156566008Y-106263968D01*
X156661267Y-106406533D01*
X156803832Y-106501792D01*
X156972000Y-106535243D01*
X157014445Y-106526800D01*
X158834555Y-106526800D01*
X158877000Y-106535243D01*
X158919445Y-106526800D01*
X159045168Y-106501792D01*
X159187733Y-106406533D01*
X159282992Y-106263968D01*
X159316443Y-106095800D01*
X159308000Y-106053355D01*
X159308000Y-105383800D01*
X161875001Y-105383800D01*
X161875000Y-105993474D01*
X155777475Y-112091000D01*
X101015000Y-112091000D01*
X101015000Y-109592250D01*
X102376000Y-109592250D01*
X102376000Y-110424786D01*
X102434004Y-110564820D01*
X102541181Y-110671996D01*
X102681215Y-110730000D01*
X103513750Y-110730000D01*
X103609000Y-110634750D01*
X103609000Y-109497000D01*
X103655000Y-109497000D01*
X103655000Y-110634750D01*
X103750250Y-110730000D01*
X104582785Y-110730000D01*
X104722819Y-110671996D01*
X104829996Y-110564820D01*
X104888000Y-110424786D01*
X104888000Y-109592250D01*
X104792750Y-109497000D01*
X103655000Y-109497000D01*
X103609000Y-109497000D01*
X102471250Y-109497000D01*
X102376000Y-109592250D01*
X101015000Y-109592250D01*
X101015000Y-96130250D01*
X102376000Y-96130250D01*
X102376000Y-96962786D01*
X102434004Y-97102820D01*
X102541181Y-97209996D01*
X102681215Y-97268000D01*
X103513750Y-97268000D01*
X103609000Y-97172750D01*
X103609000Y-96035000D01*
X103655000Y-96035000D01*
X103655000Y-97172750D01*
X103750250Y-97268000D01*
X104582785Y-97268000D01*
X104722819Y-97209996D01*
X104829996Y-97102820D01*
X104888000Y-96962786D01*
X104888000Y-96130250D01*
X104792750Y-96035000D01*
X103655000Y-96035000D01*
X103609000Y-96035000D01*
X102471250Y-96035000D01*
X102376000Y-96130250D01*
X101015000Y-96130250D01*
X101015000Y-86029000D01*
X126126316Y-86029000D01*
X126111000Y-86106000D01*
X126111000Y-86106000D01*
G37*
X126111000Y-86106000D02*
X126111000Y-89662000D01*
X126140002Y-89807802D01*
X126222592Y-89931408D01*
X126730592Y-90439408D01*
X126854198Y-90521998D01*
X127000000Y-90551000D01*
X133552550Y-90551000D01*
X134073308Y-91175910D01*
X134220198Y-91283998D01*
X134366000Y-91313000D01*
X136621184Y-91313000D01*
X136652000Y-91343816D01*
X136652000Y-92202000D01*
X134366000Y-92202000D01*
X134220198Y-92231002D01*
X134096592Y-92313592D01*
X133447621Y-92962563D01*
X127995411Y-92912997D01*
X128176023Y-92500684D01*
X128185498Y-92030949D01*
X128014492Y-91593344D01*
X127987509Y-91552963D01*
X127800196Y-91474331D01*
X127032527Y-92242000D01*
X127046669Y-92256142D01*
X127014142Y-92288669D01*
X127000000Y-92274527D01*
X126985858Y-92288669D01*
X126953331Y-92256142D01*
X126967473Y-92242000D01*
X126199804Y-91474331D01*
X126012491Y-91552963D01*
X125823977Y-91983316D01*
X125814502Y-92453051D01*
X125985508Y-92890656D01*
X125988244Y-92894750D01*
X124471000Y-92880957D01*
X124471000Y-92496215D01*
X124412996Y-92356181D01*
X124305820Y-92249004D01*
X124165786Y-92191000D01*
X123308250Y-92191000D01*
X123213000Y-92286250D01*
X123213000Y-92869521D01*
X123167000Y-92869103D01*
X123167000Y-92286250D01*
X123071750Y-92191000D01*
X122214214Y-92191000D01*
X122074180Y-92249004D01*
X121967004Y-92356181D01*
X121909000Y-92496215D01*
X121909000Y-92857666D01*
X121781599Y-92856508D01*
X121735979Y-92746372D01*
X121381000Y-92391393D01*
X121381000Y-91765995D01*
X121395321Y-91694000D01*
X121378248Y-91608167D01*
X121345157Y-91441804D01*
X126232331Y-91441804D01*
X127000000Y-92209473D01*
X127767669Y-91441804D01*
X127689037Y-91254491D01*
X127258684Y-91065977D01*
X126788949Y-91056502D01*
X126351344Y-91227508D01*
X126310963Y-91254491D01*
X126232331Y-91441804D01*
X121345157Y-91441804D01*
X121338587Y-91408778D01*
X121177022Y-91166978D01*
X121115983Y-91126194D01*
X118783000Y-88793211D01*
X118783000Y-88411085D01*
X118603203Y-87977017D01*
X118270983Y-87644797D01*
X117836915Y-87465000D01*
X117367085Y-87465000D01*
X116933017Y-87644797D01*
X116600797Y-87977017D01*
X116421000Y-88411085D01*
X116421000Y-88880915D01*
X116600797Y-89314983D01*
X116933017Y-89647203D01*
X117367085Y-89827000D01*
X117749211Y-89827000D01*
X118854210Y-90932000D01*
X116332000Y-90932000D01*
X116186198Y-90961002D01*
X116062592Y-91043592D01*
X115808592Y-91297592D01*
X115726002Y-91421198D01*
X115697000Y-91567000D01*
X115697000Y-99568721D01*
X115663017Y-99582797D01*
X115442814Y-99803000D01*
X113411186Y-99803000D01*
X113190983Y-99582797D01*
X112756915Y-99403000D01*
X112287085Y-99403000D01*
X112062447Y-99496048D01*
X115390587Y-96153154D01*
X115455070Y-96110068D01*
X115499126Y-96044134D01*
X115499739Y-96043518D01*
X115541751Y-95980341D01*
X115627686Y-95851730D01*
X115627861Y-95850849D01*
X115628358Y-95850102D01*
X115658118Y-95698740D01*
X115673001Y-95623917D01*
X115673001Y-95623042D01*
X115688298Y-95545239D01*
X115673001Y-95469214D01*
X115673001Y-87742917D01*
X115688301Y-87665999D01*
X115627686Y-87361268D01*
X115584075Y-87296000D01*
X115455070Y-87102930D01*
X115389858Y-87059357D01*
X115128643Y-86798142D01*
X115085071Y-86732931D01*
X114826733Y-86560315D01*
X114598920Y-86515000D01*
X114598916Y-86515000D01*
X114539569Y-86503195D01*
X114440659Y-86437106D01*
X114292000Y-86407536D01*
X113292000Y-86407536D01*
X113143341Y-86437106D01*
X113017314Y-86521314D01*
X112988124Y-86565000D01*
X111293876Y-86565000D01*
X111264686Y-86521314D01*
X111138659Y-86437106D01*
X110990000Y-86407536D01*
X109990000Y-86407536D01*
X109841341Y-86437106D01*
X109715314Y-86521314D01*
X109631106Y-86647341D01*
X109601536Y-86796000D01*
X109601536Y-87796000D01*
X109625206Y-87915000D01*
X107307430Y-87915000D01*
X107235435Y-87900679D01*
X107163440Y-87915000D01*
X107163439Y-87915000D01*
X106950214Y-87957413D01*
X106708414Y-88118978D01*
X106667630Y-88180017D01*
X104621949Y-90225697D01*
X104343467Y-89947215D01*
X103896319Y-89762000D01*
X104343467Y-89576785D01*
X104696785Y-89223467D01*
X104888000Y-88761834D01*
X104888000Y-88262166D01*
X104696785Y-87800533D01*
X104343467Y-87447215D01*
X103881834Y-87256000D01*
X103382166Y-87256000D01*
X102920533Y-87447215D01*
X102567215Y-87800533D01*
X102376000Y-88262166D01*
X102376000Y-88761834D01*
X102567215Y-89223467D01*
X102920533Y-89576785D01*
X103367681Y-89762000D01*
X102920533Y-89947215D01*
X102567215Y-90300533D01*
X102376000Y-90762166D01*
X102376000Y-91261834D01*
X102567215Y-91723467D01*
X102920533Y-92076785D01*
X103367681Y-92262000D01*
X102920533Y-92447215D01*
X102567215Y-92800533D01*
X102376000Y-93262166D01*
X102376000Y-93761834D01*
X102567215Y-94223467D01*
X102920533Y-94576785D01*
X103353195Y-94756000D01*
X102681215Y-94756000D01*
X102541181Y-94814004D01*
X102434004Y-94921180D01*
X102376000Y-95061214D01*
X102376000Y-95893750D01*
X102471250Y-95989000D01*
X103609000Y-95989000D01*
X103609000Y-95969000D01*
X103655000Y-95969000D01*
X103655000Y-95989000D01*
X104792750Y-95989000D01*
X104888000Y-95893750D01*
X104888000Y-95061214D01*
X104829996Y-94921180D01*
X104722819Y-94814004D01*
X104582785Y-94756000D01*
X103910805Y-94756000D01*
X104343467Y-94576785D01*
X104696785Y-94223467D01*
X104888000Y-93761834D01*
X104888000Y-93368001D01*
X104987810Y-93368001D01*
X105059805Y-93382322D01*
X105131800Y-93368001D01*
X105131802Y-93368001D01*
X105345027Y-93325588D01*
X105586827Y-93164023D01*
X105627613Y-93102982D01*
X106813596Y-91917000D01*
X109009356Y-91917000D01*
X108660259Y-92150259D01*
X108332929Y-92640143D01*
X108217986Y-93218000D01*
X108332929Y-93795857D01*
X108660259Y-94285741D01*
X109150143Y-94613071D01*
X109582137Y-94699000D01*
X109873863Y-94699000D01*
X110305857Y-94613071D01*
X110795741Y-94285741D01*
X111123071Y-93795857D01*
X111238014Y-93218000D01*
X111123071Y-92640143D01*
X110795741Y-92150259D01*
X110446644Y-91917000D01*
X111229938Y-91917000D01*
X111350649Y-91967000D01*
X111661351Y-91967000D01*
X111948401Y-91848100D01*
X112168100Y-91628401D01*
X112287000Y-91341351D01*
X112287000Y-91030649D01*
X112168100Y-90743599D01*
X112151501Y-90727000D01*
X112988124Y-90727000D01*
X113011000Y-90761237D01*
X113011001Y-94909273D01*
X111197724Y-96722550D01*
X111238014Y-96520000D01*
X111123071Y-95942143D01*
X110795741Y-95452259D01*
X110305857Y-95124929D01*
X109873863Y-95039000D01*
X109582137Y-95039000D01*
X109150143Y-95124929D01*
X108660259Y-95452259D01*
X108332929Y-95942143D01*
X108259149Y-96313061D01*
X103854211Y-100718000D01*
X103382166Y-100718000D01*
X102920533Y-100909215D01*
X102567215Y-101262533D01*
X102376000Y-101724166D01*
X102376000Y-102223834D01*
X102567215Y-102685467D01*
X102920533Y-103038785D01*
X103367681Y-103224000D01*
X102920533Y-103409215D01*
X102567215Y-103762533D01*
X102376000Y-104224166D01*
X102376000Y-104723834D01*
X102567215Y-105185467D01*
X102920533Y-105538785D01*
X103367681Y-105724000D01*
X102920533Y-105909215D01*
X102567215Y-106262533D01*
X102376000Y-106724166D01*
X102376000Y-107223834D01*
X102567215Y-107685467D01*
X102920533Y-108038785D01*
X103353195Y-108218000D01*
X102681215Y-108218000D01*
X102541181Y-108276004D01*
X102434004Y-108383180D01*
X102376000Y-108523214D01*
X102376000Y-109355750D01*
X102471250Y-109451000D01*
X103609000Y-109451000D01*
X103609000Y-109431000D01*
X103655000Y-109431000D01*
X103655000Y-109451000D01*
X104792750Y-109451000D01*
X104888000Y-109355750D01*
X104888000Y-108523214D01*
X104829996Y-108383180D01*
X104722819Y-108276004D01*
X104582785Y-108218000D01*
X103910805Y-108218000D01*
X104343467Y-108038785D01*
X104627252Y-107755000D01*
X108428500Y-107755000D01*
X111334394Y-110660894D01*
X111317863Y-110744000D01*
X111409522Y-111204803D01*
X111670547Y-111595453D01*
X112061197Y-111856478D01*
X112405682Y-111925000D01*
X112638318Y-111925000D01*
X112982803Y-111856478D01*
X113373453Y-111595453D01*
X113634478Y-111204803D01*
X113726137Y-110744000D01*
X113634478Y-110283197D01*
X113373453Y-109892547D01*
X112982803Y-109631522D01*
X112638318Y-109563000D01*
X112445501Y-109563000D01*
X109689500Y-106807000D01*
X109953639Y-106542862D01*
X110009100Y-106487401D01*
X110039115Y-106414938D01*
X110082685Y-106349731D01*
X110097984Y-106272815D01*
X110128000Y-106200351D01*
X110128000Y-106121915D01*
X110143299Y-106045001D01*
X110128000Y-105968087D01*
X110128000Y-105889649D01*
X110097984Y-105817184D01*
X110082685Y-105740270D01*
X110039116Y-105675064D01*
X110009100Y-105602599D01*
X109953638Y-105547137D01*
X109910069Y-105481931D01*
X109844862Y-105438361D01*
X109789401Y-105382900D01*
X109716936Y-105352884D01*
X109651730Y-105309315D01*
X109574816Y-105294016D01*
X109502351Y-105264000D01*
X109423913Y-105264000D01*
X109378667Y-105255000D01*
X109738500Y-105255000D01*
X115144394Y-110660895D01*
X115127863Y-110744000D01*
X115219522Y-111204803D01*
X115480547Y-111595453D01*
X115871197Y-111856478D01*
X116215682Y-111925000D01*
X116448318Y-111925000D01*
X116792803Y-111856478D01*
X117183453Y-111595453D01*
X117230528Y-111525000D01*
X119243472Y-111525000D01*
X119290547Y-111595453D01*
X119681197Y-111856478D01*
X120025682Y-111925000D01*
X120258318Y-111925000D01*
X120602803Y-111856478D01*
X120993453Y-111595453D01*
X121254478Y-111204803D01*
X121346137Y-110744000D01*
X121329606Y-110660894D01*
X122497501Y-109493000D01*
X138542688Y-109493000D01*
X138699989Y-109524289D01*
X138857291Y-109493000D01*
X140747947Y-109493000D01*
X140572424Y-109755688D01*
X140531187Y-109963000D01*
X124841186Y-109963000D01*
X124620983Y-109742797D01*
X124186915Y-109563000D01*
X123717085Y-109563000D01*
X123283017Y-109742797D01*
X122950797Y-110075017D01*
X122771000Y-110509085D01*
X122771000Y-110978915D01*
X122950797Y-111412983D01*
X123283017Y-111745203D01*
X123717085Y-111925000D01*
X124186915Y-111925000D01*
X124620983Y-111745203D01*
X124841186Y-111525000D01*
X141274086Y-111525000D01*
X141351000Y-111540299D01*
X141427914Y-111525000D01*
X141427918Y-111525000D01*
X141655731Y-111479685D01*
X141674715Y-111467000D01*
X141853239Y-111467000D01*
X142212312Y-111395576D01*
X142619501Y-111123501D01*
X142690663Y-111017000D01*
X148405128Y-111017000D01*
X148456435Y-111068307D01*
X149037519Y-111309000D01*
X149666481Y-111309000D01*
X150247565Y-111068307D01*
X150692307Y-110623565D01*
X150933000Y-110042481D01*
X150933000Y-109413519D01*
X150692307Y-108832435D01*
X150247565Y-108387693D01*
X150110696Y-108331000D01*
X152654000Y-108331000D01*
X152799802Y-108301998D01*
X152923408Y-108219408D01*
X153431408Y-107711408D01*
X153513998Y-107587802D01*
X153543000Y-107442000D01*
X153543000Y-97751500D01*
X153607500Y-97687000D01*
X153882577Y-97687000D01*
X153883106Y-97689659D01*
X153967314Y-97815686D01*
X154093341Y-97899894D01*
X154242000Y-97929464D01*
X162078201Y-97929464D01*
X162078200Y-101575400D01*
X154322045Y-101575400D01*
X154279600Y-101566957D01*
X154237155Y-101575400D01*
X154111432Y-101600408D01*
X153968867Y-101695667D01*
X153873608Y-101838232D01*
X153840157Y-102006400D01*
X153848601Y-102048850D01*
X153848600Y-104910354D01*
X153840157Y-104952800D01*
X153873608Y-105120968D01*
X153912384Y-105179000D01*
X153968867Y-105263533D01*
X154111432Y-105358792D01*
X154279600Y-105392243D01*
X154322045Y-105383800D01*
X156541001Y-105383800D01*
X156541000Y-106053354D01*
X156532557Y-106095800D01*
X156566008Y-106263968D01*
X156661267Y-106406533D01*
X156803832Y-106501792D01*
X156972000Y-106535243D01*
X157014445Y-106526800D01*
X158834555Y-106526800D01*
X158877000Y-106535243D01*
X158919445Y-106526800D01*
X159045168Y-106501792D01*
X159187733Y-106406533D01*
X159282992Y-106263968D01*
X159316443Y-106095800D01*
X159308000Y-106053355D01*
X159308000Y-105383800D01*
X161875001Y-105383800D01*
X161875000Y-105993474D01*
X155777475Y-112091000D01*
X101015000Y-112091000D01*
X101015000Y-109592250D01*
X102376000Y-109592250D01*
X102376000Y-110424786D01*
X102434004Y-110564820D01*
X102541181Y-110671996D01*
X102681215Y-110730000D01*
X103513750Y-110730000D01*
X103609000Y-110634750D01*
X103609000Y-109497000D01*
X103655000Y-109497000D01*
X103655000Y-110634750D01*
X103750250Y-110730000D01*
X104582785Y-110730000D01*
X104722819Y-110671996D01*
X104829996Y-110564820D01*
X104888000Y-110424786D01*
X104888000Y-109592250D01*
X104792750Y-109497000D01*
X103655000Y-109497000D01*
X103609000Y-109497000D01*
X102471250Y-109497000D01*
X102376000Y-109592250D01*
X101015000Y-109592250D01*
X101015000Y-96130250D01*
X102376000Y-96130250D01*
X102376000Y-96962786D01*
X102434004Y-97102820D01*
X102541181Y-97209996D01*
X102681215Y-97268000D01*
X103513750Y-97268000D01*
X103609000Y-97172750D01*
X103609000Y-96035000D01*
X103655000Y-96035000D01*
X103655000Y-97172750D01*
X103750250Y-97268000D01*
X104582785Y-97268000D01*
X104722819Y-97209996D01*
X104829996Y-97102820D01*
X104888000Y-96962786D01*
X104888000Y-96130250D01*
X104792750Y-96035000D01*
X103655000Y-96035000D01*
X103609000Y-96035000D01*
X102471250Y-96035000D01*
X102376000Y-96130250D01*
X101015000Y-96130250D01*
X101015000Y-86029000D01*
X126126316Y-86029000D01*
X126111000Y-86106000D01*
G36*
X138690977Y-100706316D02*
X138681502Y-101176051D01*
X138852508Y-101613656D01*
X138879491Y-101654037D01*
X139066804Y-101732669D01*
X139834473Y-100965000D01*
X139820331Y-100950858D01*
X139852858Y-100918331D01*
X139867000Y-100932473D01*
X139881142Y-100918331D01*
X139913669Y-100950858D01*
X139899527Y-100965000D01*
X140667196Y-101732669D01*
X140854509Y-101654037D01*
X141043023Y-101223684D01*
X141052498Y-100753949D01*
X140936457Y-100457000D01*
X141299116Y-100457000D01*
X141186000Y-100730085D01*
X141186000Y-101199915D01*
X141365797Y-101633983D01*
X141586001Y-101854187D01*
X141586001Y-102019452D01*
X141570701Y-102096370D01*
X141631315Y-102401100D01*
X141728849Y-102547069D01*
X141803932Y-102659439D01*
X141869139Y-102703009D01*
X142528001Y-103361871D01*
X142528001Y-103925000D01*
X141850250Y-103925000D01*
X141755000Y-104020250D01*
X141755000Y-105133000D01*
X141775000Y-105133000D01*
X141775000Y-105179000D01*
X141755000Y-105179000D01*
X141755000Y-106291750D01*
X141850250Y-106387000D01*
X142528002Y-106387000D01*
X142528002Y-106747361D01*
X142212312Y-106536424D01*
X141853239Y-106465000D01*
X141610761Y-106465000D01*
X141251688Y-106536424D01*
X140844499Y-106808499D01*
X140572424Y-107215688D01*
X140476884Y-107696000D01*
X140522943Y-107927556D01*
X140519500Y-107931000D01*
X138760914Y-107931000D01*
X138684000Y-107915701D01*
X138607086Y-107931000D01*
X122250914Y-107931000D01*
X122174000Y-107915701D01*
X122097086Y-107931000D01*
X122097082Y-107931000D01*
X121869269Y-107976315D01*
X121610931Y-108148931D01*
X121567361Y-108214138D01*
X120218500Y-109563000D01*
X120025682Y-109563000D01*
X119681197Y-109631522D01*
X119290547Y-109892547D01*
X119243472Y-109963000D01*
X117230528Y-109963000D01*
X117183453Y-109892547D01*
X116792803Y-109631522D01*
X116448318Y-109563000D01*
X116255501Y-109563000D01*
X111966751Y-105274250D01*
X140501000Y-105274250D01*
X140501000Y-106081785D01*
X140559004Y-106221819D01*
X140666180Y-106328996D01*
X140806214Y-106387000D01*
X141613750Y-106387000D01*
X141709000Y-106291750D01*
X141709000Y-105179000D01*
X140596250Y-105179000D01*
X140501000Y-105274250D01*
X111966751Y-105274250D01*
X111309597Y-104617097D01*
X111367936Y-104578116D01*
X111440401Y-104548100D01*
X111495863Y-104492638D01*
X111561069Y-104449069D01*
X111604639Y-104383862D01*
X111660100Y-104328401D01*
X111690115Y-104255938D01*
X111707302Y-104230215D01*
X140501000Y-104230215D01*
X140501000Y-105037750D01*
X140596250Y-105133000D01*
X141709000Y-105133000D01*
X141709000Y-104020250D01*
X141613750Y-103925000D01*
X140806214Y-103925000D01*
X140666180Y-103983004D01*
X140559004Y-104090181D01*
X140501000Y-104230215D01*
X111707302Y-104230215D01*
X111733685Y-104190731D01*
X111748985Y-104113814D01*
X111779000Y-104041351D01*
X111779000Y-101511186D01*
X111853017Y-101585203D01*
X112287085Y-101765000D01*
X112756915Y-101765000D01*
X113190983Y-101585203D01*
X113411186Y-101365000D01*
X115442814Y-101365000D01*
X115663017Y-101585203D01*
X116097085Y-101765000D01*
X116408500Y-101765000D01*
X117125362Y-102481863D01*
X117168932Y-102547070D01*
X117427270Y-102719686D01*
X117655083Y-102765001D01*
X117655087Y-102765001D01*
X117732000Y-102780300D01*
X117808913Y-102765001D01*
X130349085Y-102765001D01*
X130425999Y-102780300D01*
X130502913Y-102765001D01*
X130502917Y-102765001D01*
X130730730Y-102719686D01*
X130989068Y-102547070D01*
X131032640Y-102481860D01*
X131749304Y-101765196D01*
X139099331Y-101765196D01*
X139177963Y-101952509D01*
X139608316Y-102141023D01*
X140078051Y-102150498D01*
X140515656Y-101979492D01*
X140556037Y-101952509D01*
X140634669Y-101765196D01*
X139867000Y-100997527D01*
X139099331Y-101765196D01*
X131749304Y-101765196D01*
X133057501Y-100457000D01*
X138800189Y-100457000D01*
X138690977Y-100706316D01*
X138690977Y-100706316D01*
G37*
X138690977Y-100706316D02*
X138681502Y-101176051D01*
X138852508Y-101613656D01*
X138879491Y-101654037D01*
X139066804Y-101732669D01*
X139834473Y-100965000D01*
X139820331Y-100950858D01*
X139852858Y-100918331D01*
X139867000Y-100932473D01*
X139881142Y-100918331D01*
X139913669Y-100950858D01*
X139899527Y-100965000D01*
X140667196Y-101732669D01*
X140854509Y-101654037D01*
X141043023Y-101223684D01*
X141052498Y-100753949D01*
X140936457Y-100457000D01*
X141299116Y-100457000D01*
X141186000Y-100730085D01*
X141186000Y-101199915D01*
X141365797Y-101633983D01*
X141586001Y-101854187D01*
X141586001Y-102019452D01*
X141570701Y-102096370D01*
X141631315Y-102401100D01*
X141728849Y-102547069D01*
X141803932Y-102659439D01*
X141869139Y-102703009D01*
X142528001Y-103361871D01*
X142528001Y-103925000D01*
X141850250Y-103925000D01*
X141755000Y-104020250D01*
X141755000Y-105133000D01*
X141775000Y-105133000D01*
X141775000Y-105179000D01*
X141755000Y-105179000D01*
X141755000Y-106291750D01*
X141850250Y-106387000D01*
X142528002Y-106387000D01*
X142528002Y-106747361D01*
X142212312Y-106536424D01*
X141853239Y-106465000D01*
X141610761Y-106465000D01*
X141251688Y-106536424D01*
X140844499Y-106808499D01*
X140572424Y-107215688D01*
X140476884Y-107696000D01*
X140522943Y-107927556D01*
X140519500Y-107931000D01*
X138760914Y-107931000D01*
X138684000Y-107915701D01*
X138607086Y-107931000D01*
X122250914Y-107931000D01*
X122174000Y-107915701D01*
X122097086Y-107931000D01*
X122097082Y-107931000D01*
X121869269Y-107976315D01*
X121610931Y-108148931D01*
X121567361Y-108214138D01*
X120218500Y-109563000D01*
X120025682Y-109563000D01*
X119681197Y-109631522D01*
X119290547Y-109892547D01*
X119243472Y-109963000D01*
X117230528Y-109963000D01*
X117183453Y-109892547D01*
X116792803Y-109631522D01*
X116448318Y-109563000D01*
X116255501Y-109563000D01*
X111966751Y-105274250D01*
X140501000Y-105274250D01*
X140501000Y-106081785D01*
X140559004Y-106221819D01*
X140666180Y-106328996D01*
X140806214Y-106387000D01*
X141613750Y-106387000D01*
X141709000Y-106291750D01*
X141709000Y-105179000D01*
X140596250Y-105179000D01*
X140501000Y-105274250D01*
X111966751Y-105274250D01*
X111309597Y-104617097D01*
X111367936Y-104578116D01*
X111440401Y-104548100D01*
X111495863Y-104492638D01*
X111561069Y-104449069D01*
X111604639Y-104383862D01*
X111660100Y-104328401D01*
X111690115Y-104255938D01*
X111707302Y-104230215D01*
X140501000Y-104230215D01*
X140501000Y-105037750D01*
X140596250Y-105133000D01*
X141709000Y-105133000D01*
X141709000Y-104020250D01*
X141613750Y-103925000D01*
X140806214Y-103925000D01*
X140666180Y-103983004D01*
X140559004Y-104090181D01*
X140501000Y-104230215D01*
X111707302Y-104230215D01*
X111733685Y-104190731D01*
X111748985Y-104113814D01*
X111779000Y-104041351D01*
X111779000Y-101511186D01*
X111853017Y-101585203D01*
X112287085Y-101765000D01*
X112756915Y-101765000D01*
X113190983Y-101585203D01*
X113411186Y-101365000D01*
X115442814Y-101365000D01*
X115663017Y-101585203D01*
X116097085Y-101765000D01*
X116408500Y-101765000D01*
X117125362Y-102481863D01*
X117168932Y-102547070D01*
X117427270Y-102719686D01*
X117655083Y-102765001D01*
X117655087Y-102765001D01*
X117732000Y-102780300D01*
X117808913Y-102765001D01*
X130349085Y-102765001D01*
X130425999Y-102780300D01*
X130502913Y-102765001D01*
X130502917Y-102765001D01*
X130730730Y-102719686D01*
X130989068Y-102547070D01*
X131032640Y-102481860D01*
X131749304Y-101765196D01*
X139099331Y-101765196D01*
X139177963Y-101952509D01*
X139608316Y-102141023D01*
X140078051Y-102150498D01*
X140515656Y-101979492D01*
X140556037Y-101952509D01*
X140634669Y-101765196D01*
X139867000Y-100997527D01*
X139099331Y-101765196D01*
X131749304Y-101765196D01*
X133057501Y-100457000D01*
X138800189Y-100457000D01*
X138690977Y-100706316D01*
G36*
X144399000Y-100741816D02*
X144399000Y-107442000D01*
X144428002Y-107587802D01*
X144510592Y-107711408D01*
X145018592Y-108219408D01*
X145142198Y-108301998D01*
X145288000Y-108331000D01*
X148593304Y-108331000D01*
X148456435Y-108387693D01*
X148011693Y-108832435D01*
X147771000Y-109413519D01*
X147771000Y-109455000D01*
X143744501Y-109455000D01*
X143806863Y-109392638D01*
X143872070Y-109349068D01*
X144044686Y-109090730D01*
X144090001Y-108862917D01*
X144090001Y-108862914D01*
X144105300Y-108786000D01*
X144090001Y-108709086D01*
X144090001Y-103115289D01*
X144105301Y-103038371D01*
X144044686Y-102733640D01*
X143995106Y-102659439D01*
X143872070Y-102475302D01*
X143806861Y-102431731D01*
X143188658Y-101813528D01*
X143368203Y-101633983D01*
X143548000Y-101199915D01*
X143548000Y-100730085D01*
X143434884Y-100457000D01*
X144114184Y-100457000D01*
X144399000Y-100741816D01*
X144399000Y-100741816D01*
G37*
X144399000Y-100741816D02*
X144399000Y-107442000D01*
X144428002Y-107587802D01*
X144510592Y-107711408D01*
X145018592Y-108219408D01*
X145142198Y-108301998D01*
X145288000Y-108331000D01*
X148593304Y-108331000D01*
X148456435Y-108387693D01*
X148011693Y-108832435D01*
X147771000Y-109413519D01*
X147771000Y-109455000D01*
X143744501Y-109455000D01*
X143806863Y-109392638D01*
X143872070Y-109349068D01*
X144044686Y-109090730D01*
X144090001Y-108862917D01*
X144090001Y-108862914D01*
X144105300Y-108786000D01*
X144090001Y-108709086D01*
X144090001Y-103115289D01*
X144105301Y-103038371D01*
X144044686Y-102733640D01*
X143995106Y-102659439D01*
X143872070Y-102475302D01*
X143806861Y-102431731D01*
X143188658Y-101813528D01*
X143368203Y-101633983D01*
X143548000Y-101199915D01*
X143548000Y-100730085D01*
X143434884Y-100457000D01*
X144114184Y-100457000D01*
X144399000Y-100741816D01*
G36*
X109270085Y-105264000D02*
X109191649Y-105264000D01*
X109119185Y-105294016D01*
X109042269Y-105309315D01*
X108977062Y-105352885D01*
X108904599Y-105382900D01*
X108849138Y-105438361D01*
X108254140Y-106033360D01*
X108188931Y-106076931D01*
X108111376Y-106193000D01*
X104627252Y-106193000D01*
X104343467Y-105909215D01*
X103896319Y-105724000D01*
X104343467Y-105538785D01*
X104627252Y-105255000D01*
X109315331Y-105255000D01*
X109270085Y-105264000D01*
X109270085Y-105264000D01*
G37*
X109270085Y-105264000D02*
X109191649Y-105264000D01*
X109119185Y-105294016D01*
X109042269Y-105309315D01*
X108977062Y-105352885D01*
X108904599Y-105382900D01*
X108849138Y-105438361D01*
X108254140Y-106033360D01*
X108188931Y-106076931D01*
X108111376Y-106193000D01*
X104627252Y-106193000D01*
X104343467Y-105909215D01*
X103896319Y-105724000D01*
X104343467Y-105538785D01*
X104627252Y-105255000D01*
X109315331Y-105255000D01*
X109270085Y-105264000D01*
G36*
X109150143Y-97915071D02*
X109582137Y-98001000D01*
X109873863Y-98001000D01*
X109930550Y-97989724D01*
X109500133Y-98420141D01*
X109434923Y-98463713D01*
X109262307Y-98722052D01*
X109216992Y-98949865D01*
X109216992Y-98949868D01*
X109201693Y-99026782D01*
X109216992Y-99103696D01*
X109216993Y-103693000D01*
X104627252Y-103693000D01*
X104343467Y-103409215D01*
X103896319Y-103224000D01*
X104343467Y-103038785D01*
X104696785Y-102685467D01*
X104888000Y-102223834D01*
X104888000Y-101751789D01*
X108895120Y-97744670D01*
X109150143Y-97915071D01*
X109150143Y-97915071D01*
G37*
X109150143Y-97915071D02*
X109582137Y-98001000D01*
X109873863Y-98001000D01*
X109930550Y-97989724D01*
X109500133Y-98420141D01*
X109434923Y-98463713D01*
X109262307Y-98722052D01*
X109216992Y-98949865D01*
X109216992Y-98949868D01*
X109201693Y-99026782D01*
X109216992Y-99103696D01*
X109216993Y-103693000D01*
X104627252Y-103693000D01*
X104343467Y-103409215D01*
X103896319Y-103224000D01*
X104343467Y-103038785D01*
X104696785Y-102685467D01*
X104888000Y-102223834D01*
X104888000Y-101751789D01*
X108895120Y-97744670D01*
X109150143Y-97915071D01*
G36*
X161875000Y-91618526D02*
X161875001Y-92228200D01*
X159308000Y-92228200D01*
X159308000Y-91558645D01*
X159316443Y-91516200D01*
X159282992Y-91348032D01*
X159187733Y-91205467D01*
X159045168Y-91110208D01*
X158919445Y-91085200D01*
X158877000Y-91076757D01*
X158834555Y-91085200D01*
X157014445Y-91085200D01*
X156972000Y-91076757D01*
X156929555Y-91085200D01*
X156803832Y-91110208D01*
X156661267Y-91205467D01*
X156566008Y-91348032D01*
X156532557Y-91516200D01*
X156541001Y-91558650D01*
X156541000Y-92228200D01*
X154322045Y-92228200D01*
X154279600Y-92219757D01*
X154237155Y-92228200D01*
X154111432Y-92253208D01*
X153968867Y-92348467D01*
X153873608Y-92491032D01*
X153840157Y-92659200D01*
X153848601Y-92701650D01*
X153848600Y-95563154D01*
X153840157Y-95605600D01*
X153873608Y-95773768D01*
X153924613Y-95850102D01*
X153968867Y-95916333D01*
X154027941Y-95955805D01*
X153967314Y-95996314D01*
X153883106Y-96122341D01*
X153882577Y-96125000D01*
X153543000Y-96125000D01*
X153543000Y-86106000D01*
X153527684Y-86029000D01*
X156285475Y-86029000D01*
X161875000Y-91618526D01*
X161875000Y-91618526D01*
G37*
X161875000Y-91618526D02*
X161875001Y-92228200D01*
X159308000Y-92228200D01*
X159308000Y-91558645D01*
X159316443Y-91516200D01*
X159282992Y-91348032D01*
X159187733Y-91205467D01*
X159045168Y-91110208D01*
X158919445Y-91085200D01*
X158877000Y-91076757D01*
X158834555Y-91085200D01*
X157014445Y-91085200D01*
X156972000Y-91076757D01*
X156929555Y-91085200D01*
X156803832Y-91110208D01*
X156661267Y-91205467D01*
X156566008Y-91348032D01*
X156532557Y-91516200D01*
X156541001Y-91558650D01*
X156541000Y-92228200D01*
X154322045Y-92228200D01*
X154279600Y-92219757D01*
X154237155Y-92228200D01*
X154111432Y-92253208D01*
X153968867Y-92348467D01*
X153873608Y-92491032D01*
X153840157Y-92659200D01*
X153848601Y-92701650D01*
X153848600Y-95563154D01*
X153840157Y-95605600D01*
X153873608Y-95773768D01*
X153924613Y-95850102D01*
X153968867Y-95916333D01*
X154027941Y-95955805D01*
X153967314Y-95996314D01*
X153883106Y-96122341D01*
X153882577Y-96125000D01*
X153543000Y-96125000D01*
X153543000Y-86106000D01*
X153527684Y-86029000D01*
X156285475Y-86029000D01*
X161875000Y-91618526D01*
M02*
