G04 #@! TF.GenerationSoftware,KiCad,Pcbnew,5.0.0*
G04 #@! TF.CreationDate,2018-08-13T20:41:57+02:00*
G04 #@! TF.ProjectId,bobbycar,626F6262796361722E6B696361645F70,rev?*
G04 #@! TF.SameCoordinates,Original*
G04 #@! TF.FileFunction,Copper,L2,Bot,Signal*
G04 #@! TF.FilePolarity,Positive*
%FSLAX46Y46*%
G04 Gerber Fmt 4.6, Leading zero omitted, Abs format (unit mm)*
G04 Created by KiCad (PCBNEW 5.0.0) date Mon Aug 13 20:41:57 2018*
%MOMM*%
%LPD*%
G01*
G04 APERTURE LIST*
G04 #@! TA.AperFunction,ComponentPad*
%ADD10C,1.600000*%
G04 #@! TD*
G04 #@! TA.AperFunction,ComponentPad*
%ADD11O,1.600000X1.600000*%
G04 #@! TD*
G04 #@! TA.AperFunction,SMDPad,CuDef*
%ADD12R,0.900000X0.500000*%
G04 #@! TD*
G04 #@! TA.AperFunction,SMDPad,CuDef*
%ADD13R,0.800000X0.750000*%
G04 #@! TD*
G04 #@! TA.AperFunction,ComponentPad*
%ADD14O,2.200000X2.200000*%
G04 #@! TD*
G04 #@! TA.AperFunction,ComponentPad*
%ADD15R,2.200000X2.200000*%
G04 #@! TD*
G04 #@! TA.AperFunction,ComponentPad*
%ADD16R,1.700000X1.700000*%
G04 #@! TD*
G04 #@! TA.AperFunction,ComponentPad*
%ADD17O,1.700000X1.700000*%
G04 #@! TD*
G04 #@! TA.AperFunction,ComponentPad*
%ADD18R,1.600000X1.600000*%
G04 #@! TD*
G04 #@! TA.AperFunction,ComponentPad*
%ADD19C,1.750000*%
G04 #@! TD*
G04 #@! TA.AperFunction,ComponentPad*
%ADD20R,1.750000X1.750000*%
G04 #@! TD*
G04 #@! TA.AperFunction,ComponentPad*
%ADD21R,2.400000X2.400000*%
G04 #@! TD*
G04 #@! TA.AperFunction,ComponentPad*
%ADD22C,2.400000*%
G04 #@! TD*
G04 #@! TA.AperFunction,ComponentPad*
%ADD23R,1.800000X1.800000*%
G04 #@! TD*
G04 #@! TA.AperFunction,ComponentPad*
%ADD24C,1.800000*%
G04 #@! TD*
G04 #@! TA.AperFunction,SMDPad,CuDef*
%ADD25R,7.000000X1.270000*%
G04 #@! TD*
G04 #@! TA.AperFunction,ViaPad*
%ADD26C,0.800000*%
G04 #@! TD*
G04 #@! TA.AperFunction,Conductor*
%ADD27C,0.800000*%
G04 #@! TD*
G04 #@! TA.AperFunction,Conductor*
%ADD28C,0.500000*%
G04 #@! TD*
G04 #@! TA.AperFunction,Conductor*
%ADD29C,0.600000*%
G04 #@! TD*
G04 #@! TA.AperFunction,Conductor*
%ADD30C,0.700000*%
G04 #@! TD*
G04 #@! TA.AperFunction,Conductor*
%ADD31C,0.254000*%
G04 #@! TD*
G04 APERTURE END LIST*
D10*
G04 #@! TO.P,C2,2*
G04 #@! TO.N,GND*
X139018000Y-100965000D03*
G04 #@! TO.P,C2,1*
G04 #@! TO.N,RX*
X144018000Y-100965000D03*
G04 #@! TD*
G04 #@! TO.P,C3,1*
G04 #@! TO.N,VDD*
X126111000Y-96139000D03*
G04 #@! TO.P,C3,2*
G04 #@! TO.N,GND*
X126111000Y-91139000D03*
G04 #@! TD*
G04 #@! TO.P,C4,2*
G04 #@! TO.N,GND*
X143049000Y-88773000D03*
G04 #@! TO.P,C4,1*
G04 #@! TO.N,VCC*
X138049000Y-88773000D03*
G04 #@! TD*
G04 #@! TO.P,C1,1*
G04 #@! TO.N,GND*
X139001500Y-95885000D03*
G04 #@! TO.P,C1,2*
G04 #@! TO.N,TX*
X144001500Y-95885000D03*
G04 #@! TD*
D11*
G04 #@! TO.P,R2,2*
G04 #@! TO.N,GND*
X123952000Y-100584000D03*
D10*
G04 #@! TO.P,R2,1*
G04 #@! TO.N,RX*
X123952000Y-110744000D03*
G04 #@! TD*
D12*
G04 #@! TO.P,R7,1*
G04 #@! TO.N,RX*
X122047000Y-110744000D03*
G04 #@! TO.P,R7,2*
G04 #@! TO.N,GND*
X122047000Y-109244000D03*
G04 #@! TD*
G04 #@! TO.P,R6,2*
G04 #@! TO.N,TX*
X118237000Y-110720000D03*
G04 #@! TO.P,R6,1*
G04 #@! TO.N,GND*
X118237000Y-109220000D03*
G04 #@! TD*
D13*
G04 #@! TO.P,C7,1*
G04 #@! TO.N,GND*
X140740000Y-95885000D03*
G04 #@! TO.P,C7,2*
G04 #@! TO.N,TX*
X142240000Y-95885000D03*
G04 #@! TD*
G04 #@! TO.P,C8,2*
G04 #@! TO.N,GND*
X140740000Y-100965000D03*
G04 #@! TO.P,C8,1*
G04 #@! TO.N,RX*
X142240000Y-100965000D03*
G04 #@! TD*
D14*
G04 #@! TO.P,D1,2*
G04 #@! TO.N,Net-(D1-Pad2)*
X109728000Y-93218000D03*
D15*
G04 #@! TO.P,D1,1*
G04 #@! TO.N,VDD*
X117348000Y-93218000D03*
G04 #@! TD*
G04 #@! TO.P,D2,1*
G04 #@! TO.N,VDD*
X117348000Y-96520000D03*
D14*
G04 #@! TO.P,D2,2*
G04 #@! TO.N,Net-(D2-Pad2)*
X109728000Y-96520000D03*
G04 #@! TD*
D16*
G04 #@! TO.P,UART1,1*
G04 #@! TO.N,GND*
X141732000Y-105156000D03*
D17*
G04 #@! TO.P,UART1,2*
G04 #@! TO.N,TX*
X141732000Y-107696000D03*
G04 #@! TO.P,UART1,3*
G04 #@! TO.N,RX*
X141732000Y-110236000D03*
G04 #@! TD*
D10*
G04 #@! TO.P,R1,1*
G04 #@! TO.N,GND*
X120142000Y-100584000D03*
D11*
G04 #@! TO.P,R1,2*
G04 #@! TO.N,TX*
X120142000Y-110744000D03*
G04 #@! TD*
D10*
G04 #@! TO.P,R3,1*
G04 #@! TO.N,Net-(D3-Pad2)*
X117602000Y-88646000D03*
D11*
G04 #@! TO.P,R3,2*
G04 #@! TO.N,VCC*
X127762000Y-88646000D03*
G04 #@! TD*
G04 #@! TO.P,R4,2*
G04 #@! TO.N,RX*
X112522000Y-110744000D03*
D10*
G04 #@! TO.P,R4,1*
G04 #@! TO.N,VCC*
X112522000Y-100584000D03*
G04 #@! TD*
G04 #@! TO.P,R5,1*
G04 #@! TO.N,VCC*
X116332000Y-100584000D03*
D11*
G04 #@! TO.P,R5,2*
G04 #@! TO.N,TX*
X116332000Y-110744000D03*
G04 #@! TD*
D10*
G04 #@! TO.P,C5,2*
G04 #@! TO.N,GND*
X129540000Y-99568000D03*
D18*
G04 #@! TO.P,C5,1*
G04 #@! TO.N,VDD*
X127540000Y-99568000D03*
G04 #@! TD*
G04 #@! TO.P,C6,1*
G04 #@! TO.N,VCC*
X135318500Y-98552000D03*
D10*
G04 #@! TO.P,C6,2*
G04 #@! TO.N,GND*
X133318500Y-98552000D03*
G04 #@! TD*
D19*
G04 #@! TO.P,J1,4*
G04 #@! TO.N,GND*
X104521000Y-96019000D03*
G04 #@! TO.P,J1,3*
G04 #@! TO.N,RX.1*
X104521000Y-93519000D03*
G04 #@! TO.P,J1,2*
G04 #@! TO.N,TX.1*
X104521000Y-91019000D03*
D20*
G04 #@! TO.P,J1,1*
G04 #@! TO.N,Net-(D1-Pad2)*
X104521000Y-88519000D03*
G04 #@! TD*
G04 #@! TO.P,J2,1*
G04 #@! TO.N,Net-(D2-Pad2)*
X104521000Y-101981000D03*
D19*
G04 #@! TO.P,J2,2*
G04 #@! TO.N,TX*
X104521000Y-104481000D03*
G04 #@! TO.P,J2,3*
G04 #@! TO.N,RX*
X104521000Y-106981000D03*
G04 #@! TO.P,J2,4*
G04 #@! TO.N,GND*
X104521000Y-109481000D03*
G04 #@! TD*
D21*
G04 #@! TO.P,J4,1*
G04 #@! TO.N,VCC*
X149352000Y-106228000D03*
D22*
G04 #@! TO.P,J4,2*
G04 #@! TO.N,RX*
X149352000Y-109728000D03*
G04 #@! TD*
G04 #@! TO.P,J5,2*
G04 #@! TO.N,GND*
X149352000Y-91948000D03*
D21*
G04 #@! TO.P,J5,1*
G04 #@! TO.N,VCC*
X149352000Y-88448000D03*
G04 #@! TD*
G04 #@! TO.P,J3,1*
G04 #@! TO.N,VCC*
X149352000Y-97338000D03*
D22*
G04 #@! TO.P,J3,2*
G04 #@! TO.N,TX*
X149352000Y-100838000D03*
G04 #@! TD*
D23*
G04 #@! TO.P,D3,1*
G04 #@! TO.N,GND*
X123190000Y-93472000D03*
D24*
G04 #@! TO.P,D3,2*
G04 #@! TO.N,Net-(D3-Pad2)*
X120650000Y-93472000D03*
G04 #@! TD*
D25*
G04 #@! TO.P,J6,3*
G04 #@! TO.N,VCC*
X157792800Y-96906000D03*
G04 #@! TO.P,J6,4*
G04 #@! TO.N,RX*
X157792800Y-100706000D03*
G04 #@! TD*
D26*
G04 #@! TO.N,VCC*
X152654000Y-95631000D03*
G04 #@! TO.N,RX*
X109347000Y-106045000D03*
X110998000Y-103886000D03*
G04 #@! TO.N,GND*
X155448000Y-98806000D03*
X159385000Y-98806000D03*
X154051000Y-106299000D03*
X117094000Y-109474000D03*
X146812000Y-108966000D03*
X137541000Y-92646500D03*
X137541000Y-91821000D03*
X137541000Y-90995500D03*
X153924000Y-90805000D03*
X106045000Y-105664000D03*
X106172000Y-103251000D03*
X108585000Y-98425000D03*
X112268000Y-102616000D03*
X137541000Y-101092000D03*
G04 #@! TO.N,RX.1*
X112268000Y-88900000D03*
X111506000Y-91186000D03*
G04 #@! TD*
D27*
G04 #@! TO.N,VCC*
X153294000Y-96906000D02*
X152654000Y-96266000D01*
X158267400Y-96906000D02*
X153294000Y-96906000D01*
X152654000Y-96266000D02*
X152654000Y-95631000D01*
D28*
G04 #@! TO.N,RX*
X142240000Y-100965000D02*
X144018000Y-100965000D01*
D29*
X122047000Y-110744000D02*
X123952000Y-110744000D01*
D27*
X123952000Y-110744000D02*
X123952000Y-109368998D01*
X123952000Y-109368998D02*
X122953001Y-108369999D01*
X122953001Y-108369999D02*
X114896001Y-108369999D01*
X114896001Y-108369999D02*
X113321999Y-109944001D01*
X113321999Y-109944001D02*
X112522000Y-110744000D01*
X109855000Y-105537000D02*
X109347000Y-106045000D01*
X110998000Y-104394000D02*
X109855000Y-105537000D01*
X154584380Y-100706000D02*
X151152001Y-104138379D01*
X110998000Y-103886000D02*
X110998000Y-104394000D01*
X158267400Y-100706000D02*
X154584380Y-100706000D01*
X151152001Y-104138379D02*
X151152001Y-107927999D01*
X151152001Y-107927999D02*
X150551999Y-108528001D01*
X150551999Y-108528001D02*
X149352000Y-109728000D01*
D30*
G04 #@! TO.N,RX.1*
X111506000Y-89662000D02*
X112268000Y-88900000D01*
X111506000Y-91186000D02*
X111506000Y-89662000D01*
D27*
G04 #@! TO.N,Net-(D1-Pad2)*
X105022000Y-88512000D02*
X109728000Y-93218000D01*
D28*
G04 #@! TO.N,TX*
X142240000Y-95885000D02*
X144001500Y-95885000D01*
D27*
X145796000Y-101473000D02*
X145796000Y-97679500D01*
X145796000Y-97679500D02*
X144001500Y-95885000D01*
D29*
X118237000Y-110720000D02*
X120118000Y-110720000D01*
X120118000Y-110720000D02*
X120142000Y-110744000D01*
D27*
X145796000Y-101473000D02*
X145796000Y-103124000D01*
X149352000Y-100838000D02*
X146431000Y-100838000D01*
X146431000Y-100838000D02*
X145796000Y-101473000D01*
X141859000Y-107696000D02*
X145796000Y-103759000D01*
X145796000Y-103759000D02*
X145796000Y-103124000D01*
G04 #@! TD*
D31*
G04 #@! TO.N,GND*
G36*
X161875000Y-91618526D02*
X161875001Y-92228200D01*
X159308000Y-92228200D01*
X159308000Y-91558645D01*
X159316443Y-91516200D01*
X159282992Y-91348032D01*
X159187733Y-91205467D01*
X159045168Y-91110208D01*
X158919445Y-91085200D01*
X158877000Y-91076757D01*
X158834555Y-91085200D01*
X157014445Y-91085200D01*
X156972000Y-91076757D01*
X156929555Y-91085200D01*
X156803832Y-91110208D01*
X156661267Y-91205467D01*
X156566008Y-91348032D01*
X156532557Y-91516200D01*
X156541001Y-91558650D01*
X156541000Y-92228200D01*
X154322045Y-92228200D01*
X154279600Y-92219757D01*
X154237155Y-92228200D01*
X154111432Y-92253208D01*
X153968867Y-92348467D01*
X153873608Y-92491032D01*
X153840157Y-92659200D01*
X153848601Y-92701650D01*
X153848600Y-95563154D01*
X153840157Y-95605600D01*
X153873608Y-95773768D01*
X153926197Y-95852473D01*
X153968867Y-95916333D01*
X154053341Y-95972777D01*
X154018114Y-95996314D01*
X153933906Y-96122341D01*
X153933377Y-96125000D01*
X153617500Y-96125000D01*
X153435000Y-95942500D01*
X153435000Y-95475649D01*
X153404985Y-95403186D01*
X153389685Y-95326269D01*
X153346115Y-95261062D01*
X153316100Y-95188599D01*
X153260639Y-95133138D01*
X153217069Y-95067931D01*
X153151862Y-95024361D01*
X153096401Y-94968900D01*
X153023938Y-94938885D01*
X152958731Y-94895315D01*
X152881814Y-94880015D01*
X152809351Y-94850000D01*
X152730918Y-94850000D01*
X152654000Y-94834700D01*
X152577082Y-94850000D01*
X152498649Y-94850000D01*
X152426185Y-94880016D01*
X152349270Y-94895315D01*
X152284065Y-94938884D01*
X152211599Y-94968900D01*
X152156136Y-95024363D01*
X152090932Y-95067931D01*
X152047363Y-95133136D01*
X151991900Y-95188599D01*
X151961884Y-95261063D01*
X151918315Y-95326269D01*
X151903015Y-95403186D01*
X151873000Y-95475649D01*
X151873000Y-96189086D01*
X151857701Y-96266000D01*
X151873000Y-96342914D01*
X151873000Y-96342917D01*
X151918315Y-96570730D01*
X152090931Y-96829069D01*
X152156141Y-96872641D01*
X152687359Y-97403859D01*
X152730931Y-97469069D01*
X152931883Y-97603341D01*
X152989269Y-97641685D01*
X153294000Y-97702300D01*
X153370918Y-97687000D01*
X153933377Y-97687000D01*
X153933906Y-97689659D01*
X154018114Y-97815686D01*
X154144141Y-97899894D01*
X154292800Y-97929464D01*
X161113001Y-97929464D01*
X161113000Y-99682536D01*
X154292800Y-99682536D01*
X154144141Y-99712106D01*
X154018114Y-99796314D01*
X153933906Y-99922341D01*
X153904336Y-100071000D01*
X153904336Y-100281543D01*
X150654142Y-103531738D01*
X150588932Y-103575310D01*
X150416316Y-103833649D01*
X150371001Y-104061462D01*
X150371001Y-104061465D01*
X150355702Y-104138379D01*
X150371001Y-104215293D01*
X150371001Y-104639536D01*
X148152000Y-104639536D01*
X148003341Y-104669106D01*
X147877314Y-104753314D01*
X147793106Y-104879341D01*
X147763536Y-105028000D01*
X147763536Y-107428000D01*
X147793106Y-107576659D01*
X147877314Y-107702686D01*
X148003341Y-107786894D01*
X148152000Y-107816464D01*
X150159036Y-107816464D01*
X150054140Y-107921360D01*
X150054137Y-107921362D01*
X149781045Y-108194454D01*
X149666481Y-108147000D01*
X149037519Y-108147000D01*
X148456435Y-108387693D01*
X148011693Y-108832435D01*
X147771000Y-109413519D01*
X147771000Y-110042481D01*
X148011693Y-110623565D01*
X148456435Y-111068307D01*
X149037519Y-111309000D01*
X149666481Y-111309000D01*
X150247565Y-111068307D01*
X150692307Y-110623565D01*
X150933000Y-110042481D01*
X150933000Y-109413519D01*
X150885546Y-109298955D01*
X151158638Y-109025863D01*
X151158640Y-109025860D01*
X151649863Y-108534638D01*
X151715070Y-108491068D01*
X151887686Y-108232730D01*
X151933001Y-108004917D01*
X151933001Y-108004913D01*
X151948300Y-107927999D01*
X151933001Y-107851085D01*
X151933001Y-104461879D01*
X153848601Y-102546280D01*
X153848600Y-104910354D01*
X153840157Y-104952800D01*
X153873608Y-105120968D01*
X153921382Y-105192467D01*
X153968867Y-105263533D01*
X154111432Y-105358792D01*
X154279600Y-105392243D01*
X154322045Y-105383800D01*
X156541001Y-105383800D01*
X156541000Y-106053354D01*
X156532557Y-106095800D01*
X156566008Y-106263968D01*
X156661267Y-106406533D01*
X156803832Y-106501792D01*
X156972000Y-106535243D01*
X157014445Y-106526800D01*
X158834555Y-106526800D01*
X158877000Y-106535243D01*
X158919445Y-106526800D01*
X159045168Y-106501792D01*
X159187733Y-106406533D01*
X159282992Y-106263968D01*
X159316443Y-106095800D01*
X159308000Y-106053355D01*
X159308000Y-105383800D01*
X161875001Y-105383800D01*
X161875000Y-105993474D01*
X155777475Y-112091000D01*
X101015000Y-112091000D01*
X101015000Y-110744000D01*
X111317863Y-110744000D01*
X111409522Y-111204803D01*
X111670547Y-111595453D01*
X112061197Y-111856478D01*
X112405682Y-111925000D01*
X112638318Y-111925000D01*
X112982803Y-111856478D01*
X113373453Y-111595453D01*
X113634478Y-111204803D01*
X113726137Y-110744000D01*
X113709606Y-110660894D01*
X113928638Y-110441863D01*
X113928640Y-110441860D01*
X115219502Y-109150999D01*
X122629501Y-109150999D01*
X123171001Y-109692499D01*
X123171001Y-109854813D01*
X122962814Y-110063000D01*
X121979931Y-110063000D01*
X121781287Y-110102513D01*
X121776763Y-110105536D01*
X121597000Y-110105536D01*
X121448341Y-110135106D01*
X121322314Y-110219314D01*
X121260248Y-110312203D01*
X121254478Y-110283197D01*
X120993453Y-109892547D01*
X120602803Y-109631522D01*
X120258318Y-109563000D01*
X120025682Y-109563000D01*
X119681197Y-109631522D01*
X119290547Y-109892547D01*
X119192690Y-110039000D01*
X118169931Y-110039000D01*
X117971287Y-110078513D01*
X117966763Y-110081536D01*
X117787000Y-110081536D01*
X117638341Y-110111106D01*
X117512314Y-110195314D01*
X117446569Y-110293709D01*
X117444478Y-110283197D01*
X117183453Y-109892547D01*
X116792803Y-109631522D01*
X116448318Y-109563000D01*
X116215682Y-109563000D01*
X115871197Y-109631522D01*
X115480547Y-109892547D01*
X115219522Y-110283197D01*
X115127863Y-110744000D01*
X115219522Y-111204803D01*
X115480547Y-111595453D01*
X115871197Y-111856478D01*
X116215682Y-111925000D01*
X116448318Y-111925000D01*
X116792803Y-111856478D01*
X117183453Y-111595453D01*
X117444478Y-111204803D01*
X117453926Y-111157302D01*
X117512314Y-111244686D01*
X117638341Y-111328894D01*
X117787000Y-111358464D01*
X117966763Y-111358464D01*
X117971287Y-111361487D01*
X118169931Y-111401000D01*
X119160617Y-111401000D01*
X119290547Y-111595453D01*
X119681197Y-111856478D01*
X120025682Y-111925000D01*
X120258318Y-111925000D01*
X120602803Y-111856478D01*
X120993453Y-111595453D01*
X121254478Y-111204803D01*
X121260248Y-111175797D01*
X121322314Y-111268686D01*
X121448341Y-111352894D01*
X121597000Y-111382464D01*
X121776763Y-111382464D01*
X121781287Y-111385487D01*
X121979931Y-111425000D01*
X122962814Y-111425000D01*
X123283017Y-111745203D01*
X123717085Y-111925000D01*
X124186915Y-111925000D01*
X124620983Y-111745203D01*
X124953203Y-111412983D01*
X125133000Y-110978915D01*
X125133000Y-110509085D01*
X125019885Y-110236000D01*
X140476884Y-110236000D01*
X140572424Y-110716312D01*
X140844499Y-111123501D01*
X141251688Y-111395576D01*
X141610761Y-111467000D01*
X141853239Y-111467000D01*
X142212312Y-111395576D01*
X142619501Y-111123501D01*
X142891576Y-110716312D01*
X142987116Y-110236000D01*
X142891576Y-109755688D01*
X142619501Y-109348499D01*
X142212312Y-109076424D01*
X141853239Y-109005000D01*
X141610761Y-109005000D01*
X141251688Y-109076424D01*
X140844499Y-109348499D01*
X140572424Y-109755688D01*
X140476884Y-110236000D01*
X125019885Y-110236000D01*
X124953203Y-110075017D01*
X124733000Y-109854814D01*
X124733000Y-109445912D01*
X124748299Y-109368998D01*
X124733000Y-109292084D01*
X124733000Y-109292080D01*
X124687685Y-109064267D01*
X124515069Y-108805929D01*
X124449862Y-108762359D01*
X123559642Y-107872140D01*
X123516070Y-107806930D01*
X123350052Y-107696000D01*
X140476884Y-107696000D01*
X140572424Y-108176312D01*
X140844499Y-108583501D01*
X141251688Y-108855576D01*
X141610761Y-108927000D01*
X141853239Y-108927000D01*
X142212312Y-108855576D01*
X142619501Y-108583501D01*
X142891576Y-108176312D01*
X142987116Y-107696000D01*
X142983198Y-107676302D01*
X146293863Y-104365638D01*
X146359069Y-104322069D01*
X146419809Y-104231166D01*
X146531685Y-104063731D01*
X146540334Y-104020250D01*
X146577000Y-103835918D01*
X146577000Y-103835914D01*
X146592299Y-103759000D01*
X146577000Y-103682086D01*
X146577000Y-101796500D01*
X146754500Y-101619000D01*
X147964239Y-101619000D01*
X148011693Y-101733565D01*
X148456435Y-102178307D01*
X149037519Y-102419000D01*
X149666481Y-102419000D01*
X150247565Y-102178307D01*
X150692307Y-101733565D01*
X150933000Y-101152481D01*
X150933000Y-100523519D01*
X150692307Y-99942435D01*
X150247565Y-99497693D01*
X149666481Y-99257000D01*
X149037519Y-99257000D01*
X148456435Y-99497693D01*
X148011693Y-99942435D01*
X147964239Y-100057000D01*
X146577000Y-100057000D01*
X146577000Y-97756413D01*
X146592299Y-97679499D01*
X146577000Y-97602585D01*
X146577000Y-97602582D01*
X146531685Y-97374769D01*
X146359069Y-97116431D01*
X146293862Y-97072861D01*
X145359001Y-96138000D01*
X147763536Y-96138000D01*
X147763536Y-98538000D01*
X147793106Y-98686659D01*
X147877314Y-98812686D01*
X148003341Y-98896894D01*
X148152000Y-98926464D01*
X150552000Y-98926464D01*
X150700659Y-98896894D01*
X150826686Y-98812686D01*
X150910894Y-98686659D01*
X150940464Y-98538000D01*
X150940464Y-96138000D01*
X150910894Y-95989341D01*
X150826686Y-95863314D01*
X150700659Y-95779106D01*
X150552000Y-95749536D01*
X148152000Y-95749536D01*
X148003341Y-95779106D01*
X147877314Y-95863314D01*
X147793106Y-95989341D01*
X147763536Y-96138000D01*
X145359001Y-96138000D01*
X145182500Y-95961500D01*
X145182500Y-95650085D01*
X145002703Y-95216017D01*
X144670483Y-94883797D01*
X144236415Y-94704000D01*
X143766585Y-94704000D01*
X143332517Y-94883797D01*
X143000297Y-95216017D01*
X142984564Y-95254000D01*
X142927172Y-95254000D01*
X142914686Y-95235314D01*
X142788659Y-95151106D01*
X142640000Y-95121536D01*
X141840000Y-95121536D01*
X141691341Y-95151106D01*
X141565314Y-95235314D01*
X141481106Y-95361341D01*
X141451536Y-95510000D01*
X141451536Y-96260000D01*
X141481106Y-96408659D01*
X141565314Y-96534686D01*
X141691341Y-96618894D01*
X141840000Y-96648464D01*
X142640000Y-96648464D01*
X142788659Y-96618894D01*
X142914686Y-96534686D01*
X142927172Y-96516000D01*
X142984564Y-96516000D01*
X143000297Y-96553983D01*
X143332517Y-96886203D01*
X143766585Y-97066000D01*
X144078000Y-97066000D01*
X145015001Y-98003002D01*
X145015000Y-100291814D01*
X144686983Y-99963797D01*
X144252915Y-99784000D01*
X143783085Y-99784000D01*
X143349017Y-99963797D01*
X143016797Y-100296017D01*
X143001064Y-100334000D01*
X142927172Y-100334000D01*
X142914686Y-100315314D01*
X142788659Y-100231106D01*
X142640000Y-100201536D01*
X141840000Y-100201536D01*
X141691341Y-100231106D01*
X141565314Y-100315314D01*
X141481106Y-100441341D01*
X141451536Y-100590000D01*
X141451536Y-101340000D01*
X141481106Y-101488659D01*
X141565314Y-101614686D01*
X141691341Y-101698894D01*
X141840000Y-101728464D01*
X142640000Y-101728464D01*
X142788659Y-101698894D01*
X142914686Y-101614686D01*
X142927172Y-101596000D01*
X143001064Y-101596000D01*
X143016797Y-101633983D01*
X143349017Y-101966203D01*
X143783085Y-102146000D01*
X144252915Y-102146000D01*
X144686983Y-101966203D01*
X145015000Y-101638186D01*
X145015001Y-103047077D01*
X145015000Y-103047082D01*
X145015000Y-103435499D01*
X142963000Y-105487500D01*
X142963000Y-105274250D01*
X142867750Y-105179000D01*
X141755000Y-105179000D01*
X141755000Y-106291750D01*
X141850250Y-106387000D01*
X142063500Y-106387000D01*
X141963556Y-106486943D01*
X141853239Y-106465000D01*
X141610761Y-106465000D01*
X141251688Y-106536424D01*
X140844499Y-106808499D01*
X140572424Y-107215688D01*
X140476884Y-107696000D01*
X123350052Y-107696000D01*
X123257732Y-107634314D01*
X123029919Y-107588999D01*
X123029915Y-107588999D01*
X122953001Y-107573700D01*
X122876087Y-107588999D01*
X114972915Y-107588999D01*
X114896001Y-107573700D01*
X114819087Y-107588999D01*
X114819083Y-107588999D01*
X114591270Y-107634314D01*
X114332932Y-107806930D01*
X114289362Y-107872137D01*
X112824140Y-109337360D01*
X112824137Y-109337362D01*
X112598499Y-109563000D01*
X112405682Y-109563000D01*
X112061197Y-109631522D01*
X111670547Y-109892547D01*
X111409522Y-110283197D01*
X111317863Y-110744000D01*
X101015000Y-110744000D01*
X101015000Y-110335279D01*
X103699248Y-110335279D01*
X103787008Y-110530383D01*
X104244461Y-110731390D01*
X104744015Y-110742037D01*
X105209617Y-110560702D01*
X105254992Y-110530383D01*
X105342752Y-110335279D01*
X104521000Y-109513527D01*
X103699248Y-110335279D01*
X101015000Y-110335279D01*
X101015000Y-109704015D01*
X103259963Y-109704015D01*
X103441298Y-110169617D01*
X103471617Y-110214992D01*
X103666721Y-110302752D01*
X104488473Y-109481000D01*
X104553527Y-109481000D01*
X105375279Y-110302752D01*
X105570383Y-110214992D01*
X105771390Y-109757539D01*
X105782037Y-109257985D01*
X105600702Y-108792383D01*
X105570383Y-108747008D01*
X105375279Y-108659248D01*
X104553527Y-109481000D01*
X104488473Y-109481000D01*
X103666721Y-108659248D01*
X103471617Y-108747008D01*
X103270610Y-109204461D01*
X103259963Y-109704015D01*
X101015000Y-109704015D01*
X101015000Y-101106000D01*
X103257536Y-101106000D01*
X103257536Y-102856000D01*
X103287106Y-103004659D01*
X103371314Y-103130686D01*
X103497341Y-103214894D01*
X103646000Y-103244464D01*
X104224176Y-103244464D01*
X103809533Y-103416215D01*
X103456215Y-103769533D01*
X103265000Y-104231166D01*
X103265000Y-104730834D01*
X103456215Y-105192467D01*
X103809533Y-105545785D01*
X104256681Y-105731000D01*
X103809533Y-105916215D01*
X103456215Y-106269533D01*
X103265000Y-106731166D01*
X103265000Y-107230834D01*
X103456215Y-107692467D01*
X103809533Y-108045785D01*
X104262964Y-108233603D01*
X103832383Y-108401298D01*
X103787008Y-108431617D01*
X103699248Y-108626721D01*
X104521000Y-109448473D01*
X105342752Y-108626721D01*
X105254992Y-108431617D01*
X104797539Y-108230610D01*
X104786813Y-108230381D01*
X105232467Y-108045785D01*
X105585785Y-107692467D01*
X105777000Y-107230834D01*
X105777000Y-106731166D01*
X105585785Y-106269533D01*
X105361252Y-106045000D01*
X108550701Y-106045000D01*
X108566000Y-106121914D01*
X108566000Y-106200351D01*
X108596016Y-106272816D01*
X108611315Y-106349730D01*
X108654884Y-106414936D01*
X108684900Y-106487401D01*
X108740362Y-106542863D01*
X108783931Y-106608069D01*
X108849137Y-106651638D01*
X108904599Y-106707100D01*
X108977064Y-106737116D01*
X109042270Y-106780685D01*
X109119184Y-106795984D01*
X109191649Y-106826000D01*
X109270086Y-106826000D01*
X109347000Y-106841299D01*
X109423914Y-106826000D01*
X109502351Y-106826000D01*
X109574816Y-106795984D01*
X109651730Y-106780685D01*
X109716935Y-106737116D01*
X109789401Y-106707100D01*
X110461639Y-106034862D01*
X110461641Y-106034859D01*
X111222250Y-105274250D01*
X140501000Y-105274250D01*
X140501000Y-106081785D01*
X140559004Y-106221819D01*
X140666180Y-106328996D01*
X140806214Y-106387000D01*
X141613750Y-106387000D01*
X141709000Y-106291750D01*
X141709000Y-105179000D01*
X140596250Y-105179000D01*
X140501000Y-105274250D01*
X111222250Y-105274250D01*
X111495862Y-105000639D01*
X111561069Y-104957069D01*
X111733685Y-104698731D01*
X111779000Y-104470918D01*
X111779000Y-104470915D01*
X111794299Y-104394001D01*
X111779000Y-104317087D01*
X111779000Y-104230215D01*
X140501000Y-104230215D01*
X140501000Y-105037750D01*
X140596250Y-105133000D01*
X141709000Y-105133000D01*
X141709000Y-104020250D01*
X141755000Y-104020250D01*
X141755000Y-105133000D01*
X142867750Y-105133000D01*
X142963000Y-105037750D01*
X142963000Y-104230215D01*
X142904996Y-104090181D01*
X142797820Y-103983004D01*
X142657786Y-103925000D01*
X141850250Y-103925000D01*
X141755000Y-104020250D01*
X141709000Y-104020250D01*
X141613750Y-103925000D01*
X140806214Y-103925000D01*
X140666180Y-103983004D01*
X140559004Y-104090181D01*
X140501000Y-104230215D01*
X111779000Y-104230215D01*
X111779000Y-103730649D01*
X111748985Y-103658186D01*
X111733685Y-103581269D01*
X111690115Y-103516062D01*
X111660100Y-103443599D01*
X111604639Y-103388138D01*
X111561069Y-103322931D01*
X111495863Y-103279362D01*
X111440401Y-103223900D01*
X111367936Y-103193884D01*
X111302730Y-103150315D01*
X111225815Y-103135016D01*
X111153351Y-103105000D01*
X111074918Y-103105000D01*
X110998000Y-103089700D01*
X110921082Y-103105000D01*
X110842649Y-103105000D01*
X110770186Y-103135015D01*
X110693269Y-103150315D01*
X110628062Y-103193885D01*
X110555599Y-103223900D01*
X110500138Y-103279361D01*
X110434931Y-103322931D01*
X110391362Y-103388137D01*
X110335900Y-103443599D01*
X110305884Y-103516064D01*
X110262315Y-103581270D01*
X110247016Y-103658185D01*
X110217000Y-103730649D01*
X110217000Y-104070499D01*
X109357141Y-104930359D01*
X109357138Y-104930361D01*
X108684900Y-105602599D01*
X108654884Y-105675065D01*
X108611315Y-105740270D01*
X108596016Y-105817184D01*
X108566000Y-105889649D01*
X108566000Y-105968086D01*
X108550701Y-106045000D01*
X105361252Y-106045000D01*
X105232467Y-105916215D01*
X104785319Y-105731000D01*
X105232467Y-105545785D01*
X105585785Y-105192467D01*
X105777000Y-104730834D01*
X105777000Y-104231166D01*
X105585785Y-103769533D01*
X105232467Y-103416215D01*
X104817824Y-103244464D01*
X105396000Y-103244464D01*
X105544659Y-103214894D01*
X105670686Y-103130686D01*
X105754894Y-103004659D01*
X105784464Y-102856000D01*
X105784464Y-101106000D01*
X105754894Y-100957341D01*
X105670686Y-100831314D01*
X105544659Y-100747106D01*
X105396000Y-100717536D01*
X103646000Y-100717536D01*
X103497341Y-100747106D01*
X103371314Y-100831314D01*
X103287106Y-100957341D01*
X103257536Y-101106000D01*
X101015000Y-101106000D01*
X101015000Y-100349085D01*
X111341000Y-100349085D01*
X111341000Y-100818915D01*
X111520797Y-101252983D01*
X111853017Y-101585203D01*
X112287085Y-101765000D01*
X112756915Y-101765000D01*
X113190983Y-101585203D01*
X113523203Y-101252983D01*
X113703000Y-100818915D01*
X113703000Y-100349085D01*
X115151000Y-100349085D01*
X115151000Y-100818915D01*
X115330797Y-101252983D01*
X115663017Y-101585203D01*
X116097085Y-101765000D01*
X116566915Y-101765000D01*
X117000983Y-101585203D01*
X117201990Y-101384196D01*
X119374331Y-101384196D01*
X119452963Y-101571509D01*
X119883316Y-101760023D01*
X120353051Y-101769498D01*
X120364059Y-101765196D01*
X138250331Y-101765196D01*
X138328963Y-101952509D01*
X138759316Y-102141023D01*
X139229051Y-102150498D01*
X139666656Y-101979492D01*
X139707037Y-101952509D01*
X139785669Y-101765196D01*
X139018000Y-100997527D01*
X138250331Y-101765196D01*
X120364059Y-101765196D01*
X120790656Y-101598492D01*
X120831037Y-101571509D01*
X120909669Y-101384196D01*
X120142000Y-100616527D01*
X119374331Y-101384196D01*
X117201990Y-101384196D01*
X117333203Y-101252983D01*
X117513000Y-100818915D01*
X117513000Y-100795051D01*
X118956502Y-100795051D01*
X119127508Y-101232656D01*
X119154491Y-101273037D01*
X119341804Y-101351669D01*
X120109473Y-100584000D01*
X120174527Y-100584000D01*
X120942196Y-101351669D01*
X121129509Y-101273037D01*
X121318023Y-100842684D01*
X121319056Y-100791431D01*
X122789357Y-100791431D01*
X122957238Y-101220565D01*
X123276563Y-101552788D01*
X123698717Y-101737522D01*
X123744569Y-101746641D01*
X123929000Y-101669506D01*
X123929000Y-100607000D01*
X123975000Y-100607000D01*
X123975000Y-101669506D01*
X124159431Y-101746641D01*
X124205283Y-101737522D01*
X124627437Y-101552788D01*
X124946762Y-101220565D01*
X124964176Y-101176051D01*
X137832502Y-101176051D01*
X138003508Y-101613656D01*
X138030491Y-101654037D01*
X138217804Y-101732669D01*
X138985473Y-100965000D01*
X139050527Y-100965000D01*
X139818196Y-101732669D01*
X140005509Y-101654037D01*
X140194023Y-101223684D01*
X140203498Y-100753949D01*
X140032492Y-100316344D01*
X140005509Y-100275963D01*
X139818196Y-100197331D01*
X139050527Y-100965000D01*
X138985473Y-100965000D01*
X138217804Y-100197331D01*
X138030491Y-100275963D01*
X137841977Y-100706316D01*
X137832502Y-101176051D01*
X124964176Y-101176051D01*
X125114643Y-100791431D01*
X125037528Y-100607000D01*
X123975000Y-100607000D01*
X123929000Y-100607000D01*
X122866472Y-100607000D01*
X122789357Y-100791431D01*
X121319056Y-100791431D01*
X121327424Y-100376569D01*
X122789357Y-100376569D01*
X122866472Y-100561000D01*
X123929000Y-100561000D01*
X123929000Y-99498494D01*
X123975000Y-99498494D01*
X123975000Y-100561000D01*
X125037528Y-100561000D01*
X125114643Y-100376569D01*
X124946762Y-99947435D01*
X124627437Y-99615212D01*
X124205283Y-99430478D01*
X124159431Y-99421359D01*
X123975000Y-99498494D01*
X123929000Y-99498494D01*
X123744569Y-99421359D01*
X123698717Y-99430478D01*
X123276563Y-99615212D01*
X122957238Y-99947435D01*
X122789357Y-100376569D01*
X121327424Y-100376569D01*
X121327498Y-100372949D01*
X121156492Y-99935344D01*
X121129509Y-99894963D01*
X120942196Y-99816331D01*
X120174527Y-100584000D01*
X120109473Y-100584000D01*
X119341804Y-99816331D01*
X119154491Y-99894963D01*
X118965977Y-100325316D01*
X118956502Y-100795051D01*
X117513000Y-100795051D01*
X117513000Y-100349085D01*
X117333203Y-99915017D01*
X117201990Y-99783804D01*
X119374331Y-99783804D01*
X120142000Y-100551473D01*
X120909669Y-99783804D01*
X120831037Y-99596491D01*
X120400684Y-99407977D01*
X119930949Y-99398502D01*
X119493344Y-99569508D01*
X119452963Y-99596491D01*
X119374331Y-99783804D01*
X117201990Y-99783804D01*
X117000983Y-99582797D01*
X116566915Y-99403000D01*
X116097085Y-99403000D01*
X115663017Y-99582797D01*
X115330797Y-99915017D01*
X115151000Y-100349085D01*
X113703000Y-100349085D01*
X113523203Y-99915017D01*
X113190983Y-99582797D01*
X112756915Y-99403000D01*
X112287085Y-99403000D01*
X111853017Y-99582797D01*
X111520797Y-99915017D01*
X111341000Y-100349085D01*
X101015000Y-100349085D01*
X101015000Y-98768000D01*
X126351536Y-98768000D01*
X126351536Y-100368000D01*
X126381106Y-100516659D01*
X126465314Y-100642686D01*
X126591341Y-100726894D01*
X126740000Y-100756464D01*
X128340000Y-100756464D01*
X128488659Y-100726894D01*
X128614686Y-100642686D01*
X128698894Y-100516659D01*
X128717522Y-100423008D01*
X128772332Y-100368198D01*
X128850963Y-100555509D01*
X129281316Y-100744023D01*
X129751051Y-100753498D01*
X130188656Y-100582492D01*
X130229037Y-100555509D01*
X130307669Y-100368196D01*
X129540000Y-99600527D01*
X129525858Y-99614669D01*
X129493331Y-99582142D01*
X129507473Y-99568000D01*
X129572527Y-99568000D01*
X130340196Y-100335669D01*
X130527509Y-100257037D01*
X130567911Y-100164804D01*
X138250331Y-100164804D01*
X139018000Y-100932473D01*
X139785669Y-100164804D01*
X139707037Y-99977491D01*
X139276684Y-99788977D01*
X138806949Y-99779502D01*
X138369344Y-99950508D01*
X138328963Y-99977491D01*
X138250331Y-100164804D01*
X130567911Y-100164804D01*
X130716023Y-99826684D01*
X130725498Y-99356949D01*
X130554492Y-98919344D01*
X130527509Y-98878963D01*
X130340196Y-98800331D01*
X129572527Y-99568000D01*
X129507473Y-99568000D01*
X129493331Y-99553858D01*
X129525858Y-99521331D01*
X129540000Y-99535473D01*
X130307669Y-98767804D01*
X130305674Y-98763051D01*
X132133002Y-98763051D01*
X132304008Y-99200656D01*
X132330991Y-99241037D01*
X132518304Y-99319669D01*
X133285973Y-98552000D01*
X132518304Y-97784331D01*
X132330991Y-97862963D01*
X132142477Y-98293316D01*
X132133002Y-98763051D01*
X130305674Y-98763051D01*
X130229037Y-98580491D01*
X129798684Y-98391977D01*
X129328949Y-98382502D01*
X128891344Y-98553508D01*
X128850963Y-98580491D01*
X128772332Y-98767802D01*
X128717522Y-98712992D01*
X128698894Y-98619341D01*
X128614686Y-98493314D01*
X128488659Y-98409106D01*
X128340000Y-98379536D01*
X126740000Y-98379536D01*
X126591341Y-98409106D01*
X126465314Y-98493314D01*
X126381106Y-98619341D01*
X126351536Y-98768000D01*
X101015000Y-98768000D01*
X101015000Y-96873279D01*
X103699248Y-96873279D01*
X103787008Y-97068383D01*
X104244461Y-97269390D01*
X104744015Y-97280037D01*
X105209617Y-97098702D01*
X105254992Y-97068383D01*
X105342752Y-96873279D01*
X104521000Y-96051527D01*
X103699248Y-96873279D01*
X101015000Y-96873279D01*
X101015000Y-96242015D01*
X103259963Y-96242015D01*
X103441298Y-96707617D01*
X103471617Y-96752992D01*
X103666721Y-96840752D01*
X104488473Y-96019000D01*
X104553527Y-96019000D01*
X105375279Y-96840752D01*
X105570383Y-96752992D01*
X105672760Y-96520000D01*
X108217986Y-96520000D01*
X108332929Y-97097857D01*
X108660259Y-97587741D01*
X109150143Y-97915071D01*
X109582137Y-98001000D01*
X109873863Y-98001000D01*
X110305857Y-97915071D01*
X110795741Y-97587741D01*
X111123071Y-97097857D01*
X111238014Y-96520000D01*
X111123071Y-95942143D01*
X110795741Y-95452259D01*
X110747462Y-95420000D01*
X115859536Y-95420000D01*
X115859536Y-97620000D01*
X115889106Y-97768659D01*
X115973314Y-97894686D01*
X116099341Y-97978894D01*
X116248000Y-98008464D01*
X118448000Y-98008464D01*
X118596659Y-97978894D01*
X118722686Y-97894686D01*
X118806894Y-97768659D01*
X118810246Y-97751804D01*
X132550831Y-97751804D01*
X133318500Y-98519473D01*
X133332642Y-98505331D01*
X133365169Y-98537858D01*
X133351027Y-98552000D01*
X133365169Y-98566142D01*
X133332642Y-98598669D01*
X133318500Y-98584527D01*
X132550831Y-99352196D01*
X132629463Y-99539509D01*
X133059816Y-99728023D01*
X133529551Y-99737498D01*
X133967156Y-99566492D01*
X134007537Y-99539509D01*
X134086168Y-99352198D01*
X134140978Y-99407008D01*
X134159606Y-99500659D01*
X134243814Y-99626686D01*
X134369841Y-99710894D01*
X134518500Y-99740464D01*
X136118500Y-99740464D01*
X136267159Y-99710894D01*
X136393186Y-99626686D01*
X136477394Y-99500659D01*
X136506964Y-99352000D01*
X136506964Y-97752000D01*
X136477394Y-97603341D01*
X136393186Y-97477314D01*
X136267159Y-97393106D01*
X136118500Y-97363536D01*
X134518500Y-97363536D01*
X134369841Y-97393106D01*
X134243814Y-97477314D01*
X134159606Y-97603341D01*
X134140978Y-97696992D01*
X134086168Y-97751802D01*
X134007537Y-97564491D01*
X133577184Y-97375977D01*
X133107449Y-97366502D01*
X132669844Y-97537508D01*
X132629463Y-97564491D01*
X132550831Y-97751804D01*
X118810246Y-97751804D01*
X118836464Y-97620000D01*
X118836464Y-95904085D01*
X124930000Y-95904085D01*
X124930000Y-96373915D01*
X125109797Y-96807983D01*
X125442017Y-97140203D01*
X125876085Y-97320000D01*
X126345915Y-97320000D01*
X126779983Y-97140203D01*
X127112203Y-96807983D01*
X127163063Y-96685196D01*
X138233831Y-96685196D01*
X138312463Y-96872509D01*
X138742816Y-97061023D01*
X139212551Y-97070498D01*
X139650156Y-96899492D01*
X139690537Y-96872509D01*
X139769169Y-96685196D01*
X139001500Y-95917527D01*
X138233831Y-96685196D01*
X127163063Y-96685196D01*
X127292000Y-96373915D01*
X127292000Y-96096051D01*
X137816002Y-96096051D01*
X137987008Y-96533656D01*
X138013991Y-96574037D01*
X138201304Y-96652669D01*
X138968973Y-95885000D01*
X139034027Y-95885000D01*
X139801696Y-96652669D01*
X139989009Y-96574037D01*
X140177523Y-96143684D01*
X140186998Y-95673949D01*
X140015992Y-95236344D01*
X139989009Y-95195963D01*
X139801696Y-95117331D01*
X139034027Y-95885000D01*
X138968973Y-95885000D01*
X138201304Y-95117331D01*
X138013991Y-95195963D01*
X137825477Y-95626316D01*
X137816002Y-96096051D01*
X127292000Y-96096051D01*
X127292000Y-95904085D01*
X127112203Y-95470017D01*
X126779983Y-95137797D01*
X126652047Y-95084804D01*
X138233831Y-95084804D01*
X139001500Y-95852473D01*
X139769169Y-95084804D01*
X139690537Y-94897491D01*
X139260184Y-94708977D01*
X138790449Y-94699502D01*
X138352844Y-94870508D01*
X138312463Y-94897491D01*
X138233831Y-95084804D01*
X126652047Y-95084804D01*
X126345915Y-94958000D01*
X125876085Y-94958000D01*
X125442017Y-95137797D01*
X125109797Y-95470017D01*
X124930000Y-95904085D01*
X118836464Y-95904085D01*
X118836464Y-95420000D01*
X118806894Y-95271341D01*
X118722686Y-95145314D01*
X118596659Y-95061106D01*
X118448000Y-95031536D01*
X116248000Y-95031536D01*
X116099341Y-95061106D01*
X115973314Y-95145314D01*
X115889106Y-95271341D01*
X115859536Y-95420000D01*
X110747462Y-95420000D01*
X110305857Y-95124929D01*
X109873863Y-95039000D01*
X109582137Y-95039000D01*
X109150143Y-95124929D01*
X108660259Y-95452259D01*
X108332929Y-95942143D01*
X108217986Y-96520000D01*
X105672760Y-96520000D01*
X105771390Y-96295539D01*
X105782037Y-95795985D01*
X105600702Y-95330383D01*
X105570383Y-95285008D01*
X105375279Y-95197248D01*
X104553527Y-96019000D01*
X104488473Y-96019000D01*
X103666721Y-95197248D01*
X103471617Y-95285008D01*
X103270610Y-95742461D01*
X103259963Y-96242015D01*
X101015000Y-96242015D01*
X101015000Y-87644000D01*
X103257536Y-87644000D01*
X103257536Y-89394000D01*
X103287106Y-89542659D01*
X103371314Y-89668686D01*
X103497341Y-89752894D01*
X103646000Y-89782464D01*
X104224176Y-89782464D01*
X103809533Y-89954215D01*
X103456215Y-90307533D01*
X103265000Y-90769166D01*
X103265000Y-91268834D01*
X103456215Y-91730467D01*
X103809533Y-92083785D01*
X104256681Y-92269000D01*
X103809533Y-92454215D01*
X103456215Y-92807533D01*
X103265000Y-93269166D01*
X103265000Y-93768834D01*
X103456215Y-94230467D01*
X103809533Y-94583785D01*
X104262964Y-94771603D01*
X103832383Y-94939298D01*
X103787008Y-94969617D01*
X103699248Y-95164721D01*
X104521000Y-95986473D01*
X105342752Y-95164721D01*
X105254992Y-94969617D01*
X104797539Y-94768610D01*
X104786813Y-94768381D01*
X105232467Y-94583785D01*
X105585785Y-94230467D01*
X105777000Y-93768834D01*
X105777000Y-93269166D01*
X105585785Y-92807533D01*
X105232467Y-92454215D01*
X104785319Y-92269000D01*
X105232467Y-92083785D01*
X105585785Y-91730467D01*
X105777000Y-91268834D01*
X105777000Y-90769166D01*
X105585785Y-90307533D01*
X105232467Y-89954215D01*
X104817824Y-89782464D01*
X105187964Y-89782464D01*
X108285265Y-92879766D01*
X108217986Y-93218000D01*
X108332929Y-93795857D01*
X108660259Y-94285741D01*
X109150143Y-94613071D01*
X109582137Y-94699000D01*
X109873863Y-94699000D01*
X110305857Y-94613071D01*
X110795741Y-94285741D01*
X111123071Y-93795857D01*
X111238014Y-93218000D01*
X111123071Y-92640143D01*
X110795741Y-92150259D01*
X110747462Y-92118000D01*
X115859536Y-92118000D01*
X115859536Y-94318000D01*
X115889106Y-94466659D01*
X115973314Y-94592686D01*
X116099341Y-94676894D01*
X116248000Y-94706464D01*
X118448000Y-94706464D01*
X118596659Y-94676894D01*
X118722686Y-94592686D01*
X118806894Y-94466659D01*
X118836464Y-94318000D01*
X118836464Y-93217193D01*
X119369000Y-93217193D01*
X119369000Y-93726807D01*
X119564021Y-94197628D01*
X119924372Y-94557979D01*
X120395193Y-94753000D01*
X120904807Y-94753000D01*
X121375628Y-94557979D01*
X121735979Y-94197628D01*
X121909000Y-93779920D01*
X121909000Y-94447785D01*
X121967004Y-94587819D01*
X122074180Y-94694996D01*
X122214214Y-94753000D01*
X123071750Y-94753000D01*
X123167000Y-94657750D01*
X123167000Y-93495000D01*
X123213000Y-93495000D01*
X123213000Y-94657750D01*
X123308250Y-94753000D01*
X124165786Y-94753000D01*
X124305820Y-94694996D01*
X124412996Y-94587819D01*
X124471000Y-94447785D01*
X124471000Y-93590250D01*
X124375750Y-93495000D01*
X123213000Y-93495000D01*
X123167000Y-93495000D01*
X123147000Y-93495000D01*
X123147000Y-93449000D01*
X123167000Y-93449000D01*
X123167000Y-92286250D01*
X123213000Y-92286250D01*
X123213000Y-93449000D01*
X124375750Y-93449000D01*
X124471000Y-93353750D01*
X124471000Y-93036626D01*
X148295901Y-93036626D01*
X148423209Y-93265500D01*
X148998094Y-93520645D01*
X149626859Y-93536368D01*
X150213779Y-93310277D01*
X150280791Y-93265500D01*
X150408099Y-93036626D01*
X149352000Y-91980527D01*
X148295901Y-93036626D01*
X124471000Y-93036626D01*
X124471000Y-92496215D01*
X124412996Y-92356181D01*
X124305820Y-92249004D01*
X124165786Y-92191000D01*
X123308250Y-92191000D01*
X123213000Y-92286250D01*
X123167000Y-92286250D01*
X123071750Y-92191000D01*
X122214214Y-92191000D01*
X122074180Y-92249004D01*
X121967004Y-92356181D01*
X121909000Y-92496215D01*
X121909000Y-93164080D01*
X121735979Y-92746372D01*
X121375628Y-92386021D01*
X120904807Y-92191000D01*
X120395193Y-92191000D01*
X119924372Y-92386021D01*
X119564021Y-92746372D01*
X119369000Y-93217193D01*
X118836464Y-93217193D01*
X118836464Y-92118000D01*
X118806894Y-91969341D01*
X118786752Y-91939196D01*
X125343331Y-91939196D01*
X125421963Y-92126509D01*
X125852316Y-92315023D01*
X126322051Y-92324498D01*
X126582145Y-92222859D01*
X147763632Y-92222859D01*
X147989723Y-92809779D01*
X148034500Y-92876791D01*
X148263374Y-93004099D01*
X149319473Y-91948000D01*
X149384527Y-91948000D01*
X150440626Y-93004099D01*
X150669500Y-92876791D01*
X150924645Y-92301906D01*
X150940368Y-91673141D01*
X150714277Y-91086221D01*
X150669500Y-91019209D01*
X150440626Y-90891901D01*
X149384527Y-91948000D01*
X149319473Y-91948000D01*
X148263374Y-90891901D01*
X148034500Y-91019209D01*
X147779355Y-91594094D01*
X147763632Y-92222859D01*
X126582145Y-92222859D01*
X126759656Y-92153492D01*
X126800037Y-92126509D01*
X126878669Y-91939196D01*
X126111000Y-91171527D01*
X125343331Y-91939196D01*
X118786752Y-91939196D01*
X118722686Y-91843314D01*
X118596659Y-91759106D01*
X118448000Y-91729536D01*
X116248000Y-91729536D01*
X116099341Y-91759106D01*
X115973314Y-91843314D01*
X115889106Y-91969341D01*
X115859536Y-92118000D01*
X110747462Y-92118000D01*
X110305857Y-91822929D01*
X109873863Y-91737000D01*
X109582137Y-91737000D01*
X109389766Y-91775265D01*
X108645150Y-91030649D01*
X110725000Y-91030649D01*
X110725000Y-91341351D01*
X110843900Y-91628401D01*
X111063599Y-91848100D01*
X111350649Y-91967000D01*
X111661351Y-91967000D01*
X111948401Y-91848100D01*
X112168100Y-91628401D01*
X112283396Y-91350051D01*
X124925502Y-91350051D01*
X125096508Y-91787656D01*
X125123491Y-91828037D01*
X125310804Y-91906669D01*
X126078473Y-91139000D01*
X126143527Y-91139000D01*
X126911196Y-91906669D01*
X127098509Y-91828037D01*
X127287023Y-91397684D01*
X127296498Y-90927949D01*
X127269701Y-90859374D01*
X148295901Y-90859374D01*
X149352000Y-91915473D01*
X150408099Y-90859374D01*
X150280791Y-90630500D01*
X149705906Y-90375355D01*
X149077141Y-90359632D01*
X148490221Y-90585723D01*
X148423209Y-90630500D01*
X148295901Y-90859374D01*
X127269701Y-90859374D01*
X127125492Y-90490344D01*
X127098509Y-90449963D01*
X126911196Y-90371331D01*
X126143527Y-91139000D01*
X126078473Y-91139000D01*
X125310804Y-90371331D01*
X125123491Y-90449963D01*
X124934977Y-90880316D01*
X124925502Y-91350051D01*
X112283396Y-91350051D01*
X112287000Y-91341351D01*
X112287000Y-91030649D01*
X112237000Y-90909938D01*
X112237000Y-90338804D01*
X125343331Y-90338804D01*
X126111000Y-91106473D01*
X126878669Y-90338804D01*
X126800037Y-90151491D01*
X126369684Y-89962977D01*
X125899949Y-89953502D01*
X125462344Y-90124508D01*
X125421963Y-90151491D01*
X125343331Y-90338804D01*
X112237000Y-90338804D01*
X112237000Y-89964789D01*
X112589689Y-89612100D01*
X112710401Y-89562100D01*
X112930100Y-89342401D01*
X113049000Y-89055351D01*
X113049000Y-88744649D01*
X112930100Y-88457599D01*
X112883586Y-88411085D01*
X116421000Y-88411085D01*
X116421000Y-88880915D01*
X116600797Y-89314983D01*
X116933017Y-89647203D01*
X117367085Y-89827000D01*
X117836915Y-89827000D01*
X118270983Y-89647203D01*
X118603203Y-89314983D01*
X118783000Y-88880915D01*
X118783000Y-88646000D01*
X126557863Y-88646000D01*
X126649522Y-89106803D01*
X126910547Y-89497453D01*
X127301197Y-89758478D01*
X127645682Y-89827000D01*
X127878318Y-89827000D01*
X128222803Y-89758478D01*
X128613453Y-89497453D01*
X128874478Y-89106803D01*
X128966137Y-88646000D01*
X128944672Y-88538085D01*
X136868000Y-88538085D01*
X136868000Y-89007915D01*
X137047797Y-89441983D01*
X137380017Y-89774203D01*
X137814085Y-89954000D01*
X138283915Y-89954000D01*
X138717983Y-89774203D01*
X138918990Y-89573196D01*
X142281331Y-89573196D01*
X142359963Y-89760509D01*
X142790316Y-89949023D01*
X143260051Y-89958498D01*
X143697656Y-89787492D01*
X143738037Y-89760509D01*
X143816669Y-89573196D01*
X143049000Y-88805527D01*
X142281331Y-89573196D01*
X138918990Y-89573196D01*
X139050203Y-89441983D01*
X139230000Y-89007915D01*
X139230000Y-88984051D01*
X141863502Y-88984051D01*
X142034508Y-89421656D01*
X142061491Y-89462037D01*
X142248804Y-89540669D01*
X143016473Y-88773000D01*
X143081527Y-88773000D01*
X143849196Y-89540669D01*
X144036509Y-89462037D01*
X144225023Y-89031684D01*
X144234498Y-88561949D01*
X144063492Y-88124344D01*
X144036509Y-88083963D01*
X143849196Y-88005331D01*
X143081527Y-88773000D01*
X143016473Y-88773000D01*
X142248804Y-88005331D01*
X142061491Y-88083963D01*
X141872977Y-88514316D01*
X141863502Y-88984051D01*
X139230000Y-88984051D01*
X139230000Y-88538085D01*
X139050203Y-88104017D01*
X138918990Y-87972804D01*
X142281331Y-87972804D01*
X143049000Y-88740473D01*
X143816669Y-87972804D01*
X143738037Y-87785491D01*
X143307684Y-87596977D01*
X142837949Y-87587502D01*
X142400344Y-87758508D01*
X142359963Y-87785491D01*
X142281331Y-87972804D01*
X138918990Y-87972804D01*
X138717983Y-87771797D01*
X138283915Y-87592000D01*
X137814085Y-87592000D01*
X137380017Y-87771797D01*
X137047797Y-88104017D01*
X136868000Y-88538085D01*
X128944672Y-88538085D01*
X128874478Y-88185197D01*
X128613453Y-87794547D01*
X128222803Y-87533522D01*
X127878318Y-87465000D01*
X127645682Y-87465000D01*
X127301197Y-87533522D01*
X126910547Y-87794547D01*
X126649522Y-88185197D01*
X126557863Y-88646000D01*
X118783000Y-88646000D01*
X118783000Y-88411085D01*
X118603203Y-87977017D01*
X118270983Y-87644797D01*
X117836915Y-87465000D01*
X117367085Y-87465000D01*
X116933017Y-87644797D01*
X116600797Y-87977017D01*
X116421000Y-88411085D01*
X112883586Y-88411085D01*
X112710401Y-88237900D01*
X112423351Y-88119000D01*
X112112649Y-88119000D01*
X111825599Y-88237900D01*
X111605900Y-88457599D01*
X111555900Y-88578311D01*
X111040017Y-89094194D01*
X110978979Y-89134978D01*
X110938196Y-89196015D01*
X110817414Y-89376778D01*
X110760679Y-89662000D01*
X110775001Y-89734000D01*
X110775000Y-90909938D01*
X110725000Y-91030649D01*
X108645150Y-91030649D01*
X105784464Y-88169964D01*
X105784464Y-87644000D01*
X105754894Y-87495341D01*
X105670686Y-87369314D01*
X105544659Y-87285106D01*
X105396000Y-87255536D01*
X103646000Y-87255536D01*
X103497341Y-87285106D01*
X103371314Y-87369314D01*
X103287106Y-87495341D01*
X103257536Y-87644000D01*
X101015000Y-87644000D01*
X101015000Y-87248000D01*
X147763536Y-87248000D01*
X147763536Y-89648000D01*
X147793106Y-89796659D01*
X147877314Y-89922686D01*
X148003341Y-90006894D01*
X148152000Y-90036464D01*
X150552000Y-90036464D01*
X150700659Y-90006894D01*
X150826686Y-89922686D01*
X150910894Y-89796659D01*
X150940464Y-89648000D01*
X150940464Y-87248000D01*
X150910894Y-87099341D01*
X150826686Y-86973314D01*
X150700659Y-86889106D01*
X150552000Y-86859536D01*
X148152000Y-86859536D01*
X148003341Y-86889106D01*
X147877314Y-86973314D01*
X147793106Y-87099341D01*
X147763536Y-87248000D01*
X101015000Y-87248000D01*
X101015000Y-86029000D01*
X156285475Y-86029000D01*
X161875000Y-91618526D01*
X161875000Y-91618526D01*
G37*
X161875000Y-91618526D02*
X161875001Y-92228200D01*
X159308000Y-92228200D01*
X159308000Y-91558645D01*
X159316443Y-91516200D01*
X159282992Y-91348032D01*
X159187733Y-91205467D01*
X159045168Y-91110208D01*
X158919445Y-91085200D01*
X158877000Y-91076757D01*
X158834555Y-91085200D01*
X157014445Y-91085200D01*
X156972000Y-91076757D01*
X156929555Y-91085200D01*
X156803832Y-91110208D01*
X156661267Y-91205467D01*
X156566008Y-91348032D01*
X156532557Y-91516200D01*
X156541001Y-91558650D01*
X156541000Y-92228200D01*
X154322045Y-92228200D01*
X154279600Y-92219757D01*
X154237155Y-92228200D01*
X154111432Y-92253208D01*
X153968867Y-92348467D01*
X153873608Y-92491032D01*
X153840157Y-92659200D01*
X153848601Y-92701650D01*
X153848600Y-95563154D01*
X153840157Y-95605600D01*
X153873608Y-95773768D01*
X153926197Y-95852473D01*
X153968867Y-95916333D01*
X154053341Y-95972777D01*
X154018114Y-95996314D01*
X153933906Y-96122341D01*
X153933377Y-96125000D01*
X153617500Y-96125000D01*
X153435000Y-95942500D01*
X153435000Y-95475649D01*
X153404985Y-95403186D01*
X153389685Y-95326269D01*
X153346115Y-95261062D01*
X153316100Y-95188599D01*
X153260639Y-95133138D01*
X153217069Y-95067931D01*
X153151862Y-95024361D01*
X153096401Y-94968900D01*
X153023938Y-94938885D01*
X152958731Y-94895315D01*
X152881814Y-94880015D01*
X152809351Y-94850000D01*
X152730918Y-94850000D01*
X152654000Y-94834700D01*
X152577082Y-94850000D01*
X152498649Y-94850000D01*
X152426185Y-94880016D01*
X152349270Y-94895315D01*
X152284065Y-94938884D01*
X152211599Y-94968900D01*
X152156136Y-95024363D01*
X152090932Y-95067931D01*
X152047363Y-95133136D01*
X151991900Y-95188599D01*
X151961884Y-95261063D01*
X151918315Y-95326269D01*
X151903015Y-95403186D01*
X151873000Y-95475649D01*
X151873000Y-96189086D01*
X151857701Y-96266000D01*
X151873000Y-96342914D01*
X151873000Y-96342917D01*
X151918315Y-96570730D01*
X152090931Y-96829069D01*
X152156141Y-96872641D01*
X152687359Y-97403859D01*
X152730931Y-97469069D01*
X152931883Y-97603341D01*
X152989269Y-97641685D01*
X153294000Y-97702300D01*
X153370918Y-97687000D01*
X153933377Y-97687000D01*
X153933906Y-97689659D01*
X154018114Y-97815686D01*
X154144141Y-97899894D01*
X154292800Y-97929464D01*
X161113001Y-97929464D01*
X161113000Y-99682536D01*
X154292800Y-99682536D01*
X154144141Y-99712106D01*
X154018114Y-99796314D01*
X153933906Y-99922341D01*
X153904336Y-100071000D01*
X153904336Y-100281543D01*
X150654142Y-103531738D01*
X150588932Y-103575310D01*
X150416316Y-103833649D01*
X150371001Y-104061462D01*
X150371001Y-104061465D01*
X150355702Y-104138379D01*
X150371001Y-104215293D01*
X150371001Y-104639536D01*
X148152000Y-104639536D01*
X148003341Y-104669106D01*
X147877314Y-104753314D01*
X147793106Y-104879341D01*
X147763536Y-105028000D01*
X147763536Y-107428000D01*
X147793106Y-107576659D01*
X147877314Y-107702686D01*
X148003341Y-107786894D01*
X148152000Y-107816464D01*
X150159036Y-107816464D01*
X150054140Y-107921360D01*
X150054137Y-107921362D01*
X149781045Y-108194454D01*
X149666481Y-108147000D01*
X149037519Y-108147000D01*
X148456435Y-108387693D01*
X148011693Y-108832435D01*
X147771000Y-109413519D01*
X147771000Y-110042481D01*
X148011693Y-110623565D01*
X148456435Y-111068307D01*
X149037519Y-111309000D01*
X149666481Y-111309000D01*
X150247565Y-111068307D01*
X150692307Y-110623565D01*
X150933000Y-110042481D01*
X150933000Y-109413519D01*
X150885546Y-109298955D01*
X151158638Y-109025863D01*
X151158640Y-109025860D01*
X151649863Y-108534638D01*
X151715070Y-108491068D01*
X151887686Y-108232730D01*
X151933001Y-108004917D01*
X151933001Y-108004913D01*
X151948300Y-107927999D01*
X151933001Y-107851085D01*
X151933001Y-104461879D01*
X153848601Y-102546280D01*
X153848600Y-104910354D01*
X153840157Y-104952800D01*
X153873608Y-105120968D01*
X153921382Y-105192467D01*
X153968867Y-105263533D01*
X154111432Y-105358792D01*
X154279600Y-105392243D01*
X154322045Y-105383800D01*
X156541001Y-105383800D01*
X156541000Y-106053354D01*
X156532557Y-106095800D01*
X156566008Y-106263968D01*
X156661267Y-106406533D01*
X156803832Y-106501792D01*
X156972000Y-106535243D01*
X157014445Y-106526800D01*
X158834555Y-106526800D01*
X158877000Y-106535243D01*
X158919445Y-106526800D01*
X159045168Y-106501792D01*
X159187733Y-106406533D01*
X159282992Y-106263968D01*
X159316443Y-106095800D01*
X159308000Y-106053355D01*
X159308000Y-105383800D01*
X161875001Y-105383800D01*
X161875000Y-105993474D01*
X155777475Y-112091000D01*
X101015000Y-112091000D01*
X101015000Y-110744000D01*
X111317863Y-110744000D01*
X111409522Y-111204803D01*
X111670547Y-111595453D01*
X112061197Y-111856478D01*
X112405682Y-111925000D01*
X112638318Y-111925000D01*
X112982803Y-111856478D01*
X113373453Y-111595453D01*
X113634478Y-111204803D01*
X113726137Y-110744000D01*
X113709606Y-110660894D01*
X113928638Y-110441863D01*
X113928640Y-110441860D01*
X115219502Y-109150999D01*
X122629501Y-109150999D01*
X123171001Y-109692499D01*
X123171001Y-109854813D01*
X122962814Y-110063000D01*
X121979931Y-110063000D01*
X121781287Y-110102513D01*
X121776763Y-110105536D01*
X121597000Y-110105536D01*
X121448341Y-110135106D01*
X121322314Y-110219314D01*
X121260248Y-110312203D01*
X121254478Y-110283197D01*
X120993453Y-109892547D01*
X120602803Y-109631522D01*
X120258318Y-109563000D01*
X120025682Y-109563000D01*
X119681197Y-109631522D01*
X119290547Y-109892547D01*
X119192690Y-110039000D01*
X118169931Y-110039000D01*
X117971287Y-110078513D01*
X117966763Y-110081536D01*
X117787000Y-110081536D01*
X117638341Y-110111106D01*
X117512314Y-110195314D01*
X117446569Y-110293709D01*
X117444478Y-110283197D01*
X117183453Y-109892547D01*
X116792803Y-109631522D01*
X116448318Y-109563000D01*
X116215682Y-109563000D01*
X115871197Y-109631522D01*
X115480547Y-109892547D01*
X115219522Y-110283197D01*
X115127863Y-110744000D01*
X115219522Y-111204803D01*
X115480547Y-111595453D01*
X115871197Y-111856478D01*
X116215682Y-111925000D01*
X116448318Y-111925000D01*
X116792803Y-111856478D01*
X117183453Y-111595453D01*
X117444478Y-111204803D01*
X117453926Y-111157302D01*
X117512314Y-111244686D01*
X117638341Y-111328894D01*
X117787000Y-111358464D01*
X117966763Y-111358464D01*
X117971287Y-111361487D01*
X118169931Y-111401000D01*
X119160617Y-111401000D01*
X119290547Y-111595453D01*
X119681197Y-111856478D01*
X120025682Y-111925000D01*
X120258318Y-111925000D01*
X120602803Y-111856478D01*
X120993453Y-111595453D01*
X121254478Y-111204803D01*
X121260248Y-111175797D01*
X121322314Y-111268686D01*
X121448341Y-111352894D01*
X121597000Y-111382464D01*
X121776763Y-111382464D01*
X121781287Y-111385487D01*
X121979931Y-111425000D01*
X122962814Y-111425000D01*
X123283017Y-111745203D01*
X123717085Y-111925000D01*
X124186915Y-111925000D01*
X124620983Y-111745203D01*
X124953203Y-111412983D01*
X125133000Y-110978915D01*
X125133000Y-110509085D01*
X125019885Y-110236000D01*
X140476884Y-110236000D01*
X140572424Y-110716312D01*
X140844499Y-111123501D01*
X141251688Y-111395576D01*
X141610761Y-111467000D01*
X141853239Y-111467000D01*
X142212312Y-111395576D01*
X142619501Y-111123501D01*
X142891576Y-110716312D01*
X142987116Y-110236000D01*
X142891576Y-109755688D01*
X142619501Y-109348499D01*
X142212312Y-109076424D01*
X141853239Y-109005000D01*
X141610761Y-109005000D01*
X141251688Y-109076424D01*
X140844499Y-109348499D01*
X140572424Y-109755688D01*
X140476884Y-110236000D01*
X125019885Y-110236000D01*
X124953203Y-110075017D01*
X124733000Y-109854814D01*
X124733000Y-109445912D01*
X124748299Y-109368998D01*
X124733000Y-109292084D01*
X124733000Y-109292080D01*
X124687685Y-109064267D01*
X124515069Y-108805929D01*
X124449862Y-108762359D01*
X123559642Y-107872140D01*
X123516070Y-107806930D01*
X123350052Y-107696000D01*
X140476884Y-107696000D01*
X140572424Y-108176312D01*
X140844499Y-108583501D01*
X141251688Y-108855576D01*
X141610761Y-108927000D01*
X141853239Y-108927000D01*
X142212312Y-108855576D01*
X142619501Y-108583501D01*
X142891576Y-108176312D01*
X142987116Y-107696000D01*
X142983198Y-107676302D01*
X146293863Y-104365638D01*
X146359069Y-104322069D01*
X146419809Y-104231166D01*
X146531685Y-104063731D01*
X146540334Y-104020250D01*
X146577000Y-103835918D01*
X146577000Y-103835914D01*
X146592299Y-103759000D01*
X146577000Y-103682086D01*
X146577000Y-101796500D01*
X146754500Y-101619000D01*
X147964239Y-101619000D01*
X148011693Y-101733565D01*
X148456435Y-102178307D01*
X149037519Y-102419000D01*
X149666481Y-102419000D01*
X150247565Y-102178307D01*
X150692307Y-101733565D01*
X150933000Y-101152481D01*
X150933000Y-100523519D01*
X150692307Y-99942435D01*
X150247565Y-99497693D01*
X149666481Y-99257000D01*
X149037519Y-99257000D01*
X148456435Y-99497693D01*
X148011693Y-99942435D01*
X147964239Y-100057000D01*
X146577000Y-100057000D01*
X146577000Y-97756413D01*
X146592299Y-97679499D01*
X146577000Y-97602585D01*
X146577000Y-97602582D01*
X146531685Y-97374769D01*
X146359069Y-97116431D01*
X146293862Y-97072861D01*
X145359001Y-96138000D01*
X147763536Y-96138000D01*
X147763536Y-98538000D01*
X147793106Y-98686659D01*
X147877314Y-98812686D01*
X148003341Y-98896894D01*
X148152000Y-98926464D01*
X150552000Y-98926464D01*
X150700659Y-98896894D01*
X150826686Y-98812686D01*
X150910894Y-98686659D01*
X150940464Y-98538000D01*
X150940464Y-96138000D01*
X150910894Y-95989341D01*
X150826686Y-95863314D01*
X150700659Y-95779106D01*
X150552000Y-95749536D01*
X148152000Y-95749536D01*
X148003341Y-95779106D01*
X147877314Y-95863314D01*
X147793106Y-95989341D01*
X147763536Y-96138000D01*
X145359001Y-96138000D01*
X145182500Y-95961500D01*
X145182500Y-95650085D01*
X145002703Y-95216017D01*
X144670483Y-94883797D01*
X144236415Y-94704000D01*
X143766585Y-94704000D01*
X143332517Y-94883797D01*
X143000297Y-95216017D01*
X142984564Y-95254000D01*
X142927172Y-95254000D01*
X142914686Y-95235314D01*
X142788659Y-95151106D01*
X142640000Y-95121536D01*
X141840000Y-95121536D01*
X141691341Y-95151106D01*
X141565314Y-95235314D01*
X141481106Y-95361341D01*
X141451536Y-95510000D01*
X141451536Y-96260000D01*
X141481106Y-96408659D01*
X141565314Y-96534686D01*
X141691341Y-96618894D01*
X141840000Y-96648464D01*
X142640000Y-96648464D01*
X142788659Y-96618894D01*
X142914686Y-96534686D01*
X142927172Y-96516000D01*
X142984564Y-96516000D01*
X143000297Y-96553983D01*
X143332517Y-96886203D01*
X143766585Y-97066000D01*
X144078000Y-97066000D01*
X145015001Y-98003002D01*
X145015000Y-100291814D01*
X144686983Y-99963797D01*
X144252915Y-99784000D01*
X143783085Y-99784000D01*
X143349017Y-99963797D01*
X143016797Y-100296017D01*
X143001064Y-100334000D01*
X142927172Y-100334000D01*
X142914686Y-100315314D01*
X142788659Y-100231106D01*
X142640000Y-100201536D01*
X141840000Y-100201536D01*
X141691341Y-100231106D01*
X141565314Y-100315314D01*
X141481106Y-100441341D01*
X141451536Y-100590000D01*
X141451536Y-101340000D01*
X141481106Y-101488659D01*
X141565314Y-101614686D01*
X141691341Y-101698894D01*
X141840000Y-101728464D01*
X142640000Y-101728464D01*
X142788659Y-101698894D01*
X142914686Y-101614686D01*
X142927172Y-101596000D01*
X143001064Y-101596000D01*
X143016797Y-101633983D01*
X143349017Y-101966203D01*
X143783085Y-102146000D01*
X144252915Y-102146000D01*
X144686983Y-101966203D01*
X145015000Y-101638186D01*
X145015001Y-103047077D01*
X145015000Y-103047082D01*
X145015000Y-103435499D01*
X142963000Y-105487500D01*
X142963000Y-105274250D01*
X142867750Y-105179000D01*
X141755000Y-105179000D01*
X141755000Y-106291750D01*
X141850250Y-106387000D01*
X142063500Y-106387000D01*
X141963556Y-106486943D01*
X141853239Y-106465000D01*
X141610761Y-106465000D01*
X141251688Y-106536424D01*
X140844499Y-106808499D01*
X140572424Y-107215688D01*
X140476884Y-107696000D01*
X123350052Y-107696000D01*
X123257732Y-107634314D01*
X123029919Y-107588999D01*
X123029915Y-107588999D01*
X122953001Y-107573700D01*
X122876087Y-107588999D01*
X114972915Y-107588999D01*
X114896001Y-107573700D01*
X114819087Y-107588999D01*
X114819083Y-107588999D01*
X114591270Y-107634314D01*
X114332932Y-107806930D01*
X114289362Y-107872137D01*
X112824140Y-109337360D01*
X112824137Y-109337362D01*
X112598499Y-109563000D01*
X112405682Y-109563000D01*
X112061197Y-109631522D01*
X111670547Y-109892547D01*
X111409522Y-110283197D01*
X111317863Y-110744000D01*
X101015000Y-110744000D01*
X101015000Y-110335279D01*
X103699248Y-110335279D01*
X103787008Y-110530383D01*
X104244461Y-110731390D01*
X104744015Y-110742037D01*
X105209617Y-110560702D01*
X105254992Y-110530383D01*
X105342752Y-110335279D01*
X104521000Y-109513527D01*
X103699248Y-110335279D01*
X101015000Y-110335279D01*
X101015000Y-109704015D01*
X103259963Y-109704015D01*
X103441298Y-110169617D01*
X103471617Y-110214992D01*
X103666721Y-110302752D01*
X104488473Y-109481000D01*
X104553527Y-109481000D01*
X105375279Y-110302752D01*
X105570383Y-110214992D01*
X105771390Y-109757539D01*
X105782037Y-109257985D01*
X105600702Y-108792383D01*
X105570383Y-108747008D01*
X105375279Y-108659248D01*
X104553527Y-109481000D01*
X104488473Y-109481000D01*
X103666721Y-108659248D01*
X103471617Y-108747008D01*
X103270610Y-109204461D01*
X103259963Y-109704015D01*
X101015000Y-109704015D01*
X101015000Y-101106000D01*
X103257536Y-101106000D01*
X103257536Y-102856000D01*
X103287106Y-103004659D01*
X103371314Y-103130686D01*
X103497341Y-103214894D01*
X103646000Y-103244464D01*
X104224176Y-103244464D01*
X103809533Y-103416215D01*
X103456215Y-103769533D01*
X103265000Y-104231166D01*
X103265000Y-104730834D01*
X103456215Y-105192467D01*
X103809533Y-105545785D01*
X104256681Y-105731000D01*
X103809533Y-105916215D01*
X103456215Y-106269533D01*
X103265000Y-106731166D01*
X103265000Y-107230834D01*
X103456215Y-107692467D01*
X103809533Y-108045785D01*
X104262964Y-108233603D01*
X103832383Y-108401298D01*
X103787008Y-108431617D01*
X103699248Y-108626721D01*
X104521000Y-109448473D01*
X105342752Y-108626721D01*
X105254992Y-108431617D01*
X104797539Y-108230610D01*
X104786813Y-108230381D01*
X105232467Y-108045785D01*
X105585785Y-107692467D01*
X105777000Y-107230834D01*
X105777000Y-106731166D01*
X105585785Y-106269533D01*
X105361252Y-106045000D01*
X108550701Y-106045000D01*
X108566000Y-106121914D01*
X108566000Y-106200351D01*
X108596016Y-106272816D01*
X108611315Y-106349730D01*
X108654884Y-106414936D01*
X108684900Y-106487401D01*
X108740362Y-106542863D01*
X108783931Y-106608069D01*
X108849137Y-106651638D01*
X108904599Y-106707100D01*
X108977064Y-106737116D01*
X109042270Y-106780685D01*
X109119184Y-106795984D01*
X109191649Y-106826000D01*
X109270086Y-106826000D01*
X109347000Y-106841299D01*
X109423914Y-106826000D01*
X109502351Y-106826000D01*
X109574816Y-106795984D01*
X109651730Y-106780685D01*
X109716935Y-106737116D01*
X109789401Y-106707100D01*
X110461639Y-106034862D01*
X110461641Y-106034859D01*
X111222250Y-105274250D01*
X140501000Y-105274250D01*
X140501000Y-106081785D01*
X140559004Y-106221819D01*
X140666180Y-106328996D01*
X140806214Y-106387000D01*
X141613750Y-106387000D01*
X141709000Y-106291750D01*
X141709000Y-105179000D01*
X140596250Y-105179000D01*
X140501000Y-105274250D01*
X111222250Y-105274250D01*
X111495862Y-105000639D01*
X111561069Y-104957069D01*
X111733685Y-104698731D01*
X111779000Y-104470918D01*
X111779000Y-104470915D01*
X111794299Y-104394001D01*
X111779000Y-104317087D01*
X111779000Y-104230215D01*
X140501000Y-104230215D01*
X140501000Y-105037750D01*
X140596250Y-105133000D01*
X141709000Y-105133000D01*
X141709000Y-104020250D01*
X141755000Y-104020250D01*
X141755000Y-105133000D01*
X142867750Y-105133000D01*
X142963000Y-105037750D01*
X142963000Y-104230215D01*
X142904996Y-104090181D01*
X142797820Y-103983004D01*
X142657786Y-103925000D01*
X141850250Y-103925000D01*
X141755000Y-104020250D01*
X141709000Y-104020250D01*
X141613750Y-103925000D01*
X140806214Y-103925000D01*
X140666180Y-103983004D01*
X140559004Y-104090181D01*
X140501000Y-104230215D01*
X111779000Y-104230215D01*
X111779000Y-103730649D01*
X111748985Y-103658186D01*
X111733685Y-103581269D01*
X111690115Y-103516062D01*
X111660100Y-103443599D01*
X111604639Y-103388138D01*
X111561069Y-103322931D01*
X111495863Y-103279362D01*
X111440401Y-103223900D01*
X111367936Y-103193884D01*
X111302730Y-103150315D01*
X111225815Y-103135016D01*
X111153351Y-103105000D01*
X111074918Y-103105000D01*
X110998000Y-103089700D01*
X110921082Y-103105000D01*
X110842649Y-103105000D01*
X110770186Y-103135015D01*
X110693269Y-103150315D01*
X110628062Y-103193885D01*
X110555599Y-103223900D01*
X110500138Y-103279361D01*
X110434931Y-103322931D01*
X110391362Y-103388137D01*
X110335900Y-103443599D01*
X110305884Y-103516064D01*
X110262315Y-103581270D01*
X110247016Y-103658185D01*
X110217000Y-103730649D01*
X110217000Y-104070499D01*
X109357141Y-104930359D01*
X109357138Y-104930361D01*
X108684900Y-105602599D01*
X108654884Y-105675065D01*
X108611315Y-105740270D01*
X108596016Y-105817184D01*
X108566000Y-105889649D01*
X108566000Y-105968086D01*
X108550701Y-106045000D01*
X105361252Y-106045000D01*
X105232467Y-105916215D01*
X104785319Y-105731000D01*
X105232467Y-105545785D01*
X105585785Y-105192467D01*
X105777000Y-104730834D01*
X105777000Y-104231166D01*
X105585785Y-103769533D01*
X105232467Y-103416215D01*
X104817824Y-103244464D01*
X105396000Y-103244464D01*
X105544659Y-103214894D01*
X105670686Y-103130686D01*
X105754894Y-103004659D01*
X105784464Y-102856000D01*
X105784464Y-101106000D01*
X105754894Y-100957341D01*
X105670686Y-100831314D01*
X105544659Y-100747106D01*
X105396000Y-100717536D01*
X103646000Y-100717536D01*
X103497341Y-100747106D01*
X103371314Y-100831314D01*
X103287106Y-100957341D01*
X103257536Y-101106000D01*
X101015000Y-101106000D01*
X101015000Y-100349085D01*
X111341000Y-100349085D01*
X111341000Y-100818915D01*
X111520797Y-101252983D01*
X111853017Y-101585203D01*
X112287085Y-101765000D01*
X112756915Y-101765000D01*
X113190983Y-101585203D01*
X113523203Y-101252983D01*
X113703000Y-100818915D01*
X113703000Y-100349085D01*
X115151000Y-100349085D01*
X115151000Y-100818915D01*
X115330797Y-101252983D01*
X115663017Y-101585203D01*
X116097085Y-101765000D01*
X116566915Y-101765000D01*
X117000983Y-101585203D01*
X117201990Y-101384196D01*
X119374331Y-101384196D01*
X119452963Y-101571509D01*
X119883316Y-101760023D01*
X120353051Y-101769498D01*
X120364059Y-101765196D01*
X138250331Y-101765196D01*
X138328963Y-101952509D01*
X138759316Y-102141023D01*
X139229051Y-102150498D01*
X139666656Y-101979492D01*
X139707037Y-101952509D01*
X139785669Y-101765196D01*
X139018000Y-100997527D01*
X138250331Y-101765196D01*
X120364059Y-101765196D01*
X120790656Y-101598492D01*
X120831037Y-101571509D01*
X120909669Y-101384196D01*
X120142000Y-100616527D01*
X119374331Y-101384196D01*
X117201990Y-101384196D01*
X117333203Y-101252983D01*
X117513000Y-100818915D01*
X117513000Y-100795051D01*
X118956502Y-100795051D01*
X119127508Y-101232656D01*
X119154491Y-101273037D01*
X119341804Y-101351669D01*
X120109473Y-100584000D01*
X120174527Y-100584000D01*
X120942196Y-101351669D01*
X121129509Y-101273037D01*
X121318023Y-100842684D01*
X121319056Y-100791431D01*
X122789357Y-100791431D01*
X122957238Y-101220565D01*
X123276563Y-101552788D01*
X123698717Y-101737522D01*
X123744569Y-101746641D01*
X123929000Y-101669506D01*
X123929000Y-100607000D01*
X123975000Y-100607000D01*
X123975000Y-101669506D01*
X124159431Y-101746641D01*
X124205283Y-101737522D01*
X124627437Y-101552788D01*
X124946762Y-101220565D01*
X124964176Y-101176051D01*
X137832502Y-101176051D01*
X138003508Y-101613656D01*
X138030491Y-101654037D01*
X138217804Y-101732669D01*
X138985473Y-100965000D01*
X139050527Y-100965000D01*
X139818196Y-101732669D01*
X140005509Y-101654037D01*
X140194023Y-101223684D01*
X140203498Y-100753949D01*
X140032492Y-100316344D01*
X140005509Y-100275963D01*
X139818196Y-100197331D01*
X139050527Y-100965000D01*
X138985473Y-100965000D01*
X138217804Y-100197331D01*
X138030491Y-100275963D01*
X137841977Y-100706316D01*
X137832502Y-101176051D01*
X124964176Y-101176051D01*
X125114643Y-100791431D01*
X125037528Y-100607000D01*
X123975000Y-100607000D01*
X123929000Y-100607000D01*
X122866472Y-100607000D01*
X122789357Y-100791431D01*
X121319056Y-100791431D01*
X121327424Y-100376569D01*
X122789357Y-100376569D01*
X122866472Y-100561000D01*
X123929000Y-100561000D01*
X123929000Y-99498494D01*
X123975000Y-99498494D01*
X123975000Y-100561000D01*
X125037528Y-100561000D01*
X125114643Y-100376569D01*
X124946762Y-99947435D01*
X124627437Y-99615212D01*
X124205283Y-99430478D01*
X124159431Y-99421359D01*
X123975000Y-99498494D01*
X123929000Y-99498494D01*
X123744569Y-99421359D01*
X123698717Y-99430478D01*
X123276563Y-99615212D01*
X122957238Y-99947435D01*
X122789357Y-100376569D01*
X121327424Y-100376569D01*
X121327498Y-100372949D01*
X121156492Y-99935344D01*
X121129509Y-99894963D01*
X120942196Y-99816331D01*
X120174527Y-100584000D01*
X120109473Y-100584000D01*
X119341804Y-99816331D01*
X119154491Y-99894963D01*
X118965977Y-100325316D01*
X118956502Y-100795051D01*
X117513000Y-100795051D01*
X117513000Y-100349085D01*
X117333203Y-99915017D01*
X117201990Y-99783804D01*
X119374331Y-99783804D01*
X120142000Y-100551473D01*
X120909669Y-99783804D01*
X120831037Y-99596491D01*
X120400684Y-99407977D01*
X119930949Y-99398502D01*
X119493344Y-99569508D01*
X119452963Y-99596491D01*
X119374331Y-99783804D01*
X117201990Y-99783804D01*
X117000983Y-99582797D01*
X116566915Y-99403000D01*
X116097085Y-99403000D01*
X115663017Y-99582797D01*
X115330797Y-99915017D01*
X115151000Y-100349085D01*
X113703000Y-100349085D01*
X113523203Y-99915017D01*
X113190983Y-99582797D01*
X112756915Y-99403000D01*
X112287085Y-99403000D01*
X111853017Y-99582797D01*
X111520797Y-99915017D01*
X111341000Y-100349085D01*
X101015000Y-100349085D01*
X101015000Y-98768000D01*
X126351536Y-98768000D01*
X126351536Y-100368000D01*
X126381106Y-100516659D01*
X126465314Y-100642686D01*
X126591341Y-100726894D01*
X126740000Y-100756464D01*
X128340000Y-100756464D01*
X128488659Y-100726894D01*
X128614686Y-100642686D01*
X128698894Y-100516659D01*
X128717522Y-100423008D01*
X128772332Y-100368198D01*
X128850963Y-100555509D01*
X129281316Y-100744023D01*
X129751051Y-100753498D01*
X130188656Y-100582492D01*
X130229037Y-100555509D01*
X130307669Y-100368196D01*
X129540000Y-99600527D01*
X129525858Y-99614669D01*
X129493331Y-99582142D01*
X129507473Y-99568000D01*
X129572527Y-99568000D01*
X130340196Y-100335669D01*
X130527509Y-100257037D01*
X130567911Y-100164804D01*
X138250331Y-100164804D01*
X139018000Y-100932473D01*
X139785669Y-100164804D01*
X139707037Y-99977491D01*
X139276684Y-99788977D01*
X138806949Y-99779502D01*
X138369344Y-99950508D01*
X138328963Y-99977491D01*
X138250331Y-100164804D01*
X130567911Y-100164804D01*
X130716023Y-99826684D01*
X130725498Y-99356949D01*
X130554492Y-98919344D01*
X130527509Y-98878963D01*
X130340196Y-98800331D01*
X129572527Y-99568000D01*
X129507473Y-99568000D01*
X129493331Y-99553858D01*
X129525858Y-99521331D01*
X129540000Y-99535473D01*
X130307669Y-98767804D01*
X130305674Y-98763051D01*
X132133002Y-98763051D01*
X132304008Y-99200656D01*
X132330991Y-99241037D01*
X132518304Y-99319669D01*
X133285973Y-98552000D01*
X132518304Y-97784331D01*
X132330991Y-97862963D01*
X132142477Y-98293316D01*
X132133002Y-98763051D01*
X130305674Y-98763051D01*
X130229037Y-98580491D01*
X129798684Y-98391977D01*
X129328949Y-98382502D01*
X128891344Y-98553508D01*
X128850963Y-98580491D01*
X128772332Y-98767802D01*
X128717522Y-98712992D01*
X128698894Y-98619341D01*
X128614686Y-98493314D01*
X128488659Y-98409106D01*
X128340000Y-98379536D01*
X126740000Y-98379536D01*
X126591341Y-98409106D01*
X126465314Y-98493314D01*
X126381106Y-98619341D01*
X126351536Y-98768000D01*
X101015000Y-98768000D01*
X101015000Y-96873279D01*
X103699248Y-96873279D01*
X103787008Y-97068383D01*
X104244461Y-97269390D01*
X104744015Y-97280037D01*
X105209617Y-97098702D01*
X105254992Y-97068383D01*
X105342752Y-96873279D01*
X104521000Y-96051527D01*
X103699248Y-96873279D01*
X101015000Y-96873279D01*
X101015000Y-96242015D01*
X103259963Y-96242015D01*
X103441298Y-96707617D01*
X103471617Y-96752992D01*
X103666721Y-96840752D01*
X104488473Y-96019000D01*
X104553527Y-96019000D01*
X105375279Y-96840752D01*
X105570383Y-96752992D01*
X105672760Y-96520000D01*
X108217986Y-96520000D01*
X108332929Y-97097857D01*
X108660259Y-97587741D01*
X109150143Y-97915071D01*
X109582137Y-98001000D01*
X109873863Y-98001000D01*
X110305857Y-97915071D01*
X110795741Y-97587741D01*
X111123071Y-97097857D01*
X111238014Y-96520000D01*
X111123071Y-95942143D01*
X110795741Y-95452259D01*
X110747462Y-95420000D01*
X115859536Y-95420000D01*
X115859536Y-97620000D01*
X115889106Y-97768659D01*
X115973314Y-97894686D01*
X116099341Y-97978894D01*
X116248000Y-98008464D01*
X118448000Y-98008464D01*
X118596659Y-97978894D01*
X118722686Y-97894686D01*
X118806894Y-97768659D01*
X118810246Y-97751804D01*
X132550831Y-97751804D01*
X133318500Y-98519473D01*
X133332642Y-98505331D01*
X133365169Y-98537858D01*
X133351027Y-98552000D01*
X133365169Y-98566142D01*
X133332642Y-98598669D01*
X133318500Y-98584527D01*
X132550831Y-99352196D01*
X132629463Y-99539509D01*
X133059816Y-99728023D01*
X133529551Y-99737498D01*
X133967156Y-99566492D01*
X134007537Y-99539509D01*
X134086168Y-99352198D01*
X134140978Y-99407008D01*
X134159606Y-99500659D01*
X134243814Y-99626686D01*
X134369841Y-99710894D01*
X134518500Y-99740464D01*
X136118500Y-99740464D01*
X136267159Y-99710894D01*
X136393186Y-99626686D01*
X136477394Y-99500659D01*
X136506964Y-99352000D01*
X136506964Y-97752000D01*
X136477394Y-97603341D01*
X136393186Y-97477314D01*
X136267159Y-97393106D01*
X136118500Y-97363536D01*
X134518500Y-97363536D01*
X134369841Y-97393106D01*
X134243814Y-97477314D01*
X134159606Y-97603341D01*
X134140978Y-97696992D01*
X134086168Y-97751802D01*
X134007537Y-97564491D01*
X133577184Y-97375977D01*
X133107449Y-97366502D01*
X132669844Y-97537508D01*
X132629463Y-97564491D01*
X132550831Y-97751804D01*
X118810246Y-97751804D01*
X118836464Y-97620000D01*
X118836464Y-95904085D01*
X124930000Y-95904085D01*
X124930000Y-96373915D01*
X125109797Y-96807983D01*
X125442017Y-97140203D01*
X125876085Y-97320000D01*
X126345915Y-97320000D01*
X126779983Y-97140203D01*
X127112203Y-96807983D01*
X127163063Y-96685196D01*
X138233831Y-96685196D01*
X138312463Y-96872509D01*
X138742816Y-97061023D01*
X139212551Y-97070498D01*
X139650156Y-96899492D01*
X139690537Y-96872509D01*
X139769169Y-96685196D01*
X139001500Y-95917527D01*
X138233831Y-96685196D01*
X127163063Y-96685196D01*
X127292000Y-96373915D01*
X127292000Y-96096051D01*
X137816002Y-96096051D01*
X137987008Y-96533656D01*
X138013991Y-96574037D01*
X138201304Y-96652669D01*
X138968973Y-95885000D01*
X139034027Y-95885000D01*
X139801696Y-96652669D01*
X139989009Y-96574037D01*
X140177523Y-96143684D01*
X140186998Y-95673949D01*
X140015992Y-95236344D01*
X139989009Y-95195963D01*
X139801696Y-95117331D01*
X139034027Y-95885000D01*
X138968973Y-95885000D01*
X138201304Y-95117331D01*
X138013991Y-95195963D01*
X137825477Y-95626316D01*
X137816002Y-96096051D01*
X127292000Y-96096051D01*
X127292000Y-95904085D01*
X127112203Y-95470017D01*
X126779983Y-95137797D01*
X126652047Y-95084804D01*
X138233831Y-95084804D01*
X139001500Y-95852473D01*
X139769169Y-95084804D01*
X139690537Y-94897491D01*
X139260184Y-94708977D01*
X138790449Y-94699502D01*
X138352844Y-94870508D01*
X138312463Y-94897491D01*
X138233831Y-95084804D01*
X126652047Y-95084804D01*
X126345915Y-94958000D01*
X125876085Y-94958000D01*
X125442017Y-95137797D01*
X125109797Y-95470017D01*
X124930000Y-95904085D01*
X118836464Y-95904085D01*
X118836464Y-95420000D01*
X118806894Y-95271341D01*
X118722686Y-95145314D01*
X118596659Y-95061106D01*
X118448000Y-95031536D01*
X116248000Y-95031536D01*
X116099341Y-95061106D01*
X115973314Y-95145314D01*
X115889106Y-95271341D01*
X115859536Y-95420000D01*
X110747462Y-95420000D01*
X110305857Y-95124929D01*
X109873863Y-95039000D01*
X109582137Y-95039000D01*
X109150143Y-95124929D01*
X108660259Y-95452259D01*
X108332929Y-95942143D01*
X108217986Y-96520000D01*
X105672760Y-96520000D01*
X105771390Y-96295539D01*
X105782037Y-95795985D01*
X105600702Y-95330383D01*
X105570383Y-95285008D01*
X105375279Y-95197248D01*
X104553527Y-96019000D01*
X104488473Y-96019000D01*
X103666721Y-95197248D01*
X103471617Y-95285008D01*
X103270610Y-95742461D01*
X103259963Y-96242015D01*
X101015000Y-96242015D01*
X101015000Y-87644000D01*
X103257536Y-87644000D01*
X103257536Y-89394000D01*
X103287106Y-89542659D01*
X103371314Y-89668686D01*
X103497341Y-89752894D01*
X103646000Y-89782464D01*
X104224176Y-89782464D01*
X103809533Y-89954215D01*
X103456215Y-90307533D01*
X103265000Y-90769166D01*
X103265000Y-91268834D01*
X103456215Y-91730467D01*
X103809533Y-92083785D01*
X104256681Y-92269000D01*
X103809533Y-92454215D01*
X103456215Y-92807533D01*
X103265000Y-93269166D01*
X103265000Y-93768834D01*
X103456215Y-94230467D01*
X103809533Y-94583785D01*
X104262964Y-94771603D01*
X103832383Y-94939298D01*
X103787008Y-94969617D01*
X103699248Y-95164721D01*
X104521000Y-95986473D01*
X105342752Y-95164721D01*
X105254992Y-94969617D01*
X104797539Y-94768610D01*
X104786813Y-94768381D01*
X105232467Y-94583785D01*
X105585785Y-94230467D01*
X105777000Y-93768834D01*
X105777000Y-93269166D01*
X105585785Y-92807533D01*
X105232467Y-92454215D01*
X104785319Y-92269000D01*
X105232467Y-92083785D01*
X105585785Y-91730467D01*
X105777000Y-91268834D01*
X105777000Y-90769166D01*
X105585785Y-90307533D01*
X105232467Y-89954215D01*
X104817824Y-89782464D01*
X105187964Y-89782464D01*
X108285265Y-92879766D01*
X108217986Y-93218000D01*
X108332929Y-93795857D01*
X108660259Y-94285741D01*
X109150143Y-94613071D01*
X109582137Y-94699000D01*
X109873863Y-94699000D01*
X110305857Y-94613071D01*
X110795741Y-94285741D01*
X111123071Y-93795857D01*
X111238014Y-93218000D01*
X111123071Y-92640143D01*
X110795741Y-92150259D01*
X110747462Y-92118000D01*
X115859536Y-92118000D01*
X115859536Y-94318000D01*
X115889106Y-94466659D01*
X115973314Y-94592686D01*
X116099341Y-94676894D01*
X116248000Y-94706464D01*
X118448000Y-94706464D01*
X118596659Y-94676894D01*
X118722686Y-94592686D01*
X118806894Y-94466659D01*
X118836464Y-94318000D01*
X118836464Y-93217193D01*
X119369000Y-93217193D01*
X119369000Y-93726807D01*
X119564021Y-94197628D01*
X119924372Y-94557979D01*
X120395193Y-94753000D01*
X120904807Y-94753000D01*
X121375628Y-94557979D01*
X121735979Y-94197628D01*
X121909000Y-93779920D01*
X121909000Y-94447785D01*
X121967004Y-94587819D01*
X122074180Y-94694996D01*
X122214214Y-94753000D01*
X123071750Y-94753000D01*
X123167000Y-94657750D01*
X123167000Y-93495000D01*
X123213000Y-93495000D01*
X123213000Y-94657750D01*
X123308250Y-94753000D01*
X124165786Y-94753000D01*
X124305820Y-94694996D01*
X124412996Y-94587819D01*
X124471000Y-94447785D01*
X124471000Y-93590250D01*
X124375750Y-93495000D01*
X123213000Y-93495000D01*
X123167000Y-93495000D01*
X123147000Y-93495000D01*
X123147000Y-93449000D01*
X123167000Y-93449000D01*
X123167000Y-92286250D01*
X123213000Y-92286250D01*
X123213000Y-93449000D01*
X124375750Y-93449000D01*
X124471000Y-93353750D01*
X124471000Y-93036626D01*
X148295901Y-93036626D01*
X148423209Y-93265500D01*
X148998094Y-93520645D01*
X149626859Y-93536368D01*
X150213779Y-93310277D01*
X150280791Y-93265500D01*
X150408099Y-93036626D01*
X149352000Y-91980527D01*
X148295901Y-93036626D01*
X124471000Y-93036626D01*
X124471000Y-92496215D01*
X124412996Y-92356181D01*
X124305820Y-92249004D01*
X124165786Y-92191000D01*
X123308250Y-92191000D01*
X123213000Y-92286250D01*
X123167000Y-92286250D01*
X123071750Y-92191000D01*
X122214214Y-92191000D01*
X122074180Y-92249004D01*
X121967004Y-92356181D01*
X121909000Y-92496215D01*
X121909000Y-93164080D01*
X121735979Y-92746372D01*
X121375628Y-92386021D01*
X120904807Y-92191000D01*
X120395193Y-92191000D01*
X119924372Y-92386021D01*
X119564021Y-92746372D01*
X119369000Y-93217193D01*
X118836464Y-93217193D01*
X118836464Y-92118000D01*
X118806894Y-91969341D01*
X118786752Y-91939196D01*
X125343331Y-91939196D01*
X125421963Y-92126509D01*
X125852316Y-92315023D01*
X126322051Y-92324498D01*
X126582145Y-92222859D01*
X147763632Y-92222859D01*
X147989723Y-92809779D01*
X148034500Y-92876791D01*
X148263374Y-93004099D01*
X149319473Y-91948000D01*
X149384527Y-91948000D01*
X150440626Y-93004099D01*
X150669500Y-92876791D01*
X150924645Y-92301906D01*
X150940368Y-91673141D01*
X150714277Y-91086221D01*
X150669500Y-91019209D01*
X150440626Y-90891901D01*
X149384527Y-91948000D01*
X149319473Y-91948000D01*
X148263374Y-90891901D01*
X148034500Y-91019209D01*
X147779355Y-91594094D01*
X147763632Y-92222859D01*
X126582145Y-92222859D01*
X126759656Y-92153492D01*
X126800037Y-92126509D01*
X126878669Y-91939196D01*
X126111000Y-91171527D01*
X125343331Y-91939196D01*
X118786752Y-91939196D01*
X118722686Y-91843314D01*
X118596659Y-91759106D01*
X118448000Y-91729536D01*
X116248000Y-91729536D01*
X116099341Y-91759106D01*
X115973314Y-91843314D01*
X115889106Y-91969341D01*
X115859536Y-92118000D01*
X110747462Y-92118000D01*
X110305857Y-91822929D01*
X109873863Y-91737000D01*
X109582137Y-91737000D01*
X109389766Y-91775265D01*
X108645150Y-91030649D01*
X110725000Y-91030649D01*
X110725000Y-91341351D01*
X110843900Y-91628401D01*
X111063599Y-91848100D01*
X111350649Y-91967000D01*
X111661351Y-91967000D01*
X111948401Y-91848100D01*
X112168100Y-91628401D01*
X112283396Y-91350051D01*
X124925502Y-91350051D01*
X125096508Y-91787656D01*
X125123491Y-91828037D01*
X125310804Y-91906669D01*
X126078473Y-91139000D01*
X126143527Y-91139000D01*
X126911196Y-91906669D01*
X127098509Y-91828037D01*
X127287023Y-91397684D01*
X127296498Y-90927949D01*
X127269701Y-90859374D01*
X148295901Y-90859374D01*
X149352000Y-91915473D01*
X150408099Y-90859374D01*
X150280791Y-90630500D01*
X149705906Y-90375355D01*
X149077141Y-90359632D01*
X148490221Y-90585723D01*
X148423209Y-90630500D01*
X148295901Y-90859374D01*
X127269701Y-90859374D01*
X127125492Y-90490344D01*
X127098509Y-90449963D01*
X126911196Y-90371331D01*
X126143527Y-91139000D01*
X126078473Y-91139000D01*
X125310804Y-90371331D01*
X125123491Y-90449963D01*
X124934977Y-90880316D01*
X124925502Y-91350051D01*
X112283396Y-91350051D01*
X112287000Y-91341351D01*
X112287000Y-91030649D01*
X112237000Y-90909938D01*
X112237000Y-90338804D01*
X125343331Y-90338804D01*
X126111000Y-91106473D01*
X126878669Y-90338804D01*
X126800037Y-90151491D01*
X126369684Y-89962977D01*
X125899949Y-89953502D01*
X125462344Y-90124508D01*
X125421963Y-90151491D01*
X125343331Y-90338804D01*
X112237000Y-90338804D01*
X112237000Y-89964789D01*
X112589689Y-89612100D01*
X112710401Y-89562100D01*
X112930100Y-89342401D01*
X113049000Y-89055351D01*
X113049000Y-88744649D01*
X112930100Y-88457599D01*
X112883586Y-88411085D01*
X116421000Y-88411085D01*
X116421000Y-88880915D01*
X116600797Y-89314983D01*
X116933017Y-89647203D01*
X117367085Y-89827000D01*
X117836915Y-89827000D01*
X118270983Y-89647203D01*
X118603203Y-89314983D01*
X118783000Y-88880915D01*
X118783000Y-88646000D01*
X126557863Y-88646000D01*
X126649522Y-89106803D01*
X126910547Y-89497453D01*
X127301197Y-89758478D01*
X127645682Y-89827000D01*
X127878318Y-89827000D01*
X128222803Y-89758478D01*
X128613453Y-89497453D01*
X128874478Y-89106803D01*
X128966137Y-88646000D01*
X128944672Y-88538085D01*
X136868000Y-88538085D01*
X136868000Y-89007915D01*
X137047797Y-89441983D01*
X137380017Y-89774203D01*
X137814085Y-89954000D01*
X138283915Y-89954000D01*
X138717983Y-89774203D01*
X138918990Y-89573196D01*
X142281331Y-89573196D01*
X142359963Y-89760509D01*
X142790316Y-89949023D01*
X143260051Y-89958498D01*
X143697656Y-89787492D01*
X143738037Y-89760509D01*
X143816669Y-89573196D01*
X143049000Y-88805527D01*
X142281331Y-89573196D01*
X138918990Y-89573196D01*
X139050203Y-89441983D01*
X139230000Y-89007915D01*
X139230000Y-88984051D01*
X141863502Y-88984051D01*
X142034508Y-89421656D01*
X142061491Y-89462037D01*
X142248804Y-89540669D01*
X143016473Y-88773000D01*
X143081527Y-88773000D01*
X143849196Y-89540669D01*
X144036509Y-89462037D01*
X144225023Y-89031684D01*
X144234498Y-88561949D01*
X144063492Y-88124344D01*
X144036509Y-88083963D01*
X143849196Y-88005331D01*
X143081527Y-88773000D01*
X143016473Y-88773000D01*
X142248804Y-88005331D01*
X142061491Y-88083963D01*
X141872977Y-88514316D01*
X141863502Y-88984051D01*
X139230000Y-88984051D01*
X139230000Y-88538085D01*
X139050203Y-88104017D01*
X138918990Y-87972804D01*
X142281331Y-87972804D01*
X143049000Y-88740473D01*
X143816669Y-87972804D01*
X143738037Y-87785491D01*
X143307684Y-87596977D01*
X142837949Y-87587502D01*
X142400344Y-87758508D01*
X142359963Y-87785491D01*
X142281331Y-87972804D01*
X138918990Y-87972804D01*
X138717983Y-87771797D01*
X138283915Y-87592000D01*
X137814085Y-87592000D01*
X137380017Y-87771797D01*
X137047797Y-88104017D01*
X136868000Y-88538085D01*
X128944672Y-88538085D01*
X128874478Y-88185197D01*
X128613453Y-87794547D01*
X128222803Y-87533522D01*
X127878318Y-87465000D01*
X127645682Y-87465000D01*
X127301197Y-87533522D01*
X126910547Y-87794547D01*
X126649522Y-88185197D01*
X126557863Y-88646000D01*
X118783000Y-88646000D01*
X118783000Y-88411085D01*
X118603203Y-87977017D01*
X118270983Y-87644797D01*
X117836915Y-87465000D01*
X117367085Y-87465000D01*
X116933017Y-87644797D01*
X116600797Y-87977017D01*
X116421000Y-88411085D01*
X112883586Y-88411085D01*
X112710401Y-88237900D01*
X112423351Y-88119000D01*
X112112649Y-88119000D01*
X111825599Y-88237900D01*
X111605900Y-88457599D01*
X111555900Y-88578311D01*
X111040017Y-89094194D01*
X110978979Y-89134978D01*
X110938196Y-89196015D01*
X110817414Y-89376778D01*
X110760679Y-89662000D01*
X110775001Y-89734000D01*
X110775000Y-90909938D01*
X110725000Y-91030649D01*
X108645150Y-91030649D01*
X105784464Y-88169964D01*
X105784464Y-87644000D01*
X105754894Y-87495341D01*
X105670686Y-87369314D01*
X105544659Y-87285106D01*
X105396000Y-87255536D01*
X103646000Y-87255536D01*
X103497341Y-87285106D01*
X103371314Y-87369314D01*
X103287106Y-87495341D01*
X103257536Y-87644000D01*
X101015000Y-87644000D01*
X101015000Y-87248000D01*
X147763536Y-87248000D01*
X147763536Y-89648000D01*
X147793106Y-89796659D01*
X147877314Y-89922686D01*
X148003341Y-90006894D01*
X148152000Y-90036464D01*
X150552000Y-90036464D01*
X150700659Y-90006894D01*
X150826686Y-89922686D01*
X150910894Y-89796659D01*
X150940464Y-89648000D01*
X150940464Y-87248000D01*
X150910894Y-87099341D01*
X150826686Y-86973314D01*
X150700659Y-86889106D01*
X150552000Y-86859536D01*
X148152000Y-86859536D01*
X148003341Y-86889106D01*
X147877314Y-86973314D01*
X147793106Y-87099341D01*
X147763536Y-87248000D01*
X101015000Y-87248000D01*
X101015000Y-86029000D01*
X156285475Y-86029000D01*
X161875000Y-91618526D01*
G04 #@! TD*
M02*
