M48
;DRILL file {KiCad 5.0.0} date Mon Aug 13 20:42:13 2018
;FORMAT={-:-/ absolute / inch / decimal}
FMAT,2
INCH,TZ
T1C0.0157
T2C0.0315
T3C0.0354
T4C0.0394
T5C0.0433
T6C0.0472
%
G90
G05
M72
T1
X4.175Y-4.16
X4.18Y-4.065
X4.275Y-3.875
X4.305Y-4.175
X4.37Y-4.09
X4.39Y-3.59
X4.42Y-3.5
X4.42Y-4.04
X4.61Y-4.31
X5.415Y-3.5825
X5.415Y-3.615
X5.415Y-3.6475
X5.415Y-3.98
X5.78Y-4.29
X6.01Y-3.765
X6.06Y-3.575
X6.065Y-4.185
X6.12Y-3.89
X6.275Y-3.89
T2
X4.63Y-3.49
X5.03Y-3.49
X5.435Y-3.495
X5.6319Y-3.495
X5.2488Y-3.88
X5.3275Y-3.88
X5.4731Y-3.975
X5.67Y-3.975
X4.58Y-3.96
X4.58Y-4.36
X4.43Y-3.96
X4.43Y-4.36
X4.88Y-3.96
X4.88Y-4.36
X4.965Y-3.5881
X4.965Y-3.785
X4.73Y-3.96
X4.73Y-4.36
X5.0213Y-3.92
X5.1Y-3.92
X5.4725Y-3.775
X5.6694Y-3.775
T3
X4.75Y-3.68
X4.85Y-3.68
T4
X4.115Y-4.015
X4.115Y-4.1134
X4.115Y-4.2119
X4.115Y-4.3103
X5.58Y-4.14
X5.58Y-4.24
X5.58Y-4.34
X4.115Y-3.485
X4.115Y-3.5834
X4.115Y-3.6819
X4.115Y-3.7803
T5
X4.32Y-3.67
X4.62Y-3.67
X4.32Y-3.8
X4.62Y-3.8
T6
X5.88Y-3.8322
X5.88Y-3.97
X5.88Y-3.4822
X5.88Y-3.62
X5.88Y-4.1822
X5.88Y-4.32
T0
M30
