G04 #@! TF.GenerationSoftware,KiCad,Pcbnew,(6.0.0-rc1-dev-1-g01c5bdfb8)*
G04 #@! TF.CreationDate,2019-01-03T14:47:18+01:00*
G04 #@! TF.ProjectId,nunchuk_breakout,6E756E6368756B5F627265616B6F7574,rev?*
G04 #@! TF.SameCoordinates,Original*
G04 #@! TF.FileFunction,Soldermask,Bot*
G04 #@! TF.FilePolarity,Negative*
%FSLAX46Y46*%
G04 Gerber Fmt 4.6, Leading zero omitted, Abs format (unit mm)*
G04 Created by KiCad (PCBNEW (6.0.0-rc1-dev-1-g01c5bdfb8)) date Thu Jan  3 14:47:18 2019*
%MOMM*%
%LPD*%
G01*
G04 APERTURE LIST*
%ADD10C,0.100000*%
%ADD11C,1.700000*%
%ADD12O,1.950000X1.700000*%
%ADD13C,4.300000*%
%ADD14R,1.270000X1.270000*%
%ADD15C,1.270000*%
%ADD16C,3.048000*%
G04 APERTURE END LIST*
D10*
X133000000Y-91000000D02*
G75*
G02X135000000Y-93000000I0J-2000000D01*
G01*
X135000000Y-107000000D02*
G75*
G02X133000000Y-109000000I-2000000J0D01*
G01*
X98000000Y-109000000D02*
G75*
G02X96000000Y-107000000I0J2000000D01*
G01*
X96000000Y-93000000D02*
G75*
G02X98000000Y-91000000I2000000J0D01*
G01*
X135000000Y-107000000D02*
X135000000Y-93000000D01*
X98000000Y-109000000D02*
X133000000Y-109000000D01*
X96000000Y-93000000D02*
X96000000Y-107000000D01*
X133000000Y-91000000D02*
X98000000Y-91000000D01*
G04 #@! TO.C,J1*
G36*
X100749504Y-95401204D02*
X100773773Y-95404804D01*
X100797571Y-95410765D01*
X100820671Y-95419030D01*
X100842849Y-95429520D01*
X100863893Y-95442133D01*
X100883598Y-95456747D01*
X100901777Y-95473223D01*
X100918253Y-95491402D01*
X100932867Y-95511107D01*
X100945480Y-95532151D01*
X100955970Y-95554329D01*
X100964235Y-95577429D01*
X100970196Y-95601227D01*
X100973796Y-95625496D01*
X100975000Y-95650000D01*
X100975000Y-96850000D01*
X100973796Y-96874504D01*
X100970196Y-96898773D01*
X100964235Y-96922571D01*
X100955970Y-96945671D01*
X100945480Y-96967849D01*
X100932867Y-96988893D01*
X100918253Y-97008598D01*
X100901777Y-97026777D01*
X100883598Y-97043253D01*
X100863893Y-97057867D01*
X100842849Y-97070480D01*
X100820671Y-97080970D01*
X100797571Y-97089235D01*
X100773773Y-97095196D01*
X100749504Y-97098796D01*
X100725000Y-97100000D01*
X99275000Y-97100000D01*
X99250496Y-97098796D01*
X99226227Y-97095196D01*
X99202429Y-97089235D01*
X99179329Y-97080970D01*
X99157151Y-97070480D01*
X99136107Y-97057867D01*
X99116402Y-97043253D01*
X99098223Y-97026777D01*
X99081747Y-97008598D01*
X99067133Y-96988893D01*
X99054520Y-96967849D01*
X99044030Y-96945671D01*
X99035765Y-96922571D01*
X99029804Y-96898773D01*
X99026204Y-96874504D01*
X99025000Y-96850000D01*
X99025000Y-95650000D01*
X99026204Y-95625496D01*
X99029804Y-95601227D01*
X99035765Y-95577429D01*
X99044030Y-95554329D01*
X99054520Y-95532151D01*
X99067133Y-95511107D01*
X99081747Y-95491402D01*
X99098223Y-95473223D01*
X99116402Y-95456747D01*
X99136107Y-95442133D01*
X99157151Y-95429520D01*
X99179329Y-95419030D01*
X99202429Y-95410765D01*
X99226227Y-95404804D01*
X99250496Y-95401204D01*
X99275000Y-95400000D01*
X100725000Y-95400000D01*
X100749504Y-95401204D01*
X100749504Y-95401204D01*
G37*
D11*
X100000000Y-96250000D03*
D12*
X100000000Y-98750000D03*
X100000000Y-101250000D03*
X100000000Y-103750000D03*
G04 #@! TD*
D13*
G04 #@! TO.C,H2*
X115000000Y-105500000D03*
G04 #@! TD*
G04 #@! TO.C,H1*
X115000000Y-94500000D03*
G04 #@! TD*
D14*
G04 #@! TO.C,P1*
X124412000Y-101905000D03*
D15*
X126317000Y-101905000D03*
X124412000Y-100000000D03*
X126317000Y-100000000D03*
X124412000Y-98095000D03*
X126317000Y-98095000D03*
D16*
X127206000Y-106350000D03*
X132540000Y-93650000D03*
X132540000Y-106350000D03*
X127206000Y-93650000D03*
G04 #@! TD*
M02*
