G04 #@! TF.GenerationSoftware,KiCad,Pcbnew,(6.0.0-rc1-dev-1-g01c5bdfb8)*
G04 #@! TF.CreationDate,2019-01-03T14:47:18+01:00*
G04 #@! TF.ProjectId,nunchuk_breakout,6E756E6368756B5F627265616B6F7574,rev?*
G04 #@! TF.SameCoordinates,Original*
G04 #@! TF.FileFunction,Legend,Top*
G04 #@! TF.FilePolarity,Positive*
%FSLAX46Y46*%
G04 Gerber Fmt 4.6, Leading zero omitted, Abs format (unit mm)*
G04 Created by KiCad (PCBNEW (6.0.0-rc1-dev-1-g01c5bdfb8)) date Thu Jan  3 14:47:18 2019*
%MOMM*%
%LPD*%
G01*
G04 APERTURE LIST*
%ADD10C,0.110000*%
%ADD11C,0.150000*%
%ADD12C,0.100000*%
%ADD13C,0.120000*%
G04 APERTURE END LIST*
D10*
X97419119Y-107251547D02*
X97419119Y-106601547D01*
X97684833Y-107251547D02*
X97684833Y-106911071D01*
X97655309Y-106849166D01*
X97596261Y-106818214D01*
X97507690Y-106818214D01*
X97448642Y-106849166D01*
X97419119Y-106880119D01*
X97891500Y-106818214D02*
X98127690Y-106818214D01*
X97980071Y-106601547D02*
X97980071Y-107158690D01*
X98009595Y-107220595D01*
X98068642Y-107251547D01*
X98127690Y-107251547D01*
X98245785Y-106818214D02*
X98481976Y-106818214D01*
X98334357Y-106601547D02*
X98334357Y-107158690D01*
X98363880Y-107220595D01*
X98422928Y-107251547D01*
X98481976Y-107251547D01*
X98688642Y-106818214D02*
X98688642Y-107468214D01*
X98688642Y-106849166D02*
X98747690Y-106818214D01*
X98865785Y-106818214D01*
X98924833Y-106849166D01*
X98954357Y-106880119D01*
X98983880Y-106942023D01*
X98983880Y-107127738D01*
X98954357Y-107189642D01*
X98924833Y-107220595D01*
X98865785Y-107251547D01*
X98747690Y-107251547D01*
X98688642Y-107220595D01*
X99220071Y-107220595D02*
X99279119Y-107251547D01*
X99397214Y-107251547D01*
X99456261Y-107220595D01*
X99485785Y-107158690D01*
X99485785Y-107127738D01*
X99456261Y-107065833D01*
X99397214Y-107034880D01*
X99308642Y-107034880D01*
X99249595Y-107003928D01*
X99220071Y-106942023D01*
X99220071Y-106911071D01*
X99249595Y-106849166D01*
X99308642Y-106818214D01*
X99397214Y-106818214D01*
X99456261Y-106849166D01*
X99751500Y-107189642D02*
X99781023Y-107220595D01*
X99751500Y-107251547D01*
X99721976Y-107220595D01*
X99751500Y-107189642D01*
X99751500Y-107251547D01*
X99751500Y-106849166D02*
X99781023Y-106880119D01*
X99751500Y-106911071D01*
X99721976Y-106880119D01*
X99751500Y-106849166D01*
X99751500Y-106911071D01*
X100489595Y-106570595D02*
X99958166Y-107406309D01*
X101139119Y-106570595D02*
X100607690Y-107406309D01*
X101611500Y-106818214D02*
X101611500Y-107344404D01*
X101581976Y-107406309D01*
X101552452Y-107437261D01*
X101493404Y-107468214D01*
X101404833Y-107468214D01*
X101345785Y-107437261D01*
X101611500Y-107220595D02*
X101552452Y-107251547D01*
X101434357Y-107251547D01*
X101375309Y-107220595D01*
X101345785Y-107189642D01*
X101316261Y-107127738D01*
X101316261Y-106942023D01*
X101345785Y-106880119D01*
X101375309Y-106849166D01*
X101434357Y-106818214D01*
X101552452Y-106818214D01*
X101611500Y-106849166D01*
X101906738Y-107251547D02*
X101906738Y-106818214D01*
X101906738Y-106601547D02*
X101877214Y-106632500D01*
X101906738Y-106663452D01*
X101936261Y-106632500D01*
X101906738Y-106601547D01*
X101906738Y-106663452D01*
X102113404Y-106818214D02*
X102349595Y-106818214D01*
X102201976Y-106601547D02*
X102201976Y-107158690D01*
X102231500Y-107220595D01*
X102290547Y-107251547D01*
X102349595Y-107251547D01*
X102556261Y-107251547D02*
X102556261Y-106601547D01*
X102821976Y-107251547D02*
X102821976Y-106911071D01*
X102792452Y-106849166D01*
X102733404Y-106818214D01*
X102644833Y-106818214D01*
X102585785Y-106849166D01*
X102556261Y-106880119D01*
X103382928Y-106818214D02*
X103382928Y-107251547D01*
X103117214Y-106818214D02*
X103117214Y-107158690D01*
X103146738Y-107220595D01*
X103205785Y-107251547D01*
X103294357Y-107251547D01*
X103353404Y-107220595D01*
X103382928Y-107189642D01*
X103678166Y-107251547D02*
X103678166Y-106601547D01*
X103678166Y-106849166D02*
X103737214Y-106818214D01*
X103855309Y-106818214D01*
X103914357Y-106849166D01*
X103943880Y-106880119D01*
X103973404Y-106942023D01*
X103973404Y-107127738D01*
X103943880Y-107189642D01*
X103914357Y-107220595D01*
X103855309Y-107251547D01*
X103737214Y-107251547D01*
X103678166Y-107220595D01*
X104239119Y-107189642D02*
X104268642Y-107220595D01*
X104239119Y-107251547D01*
X104209595Y-107220595D01*
X104239119Y-107189642D01*
X104239119Y-107251547D01*
X104800071Y-107220595D02*
X104741023Y-107251547D01*
X104622928Y-107251547D01*
X104563880Y-107220595D01*
X104534357Y-107189642D01*
X104504833Y-107127738D01*
X104504833Y-106942023D01*
X104534357Y-106880119D01*
X104563880Y-106849166D01*
X104622928Y-106818214D01*
X104741023Y-106818214D01*
X104800071Y-106849166D01*
X105154357Y-107251547D02*
X105095309Y-107220595D01*
X105065785Y-107189642D01*
X105036261Y-107127738D01*
X105036261Y-106942023D01*
X105065785Y-106880119D01*
X105095309Y-106849166D01*
X105154357Y-106818214D01*
X105242928Y-106818214D01*
X105301976Y-106849166D01*
X105331500Y-106880119D01*
X105361023Y-106942023D01*
X105361023Y-107127738D01*
X105331500Y-107189642D01*
X105301976Y-107220595D01*
X105242928Y-107251547D01*
X105154357Y-107251547D01*
X105626738Y-107251547D02*
X105626738Y-106818214D01*
X105626738Y-106880119D02*
X105656261Y-106849166D01*
X105715309Y-106818214D01*
X105803880Y-106818214D01*
X105862928Y-106849166D01*
X105892452Y-106911071D01*
X105892452Y-107251547D01*
X105892452Y-106911071D02*
X105921976Y-106849166D01*
X105981023Y-106818214D01*
X106069595Y-106818214D01*
X106128642Y-106849166D01*
X106158166Y-106911071D01*
X106158166Y-107251547D01*
X106896261Y-106570595D02*
X106364833Y-107406309D01*
X97596261Y-107686547D02*
X97596261Y-108150833D01*
X97566738Y-108243690D01*
X97507690Y-108305595D01*
X97419119Y-108336547D01*
X97360071Y-108336547D01*
X98157214Y-108336547D02*
X98157214Y-107996071D01*
X98127690Y-107934166D01*
X98068642Y-107903214D01*
X97950547Y-107903214D01*
X97891500Y-107934166D01*
X98157214Y-108305595D02*
X98098166Y-108336547D01*
X97950547Y-108336547D01*
X97891500Y-108305595D01*
X97861976Y-108243690D01*
X97861976Y-108181785D01*
X97891500Y-108119880D01*
X97950547Y-108088928D01*
X98098166Y-108088928D01*
X98157214Y-108057976D01*
X98452452Y-107903214D02*
X98452452Y-108336547D01*
X98452452Y-107965119D02*
X98481976Y-107934166D01*
X98541023Y-107903214D01*
X98629595Y-107903214D01*
X98688642Y-107934166D01*
X98718166Y-107996071D01*
X98718166Y-108336547D01*
X99013404Y-108088928D02*
X99485785Y-108088928D01*
X99781023Y-108088928D02*
X100253404Y-108088928D01*
X100548642Y-108336547D02*
X100548642Y-107686547D01*
X100548642Y-107996071D02*
X100902928Y-107996071D01*
X100902928Y-108336547D02*
X100902928Y-107686547D01*
X101434357Y-108305595D02*
X101375309Y-108336547D01*
X101257214Y-108336547D01*
X101198166Y-108305595D01*
X101168642Y-108243690D01*
X101168642Y-107996071D01*
X101198166Y-107934166D01*
X101257214Y-107903214D01*
X101375309Y-107903214D01*
X101434357Y-107934166D01*
X101463880Y-107996071D01*
X101463880Y-108057976D01*
X101168642Y-108119880D01*
X101729595Y-107903214D02*
X101729595Y-108336547D01*
X101729595Y-107965119D02*
X101759119Y-107934166D01*
X101818166Y-107903214D01*
X101906738Y-107903214D01*
X101965785Y-107934166D01*
X101995309Y-107996071D01*
X101995309Y-108336547D01*
X102290547Y-108336547D02*
X102290547Y-107903214D01*
X102290547Y-108027023D02*
X102320071Y-107965119D01*
X102349595Y-107934166D01*
X102408642Y-107903214D01*
X102467690Y-107903214D01*
X102674357Y-108336547D02*
X102674357Y-107903214D01*
X102674357Y-107686547D02*
X102644833Y-107717500D01*
X102674357Y-107748452D01*
X102703880Y-107717500D01*
X102674357Y-107686547D01*
X102674357Y-107748452D01*
X102969595Y-108336547D02*
X102969595Y-107686547D01*
X103028642Y-108088928D02*
X103205785Y-108336547D01*
X103205785Y-107903214D02*
X102969595Y-108150833D01*
X103914357Y-107655595D02*
X103382928Y-108491309D01*
X104121023Y-108336547D02*
X104121023Y-107686547D01*
X104386738Y-108336547D02*
X104386738Y-107996071D01*
X104357214Y-107934166D01*
X104298166Y-107903214D01*
X104209595Y-107903214D01*
X104150547Y-107934166D01*
X104121023Y-107965119D01*
X104770547Y-108336547D02*
X104711500Y-108305595D01*
X104681976Y-108274642D01*
X104652452Y-108212738D01*
X104652452Y-108027023D01*
X104681976Y-107965119D01*
X104711500Y-107934166D01*
X104770547Y-107903214D01*
X104859119Y-107903214D01*
X104918166Y-107934166D01*
X104947690Y-107965119D01*
X104977214Y-108027023D01*
X104977214Y-108212738D01*
X104947690Y-108274642D01*
X104918166Y-108305595D01*
X104859119Y-108336547D01*
X104770547Y-108336547D01*
X105183880Y-107903214D02*
X105331500Y-108336547D01*
X105479119Y-107903214D01*
X105951500Y-108305595D02*
X105892452Y-108336547D01*
X105774357Y-108336547D01*
X105715309Y-108305595D01*
X105685785Y-108243690D01*
X105685785Y-107996071D01*
X105715309Y-107934166D01*
X105774357Y-107903214D01*
X105892452Y-107903214D01*
X105951500Y-107934166D01*
X105981023Y-107996071D01*
X105981023Y-108057976D01*
X105685785Y-108119880D01*
X106246738Y-108336547D02*
X106246738Y-107903214D01*
X106246738Y-108027023D02*
X106276261Y-107965119D01*
X106305785Y-107934166D01*
X106364833Y-107903214D01*
X106423880Y-107903214D01*
X106630547Y-108336547D02*
X106630547Y-107686547D01*
X106630547Y-107934166D02*
X106689595Y-107903214D01*
X106807690Y-107903214D01*
X106866738Y-107934166D01*
X106896261Y-107965119D01*
X106925785Y-108027023D01*
X106925785Y-108212738D01*
X106896261Y-108274642D01*
X106866738Y-108305595D01*
X106807690Y-108336547D01*
X106689595Y-108336547D01*
X106630547Y-108305595D01*
X107280071Y-108336547D02*
X107221023Y-108305595D01*
X107191500Y-108274642D01*
X107161976Y-108212738D01*
X107161976Y-108027023D01*
X107191500Y-107965119D01*
X107221023Y-107934166D01*
X107280071Y-107903214D01*
X107368642Y-107903214D01*
X107427690Y-107934166D01*
X107457214Y-107965119D01*
X107486738Y-108027023D01*
X107486738Y-108212738D01*
X107457214Y-108274642D01*
X107427690Y-108305595D01*
X107368642Y-108336547D01*
X107280071Y-108336547D01*
X108018166Y-108336547D02*
X108018166Y-107996071D01*
X107988642Y-107934166D01*
X107929595Y-107903214D01*
X107811500Y-107903214D01*
X107752452Y-107934166D01*
X108018166Y-108305595D02*
X107959119Y-108336547D01*
X107811500Y-108336547D01*
X107752452Y-108305595D01*
X107722928Y-108243690D01*
X107722928Y-108181785D01*
X107752452Y-108119880D01*
X107811500Y-108088928D01*
X107959119Y-108088928D01*
X108018166Y-108057976D01*
X108313404Y-108336547D02*
X108313404Y-107903214D01*
X108313404Y-108027023D02*
X108342928Y-107965119D01*
X108372452Y-107934166D01*
X108431500Y-107903214D01*
X108490547Y-107903214D01*
X108962928Y-108336547D02*
X108962928Y-107686547D01*
X108962928Y-108305595D02*
X108903880Y-108336547D01*
X108785785Y-108336547D01*
X108726738Y-108305595D01*
X108697214Y-108274642D01*
X108667690Y-108212738D01*
X108667690Y-108027023D01*
X108697214Y-107965119D01*
X108726738Y-107934166D01*
X108785785Y-107903214D01*
X108903880Y-107903214D01*
X108962928Y-107934166D01*
X109258166Y-108088928D02*
X109730547Y-108088928D01*
X110025785Y-108336547D02*
X110025785Y-107686547D01*
X110025785Y-107934166D02*
X110084833Y-107903214D01*
X110202928Y-107903214D01*
X110261976Y-107934166D01*
X110291500Y-107965119D01*
X110321023Y-108027023D01*
X110321023Y-108212738D01*
X110291500Y-108274642D01*
X110261976Y-108305595D01*
X110202928Y-108336547D01*
X110084833Y-108336547D01*
X110025785Y-108305595D01*
X110586738Y-108336547D02*
X110586738Y-107903214D01*
X110586738Y-108027023D02*
X110616261Y-107965119D01*
X110645785Y-107934166D01*
X110704833Y-107903214D01*
X110763880Y-107903214D01*
X111206738Y-108305595D02*
X111147690Y-108336547D01*
X111029595Y-108336547D01*
X110970547Y-108305595D01*
X110941023Y-108243690D01*
X110941023Y-107996071D01*
X110970547Y-107934166D01*
X111029595Y-107903214D01*
X111147690Y-107903214D01*
X111206738Y-107934166D01*
X111236261Y-107996071D01*
X111236261Y-108057976D01*
X110941023Y-108119880D01*
X111767690Y-108336547D02*
X111767690Y-107996071D01*
X111738166Y-107934166D01*
X111679119Y-107903214D01*
X111561023Y-107903214D01*
X111501976Y-107934166D01*
X111767690Y-108305595D02*
X111708642Y-108336547D01*
X111561023Y-108336547D01*
X111501976Y-108305595D01*
X111472452Y-108243690D01*
X111472452Y-108181785D01*
X111501976Y-108119880D01*
X111561023Y-108088928D01*
X111708642Y-108088928D01*
X111767690Y-108057976D01*
X112062928Y-108336547D02*
X112062928Y-107686547D01*
X112121976Y-108088928D02*
X112299119Y-108336547D01*
X112299119Y-107903214D02*
X112062928Y-108150833D01*
X112653404Y-108336547D02*
X112594357Y-108305595D01*
X112564833Y-108274642D01*
X112535309Y-108212738D01*
X112535309Y-108027023D01*
X112564833Y-107965119D01*
X112594357Y-107934166D01*
X112653404Y-107903214D01*
X112741976Y-107903214D01*
X112801023Y-107934166D01*
X112830547Y-107965119D01*
X112860071Y-108027023D01*
X112860071Y-108212738D01*
X112830547Y-108274642D01*
X112801023Y-108305595D01*
X112741976Y-108336547D01*
X112653404Y-108336547D01*
X113391500Y-107903214D02*
X113391500Y-108336547D01*
X113125785Y-107903214D02*
X113125785Y-108243690D01*
X113155309Y-108305595D01*
X113214357Y-108336547D01*
X113302928Y-108336547D01*
X113361976Y-108305595D01*
X113391500Y-108274642D01*
X113598166Y-107903214D02*
X113834357Y-107903214D01*
X113686738Y-107686547D02*
X113686738Y-108243690D01*
X113716261Y-108305595D01*
X113775309Y-108336547D01*
X113834357Y-108336547D01*
D11*
X110023809Y-98802380D02*
X110023809Y-97802380D01*
X110023809Y-98278571D02*
X110595238Y-98278571D01*
X110595238Y-98802380D02*
X110595238Y-97802380D01*
X111214285Y-98802380D02*
X111119047Y-98754761D01*
X111071428Y-98707142D01*
X111023809Y-98611904D01*
X111023809Y-98326190D01*
X111071428Y-98230952D01*
X111119047Y-98183333D01*
X111214285Y-98135714D01*
X111357142Y-98135714D01*
X111452380Y-98183333D01*
X111500000Y-98230952D01*
X111547619Y-98326190D01*
X111547619Y-98611904D01*
X111500000Y-98707142D01*
X111452380Y-98754761D01*
X111357142Y-98802380D01*
X111214285Y-98802380D01*
X111880952Y-98135714D02*
X112119047Y-98802380D01*
X112357142Y-98135714D01*
X113119047Y-98754761D02*
X113023809Y-98802380D01*
X112833333Y-98802380D01*
X112738095Y-98754761D01*
X112690476Y-98659523D01*
X112690476Y-98278571D01*
X112738095Y-98183333D01*
X112833333Y-98135714D01*
X113023809Y-98135714D01*
X113119047Y-98183333D01*
X113166666Y-98278571D01*
X113166666Y-98373809D01*
X112690476Y-98469047D01*
X113595238Y-98802380D02*
X113595238Y-98135714D01*
X113595238Y-98326190D02*
X113642857Y-98230952D01*
X113690476Y-98183333D01*
X113785714Y-98135714D01*
X113880952Y-98135714D01*
X114214285Y-98802380D02*
X114214285Y-97802380D01*
X114214285Y-98183333D02*
X114309523Y-98135714D01*
X114500000Y-98135714D01*
X114595238Y-98183333D01*
X114642857Y-98230952D01*
X114690476Y-98326190D01*
X114690476Y-98611904D01*
X114642857Y-98707142D01*
X114595238Y-98754761D01*
X114500000Y-98802380D01*
X114309523Y-98802380D01*
X114214285Y-98754761D01*
X115261904Y-98802380D02*
X115166666Y-98754761D01*
X115119047Y-98707142D01*
X115071428Y-98611904D01*
X115071428Y-98326190D01*
X115119047Y-98230952D01*
X115166666Y-98183333D01*
X115261904Y-98135714D01*
X115404761Y-98135714D01*
X115500000Y-98183333D01*
X115547619Y-98230952D01*
X115595238Y-98326190D01*
X115595238Y-98611904D01*
X115547619Y-98707142D01*
X115500000Y-98754761D01*
X115404761Y-98802380D01*
X115261904Y-98802380D01*
X116452380Y-98802380D02*
X116452380Y-98278571D01*
X116404761Y-98183333D01*
X116309523Y-98135714D01*
X116119047Y-98135714D01*
X116023809Y-98183333D01*
X116452380Y-98754761D02*
X116357142Y-98802380D01*
X116119047Y-98802380D01*
X116023809Y-98754761D01*
X115976190Y-98659523D01*
X115976190Y-98564285D01*
X116023809Y-98469047D01*
X116119047Y-98421428D01*
X116357142Y-98421428D01*
X116452380Y-98373809D01*
X116928571Y-98802380D02*
X116928571Y-98135714D01*
X116928571Y-98326190D02*
X116976190Y-98230952D01*
X117023809Y-98183333D01*
X117119047Y-98135714D01*
X117214285Y-98135714D01*
X117976190Y-98802380D02*
X117976190Y-97802380D01*
X117976190Y-98754761D02*
X117880952Y-98802380D01*
X117690476Y-98802380D01*
X117595238Y-98754761D01*
X117547619Y-98707142D01*
X117500000Y-98611904D01*
X117500000Y-98326190D01*
X117547619Y-98230952D01*
X117595238Y-98183333D01*
X117690476Y-98135714D01*
X117880952Y-98135714D01*
X117976190Y-98183333D01*
X109809523Y-99785714D02*
X110190476Y-99785714D01*
X109952380Y-99452380D02*
X109952380Y-100309523D01*
X110000000Y-100404761D01*
X110095238Y-100452380D01*
X110190476Y-100452380D01*
X110666666Y-100452380D02*
X110571428Y-100404761D01*
X110523809Y-100357142D01*
X110476190Y-100261904D01*
X110476190Y-99976190D01*
X110523809Y-99880952D01*
X110571428Y-99833333D01*
X110666666Y-99785714D01*
X110809523Y-99785714D01*
X110904761Y-99833333D01*
X110952380Y-99880952D01*
X111000000Y-99976190D01*
X111000000Y-100261904D01*
X110952380Y-100357142D01*
X110904761Y-100404761D01*
X110809523Y-100452380D01*
X110666666Y-100452380D01*
X112190476Y-100452380D02*
X112190476Y-99452380D01*
X112761904Y-100452380D01*
X112761904Y-99452380D01*
X113666666Y-99785714D02*
X113666666Y-100452380D01*
X113238095Y-99785714D02*
X113238095Y-100309523D01*
X113285714Y-100404761D01*
X113380952Y-100452380D01*
X113523809Y-100452380D01*
X113619047Y-100404761D01*
X113666666Y-100357142D01*
X114142857Y-99785714D02*
X114142857Y-100452380D01*
X114142857Y-99880952D02*
X114190476Y-99833333D01*
X114285714Y-99785714D01*
X114428571Y-99785714D01*
X114523809Y-99833333D01*
X114571428Y-99928571D01*
X114571428Y-100452380D01*
X115476190Y-100404761D02*
X115380952Y-100452380D01*
X115190476Y-100452380D01*
X115095238Y-100404761D01*
X115047619Y-100357142D01*
X115000000Y-100261904D01*
X115000000Y-99976190D01*
X115047619Y-99880952D01*
X115095238Y-99833333D01*
X115190476Y-99785714D01*
X115380952Y-99785714D01*
X115476190Y-99833333D01*
X115904761Y-100452380D02*
X115904761Y-99452380D01*
X116333333Y-100452380D02*
X116333333Y-99928571D01*
X116285714Y-99833333D01*
X116190476Y-99785714D01*
X116047619Y-99785714D01*
X115952380Y-99833333D01*
X115904761Y-99880952D01*
X117238095Y-99785714D02*
X117238095Y-100452380D01*
X116809523Y-99785714D02*
X116809523Y-100309523D01*
X116857142Y-100404761D01*
X116952380Y-100452380D01*
X117095238Y-100452380D01*
X117190476Y-100404761D01*
X117238095Y-100357142D01*
X117714285Y-100452380D02*
X117714285Y-99452380D01*
X117809523Y-100071428D02*
X118095238Y-100452380D01*
X118095238Y-99785714D02*
X117714285Y-100166666D01*
X111833333Y-102102380D02*
X111833333Y-101578571D01*
X111785714Y-101483333D01*
X111690476Y-101435714D01*
X111500000Y-101435714D01*
X111404761Y-101483333D01*
X111833333Y-102054761D02*
X111738095Y-102102380D01*
X111500000Y-102102380D01*
X111404761Y-102054761D01*
X111357142Y-101959523D01*
X111357142Y-101864285D01*
X111404761Y-101769047D01*
X111500000Y-101721428D01*
X111738095Y-101721428D01*
X111833333Y-101673809D01*
X112738095Y-102102380D02*
X112738095Y-101102380D01*
X112738095Y-102054761D02*
X112642857Y-102102380D01*
X112452380Y-102102380D01*
X112357142Y-102054761D01*
X112309523Y-102007142D01*
X112261904Y-101911904D01*
X112261904Y-101626190D01*
X112309523Y-101530952D01*
X112357142Y-101483333D01*
X112452380Y-101435714D01*
X112642857Y-101435714D01*
X112738095Y-101483333D01*
X113642857Y-102102380D02*
X113642857Y-101578571D01*
X113595238Y-101483333D01*
X113500000Y-101435714D01*
X113309523Y-101435714D01*
X113214285Y-101483333D01*
X113642857Y-102054761D02*
X113547619Y-102102380D01*
X113309523Y-102102380D01*
X113214285Y-102054761D01*
X113166666Y-101959523D01*
X113166666Y-101864285D01*
X113214285Y-101769047D01*
X113309523Y-101721428D01*
X113547619Y-101721428D01*
X113642857Y-101673809D01*
X114119047Y-101435714D02*
X114119047Y-102435714D01*
X114119047Y-101483333D02*
X114214285Y-101435714D01*
X114404761Y-101435714D01*
X114500000Y-101483333D01*
X114547619Y-101530952D01*
X114595238Y-101626190D01*
X114595238Y-101911904D01*
X114547619Y-102007142D01*
X114500000Y-102054761D01*
X114404761Y-102102380D01*
X114214285Y-102102380D01*
X114119047Y-102054761D01*
X114880952Y-101435714D02*
X115261904Y-101435714D01*
X115023809Y-101102380D02*
X115023809Y-101959523D01*
X115071428Y-102054761D01*
X115166666Y-102102380D01*
X115261904Y-102102380D01*
X115976190Y-102054761D02*
X115880952Y-102102380D01*
X115690476Y-102102380D01*
X115595238Y-102054761D01*
X115547619Y-101959523D01*
X115547619Y-101578571D01*
X115595238Y-101483333D01*
X115690476Y-101435714D01*
X115880952Y-101435714D01*
X115976190Y-101483333D01*
X116023809Y-101578571D01*
X116023809Y-101673809D01*
X115547619Y-101769047D01*
X116452380Y-102102380D02*
X116452380Y-101435714D01*
X116452380Y-101626190D02*
X116500000Y-101530952D01*
X116547619Y-101483333D01*
X116642857Y-101435714D01*
X116738095Y-101435714D01*
D12*
X98300000Y-103292857D02*
X98328571Y-103235714D01*
X98328571Y-103150000D01*
X98300000Y-103064285D01*
X98242857Y-103007142D01*
X98185714Y-102978571D01*
X98071428Y-102950000D01*
X97985714Y-102950000D01*
X97871428Y-102978571D01*
X97814285Y-103007142D01*
X97757142Y-103064285D01*
X97728571Y-103150000D01*
X97728571Y-103207142D01*
X97757142Y-103292857D01*
X97785714Y-103321428D01*
X97985714Y-103321428D01*
X97985714Y-103207142D01*
X97728571Y-103578571D02*
X98328571Y-103578571D01*
X97728571Y-103921428D01*
X98328571Y-103921428D01*
X97728571Y-104207142D02*
X98328571Y-104207142D01*
X98328571Y-104350000D01*
X98300000Y-104435714D01*
X98242857Y-104492857D01*
X98185714Y-104521428D01*
X98071428Y-104550000D01*
X97985714Y-104550000D01*
X97871428Y-104521428D01*
X97814285Y-104492857D01*
X97757142Y-104435714D01*
X97728571Y-104350000D01*
X97728571Y-104207142D01*
X97757142Y-100421428D02*
X97728571Y-100507142D01*
X97728571Y-100650000D01*
X97757142Y-100707142D01*
X97785714Y-100735714D01*
X97842857Y-100764285D01*
X97900000Y-100764285D01*
X97957142Y-100735714D01*
X97985714Y-100707142D01*
X98014285Y-100650000D01*
X98042857Y-100535714D01*
X98071428Y-100478571D01*
X98100000Y-100450000D01*
X98157142Y-100421428D01*
X98214285Y-100421428D01*
X98271428Y-100450000D01*
X98300000Y-100478571D01*
X98328571Y-100535714D01*
X98328571Y-100678571D01*
X98300000Y-100764285D01*
X97728571Y-101021428D02*
X98328571Y-101021428D01*
X98328571Y-101164285D01*
X98300000Y-101250000D01*
X98242857Y-101307142D01*
X98185714Y-101335714D01*
X98071428Y-101364285D01*
X97985714Y-101364285D01*
X97871428Y-101335714D01*
X97814285Y-101307142D01*
X97757142Y-101250000D01*
X97728571Y-101164285D01*
X97728571Y-101021428D01*
X97900000Y-101592857D02*
X97900000Y-101878571D01*
X97728571Y-101535714D02*
X98328571Y-101735714D01*
X97728571Y-101935714D01*
X97757142Y-98035714D02*
X97728571Y-98121428D01*
X97728571Y-98264285D01*
X97757142Y-98321428D01*
X97785714Y-98350000D01*
X97842857Y-98378571D01*
X97900000Y-98378571D01*
X97957142Y-98350000D01*
X97985714Y-98321428D01*
X98014285Y-98264285D01*
X98042857Y-98150000D01*
X98071428Y-98092857D01*
X98100000Y-98064285D01*
X98157142Y-98035714D01*
X98214285Y-98035714D01*
X98271428Y-98064285D01*
X98300000Y-98092857D01*
X98328571Y-98150000D01*
X98328571Y-98292857D01*
X98300000Y-98378571D01*
X97785714Y-98978571D02*
X97757142Y-98950000D01*
X97728571Y-98864285D01*
X97728571Y-98807142D01*
X97757142Y-98721428D01*
X97814285Y-98664285D01*
X97871428Y-98635714D01*
X97985714Y-98607142D01*
X98071428Y-98607142D01*
X98185714Y-98635714D01*
X98242857Y-98664285D01*
X98300000Y-98721428D01*
X98328571Y-98807142D01*
X98328571Y-98864285D01*
X98300000Y-98950000D01*
X98271428Y-98978571D01*
X97728571Y-99521428D02*
X97728571Y-99235714D01*
X98328571Y-99235714D01*
X97957142Y-95142857D02*
X97957142Y-95600000D01*
X97728571Y-95371428D02*
X98185714Y-95371428D01*
X97728571Y-96200000D02*
X97728571Y-95857142D01*
X97728571Y-96028571D02*
X98328571Y-96028571D01*
X98242857Y-95971428D01*
X98185714Y-95914285D01*
X98157142Y-95857142D01*
X98328571Y-96742857D02*
X98328571Y-96457142D01*
X98042857Y-96428571D01*
X98071428Y-96457142D01*
X98100000Y-96514285D01*
X98100000Y-96657142D01*
X98071428Y-96714285D01*
X98042857Y-96742857D01*
X97985714Y-96771428D01*
X97842857Y-96771428D01*
X97785714Y-96742857D01*
X97757142Y-96714285D01*
X97728571Y-96657142D01*
X97728571Y-96514285D01*
X97757142Y-96457142D01*
X97785714Y-96428571D01*
X98328571Y-96942857D02*
X97728571Y-97142857D01*
X98328571Y-97342857D01*
X104383333Y-105561904D02*
X104383333Y-104761904D01*
X104688095Y-104761904D01*
X104764285Y-104800000D01*
X104802380Y-104838095D01*
X104840476Y-104914285D01*
X104840476Y-105028571D01*
X104802380Y-105104761D01*
X104764285Y-105142857D01*
X104688095Y-105180952D01*
X104383333Y-105180952D01*
X105107142Y-104761904D02*
X105297619Y-105561904D01*
X105450000Y-104990476D01*
X105602380Y-105561904D01*
X105792857Y-104761904D01*
X106554761Y-105561904D02*
X106288095Y-105180952D01*
X106097619Y-105561904D02*
X106097619Y-104761904D01*
X106402380Y-104761904D01*
X106478571Y-104800000D01*
X106516666Y-104838095D01*
X106554761Y-104914285D01*
X106554761Y-105028571D01*
X106516666Y-105104761D01*
X106478571Y-105142857D01*
X106402380Y-105180952D01*
X106097619Y-105180952D01*
X133000000Y-91000000D02*
G75*
G02X135000000Y-93000000I0J-2000000D01*
G01*
X135000000Y-107000000D02*
G75*
G02X133000000Y-109000000I-2000000J0D01*
G01*
X98000000Y-109000000D02*
G75*
G02X96000000Y-107000000I0J2000000D01*
G01*
X96000000Y-93000000D02*
G75*
G02X98000000Y-91000000I2000000J0D01*
G01*
X135000000Y-107000000D02*
X135000000Y-93000000D01*
X98000000Y-109000000D02*
X133000000Y-109000000D01*
X96000000Y-93000000D02*
X96000000Y-107000000D01*
X133000000Y-91000000D02*
X98000000Y-91000000D01*
D13*
G04 #@! TO.C,C2*
X122010000Y-103662780D02*
X122010000Y-103337222D01*
X120990000Y-103662780D02*
X120990000Y-103337222D01*
G04 #@! TO.C,C1*
X120990000Y-96700280D02*
X120990000Y-96374722D01*
X122010000Y-96700280D02*
X122010000Y-96374722D01*
G04 #@! TO.C,J1*
X102460000Y-93690000D02*
X96490000Y-93690000D01*
X96490000Y-93690000D02*
X96490000Y-106310000D01*
X96490000Y-106310000D02*
X102460000Y-106310000D01*
X102460000Y-106310000D02*
X102460000Y-93690000D01*
X102450000Y-97000000D02*
X101700000Y-97000000D01*
X101700000Y-97000000D02*
X101700000Y-103000000D01*
X101700000Y-103000000D02*
X102450000Y-103000000D01*
X102450000Y-103000000D02*
X102450000Y-97000000D01*
X102450000Y-93700000D02*
X101700000Y-93700000D01*
X101700000Y-93700000D02*
X101700000Y-95500000D01*
X101700000Y-95500000D02*
X102450000Y-95500000D01*
X102450000Y-95500000D02*
X102450000Y-93700000D01*
X102450000Y-104500000D02*
X101700000Y-104500000D01*
X101700000Y-104500000D02*
X101700000Y-106300000D01*
X101700000Y-106300000D02*
X102450000Y-106300000D01*
X102450000Y-106300000D02*
X102450000Y-104500000D01*
X100200000Y-93700000D02*
X100200000Y-94450000D01*
X100200000Y-94450000D02*
X97250000Y-94450000D01*
X97250000Y-94450000D02*
X97250000Y-100000000D01*
X100200000Y-106300000D02*
X100200000Y-105550000D01*
X100200000Y-105550000D02*
X97250000Y-105550000D01*
X97250000Y-105550000D02*
X97250000Y-100000000D01*
X102750000Y-94650000D02*
X102750000Y-93400000D01*
X102750000Y-93400000D02*
X101500000Y-93400000D01*
G04 #@! TO.C,D1*
X106500000Y-102540000D02*
X103815000Y-102540000D01*
X103815000Y-102540000D02*
X103815000Y-104460000D01*
X103815000Y-104460000D02*
X106500000Y-104460000D01*
G04 #@! TO.C,R2*
X120510000Y-98162779D02*
X120510000Y-97837221D01*
X119490000Y-98162779D02*
X119490000Y-97837221D01*
G04 #@! TO.C,R1*
X108490000Y-102162779D02*
X108490000Y-101837221D01*
X109510000Y-102162779D02*
X109510000Y-101837221D01*
G04 #@! TO.C,U1*
X105300000Y-100056200D02*
X104100000Y-100056200D01*
X104100000Y-100056200D02*
X104100000Y-97356200D01*
X108900000Y-96056200D02*
X108900000Y-100056200D01*
X108900000Y-100056200D02*
X107700000Y-100056200D01*
G04 #@! TO.C,C4*
X108162779Y-93990000D02*
X107837221Y-93990000D01*
X108162779Y-95010000D02*
X107837221Y-95010000D01*
G04 #@! TO.C,C3*
X104837221Y-93990000D02*
X105162779Y-93990000D01*
X104837221Y-95010000D02*
X105162779Y-95010000D01*
G04 #@! TO.C,R3*
X120510000Y-101587221D02*
X120510000Y-101912779D01*
X119490000Y-101587221D02*
X119490000Y-101912779D01*
D11*
G04 #@! TO.C,P1*
X134572000Y-93650000D02*
X136858000Y-93650000D01*
X136858000Y-93650000D02*
X136858000Y-106350000D01*
X136858000Y-106350000D02*
X134572000Y-106350000D01*
X129238000Y-106350000D02*
X130508000Y-106350000D01*
X129238000Y-93650000D02*
X130508000Y-93650000D01*
X123142000Y-93650000D02*
X125174000Y-93650000D01*
X123142000Y-106350000D02*
X125174000Y-106350000D01*
X123142000Y-106350000D02*
X123142000Y-93650000D01*
G04 #@! TD*
G04 #@! TO.C,C2*
D12*
X122714285Y-103600000D02*
X122742857Y-103628571D01*
X122771428Y-103714285D01*
X122771428Y-103771428D01*
X122742857Y-103857142D01*
X122685714Y-103914285D01*
X122628571Y-103942857D01*
X122514285Y-103971428D01*
X122428571Y-103971428D01*
X122314285Y-103942857D01*
X122257142Y-103914285D01*
X122200000Y-103857142D01*
X122171428Y-103771428D01*
X122171428Y-103714285D01*
X122200000Y-103628571D01*
X122228571Y-103600000D01*
X122228571Y-103371428D02*
X122200000Y-103342857D01*
X122171428Y-103285714D01*
X122171428Y-103142857D01*
X122200000Y-103085714D01*
X122228571Y-103057142D01*
X122285714Y-103028571D01*
X122342857Y-103028571D01*
X122428571Y-103057142D01*
X122771428Y-103400000D01*
X122771428Y-103028571D01*
G04 #@! TO.C,C1*
X122714285Y-96600000D02*
X122742857Y-96628571D01*
X122771428Y-96714285D01*
X122771428Y-96771428D01*
X122742857Y-96857142D01*
X122685714Y-96914285D01*
X122628571Y-96942857D01*
X122514285Y-96971428D01*
X122428571Y-96971428D01*
X122314285Y-96942857D01*
X122257142Y-96914285D01*
X122200000Y-96857142D01*
X122171428Y-96771428D01*
X122171428Y-96714285D01*
X122200000Y-96628571D01*
X122228571Y-96600000D01*
X122771428Y-96028571D02*
X122771428Y-96371428D01*
X122771428Y-96200000D02*
X122171428Y-96200000D01*
X122257142Y-96257142D01*
X122314285Y-96314285D01*
X122342857Y-96371428D01*
G04 #@! TO.C,J1*
X101421428Y-96450000D02*
X101850000Y-96450000D01*
X101935714Y-96478571D01*
X101992857Y-96535714D01*
X102021428Y-96621428D01*
X102021428Y-96678571D01*
X102021428Y-95850000D02*
X102021428Y-96192857D01*
X102021428Y-96021428D02*
X101421428Y-96021428D01*
X101507142Y-96078571D01*
X101564285Y-96135714D01*
X101592857Y-96192857D01*
G04 #@! TO.C,D1*
X103807142Y-102271428D02*
X103807142Y-101671428D01*
X103950000Y-101671428D01*
X104035714Y-101700000D01*
X104092857Y-101757142D01*
X104121428Y-101814285D01*
X104150000Y-101928571D01*
X104150000Y-102014285D01*
X104121428Y-102128571D01*
X104092857Y-102185714D01*
X104035714Y-102242857D01*
X103950000Y-102271428D01*
X103807142Y-102271428D01*
X104721428Y-102271428D02*
X104378571Y-102271428D01*
X104550000Y-102271428D02*
X104550000Y-101671428D01*
X104492857Y-101757142D01*
X104435714Y-101814285D01*
X104378571Y-101842857D01*
G04 #@! TO.C,R2*
X119271428Y-98100000D02*
X118985714Y-98300000D01*
X119271428Y-98442857D02*
X118671428Y-98442857D01*
X118671428Y-98214285D01*
X118700000Y-98157142D01*
X118728571Y-98128571D01*
X118785714Y-98100000D01*
X118871428Y-98100000D01*
X118928571Y-98128571D01*
X118957142Y-98157142D01*
X118985714Y-98214285D01*
X118985714Y-98442857D01*
X118728571Y-97871428D02*
X118700000Y-97842857D01*
X118671428Y-97785714D01*
X118671428Y-97642857D01*
X118700000Y-97585714D01*
X118728571Y-97557142D01*
X118785714Y-97528571D01*
X118842857Y-97528571D01*
X118928571Y-97557142D01*
X119271428Y-97900000D01*
X119271428Y-97528571D01*
G04 #@! TO.C,R1*
X108271428Y-102100000D02*
X107985714Y-102300000D01*
X108271428Y-102442857D02*
X107671428Y-102442857D01*
X107671428Y-102214285D01*
X107700000Y-102157142D01*
X107728571Y-102128571D01*
X107785714Y-102100000D01*
X107871428Y-102100000D01*
X107928571Y-102128571D01*
X107957142Y-102157142D01*
X107985714Y-102214285D01*
X107985714Y-102442857D01*
X108271428Y-101528571D02*
X108271428Y-101871428D01*
X108271428Y-101700000D02*
X107671428Y-101700000D01*
X107757142Y-101757142D01*
X107814285Y-101814285D01*
X107842857Y-101871428D01*
G04 #@! TO.C,U1*
X103171428Y-98457142D02*
X103657142Y-98457142D01*
X103714285Y-98428571D01*
X103742857Y-98400000D01*
X103771428Y-98342857D01*
X103771428Y-98228571D01*
X103742857Y-98171428D01*
X103714285Y-98142857D01*
X103657142Y-98114285D01*
X103171428Y-98114285D01*
X103771428Y-97514285D02*
X103771428Y-97857142D01*
X103771428Y-97685714D02*
X103171428Y-97685714D01*
X103257142Y-97742857D01*
X103314285Y-97800000D01*
X103342857Y-97857142D01*
G04 #@! TO.C,C4*
X107900000Y-93714285D02*
X107871428Y-93742857D01*
X107785714Y-93771428D01*
X107728571Y-93771428D01*
X107642857Y-93742857D01*
X107585714Y-93685714D01*
X107557142Y-93628571D01*
X107528571Y-93514285D01*
X107528571Y-93428571D01*
X107557142Y-93314285D01*
X107585714Y-93257142D01*
X107642857Y-93200000D01*
X107728571Y-93171428D01*
X107785714Y-93171428D01*
X107871428Y-93200000D01*
X107900000Y-93228571D01*
X108414285Y-93371428D02*
X108414285Y-93771428D01*
X108271428Y-93142857D02*
X108128571Y-93571428D01*
X108500000Y-93571428D01*
G04 #@! TO.C,C3*
X104900000Y-93714285D02*
X104871428Y-93742857D01*
X104785714Y-93771428D01*
X104728571Y-93771428D01*
X104642857Y-93742857D01*
X104585714Y-93685714D01*
X104557142Y-93628571D01*
X104528571Y-93514285D01*
X104528571Y-93428571D01*
X104557142Y-93314285D01*
X104585714Y-93257142D01*
X104642857Y-93200000D01*
X104728571Y-93171428D01*
X104785714Y-93171428D01*
X104871428Y-93200000D01*
X104900000Y-93228571D01*
X105100000Y-93171428D02*
X105471428Y-93171428D01*
X105271428Y-93400000D01*
X105357142Y-93400000D01*
X105414285Y-93428571D01*
X105442857Y-93457142D01*
X105471428Y-93514285D01*
X105471428Y-93657142D01*
X105442857Y-93714285D01*
X105414285Y-93742857D01*
X105357142Y-93771428D01*
X105185714Y-93771428D01*
X105128571Y-93742857D01*
X105100000Y-93714285D01*
G04 #@! TO.C,R3*
X119271428Y-101850000D02*
X118985714Y-102050000D01*
X119271428Y-102192857D02*
X118671428Y-102192857D01*
X118671428Y-101964285D01*
X118700000Y-101907142D01*
X118728571Y-101878571D01*
X118785714Y-101850000D01*
X118871428Y-101850000D01*
X118928571Y-101878571D01*
X118957142Y-101907142D01*
X118985714Y-101964285D01*
X118985714Y-102192857D01*
X118671428Y-101650000D02*
X118671428Y-101278571D01*
X118900000Y-101478571D01*
X118900000Y-101392857D01*
X118928571Y-101335714D01*
X118957142Y-101307142D01*
X119014285Y-101278571D01*
X119157142Y-101278571D01*
X119214285Y-101307142D01*
X119242857Y-101335714D01*
X119271428Y-101392857D01*
X119271428Y-101564285D01*
X119242857Y-101621428D01*
X119214285Y-101650000D01*
G04 #@! TD*
M02*
